  0
SECTION
  2
HEADER
  9
$ACADVER
  1
AC1014
  9
$HANDSEED
  5
FFFF
  9
$MEASUREMENT
 70
     1
  0
ENDSEC
  0
SECTION
  2
TABLES
  0
TABLE
  2
VPORT
  5
8
330
0
100
AcDbSymbolTable
 70
     4
  0
VPORT
  5
2E
330
8
100
AcDbSymbolTableRecord
100
AcDbViewportTableRecord
  2
*ACTIVE
 70
     0
 10
0.0
 20
0.0
 11
1.0
 21
1.0
 12
210.0
 22
148.5
 13
0.0
 23
0.0
 14
10.0
 24
10.0
 15
10.0
 25
10.0
 16
0.0
 26
0.0
 36
1.0
 17
0.0
 27
0.0
 37
0.0
 40
341.0
 41
1.24
 42
50.0
 43
0.0
 44
0.0
 50
0.0
 51
0.0
 71
     0
 72
   100
 73
     1
 74
     3
 75
     0
 76
     0
 77
     0
 78
     0
  0
ENDTAB
  0
TABLE
  2
LTYPE
  5
5
330
0
100
AcDbSymbolTable
 70
     1
  0
LTYPE
  5
14
330
5
100
AcDbSymbolTableRecord
100
AcDbLinetypeTableRecord
  2
BYBLOCK
 70
     0
  3

 72
    65
 73
     0
 40
0.0
  0
LTYPE
  5
15
330
5
100
AcDbSymbolTableRecord
100
AcDbLinetypeTableRecord
  2
BYLAYER
 70
     0
  3

 72
    65
 73
     0
 40
0.0
  0
LTYPE
  5
16
330
5
100
AcDbSymbolTableRecord
100
AcDbLinetypeTableRecord
  2
CONTINUOUS
 70
     0
  3
Solid line
 72
    65
 73
     0
 40
0.0
  0
ENDTAB
  0
TABLE
  2
LAYER
  5
2
100
AcDbSymbolTable
 70
5
  0
LAYER
  5
50
100
AcDbSymbolTableRecord
100
AcDbLayerTableRecord
  2
0
 70
0
  6
CONTINUOUS
  0
LAYER
  5
51
100
AcDbSymbolTableRecord
100
AcDbLayerTableRecord
  2
Gravure
 70
0
  6
CONTINUOUS
  0
LAYER
  5
52
100
AcDbSymbolTableRecord
100
AcDbLayerTableRecord
  2
Decoupe_1
 70
0
  6
CONTINUOUS
  0
LAYER
  5
53
100
AcDbSymbolTableRecord
100
AcDbLayerTableRecord
  2
Decoupe_2
 70
0
  6
CONTINUOUS
  0
LAYER
  5
54
100
AcDbSymbolTableRecord
100
AcDbLayerTableRecord
  2
Decoupe_3
 70
0
  6
CONTINUOUS
  0
ENDTAB
  0
TABLE
  2
STYLE
  5
3
330
0
100
AcDbSymbolTable
 70
     1
  0
STYLE
  5
11
330
3
100
AcDbSymbolTableRecord
100
AcDbTextStyleTableRecord
  2
STANDARD
 70
     0
 40
0.0
 41
1.0
 50
0.0
 71
     0
 42
2.5
  3
txt
  4

  0
ENDTAB
  0
TABLE
  2
VIEW
  5
6
330
0
100
AcDbSymbolTable
 70
     0
  0
ENDTAB
  0
TABLE
  2
UCS
  5
7
330
0
100
AcDbSymbolTable
 70
     0
  0
ENDTAB
  0
TABLE
  2
APPID
  5
9
330
0
100
AcDbSymbolTable
 70
     2
  0
APPID
  5
12
330
9
100
AcDbSymbolTableRecord
100
AcDbRegAppTableRecord
  2
ACAD
 70
     0
  0
ENDTAB
  0
TABLE
  2
DIMSTYLE
  5
A
330
0
100
AcDbSymbolTable
 70
     1
  0
DIMSTYLE
105
27
330
A
100
AcDbSymbolTableRecord
100
AcDbDimStyleTableRecord
  2
ISO-25
 70
     0
  3

  4

  5

  6

  7

 40
1.0
 41
2.5
 42
0.625
 43
3.75
 44
1.25
 45
0.0
 46
0.0
 47
0.0
 48
0.0
140
2.5
141
2.5
142
0.0
143
0.03937007874016
144
1.0
145
0.0
146
1.0
147
0.625
 71
     0
 72
     0
 73
     0
 74
     0
 75
     0
 76
     0
 77
     1
 78
     8
170
     0
171
     3
172
     1
173
     0
174
     0
175
     0
176
     0
177
     0
178
     0
270
     2
271
     2
272
     2
273
     2
274
     3
340
11
275
     0
280
     0
281
     0
282
     0
283
     0
284
     8
285
     0
286
     0
287
     3
288
     0
  0
ENDTAB
  0
TABLE
  2
BLOCK_RECORD
  5
1
330
0
100
AcDbSymbolTable
 70
     1
  0
BLOCK_RECORD
  5
1F
330
1
100
AcDbSymbolTableRecord
100
AcDbBlockTableRecord
  2
*MODEL_SPACE
  0
BLOCK_RECORD
  5
1B
330
1
100
AcDbSymbolTableRecord
100
AcDbBlockTableRecord
  2
*PAPER_SPACE
  0
ENDTAB
  0
ENDSEC
  0
SECTION
  2
BLOCKS
  0
BLOCK
  5
20
330
1F
100
AcDbEntity
  8
0
100
AcDbBlockBegin
  2
*MODEL_SPACE
 70
     0
 10
0.0
 20
0.0
 30
0.0
  3
*MODEL_SPACE
  1

  0
ENDBLK
  5
21
330
1F
100
AcDbEntity
  8
0
100
AcDbBlockEnd
  0
BLOCK
  5
1C
330
1B
100
AcDbEntity
 67
     1
  8
0
100
AcDbBlockBegin
  2
*PAPER_SPACE
  1

  0
ENDBLK
  5
1D
330
1B
100
AcDbEntity
 67
     1
  8
0
100
AcDbBlockEnd
  0
ENDSEC
  0
SECTION
  2
ENTITIES
  0
LWPOLYLINE
  5
100
100
AcDbEntity
  8
Decoupe_3
 62
5
100
AcDbPolyline
 90
2
 70
0
 10
47.857400
 20
272.212000
 30
0.0
 10
60.898400
 20
279.623600
 30
0.0
  0
LWPOLYLINE
  5
101
100
AcDbEntity
  8
Decoupe_3
 62
5
100
AcDbPolyline
 90
2
 70
0
 10
49.315000
 20
269.647300
 30
0.0
 10
47.857400
 20
272.212000
 30
0.0
  0
LWPOLYLINE
  5
102
100
AcDbEntity
  8
Decoupe_3
 62
5
100
AcDbPolyline
 90
2
 70
0
 10
62.356000
 20
277.058900
 30
0.0
 10
49.315000
 20
269.647300
 30
0.0
  0
LWPOLYLINE
  5
103
100
AcDbEntity
  8
Decoupe_3
 62
5
100
AcDbPolyline
 90
2
 70
0
 10
60.898400
 20
279.623600
 30
0.0
 10
62.356000
 20
277.058900
 30
0.0
  0
LWPOLYLINE
  5
104
100
AcDbEntity
  8
Decoupe_3
 62
5
100
AcDbPolyline
 90
2
 70
0
 10
18.895400
 20
234.164300
 30
0.0
 10
31.345400
 20
225.797900
 30
0.0
  0
LWPOLYLINE
  5
105
100
AcDbEntity
  8
Decoupe_3
 62
5
100
AcDbPolyline
 90
2
 70
0
 10
17.250000
 20
231.715800
 30
0.0
 10
18.895400
 20
234.164300
 30
0.0
  0
LWPOLYLINE
  5
106
100
AcDbEntity
  8
Decoupe_3
 62
5
100
AcDbPolyline
 90
2
 70
0
 10
29.700000
 20
223.349400
 30
0.0
 10
17.250000
 20
231.715800
 30
0.0
  0
LWPOLYLINE
  5
107
100
AcDbEntity
  8
Decoupe_3
 62
5
100
AcDbPolyline
 90
2
 70
0
 10
31.345400
 20
225.797900
 30
0.0
 10
29.700000
 20
223.349400
 30
0.0
  0
LWPOLYLINE
  5
108
100
AcDbEntity
  8
Decoupe_3
 62
4
100
AcDbPolyline
 90
2
 70
0
 10
10.950000
 20
292.000000
 30
0.0
 10
69.050000
 20
292.000000
 30
0.0
  0
LWPOLYLINE
  5
109
100
AcDbEntity
  8
Decoupe_3
 62
4
100
AcDbPolyline
 90
2
 70
0
 10
10.950000
 20
292.000000
 30
0.0
 10
10.950000
 20
286.000000
 30
0.0
  0
LWPOLYLINE
  5
10a
100
AcDbEntity
  8
Decoupe_3
 62
4
100
AcDbPolyline
 90
2
 70
0
 10
69.050000
 20
286.000000
 30
0.0
 10
69.050000
 20
292.000000
 30
0.0
  0
LWPOLYLINE
  5
10b
100
AcDbEntity
  8
Decoupe_3
 62
4
100
AcDbPolyline
 90
2
 70
0
 10
10.950000
 20
286.000000
 30
0.0
 10
7.950000
 20
286.000000
 30
0.0
  0
LWPOLYLINE
  5
10c
100
AcDbEntity
  8
Decoupe_3
 62
4
100
AcDbPolyline
 90
2
 70
0
 10
72.050000
 20
286.000000
 30
0.0
 10
69.050000
 20
286.000000
 30
0.0
  0
LWPOLYLINE
  5
10d
100
AcDbEntity
  8
Decoupe_3
 62
4
100
AcDbPolyline
 90
2
 70
0
 10
7.950000
 20
286.000000
 30
0.0
 10
7.950000
 20
277.000000
 30
0.0
  0
LWPOLYLINE
  5
10e
100
AcDbEntity
  8
Decoupe_3
 62
4
100
AcDbPolyline
 90
2
 70
0
 10
72.050000
 20
277.000000
 30
0.0
 10
72.050000
 20
286.000000
 30
0.0
  0
LWPOLYLINE
  5
10f
100
AcDbEntity
  8
Decoupe_3
 62
4
100
AcDbPolyline
 90
2
 70
0
 10
7.950000
 20
277.000000
 30
0.0
 10
5.000000
 20
277.000000
 30
0.0
  0
LWPOLYLINE
  5
110
100
AcDbEntity
  8
Decoupe_3
 62
4
100
AcDbPolyline
 90
2
 70
0
 10
75.000000
 20
277.000000
 30
0.0
 10
72.050000
 20
277.000000
 30
0.0
  0
LWPOLYLINE
  5
111
100
AcDbEntity
  8
Decoupe_3
 62
4
100
AcDbPolyline
 90
2
 70
0
 10
5.000000
 20
249.500000
 30
0.0
 10
5.000000
 20
277.000000
 30
0.0
  0
LWPOLYLINE
  5
112
100
AcDbEntity
  8
Decoupe_3
 62
4
100
AcDbPolyline
 90
2
 70
0
 10
75.000000
 20
277.000000
 30
0.0
 10
75.000000
 20
249.500000
 30
0.0
  0
LWPOLYLINE
  5
113
100
AcDbEntity
  8
Decoupe_3
 62
4
100
AcDbPolyline
 90
2
 70
0
 10
5.000000
 20
249.500000
 30
0.0
 10
7.950000
 20
249.500000
 30
0.0
  0
LWPOLYLINE
  5
114
100
AcDbEntity
  8
Decoupe_3
 62
4
100
AcDbPolyline
 90
2
 70
0
 10
72.050000
 20
249.500000
 30
0.0
 10
75.000000
 20
249.500000
 30
0.0
  0
LWPOLYLINE
  5
115
100
AcDbEntity
  8
Decoupe_3
 62
4
100
AcDbPolyline
 90
2
 70
0
 10
7.950000
 20
249.500000
 30
0.0
 10
7.950000
 20
234.500000
 30
0.0
  0
LWPOLYLINE
  5
116
100
AcDbEntity
  8
Decoupe_3
 62
4
100
AcDbPolyline
 90
2
 70
0
 10
72.050000
 20
234.500000
 30
0.0
 10
72.050000
 20
249.500000
 30
0.0
  0
LWPOLYLINE
  5
117
100
AcDbEntity
  8
Decoupe_3
 62
4
100
AcDbPolyline
 90
2
 70
0
 10
7.950000
 20
234.500000
 30
0.0
 10
5.000000
 20
234.500000
 30
0.0
  0
LWPOLYLINE
  5
118
100
AcDbEntity
  8
Decoupe_3
 62
4
100
AcDbPolyline
 90
2
 70
0
 10
75.000000
 20
234.500000
 30
0.0
 10
72.050000
 20
234.500000
 30
0.0
  0
LWPOLYLINE
  5
119
100
AcDbEntity
  8
Decoupe_3
 62
4
100
AcDbPolyline
 90
2
 70
0
 10
5.000000
 20
206.950000
 30
0.0
 10
5.000000
 20
234.500000
 30
0.0
  0
LWPOLYLINE
  5
11a
100
AcDbEntity
  8
Decoupe_3
 62
4
100
AcDbPolyline
 90
2
 70
0
 10
75.000000
 20
234.500000
 30
0.0
 10
75.000000
 20
219.150000
 30
0.0
  0
LWPOLYLINE
  5
11b
100
AcDbEntity
  8
Decoupe_3
 62
4
100
AcDbPolyline
 90
2
 70
0
 10
5.000000
 20
206.950000
 30
0.0
 10
7.950000
 20
206.950000
 30
0.0
  0
LWPOLYLINE
  5
11c
100
AcDbEntity
  8
Decoupe_3
 62
4
100
AcDbPolyline
 90
2
 70
0
 10
72.050000
 20
219.150000
 30
0.0
 10
75.000000
 20
219.150000
 30
0.0
  0
LWPOLYLINE
  5
11d
100
AcDbEntity
  8
Decoupe_3
 62
4
100
AcDbPolyline
 90
2
 70
0
 10
7.950000
 20
206.950000
 30
0.0
 10
7.950000
 20
194.950000
 30
0.0
  0
LWPOLYLINE
  5
11e
100
AcDbEntity
  8
Decoupe_3
 62
4
100
AcDbPolyline
 90
2
 70
0
 10
72.050000
 20
194.950000
 30
0.0
 10
72.050000
 20
219.150000
 30
0.0
  0
LWPOLYLINE
  5
11f
100
AcDbEntity
  8
Decoupe_3
 62
4
100
AcDbPolyline
 90
2
 70
0
 10
7.950000
 20
194.950000
 30
0.0
 10
12.000000
 20
194.950000
 30
0.0
  0
LWPOLYLINE
  5
120
100
AcDbEntity
  8
Decoupe_3
 62
4
100
AcDbPolyline
 90
2
 70
0
 10
68.000000
 20
194.950000
 30
0.0
 10
72.050000
 20
194.950000
 30
0.0
  0
LWPOLYLINE
  5
121
100
AcDbEntity
  8
Decoupe_3
 62
4
100
AcDbPolyline
 90
2
 70
0
 10
12.000000
 20
194.950000
 30
0.0
 10
12.000000
 20
192.000000
 30
0.0
  0
LWPOLYLINE
  5
122
100
AcDbEntity
  8
Decoupe_3
 62
4
100
AcDbPolyline
 90
2
 70
0
 10
68.000000
 20
192.000000
 30
0.0
 10
68.000000
 20
194.950000
 30
0.0
  0
LWPOLYLINE
  5
123
100
AcDbEntity
  8
Decoupe_3
 62
4
100
AcDbPolyline
 90
2
 70
0
 10
22.000000
 20
192.000000
 30
0.0
 10
12.000000
 20
192.000000
 30
0.0
  0
LWPOLYLINE
  5
124
100
AcDbEntity
  8
Decoupe_3
 62
4
100
AcDbPolyline
 90
2
 70
0
 10
68.000000
 20
192.000000
 30
0.0
 10
58.000000
 20
192.000000
 30
0.0
  0
LWPOLYLINE
  5
125
100
AcDbEntity
  8
Decoupe_3
 62
4
100
AcDbPolyline
 90
2
 70
0
 10
22.000000
 20
192.000000
 30
0.0
 10
22.000000
 20
194.950000
 30
0.0
  0
LWPOLYLINE
  5
126
100
AcDbEntity
  8
Decoupe_3
 62
4
100
AcDbPolyline
 90
2
 70
0
 10
58.000000
 20
194.950000
 30
0.0
 10
58.000000
 20
192.000000
 30
0.0
  0
LWPOLYLINE
  5
127
100
AcDbEntity
  8
Decoupe_3
 62
4
100
AcDbPolyline
 90
2
 70
0
 10
22.000000
 20
194.950000
 30
0.0
 10
58.000000
 20
194.950000
 30
0.0
  0
LWPOLYLINE
  5
128
100
AcDbEntity
  8
Decoupe_3
 62
4
100
AcDbPolyline
 90
2
 70
0
 10
83.047778
 20
292.000000
 30
0.0
 10
141.147778
 20
292.000000
 30
0.0
  0
LWPOLYLINE
  5
129
100
AcDbEntity
  8
Decoupe_3
 62
4
100
AcDbPolyline
 90
2
 70
0
 10
83.047778
 20
292.000000
 30
0.0
 10
83.047778
 20
286.000000
 30
0.0
  0
LWPOLYLINE
  5
12a
100
AcDbEntity
  8
Decoupe_3
 62
4
100
AcDbPolyline
 90
2
 70
0
 10
141.147778
 20
286.000000
 30
0.0
 10
141.147778
 20
292.000000
 30
0.0
  0
LWPOLYLINE
  5
12b
100
AcDbEntity
  8
Decoupe_3
 62
4
100
AcDbPolyline
 90
2
 70
0
 10
147.097778
 20
286.000000
 30
0.0
 10
141.147778
 20
286.000000
 30
0.0
  0
LWPOLYLINE
  5
12c
100
AcDbEntity
  8
Decoupe_3
 62
4
100
AcDbPolyline
 90
2
 70
0
 10
147.097778
 20
286.000000
 30
0.0
 10
147.097778
 20
277.000000
 30
0.0
  0
LWPOLYLINE
  5
12d
100
AcDbEntity
  8
Decoupe_3
 62
4
100
AcDbPolyline
 90
2
 70
0
 10
144.147778
 20
277.000000
 30
0.0
 10
147.097778
 20
277.000000
 30
0.0
  0
LWPOLYLINE
  5
12e
100
AcDbEntity
  8
Decoupe_3
 62
4
100
AcDbPolyline
 90
2
 70
0
 10
144.147778
 20
249.500000
 30
0.0
 10
144.147778
 20
277.000000
 30
0.0
  0
LWPOLYLINE
  5
12f
100
AcDbEntity
  8
Decoupe_3
 62
4
100
AcDbPolyline
 90
2
 70
0
 10
147.097778
 20
249.500000
 30
0.0
 10
144.147778
 20
249.500000
 30
0.0
  0
LWPOLYLINE
  5
130
100
AcDbEntity
  8
Decoupe_3
 62
4
100
AcDbPolyline
 90
2
 70
0
 10
147.097778
 20
249.500000
 30
0.0
 10
147.097778
 20
234.500000
 30
0.0
  0
LWPOLYLINE
  5
131
100
AcDbEntity
  8
Decoupe_3
 62
4
100
AcDbPolyline
 90
2
 70
0
 10
144.147778
 20
234.500000
 30
0.0
 10
147.097778
 20
234.500000
 30
0.0
  0
LWPOLYLINE
  5
132
100
AcDbEntity
  8
Decoupe_3
 62
4
100
AcDbPolyline
 90
2
 70
0
 10
144.147778
 20
207.000000
 30
0.0
 10
144.147778
 20
234.500000
 30
0.0
  0
LWPOLYLINE
  5
133
100
AcDbEntity
  8
Decoupe_3
 62
4
100
AcDbPolyline
 90
2
 70
0
 10
147.097778
 20
207.000000
 30
0.0
 10
144.147778
 20
207.000000
 30
0.0
  0
LWPOLYLINE
  5
134
100
AcDbEntity
  8
Decoupe_3
 62
4
100
AcDbPolyline
 90
2
 70
0
 10
147.097778
 20
207.000000
 30
0.0
 10
147.097778
 20
194.950000
 30
0.0
  0
LWPOLYLINE
  5
135
100
AcDbEntity
  8
Decoupe_3
 62
4
100
AcDbPolyline
 90
2
 70
0
 10
140.097778
 20
194.950000
 30
0.0
 10
147.097778
 20
194.950000
 30
0.0
  0
LWPOLYLINE
  5
136
100
AcDbEntity
  8
Decoupe_3
 62
4
100
AcDbPolyline
 90
2
 70
0
 10
140.097778
 20
192.000000
 30
0.0
 10
140.097778
 20
194.950000
 30
0.0
  0
LWPOLYLINE
  5
137
100
AcDbEntity
  8
Decoupe_3
 62
4
100
AcDbPolyline
 90
2
 70
0
 10
140.097778
 20
192.000000
 30
0.0
 10
130.097778
 20
192.000000
 30
0.0
  0
LWPOLYLINE
  5
138
100
AcDbEntity
  8
Decoupe_3
 62
4
100
AcDbPolyline
 90
2
 70
0
 10
130.097778
 20
194.950000
 30
0.0
 10
130.097778
 20
192.000000
 30
0.0
  0
LWPOLYLINE
  5
139
100
AcDbEntity
  8
Decoupe_3
 62
4
100
AcDbPolyline
 90
2
 70
0
 10
94.097778
 20
194.950000
 30
0.0
 10
130.097778
 20
194.950000
 30
0.0
  0
LWPOLYLINE
  5
13a
100
AcDbEntity
  8
Decoupe_3
 62
4
100
AcDbPolyline
 90
2
 70
0
 10
94.097778
 20
192.000000
 30
0.0
 10
94.097778
 20
194.950000
 30
0.0
  0
LWPOLYLINE
  5
13b
100
AcDbEntity
  8
Decoupe_3
 62
4
100
AcDbPolyline
 90
2
 70
0
 10
94.097778
 20
192.000000
 30
0.0
 10
84.097778
 20
192.000000
 30
0.0
  0
LWPOLYLINE
  5
13c
100
AcDbEntity
  8
Decoupe_3
 62
4
100
AcDbPolyline
 90
2
 70
0
 10
84.097778
 20
194.950000
 30
0.0
 10
84.097778
 20
192.000000
 30
0.0
  0
LWPOLYLINE
  5
13d
100
AcDbEntity
  8
Decoupe_3
 62
4
100
AcDbPolyline
 90
2
 70
0
 10
77.097778
 20
194.950000
 30
0.0
 10
84.097778
 20
194.950000
 30
0.0
  0
LWPOLYLINE
  5
13e
100
AcDbEntity
  8
Decoupe_3
 62
4
100
AcDbPolyline
 90
2
 70
0
 10
77.097778
 20
194.950000
 30
0.0
 10
77.097778
 20
207.000000
 30
0.0
  0
LWPOLYLINE
  5
13f
100
AcDbEntity
  8
Decoupe_3
 62
4
100
AcDbPolyline
 90
2
 70
0
 10
80.047778
 20
207.000000
 30
0.0
 10
77.097778
 20
207.000000
 30
0.0
  0
LWPOLYLINE
  5
140
100
AcDbEntity
  8
Decoupe_3
 62
4
100
AcDbPolyline
 90
2
 70
0
 10
80.047778
 20
234.500000
 30
0.0
 10
80.047778
 20
207.000000
 30
0.0
  0
LWPOLYLINE
  5
141
100
AcDbEntity
  8
Decoupe_3
 62
4
100
AcDbPolyline
 90
2
 70
0
 10
77.097778
 20
234.500000
 30
0.0
 10
80.047778
 20
234.500000
 30
0.0
  0
LWPOLYLINE
  5
142
100
AcDbEntity
  8
Decoupe_3
 62
4
100
AcDbPolyline
 90
2
 70
0
 10
77.097778
 20
234.500000
 30
0.0
 10
77.097778
 20
249.500000
 30
0.0
  0
LWPOLYLINE
  5
143
100
AcDbEntity
  8
Decoupe_3
 62
4
100
AcDbPolyline
 90
2
 70
0
 10
80.047778
 20
249.500000
 30
0.0
 10
77.097778
 20
249.500000
 30
0.0
  0
LWPOLYLINE
  5
144
100
AcDbEntity
  8
Decoupe_3
 62
4
100
AcDbPolyline
 90
2
 70
0
 10
80.047778
 20
277.000000
 30
0.0
 10
80.047778
 20
249.500000
 30
0.0
  0
LWPOLYLINE
  5
145
100
AcDbEntity
  8
Decoupe_3
 62
4
100
AcDbPolyline
 90
2
 70
0
 10
77.097778
 20
277.000000
 30
0.0
 10
80.047778
 20
277.000000
 30
0.0
  0
LWPOLYLINE
  5
146
100
AcDbEntity
  8
Decoupe_3
 62
4
100
AcDbPolyline
 90
2
 70
0
 10
77.097778
 20
277.000000
 30
0.0
 10
77.097778
 20
286.000000
 30
0.0
  0
LWPOLYLINE
  5
147
100
AcDbEntity
  8
Decoupe_3
 62
4
100
AcDbPolyline
 90
2
 70
0
 10
83.047778
 20
286.000000
 30
0.0
 10
77.097778
 20
286.000000
 30
0.0
  0
LWPOLYLINE
  5
148
100
AcDbEntity
  8
Decoupe_3
 62
5
100
AcDbPolyline
 90
2
 70
0
 10
191.488517
 20
272.212000
 30
0.0
 10
204.529517
 20
279.623600
 30
0.0
  0
LWPOLYLINE
  5
149
100
AcDbEntity
  8
Decoupe_3
 62
5
100
AcDbPolyline
 90
2
 70
0
 10
192.946117
 20
269.647300
 30
0.0
 10
191.488517
 20
272.212000
 30
0.0
  0
LWPOLYLINE
  5
14a
100
AcDbEntity
  8
Decoupe_3
 62
5
100
AcDbPolyline
 90
2
 70
0
 10
205.987117
 20
277.058900
 30
0.0
 10
192.946117
 20
269.647300
 30
0.0
  0
LWPOLYLINE
  5
14b
100
AcDbEntity
  8
Decoupe_3
 62
5
100
AcDbPolyline
 90
2
 70
0
 10
204.529517
 20
279.623600
 30
0.0
 10
205.987117
 20
277.058900
 30
0.0
  0
LWPOLYLINE
  5
14c
100
AcDbEntity
  8
Decoupe_3
 62
5
100
AcDbPolyline
 90
2
 70
0
 10
162.526517
 20
234.164300
 30
0.0
 10
174.976517
 20
225.797900
 30
0.0
  0
LWPOLYLINE
  5
14d
100
AcDbEntity
  8
Decoupe_3
 62
5
100
AcDbPolyline
 90
2
 70
0
 10
160.881117
 20
231.715800
 30
0.0
 10
162.526517
 20
234.164300
 30
0.0
  0
LWPOLYLINE
  5
14e
100
AcDbEntity
  8
Decoupe_3
 62
5
100
AcDbPolyline
 90
2
 70
0
 10
173.331117
 20
223.349400
 30
0.0
 10
160.881117
 20
231.715800
 30
0.0
  0
LWPOLYLINE
  5
14f
100
AcDbEntity
  8
Decoupe_3
 62
5
100
AcDbPolyline
 90
2
 70
0
 10
174.976517
 20
225.797900
 30
0.0
 10
173.331117
 20
223.349400
 30
0.0
  0
LWPOLYLINE
  5
150
100
AcDbEntity
  8
Decoupe_3
 62
4
100
AcDbPolyline
 90
2
 70
0
 10
154.581117
 20
292.000000
 30
0.0
 10
212.681117
 20
292.000000
 30
0.0
  0
LWPOLYLINE
  5
151
100
AcDbEntity
  8
Decoupe_3
 62
4
100
AcDbPolyline
 90
2
 70
0
 10
154.581117
 20
292.000000
 30
0.0
 10
154.581117
 20
286.000000
 30
0.0
  0
LWPOLYLINE
  5
152
100
AcDbEntity
  8
Decoupe_3
 62
4
100
AcDbPolyline
 90
2
 70
0
 10
212.681117
 20
286.000000
 30
0.0
 10
212.681117
 20
292.000000
 30
0.0
  0
LWPOLYLINE
  5
153
100
AcDbEntity
  8
Decoupe_3
 62
4
100
AcDbPolyline
 90
2
 70
0
 10
154.581117
 20
286.000000
 30
0.0
 10
151.581117
 20
286.000000
 30
0.0
  0
LWPOLYLINE
  5
154
100
AcDbEntity
  8
Decoupe_3
 62
4
100
AcDbPolyline
 90
2
 70
0
 10
215.681117
 20
286.000000
 30
0.0
 10
212.681117
 20
286.000000
 30
0.0
  0
LWPOLYLINE
  5
155
100
AcDbEntity
  8
Decoupe_3
 62
4
100
AcDbPolyline
 90
2
 70
0
 10
151.581117
 20
286.000000
 30
0.0
 10
151.581117
 20
277.000000
 30
0.0
  0
LWPOLYLINE
  5
156
100
AcDbEntity
  8
Decoupe_3
 62
4
100
AcDbPolyline
 90
2
 70
0
 10
215.681117
 20
277.000000
 30
0.0
 10
215.681117
 20
286.000000
 30
0.0
  0
LWPOLYLINE
  5
157
100
AcDbEntity
  8
Decoupe_3
 62
4
100
AcDbPolyline
 90
2
 70
0
 10
151.581117
 20
277.000000
 30
0.0
 10
148.631117
 20
277.000000
 30
0.0
  0
LWPOLYLINE
  5
158
100
AcDbEntity
  8
Decoupe_3
 62
4
100
AcDbPolyline
 90
2
 70
0
 10
218.631117
 20
277.000000
 30
0.0
 10
215.681117
 20
277.000000
 30
0.0
  0
LWPOLYLINE
  5
159
100
AcDbEntity
  8
Decoupe_3
 62
4
100
AcDbPolyline
 90
2
 70
0
 10
148.631117
 20
249.500000
 30
0.0
 10
148.631117
 20
277.000000
 30
0.0
  0
LWPOLYLINE
  5
15a
100
AcDbEntity
  8
Decoupe_3
 62
4
100
AcDbPolyline
 90
2
 70
0
 10
218.631117
 20
277.000000
 30
0.0
 10
218.631117
 20
249.500000
 30
0.0
  0
LWPOLYLINE
  5
15b
100
AcDbEntity
  8
Decoupe_3
 62
4
100
AcDbPolyline
 90
2
 70
0
 10
148.631117
 20
249.500000
 30
0.0
 10
151.581117
 20
249.500000
 30
0.0
  0
LWPOLYLINE
  5
15c
100
AcDbEntity
  8
Decoupe_3
 62
4
100
AcDbPolyline
 90
2
 70
0
 10
215.681117
 20
249.500000
 30
0.0
 10
218.631117
 20
249.500000
 30
0.0
  0
LWPOLYLINE
  5
15d
100
AcDbEntity
  8
Decoupe_3
 62
4
100
AcDbPolyline
 90
2
 70
0
 10
151.581117
 20
249.500000
 30
0.0
 10
151.581117
 20
234.500000
 30
0.0
  0
LWPOLYLINE
  5
15e
100
AcDbEntity
  8
Decoupe_3
 62
4
100
AcDbPolyline
 90
2
 70
0
 10
215.681117
 20
234.500000
 30
0.0
 10
215.681117
 20
249.500000
 30
0.0
  0
LWPOLYLINE
  5
15f
100
AcDbEntity
  8
Decoupe_3
 62
4
100
AcDbPolyline
 90
2
 70
0
 10
151.581117
 20
234.500000
 30
0.0
 10
148.631117
 20
234.500000
 30
0.0
  0
LWPOLYLINE
  5
160
100
AcDbEntity
  8
Decoupe_3
 62
4
100
AcDbPolyline
 90
2
 70
0
 10
218.631117
 20
234.500000
 30
0.0
 10
215.681117
 20
234.500000
 30
0.0
  0
LWPOLYLINE
  5
161
100
AcDbEntity
  8
Decoupe_3
 62
4
100
AcDbPolyline
 90
2
 70
0
 10
148.631117
 20
206.950000
 30
0.0
 10
148.631117
 20
234.500000
 30
0.0
  0
LWPOLYLINE
  5
162
100
AcDbEntity
  8
Decoupe_3
 62
4
100
AcDbPolyline
 90
2
 70
0
 10
218.631117
 20
234.500000
 30
0.0
 10
218.631117
 20
219.150000
 30
0.0
  0
LWPOLYLINE
  5
163
100
AcDbEntity
  8
Decoupe_3
 62
4
100
AcDbPolyline
 90
2
 70
0
 10
148.631117
 20
206.950000
 30
0.0
 10
151.581117
 20
206.950000
 30
0.0
  0
LWPOLYLINE
  5
164
100
AcDbEntity
  8
Decoupe_3
 62
4
100
AcDbPolyline
 90
2
 70
0
 10
215.681117
 20
219.150000
 30
0.0
 10
218.631117
 20
219.150000
 30
0.0
  0
LWPOLYLINE
  5
165
100
AcDbEntity
  8
Decoupe_3
 62
4
100
AcDbPolyline
 90
2
 70
0
 10
151.581117
 20
206.950000
 30
0.0
 10
151.581117
 20
194.950000
 30
0.0
  0
LWPOLYLINE
  5
166
100
AcDbEntity
  8
Decoupe_3
 62
4
100
AcDbPolyline
 90
2
 70
0
 10
215.681117
 20
194.950000
 30
0.0
 10
215.681117
 20
219.150000
 30
0.0
  0
LWPOLYLINE
  5
167
100
AcDbEntity
  8
Decoupe_3
 62
4
100
AcDbPolyline
 90
2
 70
0
 10
151.581117
 20
194.950000
 30
0.0
 10
155.631117
 20
194.950000
 30
0.0
  0
LWPOLYLINE
  5
168
100
AcDbEntity
  8
Decoupe_3
 62
4
100
AcDbPolyline
 90
2
 70
0
 10
211.631117
 20
194.950000
 30
0.0
 10
215.681117
 20
194.950000
 30
0.0
  0
LWPOLYLINE
  5
169
100
AcDbEntity
  8
Decoupe_3
 62
4
100
AcDbPolyline
 90
2
 70
0
 10
155.631117
 20
194.950000
 30
0.0
 10
155.631117
 20
192.000000
 30
0.0
  0
LWPOLYLINE
  5
16a
100
AcDbEntity
  8
Decoupe_3
 62
4
100
AcDbPolyline
 90
2
 70
0
 10
211.631117
 20
192.000000
 30
0.0
 10
211.631117
 20
194.950000
 30
0.0
  0
LWPOLYLINE
  5
16b
100
AcDbEntity
  8
Decoupe_3
 62
4
100
AcDbPolyline
 90
2
 70
0
 10
165.631117
 20
192.000000
 30
0.0
 10
155.631117
 20
192.000000
 30
0.0
  0
LWPOLYLINE
  5
16c
100
AcDbEntity
  8
Decoupe_3
 62
4
100
AcDbPolyline
 90
2
 70
0
 10
211.631117
 20
192.000000
 30
0.0
 10
201.631117
 20
192.000000
 30
0.0
  0
LWPOLYLINE
  5
16d
100
AcDbEntity
  8
Decoupe_3
 62
4
100
AcDbPolyline
 90
2
 70
0
 10
165.631117
 20
192.000000
 30
0.0
 10
165.631117
 20
194.950000
 30
0.0
  0
LWPOLYLINE
  5
16e
100
AcDbEntity
  8
Decoupe_3
 62
4
100
AcDbPolyline
 90
2
 70
0
 10
201.631117
 20
194.950000
 30
0.0
 10
201.631117
 20
192.000000
 30
0.0
  0
LWPOLYLINE
  5
16f
100
AcDbEntity
  8
Decoupe_3
 62
4
100
AcDbPolyline
 90
2
 70
0
 10
165.631117
 20
194.950000
 30
0.0
 10
201.631117
 20
194.950000
 30
0.0
  0
LWPOLYLINE
  5
170
100
AcDbEntity
  8
Decoupe_3
 62
4
100
AcDbPolyline
 90
2
 70
0
 10
226.867505
 20
292.000000
 30
0.0
 10
284.967505
 20
292.000000
 30
0.0
  0
LWPOLYLINE
  5
171
100
AcDbEntity
  8
Decoupe_3
 62
4
100
AcDbPolyline
 90
2
 70
0
 10
226.867505
 20
292.000000
 30
0.0
 10
226.867505
 20
286.000000
 30
0.0
  0
LWPOLYLINE
  5
172
100
AcDbEntity
  8
Decoupe_3
 62
4
100
AcDbPolyline
 90
2
 70
0
 10
284.967505
 20
286.000000
 30
0.0
 10
284.967505
 20
292.000000
 30
0.0
  0
LWPOLYLINE
  5
173
100
AcDbEntity
  8
Decoupe_3
 62
4
100
AcDbPolyline
 90
2
 70
0
 10
290.917505
 20
286.000000
 30
0.0
 10
284.967505
 20
286.000000
 30
0.0
  0
LWPOLYLINE
  5
174
100
AcDbEntity
  8
Decoupe_3
 62
4
100
AcDbPolyline
 90
2
 70
0
 10
290.917505
 20
286.000000
 30
0.0
 10
290.917505
 20
277.000000
 30
0.0
  0
LWPOLYLINE
  5
175
100
AcDbEntity
  8
Decoupe_3
 62
4
100
AcDbPolyline
 90
2
 70
0
 10
287.967505
 20
277.000000
 30
0.0
 10
290.917505
 20
277.000000
 30
0.0
  0
LWPOLYLINE
  5
176
100
AcDbEntity
  8
Decoupe_3
 62
4
100
AcDbPolyline
 90
2
 70
0
 10
287.967505
 20
249.500000
 30
0.0
 10
287.967505
 20
277.000000
 30
0.0
  0
LWPOLYLINE
  5
177
100
AcDbEntity
  8
Decoupe_3
 62
4
100
AcDbPolyline
 90
2
 70
0
 10
290.917505
 20
249.500000
 30
0.0
 10
287.967505
 20
249.500000
 30
0.0
  0
LWPOLYLINE
  5
178
100
AcDbEntity
  8
Decoupe_3
 62
4
100
AcDbPolyline
 90
2
 70
0
 10
290.917505
 20
249.500000
 30
0.0
 10
290.917505
 20
234.500000
 30
0.0
  0
LWPOLYLINE
  5
179
100
AcDbEntity
  8
Decoupe_3
 62
4
100
AcDbPolyline
 90
2
 70
0
 10
287.967505
 20
234.500000
 30
0.0
 10
290.917505
 20
234.500000
 30
0.0
  0
LWPOLYLINE
  5
17a
100
AcDbEntity
  8
Decoupe_3
 62
4
100
AcDbPolyline
 90
2
 70
0
 10
287.967505
 20
219.000000
 30
0.0
 10
287.967505
 20
234.500000
 30
0.0
  0
LWPOLYLINE
  5
17b
100
AcDbEntity
  8
Decoupe_3
 62
4
100
AcDbPolyline
 90
2
 70
0
 10
223.867505
 20
219.000000
 30
0.0
 10
287.967505
 20
219.000000
 30
0.0
  0
LWPOLYLINE
  5
17c
100
AcDbEntity
  8
Decoupe_3
 62
4
100
AcDbPolyline
 90
2
 70
0
 10
223.867505
 20
234.500000
 30
0.0
 10
223.867505
 20
219.000000
 30
0.0
  0
LWPOLYLINE
  5
17d
100
AcDbEntity
  8
Decoupe_3
 62
4
100
AcDbPolyline
 90
2
 70
0
 10
220.917505
 20
234.500000
 30
0.0
 10
223.867505
 20
234.500000
 30
0.0
  0
LWPOLYLINE
  5
17e
100
AcDbEntity
  8
Decoupe_3
 62
4
100
AcDbPolyline
 90
2
 70
0
 10
220.917505
 20
234.500000
 30
0.0
 10
220.917505
 20
249.500000
 30
0.0
  0
LWPOLYLINE
  5
17f
100
AcDbEntity
  8
Decoupe_3
 62
4
100
AcDbPolyline
 90
2
 70
0
 10
223.867505
 20
249.500000
 30
0.0
 10
220.917505
 20
249.500000
 30
0.0
  0
LWPOLYLINE
  5
180
100
AcDbEntity
  8
Decoupe_3
 62
4
100
AcDbPolyline
 90
2
 70
0
 10
223.867505
 20
277.000000
 30
0.0
 10
223.867505
 20
249.500000
 30
0.0
  0
LWPOLYLINE
  5
181
100
AcDbEntity
  8
Decoupe_3
 62
4
100
AcDbPolyline
 90
2
 70
0
 10
220.917505
 20
277.000000
 30
0.0
 10
223.867505
 20
277.000000
 30
0.0
  0
LWPOLYLINE
  5
182
100
AcDbEntity
  8
Decoupe_3
 62
4
100
AcDbPolyline
 90
2
 70
0
 10
220.917505
 20
277.000000
 30
0.0
 10
220.917505
 20
286.000000
 30
0.0
  0
LWPOLYLINE
  5
183
100
AcDbEntity
  8
Decoupe_3
 62
4
100
AcDbPolyline
 90
2
 70
0
 10
226.867505
 20
286.000000
 30
0.0
 10
220.917505
 20
286.000000
 30
0.0
  0
LWPOLYLINE
  5
184
100
AcDbEntity
  8
Decoupe_3
 62
4
100
AcDbPolyline
 90
2
 70
0
 10
225.896543
 20
145.495630
 30
0.0
 10
289.996533
 20
145.495630
 30
0.0
  0
LWPOLYLINE
  5
185
100
AcDbEntity
  8
Decoupe_3
 62
4
100
AcDbPolyline
 90
2
 70
0
 10
225.896543
 20
145.495630
 30
0.0
 10
225.896543
 20
190.495630
 30
0.0
  0
LWPOLYLINE
  5
186
100
AcDbEntity
  8
Decoupe_3
 62
4
100
AcDbPolyline
 90
2
 70
0
 10
289.996533
 20
190.495630
 30
0.0
 10
289.996533
 20
145.495630
 30
0.0
  0
LWPOLYLINE
  5
187
100
AcDbEntity
  8
Decoupe_3
 62
4
100
AcDbPolyline
 90
2
 70
0
 10
292.946533
 20
190.495630
 30
0.0
 10
289.996533
 20
190.495630
 30
0.0
  0
LWPOLYLINE
  5
188
100
AcDbEntity
  8
Decoupe_3
 62
4
100
AcDbPolyline
 90
2
 70
0
 10
292.946533
 20
190.495630
 30
0.0
 10
292.946533
 20
205.495930
 30
0.0
  0
LWPOLYLINE
  5
189
100
AcDbEntity
  8
Decoupe_3
 62
4
100
AcDbPolyline
 90
2
 70
0
 10
289.996533
 20
205.495930
 30
0.0
 10
292.946533
 20
205.495930
 30
0.0
  0
LWPOLYLINE
  5
18a
100
AcDbEntity
  8
Decoupe_3
 62
4
100
AcDbPolyline
 90
2
 70
0
 10
289.996533
 20
215.495930
 30
0.0
 10
289.996533
 20
205.495930
 30
0.0
  0
LWPOLYLINE
  5
18b
100
AcDbEntity
  8
Decoupe_3
 62
4
100
AcDbPolyline
 90
2
 70
0
 10
289.996533
 20
215.495930
 30
0.0
 10
225.896543
 20
215.495930
 30
0.0
  0
LWPOLYLINE
  5
18c
100
AcDbEntity
  8
Decoupe_3
 62
4
100
AcDbPolyline
 90
2
 70
0
 10
225.896543
 20
205.495930
 30
0.0
 10
225.896543
 20
215.495930
 30
0.0
  0
LWPOLYLINE
  5
18d
100
AcDbEntity
  8
Decoupe_3
 62
4
100
AcDbPolyline
 90
2
 70
0
 10
222.946543
 20
205.495930
 30
0.0
 10
225.896543
 20
205.495930
 30
0.0
  0
LWPOLYLINE
  5
18e
100
AcDbEntity
  8
Decoupe_3
 62
4
100
AcDbPolyline
 90
2
 70
0
 10
222.946543
 20
205.495930
 30
0.0
 10
222.946543
 20
190.495630
 30
0.0
  0
LWPOLYLINE
  5
18f
100
AcDbEntity
  8
Decoupe_3
 62
4
100
AcDbPolyline
 90
2
 70
0
 10
225.896543
 20
190.495630
 30
0.0
 10
222.946543
 20
190.495630
 30
0.0
  0
LWPOLYLINE
  5
190
100
AcDbEntity
  8
Decoupe_3
 62
4
100
AcDbPolyline
 90
2
 70
0
 10
222.704320
 20
82.047130
 30
0.0
 10
158.604320
 20
82.047130
 30
0.0
  0
LWPOLYLINE
  5
191
100
AcDbEntity
  8
Decoupe_3
 62
4
100
AcDbPolyline
 90
2
 70
0
 10
222.704320
 20
82.047130
 30
0.0
 10
222.704320
 20
72.047130
 30
0.0
  0
LWPOLYLINE
  5
192
100
AcDbEntity
  8
Decoupe_3
 62
4
100
AcDbPolyline
 90
2
 70
0
 10
158.604320
 20
72.047130
 30
0.0
 10
158.604320
 20
82.047130
 30
0.0
  0
LWPOLYLINE
  5
193
100
AcDbEntity
  8
Decoupe_3
 62
4
100
AcDbPolyline
 90
2
 70
0
 10
155.654320
 20
72.047130
 30
0.0
 10
158.604320
 20
72.047130
 30
0.0
  0
LWPOLYLINE
  5
194
100
AcDbEntity
  8
Decoupe_3
 62
4
100
AcDbPolyline
 90
2
 70
0
 10
155.654320
 20
72.047130
 30
0.0
 10
155.654320
 20
57.047130
 30
0.0
  0
LWPOLYLINE
  5
195
100
AcDbEntity
  8
Decoupe_3
 62
4
100
AcDbPolyline
 90
2
 70
0
 10
158.604320
 20
57.047130
 30
0.0
 10
155.654320
 20
57.047130
 30
0.0
  0
LWPOLYLINE
  5
196
100
AcDbEntity
  8
Decoupe_3
 62
4
100
AcDbPolyline
 90
2
 70
0
 10
158.604320
 20
42.047130
 30
0.0
 10
158.604320
 20
57.047130
 30
0.0
  0
LWPOLYLINE
  5
197
100
AcDbEntity
  8
Decoupe_3
 62
4
100
AcDbPolyline
 90
2
 70
0
 10
158.604320
 20
42.047130
 30
0.0
 10
222.704320
 20
42.047130
 30
0.0
  0
LWPOLYLINE
  5
198
100
AcDbEntity
  8
Decoupe_3
 62
4
100
AcDbPolyline
 90
2
 70
0
 10
222.704320
 20
57.047130
 30
0.0
 10
222.704320
 20
42.047130
 30
0.0
  0
LWPOLYLINE
  5
199
100
AcDbEntity
  8
Decoupe_3
 62
4
100
AcDbPolyline
 90
2
 70
0
 10
225.654320
 20
57.047130
 30
0.0
 10
222.704320
 20
57.047130
 30
0.0
  0
LWPOLYLINE
  5
19a
100
AcDbEntity
  8
Decoupe_3
 62
4
100
AcDbPolyline
 90
2
 70
0
 10
225.654320
 20
57.047130
 30
0.0
 10
225.654320
 20
72.047130
 30
0.0
  0
LWPOLYLINE
  5
19b
100
AcDbEntity
  8
Decoupe_3
 62
4
100
AcDbPolyline
 90
2
 70
0
 10
222.704320
 20
72.047130
 30
0.0
 10
225.654320
 20
72.047130
 30
0.0
  0
LWPOLYLINE
  5
19c
100
AcDbEntity
  8
Decoupe_3
 62
5
100
AcDbPolyline
 90
2
 70
0
 10
11.000000
 20
122.112834
 30
0.0
 10
8.050000
 20
122.112834
 30
0.0
  0
LWPOLYLINE
  5
19d
100
AcDbEntity
  8
Decoupe_3
 62
5
100
AcDbPolyline
 90
2
 70
0
 10
11.000000
 20
180.112834
 30
0.0
 10
11.000000
 20
122.112834
 30
0.0
  0
LWPOLYLINE
  5
19e
100
AcDbEntity
  8
Decoupe_3
 62
5
100
AcDbPolyline
 90
2
 70
0
 10
8.050000
 20
180.112834
 30
0.0
 10
11.000000
 20
180.112834
 30
0.0
  0
LWPOLYLINE
  5
19f
100
AcDbEntity
  8
Decoupe_3
 62
5
100
AcDbPolyline
 90
2
 70
0
 10
8.050000
 20
122.112834
 30
0.0
 10
8.050000
 20
180.112834
 30
0.0
  0
LWPOLYLINE
  5
1a0
100
AcDbEntity
  8
Decoupe_3
 62
5
100
AcDbPolyline
 90
2
 70
0
 10
75.000000
 20
122.112834
 30
0.0
 10
75.000000
 20
180.112834
 30
0.0
  0
LWPOLYLINE
  5
1a1
100
AcDbEntity
  8
Decoupe_3
 62
5
100
AcDbPolyline
 90
2
 70
0
 10
77.950000
 20
122.112834
 30
0.0
 10
75.000000
 20
122.112834
 30
0.0
  0
LWPOLYLINE
  5
1a2
100
AcDbEntity
  8
Decoupe_3
 62
5
100
AcDbPolyline
 90
2
 70
0
 10
77.950000
 20
180.112834
 30
0.0
 10
77.950000
 20
122.112834
 30
0.0
  0
LWPOLYLINE
  5
1a3
100
AcDbEntity
  8
Decoupe_3
 62
5
100
AcDbPolyline
 90
2
 70
0
 10
75.000000
 20
180.112834
 30
0.0
 10
77.950000
 20
180.112834
 30
0.0
  0
LWPOLYLINE
  5
1a4
100
AcDbEntity
  8
Decoupe_3
 62
5
100
AcDbPolyline
 90
2
 70
0
 10
14.000000
 20
119.112834
 30
0.0
 10
72.000000
 20
119.112834
 30
0.0
  0
LWPOLYLINE
  5
1a5
100
AcDbEntity
  8
Decoupe_3
 62
5
100
AcDbPolyline
 90
2
 70
0
 10
14.000000
 20
116.162834
 30
0.0
 10
14.000000
 20
119.112834
 30
0.0
  0
LWPOLYLINE
  5
1a6
100
AcDbEntity
  8
Decoupe_3
 62
5
100
AcDbPolyline
 90
2
 70
0
 10
72.000000
 20
116.162834
 30
0.0
 10
14.000000
 20
116.162834
 30
0.0
  0
LWPOLYLINE
  5
1a7
100
AcDbEntity
  8
Decoupe_3
 62
5
100
AcDbPolyline
 90
2
 70
0
 10
72.000000
 20
119.112834
 30
0.0
 10
72.000000
 20
116.162834
 30
0.0
  0
LWPOLYLINE
  5
1a8
100
AcDbEntity
  8
Decoupe_3
 62
5
100
AcDbPolyline
 90
2
 70
0
 10
72.000000
 20
186.062834
 30
0.0
 10
72.000000
 20
183.112834
 30
0.0
  0
LWPOLYLINE
  5
1a9
100
AcDbEntity
  8
Decoupe_3
 62
5
100
AcDbPolyline
 90
2
 70
0
 10
14.000000
 20
186.062834
 30
0.0
 10
72.000000
 20
186.062834
 30
0.0
  0
LWPOLYLINE
  5
1aa
100
AcDbEntity
  8
Decoupe_3
 62
5
100
AcDbPolyline
 90
2
 70
0
 10
14.000000
 20
183.112834
 30
0.0
 10
14.000000
 20
186.062834
 30
0.0
  0
LWPOLYLINE
  5
1ab
100
AcDbEntity
  8
Decoupe_3
 62
5
100
AcDbPolyline
 90
2
 70
0
 10
72.000000
 20
183.112834
 30
0.0
 10
14.000000
 20
183.112834
 30
0.0
  0
LWPOLYLINE
  5
1ac
100
AcDbEntity
  8
Decoupe_3
 62
6
100
AcDbPolyline
 90
2
 70
0
 10
14.000000
 20
180.112834
 30
0.0
 10
72.000000
 20
180.112834
 30
0.0
  0
LWPOLYLINE
  5
1ad
100
AcDbEntity
  8
Decoupe_3
 62
6
100
AcDbPolyline
 90
2
 70
0
 10
14.000000
 20
122.112834
 30
0.0
 10
14.000000
 20
180.112834
 30
0.0
  0
LWPOLYLINE
  5
1ae
100
AcDbEntity
  8
Decoupe_3
 62
6
100
AcDbPolyline
 90
3
 70
0
 10
72.000000
 20
180.112834
 30
0.0
 10
72.000000
 20
122.112834
 30
0.0
 10
14.000000
 20
122.112834
 30
0.0
  0
LWPOLYLINE
  5
1af
100
AcDbEntity
  8
Decoupe_3
 62
4
100
AcDbPolyline
 90
2
 70
0
 10
5.000000
 20
189.112834
 30
0.0
 10
81.000000
 20
189.112834
 30
0.0
  0
LWPOLYLINE
  5
1b0
100
AcDbEntity
  8
Decoupe_3
 62
4
100
AcDbPolyline
 90
2
 70
0
 10
5.000000
 20
113.112834
 30
0.0
 10
5.000000
 20
189.112834
 30
0.0
  0
LWPOLYLINE
  5
1b1
100
AcDbEntity
  8
Decoupe_3
 62
4
100
AcDbPolyline
 90
3
 70
0
 10
81.000000
 20
189.112834
 30
0.0
 10
81.000000
 20
113.112834
 30
0.0
 10
5.000000
 20
113.112834
 30
0.0
  0
LWPOLYLINE
  5
1b2
100
AcDbEntity
  8
Decoupe_3
 62
5
100
AcDbPolyline
 90
2
 70
0
 10
149.589637
 20
183.162834
 30
0.0
 10
149.589637
 20
186.112834
 30
0.0
  0
LWPOLYLINE
  5
1b3
100
AcDbEntity
  8
Decoupe_3
 62
5
100
AcDbPolyline
 90
2
 70
0
 10
139.589637
 20
183.162834
 30
0.0
 10
149.589637
 20
183.162834
 30
0.0
  0
LWPOLYLINE
  5
1b4
100
AcDbEntity
  8
Decoupe_3
 62
5
100
AcDbPolyline
 90
2
 70
0
 10
139.589637
 20
186.112834
 30
0.0
 10
139.589637
 20
183.162834
 30
0.0
  0
LWPOLYLINE
  5
1b5
100
AcDbEntity
  8
Decoupe_3
 62
5
100
AcDbPolyline
 90
2
 70
0
 10
149.589637
 20
186.112834
 30
0.0
 10
139.589637
 20
186.112834
 30
0.0
  0
LWPOLYLINE
  5
1b6
100
AcDbEntity
  8
Decoupe_3
 62
5
100
AcDbPolyline
 90
2
 70
0
 10
86.589637
 20
169.112834
 30
0.0
 10
89.539637
 20
169.112834
 30
0.0
  0
LWPOLYLINE
  5
1b7
100
AcDbEntity
  8
Decoupe_3
 62
5
100
AcDbPolyline
 90
2
 70
0
 10
86.589637
 20
179.112834
 30
0.0
 10
86.589637
 20
169.112834
 30
0.0
  0
LWPOLYLINE
  5
1b8
100
AcDbEntity
  8
Decoupe_3
 62
5
100
AcDbPolyline
 90
2
 70
0
 10
89.539637
 20
179.112834
 30
0.0
 10
86.589637
 20
179.112834
 30
0.0
  0
LWPOLYLINE
  5
1b9
100
AcDbEntity
  8
Decoupe_3
 62
5
100
AcDbPolyline
 90
2
 70
0
 10
89.539637
 20
169.112834
 30
0.0
 10
89.539637
 20
179.112834
 30
0.0
  0
LWPOLYLINE
  5
1ba
100
AcDbEntity
  8
Decoupe_3
 62
5
100
AcDbPolyline
 90
2
 70
0
 10
93.589637
 20
183.162834
 30
0.0
 10
103.589637
 20
183.162834
 30
0.0
  0
LWPOLYLINE
  5
1bb
100
AcDbEntity
  8
Decoupe_3
 62
5
100
AcDbPolyline
 90
2
 70
0
 10
93.589637
 20
186.112834
 30
0.0
 10
93.589637
 20
183.162834
 30
0.0
  0
LWPOLYLINE
  5
1bc
100
AcDbEntity
  8
Decoupe_3
 62
5
100
AcDbPolyline
 90
2
 70
0
 10
103.589637
 20
186.112834
 30
0.0
 10
93.589637
 20
186.112834
 30
0.0
  0
LWPOLYLINE
  5
1bd
100
AcDbEntity
  8
Decoupe_3
 62
5
100
AcDbPolyline
 90
2
 70
0
 10
103.589637
 20
183.162834
 30
0.0
 10
103.589637
 20
186.112834
 30
0.0
  0
LWPOLYLINE
  5
1be
100
AcDbEntity
  8
Decoupe_3
 62
5
100
AcDbPolyline
 90
2
 70
0
 10
153.639637
 20
179.112834
 30
0.0
 10
153.639637
 20
169.112834
 30
0.0
  0
LWPOLYLINE
  5
1bf
100
AcDbEntity
  8
Decoupe_3
 62
5
100
AcDbPolyline
 90
2
 70
0
 10
156.589637
 20
179.112834
 30
0.0
 10
153.639637
 20
179.112834
 30
0.0
  0
LWPOLYLINE
  5
1c0
100
AcDbEntity
  8
Decoupe_3
 62
5
100
AcDbPolyline
 90
2
 70
0
 10
156.589637
 20
169.112834
 30
0.0
 10
156.589637
 20
179.112834
 30
0.0
  0
LWPOLYLINE
  5
1c1
100
AcDbEntity
  8
Decoupe_3
 62
5
100
AcDbPolyline
 90
2
 70
0
 10
153.639637
 20
169.112834
 30
0.0
 10
156.589637
 20
169.112834
 30
0.0
  0
LWPOLYLINE
  5
1c2
100
AcDbEntity
  8
Decoupe_3
 62
5
100
AcDbPolyline
 90
2
 70
0
 10
153.639637
 20
123.112834
 30
0.0
 10
156.589637
 20
123.112834
 30
0.0
  0
LWPOLYLINE
  5
1c3
100
AcDbEntity
  8
Decoupe_3
 62
5
100
AcDbPolyline
 90
2
 70
0
 10
153.639637
 20
133.112834
 30
0.0
 10
153.639637
 20
123.112834
 30
0.0
  0
LWPOLYLINE
  5
1c4
100
AcDbEntity
  8
Decoupe_3
 62
5
100
AcDbPolyline
 90
2
 70
0
 10
156.589637
 20
133.112834
 30
0.0
 10
153.639637
 20
133.112834
 30
0.0
  0
LWPOLYLINE
  5
1c5
100
AcDbEntity
  8
Decoupe_3
 62
5
100
AcDbPolyline
 90
2
 70
0
 10
156.589637
 20
123.112834
 30
0.0
 10
156.589637
 20
133.112834
 30
0.0
  0
LWPOLYLINE
  5
1c6
100
AcDbEntity
  8
Decoupe_3
 62
5
100
AcDbPolyline
 90
2
 70
0
 10
89.539637
 20
133.112834
 30
0.0
 10
86.589637
 20
133.112834
 30
0.0
  0
LWPOLYLINE
  5
1c7
100
AcDbEntity
  8
Decoupe_3
 62
5
100
AcDbPolyline
 90
2
 70
0
 10
89.539637
 20
123.112834
 30
0.0
 10
89.539637
 20
133.112834
 30
0.0
  0
LWPOLYLINE
  5
1c8
100
AcDbEntity
  8
Decoupe_3
 62
5
100
AcDbPolyline
 90
2
 70
0
 10
86.589637
 20
123.112834
 30
0.0
 10
89.539637
 20
123.112834
 30
0.0
  0
LWPOLYLINE
  5
1c9
100
AcDbEntity
  8
Decoupe_3
 62
5
100
AcDbPolyline
 90
2
 70
0
 10
86.589637
 20
133.112834
 30
0.0
 10
86.589637
 20
123.112834
 30
0.0
  0
LWPOLYLINE
  5
1ca
100
AcDbEntity
  8
Decoupe_3
 62
4
100
AcDbPolyline
 90
2
 70
0
 10
83.589637
 20
113.112834
 30
0.0
 10
159.589637
 20
113.112834
 30
0.0
  0
LWPOLYLINE
  5
1cb
100
AcDbEntity
  8
Decoupe_3
 62
4
100
AcDbPolyline
 90
2
 70
0
 10
83.589637
 20
189.112834
 30
0.0
 10
83.589637
 20
113.112834
 30
0.0
  0
LWPOLYLINE
  5
1cc
100
AcDbEntity
  8
Decoupe_3
 62
4
100
AcDbPolyline
 90
3
 70
0
 10
159.589637
 20
113.112834
 30
0.0
 10
159.589637
 20
189.112834
 30
0.0
 10
83.589637
 20
189.112834
 30
0.0
  0
LWPOLYLINE
  5
1cd
100
AcDbEntity
  8
Decoupe_3
 62
4
100
AcDbPolyline
 90
2
 70
0
 10
134.680850
 20
110.456880
 30
0.0
 10
119.680850
 20
110.456880
 30
0.0
  0
LWPOLYLINE
  5
1ce
100
AcDbEntity
  8
Decoupe_3
 62
4
100
AcDbPolyline
 90
2
 70
0
 10
134.680850
 20
110.456880
 30
0.0
 10
134.680850
 20
107.506880
 30
0.0
  0
LWPOLYLINE
  5
1cf
100
AcDbEntity
  8
Decoupe_3
 62
4
100
AcDbPolyline
 90
2
 70
0
 10
119.680850
 20
107.506880
 30
0.0
 10
119.680850
 20
110.456880
 30
0.0
  0
LWPOLYLINE
  5
1d0
100
AcDbEntity
  8
Decoupe_3
 62
4
100
AcDbPolyline
 90
2
 70
0
 10
79.681050
 20
107.506880
 30
0.0
 10
119.680850
 20
107.506880
 30
0.0
  0
LWPOLYLINE
  5
1d1
100
AcDbEntity
  8
Decoupe_3
 62
4
100
AcDbPolyline
 90
2
 70
0
 10
79.681050
 20
110.456880
 30
0.0
 10
79.681050
 20
107.506880
 30
0.0
  0
LWPOLYLINE
  5
1d2
100
AcDbEntity
  8
Decoupe_3
 62
4
100
AcDbPolyline
 90
2
 70
0
 10
79.681050
 20
110.456880
 30
0.0
 10
64.681050
 20
110.456880
 30
0.0
  0
LWPOLYLINE
  5
1d3
100
AcDbEntity
  8
Decoupe_3
 62
4
100
AcDbPolyline
 90
2
 70
0
 10
64.681050
 20
107.506880
 30
0.0
 10
64.681050
 20
110.456880
 30
0.0
  0
LWPOLYLINE
  5
1d4
100
AcDbEntity
  8
Decoupe_3
 62
4
100
AcDbPolyline
 90
2
 70
0
 10
49.631050
 20
107.506880
 30
0.0
 10
64.681050
 20
107.506880
 30
0.0
  0
LWPOLYLINE
  5
1d5
100
AcDbEntity
  8
Decoupe_3
 62
4
100
AcDbPolyline
 90
2
 70
0
 10
49.631050
 20
89.456840
 30
0.0
 10
49.631050
 20
107.506880
 30
0.0
  0
LWPOLYLINE
  5
1d6
100
AcDbEntity
  8
Decoupe_3
 62
4
100
AcDbPolyline
 90
2
 70
0
 10
46.681050
 20
89.456840
 30
0.0
 10
49.631050
 20
89.456840
 30
0.0
  0
LWPOLYLINE
  5
1d7
100
AcDbEntity
  8
Decoupe_3
 62
4
100
AcDbPolyline
 90
2
 70
0
 10
46.681050
 20
89.456840
 30
0.0
 10
46.681050
 20
49.456840
 30
0.0
  0
LWPOLYLINE
  5
1d8
100
AcDbEntity
  8
Decoupe_3
 62
4
100
AcDbPolyline
 90
2
 70
0
 10
49.631050
 20
49.456840
 30
0.0
 10
46.681050
 20
49.456840
 30
0.0
  0
LWPOLYLINE
  5
1d9
100
AcDbEntity
  8
Decoupe_3
 62
4
100
AcDbPolyline
 90
2
 70
0
 10
49.631050
 20
31.406840
 30
0.0
 10
49.631050
 20
49.456840
 30
0.0
  0
LWPOLYLINE
  5
1da
100
AcDbEntity
  8
Decoupe_3
 62
4
100
AcDbPolyline
 90
2
 70
0
 10
64.681050
 20
31.406840
 30
0.0
 10
49.631050
 20
31.406840
 30
0.0
  0
LWPOLYLINE
  5
1db
100
AcDbEntity
  8
Decoupe_3
 62
4
100
AcDbPolyline
 90
2
 70
0
 10
64.681050
 20
28.456840
 30
0.0
 10
64.681050
 20
31.406840
 30
0.0
  0
LWPOLYLINE
  5
1dc
100
AcDbEntity
  8
Decoupe_3
 62
4
100
AcDbPolyline
 90
2
 70
0
 10
64.681050
 20
28.456840
 30
0.0
 10
79.681050
 20
28.456840
 30
0.0
  0
LWPOLYLINE
  5
1dd
100
AcDbEntity
  8
Decoupe_3
 62
4
100
AcDbPolyline
 90
2
 70
0
 10
79.681050
 20
31.406840
 30
0.0
 10
79.681050
 20
28.456840
 30
0.0
  0
LWPOLYLINE
  5
1de
100
AcDbEntity
  8
Decoupe_3
 62
4
100
AcDbPolyline
 90
2
 70
0
 10
119.680850
 20
31.406840
 30
0.0
 10
79.681050
 20
31.406840
 30
0.0
  0
LWPOLYLINE
  5
1df
100
AcDbEntity
  8
Decoupe_3
 62
4
100
AcDbPolyline
 90
2
 70
0
 10
119.680850
 20
28.456840
 30
0.0
 10
119.680850
 20
31.406840
 30
0.0
  0
LWPOLYLINE
  5
1e0
100
AcDbEntity
  8
Decoupe_3
 62
4
100
AcDbPolyline
 90
2
 70
0
 10
119.680850
 20
28.456840
 30
0.0
 10
134.680850
 20
28.456840
 30
0.0
  0
LWPOLYLINE
  5
1e1
100
AcDbEntity
  8
Decoupe_3
 62
4
100
AcDbPolyline
 90
2
 70
0
 10
134.680850
 20
31.406840
 30
0.0
 10
134.680850
 20
28.456840
 30
0.0
  0
LWPOLYLINE
  5
1e2
100
AcDbEntity
  8
Decoupe_3
 62
4
100
AcDbPolyline
 90
2
 70
0
 10
144.680847
 20
31.406840
 30
0.0
 10
134.680850
 20
31.406840
 30
0.0
  0
LWPOLYLINE
  5
1e3
100
AcDbEntity
  8
Decoupe_3
 62
4
100
AcDbPolyline
 90
2
 70
0
 10
144.680847
 20
34.406840
 30
0.0
 10
144.680847
 20
31.406840
 30
0.0
  0
LWPOLYLINE
  5
1e4
100
AcDbEntity
  8
Decoupe_3
 62
4
100
AcDbPolyline
 90
2
 70
0
 10
152.680847
 20
34.406840
 30
0.0
 10
144.680847
 20
34.406840
 30
0.0
  0
LWPOLYLINE
  5
1e5
100
AcDbEntity
  8
Decoupe_3
 62
4
100
AcDbPolyline
 90
2
 70
0
 10
152.680847
 20
34.406840
 30
0.0
 10
152.680847
 20
104.506880
 30
0.0
  0
LWPOLYLINE
  5
1e6
100
AcDbEntity
  8
Decoupe_3
 62
4
100
AcDbPolyline
 90
2
 70
0
 10
144.680847
 20
104.506880
 30
0.0
 10
152.680847
 20
104.506880
 30
0.0
  0
LWPOLYLINE
  5
1e7
100
AcDbEntity
  8
Decoupe_3
 62
4
100
AcDbPolyline
 90
2
 70
0
 10
144.680847
 20
107.506880
 30
0.0
 10
144.680847
 20
104.506880
 30
0.0
  0
LWPOLYLINE
  5
1e8
100
AcDbEntity
  8
Decoupe_3
 62
4
100
AcDbPolyline
 90
2
 70
0
 10
134.680850
 20
107.506880
 30
0.0
 10
144.680847
 20
107.506880
 30
0.0
  0
LWPOLYLINE
  5
1e9
100
AcDbEntity
  8
Decoupe_3
 62
5
100
AcDbPolyline
 90
2
 70
0
 10
10.926170
 20
89.406880
 30
0.0
 10
10.926170
 20
49.506880
 30
0.0
  0
LWPOLYLINE
  5
1ea
100
AcDbEntity
  8
Decoupe_3
 62
5
100
AcDbPolyline
 90
2
 70
0
 10
7.976170
 20
89.406880
 30
0.0
 10
10.926170
 20
89.406880
 30
0.0
  0
LWPOLYLINE
  5
1eb
100
AcDbEntity
  8
Decoupe_3
 62
5
100
AcDbPolyline
 90
2
 70
0
 10
7.976170
 20
49.506880
 30
0.0
 10
7.976170
 20
89.406880
 30
0.0
  0
LWPOLYLINE
  5
1ec
100
AcDbEntity
  8
Decoupe_3
 62
5
100
AcDbPolyline
 90
2
 70
0
 10
10.926170
 20
49.506880
 30
0.0
 10
7.976170
 20
49.506880
 30
0.0
  0
LWPOLYLINE
  5
1ed
100
AcDbEntity
  8
Decoupe_3
 62
4
100
AcDbPolyline
 90
2
 70
0
 10
43.976170
 20
110.456880
 30
0.0
 10
43.976170
 20
28.456840
 30
0.0
  0
LWPOLYLINE
  5
1ee
100
AcDbEntity
  8
Decoupe_3
 62
4
100
AcDbPolyline
 90
2
 70
0
 10
36.176170
 20
110.456880
 30
0.0
 10
43.976170
 20
110.456880
 30
0.0
  0
LWPOLYLINE
  5
1ef
100
AcDbEntity
  8
Decoupe_3
 62
4
100
AcDbPolyline
 90
2
 70
0
 10
43.976170
 20
28.456840
 30
0.0
 10
36.176170
 20
28.456840
 30
0.0
  0
LWPOLYLINE
  5
1f0
100
AcDbEntity
  8
Decoupe_3
 62
4
100
AcDbPolyline
 90
2
 70
0
 10
36.176170
 20
31.406840
 30
0.0
 10
36.176170
 20
28.456840
 30
0.0
  0
LWPOLYLINE
  5
1f1
100
AcDbEntity
  8
Decoupe_3
 62
4
100
AcDbPolyline
 90
2
 70
0
 10
28.376170
 20
31.406840
 30
0.0
 10
36.176170
 20
31.406840
 30
0.0
  0
LWPOLYLINE
  5
1f2
100
AcDbEntity
  8
Decoupe_3
 62
4
100
AcDbPolyline
 90
2
 70
0
 10
28.376170
 20
28.456840
 30
0.0
 10
28.376170
 20
31.406840
 30
0.0
  0
LWPOLYLINE
  5
1f3
100
AcDbEntity
  8
Decoupe_3
 62
4
100
AcDbPolyline
 90
2
 70
0
 10
28.376170
 20
28.456840
 30
0.0
 10
20.576170
 20
28.456840
 30
0.0
  0
LWPOLYLINE
  5
1f4
100
AcDbEntity
  8
Decoupe_3
 62
4
100
AcDbPolyline
 90
2
 70
0
 10
20.576170
 20
31.406840
 30
0.0
 10
20.576170
 20
28.456840
 30
0.0
  0
LWPOLYLINE
  5
1f5
100
AcDbEntity
  8
Decoupe_3
 62
4
100
AcDbPolyline
 90
2
 70
0
 10
12.776170
 20
31.406840
 30
0.0
 10
20.576170
 20
31.406840
 30
0.0
  0
LWPOLYLINE
  5
1f6
100
AcDbEntity
  8
Decoupe_3
 62
4
100
AcDbPolyline
 90
2
 70
0
 10
12.776170
 20
28.456840
 30
0.0
 10
12.776170
 20
31.406840
 30
0.0
  0
LWPOLYLINE
  5
1f7
100
AcDbEntity
  8
Decoupe_3
 62
4
100
AcDbPolyline
 90
4
 70
0
 10
12.776170
 20
28.456840
 30
0.0
 10
4.976170
 20
28.456840
 30
0.0
 10
4.976170
 20
110.456880
 30
0.0
 10
12.776170
 20
110.456880
 30
0.0
  0
LWPOLYLINE
  5
1f8
100
AcDbEntity
  8
Decoupe_3
 62
4
100
AcDbPolyline
 90
2
 70
0
 10
12.776170
 20
107.506880
 30
0.0
 10
12.776170
 20
110.456880
 30
0.0
  0
LWPOLYLINE
  5
1f9
100
AcDbEntity
  8
Decoupe_3
 62
4
100
AcDbPolyline
 90
2
 70
0
 10
20.576170
 20
107.506880
 30
0.0
 10
12.776170
 20
107.506880
 30
0.0
  0
LWPOLYLINE
  5
1fa
100
AcDbEntity
  8
Decoupe_3
 62
4
100
AcDbPolyline
 90
2
 70
0
 10
20.576170
 20
110.456880
 30
0.0
 10
20.576170
 20
107.506880
 30
0.0
  0
LWPOLYLINE
  5
1fb
100
AcDbEntity
  8
Decoupe_3
 62
4
100
AcDbPolyline
 90
2
 70
0
 10
20.576170
 20
110.456880
 30
0.0
 10
28.376170
 20
110.456880
 30
0.0
  0
LWPOLYLINE
  5
1fc
100
AcDbEntity
  8
Decoupe_3
 62
4
100
AcDbPolyline
 90
2
 70
0
 10
28.376170
 20
107.506880
 30
0.0
 10
28.376170
 20
110.456880
 30
0.0
  0
LWPOLYLINE
  5
1fd
100
AcDbEntity
  8
Decoupe_3
 62
4
100
AcDbPolyline
 90
2
 70
0
 10
36.176170
 20
107.506880
 30
0.0
 10
28.376170
 20
107.506880
 30
0.0
  0
LWPOLYLINE
  5
1fe
100
AcDbEntity
  8
Decoupe_3
 62
4
100
AcDbPolyline
 90
2
 70
0
 10
36.176170
 20
110.456880
 30
0.0
 10
36.176170
 20
107.506880
 30
0.0
  0
LWPOLYLINE
  5
1ff
100
AcDbEntity
  8
Decoupe_3
 62
5
100
AcDbPolyline
 90
2
 70
0
 10
167.463310
 20
172.609722
 30
0.0
 10
164.513310
 20
172.609722
 30
0.0
  0
LWPOLYLINE
  5
200
100
AcDbEntity
  8
Decoupe_3
 62
5
100
AcDbPolyline
 90
2
 70
0
 10
167.463310
 20
157.609322
 30
0.0
 10
167.463310
 20
172.609722
 30
0.0
  0
LWPOLYLINE
  5
201
100
AcDbEntity
  8
Decoupe_3
 62
5
100
AcDbPolyline
 90
3
 70
0
 10
164.513310
 20
172.609722
 30
0.0
 10
164.513310
 20
157.609322
 30
0.0
 10
167.463310
 20
157.609322
 30
0.0
  0
LWPOLYLINE
  5
202
100
AcDbEntity
  8
Decoupe_3
 62
5
100
AcDbPolyline
 90
2
 70
0
 10
167.463310
 20
102.609322
 30
0.0
 10
167.463310
 20
117.609322
 30
0.0
  0
LWPOLYLINE
  5
203
100
AcDbEntity
  8
Decoupe_3
 62
5
100
AcDbPolyline
 90
2
 70
0
 10
164.513310
 20
102.609322
 30
0.0
 10
167.463310
 20
102.609322
 30
0.0
  0
SPLINE
  5
204
100
AcDbEntity
  8
Decoupe_3
 62
4
100
AcDbSpline
 70
8
 71
3
 72
8
 73
4
 74
0
 40
0
 40
0
 40
0
 40
0
 40
1
 40
1
 40
1
 40
1
 10
200.563290
 20
170.609722
 30
0.0
 10
200.563432
 20
164.855683
 30
0.0
 10
197.520616
 20
159.530603
 30
0.0
 10
192.563290
 20
156.609322
 30
0.0
  0
LWPOLYLINE
  5
205
100
AcDbEntity
  8
Decoupe_3
 62
5
100
AcDbPolyline
 90
3
 70
0
 10
167.463310
 20
117.609322
 30
0.0
 10
164.513310
 20
117.609322
 30
0.0
 10
164.513310
 20
102.609322
 30
0.0
  0
LWPOLYLINE
  5
206
100
AcDbEntity
  8
Decoupe_3
 62
4
100
AcDbPolyline
 90
2
 70
0
 10
200.563290
 20
187.659722
 30
0.0
 10
200.563290
 20
170.609722
 30
0.0
  0
SPLINE
  5
207
100
AcDbEntity
  8
Decoupe_3
 62
4
100
AcDbSpline
 70
8
 71
3
 72
8
 73
4
 74
0
 40
0
 40
0
 40
0
 40
0
 40
1
 40
1
 40
1
 40
1
 10
182.563290
 20
141.430822
 30
0.0
 10
182.563290
 20
147.184718
 30
0.0
 10
185.606087
 20
152.509613
 30
0.0
 10
190.563290
 20
155.430822
 30
0.0
  0
LWPOLYLINE
  5
208
100
AcDbEntity
  8
Decoupe_3
 62
4
100
AcDbPolyline
 90
2
 70
0
 10
192.563290
 20
156.609322
 30
0.0
 10
190.563290
 20
155.430822
 30
0.0
  0
LWPOLYLINE
  5
209
100
AcDbEntity
  8
Decoupe_3
 62
4
100
AcDbPolyline
 90
2
 70
0
 10
182.563290
 20
84.609322
 30
0.0
 10
182.563290
 20
141.430822
 30
0.0
  0
LWPOLYLINE
  5
20a
100
AcDbEntity
  8
Decoupe_3
 62
4
100
AcDbPolyline
 90
2
 70
0
 10
164.513310
 20
84.609322
 30
0.0
 10
182.563290
 20
84.609322
 30
0.0
  0
LWPOLYLINE
  5
20b
100
AcDbEntity
  8
Decoupe_3
 62
4
100
AcDbPolyline
 90
3
 70
0
 10
164.513310
 20
84.609322
 30
0.0
 10
164.513310
 20
92.609322
 30
0.0
 10
161.563290
 20
92.609322
 30
0.0
  0
LWPOLYLINE
  5
20c
100
AcDbEntity
  8
Decoupe_3
 62
4
100
AcDbPolyline
 90
2
 70
0
 10
161.563290
 20
187.659722
 30
0.0
 10
161.563290
 20
92.609322
 30
0.0
  0
LWPOLYLINE
  5
20d
100
AcDbEntity
  8
Decoupe_3
 62
4
100
AcDbPolyline
 90
3
 70
0
 10
161.563290
 20
187.659722
 30
0.0
 10
169.363310
 20
187.659722
 30
0.0
 10
169.363310
 20
190.609722
 30
0.0
  0
LWPOLYLINE
  5
20e
100
AcDbEntity
  8
Decoupe_3
 62
4
100
AcDbPolyline
 90
2
 70
0
 10
177.163310
 20
190.609722
 30
0.0
 10
169.363310
 20
190.609722
 30
0.0
  0
LWPOLYLINE
  5
20f
100
AcDbEntity
  8
Decoupe_3
 62
4
100
AcDbPolyline
 90
4
 70
0
 10
177.163310
 20
190.609722
 30
0.0
 10
177.163310
 20
187.659722
 30
0.0
 10
184.963290
 20
187.659722
 30
0.0
 10
184.963290
 20
190.609722
 30
0.0
  0
LWPOLYLINE
  5
210
100
AcDbEntity
  8
Decoupe_3
 62
4
100
AcDbPolyline
 90
2
 70
0
 10
192.763290
 20
190.609722
 30
0.0
 10
184.963290
 20
190.609722
 30
0.0
  0
LWPOLYLINE
  5
211
100
AcDbEntity
  8
Decoupe_3
 62
4
100
AcDbPolyline
 90
3
 70
0
 10
192.763290
 20
190.609722
 30
0.0
 10
192.763290
 20
187.659722
 30
0.0
 10
200.563290
 20
187.659722
 30
0.0
  0
LWPOLYLINE
  5
212
100
AcDbEntity
  8
Decoupe_3
 62
5
100
AcDbPolyline
 90
2
 70
0
 10
218.029870
 20
102.609320
 30
0.0
 10
220.979870
 20
102.609320
 30
0.0
  0
LWPOLYLINE
  5
213
100
AcDbEntity
  8
Decoupe_3
 62
5
100
AcDbPolyline
 90
2
 70
0
 10
218.029870
 20
117.609720
 30
0.0
 10
218.029870
 20
102.609320
 30
0.0
  0
LWPOLYLINE
  5
214
100
AcDbEntity
  8
Decoupe_3
 62
5
100
AcDbPolyline
 90
3
 70
0
 10
220.979870
 20
102.609320
 30
0.0
 10
220.979870
 20
117.609720
 30
0.0
 10
218.029870
 20
117.609720
 30
0.0
  0
LWPOLYLINE
  5
215
100
AcDbEntity
  8
Decoupe_3
 62
5
100
AcDbPolyline
 90
2
 70
0
 10
218.029870
 20
172.609720
 30
0.0
 10
218.029870
 20
157.609720
 30
0.0
  0
LWPOLYLINE
  5
216
100
AcDbEntity
  8
Decoupe_3
 62
5
100
AcDbPolyline
 90
2
 70
0
 10
220.979870
 20
172.609720
 30
0.0
 10
218.029870
 20
172.609720
 30
0.0
  0
SPLINE
  5
217
100
AcDbEntity
  8
Decoupe_3
 62
4
100
AcDbSpline
 70
8
 71
3
 72
8
 73
4
 74
0
 40
0
 40
0
 40
0
 40
0
 40
1
 40
1
 40
1
 40
1
 10
184.929890
 20
104.609320
 30
0.0
 10
184.929748
 20
110.363359
 30
0.0
 10
187.972564
 20
115.688439
 30
0.0
 10
192.929890
 20
118.609720
 30
0.0
  0
LWPOLYLINE
  5
218
100
AcDbEntity
  8
Decoupe_3
 62
5
100
AcDbPolyline
 90
3
 70
0
 10
218.029870
 20
157.609720
 30
0.0
 10
220.979870
 20
157.609720
 30
0.0
 10
220.979870
 20
172.609720
 30
0.0
  0
LWPOLYLINE
  5
219
100
AcDbEntity
  8
Decoupe_3
 62
4
100
AcDbPolyline
 90
2
 70
0
 10
184.929890
 20
87.559320
 30
0.0
 10
184.929890
 20
104.609320
 30
0.0
  0
SPLINE
  5
21a
100
AcDbEntity
  8
Decoupe_3
 62
4
100
AcDbSpline
 70
8
 71
3
 72
8
 73
4
 74
0
 40
0
 40
0
 40
0
 40
0
 40
1
 40
1
 40
1
 40
1
 10
202.929890
 20
133.788220
 30
0.0
 10
202.929890
 20
128.034324
 30
0.0
 10
199.887093
 20
122.709429
 30
0.0
 10
194.929890
 20
119.788220
 30
0.0
  0
LWPOLYLINE
  5
21b
100
AcDbEntity
  8
Decoupe_3
 62
4
100
AcDbPolyline
 90
2
 70
0
 10
192.929890
 20
118.609720
 30
0.0
 10
194.929890
 20
119.788220
 30
0.0
  0
LWPOLYLINE
  5
21c
100
AcDbEntity
  8
Decoupe_3
 62
4
100
AcDbPolyline
 90
2
 70
0
 10
202.929890
 20
190.609720
 30
0.0
 10
202.929890
 20
133.788220
 30
0.0
  0
LWPOLYLINE
  5
21d
100
AcDbEntity
  8
Decoupe_3
 62
4
100
AcDbPolyline
 90
2
 70
0
 10
220.979870
 20
190.609720
 30
0.0
 10
202.929890
 20
190.609720
 30
0.0
  0
LWPOLYLINE
  5
21e
100
AcDbEntity
  8
Decoupe_3
 62
4
100
AcDbPolyline
 90
3
 70
0
 10
220.979870
 20
190.609720
 30
0.0
 10
220.979870
 20
182.609720
 30
0.0
 10
223.929890
 20
182.609720
 30
0.0
  0
LWPOLYLINE
  5
21f
100
AcDbEntity
  8
Decoupe_3
 62
4
100
AcDbPolyline
 90
2
 70
0
 10
223.929890
 20
87.559320
 30
0.0
 10
223.929890
 20
182.609720
 30
0.0
  0
LWPOLYLINE
  5
220
100
AcDbEntity
  8
Decoupe_3
 62
4
100
AcDbPolyline
 90
3
 70
0
 10
223.929890
 20
87.559320
 30
0.0
 10
216.129870
 20
87.559320
 30
0.0
 10
216.129870
 20
84.609320
 30
0.0
  0
LWPOLYLINE
  5
221
100
AcDbEntity
  8
Decoupe_3
 62
4
100
AcDbPolyline
 90
2
 70
0
 10
208.329870
 20
84.609320
 30
0.0
 10
216.129870
 20
84.609320
 30
0.0
  0
LWPOLYLINE
  5
222
100
AcDbEntity
  8
Decoupe_3
 62
4
100
AcDbPolyline
 90
4
 70
0
 10
208.329870
 20
84.609320
 30
0.0
 10
208.329870
 20
87.559320
 30
0.0
 10
200.529890
 20
87.559320
 30
0.0
 10
200.529890
 20
84.609320
 30
0.0
  0
LWPOLYLINE
  5
223
100
AcDbEntity
  8
Decoupe_3
 62
4
100
AcDbPolyline
 90
2
 70
0
 10
192.729890
 20
84.609320
 30
0.0
 10
200.529890
 20
84.609320
 30
0.0
  0
SPLINE
  5
224
100
AcDbEntity
  8
Decoupe_3
 62
5
100
AcDbSpline
 70
8
 71
3
 72
8
 73
4
 74
0
 40
0
 40
0
 40
0
 40
0
 40
1
 40
1
 40
1
 40
1
 10
286.307820
 20
113.631740
 30
0.0
 10
286.307815
 20
97.102054
 30
0.0
 10
272.907856
 20
83.702099
 30
0.0
 10
256.378170
 20
83.702100
 30
0.0
  0
SPLINE
  5
225
100
AcDbEntity
  8
Decoupe_3
 62
5
100
AcDbSpline
 70
8
 71
3
 72
8
 73
4
 74
0
 40
0
 40
0
 40
0
 40
0
 40
1
 40
1
 40
1
 40
1
 10
256.378170
 20
83.702100
 30
0.0
 10
239.848484
 20
83.702099
 30
0.0
 10
226.448525
 20
97.102054
 30
0.0
 10
226.448520
 20
113.631740
 30
0.0
  0
SPLINE
  5
226
100
AcDbEntity
  8
Decoupe_3
 62
5
100
AcDbSpline
 70
8
 71
3
 72
8
 73
4
 74
0
 40
0
 40
0
 40
0
 40
0
 40
1
 40
1
 40
1
 40
1
 10
226.448520
 20
113.631740
 30
0.0
 10
226.448520
 20
121.569577
 30
0.0
 10
229.601813
 20
129.182301
 30
0.0
 10
235.214711
 20
134.795199
 30
0.0
  0
SPLINE
  5
227
100
AcDbEntity
  8
Decoupe_3
 62
5
100
AcDbSpline
 70
8
 71
3
 72
8
 73
4
 74
0
 40
0
 40
0
 40
0
 40
0
 40
1
 40
1
 40
1
 40
1
 10
235.214711
 20
134.795199
 30
0.0
 10
240.827609
 20
140.408097
 30
0.0
 10
248.440333
 20
143.561390
 30
0.0
 10
256.378170
 20
143.561390
 30
0.0
  0
SPLINE
  5
228
100
AcDbEntity
  8
Decoupe_3
 62
5
100
AcDbSpline
 70
8
 71
3
 72
8
 73
4
 74
0
 40
0
 40
0
 40
0
 40
0
 40
1
 40
1
 40
1
 40
1
 10
256.378170
 20
143.561390
 30
0.0
 10
264.316007
 20
143.561390
 30
0.0
 10
271.928731
 20
140.408097
 30
0.0
 10
277.541629
 20
134.795199
 30
0.0
  0
SPLINE
  5
229
100
AcDbEntity
  8
Decoupe_3
 62
5
100
AcDbSpline
 70
8
 71
3
 72
8
 73
4
 74
0
 40
0
 40
0
 40
0
 40
0
 40
1
 40
1
 40
1
 40
1
 10
277.541629
 20
134.795199
 30
0.0
 10
283.154527
 20
129.182301
 30
0.0
 10
286.307820
 20
121.569577
 30
0.0
 10
286.307820
 20
113.631740
 30
0.0
  0
LWPOLYLINE
  5
22a
100
AcDbEntity
  8
Decoupe_3
 62
4
100
AcDbPolyline
 90
3
 70
0
 10
192.729890
 20
84.609320
 30
0.0
 10
192.729890
 20
87.559320
 30
0.0
 10
184.929890
 20
87.559320
 30
0.0
  0
LWPOLYLINE
  5
22b
100
AcDbEntity
  8
Decoupe_3
 62
5
100
AcDbPolyline
 90
2
 70
1
 10
286.307820
 20
113.631740
 30
0.0
 10
286.307820
 20
113.631740
 30
0.0
  0
ENDSEC
  0
SECTION
  2
OBJECTS
  0
DICTIONARY
  5
C
330
0
100
AcDbDictionary
  3
ACAD_GROUP
350
D
  3
ACAD_MLINESTYLE
350
17
  0
DICTIONARY
  5
D
330
C
100
AcDbDictionary
  0
DICTIONARY
  5
1A
330
C
100
AcDbDictionary
  0
DICTIONARY
  5
17
330
C
100
AcDbDictionary
  3
STANDARD
350
18
  0
DICTIONARY
  5
19
330
C
100
AcDbDictionary
  0
ENDSEC
  0
EOF
