<?xml version="1.0" encoding="UTF-8"?>

<svg xmlns="http://www.w3.org/2000/svg" version="1.1"
	width="297mm"
	height="210mm"
	viewBox="0 0 297 210">
	<!-- Working space 0 0 297 210 -->
	<defs>
		<radialGradient
			id="radialGradient3661"
			gradientUnits="userSpaceOnUse"
			cy="29.149"
			cx="282.65"
			gradientTransform="matrix(.14777 .23089 -.24680 .15795 -26.318 -62.617)"
			r="19.571">
				<stop stop-color="#71b2f8" offset="0"/>
				<stop stop-color="#002795" offset="1"/>
		</radialGradient>
		<radialGradient
			id="radialGradient3817"
			gradientUnits="userSpaceOnUse"
			cy="33.9"
			cx="270.58"
			gradientTransform="matrix(.26631 .065024 -.17931 .73438 -60.668 -36.938)"
			r="19.571">
				<stop stop-color="#ff6d0f" offset="0"/>
				<stop stop-color="#ff1000" offset="1"/>
		</radialGradient>
	</defs>
	<!-- Set display:none to hide FreeCAD Logo -->
	<g
		style="display:inline"
		id="freecad-logo"
		transform="translate(271, 185) scale(1)"
		fill-rule="evenodd"
		stroke-width=".45621">
		<path d="m0.22811 0.22835v13.256h2.9558v-5.1876h2.09v-2.0452h-2.09v-2.2075h5.1486v-3.8087l-8.1044-0.0075z"
			stroke="#370700"
			fill="url(#radialGradient3817)"/>
		<path d="m13.386 4.1792-1.7193 0.98645-0.75925-0.26348-0.72439-1.8513-1.1395 0.05988-0.51976 1.9144-0.72743 0.34835-1.8143-0.79367-0.76632 0.85156 0.98645 1.7193-0.26957 0.75702-1.8513 0.72439 0.065967 1.1417 1.9144 0.51976 0.34835 0.72743-0.79976 1.8121 0.85156 0.76632 1.7193-0.98645 0.76311 0.27179 0.7183 1.8491 1.1478-0.06375 0.51367-1.9166 0.72743-0.34835 1.8182 0.80198 0.76632-0.85156-0.98645-1.7193 0.2657-0.76533 1.8491-0.7183-0.05766-1.1456-1.9166-0.51367-0.34835-0.72743 0.7959-1.8204-0.85156-0.76632zm-2.5751 2.8195 0.35295 0.20478 0.30579 0.27725 0.24481 0.33087 0.17611 0.36787 0.10354 0.39656 0.01715 0.4064-0.0587 0.4063-0.13396 0.38571-0.2131 0.35681-0.26894 0.30192-0.33087 0.24481-0.36787 0.17611-0.39656 0.10354-0.40863 0.02325-0.4063-0.0587-0.38571-0.13396-0.35681-0.2131-0.2997-0.27503-0.24703-0.32478-0.17611-0.36787-0.10132-0.40264-0.02324-0.40863 0.05869-0.4063 0.13396-0.38571 0.21087-0.35072 0.27116-0.30801 0.33087-0.24481 0.36787-0.17611 0.40264-0.10132 0.40641-0.01715 0.4063 0.05869 0.38571 0.13396z" 
		stroke="#000137"
		fill="url(#radialGradient3661)"/>
	</g>
<g id="Ortho_0_0"
   transform="rotate(-90,19.3247,55.1345) translate(19.3247,55.1345) scale(1,1)"
  >
<g   stroke="rgb(0, 0, 0)"
   stroke-width="0.35"
   stroke-linecap="butt"
   stroke-linejoin="miter"
   fill="none"
   transform="scale(1,-1)"
  >
<path id= "1" d=" M 50.1345 8.37468 L 50.1345 -29.7253 " />
<path id= "2" d=" M 50.1345 8.37468 L 44.1345 8.37468 " />
<path id= "3" d=" M 44.1345 -29.7253 L 50.1345 -29.7253 " />
<path id= "4" d=" M 44.1345 8.37468 L 44.1345 11.3747 " />
<path id= "5" d=" M 44.1345 -32.7253 L 44.1345 -29.7253 " />
<path id= "6" d=" M 44.1345 11.3747 L 35.1345 11.3747 " />
<path id= "7" d=" M 35.1345 -32.7253 L 44.1345 -32.7253 " />
<path id= "8" d=" M 35.1345 11.3747 L 35.1345 14.3247 " />
<path id= "9" d=" M 35.1345 -35.6753 L 35.1345 -32.7253 " />
<path id= "10" d=" M 7.63446 14.3247 L 35.1345 14.3247 " />
<path id= "11" d=" M 35.1345 -35.6753 L 7.63446 -35.6753 " />
<path id= "12" d=" M 7.63446 14.3247 L 7.63446 11.3747 " />
<path id= "13" d=" M 7.63446 -32.7253 L 7.63446 -35.6753 " />
<path id= "14" d=" M 7.63446 11.3747 L -7.36554 11.3747 " />
<path id= "15" d=" M -7.36554 -32.7253 L 7.63446 -32.7253 " />
<path id= "16" d=" M -7.36554 11.3747 L -7.36554 14.3247 " />
<path id= "17" d=" M -7.36554 -35.6753 L -7.36554 -32.7253 " />
<path id= "18" d=" M -46.9155 14.3247 L -7.36554 14.3247 " />
<path id= "19" d=" M -7.36554 -35.6753 L -46.9155 -35.6753 " />
<path id= "20" d=" M -46.9155 14.3247 L -46.9155 7.32468 " />
<path id= "21" d=" M -46.9155 -28.6753 L -46.9155 -35.6753 " />
<path id= "22" d=" M -46.9155 7.32468 L -49.8655 7.32468 " />
<path id= "23" d=" M -49.8655 -28.6753 L -46.9155 -28.6753 " />
<path id= "24" d=" M -49.8655 -2.67532 L -49.8655 7.32468 " />
<path id= "25" d=" M -49.8655 -28.6753 L -49.8655 -18.6753 " />
<path id= "26" d=" M -49.8655 -2.67532 L -46.9155 -2.67532 " />
<path id= "27" d=" M -46.9155 -18.6753 L -49.8655 -18.6753 " />
<path id= "28" d=" M -46.9155 -2.67532 L -46.9155 -18.6753 " />
<path id= "29" d=" M 25.6864 -26.0759 L 20.1264 -17.7641 " />
<path id= "30" d=" M 28.1384 -24.4357 L 25.6864 -26.0759 " />
<path id= "31" d=" M 22.5784 -16.1239 L 28.1384 -24.4357 " />
<path id= "32" d=" M 20.1264 -17.7641 L 22.5784 -16.1239 " />
<path id= "33" d=" M -21.7583 -3.04332 L -19.3953 -4.80938 " />
<path id= "34" d=" M -19.3953 -4.80938 L -13.4087 3.20062 " />
<path id= "35" d=" M -13.4087 3.20062 L -15.7716 4.96668 " />
<path id= "36" d=" M -15.7716 4.96668 L -21.7583 -3.04332 " />
</g>
</g>



<g id="Ortho_0_001"
   transform="rotate(-90,72.3247,55.1345) translate(72.3247,55.1345) scale(1,1)"
  >
<g   stroke="rgb(0, 0, 0)"
   stroke-width="0.35"
   stroke-linecap="butt"
   stroke-linejoin="miter"
   fill="none"
   transform="scale(1,-1)"
  >
<path id= "1" d=" M 50.1345 8.37468 L 50.1345 -29.7253 " />
<path id= "2" d=" M 50.1345 8.37468 L 44.1345 8.37468 " />
<path id= "3" d=" M 44.1345 -29.7253 L 50.1345 -29.7253 " />
<path id= "4" d=" M 44.1345 8.37468 L 44.1345 11.3747 " />
<path id= "5" d=" M 44.1345 -32.7253 L 44.1345 -29.7253 " />
<path id= "6" d=" M 44.1345 11.3747 L 35.1345 11.3747 " />
<path id= "7" d=" M 35.1345 -32.7253 L 44.1345 -32.7253 " />
<path id= "8" d=" M 35.1345 11.3747 L 35.1345 14.3247 " />
<path id= "9" d=" M 35.1345 -35.6753 L 35.1345 -32.7253 " />
<path id= "10" d=" M 7.63446 14.3247 L 35.1345 14.3247 " />
<path id= "11" d=" M 35.1345 -35.6753 L 7.63446 -35.6753 " />
<path id= "12" d=" M 7.63446 14.3247 L 7.63446 11.3747 " />
<path id= "13" d=" M 7.63446 -32.7253 L 7.63446 -35.6753 " />
<path id= "14" d=" M 7.63446 11.3747 L -7.36554 11.3747 " />
<path id= "15" d=" M -7.36554 -32.7253 L 7.63446 -32.7253 " />
<path id= "16" d=" M -7.36554 11.3747 L -7.36554 14.3247 " />
<path id= "17" d=" M -7.36554 -35.6753 L -7.36554 -32.7253 " />
<path id= "18" d=" M -46.9155 14.3247 L -7.36554 14.3247 " />
<path id= "19" d=" M -7.36554 -35.6753 L -46.9155 -35.6753 " />
<path id= "20" d=" M -46.9155 14.3247 L -46.9155 7.32468 " />
<path id= "21" d=" M -46.9155 -28.6753 L -46.9155 -35.6753 " />
<path id= "22" d=" M -46.9155 7.32468 L -49.8655 7.32468 " />
<path id= "23" d=" M -49.8655 -28.6753 L -46.9155 -28.6753 " />
<path id= "24" d=" M -49.8655 -2.67532 L -49.8655 7.32468 " />
<path id= "25" d=" M -49.8655 -28.6753 L -49.8655 -18.6753 " />
<path id= "26" d=" M -49.8655 -2.67532 L -46.9155 -2.67532 " />
<path id= "27" d=" M -46.9155 -18.6753 L -49.8655 -18.6753 " />
<path id= "28" d=" M -46.9155 -2.67532 L -46.9155 -18.6753 " />
<path id= "29" d=" M 25.6864 -26.0759 L 20.1264 -17.7641 " />
<path id= "30" d=" M 28.1384 -24.4357 L 25.6864 -26.0759 " />
<path id= "31" d=" M 22.5784 -16.1239 L 28.1384 -24.4357 " />
<path id= "32" d=" M 20.1264 -17.7641 L 22.5784 -16.1239 " />
<path id= "33" d=" M -21.7583 -3.04332 L -19.3953 -4.80938 " />
<path id= "34" d=" M -19.3953 -4.80938 L -13.4087 3.20062 " />
<path id= "35" d=" M -13.4087 3.20062 L -15.7716 4.96668 " />
<path id= "36" d=" M -15.7716 4.96668 L -21.7583 -3.04332 " />
</g>
</g>



<g id="Ortho_0_002"
   transform="rotate(90,139.41,55.1345) translate(139.41,55.1345) scale(1,1)"
  >
<g   stroke="rgb(0, 0, 0)"
   stroke-width="0.35"
   stroke-linecap="butt"
   stroke-linejoin="miter"
   fill="none"
   transform="scale(1,-1)"
  >
<path id= "1" d=" M -50.1345 -22.4596 L -50.1345 15.6404 " />
<path id= "2" d=" M -50.1345 -22.4596 L -44.1345 -22.4596 " />
<path id= "3" d=" M -44.1345 15.6404 L -50.1345 15.6404 " />
<path id= "4" d=" M -44.1345 21.5904 L -44.1345 15.6404 " />
<path id= "5" d=" M -44.1345 21.5904 L -35.1345 21.5904 " />
<path id= "6" d=" M -35.1345 18.6404 L -35.1345 21.5904 " />
<path id= "7" d=" M -7.63446 18.6404 L -35.1345 18.6404 " />
<path id= "8" d=" M -7.63446 21.5904 L -7.63446 18.6404 " />
<path id= "9" d=" M -7.63446 21.5904 L 7.36554 21.5904 " />
<path id= "10" d=" M 7.36554 18.6404 L 7.36554 21.5904 " />
<path id= "11" d=" M 34.8655 18.6404 L 7.36554 18.6404 " />
<path id= "12" d=" M 34.8655 21.5904 L 34.8655 18.6404 " />
<path id= "13" d=" M 34.8655 21.5904 L 46.9155 21.5904 " />
<path id= "14" d=" M 46.9155 14.5904 L 46.9155 21.5904 " />
<path id= "15" d=" M 49.8655 14.5904 L 46.9155 14.5904 " />
<path id= "16" d=" M 49.8655 14.5904 L 49.8655 4.59044 " />
<path id= "17" d=" M 46.9155 4.59044 L 49.8655 4.59044 " />
<path id= "18" d=" M 46.9155 -11.4096 L 46.9155 4.59044 " />
<path id= "19" d=" M 49.8655 -11.4096 L 46.9155 -11.4096 " />
<path id= "20" d=" M 49.8655 -11.4096 L 49.8655 -21.4096 " />
<path id= "21" d=" M 46.9155 -21.4096 L 49.8655 -21.4096 " />
<path id= "22" d=" M 46.9155 -28.4096 L 46.9155 -21.4096 " />
<path id= "23" d=" M 46.9155 -28.4096 L 34.8655 -28.4096 " />
<path id= "24" d=" M 34.8655 -25.4596 L 34.8655 -28.4096 " />
<path id= "25" d=" M 7.36554 -25.4596 L 34.8655 -25.4596 " />
<path id= "26" d=" M 7.36554 -28.4096 L 7.36554 -25.4596 " />
<path id= "27" d=" M 7.36554 -28.4096 L -7.63446 -28.4096 " />
<path id= "28" d=" M -7.63446 -25.4596 L -7.63446 -28.4096 " />
<path id= "29" d=" M -35.1345 -25.4596 L -7.63446 -25.4596 " />
<path id= "30" d=" M -35.1345 -28.4096 L -35.1345 -25.4596 " />
<path id= "31" d=" M -35.1345 -28.4096 L -44.1345 -28.4096 " />
<path id= "32" d=" M -44.1345 -22.4596 L -44.1345 -28.4096 " />
</g>
</g>



<g id="Ortho_0_003"
   transform="rotate(180,194.41,22.3247) translate(194.41,22.3247) scale(1,1)"
  >
<g   stroke="rgb(0, 0, 0)"
   stroke-width="0.35"
   stroke-linecap="butt"
   stroke-linejoin="miter"
   fill="none"
   transform="scale(1,-1)"
  >
<path id= "1" d=" M 31.4096 38.6753 L -24.5904 38.6753 " />
<path id= "2" d=" M 31.4096 -17.3247 L 31.4096 38.6753 " />
<path id= "3" d=" M -24.5904 38.6753 L -24.5904 -17.3247 " />
<path id= "4" d=" M -24.5904 -17.3247 L 31.4096 -17.3247 " />
<path id= "5" d=" M -18.6404 2.67532 L -21.5904 2.67532 " />
<path id= "6" d=" M -18.6404 -7.32468 L -18.6404 2.67532 " />
<path id= "7" d=" M -21.5904 -7.32468 L -18.6404 -7.32468 " />
<path id= "8" d=" M -21.5904 2.67532 L -21.5904 -7.32468 " />
<path id= "9" d=" M -18.6404 28.6753 L -21.5904 28.6753 " />
<path id= "10" d=" M -18.6404 18.6753 L -18.6404 28.6753 " />
<path id= "11" d=" M -21.5904 18.6753 L -18.6404 18.6753 " />
<path id= "12" d=" M -21.5904 28.6753 L -21.5904 18.6753 " />
<path id= "13" d=" M 28.4096 28.6753 L 25.4596 28.6753 " />
<path id= "14" d=" M 28.4096 18.6753 L 28.4096 28.6753 " />
<path id= "15" d=" M 25.4596 18.6753 L 28.4096 18.6753 " />
<path id= "16" d=" M 25.4596 28.6753 L 25.4596 18.6753 " />
<path id= "17" d=" M 25.4596 2.67532 L 25.4596 -7.32468 " />
<path id= "18" d=" M 28.4096 2.67532 L 25.4596 2.67532 " />
<path id= "19" d=" M 28.4096 -7.32468 L 28.4096 2.67532 " />
<path id= "20" d=" M 25.4596 -7.32468 L 28.4096 -7.32468 " />
<path id= "21" d=" M 21.4096 -11.3747 L 11.4096 -11.3747 " />
<path id= "22" d=" M 21.4096 -14.3247 L 21.4096 -11.3747 " />
<path id= "23" d=" M 11.4096 -14.3247 L 21.4096 -14.3247 " />
<path id= "24" d=" M 11.4096 -11.3747 L 11.4096 -14.3247 " />
<path id= "25" d=" M -4.59044 -14.3247 L -4.59044 -11.3747 " />
<path id= "26" d=" M -14.5904 -14.3247 L -4.59044 -14.3247 " />
<path id= "27" d=" M -14.5904 -11.3747 L -14.5904 -14.3247 " />
<path id= "28" d=" M -4.59044 -11.3747 L -14.5904 -11.3747 " />
</g>
</g>



<g id="Ortho_0_004"
   transform="rotate(180,253.36,22.3747) translate(253.36,22.3747) scale(1,1)"
  >
<g   stroke="rgb(0, 0, 0)"
   stroke-width="0.35"
   stroke-linecap="butt"
   stroke-linejoin="miter"
   fill="none"
   transform="scale(1,-1)"
  >
<path id= "1" d=" M 31.3596 38.6253 L -24.6404 38.6253 " />
<path id= "2" d=" M 31.3596 -17.3747 L 31.3596 38.6253 " />
<path id= "3" d=" M -24.6404 38.6253 L -24.6404 -17.3747 " />
<path id= "4" d=" M -24.6404 -17.3747 L 31.3596 -17.3747 " />
<path id= "5" d=" M 25.3596 29.6253 L 25.3596 -8.37468 " />
<path id= "6" d=" M 28.3096 29.6253 L 25.3596 29.6253 " />
<path id= "7" d=" M 28.3096 -8.37468 L 28.3096 29.6253 " />
<path id= "8" d=" M 25.3596 -8.37468 L 28.3096 -8.37468 " />
<path id= "9" d=" M 22.3596 29.6253 L -15.6404 29.6253 " />
<path id= "10" d=" M 22.3596 -8.37468 L 22.3596 29.6253 " />
<path id= "11" d=" M -15.6404 29.6253 L -15.6404 -8.37468 " />
<path id= "12" d=" M -15.6404 -8.37468 L 22.3596 -8.37468 " />
<path id= "13" d=" M -21.5904 -8.37468 L -18.6404 -8.37468 " />
<path id= "14" d=" M -21.5904 29.6253 L -21.5904 -8.37468 " />
<path id= "15" d=" M -18.6404 29.6253 L -21.5904 29.6253 " />
<path id= "16" d=" M -18.6404 -8.37468 L -18.6404 29.6253 " />
<path id= "17" d=" M -15.6404 -14.3247 L 22.3596 -14.3247 " />
<path id= "18" d=" M -15.6404 -11.3747 L -15.6404 -14.3247 " />
<path id= "19" d=" M 22.3596 -11.3747 L -15.6404 -11.3747 " />
<path id= "20" d=" M 22.3596 -14.3247 L 22.3596 -11.3747 " />
<path id= "21" d=" M 22.3596 32.6253 L 22.3596 35.5753 " />
<path id= "22" d=" M -15.6404 32.6253 L 22.3596 32.6253 " />
<path id= "23" d=" M -15.6404 35.5753 L -15.6404 32.6253 " />
<path id= "24" d=" M 22.3596 35.5753 L -15.6404 35.5753 " />
</g>
</g>



<g id="Ortho_0_005"
   transform="rotate(90,191.41,88.8655) translate(191.41,88.8655) scale(1,1)"
  >
<g   stroke="rgb(0, 0, 0)"
   stroke-width="0.35"
   stroke-linecap="butt"
   stroke-linejoin="miter"
   fill="none"
   transform="scale(1,-1)"
  >
<path id= "1" d=" M 50.1345 -22.4596 L 50.1345 15.6404 " />
<path id= "2" d=" M 50.1345 -22.4596 L 44.1345 -22.4596 " />
<path id= "3" d=" M 44.1345 15.6404 L 50.1345 15.6404 " />
<path id= "4" d=" M 44.1345 21.5904 L 44.1345 15.6404 " />
<path id= "5" d=" M 44.1345 21.5904 L 35.1345 21.5904 " />
<path id= "6" d=" M 35.1345 18.6404 L 35.1345 21.5904 " />
<path id= "7" d=" M 7.63446 18.6404 L 35.1345 18.6404 " />
<path id= "8" d=" M 7.63446 21.5904 L 7.63446 18.6404 " />
<path id= "9" d=" M 7.63446 21.5904 L -7.36554 21.5904 " />
<path id= "10" d=" M -7.36554 18.6404 L -7.36554 21.5904 " />
<path id= "11" d=" M -25.8655 18.6404 L -7.36554 18.6404 " />
<path id= "12" d=" M -25.8655 -25.4596 L -25.8655 18.6404 " />
<path id= "13" d=" M -7.36554 -25.4596 L -25.8655 -25.4596 " />
<path id= "14" d=" M -7.36554 -28.4096 L -7.36554 -25.4596 " />
<path id= "15" d=" M -7.36554 -28.4096 L 7.63446 -28.4096 " />
<path id= "16" d=" M 7.63446 -25.4596 L 7.63446 -28.4096 " />
<path id= "17" d=" M 35.1345 -25.4596 L 7.63446 -25.4596 " />
<path id= "18" d=" M 35.1345 -28.4096 L 35.1345 -25.4596 " />
<path id= "19" d=" M 35.1345 -28.4096 L 44.1345 -28.4096 " />
<path id= "20" d=" M 44.1345 -22.4596 L 44.1345 -28.4096 " />
</g>
</g>



<g id="Ortho_0_006"
   transform="rotate(180,213.645,-30.4909) translate(213.645,-30.4909) scale(1,1)"
  >
<g   stroke="rgb(0, 0, 0)"
   stroke-width="0.35"
   stroke-linecap="butt"
   stroke-linejoin="miter"
   fill="none"
   transform="scale(1,-1)"
  >
<path id= "1" d=" M -7.25514 143.491 L -45.4551 143.491 " />
<path id= "2" d=" M -7.25514 143.491 L -7.25514 113.191 " />
<path id= "3" d=" M -45.4551 113.191 L -45.4551 143.491 " />
<path id= "4" d=" M -48.4051 113.191 L -45.4551 113.191 " />
<path id= "5" d=" M -48.4051 111.491 L -48.4051 113.191 " />
<path id= "6" d=" M -51.3551 111.491 L -48.4051 111.491 " />
<path id= "7" d=" M -51.3551 111.491 L -51.3551 101.491 " />
<path id= "8" d=" M -48.4051 101.491 L -51.3551 101.491 " />
<path id= "9" d=" M -48.4051 93.4909 L -48.4051 101.491 " />
<path id= "10" d=" M -48.4051 93.4909 L -4.30514 93.4909 " />
<path id= "11" d=" M -4.30514 101.491 L -4.30514 93.4909 " />
<path id= "12" d=" M -1.35514 101.491 L -4.30514 101.491 " />
<path id= "13" d=" M -1.35514 101.491 L -1.35514 111.491 " />
<path id= "14" d=" M -4.30514 111.491 L -1.35514 111.491 " />
<path id= "15" d=" M -4.30514 113.191 L -4.30514 111.491 " />
<path id= "16" d=" M -7.25514 113.191 L -4.30514 113.191 " />
</g>
</g>



<g id="Ortho_0_007"
   transform="rotate(180,218.398,24.5141) translate(218.398,24.5141) scale(1,1)"
  >
<g   stroke="rgb(0, 0, 0)"
   stroke-width="0.35"
   stroke-linecap="butt"
   stroke-linejoin="miter"
   fill="none"
   transform="scale(1,-1)"
  >
<path id= "1" d=" M 0.447846 125.986 L -43.6522 125.986 " />
<path id= "2" d=" M 0.447846 125.986 L 0.447846 117.986 " />
<path id= "3" d=" M -43.6522 117.986 L -43.6522 125.986 " />
<path id= "4" d=" M -46.6022 117.986 L -43.6522 117.986 " />
<path id= "5" d=" M -46.6022 117.986 L -46.6022 107.986 " />
<path id= "6" d=" M -43.6522 107.986 L -46.6022 107.986 " />
<path id= "7" d=" M -43.6522 90.9859 L -43.6522 107.986 " />
<path id= "8" d=" M -43.6522 90.9859 L 0.447846 90.9859 " />
<path id= "9" d=" M 0.447846 107.986 L 0.447846 90.9859 " />
<path id= "10" d=" M 3.39785 107.986 L 0.447846 107.986 " />
<path id= "11" d=" M 3.39785 107.986 L 3.39785 117.986 " />
<path id= "12" d=" M 0.447846 117.986 L 3.39785 117.986 " />
</g>
</g>



<g id="Ortho_0_008"
   transform="rotate(0,42.9901,190.977) translate(42.9901,190.977) scale(1,1)"
  >
<g   stroke="rgb(0, 0, 0)"
   stroke-width="0.35"
   stroke-linecap="butt"
   stroke-linejoin="miter"
   fill="none"
   transform="scale(1,-1)"
  >
<path id= "1" d=" M -37.9901 37.477 L -29.9901 37.477 " />
<path id= "2" d=" M -29.9901 40.427 L -29.9901 37.477 " />
<path id= "3" d=" M -1.99013 40.427 L -29.9901 40.427 " />
<path id= "4" d=" M -1.99013 37.477 L -1.99013 40.427 " />
<path id= "5" d=" M -1.99013 37.477 L 6.00987 37.477 " />
<path id= "6" d=" M 6.00987 37.477 L 6.00987 44.477 " />
<path id= "7" d=" M 3.05987 44.477 L 6.00987 44.477 " />
<path id= "8" d=" M 3.05987 52.477 L 3.05987 44.477 " />
<path id= "9" d=" M 6.00987 52.477 L 3.05987 52.477 " />
<path id= "10" d=" M 6.00987 52.477 L 6.00987 66.477 " />
<path id= "11" d=" M 3.05987 66.477 L 6.00987 66.477 " />
<path id= "12" d=" M 3.05987 74.477 L 3.05987 66.477 " />
<path id= "13" d=" M 6.00987 74.477 L 3.05987 74.477 " />
<path id= "14" d=" M 6.00987 74.477 L 6.00987 84.477 " />
<path id= "15" d=" M 6.00987 84.477 L -37.9901 84.477 " />
<path id= "16" d=" M -37.9901 84.477 L -37.9901 74.477 " />
<path id= "17" d=" M -35.0401 74.477 L -37.9901 74.477 " />
<path id= "18" d=" M -35.0401 66.477 L -35.0401 74.477 " />
<path id= "19" d=" M -37.9901 66.477 L -35.0401 66.477 " />
<path id= "20" d=" M -37.9901 66.477 L -37.9901 52.477 " />
<path id= "21" d=" M -35.0401 52.477 L -37.9901 52.477 " />
<path id= "22" d=" M -35.0401 44.477 L -35.0401 52.477 " />
<path id= "23" d=" M -37.9901 44.477 L -35.0401 44.477 " />
<path id= "24" d=" M -37.9901 44.477 L -37.9901 37.477 " />
</g>
</g>



<g id="Ortho_0_009"
   transform="rotate(90,90.9901,137.674) translate(90.9901,137.674) scale(1,1)"
  >
<g   stroke="rgb(0, 0, 0)"
   stroke-width="0.35"
   stroke-linecap="butt"
   stroke-linejoin="miter"
   fill="none"
   transform="scale(1,-1)"
  >
<path id= "1" d=" M -9.19888 -37.9901 L -9.19892 6.00988 " />
<path id= "2" d=" M -15.1989 -37.9901 L -9.19888 -37.9901 " />
<path id= "3" d=" M -9.19892 6.00988 L -15.1989 6.00987 " />
<path id= "4" d=" M -15.1989 3.05987 L -15.1989 6.00987 " />
<path id= "5" d=" M -21.1989 3.05987 L -15.1989 3.05987 " />
<path id= "6" d=" M -21.1989 6.00987 L -21.1989 3.05987 " />
<path id= "7" d=" M -21.1989 6.00987 L -27.1989 6.00986 " />
<path id= "8" d=" M -27.1989 -1.99014 L -27.1989 6.00986 " />
<path id= "9" d=" M -30.1489 -1.99014 L -27.1989 -1.99014 " />
<path id= "10" d=" M -30.1489 -29.9901 L -30.1489 -1.99014 " />
<path id= "11" d=" M -27.1989 -29.9901 L -30.1489 -29.9901 " />
<path id= "12" d=" M -27.1989 -37.9901 L -27.1989 -29.9901 " />
<path id= "13" d=" M -27.1989 -37.9901 L -21.1989 -37.9901 " />
<path id= "14" d=" M -21.1989 -35.0401 L -21.1989 -37.9901 " />
<path id= "15" d=" M -15.1989 -35.0401 L -21.1989 -35.0401 " />
<path id= "16" d=" M -15.1989 -37.9901 L -15.1989 -35.0401 " />
</g>
</g>



<g id="Ortho_0_010"
   transform="rotate(-90,32.2642,80.7997) translate(32.2642,80.7997) scale(1,1)"
  >
<g   stroke="rgb(0, 0, 0)"
   stroke-width="0.35"
   stroke-linecap="butt"
   stroke-linejoin="miter"
   fill="none"
   transform="scale(1,-1)"
  >
<path id= "1" d=" M -26.7253 -70.7358 L -26.7253 -111.786 " />
<path id= "2" d=" M -32.7253 -111.786 L -26.7253 -111.786 " />
<path id= "3" d=" M -32.7253 -114.736 L -32.7253 -111.786 " />
<path id= "4" d=" M -32.7253 -114.736 L -38.7253 -114.736 " />
<path id= "5" d=" M -38.7253 -111.786 L -38.7253 -114.736 " />
<path id= "6" d=" M -44.7253 -111.786 L -38.7253 -111.786 " />
<path id= "7" d=" M -44.7253 -107.736 L -44.7253 -111.786 " />
<path id= "8" d=" M -47.6753 -107.736 L -44.7253 -107.736 " />
<path id= "9" d=" M -47.6753 -107.736 L -47.6753 -99.7358 " />
<path id= "10" d=" M -44.7253 -99.7358 L -47.6753 -99.7358 " />
<path id= "11" d=" M -44.7253 -85.7358 L -44.7253 -99.7358 " />
<path id= "12" d=" M -47.6753 -85.7358 L -44.7253 -85.7358 " />
<path id= "13" d=" M -47.6753 -85.7358 L -47.6753 -77.7358 " />
<path id= "14" d=" M -44.7253 -77.7358 L -47.6753 -77.7358 " />
<path id= "15" d=" M -44.7253 -70.7358 L -44.7253 -77.7358 " />
<path id= "16" d=" M -44.7253 -70.7358 L -26.7253 -70.7358 " />
</g>
</g>



<g id="Ortho_0_011"
   transform="rotate(-90,37.2642,177.2) translate(37.2642,177.2) scale(1,1)"
  >
<g   stroke="rgb(0, 0, 0)"
   stroke-width="0.35"
   stroke-linecap="butt"
   stroke-linejoin="miter"
   fill="none"
   transform="scale(1,-1)"
  >
<path id= "1" d=" M 26.7253 -70.7358 L 26.7253 -111.786 " />
<path id= "2" d=" M 32.7253 -111.786 L 26.7253 -111.786 " />
<path id= "3" d=" M 32.7253 -114.736 L 32.7253 -111.786 " />
<path id= "4" d=" M 32.7253 -114.736 L 38.7253 -114.736 " />
<path id= "5" d=" M 38.7253 -111.786 L 38.7253 -114.736 " />
<path id= "6" d=" M 44.7253 -111.786 L 38.7253 -111.786 " />
<path id= "7" d=" M 44.7253 -107.736 L 44.7253 -111.786 " />
<path id= "8" d=" M 47.6753 -107.736 L 44.7253 -107.736 " />
<path id= "9" d=" M 47.6753 -107.736 L 47.6753 -99.7358 " />
<path id= "10" d=" M 44.7253 -99.7358 L 47.6753 -99.7358 " />
<path id= "11" d=" M 44.7253 -85.7358 L 44.7253 -99.7358 " />
<path id= "12" d=" M 47.6753 -85.7358 L 44.7253 -85.7358 " />
<path id= "13" d=" M 47.6753 -85.7358 L 47.6753 -77.7358 " />
<path id= "14" d=" M 44.7253 -77.7358 L 47.6753 -77.7358 " />
<path id= "15" d=" M 44.7253 -70.7358 L 44.7253 -77.7358 " />
<path id= "16" d=" M 44.7253 -70.7358 L 26.7253 -70.7358 " />
</g>
</g>



</svg>

