  0
SECTION
  2
HEADER
  9
$ACADVER
  1
AC1014
  9
$HANDSEED
  5
FFFF
  9
$MEASUREMENT
 70
     1
  0
ENDSEC
  0
SECTION
  2
TABLES
  0
TABLE
  2
VPORT
  5
8
330
0
100
AcDbSymbolTable
 70
     4
  0
VPORT
  5
2E
330
8
100
AcDbSymbolTableRecord
100
AcDbViewportTableRecord
  2
*ACTIVE
 70
     0
 10
0.0
 20
0.0
 11
1.0
 21
1.0
 12
210.0
 22
148.5
 13
0.0
 23
0.0
 14
10.0
 24
10.0
 15
10.0
 25
10.0
 16
0.0
 26
0.0
 36
1.0
 17
0.0
 27
0.0
 37
0.0
 40
341.0
 41
1.24
 42
50.0
 43
0.0
 44
0.0
 50
0.0
 51
0.0
 71
     0
 72
   100
 73
     1
 74
     3
 75
     0
 76
     0
 77
     0
 78
     0
  0
ENDTAB
  0
TABLE
  2
LTYPE
  5
5
330
0
100
AcDbSymbolTable
 70
     1
  0
LTYPE
  5
14
330
5
100
AcDbSymbolTableRecord
100
AcDbLinetypeTableRecord
  2
BYBLOCK
 70
     0
  3

 72
    65
 73
     0
 40
0.0
  0
LTYPE
  5
15
330
5
100
AcDbSymbolTableRecord
100
AcDbLinetypeTableRecord
  2
BYLAYER
 70
     0
  3

 72
    65
 73
     0
 40
0.0
  0
LTYPE
  5
16
330
5
100
AcDbSymbolTableRecord
100
AcDbLinetypeTableRecord
  2
CONTINUOUS
 70
     0
  3
Solid line
 72
    65
 73
     0
 40
0.0
  0
ENDTAB
  0
TABLE
  2
LAYER
  5
2
100
AcDbSymbolTable
 70
1
  0
LAYER
  5
50
100
AcDbSymbolTableRecord
100
AcDbLayerTableRecord
  2
0
 70
0
  6
CONTINUOUS
  0
ENDTAB
  0
TABLE
  2
STYLE
  5
3
330
0
100
AcDbSymbolTable
 70
     1
  0
STYLE
  5
11
330
3
100
AcDbSymbolTableRecord
100
AcDbTextStyleTableRecord
  2
STANDARD
 70
     0
 40
0.0
 41
1.0
 50
0.0
 71
     0
 42
2.5
  3
txt
  4

  0
ENDTAB
  0
TABLE
  2
VIEW
  5
6
330
0
100
AcDbSymbolTable
 70
     0
  0
ENDTAB
  0
TABLE
  2
UCS
  5
7
330
0
100
AcDbSymbolTable
 70
     0
  0
ENDTAB
  0
TABLE
  2
APPID
  5
9
330
0
100
AcDbSymbolTable
 70
     2
  0
APPID
  5
12
330
9
100
AcDbSymbolTableRecord
100
AcDbRegAppTableRecord
  2
ACAD
 70
     0
  0
ENDTAB
  0
TABLE
  2
DIMSTYLE
  5
A
330
0
100
AcDbSymbolTable
 70
     1
  0
DIMSTYLE
105
27
330
A
100
AcDbSymbolTableRecord
100
AcDbDimStyleTableRecord
  2
ISO-25
 70
     0
  3

  4

  5

  6

  7

 40
1.0
 41
2.5
 42
0.625
 43
3.75
 44
1.25
 45
0.0
 46
0.0
 47
0.0
 48
0.0
140
2.5
141
2.5
142
0.0
143
0.03937007874016
144
1.0
145
0.0
146
1.0
147
0.625
 71
     0
 72
     0
 73
     0
 74
     0
 75
     0
 76
     0
 77
     1
 78
     8
170
     0
171
     3
172
     1
173
     0
174
     0
175
     0
176
     0
177
     0
178
     0
270
     2
271
     2
272
     2
273
     2
274
     3
340
11
275
     0
280
     0
281
     0
282
     0
283
     0
284
     8
285
     0
286
     0
287
     3
288
     0
  0
ENDTAB
  0
TABLE
  2
BLOCK_RECORD
  5
1
330
0
100
AcDbSymbolTable
 70
     1
  0
BLOCK_RECORD
  5
1F
330
1
100
AcDbSymbolTableRecord
100
AcDbBlockTableRecord
  2
*MODEL_SPACE
  0
BLOCK_RECORD
  5
1B
330
1
100
AcDbSymbolTableRecord
100
AcDbBlockTableRecord
  2
*PAPER_SPACE
  0
ENDTAB
  0
ENDSEC
  0
SECTION
  2
BLOCKS
  0
BLOCK
  5
20
330
1F
100
AcDbEntity
  8
0
100
AcDbBlockBegin
  2
*MODEL_SPACE
 70
     0
 10
0.0
 20
0.0
 30
0.0
  3
*MODEL_SPACE
  1

  0
ENDBLK
  5
21
330
1F
100
AcDbEntity
  8
0
100
AcDbBlockEnd
  0
BLOCK
  5
1C
330
1B
100
AcDbEntity
 67
     1
  8
0
100
AcDbBlockBegin
  2
*PAPER_SPACE
  1

  0
ENDBLK
  5
1D
330
1B
100
AcDbEntity
 67
     1
  8
0
100
AcDbBlockEnd
  0
ENDSEC
  0
SECTION
  2
ENTITIES
  0
LWPOLYLINE
  5
100
100
AcDbEntity
  8
0
 62
4
100
AcDbPolyline
 90
2
 70
0
 10
10.950000
 20
205.000000
 30
0.0
 10
59.050000
 20
205.000000
 30
0.0
  0
LWPOLYLINE
  5
101
100
AcDbEntity
  8
0
 62
4
100
AcDbPolyline
 90
2
 70
0
 10
10.950000
 20
205.000000
 30
0.0
 10
10.950000
 20
199.000000
 30
0.0
  0
LWPOLYLINE
  5
102
100
AcDbEntity
  8
0
 62
4
100
AcDbPolyline
 90
2
 70
0
 10
59.050000
 20
199.000000
 30
0.0
 10
59.050000
 20
205.000000
 30
0.0
  0
LWPOLYLINE
  5
103
100
AcDbEntity
  8
0
 62
4
100
AcDbPolyline
 90
2
 70
0
 10
10.950000
 20
199.000000
 30
0.0
 10
7.950000
 20
199.000000
 30
0.0
  0
LWPOLYLINE
  5
104
100
AcDbEntity
  8
0
 62
4
100
AcDbPolyline
 90
2
 70
0
 10
62.050000
 20
199.000000
 30
0.0
 10
59.050000
 20
199.000000
 30
0.0
  0
LWPOLYLINE
  5
105
100
AcDbEntity
  8
0
 62
4
100
AcDbPolyline
 90
2
 70
0
 10
7.950000
 20
199.000000
 30
0.0
 10
7.950000
 20
190.000000
 30
0.0
  0
LWPOLYLINE
  5
106
100
AcDbEntity
  8
0
 62
4
100
AcDbPolyline
 90
2
 70
0
 10
62.050000
 20
190.000000
 30
0.0
 10
62.050000
 20
199.000000
 30
0.0
  0
LWPOLYLINE
  5
107
100
AcDbEntity
  8
0
 62
4
100
AcDbPolyline
 90
2
 70
0
 10
7.950000
 20
190.000000
 30
0.0
 10
5.000000
 20
190.000000
 30
0.0
  0
LWPOLYLINE
  5
108
100
AcDbEntity
  8
0
 62
4
100
AcDbPolyline
 90
2
 70
0
 10
65.000000
 20
190.000000
 30
0.0
 10
62.050000
 20
190.000000
 30
0.0
  0
LWPOLYLINE
  5
109
100
AcDbEntity
  8
0
 62
4
100
AcDbPolyline
 90
2
 70
0
 10
5.000000
 20
162.500000
 30
0.0
 10
5.000000
 20
190.000000
 30
0.0
  0
LWPOLYLINE
  5
10a
100
AcDbEntity
  8
0
 62
4
100
AcDbPolyline
 90
2
 70
0
 10
65.000000
 20
190.000000
 30
0.0
 10
65.000000
 20
162.500000
 30
0.0
  0
LWPOLYLINE
  5
10b
100
AcDbEntity
  8
0
 62
4
100
AcDbPolyline
 90
2
 70
0
 10
5.000000
 20
162.500000
 30
0.0
 10
7.950000
 20
162.500000
 30
0.0
  0
LWPOLYLINE
  5
10c
100
AcDbEntity
  8
0
 62
4
100
AcDbPolyline
 90
2
 70
0
 10
62.050000
 20
162.500000
 30
0.0
 10
65.000000
 20
162.500000
 30
0.0
  0
LWPOLYLINE
  5
10d
100
AcDbEntity
  8
0
 62
4
100
AcDbPolyline
 90
2
 70
0
 10
7.950000
 20
162.500000
 30
0.0
 10
7.950000
 20
147.500000
 30
0.0
  0
LWPOLYLINE
  5
10e
100
AcDbEntity
  8
0
 62
4
100
AcDbPolyline
 90
2
 70
0
 10
62.050000
 20
147.500000
 30
0.0
 10
62.050000
 20
162.500000
 30
0.0
  0
LWPOLYLINE
  5
10f
100
AcDbEntity
  8
0
 62
4
100
AcDbPolyline
 90
2
 70
0
 10
7.950000
 20
147.500000
 30
0.0
 10
5.000000
 20
147.500000
 30
0.0
  0
LWPOLYLINE
  5
110
100
AcDbEntity
  8
0
 62
4
100
AcDbPolyline
 90
2
 70
0
 10
65.000000
 20
147.500000
 30
0.0
 10
62.050000
 20
147.500000
 30
0.0
  0
LWPOLYLINE
  5
111
100
AcDbEntity
  8
0
 62
4
100
AcDbPolyline
 90
2
 70
0
 10
5.000000
 20
119.950000
 30
0.0
 10
5.000000
 20
147.500000
 30
0.0
  0
LWPOLYLINE
  5
112
100
AcDbEntity
  8
0
 62
4
100
AcDbPolyline
 90
2
 70
0
 10
65.000000
 20
147.500000
 30
0.0
 10
65.000000
 20
132.150000
 30
0.0
  0
LWPOLYLINE
  5
113
100
AcDbEntity
  8
0
 62
4
100
AcDbPolyline
 90
2
 70
0
 10
5.000000
 20
119.950000
 30
0.0
 10
7.950000
 20
119.950000
 30
0.0
  0
LWPOLYLINE
  5
114
100
AcDbEntity
  8
0
 62
4
100
AcDbPolyline
 90
2
 70
0
 10
62.050000
 20
132.150000
 30
0.0
 10
65.000000
 20
132.150000
 30
0.0
  0
LWPOLYLINE
  5
115
100
AcDbEntity
  8
0
 62
4
100
AcDbPolyline
 90
2
 70
0
 10
7.950000
 20
119.950000
 30
0.0
 10
7.950000
 20
107.950000
 30
0.0
  0
LWPOLYLINE
  5
116
100
AcDbEntity
  8
0
 62
4
100
AcDbPolyline
 90
2
 70
0
 10
62.050000
 20
107.950000
 30
0.0
 10
62.050000
 20
132.150000
 30
0.0
  0
LWPOLYLINE
  5
117
100
AcDbEntity
  8
0
 62
4
100
AcDbPolyline
 90
2
 70
0
 10
7.950000
 20
107.950000
 30
0.0
 10
12.000000
 20
107.950000
 30
0.0
  0
LWPOLYLINE
  5
118
100
AcDbEntity
  8
0
 62
4
100
AcDbPolyline
 90
2
 70
0
 10
58.000000
 20
107.950000
 30
0.0
 10
62.050000
 20
107.950000
 30
0.0
  0
LWPOLYLINE
  5
119
100
AcDbEntity
  8
0
 62
4
100
AcDbPolyline
 90
2
 70
0
 10
12.000000
 20
107.950000
 30
0.0
 10
12.000000
 20
105.000000
 30
0.0
  0
LWPOLYLINE
  5
11a
100
AcDbEntity
  8
0
 62
4
100
AcDbPolyline
 90
2
 70
0
 10
58.000000
 20
105.000000
 30
0.0
 10
58.000000
 20
107.950000
 30
0.0
  0
LWPOLYLINE
  5
11b
100
AcDbEntity
  8
0
 62
4
100
AcDbPolyline
 90
2
 70
0
 10
22.000000
 20
105.000000
 30
0.0
 10
12.000000
 20
105.000000
 30
0.0
  0
LWPOLYLINE
  5
11c
100
AcDbEntity
  8
0
 62
4
100
AcDbPolyline
 90
2
 70
0
 10
58.000000
 20
105.000000
 30
0.0
 10
48.000000
 20
105.000000
 30
0.0
  0
LWPOLYLINE
  5
11d
100
AcDbEntity
  8
0
 62
4
100
AcDbPolyline
 90
2
 70
0
 10
22.000000
 20
105.000000
 30
0.0
 10
22.000000
 20
107.950000
 30
0.0
  0
LWPOLYLINE
  5
11e
100
AcDbEntity
  8
0
 62
4
100
AcDbPolyline
 90
2
 70
0
 10
48.000000
 20
107.950000
 30
0.0
 10
48.000000
 20
105.000000
 30
0.0
  0
LWPOLYLINE
  5
11f
100
AcDbEntity
  8
0
 62
4
100
AcDbPolyline
 90
2
 70
0
 10
22.000000
 20
107.950000
 30
0.0
 10
48.000000
 20
107.950000
 30
0.0
  0
LWPOLYLINE
  5
120
100
AcDbEntity
  8
0
 62
5
100
AcDbPolyline
 90
2
 70
0
 10
50.903500
 20
189.240900
 30
0.0
 10
52.366700
 20
186.679300
 30
0.0
  0
LWPOLYLINE
  5
121
100
AcDbEntity
  8
0
 62
5
100
AcDbPolyline
 90
2
 70
0
 10
37.878500
 20
181.801200
 30
0.0
 10
50.903500
 20
189.240900
 30
0.0
  0
LWPOLYLINE
  5
122
100
AcDbEntity
  8
0
 62
5
100
AcDbPolyline
 90
2
 70
0
 10
39.341700
 20
179.239600
 30
0.0
 10
37.878500
 20
181.801200
 30
0.0
  0
LWPOLYLINE
  5
123
100
AcDbEntity
  8
0
 62
5
100
AcDbPolyline
 90
2
 70
0
 10
52.366700
 20
186.679300
 30
0.0
 10
39.341700
 20
179.239600
 30
0.0
  0
LWPOLYLINE
  5
124
100
AcDbEntity
  8
0
 62
5
100
AcDbPolyline
 90
2
 70
0
 10
18.627500
 20
144.240500
 30
0.0
 10
30.402500
 20
134.948100
 30
0.0
  0
LWPOLYLINE
  5
125
100
AcDbEntity
  8
0
 62
5
100
AcDbPolyline
 90
2
 70
0
 10
16.800000
 20
141.924800
 30
0.0
 10
18.627500
 20
144.240500
 30
0.0
  0
LWPOLYLINE
  5
126
100
AcDbEntity
  8
0
 62
5
100
AcDbPolyline
 90
2
 70
0
 10
28.575000
 20
132.632400
 30
0.0
 10
16.800000
 20
141.924800
 30
0.0
  0
LWPOLYLINE
  5
127
100
AcDbEntity
  8
0
 62
5
100
AcDbPolyline
 90
2
 70
0
 10
30.402500
 20
134.948100
 30
0.0
 10
28.575000
 20
132.632400
 30
0.0
  0
LWPOLYLINE
  5
128
100
AcDbEntity
  8
0
 62
4
100
AcDbPolyline
 90
2
 70
0
 10
71.950000
 20
205.000000
 30
0.0
 10
120.050000
 20
205.000000
 30
0.0
  0
LWPOLYLINE
  5
129
100
AcDbEntity
  8
0
 62
4
100
AcDbPolyline
 90
2
 70
0
 10
71.950000
 20
205.000000
 30
0.0
 10
71.950000
 20
199.000000
 30
0.0
  0
LWPOLYLINE
  5
12a
100
AcDbEntity
  8
0
 62
4
100
AcDbPolyline
 90
2
 70
0
 10
120.050000
 20
199.000000
 30
0.0
 10
120.050000
 20
205.000000
 30
0.0
  0
LWPOLYLINE
  5
12b
100
AcDbEntity
  8
0
 62
4
100
AcDbPolyline
 90
2
 70
0
 10
126.000000
 20
199.000000
 30
0.0
 10
120.050000
 20
199.000000
 30
0.0
  0
LWPOLYLINE
  5
12c
100
AcDbEntity
  8
0
 62
4
100
AcDbPolyline
 90
2
 70
0
 10
126.000000
 20
199.000000
 30
0.0
 10
126.000000
 20
190.000000
 30
0.0
  0
LWPOLYLINE
  5
12d
100
AcDbEntity
  8
0
 62
4
100
AcDbPolyline
 90
2
 70
0
 10
123.050000
 20
190.000000
 30
0.0
 10
126.000000
 20
190.000000
 30
0.0
  0
LWPOLYLINE
  5
12e
100
AcDbEntity
  8
0
 62
4
100
AcDbPolyline
 90
2
 70
0
 10
123.050000
 20
162.500000
 30
0.0
 10
123.050000
 20
190.000000
 30
0.0
  0
LWPOLYLINE
  5
12f
100
AcDbEntity
  8
0
 62
4
100
AcDbPolyline
 90
2
 70
0
 10
126.000000
 20
162.500000
 30
0.0
 10
123.050000
 20
162.500000
 30
0.0
  0
LWPOLYLINE
  5
130
100
AcDbEntity
  8
0
 62
4
100
AcDbPolyline
 90
2
 70
0
 10
126.000000
 20
162.500000
 30
0.0
 10
126.000000
 20
147.500000
 30
0.0
  0
LWPOLYLINE
  5
131
100
AcDbEntity
  8
0
 62
4
100
AcDbPolyline
 90
2
 70
0
 10
123.050000
 20
147.500000
 30
0.0
 10
126.000000
 20
147.500000
 30
0.0
  0
LWPOLYLINE
  5
132
100
AcDbEntity
  8
0
 62
4
100
AcDbPolyline
 90
2
 70
0
 10
123.050000
 20
120.000000
 30
0.0
 10
123.050000
 20
147.500000
 30
0.0
  0
LWPOLYLINE
  5
133
100
AcDbEntity
  8
0
 62
4
100
AcDbPolyline
 90
2
 70
0
 10
126.000000
 20
120.000000
 30
0.0
 10
123.050000
 20
120.000000
 30
0.0
  0
LWPOLYLINE
  5
134
100
AcDbEntity
  8
0
 62
4
100
AcDbPolyline
 90
2
 70
0
 10
126.000000
 20
120.000000
 30
0.0
 10
126.000000
 20
107.950000
 30
0.0
  0
LWPOLYLINE
  5
135
100
AcDbEntity
  8
0
 62
4
100
AcDbPolyline
 90
2
 70
0
 10
119.000000
 20
107.950000
 30
0.0
 10
126.000000
 20
107.950000
 30
0.0
  0
LWPOLYLINE
  5
136
100
AcDbEntity
  8
0
 62
4
100
AcDbPolyline
 90
2
 70
0
 10
119.000000
 20
105.000000
 30
0.0
 10
119.000000
 20
107.950000
 30
0.0
  0
LWPOLYLINE
  5
137
100
AcDbEntity
  8
0
 62
4
100
AcDbPolyline
 90
2
 70
0
 10
119.000000
 20
105.000000
 30
0.0
 10
109.000000
 20
105.000000
 30
0.0
  0
LWPOLYLINE
  5
138
100
AcDbEntity
  8
0
 62
4
100
AcDbPolyline
 90
2
 70
0
 10
109.000000
 20
107.950000
 30
0.0
 10
109.000000
 20
105.000000
 30
0.0
  0
LWPOLYLINE
  5
139
100
AcDbEntity
  8
0
 62
4
100
AcDbPolyline
 90
2
 70
0
 10
83.000000
 20
107.950000
 30
0.0
 10
109.000000
 20
107.950000
 30
0.0
  0
LWPOLYLINE
  5
13a
100
AcDbEntity
  8
0
 62
4
100
AcDbPolyline
 90
2
 70
0
 10
83.000000
 20
105.000000
 30
0.0
 10
83.000000
 20
107.950000
 30
0.0
  0
LWPOLYLINE
  5
13b
100
AcDbEntity
  8
0
 62
4
100
AcDbPolyline
 90
2
 70
0
 10
83.000000
 20
105.000000
 30
0.0
 10
73.000000
 20
105.000000
 30
0.0
  0
LWPOLYLINE
  5
13c
100
AcDbEntity
  8
0
 62
4
100
AcDbPolyline
 90
2
 70
0
 10
73.000000
 20
107.950000
 30
0.0
 10
73.000000
 20
105.000000
 30
0.0
  0
LWPOLYLINE
  5
13d
100
AcDbEntity
  8
0
 62
4
100
AcDbPolyline
 90
2
 70
0
 10
66.000000
 20
107.950000
 30
0.0
 10
73.000000
 20
107.950000
 30
0.0
  0
LWPOLYLINE
  5
13e
100
AcDbEntity
  8
0
 62
4
100
AcDbPolyline
 90
2
 70
0
 10
66.000000
 20
107.950000
 30
0.0
 10
66.000000
 20
120.000000
 30
0.0
  0
LWPOLYLINE
  5
13f
100
AcDbEntity
  8
0
 62
4
100
AcDbPolyline
 90
2
 70
0
 10
68.950000
 20
120.000000
 30
0.0
 10
66.000000
 20
120.000000
 30
0.0
  0
LWPOLYLINE
  5
140
100
AcDbEntity
  8
0
 62
4
100
AcDbPolyline
 90
2
 70
0
 10
68.950000
 20
147.500000
 30
0.0
 10
68.950000
 20
120.000000
 30
0.0
  0
LWPOLYLINE
  5
141
100
AcDbEntity
  8
0
 62
4
100
AcDbPolyline
 90
2
 70
0
 10
66.000000
 20
147.500000
 30
0.0
 10
68.950000
 20
147.500000
 30
0.0
  0
LWPOLYLINE
  5
142
100
AcDbEntity
  8
0
 62
4
100
AcDbPolyline
 90
2
 70
0
 10
66.000000
 20
147.500000
 30
0.0
 10
66.000000
 20
162.500000
 30
0.0
  0
LWPOLYLINE
  5
143
100
AcDbEntity
  8
0
 62
4
100
AcDbPolyline
 90
2
 70
0
 10
68.950000
 20
162.500000
 30
0.0
 10
66.000000
 20
162.500000
 30
0.0
  0
LWPOLYLINE
  5
144
100
AcDbEntity
  8
0
 62
4
100
AcDbPolyline
 90
2
 70
0
 10
68.950000
 20
190.000000
 30
0.0
 10
68.950000
 20
162.500000
 30
0.0
  0
LWPOLYLINE
  5
145
100
AcDbEntity
  8
0
 62
4
100
AcDbPolyline
 90
2
 70
0
 10
66.000000
 20
190.000000
 30
0.0
 10
68.950000
 20
190.000000
 30
0.0
  0
LWPOLYLINE
  5
146
100
AcDbEntity
  8
0
 62
4
100
AcDbPolyline
 90
2
 70
0
 10
66.000000
 20
190.000000
 30
0.0
 10
66.000000
 20
199.000000
 30
0.0
  0
LWPOLYLINE
  5
147
100
AcDbEntity
  8
0
 62
4
100
AcDbPolyline
 90
2
 70
0
 10
71.950000
 20
199.000000
 30
0.0
 10
66.000000
 20
199.000000
 30
0.0
  0
LWPOLYLINE
  5
148
100
AcDbEntity
  8
0
 62
4
100
AcDbPolyline
 90
2
 70
0
 10
132.950000
 20
205.000000
 30
0.0
 10
181.050000
 20
205.000000
 30
0.0
  0
LWPOLYLINE
  5
149
100
AcDbEntity
  8
0
 62
4
100
AcDbPolyline
 90
2
 70
0
 10
132.950000
 20
205.000000
 30
0.0
 10
132.950000
 20
199.000000
 30
0.0
  0
LWPOLYLINE
  5
14a
100
AcDbEntity
  8
0
 62
4
100
AcDbPolyline
 90
2
 70
0
 10
181.050000
 20
199.000000
 30
0.0
 10
181.050000
 20
205.000000
 30
0.0
  0
LWPOLYLINE
  5
14b
100
AcDbEntity
  8
0
 62
4
100
AcDbPolyline
 90
2
 70
0
 10
132.950000
 20
199.000000
 30
0.0
 10
129.950000
 20
199.000000
 30
0.0
  0
LWPOLYLINE
  5
14c
100
AcDbEntity
  8
0
 62
4
100
AcDbPolyline
 90
2
 70
0
 10
184.050000
 20
199.000000
 30
0.0
 10
181.050000
 20
199.000000
 30
0.0
  0
LWPOLYLINE
  5
14d
100
AcDbEntity
  8
0
 62
4
100
AcDbPolyline
 90
2
 70
0
 10
129.950000
 20
199.000000
 30
0.0
 10
129.950000
 20
190.000000
 30
0.0
  0
LWPOLYLINE
  5
14e
100
AcDbEntity
  8
0
 62
4
100
AcDbPolyline
 90
2
 70
0
 10
184.050000
 20
190.000000
 30
0.0
 10
184.050000
 20
199.000000
 30
0.0
  0
LWPOLYLINE
  5
14f
100
AcDbEntity
  8
0
 62
4
100
AcDbPolyline
 90
2
 70
0
 10
129.950000
 20
190.000000
 30
0.0
 10
127.000000
 20
190.000000
 30
0.0
  0
LWPOLYLINE
  5
150
100
AcDbEntity
  8
0
 62
4
100
AcDbPolyline
 90
2
 70
0
 10
187.000000
 20
190.000000
 30
0.0
 10
184.050000
 20
190.000000
 30
0.0
  0
LWPOLYLINE
  5
151
100
AcDbEntity
  8
0
 62
4
100
AcDbPolyline
 90
2
 70
0
 10
127.000000
 20
162.500000
 30
0.0
 10
127.000000
 20
190.000000
 30
0.0
  0
LWPOLYLINE
  5
152
100
AcDbEntity
  8
0
 62
4
100
AcDbPolyline
 90
2
 70
0
 10
187.000000
 20
190.000000
 30
0.0
 10
187.000000
 20
162.500000
 30
0.0
  0
LWPOLYLINE
  5
153
100
AcDbEntity
  8
0
 62
4
100
AcDbPolyline
 90
2
 70
0
 10
127.000000
 20
162.500000
 30
0.0
 10
129.950000
 20
162.500000
 30
0.0
  0
LWPOLYLINE
  5
154
100
AcDbEntity
  8
0
 62
4
100
AcDbPolyline
 90
2
 70
0
 10
184.050000
 20
162.500000
 30
0.0
 10
187.000000
 20
162.500000
 30
0.0
  0
LWPOLYLINE
  5
155
100
AcDbEntity
  8
0
 62
4
100
AcDbPolyline
 90
2
 70
0
 10
129.950000
 20
162.500000
 30
0.0
 10
129.950000
 20
147.500000
 30
0.0
  0
LWPOLYLINE
  5
156
100
AcDbEntity
  8
0
 62
4
100
AcDbPolyline
 90
2
 70
0
 10
184.050000
 20
147.500000
 30
0.0
 10
184.050000
 20
162.500000
 30
0.0
  0
LWPOLYLINE
  5
157
100
AcDbEntity
  8
0
 62
4
100
AcDbPolyline
 90
2
 70
0
 10
129.950000
 20
147.500000
 30
0.0
 10
127.000000
 20
147.500000
 30
0.0
  0
LWPOLYLINE
  5
158
100
AcDbEntity
  8
0
 62
4
100
AcDbPolyline
 90
2
 70
0
 10
187.000000
 20
147.500000
 30
0.0
 10
184.050000
 20
147.500000
 30
0.0
  0
LWPOLYLINE
  5
159
100
AcDbEntity
  8
0
 62
4
100
AcDbPolyline
 90
2
 70
0
 10
127.000000
 20
119.950000
 30
0.0
 10
127.000000
 20
147.500000
 30
0.0
  0
LWPOLYLINE
  5
15a
100
AcDbEntity
  8
0
 62
4
100
AcDbPolyline
 90
2
 70
0
 10
187.000000
 20
147.500000
 30
0.0
 10
187.000000
 20
132.150000
 30
0.0
  0
LWPOLYLINE
  5
15b
100
AcDbEntity
  8
0
 62
4
100
AcDbPolyline
 90
2
 70
0
 10
127.000000
 20
119.950000
 30
0.0
 10
129.950000
 20
119.950000
 30
0.0
  0
LWPOLYLINE
  5
15c
100
AcDbEntity
  8
0
 62
4
100
AcDbPolyline
 90
2
 70
0
 10
184.050000
 20
132.150000
 30
0.0
 10
187.000000
 20
132.150000
 30
0.0
  0
LWPOLYLINE
  5
15d
100
AcDbEntity
  8
0
 62
4
100
AcDbPolyline
 90
2
 70
0
 10
129.950000
 20
119.950000
 30
0.0
 10
129.950000
 20
107.950000
 30
0.0
  0
LWPOLYLINE
  5
15e
100
AcDbEntity
  8
0
 62
4
100
AcDbPolyline
 90
2
 70
0
 10
184.050000
 20
107.950000
 30
0.0
 10
184.050000
 20
132.150000
 30
0.0
  0
LWPOLYLINE
  5
15f
100
AcDbEntity
  8
0
 62
4
100
AcDbPolyline
 90
2
 70
0
 10
129.950000
 20
107.950000
 30
0.0
 10
134.000000
 20
107.950000
 30
0.0
  0
LWPOLYLINE
  5
160
100
AcDbEntity
  8
0
 62
4
100
AcDbPolyline
 90
2
 70
0
 10
180.000000
 20
107.950000
 30
0.0
 10
184.050000
 20
107.950000
 30
0.0
  0
LWPOLYLINE
  5
161
100
AcDbEntity
  8
0
 62
4
100
AcDbPolyline
 90
2
 70
0
 10
134.000000
 20
107.950000
 30
0.0
 10
134.000000
 20
105.000000
 30
0.0
  0
LWPOLYLINE
  5
162
100
AcDbEntity
  8
0
 62
4
100
AcDbPolyline
 90
2
 70
0
 10
180.000000
 20
105.000000
 30
0.0
 10
180.000000
 20
107.950000
 30
0.0
  0
LWPOLYLINE
  5
163
100
AcDbEntity
  8
0
 62
4
100
AcDbPolyline
 90
2
 70
0
 10
144.000000
 20
105.000000
 30
0.0
 10
134.000000
 20
105.000000
 30
0.0
  0
LWPOLYLINE
  5
164
100
AcDbEntity
  8
0
 62
4
100
AcDbPolyline
 90
2
 70
0
 10
180.000000
 20
105.000000
 30
0.0
 10
170.000000
 20
105.000000
 30
0.0
  0
LWPOLYLINE
  5
165
100
AcDbEntity
  8
0
 62
4
100
AcDbPolyline
 90
2
 70
0
 10
144.000000
 20
105.000000
 30
0.0
 10
144.000000
 20
107.950000
 30
0.0
  0
LWPOLYLINE
  5
166
100
AcDbEntity
  8
0
 62
4
100
AcDbPolyline
 90
2
 70
0
 10
170.000000
 20
107.950000
 30
0.0
 10
170.000000
 20
105.000000
 30
0.0
  0
LWPOLYLINE
  5
167
100
AcDbEntity
  8
0
 62
4
100
AcDbPolyline
 90
2
 70
0
 10
144.000000
 20
107.950000
 30
0.0
 10
170.000000
 20
107.950000
 30
0.0
  0
LWPOLYLINE
  5
168
100
AcDbEntity
  8
0
 62
5
100
AcDbPolyline
 90
2
 70
0
 10
172.903500
 20
189.240900
 30
0.0
 10
174.366700
 20
186.679300
 30
0.0
  0
LWPOLYLINE
  5
169
100
AcDbEntity
  8
0
 62
5
100
AcDbPolyline
 90
2
 70
0
 10
159.878500
 20
181.801200
 30
0.0
 10
172.903500
 20
189.240900
 30
0.0
  0
LWPOLYLINE
  5
16a
100
AcDbEntity
  8
0
 62
5
100
AcDbPolyline
 90
2
 70
0
 10
161.341700
 20
179.239600
 30
0.0
 10
159.878500
 20
181.801200
 30
0.0
  0
LWPOLYLINE
  5
16b
100
AcDbEntity
  8
0
 62
5
100
AcDbPolyline
 90
2
 70
0
 10
174.366700
 20
186.679300
 30
0.0
 10
161.341700
 20
179.239600
 30
0.0
  0
LWPOLYLINE
  5
16c
100
AcDbEntity
  8
0
 62
5
100
AcDbPolyline
 90
2
 70
0
 10
140.627500
 20
144.240500
 30
0.0
 10
152.402500
 20
134.948100
 30
0.0
  0
LWPOLYLINE
  5
16d
100
AcDbEntity
  8
0
 62
5
100
AcDbPolyline
 90
2
 70
0
 10
138.800000
 20
141.924800
 30
0.0
 10
140.627500
 20
144.240500
 30
0.0
  0
LWPOLYLINE
  5
16e
100
AcDbEntity
  8
0
 62
5
100
AcDbPolyline
 90
2
 70
0
 10
150.575000
 20
132.632400
 30
0.0
 10
138.800000
 20
141.924800
 30
0.0
  0
LWPOLYLINE
  5
16f
100
AcDbEntity
  8
0
 62
5
100
AcDbPolyline
 90
2
 70
0
 10
152.402500
 20
134.948100
 30
0.0
 10
150.575000
 20
132.632400
 30
0.0
  0
LWPOLYLINE
  5
170
100
AcDbEntity
  8
0
 62
4
100
AcDbPolyline
 90
2
 70
0
 10
189.000000
 20
205.000000
 30
0.0
 10
255.000000
 20
205.000000
 30
0.0
  0
LWPOLYLINE
  5
171
100
AcDbEntity
  8
0
 62
4
100
AcDbPolyline
 90
2
 70
0
 10
189.000000
 20
139.000000
 30
0.0
 10
189.000000
 20
205.000000
 30
0.0
  0
LWPOLYLINE
  5
172
100
AcDbEntity
  8
0
 62
4
100
AcDbPolyline
 90
3
 70
0
 10
255.000000
 20
205.000000
 30
0.0
 10
255.000000
 20
139.000000
 30
0.0
 10
189.000000
 20
139.000000
 30
0.0
  0
LWPOLYLINE
  5
173
100
AcDbEntity
  8
0
 62
5
100
AcDbPolyline
 90
2
 70
0
 10
192.000000
 20
185.000000
 30
0.0
 10
192.000000
 20
195.000000
 30
0.0
  0
LWPOLYLINE
  5
174
100
AcDbEntity
  8
0
 62
5
100
AcDbPolyline
 90
2
 70
0
 10
194.950000
 20
185.000000
 30
0.0
 10
192.000000
 20
185.000000
 30
0.0
  0
LWPOLYLINE
  5
175
100
AcDbEntity
  8
0
 62
5
100
AcDbPolyline
 90
2
 70
0
 10
194.950000
 20
195.000000
 30
0.0
 10
194.950000
 20
185.000000
 30
0.0
  0
LWPOLYLINE
  5
176
100
AcDbEntity
  8
0
 62
5
100
AcDbPolyline
 90
2
 70
0
 10
192.000000
 20
195.000000
 30
0.0
 10
194.950000
 20
195.000000
 30
0.0
  0
LWPOLYLINE
  5
177
100
AcDbEntity
  8
0
 62
5
100
AcDbPolyline
 90
2
 70
0
 10
249.050000
 20
185.000000
 30
0.0
 10
249.050000
 20
195.000000
 30
0.0
  0
LWPOLYLINE
  5
178
100
AcDbEntity
  8
0
 62
5
100
AcDbPolyline
 90
2
 70
0
 10
252.000000
 20
185.000000
 30
0.0
 10
249.050000
 20
185.000000
 30
0.0
  0
LWPOLYLINE
  5
179
100
AcDbEntity
  8
0
 62
5
100
AcDbPolyline
 90
2
 70
0
 10
252.000000
 20
195.000000
 30
0.0
 10
252.000000
 20
185.000000
 30
0.0
  0
LWPOLYLINE
  5
17a
100
AcDbEntity
  8
0
 62
5
100
AcDbPolyline
 90
2
 70
0
 10
249.050000
 20
195.000000
 30
0.0
 10
252.000000
 20
195.000000
 30
0.0
  0
LWPOLYLINE
  5
17b
100
AcDbEntity
  8
0
 62
5
100
AcDbPolyline
 90
2
 70
0
 10
199.000000
 20
144.950000
 30
0.0
 10
209.000000
 20
144.950000
 30
0.0
  0
LWPOLYLINE
  5
17c
100
AcDbEntity
  8
0
 62
5
100
AcDbPolyline
 90
2
 70
0
 10
199.000000
 20
142.000000
 30
0.0
 10
199.000000
 20
144.950000
 30
0.0
  0
LWPOLYLINE
  5
17d
100
AcDbEntity
  8
0
 62
5
100
AcDbPolyline
 90
2
 70
0
 10
209.000000
 20
142.000000
 30
0.0
 10
199.000000
 20
142.000000
 30
0.0
  0
LWPOLYLINE
  5
17e
100
AcDbEntity
  8
0
 62
5
100
AcDbPolyline
 90
2
 70
0
 10
209.000000
 20
144.950000
 30
0.0
 10
209.000000
 20
142.000000
 30
0.0
  0
LWPOLYLINE
  5
17f
100
AcDbEntity
  8
0
 62
5
100
AcDbPolyline
 90
2
 70
0
 10
249.050000
 20
159.000000
 30
0.0
 10
252.000000
 20
159.000000
 30
0.0
  0
LWPOLYLINE
  5
180
100
AcDbEntity
  8
0
 62
5
100
AcDbPolyline
 90
2
 70
0
 10
249.050000
 20
149.000000
 30
0.0
 10
249.050000
 20
159.000000
 30
0.0
  0
LWPOLYLINE
  5
181
100
AcDbEntity
  8
0
 62
5
100
AcDbPolyline
 90
2
 70
0
 10
252.000000
 20
149.000000
 30
0.0
 10
249.050000
 20
149.000000
 30
0.0
  0
LWPOLYLINE
  5
182
100
AcDbEntity
  8
0
 62
5
100
AcDbPolyline
 90
2
 70
0
 10
252.000000
 20
159.000000
 30
0.0
 10
252.000000
 20
149.000000
 30
0.0
  0
LWPOLYLINE
  5
183
100
AcDbEntity
  8
0
 62
5
100
AcDbPolyline
 90
2
 70
0
 10
235.000000
 20
144.950000
 30
0.0
 10
245.000000
 20
144.950000
 30
0.0
  0
LWPOLYLINE
  5
184
100
AcDbEntity
  8
0
 62
5
100
AcDbPolyline
 90
2
 70
0
 10
235.000000
 20
142.000000
 30
0.0
 10
235.000000
 20
144.950000
 30
0.0
  0
LWPOLYLINE
  5
185
100
AcDbEntity
  8
0
 62
5
100
AcDbPolyline
 90
2
 70
0
 10
245.000000
 20
142.000000
 30
0.0
 10
235.000000
 20
142.000000
 30
0.0
  0
LWPOLYLINE
  5
186
100
AcDbEntity
  8
0
 62
5
100
AcDbPolyline
 90
2
 70
0
 10
245.000000
 20
144.950000
 30
0.0
 10
245.000000
 20
142.000000
 30
0.0
  0
LWPOLYLINE
  5
187
100
AcDbEntity
  8
0
 62
5
100
AcDbPolyline
 90
2
 70
0
 10
192.000000
 20
149.000000
 30
0.0
 10
192.000000
 20
159.000000
 30
0.0
  0
LWPOLYLINE
  5
188
100
AcDbEntity
  8
0
 62
5
100
AcDbPolyline
 90
2
 70
0
 10
194.950000
 20
149.000000
 30
0.0
 10
192.000000
 20
149.000000
 30
0.0
  0
LWPOLYLINE
  5
189
100
AcDbEntity
  8
0
 62
5
100
AcDbPolyline
 90
2
 70
0
 10
194.950000
 20
159.000000
 30
0.0
 10
194.950000
 20
149.000000
 30
0.0
  0
LWPOLYLINE
  5
18a
100
AcDbEntity
  8
0
 62
5
100
AcDbPolyline
 90
2
 70
0
 10
192.000000
 20
159.000000
 30
0.0
 10
194.950000
 20
159.000000
 30
0.0
  0
LWPOLYLINE
  5
18b
100
AcDbEntity
  8
0
 62
4
100
AcDbPolyline
 90
2
 70
0
 10
189.000000
 20
138.000000
 30
0.0
 10
255.000000
 20
138.000000
 30
0.0
  0
LWPOLYLINE
  5
18c
100
AcDbEntity
  8
0
 62
4
100
AcDbPolyline
 90
2
 70
0
 10
189.000000
 20
72.000000
 30
0.0
 10
189.000000
 20
138.000000
 30
0.0
  0
LWPOLYLINE
  5
18d
100
AcDbEntity
  8
0
 62
4
100
AcDbPolyline
 90
3
 70
0
 10
255.000000
 20
138.000000
 30
0.0
 10
255.000000
 20
72.000000
 30
0.0
 10
189.000000
 20
72.000000
 30
0.0
  0
LWPOLYLINE
  5
18e
100
AcDbEntity
  8
0
 62
5
100
AcDbPolyline
 90
2
 70
0
 10
195.000000
 20
81.000000
 30
0.0
 10
192.050000
 20
81.000000
 30
0.0
  0
LWPOLYLINE
  5
18f
100
AcDbEntity
  8
0
 62
5
100
AcDbPolyline
 90
2
 70
0
 10
195.000000
 20
129.000000
 30
0.0
 10
195.000000
 20
81.000000
 30
0.0
  0
LWPOLYLINE
  5
190
100
AcDbEntity
  8
0
 62
5
100
AcDbPolyline
 90
2
 70
0
 10
192.050000
 20
129.000000
 30
0.0
 10
195.000000
 20
129.000000
 30
0.0
  0
LWPOLYLINE
  5
191
100
AcDbEntity
  8
0
 62
5
100
AcDbPolyline
 90
2
 70
0
 10
192.050000
 20
81.000000
 30
0.0
 10
192.050000
 20
129.000000
 30
0.0
  0
LWPOLYLINE
  5
192
100
AcDbEntity
  8
0
 62
6
100
AcDbPolyline
 90
2
 70
0
 10
198.000000
 20
129.000000
 30
0.0
 10
246.000000
 20
129.000000
 30
0.0
  0
LWPOLYLINE
  5
193
100
AcDbEntity
  8
0
 62
6
100
AcDbPolyline
 90
2
 70
0
 10
198.000000
 20
81.000000
 30
0.0
 10
198.000000
 20
129.000000
 30
0.0
  0
LWPOLYLINE
  5
194
100
AcDbEntity
  8
0
 62
6
100
AcDbPolyline
 90
3
 70
0
 10
246.000000
 20
129.000000
 30
0.0
 10
246.000000
 20
81.000000
 30
0.0
 10
198.000000
 20
81.000000
 30
0.0
  0
LWPOLYLINE
  5
195
100
AcDbEntity
  8
0
 62
5
100
AcDbPolyline
 90
2
 70
0
 10
249.000000
 20
81.000000
 30
0.0
 10
249.000000
 20
129.000000
 30
0.0
  0
LWPOLYLINE
  5
196
100
AcDbEntity
  8
0
 62
5
100
AcDbPolyline
 90
2
 70
0
 10
251.950000
 20
81.000000
 30
0.0
 10
249.000000
 20
81.000000
 30
0.0
  0
LWPOLYLINE
  5
197
100
AcDbEntity
  8
0
 62
5
100
AcDbPolyline
 90
2
 70
0
 10
251.950000
 20
129.000000
 30
0.0
 10
251.950000
 20
81.000000
 30
0.0
  0
LWPOLYLINE
  5
198
100
AcDbEntity
  8
0
 62
5
100
AcDbPolyline
 90
2
 70
0
 10
249.000000
 20
129.000000
 30
0.0
 10
251.950000
 20
129.000000
 30
0.0
  0
LWPOLYLINE
  5
199
100
AcDbEntity
  8
0
 62
5
100
AcDbPolyline
 90
2
 70
0
 10
198.000000
 20
78.000000
 30
0.0
 10
246.000000
 20
78.000000
 30
0.0
  0
LWPOLYLINE
  5
19a
100
AcDbEntity
  8
0
 62
5
100
AcDbPolyline
 90
2
 70
0
 10
198.000000
 20
75.050000
 30
0.0
 10
198.000000
 20
78.000000
 30
0.0
  0
LWPOLYLINE
  5
19b
100
AcDbEntity
  8
0
 62
5
100
AcDbPolyline
 90
2
 70
0
 10
246.000000
 20
75.050000
 30
0.0
 10
198.000000
 20
75.050000
 30
0.0
  0
LWPOLYLINE
  5
19c
100
AcDbEntity
  8
0
 62
5
100
AcDbPolyline
 90
2
 70
0
 10
246.000000
 20
78.000000
 30
0.0
 10
246.000000
 20
75.050000
 30
0.0
  0
LWPOLYLINE
  5
19d
100
AcDbEntity
  8
0
 62
5
100
AcDbPolyline
 90
2
 70
0
 10
246.000000
 20
134.950000
 30
0.0
 10
246.000000
 20
132.000000
 30
0.0
  0
LWPOLYLINE
  5
19e
100
AcDbEntity
  8
0
 62
5
100
AcDbPolyline
 90
2
 70
0
 10
198.000000
 20
134.950000
 30
0.0
 10
246.000000
 20
134.950000
 30
0.0
  0
LWPOLYLINE
  5
19f
100
AcDbEntity
  8
0
 62
5
100
AcDbPolyline
 90
2
 70
0
 10
198.000000
 20
132.000000
 30
0.0
 10
198.000000
 20
134.950000
 30
0.0
  0
LWPOLYLINE
  5
1a0
100
AcDbEntity
  8
0
 62
5
100
AcDbPolyline
 90
2
 70
0
 10
246.000000
 20
132.000000
 30
0.0
 10
198.000000
 20
132.000000
 30
0.0
  0
LWPOLYLINE
  5
1a1
100
AcDbEntity
  8
0
 62
4
100
AcDbPolyline
 90
2
 70
0
 10
10.950000
 20
103.500000
 30
0.0
 10
59.050000
 20
103.500000
 30
0.0
  0
LWPOLYLINE
  5
1a2
100
AcDbEntity
  8
0
 62
4
100
AcDbPolyline
 90
2
 70
0
 10
10.950000
 20
103.500000
 30
0.0
 10
10.950000
 20
97.500000
 30
0.0
  0
LWPOLYLINE
  5
1a3
100
AcDbEntity
  8
0
 62
4
100
AcDbPolyline
 90
2
 70
0
 10
59.050000
 20
97.500000
 30
0.0
 10
59.050000
 20
103.500000
 30
0.0
  0
LWPOLYLINE
  5
1a4
100
AcDbEntity
  8
0
 62
4
100
AcDbPolyline
 90
2
 70
0
 10
65.000000
 20
97.500000
 30
0.0
 10
59.050000
 20
97.500000
 30
0.0
  0
LWPOLYLINE
  5
1a5
100
AcDbEntity
  8
0
 62
4
100
AcDbPolyline
 90
2
 70
0
 10
65.000000
 20
97.500000
 30
0.0
 10
65.000000
 20
88.500000
 30
0.0
  0
LWPOLYLINE
  5
1a6
100
AcDbEntity
  8
0
 62
4
100
AcDbPolyline
 90
2
 70
0
 10
62.050000
 20
88.500000
 30
0.0
 10
65.000000
 20
88.500000
 30
0.0
  0
LWPOLYLINE
  5
1a7
100
AcDbEntity
  8
0
 62
4
100
AcDbPolyline
 90
2
 70
0
 10
62.050000
 20
61.000000
 30
0.0
 10
62.050000
 20
88.500000
 30
0.0
  0
LWPOLYLINE
  5
1a8
100
AcDbEntity
  8
0
 62
4
100
AcDbPolyline
 90
2
 70
0
 10
65.000000
 20
61.000000
 30
0.0
 10
62.050000
 20
61.000000
 30
0.0
  0
LWPOLYLINE
  5
1a9
100
AcDbEntity
  8
0
 62
4
100
AcDbPolyline
 90
2
 70
0
 10
65.000000
 20
61.000000
 30
0.0
 10
65.000000
 20
46.000000
 30
0.0
  0
LWPOLYLINE
  5
1aa
100
AcDbEntity
  8
0
 62
4
100
AcDbPolyline
 90
2
 70
0
 10
62.050000
 20
46.000000
 30
0.0
 10
65.000000
 20
46.000000
 30
0.0
  0
LWPOLYLINE
  5
1ab
100
AcDbEntity
  8
0
 62
4
100
AcDbPolyline
 90
2
 70
0
 10
62.050000
 20
30.500000
 30
0.0
 10
62.050000
 20
46.000000
 30
0.0
  0
LWPOLYLINE
  5
1ac
100
AcDbEntity
  8
0
 62
4
100
AcDbPolyline
 90
2
 70
0
 10
7.950000
 20
30.500000
 30
0.0
 10
62.050000
 20
30.500000
 30
0.0
  0
LWPOLYLINE
  5
1ad
100
AcDbEntity
  8
0
 62
4
100
AcDbPolyline
 90
2
 70
0
 10
7.950000
 20
46.000000
 30
0.0
 10
7.950000
 20
30.500000
 30
0.0
  0
LWPOLYLINE
  5
1ae
100
AcDbEntity
  8
0
 62
4
100
AcDbPolyline
 90
2
 70
0
 10
5.000000
 20
46.000000
 30
0.0
 10
7.950000
 20
46.000000
 30
0.0
  0
LWPOLYLINE
  5
1af
100
AcDbEntity
  8
0
 62
4
100
AcDbPolyline
 90
2
 70
0
 10
5.000000
 20
46.000000
 30
0.0
 10
5.000000
 20
61.000000
 30
0.0
  0
LWPOLYLINE
  5
1b0
100
AcDbEntity
  8
0
 62
4
100
AcDbPolyline
 90
2
 70
0
 10
7.950000
 20
61.000000
 30
0.0
 10
5.000000
 20
61.000000
 30
0.0
  0
LWPOLYLINE
  5
1b1
100
AcDbEntity
  8
0
 62
4
100
AcDbPolyline
 90
2
 70
0
 10
7.950000
 20
88.500000
 30
0.0
 10
7.950000
 20
61.000000
 30
0.0
  0
LWPOLYLINE
  5
1b2
100
AcDbEntity
  8
0
 62
4
100
AcDbPolyline
 90
2
 70
0
 10
5.000000
 20
88.500000
 30
0.0
 10
7.950000
 20
88.500000
 30
0.0
  0
LWPOLYLINE
  5
1b3
100
AcDbEntity
  8
0
 62
4
100
AcDbPolyline
 90
2
 70
0
 10
5.000000
 20
88.500000
 30
0.0
 10
5.000000
 20
97.500000
 30
0.0
  0
LWPOLYLINE
  5
1b4
100
AcDbEntity
  8
0
 62
4
100
AcDbPolyline
 90
2
 70
0
 10
10.950000
 20
97.500000
 30
0.0
 10
5.000000
 20
97.500000
 30
0.0
  0
LWPOLYLINE
  5
1b5
100
AcDbEntity
  8
0
 62
4
100
AcDbPolyline
 90
2
 70
0
 10
71.949900
 20
42.999700
 30
0.0
 10
120.049900
 20
42.999700
 30
0.0
  0
LWPOLYLINE
  5
1b6
100
AcDbEntity
  8
0
 62
4
100
AcDbPolyline
 90
2
 70
0
 10
71.949900
 20
42.999700
 30
0.0
 10
71.949900
 20
75.999700
 30
0.0
  0
LWPOLYLINE
  5
1b7
100
AcDbEntity
  8
0
 62
4
100
AcDbPolyline
 90
2
 70
0
 10
120.049900
 20
75.999700
 30
0.0
 10
120.049900
 20
42.999700
 30
0.0
  0
LWPOLYLINE
  5
1b8
100
AcDbEntity
  8
0
 62
4
100
AcDbPolyline
 90
2
 70
0
 10
123.049890
 20
75.999700
 30
0.0
 10
120.049900
 20
75.999700
 30
0.0
  0
LWPOLYLINE
  5
1b9
100
AcDbEntity
  8
0
 62
4
100
AcDbPolyline
 90
2
 70
0
 10
123.049890
 20
77.999700
 30
0.0
 10
123.049890
 20
75.999700
 30
0.0
  0
LWPOLYLINE
  5
1ba
100
AcDbEntity
  8
0
 62
4
100
AcDbPolyline
 90
2
 70
0
 10
125.999890
 20
77.999700
 30
0.0
 10
123.049890
 20
77.999700
 30
0.0
  0
LWPOLYLINE
  5
1bb
100
AcDbEntity
  8
0
 62
4
100
AcDbPolyline
 90
2
 70
0
 10
125.999890
 20
77.999700
 30
0.0
 10
125.999890
 20
92.999700
 30
0.0
  0
LWPOLYLINE
  5
1bc
100
AcDbEntity
  8
0
 62
4
100
AcDbPolyline
 90
2
 70
0
 10
123.049890
 20
92.999700
 30
0.0
 10
125.999890
 20
92.999700
 30
0.0
  0
LWPOLYLINE
  5
1bd
100
AcDbEntity
  8
0
 62
4
100
AcDbPolyline
 90
2
 70
0
 10
123.049890
 20
103.000000
 30
0.0
 10
123.049890
 20
92.999700
 30
0.0
  0
LWPOLYLINE
  5
1be
100
AcDbEntity
  8
0
 62
4
100
AcDbPolyline
 90
2
 70
0
 10
123.049890
 20
103.000000
 30
0.0
 10
68.949900
 20
103.000000
 30
0.0
  0
LWPOLYLINE
  5
1bf
100
AcDbEntity
  8
0
 62
4
100
AcDbPolyline
 90
2
 70
0
 10
68.949900
 20
92.999700
 30
0.0
 10
68.949900
 20
103.000000
 30
0.0
  0
LWPOLYLINE
  5
1c0
100
AcDbEntity
  8
0
 62
4
100
AcDbPolyline
 90
2
 70
0
 10
65.999900
 20
92.999700
 30
0.0
 10
68.949900
 20
92.999700
 30
0.0
  0
LWPOLYLINE
  5
1c1
100
AcDbEntity
  8
0
 62
4
100
AcDbPolyline
 90
2
 70
0
 10
65.999900
 20
92.999700
 30
0.0
 10
65.999900
 20
77.999700
 30
0.0
  0
LWPOLYLINE
  5
1c2
100
AcDbEntity
  8
0
 62
4
100
AcDbPolyline
 90
2
 70
0
 10
68.949900
 20
77.999700
 30
0.0
 10
65.999900
 20
77.999700
 30
0.0
  0
LWPOLYLINE
  5
1c3
100
AcDbEntity
  8
0
 62
4
100
AcDbPolyline
 90
2
 70
0
 10
68.949900
 20
75.999700
 30
0.0
 10
68.949900
 20
77.999700
 30
0.0
  0
LWPOLYLINE
  5
1c4
100
AcDbEntity
  8
0
 62
4
100
AcDbPolyline
 90
2
 70
0
 10
71.949900
 20
75.999700
 30
0.0
 10
68.949900
 20
75.999700
 30
0.0
  0
LWPOLYLINE
  5
1c5
100
AcDbEntity
  8
0
 62
4
100
AcDbPolyline
 90
2
 70
0
 10
129.949600
 20
103.000000
 30
0.0
 10
184.049600
 20
103.000000
 30
0.0
  0
LWPOLYLINE
  5
1c6
100
AcDbEntity
  8
0
 62
4
100
AcDbPolyline
 90
2
 70
0
 10
129.949600
 20
103.000000
 30
0.0
 10
129.949600
 20
93.000000
 30
0.0
  0
LWPOLYLINE
  5
1c7
100
AcDbEntity
  8
0
 62
4
100
AcDbPolyline
 90
2
 70
0
 10
184.049600
 20
93.000000
 30
0.0
 10
184.049600
 20
103.000000
 30
0.0
  0
LWPOLYLINE
  5
1c8
100
AcDbEntity
  8
0
 62
4
100
AcDbPolyline
 90
2
 70
0
 10
186.999600
 20
93.000000
 30
0.0
 10
184.049600
 20
93.000000
 30
0.0
  0
LWPOLYLINE
  5
1c9
100
AcDbEntity
  8
0
 62
4
100
AcDbPolyline
 90
2
 70
0
 10
186.999600
 20
93.000000
 30
0.0
 10
186.999600
 20
78.000000
 30
0.0
  0
LWPOLYLINE
  5
1ca
100
AcDbEntity
  8
0
 62
4
100
AcDbPolyline
 90
2
 70
0
 10
184.049600
 20
78.000000
 30
0.0
 10
186.999600
 20
78.000000
 30
0.0
  0
LWPOLYLINE
  5
1cb
100
AcDbEntity
  8
0
 62
4
100
AcDbPolyline
 90
2
 70
0
 10
184.049600
 20
63.000000
 30
0.0
 10
184.049600
 20
78.000000
 30
0.0
  0
LWPOLYLINE
  5
1cc
100
AcDbEntity
  8
0
 62
4
100
AcDbPolyline
 90
2
 70
0
 10
184.049600
 20
63.000000
 30
0.0
 10
129.949600
 20
63.000000
 30
0.0
  0
LWPOLYLINE
  5
1cd
100
AcDbEntity
  8
0
 62
4
100
AcDbPolyline
 90
2
 70
0
 10
129.949600
 20
78.000000
 30
0.0
 10
129.949600
 20
63.000000
 30
0.0
  0
LWPOLYLINE
  5
1ce
100
AcDbEntity
  8
0
 62
4
100
AcDbPolyline
 90
2
 70
0
 10
126.999600
 20
78.000000
 30
0.0
 10
129.949600
 20
78.000000
 30
0.0
  0
LWPOLYLINE
  5
1cf
100
AcDbEntity
  8
0
 62
4
100
AcDbPolyline
 90
2
 70
0
 10
126.999600
 20
78.000000
 30
0.0
 10
126.999600
 20
93.000000
 30
0.0
  0
LWPOLYLINE
  5
1d0
100
AcDbEntity
  8
0
 62
4
100
AcDbPolyline
 90
2
 70
0
 10
129.949600
 20
93.000000
 30
0.0
 10
126.999600
 20
93.000000
 30
0.0
  0
LWPOLYLINE
  5
1d1
100
AcDbEntity
  8
0
 62
4
100
AcDbPolyline
 90
2
 70
0
 10
200.999500
 20
12.500200
 30
0.0
 10
213.999500
 20
12.500200
 30
0.0
  0
LWPOLYLINE
  5
1d2
100
AcDbEntity
  8
0
 62
4
100
AcDbPolyline
 90
2
 70
0
 10
213.999500
 20
15.450200
 30
0.0
 10
213.999500
 20
12.500200
 30
0.0
  0
LWPOLYLINE
  5
1d3
100
AcDbEntity
  8
0
 62
4
100
AcDbPolyline
 90
2
 70
0
 10
241.999500
 20
15.450200
 30
0.0
 10
213.999500
 20
15.450200
 30
0.0
  0
LWPOLYLINE
  5
1d4
100
AcDbEntity
  8
0
 62
4
100
AcDbPolyline
 90
2
 70
0
 10
241.999500
 20
12.500200
 30
0.0
 10
241.999500
 20
15.450200
 30
0.0
  0
LWPOLYLINE
  5
1d5
100
AcDbEntity
  8
0
 62
4
100
AcDbPolyline
 90
3
 70
0
 10
241.999500
 20
12.500200
 30
0.0
 10
254.999500
 20
12.500200
 30
0.0
 10
254.999500
 20
26.000200
 30
0.0
  0
LWPOLYLINE
  5
1d6
100
AcDbEntity
  8
0
 62
4
100
AcDbPolyline
 90
2
 70
0
 10
252.049500
 20
26.000200
 30
0.0
 10
254.999500
 20
26.000200
 30
0.0
  0
LWPOLYLINE
  5
1d7
100
AcDbEntity
  8
0
 62
4
100
AcDbPolyline
 90
2
 70
0
 10
252.049500
 20
34.000200
 30
0.0
 10
252.049500
 20
26.000200
 30
0.0
  0
LWPOLYLINE
  5
1d8
100
AcDbEntity
  8
0
 62
4
100
AcDbPolyline
 90
2
 70
0
 10
254.999500
 20
34.000200
 30
0.0
 10
252.049500
 20
34.000200
 30
0.0
  0
LWPOLYLINE
  5
1d9
100
AcDbEntity
  8
0
 62
4
100
AcDbPolyline
 90
2
 70
0
 10
254.999500
 20
34.000200
 30
0.0
 10
254.999500
 20
48.000200
 30
0.0
  0
LWPOLYLINE
  5
1da
100
AcDbEntity
  8
0
 62
4
100
AcDbPolyline
 90
2
 70
0
 10
252.049500
 20
48.000200
 30
0.0
 10
254.999500
 20
48.000200
 30
0.0
  0
LWPOLYLINE
  5
1db
100
AcDbEntity
  8
0
 62
4
100
AcDbPolyline
 90
2
 70
0
 10
252.049500
 20
56.000200
 30
0.0
 10
252.049500
 20
48.000200
 30
0.0
  0
LWPOLYLINE
  5
1dc
100
AcDbEntity
  8
0
 62
4
100
AcDbPolyline
 90
2
 70
0
 10
254.999500
 20
56.000200
 30
0.0
 10
252.049500
 20
56.000200
 30
0.0
  0
LWPOLYLINE
  5
1dd
100
AcDbEntity
  8
0
 62
4
100
AcDbPolyline
 90
4
 70
0
 10
254.999500
 20
56.000200
 30
0.0
 10
254.999500
 20
69.500200
 30
0.0
 10
200.999500
 20
69.500200
 30
0.0
 10
200.999500
 20
56.000200
 30
0.0
  0
LWPOLYLINE
  5
1de
100
AcDbEntity
  8
0
 62
4
100
AcDbPolyline
 90
2
 70
0
 10
203.949500
 20
56.000200
 30
0.0
 10
200.999500
 20
56.000200
 30
0.0
  0
LWPOLYLINE
  5
1df
100
AcDbEntity
  8
0
 62
4
100
AcDbPolyline
 90
2
 70
0
 10
203.949500
 20
48.000200
 30
0.0
 10
203.949500
 20
56.000200
 30
0.0
  0
LWPOLYLINE
  5
1e0
100
AcDbEntity
  8
0
 62
4
100
AcDbPolyline
 90
2
 70
0
 10
200.999500
 20
48.000200
 30
0.0
 10
203.949500
 20
48.000200
 30
0.0
  0
LWPOLYLINE
  5
1e1
100
AcDbEntity
  8
0
 62
4
100
AcDbPolyline
 90
2
 70
0
 10
200.999500
 20
48.000200
 30
0.0
 10
200.999500
 20
34.000200
 30
0.0
  0
LWPOLYLINE
  5
1e2
100
AcDbEntity
  8
0
 62
4
100
AcDbPolyline
 90
2
 70
0
 10
203.949500
 20
34.000200
 30
0.0
 10
200.999500
 20
34.000200
 30
0.0
  0
LWPOLYLINE
  5
1e3
100
AcDbEntity
  8
0
 62
4
100
AcDbPolyline
 90
2
 70
0
 10
203.949500
 20
26.000200
 30
0.0
 10
203.949500
 20
34.000200
 30
0.0
  0
LWPOLYLINE
  5
1e4
100
AcDbEntity
  8
0
 62
4
100
AcDbPolyline
 90
2
 70
0
 10
200.999500
 20
26.000200
 30
0.0
 10
203.949500
 20
26.000200
 30
0.0
  0
LWPOLYLINE
  5
1e5
100
AcDbEntity
  8
0
 62
4
100
AcDbPolyline
 90
2
 70
0
 10
200.999500
 20
26.000200
 30
0.0
 10
200.999500
 20
12.500200
 30
0.0
  0
LWPOLYLINE
  5
1e6
100
AcDbEntity
  8
0
 62
4
100
AcDbPolyline
 90
2
 70
0
 10
65.128680
 20
41.330560
 30
0.0
 10
125.128680
 20
41.330560
 30
0.0
  0
LWPOLYLINE
  5
1e7
100
AcDbEntity
  8
0
 62
4
100
AcDbPolyline
 90
2
 70
0
 10
65.128680
 20
17.380960
 30
0.0
 10
65.128680
 20
41.330560
 30
0.0
  0
LWPOLYLINE
  5
1e8
100
AcDbEntity
  8
0
 62
4
100
AcDbPolyline
 90
2
 70
0
 10
125.128680
 20
41.330560
 30
0.0
 10
125.128680
 20
17.380960
 30
0.0
  0
LWPOLYLINE
  5
1e9
100
AcDbEntity
  8
0
 62
4
100
AcDbPolyline
 90
2
 70
0
 10
122.128680
 20
17.380960
 30
0.0
 10
125.128680
 20
17.380960
 30
0.0
  0
LWPOLYLINE
  5
1ea
100
AcDbEntity
  8
0
 62
4
100
AcDbPolyline
 90
2
 70
0
 10
122.128680
 20
20.330960
 30
0.0
 10
122.128680
 20
17.380960
 30
0.0
  0
LWPOLYLINE
  5
1eb
100
AcDbEntity
  8
0
 62
4
100
AcDbPolyline
 90
2
 70
0
 10
109.128680
 20
20.330960
 30
0.0
 10
122.128680
 20
20.330960
 30
0.0
  0
LWPOLYLINE
  5
1ec
100
AcDbEntity
  8
0
 62
4
100
AcDbPolyline
 90
2
 70
0
 10
109.128680
 20
17.380960
 30
0.0
 10
109.128680
 20
20.330960
 30
0.0
  0
LWPOLYLINE
  5
1ed
100
AcDbEntity
  8
0
 62
4
100
AcDbPolyline
 90
2
 70
0
 10
81.128680
 20
17.380960
 30
0.0
 10
109.128680
 20
17.380960
 30
0.0
  0
LWPOLYLINE
  5
1ee
100
AcDbEntity
  8
0
 62
4
100
AcDbPolyline
 90
2
 70
0
 10
81.128680
 20
20.330960
 30
0.0
 10
81.128680
 20
17.380960
 30
0.0
  0
LWPOLYLINE
  5
1ef
100
AcDbEntity
  8
0
 62
4
100
AcDbPolyline
 90
2
 70
0
 10
68.128680
 20
20.330960
 30
0.0
 10
81.128680
 20
20.330960
 30
0.0
  0
LWPOLYLINE
  5
1f0
100
AcDbEntity
  8
0
 62
4
100
AcDbPolyline
 90
2
 70
0
 10
68.128680
 20
17.380960
 30
0.0
 10
68.128680
 20
20.330960
 30
0.0
  0
LWPOLYLINE
  5
1f1
100
AcDbEntity
  8
0
 62
4
100
AcDbPolyline
 90
2
 70
0
 10
65.128680
 20
17.380960
 30
0.0
 10
68.128680
 20
17.380960
 30
0.0
  0
LWPOLYLINE
  5
1f2
100
AcDbEntity
  8
0
 62
5
100
AcDbPolyline
 90
2
 70
0
 10
68.128680
 20
23.330960
 30
0.0
 10
68.128680
 20
29.330560
 30
0.0
  0
LWPOLYLINE
  5
1f3
100
AcDbEntity
  8
0
 62
5
100
AcDbPolyline
 90
2
 70
0
 10
71.078680
 20
23.330960
 30
0.0
 10
68.128680
 20
23.330960
 30
0.0
  0
LWPOLYLINE
  5
1f4
100
AcDbEntity
  8
0
 62
5
100
AcDbPolyline
 90
3
 70
0
 10
68.128680
 20
29.330560
 30
0.0
 10
71.078680
 20
29.330560
 30
0.0
 10
71.078680
 20
23.330960
 30
0.0
  0
LWPOLYLINE
  5
1f5
100
AcDbEntity
  8
0
 62
5
100
AcDbPolyline
 90
2
 70
0
 10
122.128680
 20
29.330560
 30
0.0
 10
122.128680
 20
23.330960
 30
0.0
  0
LWPOLYLINE
  5
1f6
100
AcDbEntity
  8
0
 62
5
100
AcDbPolyline
 90
2
 70
0
 10
119.178680
 20
29.330560
 30
0.0
 10
122.128680
 20
29.330560
 30
0.0
  0
LWPOLYLINE
  5
1f7
100
AcDbEntity
  8
0
 62
5
100
AcDbPolyline
 90
3
 70
0
 10
122.128680
 20
23.330960
 30
0.0
 10
119.178680
 20
23.330960
 30
0.0
 10
119.178680
 20
29.330560
 30
0.0
  0
LWPOLYLINE
  5
1f8
100
AcDbEntity
  8
0
 62
4
100
AcDbPolyline
 90
2
 70
0
 10
129.499600
 20
60.975000
 30
0.0
 10
183.549550
 20
60.975000
 30
0.0
  0
LWPOLYLINE
  5
1f9
100
AcDbEntity
  8
0
 62
4
100
AcDbPolyline
 90
2
 70
0
 10
183.549550
 20
54.975000
 30
0.0
 10
183.549550
 20
60.975000
 30
0.0
  0
LWPOLYLINE
  5
1fa
100
AcDbEntity
  8
0
 62
4
100
AcDbPolyline
 90
2
 70
0
 10
186.499550
 20
54.975000
 30
0.0
 10
183.549550
 20
54.975000
 30
0.0
  0
LWPOLYLINE
  5
1fb
100
AcDbEntity
  8
0
 62
4
100
AcDbPolyline
 90
2
 70
0
 10
186.499550
 20
54.975000
 30
0.0
 10
186.499550
 20
48.975000
 30
0.0
  0
LWPOLYLINE
  5
1fc
100
AcDbEntity
  8
0
 62
4
100
AcDbPolyline
 90
2
 70
0
 10
183.549550
 20
48.975000
 30
0.0
 10
186.499550
 20
48.975000
 30
0.0
  0
LWPOLYLINE
  5
1fd
100
AcDbEntity
  8
0
 62
4
100
AcDbPolyline
 90
2
 70
0
 10
183.549550
 20
45.975000
 30
0.0
 10
183.549550
 20
48.975000
 30
0.0
  0
LWPOLYLINE
  5
1fe
100
AcDbEntity
  8
0
 62
4
100
AcDbPolyline
 90
2
 70
0
 10
172.999550
 20
45.975000
 30
0.0
 10
183.549550
 20
45.975000
 30
0.0
  0
LWPOLYLINE
  5
1ff
100
AcDbEntity
  8
0
 62
4
100
AcDbPolyline
 90
2
 70
0
 10
172.999550
 20
43.025000
 30
0.0
 10
172.999550
 20
45.975000
 30
0.0
  0
LWPOLYLINE
  5
200
100
AcDbEntity
  8
0
 62
4
100
AcDbPolyline
 90
2
 70
0
 10
172.999550
 20
43.025000
 30
0.0
 10
164.999600
 20
43.025000
 30
0.0
  0
LWPOLYLINE
  5
201
100
AcDbEntity
  8
0
 62
4
100
AcDbPolyline
 90
2
 70
0
 10
164.999600
 20
45.975000
 30
0.0
 10
164.999600
 20
43.025000
 30
0.0
  0
LWPOLYLINE
  5
202
100
AcDbEntity
  8
0
 62
4
100
AcDbPolyline
 90
2
 70
0
 10
150.999600
 20
45.975000
 30
0.0
 10
164.999600
 20
45.975000
 30
0.0
  0
LWPOLYLINE
  5
203
100
AcDbEntity
  8
0
 62
4
100
AcDbPolyline
 90
2
 70
0
 10
150.999600
 20
43.025000
 30
0.0
 10
150.999600
 20
45.975000
 30
0.0
  0
LWPOLYLINE
  5
204
100
AcDbEntity
  8
0
 62
4
100
AcDbPolyline
 90
2
 70
0
 10
150.999600
 20
43.025000
 30
0.0
 10
142.999600
 20
43.025000
 30
0.0
  0
LWPOLYLINE
  5
205
100
AcDbEntity
  8
0
 62
4
100
AcDbPolyline
 90
2
 70
0
 10
142.999600
 20
45.975000
 30
0.0
 10
142.999600
 20
43.025000
 30
0.0
  0
LWPOLYLINE
  5
206
100
AcDbEntity
  8
0
 62
4
100
AcDbPolyline
 90
2
 70
0
 10
129.499600
 20
45.975000
 30
0.0
 10
142.999600
 20
45.975000
 30
0.0
  0
LWPOLYLINE
  5
207
100
AcDbEntity
  8
0
 62
4
100
AcDbPolyline
 90
2
 70
0
 10
129.499600
 20
45.975000
 30
0.0
 10
129.499600
 20
60.975000
 30
0.0
  0
LWPOLYLINE
  5
208
100
AcDbEntity
  8
0
 62
4
100
AcDbPolyline
 90
2
 70
0
 10
129.499600
 20
38.974800
 30
0.0
 10
183.549550
 20
38.974800
 30
0.0
  0
LWPOLYLINE
  5
209
100
AcDbEntity
  8
0
 62
4
100
AcDbPolyline
 90
2
 70
0
 10
183.549550
 20
32.974800
 30
0.0
 10
183.549550
 20
38.974800
 30
0.0
  0
LWPOLYLINE
  5
20a
100
AcDbEntity
  8
0
 62
4
100
AcDbPolyline
 90
2
 70
0
 10
186.499550
 20
32.974800
 30
0.0
 10
183.549550
 20
32.974800
 30
0.0
  0
LWPOLYLINE
  5
20b
100
AcDbEntity
  8
0
 62
4
100
AcDbPolyline
 90
2
 70
0
 10
186.499550
 20
32.974800
 30
0.0
 10
186.499550
 20
26.974800
 30
0.0
  0
LWPOLYLINE
  5
20c
100
AcDbEntity
  8
0
 62
4
100
AcDbPolyline
 90
2
 70
0
 10
183.549550
 20
26.974800
 30
0.0
 10
186.499550
 20
26.974800
 30
0.0
  0
LWPOLYLINE
  5
20d
100
AcDbEntity
  8
0
 62
4
100
AcDbPolyline
 90
2
 70
0
 10
183.549550
 20
23.974800
 30
0.0
 10
183.549550
 20
26.974800
 30
0.0
  0
LWPOLYLINE
  5
20e
100
AcDbEntity
  8
0
 62
4
100
AcDbPolyline
 90
2
 70
0
 10
172.999550
 20
23.974800
 30
0.0
 10
183.549550
 20
23.974800
 30
0.0
  0
LWPOLYLINE
  5
20f
100
AcDbEntity
  8
0
 62
4
100
AcDbPolyline
 90
2
 70
0
 10
172.999550
 20
21.024800
 30
0.0
 10
172.999550
 20
23.974800
 30
0.0
  0
LWPOLYLINE
  5
210
100
AcDbEntity
  8
0
 62
4
100
AcDbPolyline
 90
2
 70
0
 10
172.999550
 20
21.024800
 30
0.0
 10
164.999600
 20
21.024800
 30
0.0
  0
LWPOLYLINE
  5
211
100
AcDbEntity
  8
0
 62
4
100
AcDbPolyline
 90
2
 70
0
 10
164.999600
 20
23.974800
 30
0.0
 10
164.999600
 20
21.024800
 30
0.0
  0
LWPOLYLINE
  5
212
100
AcDbEntity
  8
0
 62
4
100
AcDbPolyline
 90
2
 70
0
 10
150.999600
 20
23.974800
 30
0.0
 10
164.999600
 20
23.974800
 30
0.0
  0
LWPOLYLINE
  5
213
100
AcDbEntity
  8
0
 62
4
100
AcDbPolyline
 90
2
 70
0
 10
150.999600
 20
21.024800
 30
0.0
 10
150.999600
 20
23.974800
 30
0.0
  0
LWPOLYLINE
  5
214
100
AcDbEntity
  8
0
 62
4
100
AcDbPolyline
 90
2
 70
0
 10
150.999600
 20
21.024800
 30
0.0
 10
142.999600
 20
21.024800
 30
0.0
  0
LWPOLYLINE
  5
215
100
AcDbEntity
  8
0
 62
4
100
AcDbPolyline
 90
2
 70
0
 10
142.999600
 20
23.974800
 30
0.0
 10
142.999600
 20
21.024800
 30
0.0
  0
LWPOLYLINE
  5
216
100
AcDbEntity
  8
0
 62
4
100
AcDbPolyline
 90
2
 70
0
 10
129.499600
 20
23.974800
 30
0.0
 10
142.999600
 20
23.974800
 30
0.0
  0
LWPOLYLINE
  5
217
100
AcDbEntity
  8
0
 62
4
100
AcDbPolyline
 90
2
 70
0
 10
129.499600
 20
23.974800
 30
0.0
 10
129.499600
 20
38.974800
 30
0.0
  0
ENDSEC
  0
SECTION
  2
OBJECTS
  0
DICTIONARY
  5
C
330
0
100
AcDbDictionary
  3
ACAD_GROUP
350
D
  3
ACAD_MLINESTYLE
350
17
  0
DICTIONARY
  5
D
330
C
100
AcDbDictionary
  0
DICTIONARY
  5
1A
330
C
100
AcDbDictionary
  0
DICTIONARY
  5
17
330
C
100
AcDbDictionary
  3
STANDARD
350
18
  0
DICTIONARY
  5
19
330
C
100
AcDbDictionary
  0
ENDSEC
  0
EOF
