  0
SECTION
  2
HEADER
  9
$ACADVER
  1
AC1014
  9
$HANDSEED
  5
FFFF
  9
$MEASUREMENT
 70
     1
  0
ENDSEC
  0
SECTION
  2
TABLES
  0
TABLE
  2
VPORT
  5
8
330
0
100
AcDbSymbolTable
 70
     4
  0
VPORT
  5
2E
330
8
100
AcDbSymbolTableRecord
100
AcDbViewportTableRecord
  2
*ACTIVE
 70
     0
 10
0.0
 20
0.0
 11
1.0
 21
1.0
 12
210.0
 22
148.5
 13
0.0
 23
0.0
 14
10.0
 24
10.0
 15
10.0
 25
10.0
 16
0.0
 26
0.0
 36
1.0
 17
0.0
 27
0.0
 37
0.0
 40
341.0
 41
1.24
 42
50.0
 43
0.0
 44
0.0
 50
0.0
 51
0.0
 71
     0
 72
   100
 73
     1
 74
     3
 75
     0
 76
     0
 77
     0
 78
     0
  0
ENDTAB
  0
TABLE
  2
LTYPE
  5
5
330
0
100
AcDbSymbolTable
 70
     1
  0
LTYPE
  5
14
330
5
100
AcDbSymbolTableRecord
100
AcDbLinetypeTableRecord
  2
BYBLOCK
 70
     0
  3

 72
    65
 73
     0
 40
0.0
  0
LTYPE
  5
15
330
5
100
AcDbSymbolTableRecord
100
AcDbLinetypeTableRecord
  2
BYLAYER
 70
     0
  3

 72
    65
 73
     0
 40
0.0
  0
LTYPE
  5
16
330
5
100
AcDbSymbolTableRecord
100
AcDbLinetypeTableRecord
  2
CONTINUOUS
 70
     0
  3
Solid line
 72
    65
 73
     0
 40
0.0
  0
ENDTAB
  0
TABLE
  2
LAYER
  5
2
100
AcDbSymbolTable
 70
3
  0
LAYER
  5
50
100
AcDbSymbolTableRecord
100
AcDbLayerTableRecord
  2
0
 70
0
  6
CONTINUOUS
  0
LAYER
  5
51
100
AcDbSymbolTableRecord
100
AcDbLayerTableRecord
  2
Layer_1
 70
0
  6
CONTINUOUS
  0
LAYER
  5
52
100
AcDbSymbolTableRecord
100
AcDbLayerTableRecord
  2
Layer_2
 70
0
  6
CONTINUOUS
  0
ENDTAB
  0
TABLE
  2
STYLE
  5
3
330
0
100
AcDbSymbolTable
 70
     1
  0
STYLE
  5
11
330
3
100
AcDbSymbolTableRecord
100
AcDbTextStyleTableRecord
  2
STANDARD
 70
     0
 40
0.0
 41
1.0
 50
0.0
 71
     0
 42
2.5
  3
txt
  4

  0
ENDTAB
  0
TABLE
  2
VIEW
  5
6
330
0
100
AcDbSymbolTable
 70
     0
  0
ENDTAB
  0
TABLE
  2
UCS
  5
7
330
0
100
AcDbSymbolTable
 70
     0
  0
ENDTAB
  0
TABLE
  2
APPID
  5
9
330
0
100
AcDbSymbolTable
 70
     2
  0
APPID
  5
12
330
9
100
AcDbSymbolTableRecord
100
AcDbRegAppTableRecord
  2
ACAD
 70
     0
  0
ENDTAB
  0
TABLE
  2
DIMSTYLE
  5
A
330
0
100
AcDbSymbolTable
 70
     1
  0
DIMSTYLE
105
27
330
A
100
AcDbSymbolTableRecord
100
AcDbDimStyleTableRecord
  2
ISO-25
 70
     0
  3

  4

  5

  6

  7

 40
1.0
 41
2.5
 42
0.625
 43
3.75
 44
1.25
 45
0.0
 46
0.0
 47
0.0
 48
0.0
140
2.5
141
2.5
142
0.0
143
0.03937007874016
144
1.0
145
0.0
146
1.0
147
0.625
 71
     0
 72
     0
 73
     0
 74
     0
 75
     0
 76
     0
 77
     1
 78
     8
170
     0
171
     3
172
     1
173
     0
174
     0
175
     0
176
     0
177
     0
178
     0
270
     2
271
     2
272
     2
273
     2
274
     3
340
11
275
     0
280
     0
281
     0
282
     0
283
     0
284
     8
285
     0
286
     0
287
     3
288
     0
  0
ENDTAB
  0
TABLE
  2
BLOCK_RECORD
  5
1
330
0
100
AcDbSymbolTable
 70
     1
  0
BLOCK_RECORD
  5
1F
330
1
100
AcDbSymbolTableRecord
100
AcDbBlockTableRecord
  2
*MODEL_SPACE
  0
BLOCK_RECORD
  5
1B
330
1
100
AcDbSymbolTableRecord
100
AcDbBlockTableRecord
  2
*PAPER_SPACE
  0
ENDTAB
  0
ENDSEC
  0
SECTION
  2
BLOCKS
  0
BLOCK
  5
20
330
1F
100
AcDbEntity
  8
0
100
AcDbBlockBegin
  2
*MODEL_SPACE
 70
     0
 10
0.0
 20
0.0
 30
0.0
  3
*MODEL_SPACE
  1

  0
ENDBLK
  5
21
330
1F
100
AcDbEntity
  8
0
100
AcDbBlockEnd
  0
BLOCK
  5
1C
330
1B
100
AcDbEntity
 67
     1
  8
0
100
AcDbBlockBegin
  2
*PAPER_SPACE
  1

  0
ENDBLK
  5
1D
330
1B
100
AcDbEntity
 67
     1
  8
0
100
AcDbBlockEnd
  0
ENDSEC
  0
SECTION
  2
ENTITIES
  0
LWPOLYLINE
  5
100
100
AcDbEntity
  8
0
 62
7
100
AcDbPolyline
 90
12
 70
1
 10
271.228110
 20
24.771650
 30
0.0
 10
271.228110
 20
11.515650
 30
0.0
 10
274.183910
 20
11.515650
 30
0.0
 10
274.183910
 20
16.703250
 30
0.0
 10
276.273910
 20
16.703250
 30
0.0
 10
276.273910
 20
18.748450
 30
0.0
 10
274.183910
 20
18.748450
 30
0.0
 10
274.183910
 20
20.955950
 30
0.0
 10
279.332510
 20
20.955950
 30
0.0
 10
279.332510
 20
24.764650
 30
0.0
 10
271.228110
 20
24.772150
 30
0.0
 10
271.228110
 20
24.771650
 30
0.0
  0
LWPOLYLINE
  5
101
100
AcDbEntity
  8
0
 62
7
100
AcDbPolyline
 90
34
 70
1
 10
284.386000
 20
20.820800
 30
0.0
 10
282.666700
 20
19.834350
 30
0.0
 10
281.907450
 20
20.097830
 30
0.0
 10
281.183060
 20
21.949130
 30
0.0
 10
280.043560
 20
21.889250
 30
0.0
 10
279.523800
 20
19.974850
 30
0.0
 10
278.796370
 20
19.626500
 30
0.0
 10
276.982070
 20
20.420170
 30
0.0
 10
276.215750
 20
19.568610
 30
0.0
 10
277.202200
 20
17.849310
 30
0.0
 10
276.932630
 20
17.092290
 30
0.0
 10
275.081330
 20
16.367900
 30
0.0
 10
275.147297
 20
15.226200
 30
0.0
 10
277.061697
 20
14.706440
 30
0.0
 10
277.410047
 20
13.979010
 30
0.0
 10
276.610287
 20
12.166910
 30
0.0
 10
277.461847
 20
11.400590
 30
0.0
 10
279.181147
 20
12.387040
 30
0.0
 10
279.944257
 20
12.115250
 30
0.0
 10
280.662557
 20
10.266150
 30
0.0
 10
281.810357
 20
10.329900
 30
0.0
 10
282.324027
 20
12.246500
 30
0.0
 10
283.051457
 20
12.594850
 30
0.0
 10
284.869657
 20
11.792870
 30
0.0
 10
285.635977
 20
12.644430
 30
0.0
 10
284.649527
 20
14.363730
 30
0.0
 10
284.915227
 20
15.129060
 30
0.0
 10
286.764327
 20
15.847360
 30
0.0
 10
286.706667
 20
16.992960
 30
0.0
 10
284.790067
 20
17.506630
 30
0.0
 10
284.441717
 20
18.234060
 30
0.0
 10
285.237617
 20
20.054460
 30
0.0
 10
284.386057
 20
20.820780
 30
0.0
 10
284.386000
 20
20.820800
 30
0.0
  0
LWPOLYLINE
  5
102
100
AcDbEntity
  8
0
 62
7
100
AcDbPolyline
 90
34
 70
1
 10
281.810900
 20
18.001300
 30
0.0
 10
282.163850
 20
17.796520
 30
0.0
 10
282.469640
 20
17.519270
 30
0.0
 10
282.714450
 20
17.188400
 30
0.0
 10
282.890560
 20
16.820530
 30
0.0
 10
282.994100
 20
16.423970
 30
0.0
 10
283.011250
 20
16.017570
 30
0.0
 10
282.952550
 20
15.611270
 30
0.0
 10
282.818590
 20
15.225560
 30
0.0
 10
282.605490
 20
14.868750
 30
0.0
 10
282.336550
 20
14.566830
 30
0.0
 10
282.005680
 20
14.322020
 30
0.0
 10
281.637810
 20
14.145910
 30
0.0
 10
281.241250
 20
14.042370
 30
0.0
 10
280.832620
 20
14.019120
 30
0.0
 10
280.426320
 20
14.077820
 30
0.0
 10
280.040610
 20
14.211780
 30
0.0
 10
279.683800
 20
14.424880
 30
0.0
 10
279.384100
 20
14.699910
 30
0.0
 10
279.137070
 20
15.024690
 30
0.0
 10
278.960960
 20
15.392560
 30
0.0
 10
278.859640
 20
15.795200
 30
0.0
 10
278.836400
 20
16.203830
 30
0.0
 10
278.895090
 20
16.610130
 30
0.0
 10
279.029050
 20
16.995840
 30
0.0
 10
279.239920
 20
17.346560
 30
0.0
 10
279.511080
 20
17.654570
 30
0.0
 10
279.841950
 20
17.899380
 30
0.0
 10
280.209820
 20
18.075490
 30
0.0
 10
280.612460
 20
18.176810
 30
0.0
 10
281.018870
 20
18.193960
 30
0.0
 10
281.425170
 20
18.135270
 30
0.0
 10
281.810880
 20
18.001310
 30
0.0
 10
281.810900
 20
18.001300
 30
0.0
  0
LWPOLYLINE
  5
103
100
AcDbEntity
  8
Layer_1
 62
5
100
AcDbPolyline
 90
2
 70
0
 10
155.491890
 20
116.054054
 30
0.0
 10
158.441890
 20
116.054054
 30
0.0
  0
LWPOLYLINE
  5
104
100
AcDbEntity
  8
Layer_1
 62
5
100
AcDbPolyline
 90
2
 70
0
 10
155.491890
 20
131.054054
 30
0.0
 10
155.491890
 20
116.054054
 30
0.0
  0
LWPOLYLINE
  5
105
100
AcDbEntity
  8
Layer_1
 62
5
100
AcDbPolyline
 90
3
 70
0
 10
158.441890
 20
116.054054
 30
0.0
 10
158.441890
 20
131.054054
 30
0.0
 10
155.491890
 20
131.054054
 30
0.0
  0
LWPOLYLINE
  5
106
100
AcDbEntity
  8
Layer_1
 62
5
100
AcDbPolyline
 90
2
 70
0
 10
155.491890
 20
186.054054
 30
0.0
 10
155.491890
 20
171.054054
 30
0.0
  0
LWPOLYLINE
  5
107
100
AcDbEntity
  8
Layer_1
 62
5
100
AcDbPolyline
 90
2
 70
0
 10
158.441890
 20
186.054054
 30
0.0
 10
155.491890
 20
186.054054
 30
0.0
  0
LWPOLYLINE
  5
108
100
AcDbEntity
  8
Layer_1
 62
5
100
AcDbPolyline
 90
3
 70
0
 10
155.491890
 20
171.054054
 30
0.0
 10
158.441890
 20
171.054054
 30
0.0
 10
158.441890
 20
186.054054
 30
0.0
  0
LWPOLYLINE
  5
109
100
AcDbEntity
  8
Layer_1
 62
5
100
AcDbPolyline
 90
2
 70
0
 10
100.643240
 20
186.054054
 30
0.0
 10
97.693243
 20
186.054054
 30
0.0
  0
LWPOLYLINE
  5
10a
100
AcDbEntity
  8
Layer_1
 62
5
100
AcDbPolyline
 90
2
 70
0
 10
100.643240
 20
171.054054
 30
0.0
 10
100.643240
 20
186.054054
 30
0.0
  0
LWPOLYLINE
  5
10b
100
AcDbEntity
  8
Layer_1
 62
5
100
AcDbPolyline
 90
3
 70
0
 10
97.693243
 20
186.054054
 30
0.0
 10
97.693243
 20
171.054054
 30
0.0
 10
100.643240
 20
171.054054
 30
0.0
  0
LWPOLYLINE
  5
10c
100
AcDbEntity
  8
Layer_1
 62
5
100
AcDbPolyline
 90
2
 70
0
 10
100.643240
 20
116.054054
 30
0.0
 10
100.643240
 20
131.054054
 30
0.0
  0
LWPOLYLINE
  5
10d
100
AcDbEntity
  8
Layer_1
 62
5
100
AcDbPolyline
 90
2
 70
0
 10
97.693243
 20
116.054054
 30
0.0
 10
100.643240
 20
116.054054
 30
0.0
  0
LWPOLYLINE
  5
10e
100
AcDbEntity
  8
Layer_1
 62
5
100
AcDbPolyline
 90
3
 70
0
 10
100.643240
 20
131.054054
 30
0.0
 10
97.693243
 20
131.054054
 30
0.0
 10
97.693243
 20
116.054054
 30
0.0
  0
LWPOLYLINE
  5
10f
100
AcDbEntity
  8
Layer_2
 62
6
100
AcDbPolyline
 90
2
 70
0
 10
91.000000
 20
186.054054
 30
0.0
 10
91.000000
 20
171.054054
 30
0.0
  0
LWPOLYLINE
  5
110
100
AcDbEntity
  8
Layer_2
 62
6
100
AcDbPolyline
 90
2
 70
0
 10
91.000000
 20
186.054054
 30
0.0
 10
88.050000
 20
186.054054
 30
0.0
  0
LWPOLYLINE
  5
111
100
AcDbEntity
  8
Layer_2
 62
6
100
AcDbPolyline
 90
2
 70
0
 10
88.050000
 20
171.054054
 30
0.0
 10
91.000000
 20
171.054054
 30
0.0
  0
LWPOLYLINE
  5
112
100
AcDbEntity
  8
Layer_2
 62
6
100
AcDbPolyline
 90
2
 70
0
 10
88.050000
 20
131.054054
 30
0.0
 10
88.050000
 20
171.054054
 30
0.0
  0
LWPOLYLINE
  5
113
100
AcDbEntity
  8
Layer_2
 62
6
100
AcDbPolyline
 90
2
 70
0
 10
91.000000
 20
131.054054
 30
0.0
 10
88.050000
 20
131.054054
 30
0.0
  0
LWPOLYLINE
  5
114
100
AcDbEntity
  8
Layer_2
 62
6
100
AcDbPolyline
 90
2
 70
0
 10
91.000000
 20
131.054054
 30
0.0
 10
91.000000
 20
116.054054
 30
0.0
  0
LWPOLYLINE
  5
115
100
AcDbEntity
  8
Layer_2
 62
6
100
AcDbPolyline
 90
2
 70
0
 10
88.050000
 20
116.054054
 30
0.0
 10
91.000000
 20
116.054054
 30
0.0
  0
LWPOLYLINE
  5
116
100
AcDbEntity
  8
Layer_2
 62
6
100
AcDbPolyline
 90
2
 70
0
 10
88.050000
 20
102.504050
 30
0.0
 10
88.050000
 20
116.054054
 30
0.0
  0
LWPOLYLINE
  5
117
100
AcDbEntity
  8
Layer_2
 62
6
100
AcDbPolyline
 90
2
 70
0
 10
69.950000
 20
102.504050
 30
0.0
 10
88.050000
 20
102.504050
 30
0.0
  0
LWPOLYLINE
  5
118
100
AcDbEntity
  8
Layer_2
 62
6
100
AcDbPolyline
 90
2
 70
0
 10
69.950000
 20
99.554050
 30
0.0
 10
69.950000
 20
102.504050
 30
0.0
  0
LWPOLYLINE
  5
119
100
AcDbEntity
  8
Layer_2
 62
6
100
AcDbPolyline
 90
2
 70
0
 10
69.950000
 20
99.554050
 30
0.0
 10
30.050000
 20
99.554050
 30
0.0
  0
LWPOLYLINE
  5
11a
100
AcDbEntity
  8
Layer_2
 62
6
100
AcDbPolyline
 90
2
 70
0
 10
30.050000
 20
102.504050
 30
0.0
 10
30.050000
 20
99.554050
 30
0.0
  0
LWPOLYLINE
  5
11b
100
AcDbEntity
  8
Layer_2
 62
6
100
AcDbPolyline
 90
2
 70
0
 10
11.950000
 20
102.504050
 30
0.0
 10
30.050000
 20
102.504050
 30
0.0
  0
LWPOLYLINE
  5
11c
100
AcDbEntity
  8
Layer_2
 62
6
100
AcDbPolyline
 90
2
 70
0
 10
11.950000
 20
116.054054
 30
0.0
 10
11.950000
 20
102.504050
 30
0.0
  0
LWPOLYLINE
  5
11d
100
AcDbEntity
  8
Layer_2
 62
6
100
AcDbPolyline
 90
2
 70
0
 10
9.000000
 20
116.054054
 30
0.0
 10
11.950000
 20
116.054054
 30
0.0
  0
LWPOLYLINE
  5
11e
100
AcDbEntity
  8
Layer_2
 62
6
100
AcDbPolyline
 90
2
 70
0
 10
9.000000
 20
116.054054
 30
0.0
 10
9.000000
 20
131.054054
 30
0.0
  0
LWPOLYLINE
  5
11f
100
AcDbEntity
  8
Layer_2
 62
6
100
AcDbPolyline
 90
2
 70
0
 10
11.950000
 20
131.054054
 30
0.0
 10
9.000000
 20
131.054054
 30
0.0
  0
LWPOLYLINE
  5
120
100
AcDbEntity
  8
Layer_2
 62
6
100
AcDbPolyline
 90
2
 70
0
 10
11.950000
 20
171.054054
 30
0.0
 10
11.950000
 20
131.054054
 30
0.0
  0
LWPOLYLINE
  5
121
100
AcDbEntity
  8
Layer_2
 62
6
100
AcDbPolyline
 90
2
 70
0
 10
9.000000
 20
171.054054
 30
0.0
 10
11.950000
 20
171.054054
 30
0.0
  0
LWPOLYLINE
  5
122
100
AcDbEntity
  8
Layer_2
 62
6
100
AcDbPolyline
 90
2
 70
0
 10
9.000000
 20
171.054054
 30
0.0
 10
9.000000
 20
186.054054
 30
0.0
  0
LWPOLYLINE
  5
123
100
AcDbEntity
  8
Layer_2
 62
6
100
AcDbPolyline
 90
2
 70
0
 10
11.950000
 20
186.054054
 30
0.0
 10
9.000000
 20
186.054054
 30
0.0
  0
LWPOLYLINE
  5
124
100
AcDbEntity
  8
Layer_2
 62
6
100
AcDbPolyline
 90
2
 70
0
 10
11.950000
 20
202.554054
 30
0.0
 10
11.950000
 20
186.054054
 30
0.0
  0
LWPOLYLINE
  5
125
100
AcDbEntity
  8
Layer_2
 62
6
100
AcDbPolyline
 90
2
 70
0
 10
11.950000
 20
202.554054
 30
0.0
 10
14.950000
 20
202.554054
 30
0.0
  0
LWPOLYLINE
  5
126
100
AcDbEntity
  8
Layer_2
 62
6
100
AcDbPolyline
 90
2
 70
0
 10
14.950000
 20
194.554054
 30
0.0
 10
14.950000
 20
202.554054
 30
0.0
  0
LWPOLYLINE
  5
127
100
AcDbEntity
  8
Layer_2
 62
6
100
AcDbPolyline
 90
2
 70
0
 10
18.050000
 20
194.554054
 30
0.0
 10
14.950000
 20
194.554054
 30
0.0
  0
LWPOLYLINE
  5
128
100
AcDbEntity
  8
Layer_2
 62
6
100
AcDbPolyline
 90
2
 70
0
 10
18.050000
 20
202.554054
 30
0.0
 10
18.050000
 20
194.554054
 30
0.0
  0
LWPOLYLINE
  5
129
100
AcDbEntity
  8
Layer_2
 62
6
100
AcDbPolyline
 90
2
 70
0
 10
18.050000
 20
202.554054
 30
0.0
 10
81.950000
 20
202.554054
 30
0.0
  0
LWPOLYLINE
  5
12a
100
AcDbEntity
  8
Layer_2
 62
6
100
AcDbPolyline
 90
2
 70
0
 10
81.950000
 20
194.554054
 30
0.0
 10
81.950000
 20
202.554054
 30
0.0
  0
LWPOLYLINE
  5
12b
100
AcDbEntity
  8
Layer_2
 62
6
100
AcDbPolyline
 90
2
 70
0
 10
85.050000
 20
194.554054
 30
0.0
 10
81.950000
 20
194.554054
 30
0.0
  0
LWPOLYLINE
  5
12c
100
AcDbEntity
  8
Layer_2
 62
6
100
AcDbPolyline
 90
2
 70
0
 10
85.050000
 20
202.554054
 30
0.0
 10
85.050000
 20
194.554054
 30
0.0
  0
LWPOLYLINE
  5
12d
100
AcDbEntity
  8
Layer_2
 62
6
100
AcDbPolyline
 90
2
 70
0
 10
85.050000
 20
202.554054
 30
0.0
 10
88.050000
 20
202.554054
 30
0.0
  0
SPLINE
  5
12e
100
AcDbEntity
  8
Layer_2
 62
6
100
AcDbSpline
 70
8
 71
3
 72
8
 73
4
 74
0
 40
0
 40
0
 40
0
 40
0
 40
1
 40
1
 40
1
 40
1
 10
133.743240
 20
182.554054
 30
0.0
 10
133.743240
 20
176.800158
 30
0.0
 10
130.700443
 20
171.475263
 30
0.0
 10
125.743240
 20
168.554054
 30
0.0
  0
LWPOLYLINE
  5
12f
100
AcDbEntity
  8
Layer_2
 62
6
100
AcDbPolyline
 90
2
 70
0
 10
88.050000
 20
186.054054
 30
0.0
 10
88.050000
 20
202.554054
 30
0.0
  0
LWPOLYLINE
  5
130
100
AcDbEntity
  8
Layer_2
 62
6
100
AcDbPolyline
 90
2
 70
0
 10
133.743240
 20
199.604054
 30
0.0
 10
133.743240
 20
182.554054
 30
0.0
  0
SPLINE
  5
131
100
AcDbEntity
  8
Layer_2
 62
6
100
AcDbSpline
 70
8
 71
3
 72
8
 73
4
 74
0
 40
0
 40
0
 40
0
 40
0
 40
1
 40
1
 40
1
 40
1
 10
115.743240
 20
153.375484
 30
0.0
 10
115.743251
 20
159.129369
 30
0.0
 10
118.786046
 20
164.454251
 30
0.0
 10
123.743240
 20
167.375454
 30
0.0
  0
LWPOLYLINE
  5
132
100
AcDbEntity
  8
Layer_2
 62
6
100
AcDbPolyline
 90
2
 70
0
 10
125.743240
 20
168.554054
 30
0.0
 10
123.743240
 20
167.375454
 30
0.0
  0
LWPOLYLINE
  5
133
100
AcDbEntity
  8
Layer_2
 62
6
100
AcDbPolyline
 90
2
 70
0
 10
115.743240
 20
99.554050
 30
0.0
 10
115.743240
 20
153.375484
 30
0.0
  0
LWPOLYLINE
  5
134
100
AcDbEntity
  8
Layer_2
 62
6
100
AcDbPolyline
 90
2
 70
0
 10
97.693243
 20
99.554050
 30
0.0
 10
115.743240
 20
99.554050
 30
0.0
  0
LWPOLYLINE
  5
135
100
AcDbEntity
  8
Layer_2
 62
6
100
AcDbPolyline
 90
3
 70
0
 10
97.693243
 20
99.554050
 30
0.0
 10
97.693243
 20
107.554050
 30
0.0
 10
94.743243
 20
107.554050
 30
0.0
  0
LWPOLYLINE
  5
136
100
AcDbEntity
  8
Layer_2
 62
6
100
AcDbPolyline
 90
2
 70
0
 10
94.743243
 20
199.604054
 30
0.0
 10
94.743243
 20
107.554050
 30
0.0
  0
LWPOLYLINE
  5
137
100
AcDbEntity
  8
Layer_2
 62
6
100
AcDbPolyline
 90
3
 70
0
 10
94.743243
 20
199.604054
 30
0.0
 10
102.543240
 20
199.604054
 30
0.0
 10
102.543240
 20
202.554054
 30
0.0
  0
LWPOLYLINE
  5
138
100
AcDbEntity
  8
Layer_2
 62
6
100
AcDbPolyline
 90
2
 70
0
 10
110.343240
 20
202.554054
 30
0.0
 10
102.543240
 20
202.554054
 30
0.0
  0
LWPOLYLINE
  5
139
100
AcDbEntity
  8
Layer_2
 62
6
100
AcDbPolyline
 90
4
 70
0
 10
110.343240
 20
202.554054
 30
0.0
 10
110.343240
 20
199.604054
 30
0.0
 10
118.143240
 20
199.604054
 30
0.0
 10
118.143240
 20
202.554054
 30
0.0
  0
LWPOLYLINE
  5
13a
100
AcDbEntity
  8
Layer_2
 62
6
100
AcDbPolyline
 90
2
 70
0
 10
125.943240
 20
202.554054
 30
0.0
 10
118.143240
 20
202.554054
 30
0.0
  0
SPLINE
  5
13b
100
AcDbEntity
  8
Layer_2
 62
6
100
AcDbSpline
 70
8
 71
3
 72
8
 73
4
 74
0
 40
0
 40
0
 40
0
 40
0
 40
1
 40
1
 40
1
 40
1
 10
122.391890
 20
119.554054
 30
0.0
 10
122.391890
 20
125.307950
 30
0.0
 10
125.434687
 20
130.632845
 30
0.0
 10
130.391890
 20
133.554054
 30
0.0
  0
LWPOLYLINE
  5
13c
100
AcDbEntity
  8
Layer_2
 62
6
100
AcDbPolyline
 90
3
 70
0
 10
125.943240
 20
202.554054
 30
0.0
 10
125.943240
 20
199.604054
 30
0.0
 10
133.743240
 20
199.604054
 30
0.0
  0
LWPOLYLINE
  5
13d
100
AcDbEntity
  8
Layer_2
 62
6
100
AcDbPolyline
 90
2
 70
0
 10
122.391890
 20
102.504050
 30
0.0
 10
122.391890
 20
119.554054
 30
0.0
  0
SPLINE
  5
13e
100
AcDbEntity
  8
Layer_2
 62
6
100
AcDbSpline
 70
8
 71
3
 72
8
 73
4
 74
0
 40
0
 40
0
 40
0
 40
0
 40
1
 40
1
 40
1
 40
1
 10
140.391890
 20
148.732624
 30
0.0
 10
140.391879
 20
142.978739
 30
0.0
 10
137.349084
 20
137.653857
 30
0.0
 10
132.391890
 20
134.732654
 30
0.0
  0
LWPOLYLINE
  5
13f
100
AcDbEntity
  8
Layer_2
 62
6
100
AcDbPolyline
 90
2
 70
0
 10
130.391890
 20
133.554054
 30
0.0
 10
132.391890
 20
134.732654
 30
0.0
  0
LWPOLYLINE
  5
140
100
AcDbEntity
  8
Layer_2
 62
6
100
AcDbPolyline
 90
2
 70
0
 10
140.391890
 20
202.554054
 30
0.0
 10
140.391890
 20
148.732624
 30
0.0
  0
LWPOLYLINE
  5
141
100
AcDbEntity
  8
Layer_2
 62
6
100
AcDbPolyline
 90
2
 70
0
 10
158.441890
 20
202.554054
 30
0.0
 10
140.391890
 20
202.554054
 30
0.0
  0
LWPOLYLINE
  5
142
100
AcDbEntity
  8
Layer_2
 62
6
100
AcDbPolyline
 90
3
 70
0
 10
158.441890
 20
202.554054
 30
0.0
 10
158.441890
 20
194.554054
 30
0.0
 10
161.391890
 20
194.554054
 30
0.0
  0
LWPOLYLINE
  5
143
100
AcDbEntity
  8
Layer_2
 62
6
100
AcDbPolyline
 90
2
 70
0
 10
161.391890
 20
102.504050
 30
0.0
 10
161.391890
 20
194.554054
 30
0.0
  0
LWPOLYLINE
  5
144
100
AcDbEntity
  8
Layer_2
 62
6
100
AcDbPolyline
 90
3
 70
0
 10
161.391890
 20
102.504050
 30
0.0
 10
153.591890
 20
102.504050
 30
0.0
 10
153.591890
 20
99.554050
 30
0.0
  0
LWPOLYLINE
  5
145
100
AcDbEntity
  8
Layer_2
 62
6
100
AcDbPolyline
 90
2
 70
0
 10
145.791890
 20
99.554050
 30
0.0
 10
153.591890
 20
99.554050
 30
0.0
  0
LWPOLYLINE
  5
146
100
AcDbEntity
  8
Layer_2
 62
6
100
AcDbPolyline
 90
4
 70
0
 10
145.791890
 20
99.554050
 30
0.0
 10
145.791890
 20
102.504050
 30
0.0
 10
137.991890
 20
102.504050
 30
0.0
 10
137.991890
 20
99.554050
 30
0.0
  0
LWPOLYLINE
  5
147
100
AcDbEntity
  8
Layer_2
 62
6
100
AcDbPolyline
 90
2
 70
0
 10
130.191890
 20
99.554050
 30
0.0
 10
137.991890
 20
99.554050
 30
0.0
  0
LWPOLYLINE
  5
148
100
AcDbEntity
  8
Layer_2
 62
6
100
AcDbPolyline
 90
3
 70
0
 10
130.191890
 20
99.554050
 30
0.0
 10
130.191890
 20
102.504050
 30
0.0
 10
122.391890
 20
102.504050
 30
0.0
  0
ENDSEC
  0
SECTION
  2
OBJECTS
  0
DICTIONARY
  5
C
330
0
100
AcDbDictionary
  3
ACAD_GROUP
350
D
  3
ACAD_MLINESTYLE
350
17
  0
DICTIONARY
  5
D
330
C
100
AcDbDictionary
  0
DICTIONARY
  5
1A
330
C
100
AcDbDictionary
  0
DICTIONARY
  5
17
330
C
100
AcDbDictionary
  3
STANDARD
350
18
  0
DICTIONARY
  5
19
330
C
100
AcDbDictionary
  0
ENDSEC
  0
EOF
