<?xml version="1.0" encoding="UTF-8"?>

<svg xmlns="http://www.w3.org/2000/svg" version="1.1"
	width="297mm"
	height="210mm"
	viewBox="0 0 297 210">
	<!-- Working space 0 0 297 210 -->
	<defs>
		<radialGradient
			id="radialGradient3661"
			gradientUnits="userSpaceOnUse"
			cy="29.149"
			cx="282.65"
			gradientTransform="matrix(.14777 .23089 -.24680 .15795 -26.318 -62.617)"
			r="19.571">
				<stop stop-color="#71b2f8" offset="0"/>
				<stop stop-color="#002795" offset="1"/>
		</radialGradient>
		<radialGradient
			id="radialGradient3817"
			gradientUnits="userSpaceOnUse"
			cy="33.9"
			cx="270.58"
			gradientTransform="matrix(.26631 .065024 -.17931 .73438 -60.668 -36.938)"
			r="19.571">
				<stop stop-color="#ff6d0f" offset="0"/>
				<stop stop-color="#ff1000" offset="1"/>
		</radialGradient>
	</defs>
	<!-- Set display:none to hide FreeCAD Logo -->
	<g
		style="display:inline"
		id="freecad-logo"
		transform="translate(271, 185) scale(1)"
		fill-rule="evenodd"
		stroke-width=".45621">
		<path d="m0.22811 0.22835v13.256h2.9558v-5.1876h2.09v-2.0452h-2.09v-2.2075h5.1486v-3.8087l-8.1044-0.0075z"
			stroke="#370700"
			fill="url(#radialGradient3817)"/>
		<path d="m13.386 4.1792-1.7193 0.98645-0.75925-0.26348-0.72439-1.8513-1.1395 0.05988-0.51976 1.9144-0.72743 0.34835-1.8143-0.79367-0.76632 0.85156 0.98645 1.7193-0.26957 0.75702-1.8513 0.72439 0.065967 1.1417 1.9144 0.51976 0.34835 0.72743-0.79976 1.8121 0.85156 0.76632 1.7193-0.98645 0.76311 0.27179 0.7183 1.8491 1.1478-0.06375 0.51367-1.9166 0.72743-0.34835 1.8182 0.80198 0.76632-0.85156-0.98645-1.7193 0.2657-0.76533 1.8491-0.7183-0.05766-1.1456-1.9166-0.51367-0.34835-0.72743 0.7959-1.8204-0.85156-0.76632zm-2.5751 2.8195 0.35295 0.20478 0.30579 0.27725 0.24481 0.33087 0.17611 0.36787 0.10354 0.39656 0.01715 0.4064-0.0587 0.4063-0.13396 0.38571-0.2131 0.35681-0.26894 0.30192-0.33087 0.24481-0.36787 0.17611-0.39656 0.10354-0.40863 0.02325-0.4063-0.0587-0.38571-0.13396-0.35681-0.2131-0.2997-0.27503-0.24703-0.32478-0.17611-0.36787-0.10132-0.40264-0.02324-0.40863 0.05869-0.4063 0.13396-0.38571 0.21087-0.35072 0.27116-0.30801 0.33087-0.24481 0.36787-0.17611 0.40264-0.10132 0.40641-0.01715 0.4063 0.05869 0.38571 0.13396z" 
		stroke="#000137"
		fill="url(#radialGradient3661)"/>
	</g>
<g id="Ortho_0_0"
   transform="rotate(180,240,22) translate(240,22) scale(1,1)"
  >
<g   stroke="rgb(0, 0, 0)"
   stroke-width="0.35"
   stroke-linecap="butt"
   stroke-linejoin="miter"
   fill="none"
   transform="scale(1,-1)"
  >
<path id= "1" d=" M 54 18 L 45 18 " />
<path id= "2" d=" M 54 9 L 54 18 " />
<path id= "3" d=" M 54 9 L 51 9 " />
<path id= "4" d=" M 51 9 L 51 -9 " />
<path id= "5" d=" M 51 -9 L 54 -9 " />
<path id= "6" d=" M 54 -18 L 54 -9 " />
<path id= "7" d=" M 45 -18 L 54 -18 " />
<path id= "8" d=" M 45 -18 L 45 -15 " />
<path id= "9" d=" M 45 -15 L -45 -15 " />
<path id= "10" d=" M -45 -15 L -45 -18 " />
<path id= "11" d=" M -54 -18 L -45 -18 " />
<path id= "12" d=" M -54 -9 L -54 -18 " />
<path id= "13" d=" M -54 -9 L -51 -9 " />
<path id= "14" d=" M -51 -9 L -51 45 " />
<path id= "15" d=" M -51 45 L -54 45 " />
<path id= "16" d=" M -54 54 L -54 45 " />
<path id= "17" d=" M -45 54 L -54 54 " />
<path id= "18" d=" M -45 54 L -45 51 " />
<path id= "19" d=" M -45 51 L -27 51 " />
<path id= "20" d=" M -27 51 L -27 54 " />
<path id= "21" d=" M -18 54 L -27 54 " />
<path id= "22" d=" M -18 45 L -18 54 " />
<path id= "23" d=" M -18 45 L -21 45 " />
<path id= "24" d=" M -21 45 L -21 27 " />
<path id= "25" d=" M -21 27 L -18 27 " />
<path id= "26" d=" M -18 18 L -18 27 " />
<path id= "27" d=" M -9 18 L -18 18 " />
<path id= "28" d=" M -9 18 L -9 15 " />
<path id= "29" d=" M -9 15 L 45 15 " />
<path id= "30" d=" M 45 15 L 45 18 " />
</g>
</g>



<g id="Ortho_0_001"
   transform="rotate(90,112.363,13) translate(112.363,13) scale(1,1)"
  >
<g   stroke="rgb(0, 0, 0)"
   stroke-width="0.35"
   stroke-linecap="butt"
   stroke-linejoin="miter"
   fill="none"
   transform="scale(1,-1)"
  >
<path id= "1" d=" M 22 33.6368 L 22 38.6368 " />
<path id= "2" d=" M 22 33.6368 L 19.05 33.6368 " />
<path id= "3" d=" M 19.05 38.6368 L 22 38.6368 " />
<path id= "4" d=" M 19.05 54.1368 L 19.05 38.6368 " />
<path id= "5" d=" M 19.05 54.1368 L 2.95 54.1368 " />
<path id= "6" d=" M 2.95 45.1368 L 2.95 54.1368 " />
<path id= "7" d=" M 0 45.1368 L 2.95 45.1368 " />
<path id= "8" d=" M 4.44089e-015 54.1368 L 4.44089e-015 45.1368 " />
<path id= "9" d=" M 0 54.1368 L -8 54.1368 " />
<path id= "10" d=" M -8 54.1368 L -8 18.1368 " />
<path id= "11" d=" M -8 18.1368 L 1.77636e-015 18.1368 " />
<path id= "12" d=" M 4.44089e-015 27.1368 L 4.44089e-015 18.1368 " />
<path id= "13" d=" M 2.95 27.1368 L -1.77636e-015 27.1368 " />
<path id= "14" d=" M 2.95 18.1368 L 2.95 27.1368 " />
<path id= "15" d=" M 2.95 18.1368 L 19.05 18.1368 " />
<path id= "16" d=" M 19.05 33.6368 L 19.05 18.1368 " />
</g>
</g>



<g id="Ortho_0_002"
   transform="rotate(90,190,67.05) translate(190,67.05) scale(1,1)"
  >
<g   stroke="rgb(0, 0, 0)"
   stroke-width="0.35"
   stroke-linecap="butt"
   stroke-linejoin="miter"
   fill="none"
   transform="scale(1,-1)"
  >
<path id= "1" d=" M -22.05 -39 L -22.05 -34 " />
<path id= "2" d=" M -22.05 -39 L -19.1 -39 " />
<path id= "3" d=" M -19.1 -34 L -22.05 -34 " />
<path id= "4" d=" M -19.1 34 L -19.1 -34 " />
<path id= "5" d=" M -22.05 34 L -19.1 34 " />
<path id= "6" d=" M -22.05 34 L -22.05 39 " />
<path id= "7" d=" M -19.1 39 L -22.05 39 " />
<path id= "8" d=" M -19.1 54 L -19.1 39 " />
<path id= "9" d=" M -19.1 54 L -3 54 " />
<path id= "10" d=" M -3 45 L -3 54 " />
<path id= "11" d=" M -0.05 45 L -3 45 " />
<path id= "12" d=" M -0.05 54 L -0.05 45 " />
<path id= "13" d=" M -0.05 54 L 7.95 54 " />
<path id= "14" d=" M 7.95 54 L 7.95 -54 " />
<path id= "15" d=" M 7.95 -54 L -0.05 -54 " />
<path id= "16" d=" M -0.05 -45 L -0.05 -54 " />
<path id= "17" d=" M -3 -45 L -0.05 -45 " />
<path id= "18" d=" M -3 -54 L -3 -45 " />
<path id= "19" d=" M -3 -54 L -19.1 -54 " />
<path id= "20" d=" M -19.1 -39 L -19.1 -54 " />
</g>
</g>



<g id="Ortho_0_003"
   transform="rotate(90,268,88) translate(268,88) scale(1,1)"
  >
<g   stroke="rgb(0, 0, 0)"
   stroke-width="0.35"
   stroke-linecap="butt"
   stroke-linejoin="miter"
   fill="none"
   transform="scale(1,-1)"
  >
<path id= "1" d=" M 22 -44 L 22 -39 " />
<path id= "2" d=" M 22 -44 L 19.05 -44 " />
<path id= "3" d=" M 19.05 -39 L 22 -39 " />
<path id= "4" d=" M 19.05 3 L 19.05 -39 " />
<path id= "5" d=" M 22 3 L 19.05 3 " />
<path id= "6" d=" M 22 3 L 22 8 " />
<path id= "7" d=" M 19.05 8 L 22 8 " />
<path id= "8" d=" M 19.05 18 L 19.05 8 " />
<path id= "9" d=" M 19.05 18 L 2.95 18 " />
<path id= "10" d=" M 2.95 9 L 2.95 18 " />
<path id= "11" d=" M 0 9 L 2.95 9 " />
<path id= "12" d=" M 4.44089e-015 18 L 4.44089e-015 9 " />
<path id= "13" d=" M 0 18 L -8 18 " />
<path id= "14" d=" M -8 18 L -8 -54 " />
<path id= "15" d=" M -8 -54 L 1.77636e-015 -54 " />
<path id= "16" d=" M 4.44089e-015 -45 L 4.44089e-015 -54 " />
<path id= "17" d=" M 2.95 -45 L -1.77636e-015 -45 " />
<path id= "18" d=" M 2.95 -54 L 2.95 -45 " />
<path id= "19" d=" M 2.95 -54 L 19.05 -54 " />
<path id= "20" d=" M 19.05 -44 L 19.05 -54 " />
</g>
</g>



<g id="Ortho_0_004"
   transform="rotate(-90,190,88) translate(190,88) scale(1,1)"
  >
<g   stroke="rgb(0, 0, 0)"
   stroke-width="0.35"
   stroke-linecap="butt"
   stroke-linejoin="miter"
   fill="none"
   transform="scale(1,-1)"
  >
<path id= "1" d=" M -22 2.5 L -22 -2.5 " />
<path id= "2" d=" M -22 2.5 L -19.05 2.5 " />
<path id= "3" d=" M -19.05 -2.5 L -22 -2.5 " />
<path id= "4" d=" M -19.05 -15 L -19.05 -2.5 " />
<path id= "5" d=" M -2.95 -15 L -19.05 -15 " />
<path id= "6" d=" M -2.95 -9 L -2.95 -15 " />
<path id= "7" d=" M 1.77636e-015 -9 L -2.95 -9 " />
<path id= "8" d=" M 8.32667e-016 -15 L 4.996e-016 -9 " />
<path id= "9" d=" M 8 -15 L 8.88178e-016 -15 " />
<path id= "10" d=" M 8 -15 L 8 15 " />
<path id= "11" d=" M 0 15 L 8 15 " />
<path id= "12" d=" M -6.38378e-016 9 L -9.71445e-016 15 " />
<path id= "13" d=" M -2.95 9 L -1.77636e-015 9 " />
<path id= "14" d=" M -2.95 15 L -2.95 9 " />
<path id= "15" d=" M -19.05 15 L -2.95 15 " />
<path id= "16" d=" M -19.05 2.5 L -19.05 15 " />
</g>
</g>



<g id="Ortho_0_005"
   transform="rotate(-90,117,88) translate(117,88) scale(1,1)"
  >
<g   stroke="rgb(0, 0, 0)"
   stroke-width="0.35"
   stroke-linecap="butt"
   stroke-linejoin="miter"
   fill="none"
   transform="scale(1,-1)"
  >
<path id= "1" d=" M -22 5 L -22 0 " />
<path id= "2" d=" M -22 5 L -19.05 5 " />
<path id= "3" d=" M -19.05 -8.18789e-017 L -22 8.18789e-017 " />
<path id= "4" d=" M -19.05 -36 L -19.05 0 " />
<path id= "5" d=" M -22 -36 L -19.05 -36 " />
<path id= "6" d=" M -22 -36 L -22 -41 " />
<path id= "7" d=" M -19.05 -41 L -22 -41 " />
<path id= "8" d=" M -19.05 -51 L -19.05 -41 " />
<path id= "9" d=" M -2.95 -51 L -19.05 -51 " />
<path id= "10" d=" M -2.95 -45 L -2.95 -51 " />
<path id= "11" d=" M 3.55271e-015 -45 L -2.95 -45 " />
<path id= "12" d=" M 1.83187e-015 -51 L 1.4988e-015 -45 " />
<path id= "13" d=" M 8 -51 L 1.77636e-015 -51 " />
<path id= "14" d=" M 8 -51 L 8 15 " />
<path id= "15" d=" M 0 15 L 8 15 " />
<path id= "16" d=" M -1.52656e-015 9 L -1.85962e-015 15 " />
<path id= "17" d=" M -2.95 9 L -1.77636e-015 9 " />
<path id= "18" d=" M -2.95 15 L -2.95 9 " />
<path id= "19" d=" M -19.05 15 L -2.95 15 " />
<path id= "20" d=" M -19.05 5 L -19.05 15 " />
</g>
</g>



<g id="Ortho_0_006"
   transform="rotate(-90,67,62.05) translate(67,62.05) scale(1,1)"
  >
<g   stroke="rgb(0, 0, 0)"
   stroke-width="0.35"
   stroke-linecap="butt"
   stroke-linejoin="miter"
   fill="none"
   transform="scale(1,-1)"
  >
<path id= "1" d=" M 22.05 -30.5 L 22.05 -35.5 " />
<path id= "2" d=" M 19.1 -35.5 L 22.05 -35.5 " />
<path id= "3" d=" M 19.1 -51 L 19.1 -35.5 " />
<path id= "4" d=" M 3 -51 L 19.1 -51 " />
<path id= "5" d=" M 3 -45 L 3 -51 " />
<path id= "6" d=" M 0.05 -45 L 3 -45 " />
<path id= "7" d=" M 0.05 -51 L 0.05 -45 " />
<path id= "8" d=" M -7.95 -51 L 0.05 -51 " />
<path id= "9" d=" M -7.95 -51 L -7.95 -15 " />
<path id= "10" d=" M -7.95 -15 L 0.05 -15 " />
<path id= "11" d=" M 0.05 -27 L 0.05 -15 " />
<path id= "12" d=" M 3 -27 L 0.05 -27 " />
<path id= "13" d=" M 3 -15 L 3 -27 " />
<path id= "14" d=" M 3 -15 L 19.1 -15 " />
<path id= "15" d=" M 19.1 -30.5 L 19.1 -15 " />
<path id= "16" d=" M 22.05 -30.5 L 19.1 -30.5 " />
</g>
</g>



<g id="Ortho_0_007"
   transform="rotate(0,160,178) translate(160,178) scale(1,1)"
  >
<g   stroke="rgb(0, 0, 0)"
   stroke-width="0.35"
   stroke-linecap="butt"
   stroke-linejoin="miter"
   fill="none"
   transform="scale(1,-1)"
  >
<path id= "1" d=" M -56 20 L 16 20 " />
<path id= "2" d=" M -56 -20 L -56 20 " />
<path id= "3" d=" M 16 20 L 16 56 " />
<path id= "4" d=" M 56 -20 L -56 -20 " />
<path id= "5" d=" M 16 56 L 56 56 " />
<path id= "6" d=" M 56 56 L 56 -20 " />
<path id= "7" d=" M 38.5 54 L 38.5 51.05 " />
<path id= "8" d=" M 38.5 51.05 L 33.5 51.05 " />
<path id= "9" d=" M 33.5 51.05 L 33.5 54 " />
<path id= "10" d=" M 33.5 54 L 38.5 54 " />
<path id= "11" d=" M 3 18 L 8 18 " />
<path id= "12" d=" M 8 18 L 8 15.05 " />
<path id= "13" d=" M 8 15.05 L 3 15.05 " />
<path id= "14" d=" M 3 15.05 L 3 18 " />
<path id= "15" d=" M 20.95 30.5 L 18 30.5 " />
<path id= "16" d=" M 18 30.5 L 18 35.5 " />
<path id= "17" d=" M 18 35.5 L 20.95 35.5 " />
<path id= "18" d=" M 20.95 35.5 L 20.95 30.5 " />
<path id= "19" d=" M 34 -18 L 34 -15.05 " />
<path id= "20" d=" M 34 -15.05 L 39 -15.05 " />
<path id= "21" d=" M 39 -15.05 L 39 -18 " />
<path id= "22" d=" M 39 -18 L 34 -18 " />
<path id= "23" d=" M 51.05 7.10543e-015 L 54 7.10543e-015 " />
<path id= "24" d=" M 54 7.10543e-015 L 54 -5 " />
<path id= "25" d=" M 54 -5 L 51.05 -5 " />
<path id= "26" d=" M 51.05 -5 L 51.05 7.10543e-015 " />
<path id= "27" d=" M 54 41 L 54 36 " />
<path id= "28" d=" M 54 36 L 51.05 36 " />
<path id= "29" d=" M 51.05 36 L 51.05 41 " />
<path id= "30" d=" M 51.05 41 L 54 41 " />
<path id= "31" d=" M -39 -18 L -39 -15.05 " />
<path id= "32" d=" M -39 -15.05 L -34 -15.05 " />
<path id= "33" d=" M -34 -15.05 L -34 -18 " />
<path id= "34" d=" M -34 -18 L -39 -18 " />
<path id= "35" d=" M -51.05 -2.5 L -54 -2.5 " />
<path id= "36" d=" M -54 -2.5 L -54 2.5 " />
<path id= "37" d=" M -54 2.5 L -51.05 2.5 " />
<path id= "38" d=" M -51.05 2.5 L -51.05 -2.5 " />
<path id= "39" d=" M -39 15.05 L -44 15.05 " />
<path id= "40" d=" M -44 15.05 L -44 18 " />
<path id= "41" d=" M -44 18 L -39 18 " />
<path id= "42" d=" M -39 18 L -39 15.05 " />
<path id= "43" d=" M -50 14 L 22 14 " />
<path id= "44" d=" M -50 -14 L -50 14 " />
<path id= "45" d=" M 22 14 L 22 50 " />
<path id= "46" d=" M 50 -14 L -50 -14 " />
<path id= "47" d=" M 22 50 L 50 50 " />
<path id= "48" d=" M 50 50 L 50 -14 " />
</g>
</g>



</svg>

