  0
SECTION
  2
HEADER
  9
$ACADVER
  1
AC1014
  9
$HANDSEED
  5
FFFF
  9
$MEASUREMENT
 70
     1
  0
ENDSEC
  0
SECTION
  2
TABLES
  0
TABLE
  2
VPORT
  5
8
330
0
100
AcDbSymbolTable
 70
     4
  0
VPORT
  5
2E
330
8
100
AcDbSymbolTableRecord
100
AcDbViewportTableRecord
  2
*ACTIVE
 70
     0
 10
0.0
 20
0.0
 11
1.0
 21
1.0
 12
210.0
 22
148.5
 13
0.0
 23
0.0
 14
10.0
 24
10.0
 15
10.0
 25
10.0
 16
0.0
 26
0.0
 36
1.0
 17
0.0
 27
0.0
 37
0.0
 40
341.0
 41
1.24
 42
50.0
 43
0.0
 44
0.0
 50
0.0
 51
0.0
 71
     0
 72
   100
 73
     1
 74
     3
 75
     0
 76
     0
 77
     0
 78
     0
  0
ENDTAB
  0
TABLE
  2
LTYPE
  5
5
330
0
100
AcDbSymbolTable
 70
     1
  0
LTYPE
  5
14
330
5
100
AcDbSymbolTableRecord
100
AcDbLinetypeTableRecord
  2
BYBLOCK
 70
     0
  3

 72
    65
 73
     0
 40
0.0
  0
LTYPE
  5
15
330
5
100
AcDbSymbolTableRecord
100
AcDbLinetypeTableRecord
  2
BYLAYER
 70
     0
  3

 72
    65
 73
     0
 40
0.0
  0
LTYPE
  5
16
330
5
100
AcDbSymbolTableRecord
100
AcDbLinetypeTableRecord
  2
CONTINUOUS
 70
     0
  3
Solid line
 72
    65
 73
     0
 40
0.0
  0
ENDTAB
  0
TABLE
  2
LAYER
  5
2
100
AcDbSymbolTable
 70
1
  0
LAYER
  5
50
100
AcDbSymbolTableRecord
100
AcDbLayerTableRecord
  2
0
 70
0
  6
CONTINUOUS
  0
ENDTAB
  0
TABLE
  2
STYLE
  5
3
330
0
100
AcDbSymbolTable
 70
     1
  0
STYLE
  5
11
330
3
100
AcDbSymbolTableRecord
100
AcDbTextStyleTableRecord
  2
STANDARD
 70
     0
 40
0.0
 41
1.0
 50
0.0
 71
     0
 42
2.5
  3
txt
  4

  0
ENDTAB
  0
TABLE
  2
VIEW
  5
6
330
0
100
AcDbSymbolTable
 70
     0
  0
ENDTAB
  0
TABLE
  2
UCS
  5
7
330
0
100
AcDbSymbolTable
 70
     0
  0
ENDTAB
  0
TABLE
  2
APPID
  5
9
330
0
100
AcDbSymbolTable
 70
     2
  0
APPID
  5
12
330
9
100
AcDbSymbolTableRecord
100
AcDbRegAppTableRecord
  2
ACAD
 70
     0
  0
ENDTAB
  0
TABLE
  2
DIMSTYLE
  5
A
330
0
100
AcDbSymbolTable
 70
     1
  0
DIMSTYLE
105
27
330
A
100
AcDbSymbolTableRecord
100
AcDbDimStyleTableRecord
  2
ISO-25
 70
     0
  3

  4

  5

  6

  7

 40
1.0
 41
2.5
 42
0.625
 43
3.75
 44
1.25
 45
0.0
 46
0.0
 47
0.0
 48
0.0
140
2.5
141
2.5
142
0.0
143
0.03937007874016
144
1.0
145
0.0
146
1.0
147
0.625
 71
     0
 72
     0
 73
     0
 74
     0
 75
     0
 76
     0
 77
     1
 78
     8
170
     0
171
     3
172
     1
173
     0
174
     0
175
     0
176
     0
177
     0
178
     0
270
     2
271
     2
272
     2
273
     2
274
     3
340
11
275
     0
280
     0
281
     0
282
     0
283
     0
284
     8
285
     0
286
     0
287
     3
288
     0
  0
ENDTAB
  0
TABLE
  2
BLOCK_RECORD
  5
1
330
0
100
AcDbSymbolTable
 70
     1
  0
BLOCK_RECORD
  5
1F
330
1
100
AcDbSymbolTableRecord
100
AcDbBlockTableRecord
  2
*MODEL_SPACE
  0
BLOCK_RECORD
  5
1B
330
1
100
AcDbSymbolTableRecord
100
AcDbBlockTableRecord
  2
*PAPER_SPACE
  0
ENDTAB
  0
ENDSEC
  0
SECTION
  2
BLOCKS
  0
BLOCK
  5
20
330
1F
100
AcDbEntity
  8
0
100
AcDbBlockBegin
  2
*MODEL_SPACE
 70
     0
 10
0.0
 20
0.0
 30
0.0
  3
*MODEL_SPACE
  1

  0
ENDBLK
  5
21
330
1F
100
AcDbEntity
  8
0
100
AcDbBlockEnd
  0
BLOCK
  5
1C
330
1B
100
AcDbEntity
 67
     1
  8
0
100
AcDbBlockBegin
  2
*PAPER_SPACE
  1

  0
ENDBLK
  5
1D
330
1B
100
AcDbEntity
 67
     1
  8
0
100
AcDbBlockEnd
  0
ENDSEC
  0
SECTION
  2
ENTITIES
  0
LWPOLYLINE
  5
100
100
AcDbEntity
  8
0
 62
6
100
AcDbPolyline
 90
2
 70
0
 10
186.000000
 20
170.000000
 30
0.0
 10
195.000000
 20
170.000000
 30
0.0
  0
LWPOLYLINE
  5
101
100
AcDbEntity
  8
0
 62
6
100
AcDbPolyline
 90
2
 70
0
 10
186.000000
 20
179.000000
 30
0.0
 10
186.000000
 20
170.000000
 30
0.0
  0
LWPOLYLINE
  5
102
100
AcDbEntity
  8
0
 62
6
100
AcDbPolyline
 90
4
 70
0
 10
186.000000
 20
179.000000
 30
0.0
 10
189.000000
 20
179.000000
 30
0.0
 10
189.000000
 20
197.000000
 30
0.0
 10
186.000000
 20
197.000000
 30
0.0
  0
LWPOLYLINE
  5
103
100
AcDbEntity
  8
0
 62
6
100
AcDbPolyline
 90
2
 70
0
 10
186.000000
 20
206.000000
 30
0.0
 10
186.000000
 20
197.000000
 30
0.0
  0
LWPOLYLINE
  5
104
100
AcDbEntity
  8
0
 62
6
100
AcDbPolyline
 90
2
 70
0
 10
195.000000
 20
206.000000
 30
0.0
 10
186.000000
 20
206.000000
 30
0.0
  0
LWPOLYLINE
  5
105
100
AcDbEntity
  8
0
 62
6
100
AcDbPolyline
 90
4
 70
0
 10
195.000000
 20
206.000000
 30
0.0
 10
195.000000
 20
203.000000
 30
0.0
 10
285.000000
 20
203.000000
 30
0.0
 10
285.000000
 20
206.000000
 30
0.0
  0
LWPOLYLINE
  5
106
100
AcDbEntity
  8
0
 62
6
100
AcDbPolyline
 90
2
 70
0
 10
294.000000
 20
206.000000
 30
0.0
 10
285.000000
 20
206.000000
 30
0.0
  0
LWPOLYLINE
  5
107
100
AcDbEntity
  8
0
 62
6
100
AcDbPolyline
 90
2
 70
0
 10
294.000000
 20
197.000000
 30
0.0
 10
294.000000
 20
206.000000
 30
0.0
  0
LWPOLYLINE
  5
108
100
AcDbEntity
  8
0
 62
6
100
AcDbPolyline
 90
4
 70
0
 10
294.000000
 20
197.000000
 30
0.0
 10
291.000000
 20
197.000000
 30
0.0
 10
291.000000
 20
143.000000
 30
0.0
 10
294.000000
 20
143.000000
 30
0.0
  0
LWPOLYLINE
  5
109
100
AcDbEntity
  8
0
 62
6
100
AcDbPolyline
 90
2
 70
0
 10
294.000000
 20
134.000000
 30
0.0
 10
294.000000
 20
143.000000
 30
0.0
  0
LWPOLYLINE
  5
10a
100
AcDbEntity
  8
0
 62
6
100
AcDbPolyline
 90
2
 70
0
 10
285.000000
 20
134.000000
 30
0.0
 10
294.000000
 20
134.000000
 30
0.0
  0
LWPOLYLINE
  5
10b
100
AcDbEntity
  8
0
 62
6
100
AcDbPolyline
 90
4
 70
0
 10
285.000000
 20
134.000000
 30
0.0
 10
285.000000
 20
137.000000
 30
0.0
 10
267.000000
 20
137.000000
 30
0.0
 10
267.000000
 20
134.000000
 30
0.0
  0
LWPOLYLINE
  5
10c
100
AcDbEntity
  8
0
 62
6
100
AcDbPolyline
 90
2
 70
0
 10
258.000000
 20
134.000000
 30
0.0
 10
267.000000
 20
134.000000
 30
0.0
  0
LWPOLYLINE
  5
10d
100
AcDbEntity
  8
0
 62
6
100
AcDbPolyline
 90
2
 70
0
 10
258.000000
 20
143.000000
 30
0.0
 10
258.000000
 20
134.000000
 30
0.0
  0
LWPOLYLINE
  5
10e
100
AcDbEntity
  8
0
 62
6
100
AcDbPolyline
 90
4
 70
0
 10
258.000000
 20
143.000000
 30
0.0
 10
261.000000
 20
143.000000
 30
0.0
 10
261.000000
 20
161.000000
 30
0.0
 10
258.000000
 20
161.000000
 30
0.0
  0
LWPOLYLINE
  5
10f
100
AcDbEntity
  8
0
 62
6
100
AcDbPolyline
 90
2
 70
0
 10
258.000000
 20
170.000000
 30
0.0
 10
258.000000
 20
161.000000
 30
0.0
  0
LWPOLYLINE
  5
110
100
AcDbEntity
  8
0
 62
6
100
AcDbPolyline
 90
2
 70
0
 10
249.000000
 20
170.000000
 30
0.0
 10
258.000000
 20
170.000000
 30
0.0
  0
LWPOLYLINE
  5
111
100
AcDbEntity
  8
0
 62
6
100
AcDbPolyline
 90
4
 70
0
 10
249.000000
 20
170.000000
 30
0.0
 10
249.000000
 20
173.000000
 30
0.0
 10
195.000000
 20
173.000000
 30
0.0
 10
195.000000
 20
170.000000
 30
0.0
  0
LWPOLYLINE
  5
112
100
AcDbEntity
  8
0
 62
6
100
AcDbPolyline
 90
2
 70
0
 10
237.572220
 20
67.172350
 30
0.0
 10
242.572220
 20
67.172350
 30
0.0
  0
LWPOLYLINE
  5
113
100
AcDbEntity
  8
0
 62
6
100
AcDbPolyline
 90
2
 70
0
 10
237.572220
 20
67.172350
 30
0.0
 10
237.572220
 20
64.222350
 30
0.0
  0
LWPOLYLINE
  5
114
100
AcDbEntity
  8
0
 62
6
100
AcDbPolyline
 90
2
 70
0
 10
242.572220
 20
64.222350
 30
0.0
 10
242.572220
 20
67.172350
 30
0.0
  0
LWPOLYLINE
  5
115
100
AcDbEntity
  8
0
 62
6
100
AcDbPolyline
 90
2
 70
0
 10
258.072220
 20
64.222350
 30
0.0
 10
242.572220
 20
64.222350
 30
0.0
  0
LWPOLYLINE
  5
116
100
AcDbEntity
  8
0
 62
6
100
AcDbPolyline
 90
2
 70
0
 10
258.072220
 20
64.222350
 30
0.0
 10
258.072220
 20
48.122350
 30
0.0
  0
LWPOLYLINE
  5
117
100
AcDbEntity
  8
0
 62
6
100
AcDbPolyline
 90
2
 70
0
 10
249.072220
 20
48.122350
 30
0.0
 10
258.072220
 20
48.122350
 30
0.0
  0
LWPOLYLINE
  5
118
100
AcDbEntity
  8
0
 62
6
100
AcDbPolyline
 90
2
 70
0
 10
249.072220
 20
45.172350
 30
0.0
 10
249.072220
 20
48.122350
 30
0.0
  0
LWPOLYLINE
  5
119
100
AcDbEntity
  8
0
 62
6
100
AcDbPolyline
 90
2
 70
0
 10
258.072220
 20
45.172350
 30
0.0
 10
249.072220
 20
45.172350
 30
0.0
  0
LWPOLYLINE
  5
11a
100
AcDbEntity
  8
0
 62
6
100
AcDbPolyline
 90
4
 70
0
 10
258.072220
 20
45.172350
 30
0.0
 10
258.072220
 20
37.172350
 30
0.0
 10
222.072220
 20
37.172350
 30
0.0
 10
222.072220
 20
45.172350
 30
0.0
  0
LWPOLYLINE
  5
11b
100
AcDbEntity
  8
0
 62
6
100
AcDbPolyline
 90
2
 70
0
 10
231.072220
 20
45.172350
 30
0.0
 10
222.072220
 20
45.172350
 30
0.0
  0
LWPOLYLINE
  5
11c
100
AcDbEntity
  8
0
 62
6
100
AcDbPolyline
 90
2
 70
0
 10
231.072220
 20
48.122350
 30
0.0
 10
231.072220
 20
45.172350
 30
0.0
  0
LWPOLYLINE
  5
11d
100
AcDbEntity
  8
0
 62
6
100
AcDbPolyline
 90
2
 70
0
 10
222.072220
 20
48.122350
 30
0.0
 10
231.072220
 20
48.122350
 30
0.0
  0
LWPOLYLINE
  5
11e
100
AcDbEntity
  8
0
 62
6
100
AcDbPolyline
 90
2
 70
0
 10
222.072220
 20
48.122350
 30
0.0
 10
222.072220
 20
64.222350
 30
0.0
  0
LWPOLYLINE
  5
11f
100
AcDbEntity
  8
0
 62
6
100
AcDbPolyline
 90
2
 70
0
 10
237.572220
 20
64.222350
 30
0.0
 10
222.072220
 20
64.222350
 30
0.0
  0
LWPOLYLINE
  5
120
100
AcDbEntity
  8
0
 62
6
100
AcDbPolyline
 90
2
 70
0
 10
200.876614
 20
127.301054
 30
0.0
 10
205.876614
 20
127.301054
 30
0.0
  0
LWPOLYLINE
  5
121
100
AcDbEntity
  8
0
 62
6
100
AcDbPolyline
 90
2
 70
0
 10
200.876614
 20
127.301054
 30
0.0
 10
200.876614
 20
124.351054
 30
0.0
  0
LWPOLYLINE
  5
122
100
AcDbEntity
  8
0
 62
6
100
AcDbPolyline
 90
2
 70
0
 10
205.876614
 20
124.351054
 30
0.0
 10
205.876614
 20
127.301054
 30
0.0
  0
LWPOLYLINE
  5
123
100
AcDbEntity
  8
0
 62
6
100
AcDbPolyline
 90
2
 70
0
 10
273.876614
 20
124.351054
 30
0.0
 10
205.876614
 20
124.351054
 30
0.0
  0
LWPOLYLINE
  5
124
100
AcDbEntity
  8
0
 62
6
100
AcDbPolyline
 90
2
 70
0
 10
273.876614
 20
127.301054
 30
0.0
 10
273.876614
 20
124.351054
 30
0.0
  0
LWPOLYLINE
  5
125
100
AcDbEntity
  8
0
 62
6
100
AcDbPolyline
 90
2
 70
0
 10
273.876614
 20
127.301054
 30
0.0
 10
278.876614
 20
127.301054
 30
0.0
  0
LWPOLYLINE
  5
126
100
AcDbEntity
  8
0
 62
6
100
AcDbPolyline
 90
2
 70
0
 10
278.876614
 20
124.351054
 30
0.0
 10
278.876614
 20
127.301054
 30
0.0
  0
LWPOLYLINE
  5
127
100
AcDbEntity
  8
0
 62
6
100
AcDbPolyline
 90
2
 70
0
 10
293.876614
 20
124.351054
 30
0.0
 10
278.876614
 20
124.351054
 30
0.0
  0
LWPOLYLINE
  5
128
100
AcDbEntity
  8
0
 62
6
100
AcDbPolyline
 90
2
 70
0
 10
293.876614
 20
124.351054
 30
0.0
 10
293.876614
 20
108.251054
 30
0.0
  0
LWPOLYLINE
  5
129
100
AcDbEntity
  8
0
 62
6
100
AcDbPolyline
 90
2
 70
0
 10
284.876614
 20
108.251054
 30
0.0
 10
293.876614
 20
108.251054
 30
0.0
  0
LWPOLYLINE
  5
12a
100
AcDbEntity
  8
0
 62
6
100
AcDbPolyline
 90
2
 70
0
 10
284.876614
 20
105.301054
 30
0.0
 10
284.876614
 20
108.251054
 30
0.0
  0
LWPOLYLINE
  5
12b
100
AcDbEntity
  8
0
 62
6
100
AcDbPolyline
 90
2
 70
0
 10
293.876614
 20
105.301054
 30
0.0
 10
284.876614
 20
105.301054
 30
0.0
  0
LWPOLYLINE
  5
12c
100
AcDbEntity
  8
0
 62
6
100
AcDbPolyline
 90
4
 70
0
 10
293.876614
 20
105.301054
 30
0.0
 10
293.876614
 20
97.301054
 30
0.0
 10
185.876614
 20
97.301054
 30
0.0
 10
185.876614
 20
105.301054
 30
0.0
  0
LWPOLYLINE
  5
12d
100
AcDbEntity
  8
0
 62
6
100
AcDbPolyline
 90
2
 70
0
 10
194.876614
 20
105.301054
 30
0.0
 10
185.876614
 20
105.301054
 30
0.0
  0
LWPOLYLINE
  5
12e
100
AcDbEntity
  8
0
 62
6
100
AcDbPolyline
 90
2
 70
0
 10
194.876614
 20
108.251054
 30
0.0
 10
194.876614
 20
105.301054
 30
0.0
  0
LWPOLYLINE
  5
12f
100
AcDbEntity
  8
0
 62
6
100
AcDbPolyline
 90
2
 70
0
 10
185.876614
 20
108.251054
 30
0.0
 10
194.876614
 20
108.251054
 30
0.0
  0
LWPOLYLINE
  5
130
100
AcDbEntity
  8
0
 62
6
100
AcDbPolyline
 90
2
 70
0
 10
185.876614
 20
108.251054
 30
0.0
 10
185.876614
 20
124.351054
 30
0.0
  0
LWPOLYLINE
  5
131
100
AcDbEntity
  8
0
 62
6
100
AcDbPolyline
 90
2
 70
0
 10
200.876614
 20
124.351054
 30
0.0
 10
185.876614
 20
124.351054
 30
0.0
  0
LWPOLYLINE
  5
132
100
AcDbEntity
  8
0
 62
6
100
AcDbPolyline
 90
2
 70
0
 10
231.513885
 20
65.280685
 30
0.0
 10
236.513885
 20
65.280685
 30
0.0
  0
LWPOLYLINE
  5
133
100
AcDbEntity
  8
0
 62
6
100
AcDbPolyline
 90
2
 70
0
 10
231.513885
 20
65.280685
 30
0.0
 10
231.513885
 20
68.230685
 30
0.0
  0
LWPOLYLINE
  5
134
100
AcDbEntity
  8
0
 62
6
100
AcDbPolyline
 90
2
 70
0
 10
236.513885
 20
68.230685
 30
0.0
 10
236.513885
 20
65.280685
 30
0.0
  0
LWPOLYLINE
  5
135
100
AcDbEntity
  8
0
 62
6
100
AcDbPolyline
 90
2
 70
0
 10
278.513885
 20
68.230685
 30
0.0
 10
236.513885
 20
68.230685
 30
0.0
  0
LWPOLYLINE
  5
136
100
AcDbEntity
  8
0
 62
6
100
AcDbPolyline
 90
2
 70
0
 10
278.513885
 20
65.280685
 30
0.0
 10
278.513885
 20
68.230685
 30
0.0
  0
LWPOLYLINE
  5
137
100
AcDbEntity
  8
0
 62
6
100
AcDbPolyline
 90
2
 70
0
 10
278.513885
 20
65.280685
 30
0.0
 10
283.513885
 20
65.280685
 30
0.0
  0
LWPOLYLINE
  5
138
100
AcDbEntity
  8
0
 62
6
100
AcDbPolyline
 90
2
 70
0
 10
283.513885
 20
68.230685
 30
0.0
 10
283.513885
 20
65.280685
 30
0.0
  0
LWPOLYLINE
  5
139
100
AcDbEntity
  8
0
 62
6
100
AcDbPolyline
 90
2
 70
0
 10
293.513885
 20
68.230685
 30
0.0
 10
283.513885
 20
68.230685
 30
0.0
  0
LWPOLYLINE
  5
13a
100
AcDbEntity
  8
0
 62
6
100
AcDbPolyline
 90
2
 70
0
 10
293.513885
 20
68.230685
 30
0.0
 10
293.513885
 20
84.330685
 30
0.0
  0
LWPOLYLINE
  5
13b
100
AcDbEntity
  8
0
 62
6
100
AcDbPolyline
 90
2
 70
0
 10
284.513885
 20
84.330685
 30
0.0
 10
293.513885
 20
84.330685
 30
0.0
  0
LWPOLYLINE
  5
13c
100
AcDbEntity
  8
0
 62
6
100
AcDbPolyline
 90
2
 70
0
 10
284.513885
 20
87.280685
 30
0.0
 10
284.513885
 20
84.330685
 30
0.0
  0
LWPOLYLINE
  5
13d
100
AcDbEntity
  8
0
 62
6
100
AcDbPolyline
 90
2
 70
0
 10
293.513885
 20
87.280685
 30
0.0
 10
284.513885
 20
87.280685
 30
0.0
  0
LWPOLYLINE
  5
13e
100
AcDbEntity
  8
0
 62
6
100
AcDbPolyline
 90
4
 70
0
 10
293.513885
 20
87.280685
 30
0.0
 10
293.513885
 20
95.280685
 30
0.0
 10
221.513885
 20
95.280685
 30
0.0
 10
221.513885
 20
87.280685
 30
0.0
  0
LWPOLYLINE
  5
13f
100
AcDbEntity
  8
0
 62
6
100
AcDbPolyline
 90
2
 70
0
 10
230.513885
 20
87.280685
 30
0.0
 10
221.513885
 20
87.280685
 30
0.0
  0
LWPOLYLINE
  5
140
100
AcDbEntity
  8
0
 62
6
100
AcDbPolyline
 90
2
 70
0
 10
230.513885
 20
84.330685
 30
0.0
 10
230.513885
 20
87.280685
 30
0.0
  0
LWPOLYLINE
  5
141
100
AcDbEntity
  8
0
 62
6
100
AcDbPolyline
 90
2
 70
0
 10
221.513885
 20
84.330685
 30
0.0
 10
230.513885
 20
84.330685
 30
0.0
  0
LWPOLYLINE
  5
142
100
AcDbEntity
  8
0
 62
6
100
AcDbPolyline
 90
2
 70
0
 10
221.513885
 20
84.330685
 30
0.0
 10
221.513885
 20
68.230685
 30
0.0
  0
LWPOLYLINE
  5
143
100
AcDbEntity
  8
0
 62
6
100
AcDbPolyline
 90
2
 70
0
 10
231.513885
 20
68.230685
 30
0.0
 10
221.513885
 20
68.230685
 30
0.0
  0
LWPOLYLINE
  5
144
100
AcDbEntity
  8
0
 62
6
100
AcDbPolyline
 90
2
 70
0
 10
272.636080
 20
67.038860
 30
0.0
 10
277.636080
 20
67.038860
 30
0.0
  0
LWPOLYLINE
  5
145
100
AcDbEntity
  8
0
 62
6
100
AcDbPolyline
 90
2
 70
0
 10
272.636080
 20
67.038860
 30
0.0
 10
272.636080
 20
64.088860
 30
0.0
  0
LWPOLYLINE
  5
146
100
AcDbEntity
  8
0
 62
6
100
AcDbPolyline
 90
2
 70
0
 10
277.636080
 20
64.088860
 30
0.0
 10
277.636080
 20
67.038860
 30
0.0
  0
LWPOLYLINE
  5
147
100
AcDbEntity
  8
0
 62
6
100
AcDbPolyline
 90
2
 70
0
 10
290.136080
 20
64.088860
 30
0.0
 10
277.636080
 20
64.088860
 30
0.0
  0
LWPOLYLINE
  5
148
100
AcDbEntity
  8
0
 62
6
100
AcDbPolyline
 90
2
 70
0
 10
290.136080
 20
47.988860
 30
0.0
 10
290.136080
 20
64.088860
 30
0.0
  0
LWPOLYLINE
  5
149
100
AcDbEntity
  8
0
 62
6
100
AcDbPolyline
 90
2
 70
0
 10
284.136080
 20
47.988860
 30
0.0
 10
290.136080
 20
47.988860
 30
0.0
  0
LWPOLYLINE
  5
14a
100
AcDbEntity
  8
0
 62
6
100
AcDbPolyline
 90
2
 70
0
 10
284.136080
 20
45.038860
 30
0.0
 10
284.136080
 20
47.988860
 30
0.0
  0
LWPOLYLINE
  5
14b
100
AcDbEntity
  8
0
 62
6
100
AcDbPolyline
 90
2
 70
0
 10
290.136080
 20
45.038860
 30
0.0
 10
284.136080
 20
45.038860
 30
0.0
  0
LWPOLYLINE
  5
14c
100
AcDbEntity
  8
0
 62
6
100
AcDbPolyline
 90
2
 70
0
 10
290.136080
 20
37.038860
 30
0.0
 10
290.136080
 20
45.038860
 30
0.0
  0
LWPOLYLINE
  5
14d
100
AcDbEntity
  8
0
 62
6
100
AcDbPolyline
 90
2
 70
0
 10
290.136080
 20
37.038860
 30
0.0
 10
260.136080
 20
37.038860
 30
0.0
  0
LWPOLYLINE
  5
14e
100
AcDbEntity
  8
0
 62
6
100
AcDbPolyline
 90
2
 70
0
 10
260.136080
 20
45.038860
 30
0.0
 10
260.136080
 20
37.038860
 30
0.0
  0
LWPOLYLINE
  5
14f
100
AcDbEntity
  8
0
 62
6
100
AcDbPolyline
 90
2
 70
0
 10
266.136080
 20
45.038860
 30
0.0
 10
260.136080
 20
45.038860
 30
0.0
  0
LWPOLYLINE
  5
150
100
AcDbEntity
  8
0
 62
6
100
AcDbPolyline
 90
2
 70
0
 10
266.136080
 20
47.988860
 30
0.0
 10
266.136080
 20
45.038860
 30
0.0
  0
LWPOLYLINE
  5
151
100
AcDbEntity
  8
0
 62
6
100
AcDbPolyline
 90
2
 70
0
 10
260.136080
 20
47.988860
 30
0.0
 10
266.136080
 20
47.988860
 30
0.0
  0
LWPOLYLINE
  5
152
100
AcDbEntity
  8
0
 62
6
100
AcDbPolyline
 90
2
 70
0
 10
260.136080
 20
64.088860
 30
0.0
 10
260.136080
 20
47.988860
 30
0.0
  0
LWPOLYLINE
  5
153
100
AcDbEntity
  8
0
 62
6
100
AcDbPolyline
 90
2
 70
0
 10
272.636080
 20
64.088860
 30
0.0
 10
260.136080
 20
64.088860
 30
0.0
  0
LWPOLYLINE
  5
154
100
AcDbEntity
  8
0
 62
6
100
AcDbPolyline
 90
2
 70
0
 10
163.042564
 20
65.151144
 30
0.0
 10
168.042564
 20
65.151144
 30
0.0
  0
LWPOLYLINE
  5
155
100
AcDbEntity
  8
0
 62
6
100
AcDbPolyline
 90
2
 70
0
 10
163.042564
 20
65.151144
 30
0.0
 10
163.042564
 20
68.101144
 30
0.0
  0
LWPOLYLINE
  5
156
100
AcDbEntity
  8
0
 62
6
100
AcDbPolyline
 90
2
 70
0
 10
168.042564
 20
68.101144
 30
0.0
 10
168.042564
 20
65.151144
 30
0.0
  0
LWPOLYLINE
  5
157
100
AcDbEntity
  8
0
 62
6
100
AcDbPolyline
 90
2
 70
0
 10
204.042564
 20
68.101144
 30
0.0
 10
168.042564
 20
68.101144
 30
0.0
  0
LWPOLYLINE
  5
158
100
AcDbEntity
  8
0
 62
6
100
AcDbPolyline
 90
2
 70
0
 10
204.042564
 20
65.151144
 30
0.0
 10
204.042564
 20
68.101144
 30
0.0
  0
LWPOLYLINE
  5
159
100
AcDbEntity
  8
0
 62
6
100
AcDbPolyline
 90
2
 70
0
 10
204.042564
 20
65.151144
 30
0.0
 10
209.042564
 20
65.151144
 30
0.0
  0
LWPOLYLINE
  5
15a
100
AcDbEntity
  8
0
 62
6
100
AcDbPolyline
 90
2
 70
0
 10
209.042564
 20
68.101144
 30
0.0
 10
209.042564
 20
65.151144
 30
0.0
  0
LWPOLYLINE
  5
15b
100
AcDbEntity
  8
0
 62
6
100
AcDbPolyline
 90
2
 70
0
 10
219.042564
 20
68.101144
 30
0.0
 10
209.042564
 20
68.101144
 30
0.0
  0
LWPOLYLINE
  5
15c
100
AcDbEntity
  8
0
 62
6
100
AcDbPolyline
 90
2
 70
0
 10
219.042564
 20
84.201144
 30
0.0
 10
219.042564
 20
68.101144
 30
0.0
  0
LWPOLYLINE
  5
15d
100
AcDbEntity
  8
0
 62
6
100
AcDbPolyline
 90
2
 70
0
 10
213.042564
 20
84.201144
 30
0.0
 10
219.042564
 20
84.201144
 30
0.0
  0
LWPOLYLINE
  5
15e
100
AcDbEntity
  8
0
 62
6
100
AcDbPolyline
 90
2
 70
0
 10
213.042564
 20
87.151144
 30
0.0
 10
213.042564
 20
84.201144
 30
0.0
  0
LWPOLYLINE
  5
15f
100
AcDbEntity
  8
0
 62
6
100
AcDbPolyline
 90
2
 70
0
 10
219.042564
 20
87.151144
 30
0.0
 10
213.042564
 20
87.151144
 30
0.0
  0
LWPOLYLINE
  5
160
100
AcDbEntity
  8
0
 62
6
100
AcDbPolyline
 90
2
 70
0
 10
219.042564
 20
95.151144
 30
0.0
 10
219.042564
 20
87.151144
 30
0.0
  0
LWPOLYLINE
  5
161
100
AcDbEntity
  8
0
 62
6
100
AcDbPolyline
 90
2
 70
0
 10
219.042564
 20
95.151144
 30
0.0
 10
153.042564
 20
95.151144
 30
0.0
  0
LWPOLYLINE
  5
162
100
AcDbEntity
  8
0
 62
6
100
AcDbPolyline
 90
2
 70
0
 10
153.042564
 20
87.151144
 30
0.0
 10
153.042564
 20
95.151144
 30
0.0
  0
LWPOLYLINE
  5
163
100
AcDbEntity
  8
0
 62
6
100
AcDbPolyline
 90
2
 70
0
 10
159.042564
 20
87.151144
 30
0.0
 10
153.042564
 20
87.151144
 30
0.0
  0
LWPOLYLINE
  5
164
100
AcDbEntity
  8
0
 62
6
100
AcDbPolyline
 90
2
 70
0
 10
159.042564
 20
84.201144
 30
0.0
 10
159.042564
 20
87.151144
 30
0.0
  0
LWPOLYLINE
  5
165
100
AcDbEntity
  8
0
 62
6
100
AcDbPolyline
 90
2
 70
0
 10
153.042564
 20
84.201144
 30
0.0
 10
159.042564
 20
84.201144
 30
0.0
  0
LWPOLYLINE
  5
166
100
AcDbEntity
  8
0
 62
6
100
AcDbPolyline
 90
2
 70
0
 10
153.042564
 20
68.101144
 30
0.0
 10
153.042564
 20
84.201144
 30
0.0
  0
LWPOLYLINE
  5
167
100
AcDbEntity
  8
0
 62
6
100
AcDbPolyline
 90
2
 70
0
 10
163.042564
 20
68.101144
 30
0.0
 10
153.042564
 20
68.101144
 30
0.0
  0
LWPOLYLINE
  5
168
100
AcDbEntity
  8
0
 62
6
100
AcDbPolyline
 90
2
 70
0
 10
162.404381
 20
127.119061
 30
0.0
 10
167.404381
 20
127.119061
 30
0.0
  0
LWPOLYLINE
  5
169
100
AcDbEntity
  8
0
 62
6
100
AcDbPolyline
 90
2
 70
0
 10
167.404381
 20
124.169061
 30
0.0
 10
167.404381
 20
127.119061
 30
0.0
  0
LWPOLYLINE
  5
16a
100
AcDbEntity
  8
0
 62
6
100
AcDbPolyline
 90
2
 70
0
 10
182.904381
 20
124.169061
 30
0.0
 10
167.404381
 20
124.169061
 30
0.0
  0
LWPOLYLINE
  5
16b
100
AcDbEntity
  8
0
 62
6
100
AcDbPolyline
 90
2
 70
0
 10
182.904381
 20
108.069061
 30
0.0
 10
182.904381
 20
124.169061
 30
0.0
  0
LWPOLYLINE
  5
16c
100
AcDbEntity
  8
0
 62
6
100
AcDbPolyline
 90
2
 70
0
 10
176.904381
 20
108.069061
 30
0.0
 10
182.904381
 20
108.069061
 30
0.0
  0
LWPOLYLINE
  5
16d
100
AcDbEntity
  8
0
 62
6
100
AcDbPolyline
 90
2
 70
0
 10
176.904381
 20
105.119061
 30
0.0
 10
176.904381
 20
108.069061
 30
0.0
  0
LWPOLYLINE
  5
16e
100
AcDbEntity
  8
0
 62
6
100
AcDbPolyline
 90
2
 70
0
 10
182.904381
 20
105.119061
 30
0.0
 10
176.904381
 20
105.119061
 30
0.0
  0
LWPOLYLINE
  5
16f
100
AcDbEntity
  8
0
 62
6
100
AcDbPolyline
 90
2
 70
0
 10
182.904381
 20
97.119061
 30
0.0
 10
182.904381
 20
105.119061
 30
0.0
  0
LWPOLYLINE
  5
170
100
AcDbEntity
  8
0
 62
6
100
AcDbPolyline
 90
3
 70
0
 10
182.904381
 20
97.119061
 30
0.0
 10
146.904381
 20
97.119061
 30
0.0
 10
146.904381
 20
105.119061
 30
0.0
  0
LWPOLYLINE
  5
171
100
AcDbEntity
  8
0
 62
6
100
AcDbPolyline
 90
2
 70
0
 10
158.904381
 20
105.119061
 30
0.0
 10
146.904381
 20
105.119061
 30
0.0
  0
LWPOLYLINE
  5
172
100
AcDbEntity
  8
0
 62
6
100
AcDbPolyline
 90
2
 70
0
 10
158.904381
 20
108.069061
 30
0.0
 10
158.904381
 20
105.119061
 30
0.0
  0
LWPOLYLINE
  5
173
100
AcDbEntity
  8
0
 62
6
100
AcDbPolyline
 90
2
 70
0
 10
146.904381
 20
108.069061
 30
0.0
 10
158.904381
 20
108.069061
 30
0.0
  0
LWPOLYLINE
  5
174
100
AcDbEntity
  8
0
 62
6
100
AcDbPolyline
 90
2
 70
0
 10
146.904381
 20
108.069061
 30
0.0
 10
146.904381
 20
124.169061
 30
0.0
  0
LWPOLYLINE
  5
175
100
AcDbEntity
  8
0
 62
6
100
AcDbPolyline
 90
2
 70
0
 10
162.404381
 20
124.169061
 30
0.0
 10
146.904381
 20
124.169061
 30
0.0
  0
LWPOLYLINE
  5
176
100
AcDbEntity
  8
0
 62
6
100
AcDbPolyline
 90
2
 70
0
 10
162.404381
 20
127.119061
 30
0.0
 10
162.404381
 20
124.169061
 30
0.0
  0
LWPOLYLINE
  5
177
100
AcDbEntity
  8
0
 62
6
100
AcDbPolyline
 90
2
 70
0
 10
142.768260
 20
204.238952
 30
0.0
 10
142.768260
 20
128.238952
 30
0.0
  0
LWPOLYLINE
  5
178
100
AcDbEntity
  8
0
 62
6
100
AcDbPolyline
 90
2
 70
0
 10
182.768260
 20
204.238952
 30
0.0
 10
142.768260
 20
204.238952
 30
0.0
  0
LWPOLYLINE
  5
179
100
AcDbEntity
  8
0
 62
6
100
AcDbPolyline
 90
2
 70
0
 10
142.768260
 20
128.238952
 30
0.0
 10
254.768260
 20
128.238952
 30
0.0
  0
LWPOLYLINE
  5
17a
100
AcDbEntity
  8
0
 62
6
100
AcDbPolyline
 90
2
 70
0
 10
182.768260
 20
168.238952
 30
0.0
 10
182.768260
 20
204.238952
 30
0.0
  0
LWPOLYLINE
  5
17b
100
AcDbEntity
  8
0
 62
6
100
AcDbPolyline
 90
3
 70
0
 10
254.768260
 20
128.238952
 30
0.0
 10
254.768260
 20
168.238952
 30
0.0
 10
182.768260
 20
168.238952
 30
0.0
  0
LWPOLYLINE
  5
17c
100
AcDbEntity
  8
0
 62
5
100
AcDbPolyline
 90
2
 70
0
 10
165.268260
 20
202.238952
 30
0.0
 10
160.268260
 20
202.238952
 30
0.0
  0
LWPOLYLINE
  5
17d
100
AcDbEntity
  8
0
 62
5
100
AcDbPolyline
 90
2
 70
0
 10
165.268260
 20
199.288952
 30
0.0
 10
165.268260
 20
202.238952
 30
0.0
  0
LWPOLYLINE
  5
17e
100
AcDbEntity
  8
0
 62
5
100
AcDbPolyline
 90
2
 70
0
 10
160.268260
 20
199.288952
 30
0.0
 10
165.268260
 20
199.288952
 30
0.0
  0
LWPOLYLINE
  5
17f
100
AcDbEntity
  8
0
 62
5
100
AcDbPolyline
 90
2
 70
0
 10
160.268260
 20
202.238952
 30
0.0
 10
160.268260
 20
199.288952
 30
0.0
  0
LWPOLYLINE
  5
180
100
AcDbEntity
  8
0
 62
5
100
AcDbPolyline
 90
2
 70
0
 10
195.768260
 20
163.288952
 30
0.0
 10
195.768260
 20
166.238952
 30
0.0
  0
LWPOLYLINE
  5
181
100
AcDbEntity
  8
0
 62
5
100
AcDbPolyline
 90
2
 70
0
 10
190.768260
 20
163.288952
 30
0.0
 10
195.768260
 20
163.288952
 30
0.0
  0
LWPOLYLINE
  5
182
100
AcDbEntity
  8
0
 62
5
100
AcDbPolyline
 90
2
 70
0
 10
190.768260
 20
166.238952
 30
0.0
 10
190.768260
 20
163.288952
 30
0.0
  0
LWPOLYLINE
  5
183
100
AcDbEntity
  8
0
 62
5
100
AcDbPolyline
 90
2
 70
0
 10
195.768260
 20
166.238952
 30
0.0
 10
190.768260
 20
166.238952
 30
0.0
  0
LWPOLYLINE
  5
184
100
AcDbEntity
  8
0
 62
5
100
AcDbPolyline
 90
2
 70
0
 10
177.818260
 20
183.738952
 30
0.0
 10
177.818260
 20
178.738952
 30
0.0
  0
LWPOLYLINE
  5
185
100
AcDbEntity
  8
0
 62
5
100
AcDbPolyline
 90
2
 70
0
 10
180.768260
 20
183.738952
 30
0.0
 10
177.818260
 20
183.738952
 30
0.0
  0
LWPOLYLINE
  5
186
100
AcDbEntity
  8
0
 62
5
100
AcDbPolyline
 90
2
 70
0
 10
180.768260
 20
178.738952
 30
0.0
 10
180.768260
 20
183.738952
 30
0.0
  0
LWPOLYLINE
  5
187
100
AcDbEntity
  8
0
 62
5
100
AcDbPolyline
 90
2
 70
0
 10
177.818260
 20
178.738952
 30
0.0
 10
180.768260
 20
178.738952
 30
0.0
  0
LWPOLYLINE
  5
188
100
AcDbEntity
  8
0
 62
5
100
AcDbPolyline
 90
2
 70
0
 10
159.768260
 20
130.238952
 30
0.0
 10
164.768260
 20
130.238952
 30
0.0
  0
LWPOLYLINE
  5
189
100
AcDbEntity
  8
0
 62
5
100
AcDbPolyline
 90
2
 70
0
 10
159.768260
 20
133.188952
 30
0.0
 10
159.768260
 20
130.238952
 30
0.0
  0
LWPOLYLINE
  5
18a
100
AcDbEntity
  8
0
 62
5
100
AcDbPolyline
 90
2
 70
0
 10
164.768260
 20
133.188952
 30
0.0
 10
159.768260
 20
133.188952
 30
0.0
  0
LWPOLYLINE
  5
18b
100
AcDbEntity
  8
0
 62
5
100
AcDbPolyline
 90
2
 70
0
 10
164.768260
 20
130.238952
 30
0.0
 10
164.768260
 20
133.188952
 30
0.0
  0
LWPOLYLINE
  5
18c
100
AcDbEntity
  8
0
 62
5
100
AcDbPolyline
 90
4
 70
1
 10
147.718260
 20
148.238952
 30
0.0
 10
144.768260
 20
148.238952
 30
0.0
 10
144.768260
 20
143.238952
 30
0.0
 10
147.718260
 20
143.238952
 30
0.0
  0
LWPOLYLINE
  5
18d
100
AcDbEntity
  8
0
 62
5
100
AcDbPolyline
 90
4
 70
1
 10
144.768260
 20
189.238952
 30
0.0
 10
144.768260
 20
184.238952
 30
0.0
 10
147.718260
 20
184.238952
 30
0.0
 10
147.718260
 20
189.238952
 30
0.0
  0
LWPOLYLINE
  5
18e
100
AcDbEntity
  8
0
 62
5
100
AcDbPolyline
 90
2
 70
0
 10
232.768260
 20
130.238952
 30
0.0
 10
237.768260
 20
130.238952
 30
0.0
  0
LWPOLYLINE
  5
18f
100
AcDbEntity
  8
0
 62
5
100
AcDbPolyline
 90
2
 70
0
 10
232.768260
 20
133.188952
 30
0.0
 10
232.768260
 20
130.238952
 30
0.0
  0
LWPOLYLINE
  5
190
100
AcDbEntity
  8
0
 62
5
100
AcDbPolyline
 90
2
 70
0
 10
237.768260
 20
133.188952
 30
0.0
 10
232.768260
 20
133.188952
 30
0.0
  0
LWPOLYLINE
  5
191
100
AcDbEntity
  8
0
 62
5
100
AcDbPolyline
 90
2
 70
0
 10
237.768260
 20
130.238952
 30
0.0
 10
237.768260
 20
133.188952
 30
0.0
  0
LWPOLYLINE
  5
192
100
AcDbEntity
  8
0
 62
5
100
AcDbPolyline
 90
2
 70
0
 10
249.818260
 20
150.738952
 30
0.0
 10
249.818260
 20
145.738952
 30
0.0
  0
LWPOLYLINE
  5
193
100
AcDbEntity
  8
0
 62
5
100
AcDbPolyline
 90
2
 70
0
 10
252.768260
 20
150.738952
 30
0.0
 10
249.818260
 20
150.738952
 30
0.0
  0
LWPOLYLINE
  5
194
100
AcDbEntity
  8
0
 62
5
100
AcDbPolyline
 90
2
 70
0
 10
252.768260
 20
145.738952
 30
0.0
 10
252.768260
 20
150.738952
 30
0.0
  0
LWPOLYLINE
  5
195
100
AcDbEntity
  8
0
 62
5
100
AcDbPolyline
 90
2
 70
0
 10
249.818260
 20
145.738952
 30
0.0
 10
252.768260
 20
145.738952
 30
0.0
  0
LWPOLYLINE
  5
196
100
AcDbEntity
  8
0
 62
5
100
AcDbPolyline
 90
2
 70
0
 10
237.768260
 20
166.238952
 30
0.0
 10
237.768260
 20
163.288952
 30
0.0
  0
LWPOLYLINE
  5
197
100
AcDbEntity
  8
0
 62
5
100
AcDbPolyline
 90
2
 70
0
 10
242.768260
 20
166.238952
 30
0.0
 10
237.768260
 20
166.238952
 30
0.0
  0
LWPOLYLINE
  5
198
100
AcDbEntity
  8
0
 62
5
100
AcDbPolyline
 90
2
 70
0
 10
242.768260
 20
163.288952
 30
0.0
 10
242.768260
 20
166.238952
 30
0.0
  0
LWPOLYLINE
  5
199
100
AcDbEntity
  8
0
 62
5
100
AcDbPolyline
 90
2
 70
0
 10
237.768260
 20
163.288952
 30
0.0
 10
242.768260
 20
163.288952
 30
0.0
  0
LWPOLYLINE
  5
19a
100
AcDbEntity
  8
0
 62
4
100
AcDbPolyline
 90
2
 70
0
 10
148.768260
 20
198.238952
 30
0.0
 10
148.768260
 20
134.238952
 30
0.0
  0
LWPOLYLINE
  5
19b
100
AcDbEntity
  8
0
 62
4
100
AcDbPolyline
 90
2
 70
0
 10
176.768260
 20
198.238952
 30
0.0
 10
148.768260
 20
198.238952
 30
0.0
  0
LWPOLYLINE
  5
19c
100
AcDbEntity
  8
0
 62
4
100
AcDbPolyline
 90
2
 70
0
 10
148.768260
 20
134.238952
 30
0.0
 10
248.768260
 20
134.238952
 30
0.0
  0
LWPOLYLINE
  5
19d
100
AcDbEntity
  8
0
 62
4
100
AcDbPolyline
 90
2
 70
0
 10
176.768260
 20
162.238952
 30
0.0
 10
176.768260
 20
198.238952
 30
0.0
  0
LWPOLYLINE
  5
19e
100
AcDbEntity
  8
0
 62
4
100
AcDbPolyline
 90
3
 70
0
 10
248.768260
 20
134.238952
 30
0.0
 10
248.768260
 20
162.238952
 30
0.0
 10
176.768260
 20
162.238952
 30
0.0
  0
ENDSEC
  0
SECTION
  2
OBJECTS
  0
DICTIONARY
  5
C
330
0
100
AcDbDictionary
  3
ACAD_GROUP
350
D
  3
ACAD_MLINESTYLE
350
17
  0
DICTIONARY
  5
D
330
C
100
AcDbDictionary
  0
DICTIONARY
  5
1A
330
C
100
AcDbDictionary
  0
DICTIONARY
  5
17
330
C
100
AcDbDictionary
  3
STANDARD
350
18
  0
DICTIONARY
  5
19
330
C
100
AcDbDictionary
  0
ENDSEC
  0
EOF
