<?xml version="1.0" encoding="UTF-8" standalone="no"?>
<!-- Created with Inkscape (http://www.inkscape.org/) -->

<svg
   xmlns:dc="http://purl.org/dc/elements/1.1/"
   xmlns:cc="http://creativecommons.org/ns#"
   xmlns:rdf="http://www.w3.org/1999/02/22-rdf-syntax-ns#"
   xmlns:svg="http://www.w3.org/2000/svg"
   xmlns="http://www.w3.org/2000/svg"
   xmlns:sodipodi="http://sodipodi.sourceforge.net/DTD/sodipodi-0.dtd"
   xmlns:inkscape="http://www.inkscape.org/namespaces/inkscape"
   id="svg4136"
   version="1.1"
   inkscape:version="0.91 r13725"
   xml:space="preserve"
   width="1488.3"
   height="1169.7"
   viewBox="0 0 1488.3 1169.7"
   sodipodi:docname="Logo_Def_2015_Simplifie_N_Vecto.svg"><metadata
     id="metadata4142"><rdf:RDF><cc:Work
         rdf:about=""><dc:format>image/svg+xml</dc:format><dc:type
           rdf:resource="http://purl.org/dc/dcmitype/StillImage" /><dc:title></dc:title></cc:Work></rdf:RDF></metadata><defs
     id="defs4140"><clipPath
       clipPathUnits="userSpaceOnUse"
       id="clipPath4150"><path
         d="m 0,935.76 1190.64,0 L 1190.64,0 0,0 0,935.76 Z"
         id="path4152"
         inkscape:connector-curvature="0" /></clipPath></defs><sodipodi:namedview
     pagecolor="#ffffff"
     bordercolor="#666666"
     borderopacity="1"
     objecttolerance="10"
     gridtolerance="10"
     guidetolerance="10"
     inkscape:pageopacity="0"
     inkscape:pageshadow="2"
     inkscape:window-width="1707"
     inkscape:window-height="907"
     id="namedview4138"
     showgrid="false"
     inkscape:zoom="0.63264087"
     inkscape:cx="744.15002"
     inkscape:cy="584.84998"
     inkscape:window-x="-8"
     inkscape:window-y="-8"
     inkscape:window-maximized="1"
     inkscape:current-layer="g4144" /><g
     id="g4144"
     inkscape:groupmode="layer"
     inkscape:label="Logo_Def_2015_Simplifie_N_Vecto"
     transform="matrix(1.25,0,0,-1.25,0,1169.7)"><g
       id="g4146"><g
         id="g4148"
         clip-path="url(#clipPath4150)"><g
           id="g4154"
           transform="translate(359.4424,152.2571)"><path
             d="M 0,0 C 0.967,0 1.925,-0.179 2.781,0.04 4.193,0.401 4.415,1.405 3.711,3.299 0.753,2.758 0.753,2.758 0,0 m -135.553,373.134 c 0.648,-0.658 1.257,-1.367 1.957,-1.97 1.301,-1.12 2.654,-2.177 3.942,-3.225 2.016,1.56 2.515,2.471 2.113,3.888 -0.463,1.632 -1.554,2.824 -3.175,3.18 -1.847,0.405 -3.812,0.593 -4.837,-1.873 m 807.391,156.818 c 0.844,0.683 1.475,0.954 1.71,1.423 1.632,3.27 3.209,6.567 4.726,9.892 0.238,0.519 0.271,1.292 0.06,1.811 -0.209,0.515 -0.786,0.995 -1.316,1.216 -0.273,0.113 -0.982,-0.265 -1.175,-0.603 -1.977,-3.456 -3.694,-7.029 -4.248,-11.028 -0.098,-0.708 0.12,-1.459 0.243,-2.711 M 606.4,597.937 c 1.755,-2.479 3.023,-4.669 5.193,-6.462 2.844,1.917 5.616,3.773 8.372,5.654 0.507,0.347 1.097,0.735 0.616,1.516 -7.06,0.563 -9.901,0.443 -14.181,-0.708 m -37.374,39.098 c 3.418,-0.762 6.067,0.168 8.362,2.059 3.994,3.291 7.072,7.287 8.731,12.254 0.168,0.503 0.023,1.111 0.023,1.892 -5.013,-3.12 -13.541,-11.178 -17.116,-16.205 m 111.281,98.579 c -4.51,-6.165 -9.024,-12.328 -13.524,-18.5 -0.559,-0.767 -1.054,-1.583 -1.558,-2.388 -0.072,-0.115 -0.059,-0.303 -0.037,-0.449 0.026,-0.154 0.11,-0.298 0.243,-0.638 1.806,0 3.693,-0.035 5.578,0.015 0.934,0.024 1.865,0.203 2.675,0.297 2.079,4.172 6.53,17.323 6.623,21.663 M -38.806,375.218 c -3.073,0.039 -4.282,-1.328 -3.793,-4.148 0.081,-0.466 0.198,-0.941 0.392,-1.368 1.584,-3.476 3.135,-6.969 4.815,-10.398 0.849,-1.734 2.51,-2.283 4.452,-1.754 1.497,0.408 2.289,1.763 2.126,3.797 -0.063,0.784 -0.177,1.602 -0.472,2.322 -1.264,3.093 -2.616,6.15 -3.912,9.23 -0.708,1.682 -1.949,2.444 -3.608,2.319 m -53.548,67 c 0.148,-0.024 0.296,-0.048 0.444,-0.072 0,-1.423 -0.136,-2.865 0.06,-4.261 0.093,-0.665 0.683,-1.491 1.281,-1.814 2.068,-1.117 4.962,-0.42 6.432,1.404 2.099,2.604 2.67,5.696 2.631,8.914 -0.045,3.723 -2.05,5.485 -5.74,5.27 -1.743,-0.101 -3.107,-0.735 -3.555,-2.549 -0.566,-2.286 -1.04,-4.594 -1.553,-6.892 m 3.857,16.977 c 0.552,-0.363 1.017,-0.866 1.569,-0.995 1.392,-0.324 2.824,-0.481 4.24,-0.703 3.341,-0.526 6.629,-0.733 9.819,0.853 0.965,0.48 2.14,0.706 3.228,0.741 6.099,0.2 10.422,3.476 14.045,7.976 0.457,0.568 0.655,1.346 1.182,2.474 -10.409,-1.606 -20,-4.436 -29.444,-7.801 -1.583,-0.564 -3.481,-0.708 -4.639,-2.545 M 352.958,204.283 c -1.14,0.669 -1.699,0.02 -2.262,-0.516 -5.545,-5.298 -11.092,-10.593 -16.603,-15.926 -0.494,-0.48 -0.73,-1.227 -1.156,-1.974 1.703,-0.882 3.099,-1.652 4.536,-2.338 7.294,-3.481 14.819,1.246 15.109,9.455 0.068,1.91 0.298,3.814 0.362,5.723 0.065,1.902 0.014,3.808 0.014,5.576 M 746.875,613.95 c 0.498,-0.146 0.664,-0.255 0.803,-0.227 10.301,2.017 20.603,4.033 30.896,6.093 0.856,0.171 1.649,0.646 2.61,1.036 -0.351,0.717 -0.438,1.299 -0.757,1.488 -4.92,2.91 -10.13,5.224 -15.138,7.567 -3.797,-2.557 -15.922,-13.057 -18.414,-15.957 M 562.687,532.937 c 1.176,-2.874 3.313,-4.275 5.81,-4.869 2.648,-0.63 5.423,-0.607 7.79,1.126 6.65,4.869 10.553,11.292 10.904,19.661 0.011,0.245 -0.285,0.503 -0.439,0.755 -3.129,-1.388 -19.94,-12.996 -24.065,-16.673 M 676.37,647.63 c 5.136,-9.445 10.238,-18.829 15.34,-28.213 0.224,-0.412 0.441,-0.827 0.625,-1.17 4.255,3.164 4.284,3.351 4.747,6.579 0.275,1.922 -0.481,3.41 -1.397,4.929 -3.791,6.29 -7.561,12.592 -11.37,18.87 -0.391,0.647 -0.988,1.169 -1.512,1.776 -2.324,-0.639 -4.472,-1.131 -6.433,-2.771 m -63.581,-88.758 c 1.963,1.698 2.857,3.096 2.849,5.024 -0.009,2.248 -0.004,4.388 -1.499,6.358 -5.41,7.129 -10.704,14.347 -16.069,21.511 -0.258,0.345 -0.774,0.497 -1.291,0.813 -2.389,-1.085 -5.121,-1.47 -7.403,-3.514 7.808,-10.07 15.379,-20.115 23.413,-30.192 m 21.967,-76.078 c 0.72,11.099 -1.135,21.497 -2.018,31.955 -0.06,0.717 -0.411,1.41 -0.652,2.2 -3.265,-2.283 -12.482,-11.557 -15.254,-15.271 2.754,-4.089 14.76,-16.876 17.924,-18.884 m -0.796,141.97 c -3.016,-1.143 -5.761,-1.827 -8.535,-3.379 0.818,-1.305 1.413,-2.391 2.135,-3.385 6.927,-9.542 13.872,-19.07 20.825,-28.593 0.749,-1.025 1.564,-2.003 2.4,-2.958 0.171,-0.197 0.573,-0.191 1.103,-0.347 1.044,0.655 2.223,1.395 3.247,2.038 0.45,5.131 0.471,5.145 -1.972,8.744 -5.547,8.173 -11.113,16.334 -16.685,24.491 -0.709,1.038 -1.499,2.021 -2.518,3.389 m -92.92,-18.091 c 0,4.077 0.107,7.431 -0.029,10.773 -0.142,3.443 0.635,6.963 -0.644,10.636 -10.149,0.085 -20.196,-0.113 -30.242,-0.368 -0.182,-0.004 -0.353,-0.418 -0.744,-0.913 9.726,-6.428 19.428,-12.842 29.228,-19.106 0.498,-0.319 1.102,-0.471 2.431,-1.022 M 86.183,334.126 c 0.673,0.348 1.144,0.501 1.505,0.79 10.097,8.084 20.187,16.177 30.259,24.293 0.42,0.339 0.651,0.914 1.095,1.56 -0.827,0.18 -1.272,0.369 -1.714,0.358 -6.083,-0.147 -12.101,-0.673 -17.856,-2.9 -1.328,-0.514 -2.738,-0.838 -4.132,-1.154 -8.68,-1.969 -14.488,-8.471 -15.745,-17.937 2.133,-1.622 4.392,-3.341 6.588,-5.01 M -23.333,296.464 c -0.049,0.856 0.198,2.559 -0.298,4.007 -1.122,3.269 -0.973,6.588 -0.997,9.925 -0.005,0.635 0.044,1.29 -0.082,1.905 -0.618,3.007 -2.256,5.348 -5.166,6.37 -2.713,0.952 -5.358,0.505 -7.496,-1.654 -2.016,-2.038 -4.069,-4.042 -6.009,-6.149 -2.063,-2.24 -2.333,-4.874 -0.99,-7.529 0.854,-1.689 1.871,-3.385 3.168,-4.737 2.322,-2.422 4.517,-4.914 6.378,-7.706 1,-1.5 2.415,-2.502 4.093,-3.165 3.785,-1.492 7.208,0.643 7.391,4.656 0.051,1.112 0.008,2.228 0.008,4.077 m 601.249,285.493 c 0.177,0.23 0.355,0.46 0.531,0.689 -1.62,2.144 -3.24,4.287 -5.079,6.719 4.325,3.439 9.369,5.566 13.921,9.279 -6.584,1.485 -12.768,1.46 -18.845,2.275 -6.109,0.82 -12.195,1.814 -18.267,2.728 -1.606,-4.522 -2.74,-14.867 -2.045,-19.086 2.173,0.44 4.341,0.861 6.502,1.321 7.45,1.585 14.579,0.868 21.293,-2.918 0.646,-0.365 1.325,-0.673 1.989,-1.007 m 170.21,105.261 c -16.361,6.387 -32.862,9.838 -50.028,10.324 0.986,-0.863 2.012,-1.712 3.175,-1.988 4.176,-0.993 7.449,-3.53 10.796,-5.965 5.202,-3.784 8.655,-8.788 10.647,-14.9 0.506,-1.55 0.788,-3.348 2.113,-4.54 6.358,3.782 19.697,13.51 23.297,17.069 m -0.009,-23.005 c -5.822,-3.382 -39.388,-27.526 -42.057,-30.244 0.687,-0.962 1.399,-1.956 2.196,-3.071 1.548,0.424 2.929,0.747 4.275,1.178 10.487,3.358 20.741,7.327 30.948,11.456 3.634,1.471 5.542,4.129 6.916,7.401 0.603,1.437 0.85,3.075 0.984,4.645 0.175,2.058 0.092,4.139 0.082,6.211 -10e-4,0.291 -0.22,0.58 -0.446,1.138 -0.807,0.358 -1.804,0.8 -2.898,1.286 M 533.158,490.982 c -4.943,-3.192 -25.489,-19.779 -28.014,-22.613 0.571,-4.411 1.237,-8.962 2.5,-13.45 3.303,1.624 28.928,21.71 38.139,29.886 0.293,0.26 0.385,0.749 0.69,1.376 -4.51,1.626 -8.828,3.183 -13.315,4.801 M 213.062,324.112 c -1.739,3.44 -24.005,35.549 -26.668,38.444 -2.801,-3.154 -7.19,-10.955 -8.869,-15.855 3.729,-6.32 7.534,-12.787 11.379,-19.231 0.21,-0.352 0.754,-0.506 1.146,-0.754 2.269,1.253 4.473,2.47 6.843,3.778 0.909,-1.465 1.695,-2.649 2.397,-3.881 2.53,-4.441 5.014,-8.909 7.566,-13.338 0.336,-0.584 0.967,-0.998 1.596,-1.626 1.617,4.373 3.106,8.397 4.61,12.463 m 365.695,390.376 c -0.077,-1.686 -0.175,-2.606 -0.153,-3.522 0.28,-11.952 0.569,-23.903 0.889,-35.854 0.025,-0.904 0.305,-1.802 0.453,-2.63 5.878,-0.614 15.047,-0.205 19.433,0.883 1.669,5.633 3.956,11.215 3.567,17.481 -0.151,2.426 -0.757,4.158 -2.66,5.74 -6.495,5.401 -12.853,10.967 -19.278,16.454 -0.466,0.398 -1.036,0.674 -2.251,1.448 M -82.638,106.742 c -0.193,0.66 -0.239,1.154 -0.466,1.544 -3.455,5.935 -6.688,12.021 -10.49,17.726 -2.816,4.224 -6.347,7.978 -9.624,11.887 -1.989,2.372 -4.546,3.458 -7.676,2.876 -2.354,-0.437 -4.724,-0.819 -7.048,-1.385 -2.224,-0.542 -3.126,-2.301 -2.269,-4.343 0.426,-1.015 1.201,-1.878 1.723,-2.859 0.818,-1.538 1.795,-3.05 2.259,-4.698 0.458,-1.628 1.24,-2.798 2.475,-3.917 7.205,-6.529 12.735,-14.275 16.572,-23.223 0.35,-0.816 0.91,-1.541 1.434,-2.411 5.222,2.066 9.607,4.787 13.11,8.803 M 576.259,568.51 c -0.114,0.282 -0.147,0.669 -0.354,0.829 -3.925,3.038 -8.051,5.691 -12.931,6.993 -2.215,0.591 -4.366,0.664 -6.596,0.108 -7.368,-1.837 -14.018,-5.15 -20.155,-9.575 -1.119,-0.806 -1.734,-1.769 -1.867,-3.147 -0.683,-7.141 -1.423,-14.276 -2.096,-21.417 -0.084,-0.886 0.118,-1.799 0.221,-3.135 3.55,1.66 6.438,3.491 8.614,6.31 1.473,1.909 3.227,3.44 5.187,4.875 3.398,2.488 7.141,4.17 11.018,5.655 0.892,0.342 1.882,0.542 2.658,1.06 5.431,3.626 10.818,7.316 16.21,10.999 0.089,0.061 0.062,0.292 0.091,0.445 m 137.216,-68.06 c 0.245,0.339 0.569,0.578 0.569,0.819 0.01,4.619 0.391,9.286 -0.137,13.846 -0.731,6.324 -2.156,12.568 -3.273,18.847 -0.268,1.502 -0.98,2.575 -2.379,3.355 -4.039,2.254 -7.993,4.659 -12.013,6.95 -0.769,0.438 -1.508,1.256 -2.576,0.749 -2.719,-4.483 -11.235,-22.579 -12.253,-26.17 10.203,-6.032 20.484,-12.114 30.78,-18.17 0.365,-0.215 0.886,-0.162 1.282,-0.226 M -123.157,294.608 c 0.202,-1.339 0.222,-2.623 0.604,-3.788 1.164,-3.551 1.278,-7.182 1.327,-10.873 0.036,-2.691 0.433,-5.404 0.943,-8.054 0.466,-2.42 1.926,-4.375 3.833,-5.931 2.382,-1.942 4.959,-2.048 7.392,-0.013 4.763,3.986 9.402,8.119 14.091,12.193 0.12,0.104 0.229,0.222 0.338,0.339 1.959,2.104 3.899,4.226 5.879,6.309 2.423,2.548 4.92,4.984 7.886,6.958 1.971,1.313 3.641,3.082 5.416,4.682 0.597,0.539 1.11,1.18 0.322,2.257 -15.358,-0.022 -30.794,-1.175 -46.171,-3.207 -0.578,-0.076 -1.108,-0.508 -1.86,-0.872 M 433.891,191.659 c 0.495,0.285 1.074,0.524 1.542,0.901 10.713,8.64 20.796,17.945 29.912,28.283 2.162,2.452 3.663,5.088 4.194,8.37 0.378,2.329 0.758,4.598 0.513,6.989 -4.286,-0.87 -48.356,-16.966 -52.089,-19.021 0.282,-0.674 0.508,-1.414 0.88,-2.072 5.336,-9.426 12.529,-20.642 15.048,-23.45 M 18.253,310.676 c -2.891,1.374 -5.092,2.323 -7.202,3.442 -4.941,2.621 -10.314,4.247 -15.273,6.878 -3.01,1.596 -6.595,1.312 -9.724,-0.296 -2.221,-1.141 -3.674,-3.072 -3.724,-5.742 -0.04,-2.077 -0.034,-4.157 -0.007,-6.235 0.042,-3.196 -0.312,-6.473 0.277,-9.567 0.967,-5.073 1.262,-10.139 1.11,-15.254 -0.102,-3.438 0.854,-6.66 1.901,-9.829 0.857,-2.594 2.374,-4.85 5.194,-5.885 1.55,0.665 3.028,1.263 4.473,1.932 0.716,0.331 1.373,0.79 2.227,1.291 0,3.162 0.11,6.354 -0.036,9.534 -0.109,2.361 0.478,4.296 1.948,6.195 3.719,4.801 7.239,9.756 10.867,14.63 2.272,3.051 4.27,6.335 7.969,8.906 m 53.799,31.116 c -0.791,1.556 -1.159,2.623 -1.803,3.482 -1.816,2.424 -4.028,3.882 -7.351,3.45 -3.94,-0.512 -7.914,-0.448 -11.764,-1.873 -3.27,-1.211 -6.762,-1.831 -10.169,-2.658 -0.921,-0.223 -1.896,-0.388 -2.835,-0.34 -3.25,0.164 -6.338,-0.531 -9.408,-1.482 -1.212,-0.375 -2.482,-0.7 -3.741,-0.764 -4.357,-0.223 -8.452,-1.625 -12.564,-2.833 -2.41,-0.708 -4.718,-1.923 -6.897,-3.207 -2.783,-1.639 -3.502,-6.268 -0.441,-8.628 1.75,-1.349 3.659,-2.585 5.669,-3.485 4.362,-1.953 8.924,-3.473 13.23,-5.534 2.464,-1.18 4.477,-1.416 6.587,0.428 0.595,0.52 1.325,0.887 1.994,1.322 9.373,6.094 18.76,12.163 28.105,18.299 1.9,1.248 3.875,2.167 6.109,2.589 1.54,0.291 3.055,0.708 5.279,1.234 m 388.094,161.656 c 2.042,-2.901 2.368,-6.022 2.26,-9.274 -0.034,-1.041 0.339,-2.096 0.536,-3.205 3.921,-0.466 7.584,-0.794 11.208,-1.371 2.257,-0.36 3.933,0.319 5.671,1.714 9.351,7.509 18.786,14.913 28.178,22.371 0.853,0.677 1.601,1.487 2.481,2.315 -0.316,2.149 -0.654,4.19 -0.91,6.241 -0.258,2.062 -0.456,4.133 -0.64,6.203 -0.2,2.228 -0.356,4.461 -0.526,6.692 -0.153,2.006 0.066,4.057 -0.41,6.214 -0.772,-0.229 -1.264,-0.257 -1.608,-0.495 -4.412,-3.059 -43.741,-34.832 -46.24,-37.405 M 189.577,2.956 c -0.953,-1.982 -1.6,-3.188 -2.127,-4.444 -7.659,-18.243 -15.303,-36.493 -22.949,-54.741 -4.81,-11.48 -9.625,-22.958 -14.41,-34.447 -0.382,-0.917 -1.3,-1.855 -0.109,-3.208 1.308,1.449 2.601,2.824 3.83,4.255 12.891,15.024 25.781,30.047 38.649,45.091 3.891,4.549 3.567,2.958 2.761,9.419 -1.462,11.716 -3.139,23.406 -4.751,35.103 -0.101,0.731 -0.422,1.431 -0.894,2.972 M 39.22,455.042 c -1.042,0.703 -1.891,1.393 -2.84,1.895 -6.358,3.365 -12.849,6.452 -19.665,8.779 -19.899,6.793 -40.335,7.749 -61.049,5.437 -0.549,-0.061 -1.053,-0.525 -1.809,-0.922 0.644,-0.98 1.019,-1.904 1.686,-2.507 3.424,-3.1 6.803,-6.192 11.267,-7.943 2.716,-1.066 5.509,-1.448 8.245,-2.194 4.913,-1.339 9.811,-2.709 14.768,-3.899 4.476,-1.075 8.77,-2.759 13.334,-3.661 5.761,-1.138 11.386,-2.97 17.06,-4.537 1.538,-0.425 3.031,-1.011 4.565,-1.452 1.939,-0.557 3.923,-0.508 5.45,0.873 3.288,2.974 6.489,6.059 8.988,10.131 M -39.5,391.029 c -0.458,3.116 -0.631,7.327 -1.762,11.263 -1.551,5.4 -2.037,10.96 -3.272,16.392 -0.493,2.172 -1.032,4.337 -1.452,6.524 -1.231,6.416 -2.362,12.852 -3.636,19.259 -0.647,3.261 -2.508,5.826 -5.073,7.918 -1.891,1.542 -3.881,2.01 -6.239,1.106 -2.98,-1.142 -6.007,-2.171 -9.042,-3.162 -1.602,-0.523 -2.919,-1.407 -3.731,-2.832 -1.261,-2.215 -2.378,-4.483 -2.797,-7.082 -0.592,-3.673 -0.184,-6.91 2.481,-9.797 1.382,-1.498 2.7,-3.308 3.315,-5.214 1.639,-5.085 4.602,-9.47 6.956,-14.171 1.572,-3.137 3.161,-6.313 5.167,-9.173 2.398,-3.419 4.446,-6.997 6.377,-10.681 0.953,-1.819 2.188,-3.529 3.513,-5.106 1.267,-1.506 3,-2.343 5.063,-2.329 2.469,0.016 3.844,1.205 4.119,3.705 0.086,0.789 0.013,1.596 0.013,3.38 m -122.258,3.102 c 5.139,-4.113 10.283,-8.407 15.631,-12.432 2.532,-1.906 6.093,-1.618 8.479,0.449 2.897,2.511 5.731,5.169 7.491,8.653 3.102,6.146 6.61,12.012 10.833,17.469 3.416,4.412 6.641,8.973 9.883,13.516 1.288,1.805 2.674,3.598 3.052,5.883 -3.002,1.949 -16.683,7.514 -21.607,8.796 -9.2,-7.38 -30.538,-33.491 -33.762,-42.334 M 684.66,555.538 c 2.953,4.476 3.982,8.601 6.532,12.09 2.091,-1.163 4.027,-2.242 5.964,-3.316 1.957,-1.085 3.901,-2.195 5.879,-3.237 1.937,-1.02 3.722,-2.38 5.858,-3.007 1.657,1.571 3.464,2.666 4.131,4.816 -1.523,2.975 -3.516,5.342 -5.999,7.465 -5.252,4.492 -11.49,6.812 -17.943,8.735 -3.707,1.105 -7.547,1.418 -11.381,1.19 -3.99,-0.238 -8.014,-0.69 -11.424,-3.065 -3.415,-2.377 -6.808,-4.891 -9.095,-8.421 -2.512,-3.878 -4.992,-7.836 -6.911,-12.023 -2.658,-5.796 -4.75,-11.848 -7.148,-17.765 -0.639,-1.577 -0.714,-3.034 -0.043,-4.613 2,-4.705 3.925,-9.441 5.908,-14.153 0.177,-0.42 0.565,-0.75 0.988,-1.294 4.291,1.567 8.492,3.278 12.275,5.914 -0.146,2.318 -0.37,4.384 -0.384,6.45 -0.031,4.634 0.014,9.277 2.04,13.604 2.79,5.96 6.436,11.364 10.845,16.234 0.826,0.912 1.989,1.659 3.143,2.11 2.867,1.123 5.095,-0.087 5.86,-3.029 0.306,-1.175 0.468,-2.388 0.905,-4.685 M -122.205,361.642 c 3.19,-3.212 5.792,-5.295 8.236,-7.538 2.357,-2.164 4.748,-4.291 7.102,-6.458 2.471,-2.276 4.93,-4.566 7.37,-6.875 2.324,-2.2 4.631,-4.417 6.917,-6.656 2.4,-2.351 4.783,-4.719 7.14,-7.113 2.357,-2.393 4.695,-4.807 7.003,-7.248 2.198,-2.325 4.315,-4.726 6.523,-7.042 2.276,-2.388 4.085,-5.246 6.949,-7.332 1.006,0.855 1.909,1.508 2.673,2.294 5.014,5.161 10,10.35 14.991,15.533 0.444,0.46 0.912,0.906 1.294,1.415 2.987,3.976 2.443,8.866 -1.455,11.924 -1.369,1.073 -2.915,2.036 -4.532,2.654 -4.319,1.653 -8.701,3.149 -13.094,4.598 -4.705,1.552 -9.474,2.913 -14.175,4.478 -5.456,1.816 -10.857,3.795 -16.302,5.645 -4.082,1.387 -8.31,2.413 -12.26,4.097 -3.556,1.515 -7.201,2.607 -10.901,3.596 -0.717,0.192 -1.529,0.028 -3.479,0.028 m -39.233,-3.875 c -0.791,-0.138 -1.73,-0.26 -2.65,-0.468 -13.246,-2.991 -26.491,-5.987 -39.728,-9.015 -0.704,-0.161 -1.337,-0.628 -2.143,-1.02 0.405,-0.819 0.638,-1.406 0.966,-1.934 8.264,-13.301 16.538,-26.596 24.818,-39.888 0.078,-0.126 0.239,-0.209 0.376,-0.288 0.129,-0.075 0.276,-0.118 0.704,-0.294 11.546,9.624 23.207,19.339 34.854,29.07 0.468,0.391 0.809,0.934 1.172,1.362 -2.122,3.463 -15.168,19.429 -18.369,22.475 m 834.98,232.289 c 3.938,0 7.282,0.026 10.626,-0.006 5.464,-0.051 10.821,-0.66 15.804,-3.154 0.568,-0.284 1.176,-0.497 1.78,-0.705 7.164,-2.465 12.925,-6.782 17.255,-13.009 0.42,-0.604 0.962,-1.123 1.46,-1.697 4.828,4.777 12.564,16.922 14.288,22.392 -3.879,3.388 -7.829,6.837 -12.027,10.503 1.183,1.443 2.137,2.678 3.165,3.849 6.638,7.558 13.299,15.095 19.924,22.665 0.417,0.476 1.356,0.976 0.453,1.961 -10.557,-5.323 -21.284,-10.195 -32.321,-14.366 -3.72,-1.405 -7.66,-2.497 -11.012,-4.535 -3.504,-2.133 -6.412,-5.244 -9.603,-7.899 -0.827,-0.689 -1.736,-1.277 -2.73,-2 -1.292,1.914 -2.415,3.581 -3.527,5.23 -7.413,-1.736 -14.541,-3.399 -21.663,-5.087 -0.436,-0.103 -0.825,-0.411 -1.232,-0.622 1.379,-3.178 5.585,-9.224 9.36,-13.52 M 360.229,211.613 c -0.228,-2.981 -0.457,-5.834 -0.662,-8.687 -0.102,-1.433 0.114,-2.953 -0.294,-4.288 -1.437,-4.708 -0.815,-9.533 -1.056,-14.303 -0.108,-2.134 0.595,-4.103 1.678,-5.921 1.574,-2.646 3.468,-5.116 6.209,-6.534 5.669,-2.935 11.448,-5.665 17.235,-8.364 2.594,-1.209 5.345,-2.076 7.973,-3.215 2.637,-1.144 5.167,-2.545 7.827,-3.626 2.11,-0.859 4.194,0.608 4.373,2.929 0.06,0.778 -0.142,1.583 -0.27,2.368 -1.44,8.837 -2.851,17.678 -4.369,26.502 -0.294,1.707 -0.81,3.44 -1.57,4.991 -4.794,9.759 -9.677,19.473 -14.561,29.188 -0.402,0.801 -1.025,1.491 -1.709,2.463 -7.036,-4.567 -13.852,-8.991 -20.804,-13.503 m -502.45,-27.195 c 2.835,0.302 5.218,0.479 7.573,0.846 0.901,0.139 1.865,0.545 2.58,1.109 4.259,3.361 8.693,6.557 12.585,10.311 2.487,2.399 5.117,3.546 8.391,3.903 6.192,0.676 12.372,1.46 18.554,2.227 1.06,0.132 2.302,-0.026 2.956,1.564 -1.26,3.045 -2.613,6.275 -3.921,9.523 -0.169,0.419 -0.108,0.93 -0.147,1.332 0.805,1.223 1.556,2.366 2.212,3.362 -0.349,0.605 -0.457,0.928 -0.672,1.145 -7.089,7.124 -13.912,14.531 -22.34,20.195 -2.538,1.705 -5.101,1.991 -7.667,0.701 -1.963,-0.987 -3.721,-2.443 -5.422,-3.867 -1.834,-1.536 -3.44,-3.339 -5.241,-4.916 -6.726,-5.89 -13.498,-11.728 -20.233,-17.608 -0.582,-0.509 -1.014,-1.187 -1.656,-1.954 3.675,-9.393 7.687,-18.577 12.448,-27.873 m 781.035,452.89 c 4.375,-5.915 8.725,-11.797 13.034,-17.622 4.558,2.181 10.024,6.048 12.274,8.634 -0.065,0.416 -0.054,0.916 -0.226,1.343 -2.148,5.333 -2.41,10.873 -1.794,16.497 0.277,2.524 0.466,5.027 1.592,7.437 2.859,6.117 6.537,11.661 11.041,16.661 0.728,0.807 1.703,1.475 2.689,1.95 2.727,1.315 4.701,0.357 6.257,-2.296 3.793,-6.465 7.763,-12.826 11.682,-19.217 0.151,-0.246 0.506,-0.367 1.072,-0.758 4.854,3.384 9.842,6.813 14.759,10.344 0.721,0.518 1.241,1.453 1.61,2.302 1.86,4.274 1.845,8.378 -1.368,12.1 -1.145,1.325 -2.122,2.851 -3.453,3.95 -8.951,7.396 -19.219,11.209 -30.891,10.756 -3.67,-0.142 -7.382,-0.727 -10.506,-2.853 -3.7,-2.518 -7.335,-5.24 -9.766,-9.079 -2.47,-3.903 -4.997,-7.85 -6.809,-12.073 -3.895,-9.074 -7.346,-18.339 -11.197,-28.076 m -6.346,-74.272 c -2.009,-2.668 -4.658,-4.5 -6.943,-6.688 -2.421,-2.321 -4.885,-4.607 -7.454,-6.763 -2.395,-2.012 -4.344,-4.613 -7.433,-6.065 -1.748,2.1 -3.37,4.065 -5.01,6.016 -2.158,2.568 -4.313,5.14 -6.518,7.667 -0.256,0.293 -1.04,0.555 -1.208,0.407 -0.419,-0.366 -0.638,-0.969 -0.901,-1.495 -0.058,-0.116 0.036,-0.308 0.061,-0.465 0.987,-6.083 0.607,-12.051 -1.208,-17.967 -1.538,-5.008 -4.038,-9.547 -7.939,-12.87 -6.443,-5.487 -13.931,-8.139 -22.644,-6.637 -4.062,0.7 -7.113,2.64 -9.603,5.73 -0.682,0.844 -1.277,1.759 -1.882,2.599 -3.816,-1.71 -3.833,-1.713 -3.335,-4.809 0.637,-3.958 2.018,-7.657 3.67,-11.234 14.144,-3.572 28.225,-4.869 42.525,-4.272 2.948,0.124 5.041,1.144 7.08,3.257 7.541,7.812 14.76,15.965 23.26,22.804 1.911,1.538 3.217,3.517 4.106,5.8 2.661,6.835 5.29,13.685 8.047,20.482 1.736,4.279 3.315,8.65 6.074,12.443 0.539,0.741 0.91,1.606 1.383,2.457 -2.964,4.201 -5.802,8.225 -8.607,12.201 -3.822,-1.859 -11.406,-7.205 -14.367,-10.099 2.583,-4.32 6.23,-7.969 8.846,-12.499 M -157.916,221.739 c 0.614,0.311 0.953,0.394 1.169,0.604 7.112,6.896 14.885,13.075 21.747,20.258 3.021,3.162 5.481,6.621 7.717,10.321 2.041,3.377 2.445,6.935 1.156,10.576 -1.088,3.071 -1.549,6.173 -1.493,9.398 0.016,0.954 0.058,1.968 -0.225,2.855 -1.426,4.456 -1.764,9.081 -2.284,13.682 -0.179,1.574 -0.459,3.12 -1.911,4.407 -4.513,-0.994 -9.059,-1.864 -13.534,-3.01 -8.845,-2.264 -17.484,-5.137 -25.547,-9.511 -1.647,-0.892 -3.507,-1.555 -4.563,-3.11 2.345,-13.305 13.58,-49.076 17.768,-56.47 m 371.015,80.576 c 0.855,-1.595 1.727,-3.294 2.66,-4.958 11.803,-21.06 23.578,-42.136 35.465,-63.15 1.79,-3.163 3.05,-6.057 1.86,-9.87 -0.977,-3.127 0.446,-5.071 3.508,-6.399 0.293,-0.126 0.595,-0.241 0.901,-0.329 3.708,-1.058 7.18,-2.675 10.605,-4.418 0.991,-0.503 2.074,-0.827 3.107,-1.252 3.84,-1.575 7.685,-3.138 11.51,-4.75 1.619,-0.681 3.133,-1.674 4.799,-2.173 4.773,-1.432 9.29,-3.433 13.709,-5.697 0.635,-0.326 1.368,-0.867 2.158,0.129 -0.366,0.647 -0.735,1.344 -1.146,2.016 -5.746,9.423 -11.599,18.765 -18.682,27.28 -3.168,3.81 -6.034,7.87 -9.16,11.716 -2.316,2.848 -4.74,5.62 -7.287,8.26 -1.796,1.862 -3.308,3.856 -4.566,6.112 -3.737,6.703 -7.608,13.331 -11.319,20.049 -1.196,2.164 -2.555,4.015 -4.868,5.064 -2.702,1.227 -4.575,3.304 -6.239,5.752 -6.293,9.258 -12.716,18.427 -19.109,27.617 -0.686,0.987 -1.229,2.175 -2.794,2.769 -1.686,-4.54 -3.282,-8.84 -5.112,-13.768 m 340.819,315.222 c 2.08,-0.383 3.312,-0.711 4.564,-0.825 14.497,-1.313 29.013,-2.131 43.58,-2.031 2.962,0.02 5.301,0.917 7.238,3.006 3.583,3.867 7.441,7.535 10.597,11.727 5.474,7.27 10.456,14.871 13.558,23.577 2.247,6.305 4.978,12.437 7.43,18.671 2.986,7.591 7.587,13.989 13.886,19.172 0.589,0.485 1.1,1.065 1.994,1.939 -0.96,0 -1.421,0.095 -1.828,-0.013 -12.602,-3.342 -24.303,-8.824 -35.697,-15.037 -1.177,-0.642 -1.908,-1.595 -2.401,-2.857 -1.511,-3.869 -3.098,-7.71 -4.688,-11.548 -0.477,-1.151 -1.063,-2.258 -1.551,-3.286 -4.315,-0.819 -8.56,0.054 -12.704,-1.342 -0.125,-0.786 -0.324,-1.553 -0.353,-2.327 -0.25,-6.539 -2.119,-12.491 -5.851,-17.943 -4.738,-6.922 -13.069,-11.547 -21.523,-11.393 -2.994,0.055 -5.982,0.479 -9.151,0.749 -2.535,-2.935 -4.689,-6.232 -7.1,-10.239 M -23.667,261.713 c -0.043,0.585 0.007,0.927 -0.106,1.2 -0.181,0.436 -0.39,0.917 -0.727,1.223 -4.049,3.655 -7.455,7.861 -10.654,12.255 -0.465,0.638 -1.142,1.119 -1.67,1.717 -0.737,0.836 -1.551,1.64 -2.114,2.586 -3.326,5.594 -8.292,9.703 -12.843,14.166 -3.179,3.119 -6.913,3.184 -10.371,0.446 -1.496,-1.185 -2.771,-2.649 -4.156,-3.975 -2.308,-2.21 -4.388,-4.758 -6.994,-6.534 -3.616,-2.464 -6.619,-5.511 -9.693,-8.53 -1.823,-1.791 -3.476,-3.848 -5.561,-5.261 -5.638,-3.82 -9.922,-9.03 -14.598,-13.817 -3.744,-3.833 -3.671,-8.061 0.065,-11.912 3.769,-3.885 7.369,-7.976 12.094,-10.861 1.876,-1.145 3.385,-2.895 5.045,-4.387 1.517,-1.363 2.711,-3.103 4.717,-4.186 1.308,1.046 2.569,2.007 3.778,3.028 5.984,5.059 11.993,10.088 17.908,15.228 2.083,1.81 4.35,3.196 6.854,4.314 8.318,3.712 16.609,7.487 24.901,11.258 1.428,0.649 2.813,1.39 4.125,2.042 m -5.459,187.617 0,0.023 c -0.479,0 -0.959,0.012 -1.438,-0.002 -6.281,-0.186 -10.862,-5.118 -10.299,-11.277 0.274,-3.004 0.405,-6.061 1.676,-8.905 0.385,-0.86 0.538,-1.836 0.712,-2.775 1.018,-5.478 1.714,-11.037 3.084,-16.424 1.894,-7.445 3.526,-14.896 3.98,-22.58 0.056,-0.948 0.296,-1.896 0.54,-2.82 0.898,-3.398 1.679,-6.839 2.805,-10.161 0.811,-2.397 1.94,-4.726 3.219,-6.915 1.362,-2.331 3.615,-2.661 5.63,-0.804 1.743,1.607 3.3,3.466 4.701,5.387 3.194,4.378 6.35,8.793 9.324,13.322 3.937,5.997 8.242,11.768 11.133,18.422 0.804,1.847 2.373,3.369 3.633,5.009 1.066,1.388 2.229,2.702 3.283,4.099 1.247,1.652 2.504,3.305 3.608,5.051 1.358,2.149 2.854,4.281 3.763,6.624 1.295,3.34 0.703,6.583 -1.72,9.39 -5.313,6.157 -12.371,8.865 -20.139,9.908 -2.384,0.32 -4.763,0.454 -6.985,1.414 -5.633,2.433 -11.927,1.902 -17.648,3.972 -0.848,0.307 -1.903,0.042 -2.862,0.042 M -49.869,347.477 c 2.738,0.008 4.145,0.744 5.54,3.016 1.285,2.092 1.141,4.228 0.107,6.392 -1.721,3.602 -3.382,7.234 -5.102,10.837 -1.857,3.889 -3.67,7.803 -5.656,11.626 -1.912,3.68 -3.937,7.306 -6.06,10.869 -3.992,6.702 -6.981,13.999 -11.992,20.105 -0.998,1.215 -1.632,2.733 -2.4,4.13 -1.384,2.516 -2.685,5.08 -4.134,7.558 -0.801,1.37 -1.688,2.745 -2.785,3.876 -4.003,4.127 -10.89,3.293 -14.015,-1.566 -5.696,-8.856 -11.434,-17.684 -17.13,-26.539 -2.677,-4.161 -5.645,-8.184 -7.857,-12.584 -2.741,-5.453 -1.692,-10.998 3.936,-13.935 1.827,-0.953 3.774,-1.762 5.756,-2.318 8.305,-2.328 16.457,-5.125 24.375,-8.499 6.913,-2.947 14.018,-5.306 21.077,-7.824 3.001,-1.071 5.963,-2.251 8.958,-3.342 2.392,-0.871 4.735,-1.967 7.382,-1.802 m 117.544,18.145 c -0.303,1.254 -0.407,2.229 -0.771,3.093 -1.668,3.968 -3.175,8.027 -5.168,11.829 -5.043,9.624 -10.332,19.118 -15.488,28.683 -1.992,3.697 -4.367,7.044 -7.73,9.65 -3.281,2.542 -5.974,2.569 -8.967,-0.217 -3.53,-3.284 -6.69,-6.857 -8.718,-11.326 -0.722,-1.59 -1.674,-3.089 -2.642,-4.55 -5.02,-7.587 -9.713,-15.396 -15.353,-22.563 -0.684,-0.869 -1.15,-1.911 -1.707,-2.879 -4.293,-7.463 -8.092,-15.254 -14.263,-21.47 -0.335,-0.338 -0.647,-0.721 -0.881,-1.133 -1.377,-2.434 -1.592,-5.029 0.163,-7.218 3.769,-4.697 6.024,-7.131 13.088,-4.484 1.347,0.505 2.689,1.034 4.063,1.451 1.675,0.509 3.36,1.165 5.077,1.307 4.355,0.362 8.444,1.675 12.561,2.977 5.624,1.78 11.161,3.921 17.099,4.499 5.391,0.524 10.783,1.071 16.185,1.466 2.112,0.154 4.24,0.257 5.897,1.627 2.08,1.719 4.084,3.574 5.859,5.601 0.892,1.018 1.203,2.543 1.696,3.657 m -19.616,83.917 c -2.243,-2.414 -3.773,-5.385 -5.064,-8.466 -1.628,-3.885 -1.541,-7.727 0.505,-11.527 3.331,-6.186 6.226,-12.619 10.621,-18.185 0.491,-0.622 0.886,-1.33 1.268,-2.03 3.059,-5.613 6.147,-11.211 9.133,-16.862 1.117,-2.114 2.066,-4.325 2.959,-6.546 3.147,-7.815 7.371,-14.86 13.967,-20.313 2.052,-1.696 4.201,-2.877 6.944,-2.693 2.708,0.18 5.452,0.117 8.116,0.553 2.502,0.408 4.887,1.496 7.383,1.984 3.751,0.733 7.415,1.801 11.198,2.468 5.94,1.049 11.693,3.088 17.667,4.13 1.772,0.309 3.244,1.15 4.074,3.05 -0.923,0.999 -1.765,1.95 -2.648,2.861 -15.93,16.442 -32.604,32.079 -50.361,46.544 -10.051,8.188 -20.424,15.94 -31.345,22.936 -1.316,0.844 -2.496,2.049 -4.417,2.096 m 213.06,-241.021 c -0.239,-0.19 -0.479,-0.379 -0.719,-0.569 0.493,-1.116 0.919,-2.267 1.487,-3.344 3.203,-6.084 6.425,-12.16 9.675,-18.22 0.841,-1.569 1.486,-3.123 1.472,-4.977 -0.064,-8.96 -0.081,-17.92 -0.036,-26.879 0.016,-3.077 -0.973,-5.317 -3.524,-7.353 -8.753,-6.983 -17.317,-14.205 -25.86,-21.446 -3.203,-2.713 -6.584,-5.035 -10.463,-6.654 -4.298,-1.795 -8.387,-3.955 -11.73,-7.302 -3.001,-3.006 -6.571,-5.002 -10.647,-6.209 -2.134,-0.631 -4.276,-1.393 -5.8,-3.2 -1.355,-1.606 -3.119,-1.991 -5.157,-1.985 -6.399,0.02 -12.8,-0.014 -19.197,-0.181 -2.25,-0.058 -3.956,0.672 -5.595,2.143 -1.633,1.465 -3.141,3.15 -5.417,4.207 -1.252,-2.805 -1.662,-5.596 -1.425,-8.468 0.475,-5.738 1.013,-11.472 1.579,-17.202 0.234,-2.367 0.607,-4.721 0.957,-7.394 1.109,0.4 1.992,0.665 2.832,1.03 8.827,3.832 17.028,8.839 25.205,13.835 5.878,3.591 11.904,6.861 18.002,10.035 8.646,4.5 17.577,8.48 25.674,13.994 0.787,0.536 1.713,0.865 2.544,1.343 5.399,3.108 10.791,6.23 16.185,9.347 3.456,1.997 6.89,4.034 10.377,5.976 3.769,2.1 7.676,3.962 11.364,6.19 7.385,4.461 14.526,9.334 22.339,13.064 1.155,0.551 2.254,1.211 3.392,1.796 6.112,3.138 11.564,7.418 17.877,10.229 2.503,1.114 4.49,3.061 6.194,5.214 2.816,3.558 2.448,7.305 -1.131,10.025 -1.64,1.245 -3.511,2.22 -5.366,3.142 -4.869,2.421 -9.734,4.807 -14.261,7.88 -2.758,1.874 -5.764,3.423 -9.163,4.003 -5.068,0.863 -9.908,2.466 -14.525,4.734 -7.608,3.738 -15.215,7.473 -22.829,11.197 -1.422,0.696 -2.872,1.334 -4.31,1.999 M 201.306,68.631 c -0.823,0.194 -1.266,0.401 -1.703,0.387 -7.187,-0.235 -14.375,-0.447 -21.556,-0.806 -1.205,-0.061 -2.503,-0.587 -3.542,-1.242 -5.669,-3.576 -11.264,-7.271 -16.9,-10.901 -1.61,-1.037 -3.184,-2.204 -4.932,-2.934 -2.301,-0.962 -3.687,-2.502 -4.049,-4.904 -0.439,-2.913 -2.146,-4.758 -4.462,-6.455 C 133.073,33.651 122.204,25.224 111.011,17.247 104.917,12.904 99.545,8.125 96.292,1.273 96.223,1.13 96.108,1.01 96.038,0.866 95.161,-0.931 93.693,-2.092 92.01,-3.1 88.446,-5.235 84.926,-7.445 81.408,-9.657 c -0.769,-0.485 -1.454,-1.103 -2.39,-1.823 0.882,-0.915 1.49,-1.617 2.172,-2.238 13.123,-11.937 26.251,-23.869 39.394,-35.784 0.543,-0.492 1.241,-0.812 1.833,-1.191 3.801,4.645 77.111,115.467 78.889,119.324 m 193.874,81.331 c -0.98,0.605 -1.749,1.11 -2.545,1.569 -7.793,4.488 -16.511,6.848 -24.606,10.658 -2.558,1.205 -5.46,2 -8.274,2.282 -8.197,0.819 -10.666,0.079 -17.685,-4.293 -0.813,-0.507 -1.596,-1.065 -2.38,-1.619 -5.357,-3.794 -10.889,-7.282 -16.868,-10.045 -2.168,-1.003 -4.204,-2.294 -6.279,-3.491 -2.628,-1.515 -5.206,-3.12 -7.856,-4.592 -4.192,-2.329 -8.614,-4.298 -12.595,-6.936 -5.093,-3.374 -10.508,-6.078 -15.923,-8.823 -0.57,-0.289 -1.176,-0.536 -1.687,-0.91 -5.458,-3.993 -11.662,-6.634 -17.596,-9.765 -4.38,-2.31 -8.756,-4.641 -13.041,-7.12 -4.971,-2.876 -9.658,-6.298 -14.795,-8.821 -10.201,-5.013 -19.629,-11.387 -29.785,-16.455 -2.289,-1.142 -4.574,-2.293 -6.822,-3.512 -0.672,-0.363 -1.212,-0.97 -2.212,-1.793 1.123,0.054 1.601,0.039 2.067,0.105 5.383,0.762 10.756,1.589 16.148,2.275 1.512,0.192 3.15,0.852 4.757,-0.444 1.578,-5.409 2.504,-11.081 3.072,-16.798 1.435,-14.431 0.346,-28.738 -2.319,-42.956 -1.681,-8.971 -4.007,-17.773 -6.737,-26.475 -0.358,-1.142 -0.566,-2.33 -1.063,-4.423 2.098,1.672 3.478,2.709 4.791,3.826 12.543,10.681 25.094,21.352 37.606,32.07 37.897,32.462 75.746,64.981 112.879,98.323 8.327,7.476 16.512,15.113 24.712,22.732 1.717,1.596 3.557,3.131 5.036,5.431 m -156.484,157.18 c 0.757,2.778 -0.395,4.811 0.81,6.501 2.871,0.296 2.916,0.33 4.137,-1.328 2.832,-3.842 5.616,-7.72 8.44,-11.615 -0.419,-1.635 -0.921,-3.319 -1.267,-5.035 -0.219,-1.085 -0.337,-2.225 -0.264,-3.324 0.085,-1.265 0.351,-2.532 1.469,-3.411 1.013,-0.796 2.101,-0.53 3.213,-0.379 0.261,0.036 0.562,-0.23 1.058,-0.452 0.753,-1.555 1.563,-3.284 2.422,-4.989 2.873,-5.709 5.776,-11.403 8.641,-17.116 1.907,-3.8 4.506,-6.96 8.172,-9.194 0.236,-0.143 0.322,-0.533 0.476,-0.809 -0.912,-1.3 -1.018,-1.751 -0.242,-2.239 1.864,-1.172 3.797,-2.235 5.693,-3.337 -0.346,-3.727 -0.362,-3.741 1.807,-6.515 1.28,-1.637 2.603,-3.244 3.943,-4.833 3.919,-4.645 7.878,-9.258 11.767,-13.929 0.685,-0.824 1.717,-2.013 1.53,-2.772 -0.387,-1.566 0.353,-2.456 1.118,-3.432 2.463,-3.143 4.876,-6.332 7.495,-9.34 1.797,-2.065 3.339,-4.134 4.299,-6.781 1.221,-3.366 3.072,-6.417 7.345,-6.601 0.443,-0.019 0.865,-0.381 1.31,-0.549 3.203,-1.204 3.506,-1.051 4.743,2.358 0.161,0.443 0.335,0.88 0.546,1.432 2.073,1.033 4.512,1.769 5.365,4.338 0.714,2.153 2.275,3.356 4.265,4.217 5.784,2.5 10.79,6.197 15.573,10.23 0.977,0.825 2.003,1.592 2.995,2.402 1.114,0.909 2.448,1.67 3.254,2.803 0.777,1.095 1.003,2.581 1.496,3.96 5.452,0.453 9.074,3.87 12.678,7.309 0.563,0.536 0.97,1.315 1.62,1.668 3.393,1.846 6.264,4.29 8.759,7.216 0.178,0.209 0.574,0.231 0.883,0.346 1.805,-0.37 3.622,-0.743 5.786,-1.187 l 0,10.165 c 2.498,1.563 4.749,3.084 7.106,4.418 2.419,1.369 4.331,3.194 5.996,5.406 2.788,3.705 5.721,7.301 8.597,10.94 1.093,1.381 2.228,2.698 2.015,4.691 -0.131,1.231 0.742,2.088 1.692,2.724 1.454,0.972 2.004,2.427 2.347,4.018 0.337,1.563 0.666,3.126 0.956,4.697 0.05,0.271 -0.112,0.58 -0.227,1.099 -0.506,0.105 -1.11,0.213 -1.704,0.358 -0.735,0.18 -1.462,0.392 -2.1,0.564 -0.403,3.72 -0.357,3.703 0.729,6.707 0.429,1.187 0.616,2.463 0.891,3.702 0.129,0.582 0.029,1.307 1.153,1.269 1.847,-2.008 3.714,-4.192 5.752,-6.203 1.494,-1.474 2.017,-3.056 1.836,-5.15 -0.187,-2.172 -0.788,-4.406 -0.021,-6.519 0.305,-0.101 0.446,-0.179 0.591,-0.189 0.316,-0.021 0.647,-0.067 0.95,-10e-4 3.272,0.725 6.486,1.716 9.567,-0.837 0.997,-0.827 2.624,-0.088 3.036,1.373 0.49,1.733 1.439,2.745 3.008,3.419 1.536,0.66 2.725,1.828 3.242,3.375 0.786,2.351 2.485,3.587 4.586,4.544 5.277,2.401 10.03,5.613 14.44,9.361 1.341,1.137 2.771,2.168 4.138,3.275 1.117,0.902 2.451,1.675 3.227,2.818 0.757,1.115 0.929,2.627 1.419,4.156 4.929,-0.094 8.218,3.074 11.645,5.931 0.841,0.7 1.302,1.964 2.214,2.453 3.7,1.985 6.696,4.771 9.214,7.727 2.357,0.479 4.114,-1.619 6.36,-0.627 0.129,3.243 0.259,6.488 0.396,9.88 2.829,1.754 5.638,3.589 8.538,5.266 3.128,1.809 4.458,5.374 7.136,7.321 1.584,0.104 1.615,-2.154 3.338,-1.707 0.218,1.622 0.426,3.164 0.667,4.96 1.632,-0.665 2.98,-1.215 4.487,-1.829 0.321,1.765 0.584,3.174 0.834,4.586 1.17,6.594 1.169,6.595 4.322,11.36 -0.606,0.669 -1.218,1.343 -1.71,1.884 0.041,1.96 1.221,3.585 0.383,5.465 -2.437,1.222 -5.265,-0.765 -7.874,0.567 2.309,3.767 6.832,3.854 9.898,6.593 -1.654,0.534 -2.981,0.963 -4.52,1.46 0.193,0.95 0.338,1.712 0.504,2.469 0.523,2.383 0.373,4.736 -0.042,7.135 -0.565,3.272 -2.688,6.188 -2.183,9.701 0.037,0.262 -0.244,0.576 -0.39,0.859 -1.159,2.248 -2.322,4.493 -3.685,7.13 -1.879,-0.701 -2.892,0.896 -3.873,2.345 -2.508,3.707 -5.052,7.4 -7.332,11.246 -2.96,4.994 -6.338,9.583 -10.85,13.298 -1.729,1.425 -3.198,3.112 -3.978,5.454 0.459,1.107 1.108,2.237 1.389,3.452 0.388,1.686 0.854,3.481 0.646,5.149 -0.313,2.526 -1.2,5.057 -3.031,6.906 -1.517,1.532 -2.44,3.33 -3.402,5.166 -0.356,0.68 -0.821,1.304 -1.267,2.001 -2.195,-0.119 -4.234,-0.229 -6.313,-0.342 l 0,3.26 c -0.427,0.317 -0.656,0.566 -0.939,0.687 -2.941,1.252 -5.939,2.383 -8.827,3.745 -4.708,2.221 -9.477,3.833 -14.773,2.561 -0.304,-0.073 -0.64,-0.008 -0.956,-0.05 -1.546,-0.203 -2.828,0.311 -3.9,1.406 -0.658,0.672 -1.309,1.349 -2.058,2.122 0.125,3.396 0.209,6.747 0.388,10.093 0.105,1.954 0.079,3.902 -0.984,5.577 -1.107,1.742 -1.261,3.528 -0.671,5.243 -1.844,1.92 -3.679,3.496 -5.114,5.378 -8.338,10.934 -16.576,21.947 -24.873,32.914 -0.767,1.014 -1.636,1.977 -2.581,2.826 -4.538,4.079 -9.46,7.618 -14.895,10.425 -5.023,2.593 -10.336,4.264 -15.922,5.054 -3.849,0.544 -7.589,0.209 -11.34,-1.013 -17.711,-5.767 -33.521,-15.016 -48.179,-26.309 -15.204,-11.714 -30.247,-23.636 -45.35,-35.479 -1.108,-0.868 -2.139,-1.835 -3.391,-2.916 0.864,-1.379 1.566,-2.605 2.368,-3.761 4.378,-6.306 8.807,-12.576 13.16,-18.899 1.174,-1.705 2.172,-3.535 3.191,-5.341 0.264,-0.467 0.726,-1.091 -0.226,-1.647 -1.125,0.753 -2.299,1.563 -3.498,2.338 -3.97,2.564 -8.263,4.161 -13.032,4.352 -7.384,0.297 -14.586,-0.139 -21.685,-2.765 -15.758,-5.829 -30.083,-14.154 -43.34,-24.322 -15.864,-12.168 -31.52,-24.605 -47.255,-36.939 -0.848,-0.665 -1.594,-1.46 -2.615,-2.405 23.189,-32.4 46.26,-64.637 69.336,-96.868 0.432,-0.602 0.933,-1.153 1.883,-2.319 M 1.198,251.615 c -2.441,1.036 -4.543,1.823 -6.547,2.808 -2.146,1.053 -4.255,1.197 -6.5,0.418 -2.866,-0.995 -5.844,-1.714 -8.626,-2.901 -9.117,-3.887 -18.167,-7.934 -27.244,-11.917 -4.71,-2.066 -9.189,-4.431 -12.168,-8.887 -0.525,-0.786 -1.279,-1.43 -1.971,-2.094 -5.08,-4.871 -10.175,-9.728 -15.259,-14.596 -1.132,-1.084 -2.24,-2.193 -3.411,-3.342 2.141,-4.753 5.119,-8.744 7.117,-13.29 -3.274,-2.958 -6.883,-4.461 -10.987,-4.773 -3.349,-0.255 -6.71,-0.353 -10.056,-0.63 -2.22,-0.183 -4.455,-0.413 -6.628,-0.883 -3.243,-0.7 -6.438,-1.63 -9.845,-2.51 -0.395,-0.451 -1.012,-0.993 -1.433,-1.659 -1.907,-3.017 -4.786,-4.563 -8.058,-5.654 -3.176,-1.059 -6.293,-2.298 -8.939,-3.274 -0.936,-1.655 -1.386,-3.093 -2.337,-4.015 -3.56,-3.449 -7.258,-6.76 -10.973,-10.044 -0.665,-0.588 -1.753,-1.263 -2.479,-1.109 -2.021,0.427 -3.336,-0.509 -4.75,-1.629 -13.916,-11.03 -27.856,-22.029 -41.769,-33.065 -0.699,-0.555 -1.201,-1.359 -1.772,-2.02 0.442,-0.787 0.732,-1.358 1.07,-1.897 14.348,-22.922 28.968,-45.659 45.925,-66.78 1.929,-2.403 2.846,-4.858 2.767,-7.891 -0.052,-1.982 -0.182,-4.047 0.616,-6.184 3.617,1.035 6.367,3.433 9.858,4.3 1.267,-2.021 2.435,-3.882 3.583,-5.713 0.7,0.156 1.168,0.232 1.62,0.367 0.59,0.176 1.167,0.397 1.985,0.681 0.987,-1.35 1.949,-2.594 2.834,-3.891 5.499,-8.061 10.852,-16.225 16.521,-24.163 2.891,-4.047 5.558,-8.202 7.875,-12.578 1.974,-3.727 4.252,-7.13 7.917,-9.403 1.738,-1.078 2.569,-2.722 3.157,-4.633 0.36,-1.17 0.962,-2.422 1.83,-3.241 1.208,-1.138 1.542,-2.344 1.34,-3.864 -0.267,-2.012 0.421,-3.763 1.456,-5.443 0.922,-1.497 1.825,-3.014 2.62,-4.58 0.901,-1.779 2.234,-3.05 3.915,-4.091 1.468,-0.909 3.146,-1.59 3.962,-2.779 0.368,-2.895 0.689,-5.412 0.959,-7.536 1.516,-1.379 2.882,-2.28 3.793,-3.515 2.75,-3.731 5.389,-7.548 7.947,-11.413 2.779,-4.199 5.971,-7.907 10.634,-10.106 0.258,-0.121 0.409,-0.468 0.732,-0.857 -0.485,-0.846 -1.003,-1.748 -1.523,-2.654 1.588,-2.233 2.992,-4.379 4.576,-6.383 1.656,-2.094 2.723,-4.697 5.209,-6.364 6.238,4.894 12.605,9.491 18.478,14.65 3.411,2.997 7.075,5.301 11.13,7.142 4.567,2.075 7.748,5.546 10.058,9.912 0.508,0.958 1.072,1.885 1.636,2.874 0.992,0 1.786,0.047 2.572,-0.01 2.472,-0.181 4.255,0.852 5.71,2.831 1.704,2.317 3.626,4.474 5.394,6.746 1.048,1.347 2.404,2.507 3.057,4.428 -3.391,1.712 -5.14,4.784 -7.086,7.69 -3.113,4.653 -6.221,9.311 -9.382,13.931 -2.63,3.845 -4.501,8.071 -6.607,12.36 1.131,2.643 2.251,5.257 3.314,7.74 C 0.496,6.8 2.8,6.999 4.809,7.875 6.924,8.798 8.759,10.366 10.803,11.709 12.095,8.955 9.959,7.298 9.426,5.263 7.5,4.556 7.673,2.763 7.458,1.253 c -0.344,-2.414 0.188,-3.354 2.744,-4.227 1.036,-0.354 1.567,-0.838 2.049,-1.718 0.454,-0.829 1.046,-1.625 1.738,-2.26 0.382,-0.351 1.095,-0.339 1.817,-0.533 0.394,3 -0.162,5.661 -0.554,8.336 -0.277,1.894 -0.421,3.68 0.657,5.541 1.605,2.77 1.116,5.907 0.705,8.921 -0.098,0.721 -0.584,1.545 -1.147,2.018 -1.829,1.537 -3.749,2.973 -5.694,4.363 -0.62,0.444 -1.425,0.757 -2.375,-0.09 0.291,-1.189 0.607,-2.482 0.933,-3.813 -0.479,-0.056 -0.69,-0.145 -0.767,-0.08 -0.802,0.696 -1.583,1.416 -2.469,2.22 -2.486,-1.571 -5.011,-3.165 -7.39,-4.668 -1.852,0.796 -3.443,1.479 -4.986,2.143 -0.933,-0.691 -1.769,-1.311 -2.84,-2.105 -0.674,1.399 -1.275,2.498 -1.744,3.65 -1.328,3.261 -2.695,6.367 -5.721,8.624 -2.269,1.693 -2.517,4.355 -1.324,6.974 0.657,1.441 1.426,2.832 2.133,4.222 -6.439,4.649 -6.431,4.655 -11.702,11.98 -1.401,1.945 -2.846,3.861 -4.327,5.746 -0.789,1.004 -1.858,1.815 -2.508,2.89 -0.623,1.031 -0.868,2.29 -1.245,3.353 -3.037,0.791 -5.829,1.468 -8.59,2.253 -2.497,0.71 -4.526,0.05 -6.768,-1.254 -3.061,-1.78 -4.111,-3.892 -3.03,-7.619 0.265,-0.915 0.614,-1.708 0.182,-2.736 -0.952,-2.265 0.086,-4.091 1.767,-5.503 1.337,-1.124 2.844,-2.068 4.358,-2.951 1.782,-1.04 2.944,-2.384 2.649,-4.427 4.53,-2.081 4.981,-2.514 7.278,-6.802 1.653,-3.088 3.315,-6.171 5.046,-9.393 -0.765,-1.799 -0.25,-3.548 0.901,-5.239 1.168,-1.715 2.38,-3.422 3.329,-5.258 0.772,-1.496 0.667,-2.986 -0.709,-4.359 -4.529,-4.516 -8.966,-9.126 -13.429,-13.708 -4.422,-4.54 -9.403,-8.184 -15.622,-9.885 -0.284,-0.078 -0.512,-0.36 -0.941,-0.675 -1.187,-5.156 -4.801,-8.713 -9.015,-11.788 -2,-1.459 -3.375,-1.338 -5.052,0.434 -0.761,0.806 -1.436,1.729 -1.986,2.692 -1.424,2.494 -2.756,5.039 -4.178,7.66 1.667,2.271 0.979,4.269 -0.618,6.118 -1.782,2.062 -3.477,4.142 -4.365,6.814 -0.263,0.792 -1.202,1.475 -1.985,1.957 -2.67,1.644 -4.607,3.938 -6.15,6.602 -1.683,2.904 -3.319,5.837 -4.985,8.751 -0.632,1.105 -1.232,2.236 -1.95,3.284 -6.867,10.03 -13.759,20.043 -20.631,30.069 -0.425,0.619 -0.741,1.312 -1.211,2.155 2.802,1.596 6.028,1.993 8.45,4.663 -3.333,-0.44 -6.173,-0.882 -9.028,-1.172 -2.904,-0.294 -5.7,-1.51 -8.961,-1.344 3.465,4.151 3.465,4.152 31.208,21.761 0.253,0.161 0.595,0.182 0.739,0.223 1.424,-0.468 2.72,-0.895 3.948,-1.298 1.482,2.288 -1.432,3.18 -1.05,5.061 1.674,1.068 3.387,2.158 5.142,3.277 -2.5,2.606 -3.211,2.771 -5.326,1.237 -0.772,-0.561 -1.396,-1.33 -2.182,-1.868 -0.905,-0.621 -1.867,-1.399 -2.89,-1.558 -1.848,-0.288 -3.24,-1.31 -4.71,-2.247 -2.832,-1.805 -5.63,-3.664 -8.454,-5.483 -2.762,-1.779 -5.887,-3.007 -7.899,-5.881 -0.686,-0.98 -1.988,-1.605 -3.115,-2.185 -3.827,-1.97 -7.702,-3.847 -12.008,-5.982 -0.099,1.976 -0.715,3.277 -2.267,4.136 -0.912,0.505 -1.498,1.63 -2.181,2.515 -4.988,6.455 -10.021,12.878 -14.932,19.393 -9.349,12.401 -17.981,25.285 -25.698,38.772 -0.695,1.217 -1.322,2.472 -1.927,3.607 2.739,2.885 32.969,26.937 37.446,29.837 0.973,-0.181 2.044,-0.381 3.187,-0.594 1.006,0.875 1.984,1.69 2.925,2.548 4.138,3.773 8.305,7.515 12.374,11.36 1.591,1.503 3.271,2.488 5.513,2.354 0.275,-0.016 0.567,0.245 0.894,0.396 0.196,0.879 0.398,1.781 0.63,2.82 4.332,1.847 9.542,2.249 11.879,6.931 1.158,0.127 2.58,-0.109 2.911,0.384 1.77,2.649 4.599,2.719 7.2,3.273 6.511,1.387 13.035,1.239 19.478,-0.397 4.234,-1.075 7.981,-3.253 11.541,-5.738 7.682,-5.362 14.284,-11.799 19.618,-19.535 1.26,-1.827 2.76,-3.511 4.301,-5.115 5.369,-5.591 9.707,-11.881 13.006,-18.884 0.59,-1.253 0.96,-2.608 1.509,-4.131 -1.152,-0.495 -1.988,-0.941 -2.878,-1.217 -1.65,-0.513 -3.351,-1.35 -4.994,-1.273 -1.975,0.093 -2.438,2.274 -3.371,3.727 -0.342,0.533 -0.965,0.964 -1.57,0.438 -0.287,-0.249 -0.466,-0.925 -0.34,-1.282 0.25,-0.707 0.61,-1.495 1.168,-1.949 1.565,-1.273 2.375,-2.937 2.981,-4.445 -0.384,-2.267 -2.01,-3.176 -3.189,-4.45 -0.461,-0.498 -0.656,-1.244 -1.126,-2.186 3.294,0.132 6.136,0.175 8.329,2.691 2.122,-1.562 3.24,-3.556 3.797,-5.857 -1.639,-1.895 -2.91,-4.036 -4.768,-5.343 -2.384,-1.677 -3.648,-3.941 -4.908,-6.347 -0.593,-1.133 -1.241,-2.238 -1.918,-3.323 -0.889,-1.423 -2.141,-2.329 -3.842,-2.607 -0.69,-0.113 -1.636,0.36 -2.102,-1.058 1.979,-2.216 2.368,-5.623 4.712,-7.833 2.706,1.301 5.272,2.533 7.791,3.744 1.226,-0.892 2.203,-1.602 3.407,-2.478 0.387,0.876 0.646,1.418 0.869,1.974 1.439,3.572 4.083,5.138 7.911,4.89 4.166,-0.27 8.286,-0.809 12.222,-2.232 1.321,-0.477 2.784,-1.121 3.671,-2.135 2.279,-2.606 5.208,-3.492 8.327,-4.045 0.839,1.096 1.781,1.981 2.272,3.069 0.437,0.969 0.375,2.163 0.568,3.496 3.097,-1.925 5.578,-3.876 6.928,-6.961 1.118,-2.554 2.832,-4.251 5.721,-3.759 1.512,-2.198 2.76,-4.26 4.251,-6.129 2.761,-3.46 4.563,-7.387 5.334,-11.665 0.724,-4.018 2.389,-7.335 4.818,-10.63 7.114,-9.659 13.901,-19.558 21.768,-28.644 0.5,-0.577 0.916,-1.228 1.349,-1.815 -0.63,-0.747 -1.106,-1.312 -1.583,-1.879 C 56.806,18.581 60.325,13.718 61.895,7.898 61.417,7.589 60.926,7.183 60.368,6.925 56.694,5.23 53.518,2.825 50.529,0.142 48.268,-1.89 46.098,-4.041 43.696,-5.893 c -2.263,-1.745 -4.725,-3.255 -7.199,-4.699 -1.355,-0.79 -2.916,-1.229 -4.223,-1.762 -3.795,-8.083 -4.932,-8.958 -13.278,-10.257 -2.026,1.244 -2.703,3.372 -3.001,5.609 -0.364,2.742 -1.467,4.857 -4.109,6.002 -0.229,0.099 -0.324,0.505 -0.481,0.769 0.844,3.101 0.734,3.364 -2.203,3.59 -1.496,0.116 -3.017,-0.086 -4.612,-0.148 -0.709,1.191 -1.498,2.516 -2.532,4.251 -0.657,-1.95 -0.006,-3.27 0.09,-4.62 0.098,-1.363 -0.137,-2.75 -0.25,-4.5 0.783,-0.701 1.711,-1.879 2.92,-2.555 4.815,-2.694 7.111,-7.032 8.604,-12.099 0.708,-2.4 1.436,-4.885 2.987,-7.07 0.744,0.11 1.385,0.114 1.966,0.304 4.247,1.392 8.448,2.933 12.732,4.194 2.18,0.643 3.632,1.868 4.645,3.804 0.37,0.707 0.919,1.326 1.239,2.051 1.243,2.815 3.472,4.474 6.241,5.583 4.359,1.743 8.207,4.264 11.515,7.615 0.897,0.909 1.965,1.648 2.861,2.558 2.636,2.674 6.004,4.223 9.224,5.974 0.694,0.378 1.77,0.055 2.628,0.055 2.518,2.418 4.833,4.928 6.364,8.06 1.042,-0.064 1.832,-0.152 2.621,-0.15 0.956,0.002 1.929,-0.018 2.866,0.143 3.28,0.561 4.797,2.093 4.854,5.416 0.033,1.973 0.717,3.303 2.205,4.483 6.388,5.064 12.732,10.186 19.101,15.274 0.342,0.274 0.967,0.727 1.124,0.617 1.587,-1.115 2.336,0.376 3.258,1.044 1.941,1.406 3.872,2.85 5.649,4.454 1.122,1.011 1.96,2.34 3.454,4.175 3.083,0.624 5.842,3.241 8.585,5.988 2.445,2.448 4.513,5.344 7.96,6.714 1.08,0.429 1.889,1.689 2.672,2.686 1.481,1.886 2.824,3.88 4.284,5.783 0.768,1.003 1.516,2.127 2.533,2.811 1.947,1.309 3.203,3.058 4.202,5.106 0.91,1.869 1.908,3.696 2.922,5.51 1.104,1.975 1.866,4.011 2.106,6.307 0.298,2.857 0.911,5.68 1.357,8.524 1.165,7.423 2.323,14.847 3.449,22.277 0.107,0.707 0.52,1.573 -0.612,2.224 -1.241,-0.769 -2.554,-1.584 -3.866,-2.398 -0.48,0.406 -0.915,0.658 -1.193,1.027 -3.262,4.336 -6.589,8.627 -9.722,13.057 -3.247,4.592 -4.821,10.026 -7.204,15.055 -1.438,3.035 -2.755,6.125 -4.107,9.2 -2.188,4.975 -4.36,9.96 -6.538,14.94 -0.446,1.021 -0.999,2.034 -0.087,3.356 0.493,-0.139 1.182,-0.143 1.599,-0.483 1.854,-1.512 3.629,-3.12 5.434,-4.69 1.001,-0.87 1.525,-1.967 1.87,-3.255 1.645,-6.147 4.386,-11.634 9.596,-15.614 1.267,-0.967 2.432,-2.074 3.607,-3.158 0.813,-0.75 1.778,-1.45 2.301,-2.382 1.675,-2.983 4.116,-5.288 6.427,-7.717 5.402,-5.677 10.783,-11.372 16.212,-17.024 1.762,-1.835 3.416,-3.706 3.813,-6.45 1.85,-0.125 3.434,-0.337 5.017,-0.321 5.944,0.06 11.766,1.157 17.582,2.25 0.735,0.137 1.678,0.484 2.04,1.047 1.281,1.985 3.273,2.643 5.325,2.787 3.927,0.276 6.537,2.462 8.552,5.48 1.146,1.717 2.617,2.641 4.49,3.325 6.823,2.495 12.967,6.156 18.538,10.843 5.018,4.222 10.183,8.269 15.282,12.395 1.617,1.307 3.286,2.558 4.831,3.946 1.791,1.608 3.42,3.345 3.531,5.995 0.317,7.511 0.054,14.983 -1.165,22.39 -2.332,0.354 -2.819,2.206 -3.624,3.698 -5.767,10.698 -11.47,21.431 -17.251,32.121 -1.756,3.246 -3.231,6.568 -3.842,10.273 0.647,1.418 1.304,2.859 2.034,4.458 -0.695,1.256 -1.347,2.522 -2.077,3.742 -3.447,5.764 -6.908,11.521 -10.381,17.271 -0.833,1.379 -1.701,2.74 -1.517,4.447 0.209,1.937 -0.546,3.415 -2.051,4.576 -2.369,1.826 -3.675,4.336 -4.702,7.08 -1.514,4.049 -3.205,7.997 -6.245,11.24 -0.955,1.019 -1.444,2.474 -2.144,3.729 -5.138,9.218 -10.269,18.441 -15.427,27.648 -0.528,0.941 -1.223,1.789 -1.926,2.804 -1.858,-1.282 -3.499,-2.413 -5.211,-3.593 -2.866,4.964 -5.518,9.699 -8.308,14.35 -3.047,5.078 -6.017,10.176 -8.165,15.727 -0.558,1.44 -1.523,2.817 -2.597,3.94 -1.467,1.534 -2.71,3.143 -3.371,5.159 -0.712,2.172 -1.899,4.044 -3.482,5.672 -1.81,1.863 -3.021,4.095 -4.144,6.411 -1.034,2.131 -1.793,4.43 -3.555,6.524 -2.61,-0.279 -5.302,-0.838 -7.983,-0.787 -3.609,0.07 -6.41,-1.407 -9.165,-3.467 -3.841,-2.872 -7.818,-5.563 -11.738,-8.329 -1.69,-1.193 -3.533,-2.216 -5.048,-3.599 -9.338,-8.516 -18.606,-17.109 -27.884,-25.691 -0.685,-0.635 -1.262,-1.387 -1.879,-2.073 0.274,-0.587 0.407,-1.067 0.686,-1.434 3.676,-4.838 7.376,-9.658 11.064,-14.487 1.066,-1.396 2.186,-2.758 3.157,-4.218 4.353,-6.544 7.857,-13.548 11.029,-20.722 0.243,-0.548 1.092,-1.209 -0.03,-1.967 -0.646,0.737 -1.292,1.434 -1.894,2.169 -2.841,3.462 -5.639,6.962 -8.525,10.386 -0.689,0.817 -1.571,1.787 -2.516,1.994 -1.402,0.307 -2.234,1.143 -3.122,2.041 -3.486,3.528 -6.986,7.041 -10.435,10.605 -1.148,1.186 -2.923,2.11 -2.016,4.362 0.152,0.375 -0.461,1.145 -0.843,1.637 -3.938,5.074 -8.405,9.645 -13.321,13.771 -0.578,0.486 -1.394,1.013 -2.082,0.991 -3.331,-0.107 -6.556,-0.256 -9.566,-2.339 -13.282,-9.194 -26.701,-18.19 -40.064,-27.267 -0.91,-0.619 -1.764,-1.322 -2.709,-2.035 1.27,-2.915 -0.368,-4.625 -2.332,-6.276 -0.383,0.205 -0.787,0.43 -1.199,0.638 -0.515,0.26 -1.038,0.505 -1.582,0.768 -1.601,-1.92 -2.947,-3.719 -4.481,-5.34 -4.314,-4.554 -4.89,-9.932 -3.358,-15.644 0.697,-2.6 1.952,-5.058 3.045,-7.539 0.954,-2.166 2.167,-4.231 2.594,-6.806 -3.571,-2.13 -7.458,-3.092 -11.198,-4.807 m 681.725,508.316 c 1.4,-1.556 2.484,-2.688 3.489,-3.887 9.563,-11.397 19.164,-22.763 28.621,-34.249 1.848,-2.244 3.869,-3.379 6.738,-3.94 14.814,-2.897 29.109,-7.481 42.588,-14.339 6.521,-3.318 5.631,-1.737 7.433,-9.422 3.934,-16.785 5.287,-33.778 3.816,-50.976 -0.094,-1.111 -0.114,-2.228 -0.182,-3.609 0.951,-0.687 1.92,-1.485 2.978,-2.136 7.357,-4.524 14.738,-9.009 22.096,-13.531 1.179,-0.725 2.283,-1.571 3.776,-2.609 -1.48,-1.076 -2.565,-1.946 -3.727,-2.696 -10.884,-7.027 -21.756,-14.074 -32.695,-21.013 -2.254,-1.429 -3.811,-3.151 -4.873,-5.639 -6.651,-15.578 -15.732,-29.644 -27.006,-42.264 -2.04,-2.284 -2.973,-4.598 -3.142,-7.666 -1.128,-20.443 -2.444,-40.875 -3.707,-61.31 -0.039,-0.632 -0.165,-1.259 -0.253,-1.903 -1.78,-0.803 -3.152,0.357 -4.554,0.889 -15.99,6.076 -31.953,12.222 -47.926,18.34 -2.08,0.796 -4.179,1.538 -6.154,2.263 -6.166,-2.758 -12.14,-5.431 -18.43,-8.245 -3.03,-8.14 -5.038,-16.869 -8.253,-25.517 -1.174,0.638 -2.162,1.065 -3.034,1.664 -6.06,4.172 -12.136,8.325 -18.12,12.606 -1.934,1.384 -3.749,1.884 -6.197,1.531 -6.324,-0.914 -12.698,-1.516 -19.068,-2.044 -1.924,-0.159 -3.284,-1.034 -4.665,-2.138 -7.494,-5.997 -14.994,-11.987 -22.496,-17.975 -13.002,-10.379 -26.009,-20.753 -39.007,-31.139 -1.236,-0.987 -2.417,-2.042 -3.845,-3.254 0.852,-1.358 1.511,-2.617 2.363,-3.726 1.974,-2.565 3.352,-5.424 4.518,-8.417 1.451,-3.725 3.067,-7.387 4.421,-11.145 0.915,-2.539 2.347,-4.414 4.794,-5.647 2.28,-1.15 4.433,-2.554 6.615,-3.891 0.658,-0.402 1.226,-0.953 2.067,-1.621 -2.636,-3.213 -5.154,-6.281 -7.756,-9.452 1.827,-4.084 0.447,-7.503 -1.804,-10.807 -3.377,-4.958 -5.604,-10.404 -6.441,-16.361 -0.943,-6.719 -4.501,-12.182 -8.189,-17.711 -4.971,-0.515 -9.781,2.128 -15.016,0.498 -1.127,-3.91 -0.451,-8.019 -0.734,-12.31 1.17,-0.172 2.072,-0.435 2.968,-0.411 2.237,0.062 4.47,0.259 6.706,0.391 1.74,0.104 3.481,0.192 5.473,0.3 0.256,-1.268 0.576,-2.308 0.663,-3.366 1.182,-14.266 0.252,-28.446 -1.844,-42.569 -5.382,-36.247 -19.617,-68.677 -42.157,-97.502 -9.897,-12.658 -21.053,-24.119 -33.728,-33.985 -5.571,-4.336 -10.784,-9.021 -15.941,-13.799 C 339.506,46.56 244.919,-41.083 150.323,-128.715 c -1.858,-1.721 -3.605,-3.588 -5.831,-5.113 -34.606,32.06 -69.069,63.987 -103.597,95.975 -4.814,-1.49 -9.08,-3.665 -13.42,-5.622 -0.934,-0.42 -1.625,-1.504 -2.282,-2.392 -2.092,-2.829 -4.181,-5.665 -6.144,-8.584 -1.542,-2.294 -3.452,-4.119 -5.679,-5.756 -3.731,-2.742 -7.284,-5.726 -10.925,-8.591 -1.379,-1.086 -2.722,-2.241 -4.205,-3.166 -11.943,-7.447 -23.913,-14.849 -35.882,-22.256 -0.666,-0.412 -1.383,-0.742 -2.045,-1.093 -2.07,0.799 -2.994,2.543 -4.116,4.049 -7.839,10.517 -15.649,21.056 -23.48,31.579 -1.036,1.393 -2.137,2.737 -3.181,4.069 -3.242,-1.941 -34.802,-28.724 -38.518,-32.631 -0.039,-1.21 1.041,-1.464 1.782,-1.933 6.492,-4.097 13.01,-8.153 19.51,-12.239 1.055,-0.663 2.056,-1.415 2.961,-2.042 -0.033,-1.227 -0.867,-1.003 -1.379,-1.187 -0.598,-0.217 -1.231,-0.353 -1.858,-0.472 -19.001,-3.625 -38.004,-7.234 -57.004,-10.864 -22.611,-4.32 -45.219,-8.653 -67.827,-12.985 -5.495,-1.052 -10.985,-2.132 -16.482,-3.177 -0.765,-0.145 -1.556,-0.158 -2.429,-0.242 -0.248,1.643 1.021,1.995 1.78,2.582 13.288,10.275 26.603,20.514 39.912,30.76 31.183,24.006 62.367,48.011 93.546,72.02 1.259,0.969 2.481,1.986 3.953,3.168 -2.047,4.22 -4.887,7.781 -7.681,11.618 -1.714,-0.504 -2.803,-1.7 -4.007,-2.664 -21.107,-16.895 -42.201,-33.805 -63.299,-50.711 -29.337,-23.509 -58.669,-47.023 -88.027,-70.505 -1.301,-1.041 -2.429,-2.488 -4.591,-2.831 -0.641,2.523 -0.167,4.965 -0.698,7.224 -0.941,4.006 0.436,7.02 3.048,9.984 3.273,3.715 6.187,7.748 9.225,11.667 0.767,0.99 1.416,2.071 2.213,3.248 -5.251,2.494 -10.763,3.638 -15.636,5.982 -0.03,0.451 -0.075,0.603 -0.041,0.735 0.039,0.149 0.135,0.291 0.23,0.417 0.096,0.126 0.218,0.236 0.339,0.339 0.366,0.31 0.734,0.618 1.108,0.917 46.542,37.342 93.084,74.684 139.625,112.027 0.249,0.199 0.481,0.421 0.716,0.638 0.118,0.108 0.239,0.217 0.332,0.345 0.094,0.128 0.155,0.28 0.374,0.69 -1.218,3.3 -3.744,6.008 -5.718,9.035 -1.989,3.049 -4.003,6.095 -6.451,9.257 -21.881,-17.82 -43.448,-35.388 -65.022,-52.948 -21.443,-17.453 -42.855,-34.943 -64.825,-52.772 0,1.379 -0.156,2.119 0.028,2.764 0.736,2.587 1.578,5.145 2.421,7.841 -3.246,2.237 -6.778,3.255 -10.172,4.85 -4.872,-1.559 -9.719,-3.18 -14.612,-4.643 -1.814,-0.541 -3.729,-0.949 -5.613,-1.02 -12.309,-0.466 -24.622,-0.825 -36.934,-1.204 -0.622,-0.019 -1.247,0.107 -1.972,0.176 -0.181,1.716 0.966,2.737 1.686,3.875 11.719,18.514 23.474,37.006 35.218,55.506 13.544,21.333 27.076,42.675 40.645,63.995 0.819,1.287 1.348,2.883 3.396,3.974 -1.636,-12.807 -3.177,-25.113 -4.788,-37.409 -1.591,-12.154 -3.175,-24.308 -4.779,-36.967 1.136,0.491 1.742,0.657 2.243,0.985 7.816,5.116 93.05,67.403 95.842,70.06 -0.475,0.733 -0.96,1.521 -1.488,2.279 -0.365,0.524 -0.777,1.017 -1.192,1.504 -10.08,11.838 -18.959,24.538 -27.259,37.671 -4.956,7.841 -10.15,15.532 -15.229,23.294 -0.869,1.33 -1.699,2.686 -2.523,3.993 0.509,1.861 2.116,2.493 3.334,3.434 8.983,6.95 18.007,13.848 27.015,20.765 1.516,1.165 3.018,2.347 4.589,3.57 -0.506,2.011 -2.155,2.887 -3.368,4.05 -14.997,14.386 -27.666,30.573 -37.907,48.664 -12.669,22.38 -20.961,46.294 -24.568,71.732 -15.502,109.326 55.028,208.22 158.127,232.9 21.807,5.22 43.969,7.012 66.24,4.781 64.748,-6.488 115.858,-36.671 153.613,-89.594 1.109,-1.555 2.164,-3.148 3.232,-4.707 1.873,0.689 2.378,2.347 3.248,3.623 9.332,13.676 20.112,26.088 32.37,37.211 22.858,20.742 49.049,35.679 78.501,44.881 1.937,0.605 3.848,1.675 6.089,1.163 0.809,-1.819 0.434,-3.771 0.64,-5.649 0.206,-1.883 0.362,-3.772 0.582,-6.098 1.081,0.561 1.795,0.809 2.366,1.245 19.678,15.082 39.341,30.186 59.02,45.267 1.265,0.969 2.623,1.831 3.996,2.644 11.426,6.756 22.881,13.465 34.288,20.251 2.094,1.245 4.271,2.136 6.637,2.637 4.378,0.927 8.761,1.841 13.126,2.829 2.25,0.509 4.355,0.415 6.56,-0.431 5.222,-2.003 10.509,-3.845 15.8,-5.662 1.848,-0.635 3.484,-1.523 4.998,-2.756 5.334,-4.344 10.745,-8.592 16.049,-12.971 1.462,-1.206 2.79,-2.636 3.942,-4.144 2.815,-3.686 5.482,-7.485 8.231,-11.221 0.656,-0.891 1.4,-1.716 2.086,-2.551 3.18,1.861 68.214,53.879 72.222,57.779 -0.639,1.128 -1.261,2.375 -2.015,3.536 -9.323,14.352 -18.668,28.689 -27.996,43.037 -0.854,1.315 -1.629,2.681 -2.546,4.197 1.278,1.039 2.591,0.754 3.775,0.784 12.474,0.313 24.949,0.58 37.423,0.881 5.438,0.131 10.874,0.299 16.311,0.479 1.105,0.036 2.206,0.197 3.358,0.304 2.489,2.996 4.871,6 7.403,8.873 2.854,3.24 5.758,6.446 8.808,9.498 1.578,1.578 2.426,3.249 2.413,5.47 -0.009,1.595 0.239,3.189 0.313,4.787 0.777,16.779 1.527,33.558 2.323,50.336 0.204,4.294 0.545,8.581 0.848,13.263 1.881,-0.465 3.404,-0.78 4.891,-1.219 17.63,-5.201 35.254,-10.422 52.881,-15.634 5.979,-1.768 11.95,-3.556 17.943,-5.273 4.039,-1.157 8.915,0.473 11.423,3.813 9.126,12.152 18.222,24.326 27.336,36.487 0.955,1.274 1.956,2.514 3.358,4.312"
             style="fill:#231f20;fill-opacity:1;fill-rule:nonzero;stroke:none"
             id="path4156"
             inkscape:connector-curvature="0" /></g><g
           id="g4158"
           transform="translate(931.25,504.5295)"><path
             d="m 0,0 c 1.085,-0.951 1.598,-1.484 2.19,-1.907 7.037,-5.021 14.291,-9.698 22.102,-13.43 3.164,-1.512 6.423,-2.876 9.746,-3.985 2.4,-0.802 4.967,-1.132 7.479,-1.553 1.668,-0.281 3.092,0.261 4.305,1.546 4.442,4.704 8.121,9.871 10.095,16.111 1.019,3.221 1.709,6.502 1.363,9.903 C 57.207,7.398 56.806,8.079 56.467,9.021 54.438,7.649 53.369,5.83 51.992,4.32 50.483,2.667 49.06,0.937 47.553,-0.718 46.153,-2.254 44.76,-3.806 43.24,-5.219 41.651,-6.698 40.304,-8.571 37.797,-9.24 c 0,1.326 -0.012,2.393 0.003,3.461 0.023,1.755 0.243,3.529 0.061,5.262 -0.424,4.069 -1.03,4.964 -5.488,4.091 C 22.479,1.636 12.491,0.378 2.379,0.391 1.82,0.392 1.261,0.214 0,0 m -24.075,6.71 c 1.23,0.475 2.22,0.949 3.26,1.244 12.301,3.493 24.799,6.132 37.353,8.519 14.129,2.687 28.356,4.748 42.628,6.484 6.502,0.791 13.026,1.394 19.548,2.012 1.572,0.149 3.17,0.022 5.056,0.022 0.175,-1.052 0.534,-2.106 0.495,-3.144 -0.263,-7.025 -0.36,-14.068 -0.981,-21.063 -1.189,-13.394 -3.56,-26.603 -7.625,-39.444 -1.684,-5.321 -3.793,-10.51 -5.771,-15.735 -0.5,-1.323 -1.242,-2.554 -1.99,-4.064 -1.841,0.18 -3.587,0.232 -5.288,0.537 -8.725,1.562 -16.895,4.721 -24.752,8.753 -10.292,5.284 -19.658,11.926 -28.428,19.434 -11.826,10.122 -22.245,21.572 -31.786,33.842 -0.577,0.742 -1.041,1.57 -1.719,2.603"
             style="fill:#231f20;fill-opacity:1;fill-rule:nonzero;stroke:none"
             id="path4160"
             inkscape:connector-curvature="0" /></g><g
           id="g4162"
           transform="translate(641.6963,740.8367)"><path
             d="m 0,0 c 2.144,-3.613 12.743,-16.289 15.536,-18.604 0.285,0.136 0.618,0.219 0.852,0.419 6.547,5.588 13.088,11.184 19.611,16.799 0.432,0.371 1.045,0.81 0.501,1.55 C 33.617,0.636 5.891,0.983 1.238,0.569 0.815,0.532 0.418,0.2 0,0 m 24.935,-35.625 c -10.813,1.137 -21.592,1.981 -32.569,3.429 -1.372,13.09 -2.16,25.96 -3.39,38.939 0.836,0.44 1.474,0.898 2.185,1.131 13.017,4.264 26.314,6.596 40.061,5.628 7.4,-0.52 14.511,-2.207 21.116,-5.686 1.944,-1.024 3.985,-1.982 5.301,-3.823 -1.938,-3.3 -27.287,-34.032 -32.704,-39.618"
             style="fill:#231f20;fill-opacity:1;fill-rule:nonzero;stroke:none"
             id="path4164"
             inkscape:connector-curvature="0" /></g><g
           id="g4166"
           transform="translate(955.4775,552.5623)"><path
             d="M 0,0 C 3.372,1.16 6.283,3.074 8.893,5.814 6.005,11.803 2.504,17.347 0.188,19.595 0.021,19.364 -0.289,19.135 -0.291,18.903 -0.336,13.032 -0.356,7.16 -0.351,1.289 -0.351,0.861 -0.123,0.433 0,0 m -6.169,40.878 c 0.537,-0.253 1.248,-0.516 1.887,-0.899 C 10.044,31.387 35.442,14.691 38.397,11.942 32.926,5.107 4.328,-13.245 -6.317,-16.752 c -0.143,0.06 -0.329,0.085 -0.417,0.191 -0.093,0.111 -0.128,0.299 -0.128,0.454 -0.048,18.037 -0.092,36.075 -0.122,54.112 -0.001,0.79 0.121,1.581 0.216,2.369 0.013,0.104 0.212,0.186 0.599,0.504"
             style="fill:#231f20;fill-opacity:1;fill-rule:nonzero;stroke:none"
             id="path4168"
             inkscape:connector-curvature="0" /></g><g
           id="g4170"
           transform="translate(450.896,433.9094)"><path
             d="m 0,0 c 0.133,1.312 0.227,2.24 0.352,3.476 2.477,0.614 4.91,1.217 7.58,1.878 8.428,-10.311 16.812,-20.567 25.39,-31.062 0.991,0.678 1.872,1.246 2.717,1.864 2.032,1.49 4.217,1.586 6.293,0.333 1.622,-0.979 3.208,-2.156 4.481,-3.546 2.045,-2.233 3.857,-4.685 5.699,-7.097 3.585,-4.694 7.122,-9.423 10.679,-14.138 0.191,-0.253 0.326,-0.603 0.578,-0.747 4.651,-2.671 6.847,-7.485 10.061,-11.415 1.506,-1.842 3.222,-3.523 4.941,-5.174 0.506,-0.486 1.349,-0.623 2.387,-1.072 0.263,1.062 0.717,1.845 0.564,2.48 -0.407,1.68 -0.947,3.357 -1.685,4.916 -0.537,1.135 -1.422,2.122 -2.239,3.104 -9.35,11.23 -16.819,23.72 -24.273,36.221 -0.889,1.491 -1.845,2.943 -2.892,4.607 -1.172,-0.65 -2.112,-1.183 -3.061,-1.698 -1.931,-1.048 -3.26,-0.844 -3.879,1.008 -2.142,6.41 -6.643,11.242 -10.69,16.374 -2.988,3.791 -5.656,7.749 -7.267,12.334 -0.206,0.584 -0.235,1.234 -0.314,1.857 -0.015,0.122 0.116,0.263 0.273,0.59 2.21,0.566 4.552,-0.323 7.114,-0.313 l 0,4.03 c 0.676,0 1.269,0.181 1.504,-0.032 1.174,-1.063 2.298,-2.191 3.356,-3.372 1.055,-1.177 1.877,-2.591 3.42,-3.204 1.703,0.717 1.331,1.99 0.982,3.554 -2.246,1.04 -5.071,2.052 -3.571,6.14 1.097,0.524 2.485,1.272 3.937,1.865 4.29,1.752 8.588,3.487 12.915,5.146 7.91,3.033 15.828,6.04 23.317,10.568 0.706,-0.701 1.538,-1.236 1.959,-1.997 1.546,-2.794 2.946,-5.669 4.42,-8.504 1.179,-2.267 2.23,-4.62 3.613,-6.757 2.31,-3.571 3.876,-3.956 8.064,-2.494 0.289,0.101 0.616,0.091 1.241,0.175 0.576,-0.717 1.4,-1.486 1.908,-2.424 2.129,-3.933 4.181,-7.909 6.23,-11.884 2.702,-5.244 4.826,-10.819 8.988,-15.215 0.622,-0.658 0.976,-1.643 1.259,-2.538 1.501,-4.767 3.281,-9.357 7.087,-12.861 0.42,-0.388 0.776,-1.118 0.751,-1.67 -0.092,-2.087 1.05,-3.621 2.04,-5.263 3.136,-5.203 6.253,-10.417 9.332,-15.654 0.53,-0.904 0.834,-1.941 1.352,-3.177 -1.259,-0.156 -2.158,-0.268 -3.044,-0.377 -0.121,-0.301 -0.347,-0.584 -0.323,-0.846 0.169,-1.874 1.398,-3.195 2.545,-4.51 1.321,-1.511 1.926,-3.22 2.192,-5.194 0.208,-1.544 0.612,-3.154 1.334,-4.521 6.34,-12.017 12.718,-24.013 19.218,-35.944 1.281,-2.351 2.776,-4.633 4.878,-6.463 2.135,-1.856 2.478,-4.724 4.097,-7.427 -1.345,-0.114 -2.176,-0.183 -3.219,-0.271 0,-1.233 0.03,-2.48 -0.008,-3.726 -0.04,-1.371 -1.11,-1.922 -2.28,-1.201 -0.745,0.46 -1.476,0.944 -2.495,1.598 l 0,-4.446 c -0.736,-0.649 -1.536,-1.406 -2.389,-2.1 -5.582,-4.541 -11.206,-9.032 -16.757,-13.611 -6.841,-5.644 -14.118,-10.483 -22.881,-12.747 -0.455,-1.028 -0.883,-1.995 -1.335,-3.018 -1.077,0.239 -1.977,0.44 -2.834,0.629 -0.254,-0.282 -0.602,-0.486 -0.613,-0.708 -0.086,-1.701 -0.901,-2.662 -2.627,-2.807 -1.111,-0.091 -2.22,-0.199 -3.55,-0.32 -1.354,-3.386 -4.507,-3.92 -8.009,-4.91 0.556,2.387 2.073,3.614 3.097,5.106 0.994,1.449 2.125,2.804 3.216,4.183 1.192,1.504 2.405,2.991 3.614,4.482 1.099,1.355 2.205,2.705 3.318,4.069 -1.042,2.41 -2.379,4.329 -3.837,6.017 -1.241,0.098 -1.534,-0.704 -1.934,-1.371 -0.487,-0.81 -0.828,-1.766 -1.478,-2.411 -2.878,-2.853 -4.907,-6.281 -6.927,-9.74 -2.017,-3.452 -4.262,-6.743 -7.838,-9.25 -0.96,0.896 -1.923,1.687 -2.759,2.595 -4.549,4.94 -8.98,9.993 -13.628,14.838 -2.872,2.994 -6.048,5.697 -9.109,8.507 -0.925,0.85 -2.024,1.466 -1.715,3.11 0.097,0.519 -0.692,1.34 -1.25,1.819 -1.332,1.145 -2.818,2.109 -4.147,3.257 -1.326,1.146 -2.709,2.295 -3.759,3.678 -1.739,2.289 -3.438,4.658 -1.927,7.875 0.613,1.305 -0.232,2.501 -1.227,3.381 -2.391,2.112 -4.752,4.273 -7.285,6.203 -1.425,1.085 -2.742,2.141 -3.59,3.755 -1.143,2.173 -2.676,3.921 -5.116,4.795 -0.851,0.305 -1.595,1.057 -2.247,1.74 -4.631,4.851 -9.225,9.738 -13.868,14.652 0.365,1.183 0.678,2.2 0.957,3.107 -0.313,0.406 -0.454,0.782 -0.701,0.876 -1.778,0.678 -3.579,1.3 -5.567,2.008 -0.198,1.04 -0.4,2.104 -0.642,3.37 -3.941,2.242 -7.285,5.43 -10.579,8.698 -1.582,1.57 -3.251,3.092 -5.061,4.383 -2.656,1.894 -5.022,1.637 -6.466,-1.104 -0.219,-0.418 -0.552,-0.778 -0.859,-1.144 -0.079,-0.093 -0.257,-0.102 -0.726,-0.272 -3.561,3.413 -7.313,6.847 -10.523,10.839 -0.891,1.109 -1.777,2.319 -2.924,3.107 -4.004,2.751 -7.272,6.236 -10.396,9.889 -1.663,1.945 -3.217,3.996 -5.008,5.814 -2.348,2.384 -4.827,4.648 -7.36,6.835 -1.229,1.062 -2.43,2.068 -3.009,3.632 -0.575,1.554 0.274,2.703 2.086,2.677 0.594,-0.009 1.203,-0.436 1.637,0.297 0.814,1.373 2.291,1.635 3.607,2.16 5.197,2.07 10.372,4.196 15.602,6.178 8.09,3.066 15.961,6.564 23.316,11.161 C -2.614,1.084 -2.579,1.028 0,0"
             style="fill:#231f20;fill-opacity:1;fill-rule:nonzero;stroke:none"
             id="path4172"
             inkscape:connector-curvature="0" /></g><g
           id="g4174"
           transform="translate(462.0312,243.4983)"><path
             d="m 0,0 c -2.151,-4.303 -3.103,-5.021 -7.486,-5.759 -0.051,0.77 -0.148,1.514 -0.141,2.256 0.029,3.312 -1.209,6.257 -2.665,9.119 -3.985,7.834 -8.013,15.647 -12.037,23.461 -0.14,0.272 -0.416,0.473 -0.749,0.84 -0.822,-0.244 -1.718,-0.51 -2.616,-0.776 -0.984,0.735 -0.919,1.669 -0.257,2.472 0.49,0.596 1.254,0.965 1.642,1.249 -0.646,4.069 -3.375,7.091 -2.799,11.102 1.408,0.241 2.635,0.452 3.861,0.663 -0.054,0.291 -0.025,0.777 -0.176,0.842 -7.076,3.035 -11.702,8.718 -15.85,14.835 -2.948,4.346 -5.618,8.882 -8.575,13.592 -2.65,-1.138 -5.113,-2.196 -7.933,-3.407 -0.72,0.807 -1.627,1.658 -2.342,2.65 -4.957,6.876 -9.761,13.864 -14.841,20.647 -3.541,4.728 -7.401,9.223 -11.207,13.745 -1.229,1.46 -2.758,2.664 -4.122,4.013 -0.873,0.863 -1.886,1.202 -3.061,0.884 -3.911,-1.06 -7.418,-2.797 -10.092,-5.923 4.834,-7.171 9.57,-14.166 14.273,-21.183 4.704,-7.017 9.375,-14.055 14.063,-21.09 -1.355,-1.63 -2.798,-0.216 -4.079,-0.506 -0.565,-1.096 -1.24,-2.159 -1.64,-3.315 -0.142,-0.41 0.387,-1.052 0.732,-1.884 3.428,1.411 6.717,4.094 10.143,0.521 1.226,0.44 2.422,0.87 3.783,1.359 0.553,-1.264 1.086,-2.483 1.862,-4.259 0.85,1.301 1.4,2.144 2.108,3.228 5.096,-6.037 10.385,-11.805 14.498,-18.51 0.75,-1.222 1.365,-2.531 1.996,-3.822 0.529,-1.08 0.495,-2.165 -0.183,-3.189 -0.353,-0.534 -0.715,-1.062 -1.096,-1.576 -2.332,-3.145 -2.811,-3.272 -6.801,-1.843 -1.431,-3.79 -1.431,-3.79 -7.773,-7.046 -1.728,1.245 -2.544,3.18 -3.499,5.007 -0.962,1.841 -1.77,3.777 -2.876,5.524 -0.749,1.184 -1.783,2.267 -2.91,3.099 -0.609,0.448 -1.679,0.27 -2.887,0.418 0.897,-8.689 -1.895,-16.41 -3.684,-24.55 -1.15,-0.191 -2.212,-0.367 -3.497,-0.579 -0.382,-1.246 -0.795,-2.589 -1.287,-4.195 -1.108,0.117 -2.155,0.229 -3.526,0.375 -0.41,-1.432 0.435,-3.551 -1.971,-4.452 -0.239,0.88 -0.388,1.77 -0.727,2.581 -0.338,0.811 -0.865,1.543 -1.467,2.582 1.202,0.149 2.167,0.143 3.04,0.424 0.499,0.16 1.136,0.763 1.177,1.214 0.037,0.415 -0.579,1.197 -1.016,1.287 -1.235,0.253 -2.524,0.265 -3.795,0.308 -0.62,0.021 -1.246,-0.101 -2.148,-0.183 -3.141,4.389 -6.308,8.793 -9.452,13.215 -1.478,2.078 -3.057,3.93 -5.179,5.521 -2.908,2.183 -5.532,4.883 -7.798,7.743 -2.402,3.031 -5.062,5.746 -7.869,8.362 -3.158,2.944 -6.465,5.754 -9.399,8.909 -3.695,3.975 -7.361,8.034 -10.545,12.417 -11.184,15.399 -22.156,30.951 -33.202,46.449 -0.553,0.776 -1.047,1.594 -1.719,2.623 0.746,0.996 1.394,2.065 2.235,2.949 3.764,3.949 7.89,7.479 12.453,10.485 4.139,2.727 8.333,5.377 12.4,8.209 3.145,2.189 6.084,4.673 9.205,6.898 1.805,1.287 3.67,2.63 5.714,3.415 7.358,2.827 15.101,4.078 22.885,5.059 0.934,0.118 1.971,0.136 2.85,-0.146 2.837,-0.909 5.68,-0.587 8.558,-0.407 22.345,1.398 42.279,-5.138 60.063,-18.504 2.013,-1.512 3.834,-3.417 5.34,-5.439 4.394,-5.902 8.711,-11.853 13.925,-17.206 l 0,-4.021 c 1.73,-0.017 3.215,-0.532 4.214,-2.258 0.957,-1.652 2.771,-2.153 4.61,-1.995 1.722,0.15 3.423,0.549 5.43,0.889 0.081,-0.074 0.523,-0.328 0.718,-0.708 0.188,-0.366 0.122,-0.864 0.194,-1.559 -1.224,0.165 -2.269,0.307 -3.315,0.449 -0.981,-1.053 -0.914,-2.162 0.167,-2.865 C -3.416,97.656 0.364,93.483 4.586,89.821 6.529,88.136 8.184,86.234 9.135,84.027 8.748,82.105 7.411,81.527 6.049,81.032 4.85,80.597 3.599,80.306 2.4,79.871 c -1.374,-0.498 -1.916,-1.574 -1.913,-3 0.003,-1.284 1.184,-2.152 2.264,-1.522 1.208,0.704 2.322,1.569 3.683,2.506 0.661,-0.822 1.218,-1.515 2.214,-2.753 -3.211,0.584 -4.586,-2.721 -7.633,-1.764 -1.649,1.653 -0.76,4.897 -3.084,6.468 -1.556,-0.329 -1.077,-1.842 -1.702,-2.668 -0.567,-0.748 -0.948,-1.668 -1.273,-2.562 -0.507,-1.388 -0.083,-2.575 1.184,-3.273 0.954,-0.526 1.994,-0.896 3.032,-1.352 -0.756,-2.647 -1.446,-5.063 -2.117,-7.413 1.451,-1.253 2.967,-1.073 4.251,-0.655 1.123,0.364 2.679,1.196 2.923,2.118 0.663,2.512 2.359,2.67 4.55,2.526 1.606,2.941 3.376,5.757 6.51,7.796 1.912,-1.55 3.003,-3.673 4.319,-5.598 0.159,-0.233 0.265,-0.704 0.139,-0.899 -1.252,-1.933 0.19,-3.345 0.947,-4.832 4.644,-9.117 9.324,-18.217 14.019,-27.308 1.168,-2.26 2.766,-4.398 1.07,-6.96 3.016,-1.329 5.197,-2.651 4.716,-6.107 -0.108,-0.767 0.744,-1.703 1.237,-2.51 0.653,-1.068 1.389,-2.086 1.958,-2.93 C 43.44,15.434 42.192,15.607 41.288,15.11 40.524,14.69 40.565,12.888 39.797,12.377 37.42,10.796 34.748,9.707 31.855,9.488 31.146,9.435 30.388,10.018 29.729,10.278 28.825,9.881 29.187,9.185 29.129,8.606 29.031,7.606 28.271,7.222 27.466,7.271 26.062,7.355 24.671,7.652 23.253,7.863 22.83,6.851 22.476,6.004 22.104,5.112 l -3.805,0 C 17.88,4.35 17.507,3.672 17.151,3.022 15.525,2.393 14.375,3.54 13.058,3.984 10.766,4.756 9.948,4.267 9.471,1.797 9.354,1.186 9.261,0.57 9.125,-0.232 6.928,-0.78 4.792,-1.313 2.704,-1.835 1.824,-1.238 1.044,-0.709 0,0"
             style="fill:#231f20;fill-opacity:1;fill-rule:nonzero;stroke:none"
             id="path4176"
             inkscape:connector-curvature="0" /></g><g
           id="g4178"
           transform="translate(323.9106,145.3313)"><path
             d="m 0,0 c -0.266,1.35 -0.416,2.109 -0.493,2.502 1.507,1.503 2.844,2.826 4.167,4.162 0.781,0.788 1.409,2.022 2.337,2.31 1.834,0.568 2.007,2.249 2.812,3.392 2.29,0.59 3.729,-0.135 4.795,-2.16 3.673,-6.972 8.598,-13.074 13.47,-19.222 3.375,-4.257 6.609,-8.634 9.75,-13.068 1.462,-2.064 2.554,-4.392 3.821,-6.612 -2.943,-5.25 -6.64,-8.549 -12.974,-7.231 -1.371,-6.261 -5.53,-9.854 -10.478,-12.777 -2.478,-1.463 -4.941,-2.952 -7.416,-4.421 -1.016,-0.604 -1.963,-0.645 -3.16,-0.194 -1.721,0.649 -2.026,0.207 -1.696,-1.848 0.048,-0.302 0.051,-0.61 0.102,-1.243 -3.465,-2.738 -7.073,-5.59 -10.801,-8.536 -1.99,1.811 -3.232,3.796 -4.455,5.899 0.657,0.469 1.156,0.824 1.906,1.36 -0.356,1.388 -0.74,2.884 -1.155,4.501 -5.193,0.359 -8.099,3.664 -10.619,7.534 -1.483,2.278 -3,4.542 -4.635,6.711 -1.56,2.068 -2.952,4.157 -2.786,6.677 -0.462,0.382 -0.674,0.646 -0.949,0.769 -1.153,0.517 -2.689,0.766 -2.888,2.219 -0.188,1.368 -0.061,2.863 0.298,4.203 0.515,1.922 1.909,3.322 3.618,4.303 1.236,0.708 2.573,1.238 3.654,1.748 1.984,-0.23 3.179,-2.202 5.185,-1.413 0.878,1.57 -0.043,3.1 -0.166,4.646 -0.089,1.105 -0.378,2.204 -0.373,3.305 0.005,1.166 1.007,2.331 2.123,2.163 4.471,-0.672 6.296,2.13 7.784,5.548 0.444,1.021 1.012,1.994 1.579,2.956 1.091,1.849 2.688,2.66 4.847,2.257 C -2.026,0.297 -1.248,0.195 0,0"
             style="fill:#231f20;fill-opacity:1;fill-rule:nonzero;stroke:none"
             id="path4180"
             inkscape:connector-curvature="0" /></g><g
           id="g4182"
           transform="translate(432.9106,192.4309)"><path
             d="m 0,0 c -3.076,-0.371 -4.666,1.351 -5.823,4.235 -1.119,2.787 -2.914,5.3 -4.369,7.956 -1.455,2.655 -2.875,5.329 -4.267,8.016 -0.29,0.559 -0.442,1.205 -0.566,1.828 -0.312,1.563 0.8,2.989 2.38,2.837 1.58,-0.152 3.13,-0.598 4.695,-0.909 0.602,-0.12 1.206,-0.223 2.102,-0.388 0.201,0.863 0.368,1.582 0.535,2.3 3.461,0.93 3.461,0.93 5.425,3.324 2.215,2.702 2.215,2.702 6.155,1.428 0.464,1.067 0.669,2.468 1.478,3.144 0.886,0.739 2.31,0.917 3.536,1.148 2.844,0.534 2.852,0.487 5.661,2.694 1.04,-0.466 2.173,-0.973 3.413,-1.53 1.192,2.918 4.074,3.274 6.447,4.313 2.297,1.004 4.545,2.255 7.377,2.727 0.204,-1.84 0.301,-3.404 0.575,-4.937 0.164,-0.915 0.474,-1.868 0.978,-2.631 0.266,-0.402 1.09,-0.576 1.663,-0.576 0.333,-10e-4 0.829,0.487 0.967,0.86 0.378,1.027 0.607,2.11 0.875,3.099 -1.022,1.272 -3.119,1.765 -2.165,3.893 0.852,0.946 1.795,-0.146 2.976,0.19 0.146,0.856 0.315,1.848 0.508,2.983 7.233,1.109 13.653,4.255 19.929,7.852 3.876,2.222 7.937,4.124 11.958,6.082 0.944,0.46 2.061,0.565 3.247,0.871 C 76.801,55.46 76.137,50.64 73.846,46.074 71.838,42.075 69.671,38.155 67.553,34.213 67.258,33.663 66.924,32.854 66.455,32.726 63.601,31.948 62.699,29.46 61.416,27.288 61.253,27.014 61.083,26.741 60.896,26.483 59.801,24.966 58.973,24.69 57.197,25.388 56.62,25.614 56.13,26.065 55.62,26.4 55.437,26.247 55.192,26.11 55.21,26.046 55.413,25.297 55.656,24.56 56.007,23.438 52.845,19.687 49.758,15.626 45.815,12.338 43.036,10.021 39.89,8.574 36.144,8.813 35.396,8.86 34.64,8.755 33.443,8.698 34.099,7.086 34.613,5.823 35.228,4.312 33.911,2.44 31.768,1.292 29.899,-0.145 29.445,-0.494 28.642,-0.762 28.139,-0.608 26.323,-0.053 25.096,-1.45 24.532,-2.367 21.201,-7.773 15.99,-10.803 11.087,-13.94 6.995,-13.58 5.021,-11.085 3.63,-7.872 3.192,-6.86 2.632,-5.902 2.17,-4.899 1.516,-3.479 0.901,-2.041 0,0"
             style="fill:#231f20;fill-opacity:1;fill-rule:nonzero;stroke:none"
             id="path4184"
             inkscape:connector-curvature="0" /></g><g
           id="g4186"
           transform="translate(479.3877,459.7024)"><path
             d="m 0,0 c -1.021,2.426 -2.287,4.576 -4.497,5.996 -0.806,-1.182 0.109,-1.95 0.386,-2.788 0.449,-1.362 1.169,-2.638 1.578,-4.009 0.368,-1.235 0.401,-2.532 -1.045,-3.714 -1.745,0.336 -3.24,1.536 -4.819,2.505 -0.346,0.212 -0.734,0.781 -0.688,1.131 0.228,1.719 -1.032,2.601 -1.928,3.67 -1.437,1.715 -2.99,3.335 -4.403,5.069 -1.941,2.386 -3.437,4.975 -3.254,8.465 6.297,2.728 10.959,7.549 15.733,12.252 3.451,3.4 7.283,6.254 12.366,7.336 0.16,0.529 0.375,1.101 0.504,1.691 0.619,2.842 2.905,5.459 5.721,5.485 3.148,0.03 5.059,1.558 6.772,3.801 1.47,1.923 3.088,3.667 5.813,4.348 0.389,-0.586 0.934,-1.166 1.2,-1.853 1.003,-2.589 2.632,-4.731 4.508,-6.728 1.875,-1.997 3.553,-4.141 4.205,-6.875 0.32,-1.341 1.263,-2.155 2.143,-3.09 3.595,-3.818 5.79,-8.315 6.571,-13.73 C 45.933,18.488 45.145,17.99 44.289,17.669 41.297,16.546 38.28,15.489 35.276,14.399 30.297,12.594 25.541,10.34 21.185,7.303 16.109,3.763 10.583,1.445 4.365,0.874 2.969,0.745 1.6,0.328 0,0"
             style="fill:#231f20;fill-opacity:1;fill-rule:nonzero;stroke:none"
             id="path4188"
             inkscape:connector-curvature="0" /></g><g
           id="g4190"
           transform="translate(403.123,252.177)"><path
             d="m 0,0 c 0.595,-0.449 1.315,-0.801 1.762,-1.367 1.277,-1.618 2.442,-3.322 3.711,-5.075 1.091,0.303 1.971,0.548 2.76,0.768 0.089,0.525 0.283,0.901 0.171,1.123 -0.922,1.84 -1.867,3.67 -2.872,5.465 -0.778,1.388 -1.879,2.634 -2.441,4.095 -1.358,3.528 0.344,5.906 4.205,6.09 0.617,0.03 1.246,-0.219 2.109,-0.384 0.898,6.424 5.721,8.649 11.161,10.598 0.766,-1.419 1.527,-2.625 2.087,-3.919 0.874,-2.02 0.268,-3.163 -1.984,-3.96 -0.578,-0.205 -1.204,-0.271 -1.739,-0.385 -0.514,-1.711 0.171,-3.02 0.866,-4.244 1.339,-2.356 2.776,-4.659 4.256,-6.928 0.307,-0.472 0.942,-0.786 1.489,-1.031 1.277,-0.572 2.001,-1.294 1.718,-2.89 -0.105,-0.588 0.492,-1.435 0.981,-1.973 2.468,-2.718 5.11,-5.287 7.484,-8.084 1.535,-1.808 2.76,-3.891 4.037,-5.907 0.587,-0.927 0.351,-1.839 -0.816,-2.65 -0.73,0.162 -1.636,0.42 -2.561,0.549 -0.613,0.085 -1.523,0.245 -1.833,-0.078 -1.746,-1.816 -3.977,-0.474 -6.152,-1.07 -0.248,-0.96 -0.515,-1.991 -0.864,-3.341 -0.936,-0.054 -1.972,-0.115 -3.222,-0.187 -0.285,-0.728 -0.617,-1.572 -1.027,-2.614 -1.201,0.076 -2.43,0.154 -3.869,0.245 -0.43,-0.682 -0.912,-1.445 -1.516,-2.401 -1.296,0.242 -2.675,0.497 -4.037,0.751 -0.554,-0.672 -1.059,-1.283 -1.936,-2.346 -0.219,1.678 -0.354,2.723 -0.499,3.838 -1.614,0.34 -2.937,0.818 -3.62,2.567 -1.159,2.969 -2.54,5.858 -3.96,8.717 -2.528,5.09 -3.916,10.419 -3.746,16.123 L 0,0 Z"
             style="fill:#231f20;fill-opacity:1;fill-rule:nonzero;stroke:none"
             id="path4192"
             inkscape:connector-curvature="0" /></g><g
           id="g4194"
           transform="translate(391.5845,423.3694)"><path
             d="m 0,0 c 0.934,1.802 2.58,2.512 4.029,3.412 1.764,1.096 3.66,1.993 5.371,3.162 1.571,1.073 3.169,2.226 4.397,3.652 1.342,1.558 2.535,2.95 4.604,1.878 2.378,5.159 2.563,5.271 7.432,7.502 1.431,0.656 2.783,1.551 4.032,2.517 4.048,3.132 8.025,6.356 12.043,9.528 2.179,1.721 2.191,1.705 5.119,1.392 0.211,0.57 0.425,1.15 0.638,1.73 C 52.59,32.12 57.597,26.586 61.313,19.578 60.444,19.01 59.588,18.354 58.651,17.851 45.802,10.947 32.648,4.805 18.324,1.521 16.995,1.217 15.763,0.299 14.605,-0.505 13.698,-1.135 13.017,-2.082 12.16,-2.797 10.015,-4.589 7.779,-5.296 5.228,-3.439 3.58,-2.241 1.53,-1.612 0,0"
             style="fill:#231f20;fill-opacity:1;fill-rule:nonzero;stroke:none"
             id="path4196"
             inkscape:connector-curvature="0" /></g><g
           id="g4198"
           transform="translate(388.3633,442.6643)"><path
             d="M 0,0 C -0.438,0.891 -0.914,1.715 -1.255,2.591 -1.629,3.553 -0.815,4.695 0.167,4.528 1.082,4.373 2.018,4.076 2.828,3.63 4.222,2.861 5.495,1.875 6.876,1.081 7.814,0.54 8.249,0.891 9.122,2.767 7.481,4.578 3.953,3.734 2.991,6.973 c 0.599,0.556 1.201,1.28 1.95,1.785 4.374,2.948 8.791,5.832 13.178,8.76 6.773,4.521 13.533,9.061 20.534,13.75 2.071,-2.882 5.958,-4.369 7.507,-8.291 C 43.483,19.466 40.058,16.829 37.004,13.832 30.197,11.422 25.591,5.881 19.985,1.773 14.444,-2.286 9.169,-6.71 3.774,-10.971 c -1.627,-1.284 -3.264,-2.555 -4.989,-3.905 -4.114,1.192 -6.322,4.099 -7.86,8.003 0.337,0.627 0.658,1.34 1.078,1.987 2.83,4.36 2.836,4.355 7.997,4.886"
             style="fill:#231f20;fill-opacity:1;fill-rule:nonzero;stroke:none"
             id="path4200"
             inkscape:connector-curvature="0" /></g><g
           id="g4202"
           transform="translate(395.3906,263.9163)"><path
             d="m 0,0 c 0.421,-1.827 0.331,-3.667 -0.197,-5.471 -0.101,-0.343 -0.688,-0.622 -1.107,-0.764 -0.213,-0.073 -0.607,0.168 -0.822,0.37 -1.085,1.018 -0.764,2.338 -0.553,3.53 C -2.451,-1.041 -1.782,0.021 0,0"
             style="fill:#231f20;fill-opacity:1;fill-rule:nonzero;stroke:none"
             id="path4204"
             inkscape:connector-curvature="0" /></g><g
           id="g4206"
           transform="translate(471.0937,318.6233)"><path
             d="M 0,0 C 1.037,0.808 1.499,2.13 2.574,0.92 2.806,0.66 2.855,-0.146 2.647,-0.348 1.619,-1.348 1.086,-0.15 0,0"
             style="fill:#231f20;fill-opacity:1;fill-rule:nonzero;stroke:none"
             id="path4208"
             inkscape:connector-curvature="0" /></g><g
           id="g4210"
           transform="translate(396.5459,267.592)"><path
             d="M 0,0 C 0.597,-0.7 1.194,-1.399 2.046,-2.397 0.223,-2.112 0.223,-2.112 0,0"
             style="fill:#231f20;fill-opacity:1;fill-rule:nonzero;stroke:none"
             id="path4212"
             inkscape:connector-curvature="0" /></g><g
           id="g4214"
           transform="translate(353.9668,246.2756)"><path
             d="M 0,0 C 0.437,0.02 0.913,0.158 1.303,0.033 2.012,-0.194 2.67,-0.578 3.447,-0.943 1.917,-2.198 1.018,-0.806 0,0"
             style="fill:#231f20;fill-opacity:1;fill-rule:nonzero;stroke:none"
             id="path4216"
             inkscape:connector-curvature="0" /></g><g
           id="g4218"
           transform="translate(403.2261,252.2717)"><path
             d="M 0,0 C -0.222,0.109 -0.444,0.218 -0.667,0.326 -0.514,0.45 -0.36,0.575 -0.207,0.7 -0.172,0.435 -0.137,0.17 -0.103,-0.095 -0.103,-0.095 0,0 0,0"
             style="fill:#231f20;fill-opacity:1;fill-rule:nonzero;stroke:none"
             id="path4220"
             inkscape:connector-curvature="0" /></g><g
           id="g4222"
           transform="translate(432.6924,290.0452)"><path
             d="M 0,0 C 0.046,0.104 0.092,0.208 0.139,0.312 0.231,0.167 0.324,0.021 0.416,-0.123 L 0,0 Z"
             style="fill:#231f20;fill-opacity:1;fill-rule:nonzero;stroke:none"
             id="path4224"
             inkscape:connector-curvature="0" /></g><g
           id="g4226"
           transform="translate(639.7393,527.8909)"><path
             d="m 0,0 c -0.269,2.076 -1.423,3.961 1.143,4.829 0.12,0.041 0.238,0.242 0.265,0.385 0.435,2.323 1.133,4.565 -0.162,6.947 -3.807,7.006 -7.559,14.038 -12.319,20.465 -2.949,3.983 -6.208,7.697 -9.925,10.982 -0.69,0.611 -1.632,1.427 -2.402,1.372 -3.321,-0.237 -6.733,-0.376 -9.898,-1.29 -3.333,-0.962 -4.481,-5.41 -2.526,-8.248 0.993,-1.441 2.084,-2.825 3.235,-4.144 5.047,-5.781 9.638,-11.883 13.389,-18.597 0.461,-0.826 0.967,-1.711 1.677,-2.299 3.316,-2.75 5.069,-6.479 6.772,-10.28 0.644,-1.435 1.545,-2.755 2.329,-4.126 -0.195,1.705 0.461,2.645 1.971,2.939 C -4.434,-0.673 -2.396,-0.39 0,0 m 35.475,-23.911 c 1.645,-1.97 2.661,-4.116 5.203,-5.018 1.475,-0.524 1.463,-2.608 1.62,-4.541 -1.286,0.159 -2.35,0.299 -3.415,0.421 -1.112,0.128 -2.225,0.246 -3.339,0.355 -2.867,0.281 -5.009,-0.705 -6.134,-3.498 -0.113,-0.282 -0.369,-0.507 -0.706,-0.954 -1.083,0.136 -2.285,0.288 -3.456,0.435 -0.148,-0.448 -0.392,-0.788 -0.305,-0.979 3.052,-6.73 7.228,-12.748 11.709,-18.994 -1.59,-2.254 -4.73,-3.502 -6.875,-6.224 1.868,-2.189 3.75,-4.303 5.528,-6.502 1.809,-2.238 3.567,-4.522 5.251,-6.855 1.682,-2.333 3.244,-4.753 4.825,-7.085 -0.637,-4.293 -3.357,-6.724 -7.393,-8.241 1.421,-2.449 3.146,-4.153 5.619,-5.392 0.626,0.524 1.346,0.931 1.787,1.54 0.753,1.042 1.647,1.467 2.877,1.138 1.814,-0.485 2.531,0.955 3.667,2.172 0.694,-0.596 1.449,-1.125 2.043,-1.795 0.524,-0.589 0.907,-1.317 1.286,-2.019 1.5,-2.776 3.694,-3.811 6.772,-2.842 0.594,0.187 1.252,0.168 2.063,0.267 0.612,1.404 1.188,2.863 1.878,4.265 0.634,1.29 1.396,2.517 2.093,3.776 1.441,2.598 2.024,5.38 1.645,8.326 -0.242,1.882 -0.702,3.356 -2.73,4.551 -1.751,1.031 -3.224,3.302 -3.816,5.321 -0.609,2.081 -1.654,3.756 -2.749,5.482 -2.056,3.241 -4.204,6.424 -6.251,9.671 -1.125,1.784 -2.205,3.508 -4.627,3.68 -0.315,0.023 -0.585,0.679 -0.991,1.186 1.09,2.549 3.624,3.986 4.998,6.243 -0.081,0.349 -0.053,0.785 -0.229,0.896 -3.168,2.001 -4.816,5.012 -5.81,8.499 -0.394,1.382 -0.871,2.743 -1.371,4.091 -1.08,2.911 -2.492,5.546 -5.64,6.767 -0.75,0.291 -1.509,0.906 -1.224,1.803 0.217,0.685 0.774,1.392 1.377,1.787 0.635,0.414 1.556,0.754 2.264,0.629 2.456,-0.433 4.26,2.266 6.785,1.306 0.188,-0.071 0.61,0.171 0.771,0.383 1.625,2.154 4.078,3.016 6.364,4.143 0.572,0.282 1.25,0.481 1.671,0.919 2.887,3.007 6.985,3.752 10.471,5.627 2.613,1.405 5.496,1.636 8.203,0.376 4.142,3.808 9.134,5.143 13.559,7.002 2.308,-2.249 4.443,-4.332 6.587,-6.422 -2.151,-1.675 -3.369,-4.163 -4.269,-6.806 -0.235,-0.689 -0.229,-1.693 0.11,-2.306 1.752,-3.162 3.042,-6.571 6.45,-8.673 1.96,-1.21 3.442,-3.318 4.881,-5.216 1.736,-2.287 3.225,-4.765 4.775,-7.189 3.252,-5.085 6.476,-10.189 9.813,-15.446 -1.245,-1.232 -2.841,-1.837 -4.647,-2.316 -1.416,1.682 -2.618,3.693 -5.51,3.849 0.244,-1.005 0.445,-1.874 0.667,-2.739 0.984,-3.844 0.321,-5.535 -3.167,-7.536 -1.37,-0.786 -2.873,-1.342 -4.565,-2.116 -0.523,0.973 -1.055,1.724 -1.349,2.559 -0.585,1.655 -0.986,3.376 -1.579,5.027 -0.172,0.48 -0.738,0.818 -1.217,1.319 -1.308,-3.069 -1.378,-4.045 -0.676,-7.971 -0.687,-0.587 -1.391,-1.188 -2.238,-1.913 0.524,-1.693 1.031,-3.333 1.522,-4.92 1.966,-0.797 3.642,-0.426 5.339,0.087 2.351,0.708 4.646,0.889 6.996,-0.271 0.865,-0.427 2.069,-0.167 3.474,-0.239 -0.362,1.743 -0.643,3.097 -0.967,4.661 1.019,-0.099 1.892,-0.183 2.746,-0.265 2.576,5.387 3.365,6.047 9.281,7.608 0.974,-4.379 4.109,-8.261 2.777,-13.352 -1.4,0.103 -2.614,0.191 -4.124,0.301 -0.037,-1.096 -0.452,-2.282 -0.033,-2.833 3.182,-4.182 3.158,-8.914 2.692,-13.766 -0.062,-0.632 -0.065,-1.269 -0.108,-2.175 0.503,-0.23 1.124,-0.375 1.532,-0.751 0.285,-0.264 0.427,-0.865 0.371,-1.279 -0.111,-0.807 -0.744,-0.845 -1.428,-0.709 -0.305,0.061 -0.632,0.01 -1.214,0.01 -0.855,-6.873 -5.372,-11.358 -10.594,-15.248 -2.813,-2.096 -5.868,-3.87 -8.842,-5.745 -1.485,-0.937 -3.034,-1.774 -4.696,-2.739 -0.249,-1.132 -0.509,-2.313 -0.797,-3.624 -2.09,0.003 -3.786,1.256 -5.832,1.13 -0.466,-2.669 2.301,-2.402 3.131,-3.902 -0.299,-0.61 -0.633,-1.294 -1.033,-2.112 -1.397,0.246 -2.61,0.46 -3.84,0.675 -0.502,-5.286 -0.509,-5.268 -5.357,-7.28 -1.45,-0.601 -2.847,-1.328 -4.269,-1.997 -1.58,0.645 -2.63,2.391 -4.89,2.153 0.095,-2.406 2.509,-3.619 2.921,-5.729 -2.833,-2.897 -3.669,-3.075 -9.271,-1.839 -0.291,-2.191 -0.578,-4.361 -0.904,-6.828 -7.757,-6.071 -15.012,-13.174 -24.642,-16.319 -1.235,-4.627 -1.235,-4.627 -6.362,-5.607 -0.176,0.686 -0.488,1.386 -0.513,2.096 -0.062,1.748 0.012,3.501 0.016,5.251 0,0.142 -0.12,0.284 -0.182,0.425 -2.163,0.994 -1.493,-1.433 -2.367,-1.976 -0.314,0.023 -0.709,-0.071 -0.893,0.084 -3.839,3.253 -6.346,7.568 -9.195,11.61 -0.171,0.244 -0.362,0.733 -0.25,0.873 1.272,1.594 -0.183,2.287 -1.032,3.099 -5.568,5.323 -10.548,11.153 -15.133,17.332 -0.477,0.642 -0.916,1.314 -1.421,1.933 -2.118,2.599 -2.602,5.44 -1.208,8.511 1.26,2.778 0.523,5.173 -1.228,7.762 -0.902,-1.261 -1.601,-2.314 -2.379,-3.307 -1.717,-2.19 -2.898,-1.981 -4.457,0.745 0.424,0.447 0.848,0.893 1.393,1.467 -2.905,3.252 -4.905,7.018 -6.571,10.855 0.97,1.402 1.85,-0.088 2.928,0.498 0.195,2.32 -1.911,4.115 -2.19,6.608 0.189,0.279 0.44,0.661 0.701,1.037 0.182,0.259 0.377,0.51 0.566,0.765 -0.103,0.295 -0.117,0.692 -0.322,0.866 -1.627,1.393 -2.644,3.616 -5.307,3.638 -0.557,0.005 -1.247,0.963 -1.628,1.625 -0.795,1.38 -1.477,2.833 -2.106,4.298 -0.504,1.172 -0.863,2.406 -1.284,3.614 -0.892,2.559 -1.629,5.23 -4.808,5.914 0.919,1.855 1.618,3.269 2.388,4.824 -1.389,0.968 -2.568,0.128 -3.683,-0.076 -2.138,-0.391 -3.706,0.24 -4.981,2.004 -2.716,3.76 -5.513,7.462 -8.283,11.182 -0.952,1.277 -1.927,2.538 -2.873,3.784 -0.933,0 -1.728,0.016 -2.521,-0.004 -1.2,-0.031 -2.069,0.515 -2.952,1.314 -2.364,2.137 -4.907,4.081 -7.238,6.253 -1.386,1.293 -2.612,2.795 -3.73,4.335 -11.744,16.182 -23.456,32.387 -35.167,48.593 -4.029,5.574 -8.037,11.165 -12.04,16.758 -0.919,1.285 -1.783,2.61 -2.815,4.128 1.36,1.166 2.521,2.24 3.76,3.213 13.092,10.265 26.131,20.6 39.317,30.743 10.55,8.115 21.788,15.162 34.009,20.537 2.778,1.222 5.659,2.211 8.44,3.427 5.261,2.301 10.576,1.996 15.955,0.561 9.226,-2.461 16.908,-7.558 23.554,-14.206 3.609,-3.609 6.866,-7.589 10.073,-11.571 3.108,-3.859 5.99,-7.903 8.894,-11.921 3.074,-4.255 6.129,-8.52 7.318,-13.807 0.184,-0.812 1.154,-1.453 1.777,-2.158 1.214,-1.372 1.845,-2.895 1.733,-4.797 -0.169,-2.872 -0.178,-5.755 -0.21,-8.634 -0.017,-1.566 0.057,-3.134 0.098,-5.138 1.283,0.52 2.184,0.884 3.553,1.438 -0.854,-3.529 -2.37,-5.885 -5.651,-6.829 0.167,-2.416 0.32,-4.612 0.51,-7.359 1.104,0.812 1.961,1.214 2.496,1.876 1.6,1.978 3.491,2.881 6.116,3.182 3.167,0.363 6.29,1.037 9.507,0.854 C 72.22,9.231 77.284,7.911 81.978,5.297 82.634,4.932 83.192,4.39 84.194,3.626 82.704,2.941 81.603,2.475 80.538,1.935 79.398,1.358 78.288,0.724 77.177,0.094 c -1.113,-0.629 -2.145,-1.487 -3.332,-1.878 -1.64,-0.541 -3.411,-1.08 -5.094,-0.991 -1.889,0.1 -3.447,-0.336 -4.976,-1.273 C 63.64,-4.132 63.493,-4.198 63.353,-4.274 59.012,-6.65 54.815,-9.4 49.592,-9.195 49.252,-10.264 49.017,-11 48.756,-11.82 c -5.883,-2.281 -11.8,-4.633 -17.763,-6.861 -3.003,-1.122 -5.595,-0.012 -7.206,2.85 -0.152,0.27 -0.126,0.641 -0.277,0.912 -0.145,0.259 -0.413,0.45 -0.873,0.924 -0.805,-0.528 -1.65,-1.084 -2.535,-1.667 0.727,-1.478 1.329,-2.702 2.029,-4.125 -2.235,-0.283 -4.149,-0.322 -5.941,-0.809 -1.835,-0.498 -3.536,-1.469 -5.322,-2.166 -1.338,-0.522 -2.687,-1.16 -4.085,-1.346 -2.219,-0.296 -3.817,-1.372 -5.262,-2.984 -2.242,-2.501 -4.613,-4.885 -6.904,-7.342 -0.625,-0.67 -1.159,-1.425 -1.633,-2.014 0.471,-1.057 1.132,-1.255 1.612,-0.748 0.867,0.918 1.466,2.092 2.343,2.999 0.628,0.651 1.575,1.53 2.297,1.461 3.193,-0.307 6.084,1.654 9.349,0.986 1.054,-0.215 2.338,0.697 3.624,1.129 1.237,-0.445 2.576,-0.927 4.297,-1.547 -0.148,1.308 -0.261,2.301 -0.411,3.635 2.93,0.748 5.952,0.857 8.912,1.179 0.668,0.073 1.454,-0.938 2.528,-1.691 2.784,0.71 4.532,3.85 7.94,5.134"
             style="fill:#231f20;fill-opacity:1;fill-rule:nonzero;stroke:none"
             id="path4228"
             inkscape:connector-curvature="0" /></g><g
           id="g4230"
           transform="translate(744.2207,615.3298)"><path
             d="m 0,0 c 1.616,2.862 3.97,2.878 6.015,3.457 0.39,-0.463 0.691,-0.819 1.059,-1.255 0.17,0.429 0.277,0.838 0.482,1.19 1.06,1.831 0.986,4.074 2.829,5.736 1.32,1.191 1.514,3.45 0.626,5.406 -2.316,5.092 -4.671,10.163 -8.248,14.531 -2.326,2.841 -4.868,5.452 -8.071,7.221 -2.521,-0.681 -4.828,-1.294 -7.129,-1.928 -2.419,-0.667 -4.269,-2.074 -5.553,-4.249 -0.812,-1.375 -0.962,-2.687 0.138,-3.967 1.456,-1.695 2.975,-3.339 4.372,-5.08 1.392,-1.737 2.926,-3.436 3.913,-5.395 0.82,-1.63 0.935,-3.615 1.358,-5.419 C -3.855,8.809 -3.366,8.346 -1.654,4.081 -1.187,2.917 -0.712,1.757 0,0 m 54.813,-45.898 c -3.008,-2.495 -5.944,-4.93 -8.88,-7.365 -1.39,-3.697 -5.523,-4.695 -7.783,-7.883 2.824,-3.399 5.765,-6.726 8.456,-10.243 2.621,-3.424 4.986,-7.045 7.522,-10.663 -0.471,-0.77 -1.132,-1.464 -1.345,-2.275 -0.589,-2.241 -2.133,-3.545 -4.083,-4.413 -2.772,-1.234 -5.537,-2.581 -8.443,-3.377 -1.548,-0.425 -3.386,0.205 -5.387,0.385 -0.317,-0.979 -0.691,-2.128 -1.092,-3.362 -1.92,0.262 -3.764,0.513 -5.923,0.807 -2.362,2.118 -1.555,6.596 -5.33,8.724 0.407,-5.195 0.66,-9.96 -3.573,-13.508 -0.843,0.751 -1.522,1.357 -2.142,1.909 -1.153,-0.215 -1.46,-0.842 -1.099,-1.744 0.476,-1.182 1.081,-2.313 1.547,-3.498 0.567,-1.442 0.053,-2 -1.886,-2.174 -0.309,-0.027 -0.612,-0.1 -0.918,-0.151 -0.595,-3.733 -1.368,-5.682 -3.298,-8.301 -1.023,-1.389 -1.962,-1.863 -3.225,-1.44 -1.548,0.517 -1.654,1.738 -1.339,3.109 0.032,0.141 -0.061,0.31 -0.096,0.466 -5.315,4.36 -8.336,8.56 -9.204,12.889 2.467,0.287 4.404,-1.557 7.082,-1.76 -0.388,2.548 -1.883,4.491 -2.512,6.779 0.473,0.582 0.957,1.179 1.646,2.028 -1.789,1.594 -2.76,4.06 -5.757,4.311 -0.698,0.059 -1.509,1.169 -1.905,1.973 -1.056,2.143 -2.02,4.346 -2.825,6.595 -1.027,2.861 -1.919,5.752 -4.98,7.094 0.794,1.673 1.459,3.077 2.355,4.964 -1.73,-0.198 -2.951,-0.27 -4.145,-0.491 -1.967,-0.363 -3.436,0.32 -4.554,1.914 -0.732,1.045 -1.477,2.081 -2.365,3.33 1.364,3.038 0.893,6.066 -0.85,9.19 -2.569,0.5 -5.74,-0.64 -7.9,2.107 -1.467,-1.625 -3.002,-2.641 -5.157,-2.238 -1.39,0.26 -2.358,0.901 -2.761,2.403 0.844,0.899 2.848,0.052 3.09,2.121 0.163,1.397 1.619,1.931 2.871,2.225 3.203,0.752 6.432,1.395 9.902,2.135 -2.744,2.069 -5.779,3.31 -9.132,3.584 -1.201,0.098 -2.554,-0.305 -3.671,-0.831 -2.811,-1.323 -5.238,-1.448 -8.082,0.378 -3.297,2.115 -3.503,1.799 -4.842,3.67 -15.454,21.593 -30.908,43.186 -46.355,64.785 -0.825,1.155 -1.575,2.365 -2.444,3.676 1.116,0.956 2.048,1.817 3.043,2.596 13.348,10.459 26.643,20.986 40.077,31.331 10.676,8.222 22.061,15.331 34.451,20.728 2.636,1.149 5.363,2.088 8.015,3.203 5.112,2.149 10.293,1.902 15.526,0.581 9.774,-2.47 17.704,-8.011 24.696,-15.016 2.593,-2.598 5.035,-5.384 7.267,-8.297 4.668,-6.093 9.238,-12.265 13.669,-18.531 2.008,-2.84 3.592,-5.968 4.579,-9.367 0.244,-0.838 0.967,-1.573 1.577,-2.259 1.344,-1.509 1.957,-3.141 1.806,-5.24 -0.253,-3.506 -0.235,-7.033 -0.27,-10.552 -0.01,-0.906 -0.313,-1.917 0.726,-2.9 0.714,0.35 1.517,0.745 2.339,1.149 0.16,-0.234 0.506,-0.527 0.453,-0.696 -0.828,-2.675 -1.917,-5.146 -5.231,-5.651 -0.292,-2.452 -0.107,-4.769 0.464,-7.012 1.694,-0.362 2.128,0.906 2.784,1.667 1.43,1.664 3.037,2.736 5.351,2.686 1.09,-0.024 2.184,0.426 3.286,0.589 8.77,1.298 16.779,-0.676 24.253,-5.432 l 0,-7.672 c 1.316,0.412 2.335,0.701 3.331,1.053 1.019,0.359 2.016,0.779 3.06,1.188 1.163,-1.382 2.081,-2.67 3.202,-3.747 1.024,-0.981 2.267,-1.732 3.444,-2.607 -2.391,-1.694 -3.392,-4.171 -4.35,-6.636 -0.27,-0.694 -0.387,-1.722 -0.065,-2.323 1.554,-2.897 2.352,-6.252 5.481,-8.196 2.889,-1.795 4.961,-4.515 6.841,-7.315 1.782,-2.654 3.413,-5.41 5.136,-8.104 2.751,-4.3 5.525,-8.587 8.433,-13.103 -0.971,-1.379 -2.67,-1.799 -4.463,-2.522 -0.726,0.807 -1.366,1.717 -2.198,2.389 -0.844,0.682 -1.876,1.129 -2.791,1.659 -1.323,-1.248 -0.112,-2.195 0.094,-3.138 0.754,-3.461 0.224,-5.08 -2.639,-6.947 -1.605,-1.045 -3.309,-1.896 -5.373,-2.211 -2.02,2.536 -1.523,6.158 -3.726,8.689 -1.416,-2.726 -1.565,-4.231 -0.922,-8.241 -1.616,-1.666 -3.822,-2.26 -5.934,-2.914 -3.096,-0.959 -6.02,-2.132 -8.342,-4.497 -0.172,-0.174 -0.595,-0.101 -0.913,-0.145 -0.89,1.336 0.133,2.386 0.468,3.57 0.25,0.882 0.449,1.974 0.142,2.768 -0.357,0.927 -1.29,1.632 -2.225,2.729 -0.954,-1.751 -0.451,-3.17 -0.453,-4.49 -0.003,-3.404 -1.42,-5.803 -4.561,-7.201 -2.61,-1.161 -5.184,-2.404 -7.801,-3.624 -2.876,2.47 -3.411,3.298 -4.56,6.784 -0.245,0.742 -0.599,1.472 -1.026,2.127 -4.536,6.964 -8.903,14.048 -14.316,20.396 -0.287,0.337 -0.682,0.584 -1.023,0.87"
             style="fill:#231f20;fill-opacity:1;fill-rule:nonzero;stroke:none"
             id="path4232"
             inkscape:connector-curvature="0" /></g><g
           id="g4234"
           transform="translate(763.0674,504.0491)"><path
             d="m 0,0 c 2.478,-1.176 4.341,-2.061 6.205,-2.946 1.044,1.157 0.879,2.096 -0.267,2.82 -0.793,0.501 -1.682,0.85 -2.704,1.353 0.556,3.555 1.908,6.689 3.901,9.685 4.221,-0.857 6.153,-5.188 10.33,-6.427 0.288,2.32 -1.63,3.657 -1.781,5.859 0.677,0.342 1.434,0.907 2.279,1.115 2.635,0.651 5.301,1.18 7.959,1.733 4.911,1.024 6.516,1.887 10.065,5.555 0.898,0 2.077,-0.26 3.055,0.074 0.937,0.32 1.665,1.256 2.47,1.909 1.589,-0.519 2.203,-1.878 2.876,-3.114 1.661,-3.047 3.939,-4.545 7.479,-3.324 0.442,0.153 0.946,0.124 1.704,0.212 1.886,5.228 5.886,9.671 6.131,15.901 1.392,-0.542 2.415,-0.959 3.452,-1.337 0.858,-0.314 1.733,-0.581 3.062,-1.022 -0.233,1.783 -0.41,3.143 -0.597,4.568 2.327,0.632 4.561,1.238 7.048,1.913 0.92,-1.095 0.564,-2.527 0.648,-3.889 0.048,-0.763 0.285,-1.556 0.614,-2.251 0.416,-0.879 1.642,-1.255 2.468,-0.863 0.832,0.395 1.139,1.135 0.916,1.975 -0.325,1.23 -0.788,2.423 -1.173,3.638 -0.386,1.214 -0.854,2.415 -1.095,3.658 -0.281,1.451 0.646,2.533 2.181,2.436 1.235,-0.078 2.464,-0.467 3.664,-0.829 1.055,-0.319 2.062,-0.799 3.099,-1.185 0.131,-0.049 0.313,0.04 0.795,0.116 0.136,1.259 0.28,2.606 0.455,4.231 4.235,-0.282 7.933,2.158 12.32,2.255 0.379,-1.851 0.719,-3.507 1.121,-5.468 -0.743,-0.581 -1.588,-1.242 -2.61,-2.04 -1.809,1.514 -3.735,2.53 -6.127,1.377 -0.973,-1.284 -0.593,-2.685 -0.102,-4.044 0.652,-1.804 1.411,-3.568 2.097,-5.36 0.639,-1.672 1.043,-3.364 0.159,-5.136 -0.72,-0.268 -1.44,-0.535 -2.152,-0.8 -0.004,-2.432 0.179,-2.891 1.623,-3.297 2.802,-0.785 5.651,-1.033 8.55,-0.606 3.239,0.477 6.384,0.02 9.405,-1.182 0.855,-0.341 1.601,-0.951 2.468,-1.48 -0.987,-2.981 -2.862,-5.157 -4.761,-7.297 -2.567,-2.895 -5.601,-5.241 -8.9,-7.244 -3.14,-1.905 -6.298,-3.78 -9.463,-5.677 -0.24,-1.109 -0.47,-2.169 -0.75,-3.459 -1.951,0.387 -3.758,0.746 -6.165,1.224 0.427,-1.014 0.503,-1.648 0.861,-1.951 0.824,-0.698 1.784,-1.236 2.845,-1.944 -0.472,-0.807 -0.859,-1.467 -1.312,-2.24 -1.327,0.234 -2.521,0.445 -3.916,0.691 0,-0.677 -0.076,-1.132 0.012,-1.553 0.531,-2.522 -0.754,-3.917 -2.899,-4.824 -2.195,-0.928 -4.382,-1.878 -6.61,-2.834 -1.421,0.47 -2.32,2.221 -4.153,1.852 0.116,-1.771 0.116,-1.771 2.429,-5.456 -2.517,-3.397 -5.809,-3.04 -9.19,-1.665 -0.154,-0.369 -0.277,-0.522 -0.266,-0.664 0.364,-4.85 -1.975,-8.077 -5.955,-10.558 -2.294,-1.43 -4.239,-3.405 -6.445,-4.99 -2.074,-1.49 -4.224,-2.896 -6.451,-4.142 -2.084,-1.166 -4.312,-2.074 -6.803,-3.25 -0.111,-0.531 -0.34,-1.264 -0.401,-2.011 -0.103,-1.277 -0.789,-2.09 -1.914,-2.507 -1.168,-0.433 -2.385,-0.738 -3.888,-1.192 -0.28,0.958 -0.663,1.657 -0.652,2.351 0.024,1.592 0.325,3.181 0.319,4.771 -10e-4,0.441 -0.682,0.88 -1.051,1.32 -0.428,-0.381 -0.929,-0.707 -1.261,-1.158 -0.267,-0.362 -0.329,-0.874 -0.569,-1.574 -0.832,0.68 -1.688,1.161 -2.246,1.875 -2.464,3.144 -4.851,6.35 -7.241,9.552 -0.277,0.371 -0.692,1.029 -0.553,1.256 1.101,1.811 -0.446,2.548 -1.35,3.502 -1.761,1.857 -3.709,3.552 -5.344,5.51 -3.79,4.539 -7.476,9.166 -11.134,13.814 -2.48,3.152 -2.369,6.502 -0.295,9.806 1.003,1.6 2.19,3.086 3.481,4.883"
             style="fill:#231f20;fill-opacity:1;fill-rule:nonzero;stroke:none"
             id="path4236"
             inkscape:connector-curvature="0" /></g><g
           id="g4238"
           transform="translate(816.75,531.1423)"><path
             d="m 0,0 c -0.622,-1.379 -1.203,-2.668 -1.942,-4.308 -2.288,2.042 -4.719,3.407 -5.476,6.472 -0.288,1.166 -1.297,2.171 -2.038,3.206 -3.713,5.187 -7.446,10.36 -11.334,15.763 1.405,1.724 2.788,3.419 4.176,5.122 C -13.711,23.728 -4.056,8.427 0,0"
             style="fill:#231f20;fill-opacity:1;fill-rule:nonzero;stroke:none"
             id="path4240"
             inkscape:connector-curvature="0" /></g><g
           id="g4242"
           transform="translate(878.1523,544.5173)"><path
             d="m 0,0 c -1.086,0.209 -2.003,0.386 -2.92,0.562 -0.609,-0.55 -1.178,-1.063 -1.806,-1.631 -0.919,0.259 -1.832,0.505 -2.738,0.774 -0.978,0.291 -1.984,0.391 -2.557,-0.608 -0.695,-1.21 -0.504,-3.512 0.528,-3.885 1.89,-0.683 1.792,-1.975 1.673,-3.443 -3.016,-0.819 -3.016,-0.819 -5.275,2.481 2.01,4 -0.332,7.788 -1.435,12.132 1.044,-0.25 1.754,-0.42 2.508,-0.601 1.178,1.733 2.145,3.776 3.678,5.219 1.336,1.256 3.31,1.835 5.179,2.806 C -1.02,11.085 -0.58,7.898 0.376,4.944 0.865,3.436 1.3,1.84 0,0"
             style="fill:#231f20;fill-opacity:1;fill-rule:nonzero;stroke:none"
             id="path4244"
             inkscape:connector-curvature="0" /></g><g
           id="g4246"
           transform="translate(616.96,441.9387)"><path
             d="M 0,0 C 0.849,0.454 1.648,0.882 2.695,1.442 3.242,0.43 3.71,-0.435 4.14,-1.229 3.206,-2.148 2.23,-1.808 0,0"
             style="fill:#231f20;fill-opacity:1;fill-rule:nonzero;stroke:none"
             id="path4248"
             inkscape:connector-curvature="0" /></g><g
           id="g4250"
           transform="translate(876.1514,525.4163)"><path
             d="M 0,0 C 0.63,0.054 1.247,0.133 1.865,0.148 2.159,0.155 2.457,0.041 3.111,-0.089 2.796,-0.77 2.604,-1.821 2.219,-1.898 0.969,-2.147 0.142,-1.458 0,0"
             style="fill:#231f20;fill-opacity:1;fill-rule:nonzero;stroke:none"
             id="path4252"
             inkscape:connector-curvature="0" /></g><g
           id="g4254"
           transform="translate(861.5557,529.4524)"><path
             d="m 0,0 c -0.999,-0.708 -1.529,-1.326 -2.142,-1.422 -0.349,-0.055 -0.832,0.742 -1.255,1.155 0.437,0.4 0.829,1.038 1.323,1.13 C -1.608,0.95 -1.036,0.463 0,0"
             style="fill:#231f20;fill-opacity:1;fill-rule:nonzero;stroke:none"
             id="path4256"
             inkscape:connector-curvature="0" /></g><g
           id="g4258"
           transform="translate(871.7871,534.3796)"><path
             d="M 0,0 C 0.8,-1.484 0.556,-2.52 -0.595,-3.719 -1.02,-2.275 -1.275,-1.162 0,0"
             style="fill:#231f20;fill-opacity:1;fill-rule:nonzero;stroke:none"
             id="path4260"
             inkscape:connector-curvature="0" /></g><g
           id="g4262"
           transform="translate(860.9824,535.1711)"><path
             d="m 0,0 c -0.771,-0.216 -1.535,-0.47 -2.319,-0.614 -0.132,-0.024 -0.523,0.445 -0.494,0.641 0.056,0.368 0.293,0.969 0.522,1.001 0.697,0.098 1.427,-0.027 2.144,-0.066 C -0.099,0.642 -0.05,0.321 0,0"
             style="fill:#231f20;fill-opacity:1;fill-rule:nonzero;stroke:none"
             id="path4264"
             inkscape:connector-curvature="0" /></g></g></g></g></svg>