  0
SECTION
  2
HEADER
  9
$ACADVER
  1
AC1014
  9
$HANDSEED
  5
FFFF
  9
$MEASUREMENT
 70
     1
  0
ENDSEC
  0
SECTION
  2
TABLES
  0
TABLE
  2
VPORT
  5
8
330
0
100
AcDbSymbolTable
 70
     4
  0
VPORT
  5
2E
330
8
100
AcDbSymbolTableRecord
100
AcDbViewportTableRecord
  2
*ACTIVE
 70
     0
 10
0.0
 20
0.0
 11
1.0
 21
1.0
 12
210.0
 22
148.5
 13
0.0
 23
0.0
 14
10.0
 24
10.0
 15
10.0
 25
10.0
 16
0.0
 26
0.0
 36
1.0
 17
0.0
 27
0.0
 37
0.0
 40
341.0
 41
1.24
 42
50.0
 43
0.0
 44
0.0
 50
0.0
 51
0.0
 71
     0
 72
   100
 73
     1
 74
     3
 75
     0
 76
     0
 77
     0
 78
     0
  0
ENDTAB
  0
TABLE
  2
LTYPE
  5
5
330
0
100
AcDbSymbolTable
 70
     1
  0
LTYPE
  5
14
330
5
100
AcDbSymbolTableRecord
100
AcDbLinetypeTableRecord
  2
BYBLOCK
 70
     0
  3

 72
    65
 73
     0
 40
0.0
  0
LTYPE
  5
15
330
5
100
AcDbSymbolTableRecord
100
AcDbLinetypeTableRecord
  2
BYLAYER
 70
     0
  3

 72
    65
 73
     0
 40
0.0
  0
LTYPE
  5
16
330
5
100
AcDbSymbolTableRecord
100
AcDbLinetypeTableRecord
  2
CONTINUOUS
 70
     0
  3
Solid line
 72
    65
 73
     0
 40
0.0
  0
ENDTAB
  0
TABLE
  2
LAYER
  5
2
100
AcDbSymbolTable
 70
1
  0
LAYER
  5
50
100
AcDbSymbolTableRecord
100
AcDbLayerTableRecord
  2
0
 70
0
  6
CONTINUOUS
  0
ENDTAB
  0
TABLE
  2
STYLE
  5
3
330
0
100
AcDbSymbolTable
 70
     1
  0
STYLE
  5
11
330
3
100
AcDbSymbolTableRecord
100
AcDbTextStyleTableRecord
  2
STANDARD
 70
     0
 40
0.0
 41
1.0
 50
0.0
 71
     0
 42
2.5
  3
txt
  4

  0
ENDTAB
  0
TABLE
  2
VIEW
  5
6
330
0
100
AcDbSymbolTable
 70
     0
  0
ENDTAB
  0
TABLE
  2
UCS
  5
7
330
0
100
AcDbSymbolTable
 70
     0
  0
ENDTAB
  0
TABLE
  2
APPID
  5
9
330
0
100
AcDbSymbolTable
 70
     2
  0
APPID
  5
12
330
9
100
AcDbSymbolTableRecord
100
AcDbRegAppTableRecord
  2
ACAD
 70
     0
  0
ENDTAB
  0
TABLE
  2
DIMSTYLE
  5
A
330
0
100
AcDbSymbolTable
 70
     1
  0
DIMSTYLE
105
27
330
A
100
AcDbSymbolTableRecord
100
AcDbDimStyleTableRecord
  2
ISO-25
 70
     0
  3

  4

  5

  6

  7

 40
1.0
 41
2.5
 42
0.625
 43
3.75
 44
1.25
 45
0.0
 46
0.0
 47
0.0
 48
0.0
140
2.5
141
2.5
142
0.0
143
0.03937007874016
144
1.0
145
0.0
146
1.0
147
0.625
 71
     0
 72
     0
 73
     0
 74
     0
 75
     0
 76
     0
 77
     1
 78
     8
170
     0
171
     3
172
     1
173
     0
174
     0
175
     0
176
     0
177
     0
178
     0
270
     2
271
     2
272
     2
273
     2
274
     3
340
11
275
     0
280
     0
281
     0
282
     0
283
     0
284
     8
285
     0
286
     0
287
     3
288
     0
  0
ENDTAB
  0
TABLE
  2
BLOCK_RECORD
  5
1
330
0
100
AcDbSymbolTable
 70
     1
  0
BLOCK_RECORD
  5
1F
330
1
100
AcDbSymbolTableRecord
100
AcDbBlockTableRecord
  2
*MODEL_SPACE
  0
BLOCK_RECORD
  5
1B
330
1
100
AcDbSymbolTableRecord
100
AcDbBlockTableRecord
  2
*PAPER_SPACE
  0
ENDTAB
  0
ENDSEC
  0
SECTION
  2
BLOCKS
  0
BLOCK
  5
20
330
1F
100
AcDbEntity
  8
0
100
AcDbBlockBegin
  2
*MODEL_SPACE
 70
     0
 10
0.0
 20
0.0
 30
0.0
  3
*MODEL_SPACE
  1

  0
ENDBLK
  5
21
330
1F
100
AcDbEntity
  8
0
100
AcDbBlockEnd
  0
BLOCK
  5
1C
330
1B
100
AcDbEntity
 67
     1
  8
0
100
AcDbBlockBegin
  2
*PAPER_SPACE
  1

  0
ENDBLK
  5
1D
330
1B
100
AcDbEntity
 67
     1
  8
0
100
AcDbBlockEnd
  0
ENDSEC
  0
SECTION
  2
ENTITIES
  0
LWPOLYLINE
  5
100
100
AcDbEntity
  8
0
 62
3
100
AcDbPolyline
 90
2
 70
0
 10
269.450000
 20
231.879167
 30
0.0
 10
295.000000
 20
231.879167
 30
0.0
  0
LWPOLYLINE
  5
101
100
AcDbEntity
  8
0
 62
3
100
AcDbPolyline
 90
2
 70
0
 10
303.500000
 20
230.379167
 30
0.0
 10
300.000000
 20
230.379167
 30
0.0
  0
LWPOLYLINE
  5
102
100
AcDbEntity
  8
0
 62
3
100
AcDbPolyline
 90
2
 70
0
 10
296.500000
 20
230.379167
 30
0.0
 10
300.000000
 20
230.379167
 30
0.0
  0
LWPOLYLINE
  5
103
100
AcDbEntity
  8
0
 62
7
100
AcDbPolyline
 90
2
 70
0
 10
204.000000
 20
241.379167
 30
0.0
 10
222.000000
 20
241.379167
 30
0.0
  0
LWPOLYLINE
  5
104
100
AcDbEntity
  8
0
 62
7
100
AcDbPolyline
 90
2
 70
0
 10
204.000000
 20
241.379167
 30
0.0
 10
200.000000
 20
237.379167
 30
0.0
  0
LWPOLYLINE
  5
105
100
AcDbEntity
  8
0
 62
7
100
AcDbPolyline
 90
2
 70
0
 10
226.000000
 20
237.379167
 30
0.0
 10
222.000000
 20
241.379167
 30
0.0
  0
LWPOLYLINE
  5
106
100
AcDbEntity
  8
0
 62
7
100
AcDbPolyline
 90
2
 70
0
 10
259.050000
 20
237.379167
 30
0.0
 10
226.000000
 20
237.379167
 30
0.0
  0
LWPOLYLINE
  5
107
100
AcDbEntity
  8
0
 62
7
100
AcDbPolyline
 90
2
 70
0
 10
259.050000
 20
233.379167
 30
0.0
 10
259.050000
 20
237.379167
 30
0.0
  0
LWPOLYLINE
  5
108
100
AcDbEntity
  8
0
 62
7
100
AcDbPolyline
 90
2
 70
0
 10
262.000000
 20
233.379167
 30
0.0
 10
259.050000
 20
233.379167
 30
0.0
  0
LWPOLYLINE
  5
109
100
AcDbEntity
  8
0
 62
7
100
AcDbPolyline
 90
2
 70
0
 10
262.000000
 20
235.879167
 30
0.0
 10
262.000000
 20
233.379167
 30
0.0
  0
LWPOLYLINE
  5
10a
100
AcDbEntity
  8
0
 62
7
100
AcDbPolyline
 90
2
 70
0
 10
264.000000
 20
235.879167
 30
0.0
 10
262.000000
 20
235.879167
 30
0.0
  0
LWPOLYLINE
  5
10b
100
AcDbEntity
  8
0
 62
7
100
AcDbPolyline
 90
2
 70
0
 10
264.000000
 20
233.379167
 30
0.0
 10
264.000000
 20
235.879167
 30
0.0
  0
LWPOLYLINE
  5
10c
100
AcDbEntity
  8
0
 62
7
100
AcDbPolyline
 90
2
 70
0
 10
266.950000
 20
233.379167
 30
0.0
 10
264.000000
 20
233.379167
 30
0.0
  0
LWPOLYLINE
  5
10d
100
AcDbEntity
  8
0
 62
7
100
AcDbPolyline
 90
2
 70
0
 10
266.950000
 20
237.379167
 30
0.0
 10
266.950000
 20
233.379167
 30
0.0
  0
LWPOLYLINE
  5
10e
100
AcDbEntity
  8
0
 62
7
100
AcDbPolyline
 90
2
 70
0
 10
295.000000
 20
237.379167
 30
0.0
 10
266.950000
 20
237.379167
 30
0.0
  0
LWPOLYLINE
  5
10f
100
AcDbEntity
  8
0
 62
7
100
AcDbPolyline
 90
2
 70
0
 10
296.500000
 20
235.879167
 30
0.0
 10
295.000000
 20
237.379167
 30
0.0
  0
LWPOLYLINE
  5
110
100
AcDbEntity
  8
0
 62
7
100
AcDbPolyline
 90
2
 70
0
 10
303.500000
 20
235.879167
 30
0.0
 10
296.500000
 20
235.879167
 30
0.0
  0
LWPOLYLINE
  5
111
100
AcDbEntity
  8
0
 62
7
100
AcDbPolyline
 90
2
 70
0
 10
305.000000
 20
237.379167
 30
0.0
 10
303.500000
 20
235.879167
 30
0.0
  0
LWPOLYLINE
  5
112
100
AcDbEntity
  8
0
 62
7
100
AcDbPolyline
 90
2
 70
0
 10
333.050000
 20
237.379167
 30
0.0
 10
305.000000
 20
237.379167
 30
0.0
  0
LWPOLYLINE
  5
113
100
AcDbEntity
  8
0
 62
7
100
AcDbPolyline
 90
8
 70
0
 10
333.050000
 20
237.379167
 30
0.0
 10
333.050000
 20
233.379167
 30
0.0
 10
336.000000
 20
233.379167
 30
0.0
 10
336.000000
 20
235.879167
 30
0.0
 10
338.000000
 20
235.879167
 30
0.0
 10
338.000000
 20
233.379167
 30
0.0
 10
340.950000
 20
233.379167
 30
0.0
 10
340.950000
 20
237.379167
 30
0.0
  0
LWPOLYLINE
  5
114
100
AcDbEntity
  8
0
 62
7
100
AcDbPolyline
 90
2
 70
0
 10
374.000000
 20
237.379167
 30
0.0
 10
340.950000
 20
237.379167
 30
0.0
  0
LWPOLYLINE
  5
115
100
AcDbEntity
  8
0
 62
7
100
AcDbPolyline
 90
2
 70
0
 10
378.000000
 20
241.379167
 30
0.0
 10
374.000000
 20
237.379167
 30
0.0
  0
LWPOLYLINE
  5
116
100
AcDbEntity
  8
0
 62
7
100
AcDbPolyline
 90
2
 70
0
 10
378.000000
 20
241.379167
 30
0.0
 10
396.000000
 20
241.379167
 30
0.0
  0
LWPOLYLINE
  5
117
100
AcDbEntity
  8
0
 62
7
100
AcDbPolyline
 90
2
 70
0
 10
400.000000
 20
237.379167
 30
0.0
 10
396.000000
 20
241.379167
 30
0.0
  0
LWPOLYLINE
  5
118
100
AcDbEntity
  8
0
 62
7
100
AcDbPolyline
 90
2
 70
0
 10
400.000000
 20
237.379167
 30
0.0
 10
400.000000
 20
217.329167
 30
0.0
  0
LWPOLYLINE
  5
119
100
AcDbEntity
  8
0
 62
7
100
AcDbPolyline
 90
2
 70
0
 10
390.000000
 20
217.329167
 30
0.0
 10
400.000000
 20
217.329167
 30
0.0
  0
LWPOLYLINE
  5
11a
100
AcDbEntity
  8
0
 62
7
100
AcDbPolyline
 90
2
 70
0
 10
390.000000
 20
214.379167
 30
0.0
 10
390.000000
 20
217.329167
 30
0.0
  0
LWPOLYLINE
  5
11b
100
AcDbEntity
  8
0
 62
7
100
AcDbPolyline
 90
2
 70
0
 10
400.000000
 20
214.379167
 30
0.0
 10
390.000000
 20
214.379167
 30
0.0
  0
LWPOLYLINE
  5
11c
100
AcDbEntity
  8
0
 62
7
100
AcDbPolyline
 90
3
 70
0
 10
400.000000
 20
214.379167
 30
0.0
 10
400.000000
 20
206.379167
 30
0.0
 10
394.050000
 20
206.379167
 30
0.0
  0
LWPOLYLINE
  5
11d
100
AcDbEntity
  8
0
 62
7
100
AcDbPolyline
 90
2
 70
0
 10
394.050000
 20
210.379167
 30
0.0
 10
394.050000
 20
206.379167
 30
0.0
  0
LWPOLYLINE
  5
11e
100
AcDbEntity
  8
0
 62
7
100
AcDbPolyline
 90
2
 70
0
 10
390.950000
 20
210.379167
 30
0.0
 10
394.050000
 20
210.379167
 30
0.0
  0
LWPOLYLINE
  5
11f
100
AcDbEntity
  8
0
 62
7
100
AcDbPolyline
 90
2
 70
0
 10
390.950000
 20
206.379167
 30
0.0
 10
390.950000
 20
210.379167
 30
0.0
  0
LWPOLYLINE
  5
120
100
AcDbEntity
  8
0
 62
7
100
AcDbPolyline
 90
2
 70
0
 10
390.950000
 20
206.379167
 30
0.0
 10
385.000000
 20
206.379167
 30
0.0
  0
LWPOLYLINE
  5
121
100
AcDbEntity
  8
0
 62
7
100
AcDbPolyline
 90
2
 70
0
 10
381.000000
 20
208.879167
 30
0.0
 10
385.000000
 20
206.379167
 30
0.0
  0
LWPOLYLINE
  5
122
100
AcDbEntity
  8
0
 62
7
100
AcDbPolyline
 90
2
 70
0
 10
303.950000
 20
208.879167
 30
0.0
 10
381.000000
 20
208.879167
 30
0.0
  0
LWPOLYLINE
  5
123
100
AcDbEntity
  8
0
 62
7
100
AcDbPolyline
 90
2
 70
0
 10
303.950000
 20
212.379167
 30
0.0
 10
303.950000
 20
208.879167
 30
0.0
  0
LWPOLYLINE
  5
124
100
AcDbEntity
  8
0
 62
7
100
AcDbPolyline
 90
2
 70
0
 10
301.000000
 20
212.379167
 30
0.0
 10
303.950000
 20
212.379167
 30
0.0
  0
LWPOLYLINE
  5
125
100
AcDbEntity
  8
0
 62
7
100
AcDbPolyline
 90
2
 70
0
 10
301.000000
 20
209.879167
 30
0.0
 10
301.000000
 20
212.379167
 30
0.0
  0
LWPOLYLINE
  5
126
100
AcDbEntity
  8
0
 62
7
100
AcDbPolyline
 90
2
 70
0
 10
299.000000
 20
209.879167
 30
0.0
 10
301.000000
 20
209.879167
 30
0.0
  0
LWPOLYLINE
  5
127
100
AcDbEntity
  8
0
 62
7
100
AcDbPolyline
 90
2
 70
0
 10
299.000000
 20
212.379167
 30
0.0
 10
299.000000
 20
209.879167
 30
0.0
  0
LWPOLYLINE
  5
128
100
AcDbEntity
  8
0
 62
7
100
AcDbPolyline
 90
2
 70
0
 10
296.050000
 20
212.379167
 30
0.0
 10
299.000000
 20
212.379167
 30
0.0
  0
LWPOLYLINE
  5
129
100
AcDbEntity
  8
0
 62
7
100
AcDbPolyline
 90
2
 70
0
 10
296.050000
 20
208.879167
 30
0.0
 10
296.050000
 20
212.379167
 30
0.0
  0
LWPOLYLINE
  5
12a
100
AcDbEntity
  8
0
 62
7
100
AcDbPolyline
 90
2
 70
0
 10
219.000000
 20
208.879167
 30
0.0
 10
296.050000
 20
208.879167
 30
0.0
  0
LWPOLYLINE
  5
12b
100
AcDbEntity
  8
0
 62
7
100
AcDbPolyline
 90
2
 70
0
 10
215.000000
 20
206.379167
 30
0.0
 10
219.000000
 20
208.879167
 30
0.0
  0
LWPOLYLINE
  5
12c
100
AcDbEntity
  8
0
 62
7
100
AcDbPolyline
 90
2
 70
0
 10
215.000000
 20
206.379167
 30
0.0
 10
209.050000
 20
206.379167
 30
0.0
  0
LWPOLYLINE
  5
12d
100
AcDbEntity
  8
0
 62
7
100
AcDbPolyline
 90
2
 70
0
 10
209.050000
 20
210.379167
 30
0.0
 10
209.050000
 20
206.379167
 30
0.0
  0
LWPOLYLINE
  5
12e
100
AcDbEntity
  8
0
 62
7
100
AcDbPolyline
 90
2
 70
0
 10
205.950000
 20
210.379167
 30
0.0
 10
209.050000
 20
210.379167
 30
0.0
  0
LWPOLYLINE
  5
12f
100
AcDbEntity
  8
0
 62
7
100
AcDbPolyline
 90
2
 70
0
 10
205.950000
 20
206.379167
 30
0.0
 10
205.950000
 20
210.379167
 30
0.0
  0
LWPOLYLINE
  5
130
100
AcDbEntity
  8
0
 62
7
100
AcDbPolyline
 90
3
 70
0
 10
205.950000
 20
206.379167
 30
0.0
 10
200.000000
 20
206.379167
 30
0.0
 10
200.000000
 20
214.379167
 30
0.0
  0
LWPOLYLINE
  5
131
100
AcDbEntity
  8
0
 62
7
100
AcDbPolyline
 90
2
 70
0
 10
210.000000
 20
214.379167
 30
0.0
 10
200.000000
 20
214.379167
 30
0.0
  0
LWPOLYLINE
  5
132
100
AcDbEntity
  8
0
 62
7
100
AcDbPolyline
 90
2
 70
0
 10
210.000000
 20
217.329167
 30
0.0
 10
210.000000
 20
214.379167
 30
0.0
  0
LWPOLYLINE
  5
133
100
AcDbEntity
  8
0
 62
7
100
AcDbPolyline
 90
2
 70
0
 10
200.000000
 20
217.329167
 30
0.0
 10
210.000000
 20
217.329167
 30
0.0
  0
LWPOLYLINE
  5
134
100
AcDbEntity
  8
0
 62
7
100
AcDbPolyline
 90
2
 70
0
 10
200.000000
 20
217.329167
 30
0.0
 10
200.000000
 20
237.379167
 30
0.0
  0
LWPOLYLINE
  5
135
100
AcDbEntity
  8
0
 62
3
100
AcDbPolyline
 90
2
 70
0
 10
372.500000
 20
219.829167
 30
0.0
 10
368.450000
 20
223.879167
 30
0.0
  0
LWPOLYLINE
  5
136
100
AcDbEntity
  8
0
 62
7
100
AcDbPolyline
 90
2
 70
0
 10
343.450000
 20
223.879167
 30
0.0
 10
343.450000
 20
231.879167
 30
0.0
  0
LWPOLYLINE
  5
137
100
AcDbEntity
  8
0
 62
3
100
AcDbPolyline
 90
2
 70
0
 10
387.000000
 20
227.929167
 30
0.0
 10
397.500000
 20
227.929167
 30
0.0
  0
LWPOLYLINE
  5
138
100
AcDbEntity
  8
0
 62
3
100
AcDbPolyline
 90
2
 70
0
 10
343.450000
 20
231.879167
 30
0.0
 10
383.050000
 20
231.879167
 30
0.0
  0
LWPOLYLINE
  5
139
100
AcDbEntity
  8
0
 62
5
100
AcDbPolyline
 90
4
 70
1
 10
232.000000
 20
219.329167
 30
0.0
 10
368.000000
 20
219.329167
 30
0.0
 10
365.450000
 20
221.879167
 30
0.0
 10
234.550000
 20
221.879167
 30
0.0
  0
LWPOLYLINE
  5
13a
100
AcDbEntity
  8
0
 62
3
100
AcDbPolyline
 90
2
 70
0
 10
202.500000
 20
227.929167
 30
0.0
 10
202.500000
 20
219.829167
 30
0.0
  0
LWPOLYLINE
  5
13b
100
AcDbEntity
  8
0
 62
3
100
AcDbPolyline
 90
2
 70
0
 10
213.000000
 20
227.929167
 30
0.0
 10
202.500000
 20
227.929167
 30
0.0
  0
LWPOLYLINE
  5
13c
100
AcDbEntity
  8
0
 62
7
100
AcDbPolyline
 90
2
 70
0
 10
216.950000
 20
231.879167
 30
0.0
 10
213.000000
 20
227.929167
 30
0.0
  0
LWPOLYLINE
  5
13d
100
AcDbEntity
  8
0
 62
3
100
AcDbPolyline
 90
2
 70
0
 10
256.550000
 20
231.879167
 30
0.0
 10
216.950000
 20
231.879167
 30
0.0
  0
LWPOLYLINE
  5
13e
100
AcDbEntity
  8
0
 62
3
100
AcDbPolyline
 90
2
 70
0
 10
269.450000
 20
223.879167
 30
0.0
 10
269.450000
 20
231.879167
 30
0.0
  0
LWPOLYLINE
  5
13f
100
AcDbEntity
  8
0
 62
3
100
AcDbPolyline
 90
2
 70
0
 10
300.000000
 20
223.879167
 30
0.0
 10
269.450000
 20
223.879167
 30
0.0
  0
LWPOLYLINE
  5
140
100
AcDbEntity
  8
0
 62
3
100
AcDbPolyline
 90
2
 70
0
 10
305.000000
 20
231.879167
 30
0.0
 10
303.500000
 20
230.379167
 30
0.0
  0
LWPOLYLINE
  5
141
100
AcDbEntity
  8
0
 62
3
100
AcDbPolyline
 90
2
 70
0
 10
330.550000
 20
231.879167
 30
0.0
 10
305.000000
 20
231.879167
 30
0.0
  0
LWPOLYLINE
  5
142
100
AcDbEntity
  8
0
 62
5
100
AcDbPolyline
 90
2
 70
0
 10
220.000000
 20
217.329167
 30
0.0
 10
280.000000
 20
217.329167
 30
0.0
  0
LWPOLYLINE
  5
143
100
AcDbEntity
  8
0
 62
5
100
AcDbPolyline
 90
2
 70
0
 10
220.000000
 20
214.379167
 30
0.0
 10
220.000000
 20
217.329167
 30
0.0
  0
LWPOLYLINE
  5
144
100
AcDbEntity
  8
0
 62
5
100
AcDbPolyline
 90
3
 70
0
 10
280.000000
 20
217.329167
 30
0.0
 10
280.000000
 20
214.379167
 30
0.0
 10
220.000000
 20
214.379167
 30
0.0
  0
LWPOLYLINE
  5
145
100
AcDbEntity
  8
0
 62
5
100
AcDbPolyline
 90
2
 70
0
 10
310.000000
 20
214.379167
 30
0.0
 10
290.000000
 20
214.379167
 30
0.0
  0
LWPOLYLINE
  5
146
100
AcDbEntity
  8
0
 62
5
100
AcDbPolyline
 90
2
 70
0
 10
310.000000
 20
217.329167
 30
0.0
 10
310.000000
 20
214.379167
 30
0.0
  0
LWPOLYLINE
  5
147
100
AcDbEntity
  8
0
 62
5
100
AcDbPolyline
 90
3
 70
0
 10
290.000000
 20
214.379167
 30
0.0
 10
290.000000
 20
217.329167
 30
0.0
 10
310.000000
 20
217.329167
 30
0.0
  0
LWPOLYLINE
  5
148
100
AcDbEntity
  8
0
 62
5
100
AcDbPolyline
 90
2
 70
0
 10
320.000000
 20
217.329167
 30
0.0
 10
380.000000
 20
217.329167
 30
0.0
  0
LWPOLYLINE
  5
149
100
AcDbEntity
  8
0
 62
5
100
AcDbPolyline
 90
2
 70
0
 10
320.000000
 20
214.379167
 30
0.0
 10
320.000000
 20
217.329167
 30
0.0
  0
LWPOLYLINE
  5
14a
100
AcDbEntity
  8
0
 62
5
100
AcDbPolyline
 90
3
 70
0
 10
380.000000
 20
217.329167
 30
0.0
 10
380.000000
 20
214.379167
 30
0.0
 10
320.000000
 20
214.379167
 30
0.0
  0
LWPOLYLINE
  5
14b
100
AcDbEntity
  8
0
 62
5
100
AcDbPolyline
 90
2
 70
0
 10
221.171600
 20
239.379167
 30
0.0
 10
224.000000
 20
236.550767
 30
0.0
  0
LWPOLYLINE
  5
14c
100
AcDbEntity
  8
0
 62
5
100
AcDbPolyline
 90
2
 70
0
 10
204.828400
 20
239.379167
 30
0.0
 10
221.171600
 20
239.379167
 30
0.0
  0
LWPOLYLINE
  5
14d
100
AcDbEntity
  8
0
 62
5
100
AcDbPolyline
 90
2
 70
0
 10
224.000000
 20
236.550767
 30
0.0
 10
224.000000
 20
234.379167
 30
0.0
  0
LWPOLYLINE
  5
14e
100
AcDbEntity
  8
0
 62
5
100
AcDbPolyline
 90
2
 70
0
 10
202.000000
 20
236.550767
 30
0.0
 10
204.828400
 20
239.379167
 30
0.0
  0
LWPOLYLINE
  5
14f
100
AcDbEntity
  8
0
 62
5
100
AcDbPolyline
 90
3
 70
0
 10
224.000000
 20
234.379167
 30
0.0
 10
202.000000
 20
234.379167
 30
0.0
 10
202.000000
 20
236.550767
 30
0.0
  0
LWPOLYLINE
  5
150
100
AcDbEntity
  8
0
 62
5
100
AcDbPolyline
 90
2
 70
0
 10
395.171600
 20
239.379167
 30
0.0
 10
378.828400
 20
239.379167
 30
0.0
  0
LWPOLYLINE
  5
151
100
AcDbEntity
  8
0
 62
5
100
AcDbPolyline
 90
2
 70
0
 10
398.000000
 20
236.550767
 30
0.0
 10
395.171600
 20
239.379167
 30
0.0
  0
LWPOLYLINE
  5
152
100
AcDbEntity
  8
0
 62
5
100
AcDbPolyline
 90
2
 70
0
 10
378.828400
 20
239.379167
 30
0.0
 10
376.000000
 20
236.550767
 30
0.0
  0
LWPOLYLINE
  5
153
100
AcDbEntity
  8
0
 62
5
100
AcDbPolyline
 90
2
 70
0
 10
398.000000
 20
234.379167
 30
0.0
 10
398.000000
 20
236.550767
 30
0.0
  0
LWPOLYLINE
  5
154
100
AcDbEntity
  8
0
 62
5
100
AcDbPolyline
 90
3
 70
0
 10
376.000000
 20
236.550767
 30
0.0
 10
376.000000
 20
234.379167
 30
0.0
 10
398.000000
 20
234.379167
 30
0.0
  0
LWPOLYLINE
  5
155
100
AcDbEntity
  8
0
 62
3
100
AcDbPolyline
 90
2
 70
0
 10
397.500000
 20
219.829167
 30
0.0
 10
372.500000
 20
219.829167
 30
0.0
  0
LWPOLYLINE
  5
156
100
AcDbEntity
  8
0
 62
3
100
AcDbPolyline
 90
2
 70
0
 10
368.450000
 20
223.879167
 30
0.0
 10
343.450000
 20
223.879167
 30
0.0
  0
LWPOLYLINE
  5
157
100
AcDbEntity
  8
0
 62
3
100
AcDbPolyline
 90
2
 70
0
 10
397.500000
 20
227.929167
 30
0.0
 10
397.500000
 20
219.829167
 30
0.0
  0
LWPOLYLINE
  5
158
100
AcDbEntity
  8
0
 62
3
100
AcDbPolyline
 90
2
 70
0
 10
383.050000
 20
231.879167
 30
0.0
 10
387.000000
 20
227.929167
 30
0.0
  0
LWPOLYLINE
  5
159
100
AcDbEntity
  8
0
 62
3
100
AcDbPolyline
 90
2
 70
0
 10
343.450000
 20
223.879167
 30
0.0
 10
343.450000
 20
231.879167
 30
0.0
  0
LWPOLYLINE
  5
15a
100
AcDbEntity
  8
0
 62
3
100
AcDbPolyline
 90
5
 70
0
 10
202.500000
 20
219.829167
 30
0.0
 10
227.500000
 20
219.829167
 30
0.0
 10
231.550000
 20
223.879167
 30
0.0
 10
256.550000
 20
223.879167
 30
0.0
 10
256.550000
 20
231.879167
 30
0.0
  0
LWPOLYLINE
  5
15b
100
AcDbEntity
  8
0
 62
3
100
AcDbPolyline
 90
2
 70
0
 10
216.950000
 20
231.879167
 30
0.0
 10
213.000000
 20
227.929167
 30
0.0
  0
LWPOLYLINE
  5
15c
100
AcDbEntity
  8
0
 62
3
100
AcDbPolyline
 90
2
 70
0
 10
295.000000
 20
231.879167
 30
0.0
 10
296.500000
 20
230.379167
 30
0.0
  0
LWPOLYLINE
  5
15d
100
AcDbEntity
  8
0
 62
3
100
AcDbPolyline
 90
3
 70
0
 10
300.000000
 20
223.879167
 30
0.0
 10
330.550000
 20
223.879167
 30
0.0
 10
330.550000
 20
231.879167
 30
0.0
  0
LWPOLYLINE
  5
15e
100
AcDbEntity
  8
0
 62
7
100
AcDbPolyline
 90
2
 70
0
 10
200.000000
 20
291.000000
 30
0.0
 10
210.000000
 20
291.000000
 30
0.0
  0
LWPOLYLINE
  5
15f
100
AcDbEntity
  8
0
 62
7
100
AcDbPolyline
 90
2
 70
0
 10
210.000000
 20
288.050000
 30
0.0
 10
210.000000
 20
291.000000
 30
0.0
  0
LWPOLYLINE
  5
160
100
AcDbEntity
  8
0
 62
7
100
AcDbPolyline
 90
2
 70
0
 10
220.000000
 20
288.050000
 30
0.0
 10
210.000000
 20
288.050000
 30
0.0
  0
LWPOLYLINE
  5
161
100
AcDbEntity
  8
0
 62
7
100
AcDbPolyline
 90
2
 70
0
 10
220.000000
 20
291.000000
 30
0.0
 10
220.000000
 20
288.050000
 30
0.0
  0
LWPOLYLINE
  5
162
100
AcDbEntity
  8
0
 62
7
100
AcDbPolyline
 90
2
 70
0
 10
220.000000
 20
291.000000
 30
0.0
 10
280.000000
 20
291.000000
 30
0.0
  0
LWPOLYLINE
  5
163
100
AcDbEntity
  8
0
 62
7
100
AcDbPolyline
 90
2
 70
0
 10
280.000000
 20
288.050000
 30
0.0
 10
280.000000
 20
291.000000
 30
0.0
  0
LWPOLYLINE
  5
164
100
AcDbEntity
  8
0
 62
7
100
AcDbPolyline
 90
2
 70
0
 10
290.000000
 20
288.050000
 30
0.0
 10
280.000000
 20
288.050000
 30
0.0
  0
LWPOLYLINE
  5
165
100
AcDbEntity
  8
0
 62
7
100
AcDbPolyline
 90
2
 70
0
 10
290.000000
 20
291.000000
 30
0.0
 10
290.000000
 20
288.050000
 30
0.0
  0
LWPOLYLINE
  5
166
100
AcDbEntity
  8
0
 62
7
100
AcDbPolyline
 90
20
 70
0
 10
290.000000
 20
291.000000
 30
0.0
 10
310.000000
 20
291.000000
 30
0.0
 10
310.000000
 20
288.050000
 30
0.0
 10
320.000000
 20
288.050000
 30
0.0
 10
320.000000
 20
291.000000
 30
0.0
 10
380.000000
 20
291.000000
 30
0.0
 10
380.000000
 20
288.050000
 30
0.0
 10
390.000000
 20
288.050000
 30
0.0
 10
390.000000
 20
291.000000
 30
0.0
 10
400.000000
 20
291.000000
 30
0.0
 10
400.000000
 20
243.000000
 30
0.0
 10
390.000000
 20
243.000000
 30
0.0
 10
390.000000
 20
245.950000
 30
0.0
 10
380.000000
 20
245.950000
 30
0.0
 10
380.000000
 20
243.000000
 30
0.0
 10
320.000000
 20
243.000000
 30
0.0
 10
320.000000
 20
245.950000
 30
0.0
 10
310.000000
 20
245.950000
 30
0.0
 10
310.000000
 20
243.000000
 30
0.0
 10
290.000000
 20
243.000000
 30
0.0
  0
LWPOLYLINE
  5
167
100
AcDbEntity
  8
0
 62
7
100
AcDbPolyline
 90
2
 70
0
 10
290.000000
 20
245.950000
 30
0.0
 10
290.000000
 20
243.000000
 30
0.0
  0
LWPOLYLINE
  5
168
100
AcDbEntity
  8
0
 62
7
100
AcDbPolyline
 90
2
 70
0
 10
280.000000
 20
245.950000
 30
0.0
 10
290.000000
 20
245.950000
 30
0.0
  0
LWPOLYLINE
  5
169
100
AcDbEntity
  8
0
 62
7
100
AcDbPolyline
 90
2
 70
0
 10
280.000000
 20
243.000000
 30
0.0
 10
280.000000
 20
245.950000
 30
0.0
  0
LWPOLYLINE
  5
16a
100
AcDbEntity
  8
0
 62
7
100
AcDbPolyline
 90
2
 70
0
 10
280.000000
 20
243.000000
 30
0.0
 10
220.000000
 20
243.000000
 30
0.0
  0
LWPOLYLINE
  5
16b
100
AcDbEntity
  8
0
 62
7
100
AcDbPolyline
 90
2
 70
0
 10
220.000000
 20
245.950000
 30
0.0
 10
220.000000
 20
243.000000
 30
0.0
  0
LWPOLYLINE
  5
16c
100
AcDbEntity
  8
0
 62
7
100
AcDbPolyline
 90
2
 70
0
 10
210.000000
 20
245.950000
 30
0.0
 10
220.000000
 20
245.950000
 30
0.0
  0
LWPOLYLINE
  5
16d
100
AcDbEntity
  8
0
 62
7
100
AcDbPolyline
 90
2
 70
0
 10
210.000000
 20
243.000000
 30
0.0
 10
210.000000
 20
245.950000
 30
0.0
  0
LWPOLYLINE
  5
16e
100
AcDbEntity
  8
0
 62
7
100
AcDbPolyline
 90
3
 70
0
 10
210.000000
 20
243.000000
 30
0.0
 10
200.000000
 20
243.000000
 30
0.0
 10
200.000000
 20
291.000000
 30
0.0
  0
LWPOLYLINE
  5
16f
100
AcDbEntity
  8
0
 62
5
100
AcDbPolyline
 90
2
 70
0
 10
296.050000
 20
245.950000
 30
0.0
 10
296.050000
 20
248.050000
 30
0.0
  0
LWPOLYLINE
  5
170
100
AcDbEntity
  8
0
 62
5
100
AcDbPolyline
 90
2
 70
0
 10
299.000000
 20
245.950000
 30
0.0
 10
296.050000
 20
245.950000
 30
0.0
  0
LWPOLYLINE
  5
171
100
AcDbEntity
  8
0
 62
5
100
AcDbPolyline
 90
3
 70
0
 10
296.050000
 20
248.050000
 30
0.0
 10
299.000000
 20
248.050000
 30
0.0
 10
299.000000
 20
245.950000
 30
0.0
  0
LWPOLYLINE
  5
172
100
AcDbEntity
  8
0
 62
5
100
AcDbPolyline
 90
4
 70
1
 10
301.000000
 20
245.950000
 30
0.0
 10
303.950000
 20
245.950000
 30
0.0
 10
303.950000
 20
248.050000
 30
0.0
 10
301.000000
 20
248.050000
 30
0.0
  0
LWPOLYLINE
  5
173
100
AcDbEntity
  8
0
 62
5
100
AcDbPolyline
 90
4
 70
1
 10
303.950000
 20
288.050000
 30
0.0
 10
301.000000
 20
288.050000
 30
0.0
 10
301.000000
 20
285.950000
 30
0.0
 10
303.950000
 20
285.950000
 30
0.0
  0
LWPOLYLINE
  5
174
100
AcDbEntity
  8
0
 62
5
100
AcDbPolyline
 90
2
 70
0
 10
296.050000
 20
285.950000
 30
0.0
 10
296.050000
 20
288.050000
 30
0.0
  0
LWPOLYLINE
  5
175
100
AcDbEntity
  8
0
 62
5
100
AcDbPolyline
 90
2
 70
0
 10
299.000000
 20
285.950000
 30
0.0
 10
296.050000
 20
285.950000
 30
0.0
  0
LWPOLYLINE
  5
176
100
AcDbEntity
  8
0
 62
5
100
AcDbPolyline
 90
3
 70
0
 10
296.050000
 20
288.050000
 30
0.0
 10
299.000000
 20
288.050000
 30
0.0
 10
299.000000
 20
285.950000
 30
0.0
  0
LWPOLYLINE
  5
177
100
AcDbEntity
  8
0
 62
5
100
AcDbPolyline
 90
5
 70
1
 10
206.121590
 20
284.724239
 30
0.0
 10
206.121590
 20
281.891854
 30
0.0
 10
208.899720
 20
280.287817
 30
0.0
 10
211.677330
 20
281.891854
 30
0.0
 10
211.677330
 20
284.724239
 30
0.0
  0
LWPOLYLINE
  5
178
100
AcDbEntity
  8
0
 62
5
100
AcDbPolyline
 90
5
 70
1
 10
213.644130
 20
284.724239
 30
0.0
 10
213.644130
 20
281.891854
 30
0.0
 10
216.421740
 20
280.287817
 30
0.0
 10
219.199860
 20
281.891854
 30
0.0
 10
219.199860
 20
284.724239
 30
0.0
  0
LWPOLYLINE
  5
179
100
AcDbEntity
  8
0
 62
5
100
AcDbPolyline
 90
5
 70
1
 10
221.166150
 20
284.724239
 30
0.0
 10
221.166150
 20
281.891854
 30
0.0
 10
223.944280
 20
280.287817
 30
0.0
 10
226.721890
 20
281.891854
 30
0.0
 10
226.721890
 20
284.724239
 30
0.0
  0
LWPOLYLINE
  5
17a
100
AcDbEntity
  8
0
 62
5
100
AcDbPolyline
 90
5
 70
1
 10
228.688170
 20
284.724239
 30
0.0
 10
228.688170
 20
281.891854
 30
0.0
 10
231.466300
 20
280.287817
 30
0.0
 10
234.244420
 20
281.891854
 30
0.0
 10
234.244420
 20
284.724239
 30
0.0
  0
LWPOLYLINE
  5
17b
100
AcDbEntity
  8
0
 62
5
100
AcDbPolyline
 90
5
 70
1
 10
236.210710
 20
284.724239
 30
0.0
 10
236.210710
 20
281.891854
 30
0.0
 10
238.988840
 20
280.287817
 30
0.0
 10
241.766440
 20
281.891854
 30
0.0
 10
241.766440
 20
284.724239
 30
0.0
  0
LWPOLYLINE
  5
17c
100
AcDbEntity
  8
0
 62
5
100
AcDbPolyline
 90
5
 70
1
 10
243.732730
 20
284.724239
 30
0.0
 10
243.732730
 20
281.891854
 30
0.0
 10
246.510860
 20
280.287817
 30
0.0
 10
249.288980
 20
281.891854
 30
0.0
 10
249.288980
 20
284.723724
 30
0.0
  0
LWPOLYLINE
  5
17d
100
AcDbEntity
  8
0
 62
5
100
AcDbPolyline
 90
7
 70
1
 10
308.554630
 20
284.724239
 30
0.0
 10
308.554630
 20
282.723847
 30
0.0
 10
303.910980
 20
282.723847
 30
0.0
 10
303.910980
 20
281.891854
 30
0.0
 10
306.689100
 20
280.287817
 30
0.0
 10
309.466700
 20
281.891854
 30
0.0
 10
309.466700
 20
284.724239
 30
0.0
  0
LWPOLYLINE
  5
17e
100
AcDbEntity
  8
0
 62
5
100
AcDbPolyline
 90
5
 70
1
 10
311.433500
 20
284.724239
 30
0.0
 10
311.433500
 20
281.891854
 30
0.0
 10
314.211130
 20
280.287817
 30
0.0
 10
316.989250
 20
281.891854
 30
0.0
 10
316.989250
 20
284.724239
 30
0.0
  0
LWPOLYLINE
  5
17f
100
AcDbEntity
  8
0
 62
5
100
AcDbPolyline
 90
5
 70
1
 10
318.955530
 20
284.724239
 30
0.0
 10
318.955530
 20
281.891854
 30
0.0
 10
321.733650
 20
280.287817
 30
0.0
 10
324.511280
 20
281.891854
 30
0.0
 10
324.511280
 20
284.724239
 30
0.0
  0
LWPOLYLINE
  5
180
100
AcDbEntity
  8
0
 62
5
100
AcDbPolyline
 90
5
 70
1
 10
326.477550
 20
284.724239
 30
0.0
 10
326.477550
 20
281.891854
 30
0.0
 10
329.255680
 20
280.287817
 30
0.0
 10
332.033800
 20
281.891854
 30
0.0
 10
332.033800
 20
284.724239
 30
0.0
  0
LWPOLYLINE
  5
181
100
AcDbEntity
  8
0
 62
5
100
AcDbPolyline
 90
5
 70
1
 10
334.000080
 20
284.724239
 30
0.0
 10
334.000080
 20
281.891854
 30
0.0
 10
336.778210
 20
280.287817
 30
0.0
 10
339.555830
 20
281.891854
 30
0.0
 10
339.555830
 20
284.724239
 30
0.0
  0
LWPOLYLINE
  5
182
100
AcDbEntity
  8
0
 62
5
100
AcDbPolyline
 90
5
 70
1
 10
341.522100
 20
284.724239
 30
0.0
 10
341.522100
 20
281.891854
 30
0.0
 10
344.300230
 20
280.287817
 30
0.0
 10
347.078350
 20
281.891854
 30
0.0
 10
347.078350
 20
284.724239
 30
0.0
  0
LWPOLYLINE
  5
183
100
AcDbEntity
  8
0
 62
5
100
AcDbPolyline
 90
5
 70
1
 10
349.044660
 20
284.724239
 30
0.0
 10
349.044660
 20
281.891854
 30
0.0
 10
351.822780
 20
280.287817
 30
0.0
 10
354.600380
 20
281.891854
 30
0.0
 10
354.600380
 20
284.724239
 30
0.0
  0
LWPOLYLINE
  5
184
100
AcDbEntity
  8
0
 62
5
100
AcDbPolyline
 90
5
 70
1
 10
356.566680
 20
284.724239
 30
0.0
 10
356.566680
 20
281.891854
 30
0.0
 10
359.344810
 20
280.287817
 30
0.0
 10
362.122930
 20
281.891854
 30
0.0
 10
362.122930
 20
284.724239
 30
0.0
  0
LWPOLYLINE
  5
185
100
AcDbEntity
  8
0
 62
5
100
AcDbPolyline
 90
5
 70
1
 10
364.089210
 20
284.724239
 30
0.0
 10
364.089210
 20
281.891854
 30
0.0
 10
366.866810
 20
280.287817
 30
0.0
 10
369.644930
 20
281.891854
 30
0.0
 10
369.644930
 20
284.724239
 30
0.0
  0
LWPOLYLINE
  5
186
100
AcDbEntity
  8
0
 62
5
100
AcDbPolyline
 90
5
 70
1
 10
371.611240
 20
284.724239
 30
0.0
 10
371.611240
 20
281.891854
 30
0.0
 10
374.389360
 20
280.287817
 30
0.0
 10
377.166960
 20
281.891854
 30
0.0
 10
377.166960
 20
284.724239
 30
0.0
  0
LWPOLYLINE
  5
187
100
AcDbEntity
  8
0
 62
5
100
AcDbPolyline
 90
5
 70
1
 10
379.133760
 20
284.724239
 30
0.0
 10
379.133760
 20
281.891854
 30
0.0
 10
381.911390
 20
280.287817
 30
0.0
 10
384.689510
 20
281.891854
 30
0.0
 10
384.689510
 20
284.724239
 30
0.0
  0
LWPOLYLINE
  5
188
100
AcDbEntity
  8
0
 62
5
100
AcDbPolyline
 90
5
 70
1
 10
386.655790
 20
284.724239
 30
0.0
 10
386.655790
 20
281.891854
 30
0.0
 10
389.433910
 20
280.287817
 30
0.0
 10
392.211530
 20
281.891854
 30
0.0
 10
392.211530
 20
284.724239
 30
0.0
  0
SPLINE
  5
189
100
AcDbEntity
  8
0
 62
5
100
AcDbSpline
 70
8
 71
3
 72
8
 73
4
 74
0
 40
0
 40
0
 40
0
 40
0
 40
1
 40
1
 40
1
 40
1
 10
395.938930
 20
284.195073
 30
0.0
 10
395.938930
 20
284.488234
 30
0.0
 10
395.702950
 20
284.724239
 30
0.0
 10
395.409770
 20
284.724239
 30
0.0
  0
LWPOLYLINE
  5
18a
100
AcDbEntity
  8
0
 62
5
100
AcDbPolyline
 90
4
 70
0
 10
394.178320
 20
284.724239
 30
0.0
 10
394.178320
 20
281.891854
 30
0.0
 10
395.938930
 20
280.874862
 30
0.0
 10
395.938930
 20
284.195073
 30
0.0
  0
LWPOLYLINE
  5
18b
100
AcDbEntity
  8
0
 62
5
100
AcDbPolyline
 90
2
 70
0
 10
395.409770
 20
284.724239
 30
0.0
 10
394.178320
 20
284.724239
 30
0.0
  0
LWPOLYLINE
  5
18c
100
AcDbEntity
  8
0
 62
5
100
AcDbPolyline
 90
5
 70
1
 10
251.255270
 20
284.723724
 30
0.0
 10
251.255270
 20
281.891854
 30
0.0
 10
254.032880
 20
280.287817
 30
0.0
 10
256.811000
 20
281.891854
 30
0.0
 10
256.811000
 20
284.723724
 30
0.0
  0
LWPOLYLINE
  5
18d
100
AcDbEntity
  8
0
 62
5
100
AcDbPolyline
 90
5
 70
1
 10
258.777290
 20
284.723724
 30
0.0
 10
258.777290
 20
281.891854
 30
0.0
 10
261.555420
 20
280.287817
 30
0.0
 10
264.333540
 20
281.891854
 30
0.0
 10
264.333540
 20
284.723724
 30
0.0
  0
LWPOLYLINE
  5
18e
100
AcDbEntity
  8
0
 62
5
100
AcDbPolyline
 90
5
 70
1
 10
266.299820
 20
284.723724
 30
0.0
 10
266.299820
 20
281.891854
 30
0.0
 10
269.077440
 20
280.287817
 30
0.0
 10
271.855570
 20
281.891854
 30
0.0
 10
271.855570
 20
284.723724
 30
0.0
  0
LWPOLYLINE
  5
18f
100
AcDbEntity
  8
0
 62
5
100
AcDbPolyline
 90
5
 70
1
 10
273.821850
 20
284.723724
 30
0.0
 10
273.821850
 20
281.891854
 30
0.0
 10
276.599970
 20
280.287817
 30
0.0
 10
279.377590
 20
281.891854
 30
0.0
 10
279.377590
 20
284.723724
 30
0.0
  0
LWPOLYLINE
  5
190
100
AcDbEntity
  8
0
 62
5
100
AcDbPolyline
 90
5
 70
1
 10
281.344400
 20
284.723724
 30
0.0
 10
281.344400
 20
281.891854
 30
0.0
 10
284.121990
 20
280.287817
 30
0.0
 10
286.900120
 20
281.891854
 30
0.0
 10
286.900120
 20
284.723724
 30
0.0
  0
LWPOLYLINE
  5
191
100
AcDbEntity
  8
0
 62
5
100
AcDbPolyline
 90
7
 70
1
 10
288.866420
 20
284.723724
 30
0.0
 10
288.866420
 20
281.891854
 30
0.0
 10
291.644550
 20
280.287817
 30
0.0
 10
294.422140
 20
281.891854
 30
0.0
 10
294.422140
 20
282.723847
 30
0.0
 10
292.554560
 20
282.723847
 30
0.0
 10
292.554560
 20
284.723724
 30
0.0
  0
LWPOLYLINE
  5
192
100
AcDbEntity
  8
0
 62
5
100
AcDbPolyline
 90
5
 70
1
 10
296.388950
 20
282.723847
 30
0.0
 10
296.388950
 20
281.891854
 30
0.0
 10
299.166550
 20
280.287817
 30
0.0
 10
301.944670
 20
281.891854
 30
0.0
 10
301.944670
 20
282.723847
 30
0.0
  0
LWPOLYLINE
  5
193
100
AcDbEntity
  8
0
 62
5
100
AcDbPolyline
 90
6
 70
1
 10
212.632300
 20
280.172581
 30
0.0
 10
209.854700
 20
278.568544
 30
0.0
 10
209.854700
 20
275.360987
 30
0.0
 10
212.632300
 20
273.757467
 30
0.0
 10
215.410430
 20
275.360987
 30
0.0
 10
215.410430
 20
278.568544
 30
0.0
  0
LWPOLYLINE
  5
194
100
AcDbEntity
  8
0
 62
5
100
AcDbPolyline
 90
6
 70
1
 10
220.154840
 20
280.172581
 30
0.0
 10
217.376720
 20
278.568544
 30
0.0
 10
217.376720
 20
275.360987
 30
0.0
 10
220.154840
 20
273.757467
 30
0.0
 10
222.932450
 20
275.360987
 30
0.0
 10
222.932450
 20
278.568544
 30
0.0
  0
LWPOLYLINE
  5
195
100
AcDbEntity
  8
0
 62
5
100
AcDbPolyline
 90
6
 70
1
 10
227.676860
 20
280.172581
 30
0.0
 10
224.899260
 20
278.568544
 30
0.0
 10
224.899260
 20
275.360987
 30
0.0
 10
227.676860
 20
273.757467
 30
0.0
 10
230.454990
 20
275.360987
 30
0.0
 10
230.454990
 20
278.568544
 30
0.0
  0
LWPOLYLINE
  5
196
100
AcDbEntity
  8
0
 62
5
100
AcDbPolyline
 90
6
 70
1
 10
235.199400
 20
280.172581
 30
0.0
 10
232.421280
 20
278.568544
 30
0.0
 10
232.421280
 20
275.360987
 30
0.0
 10
235.199400
 20
273.757467
 30
0.0
 10
237.977010
 20
275.360987
 30
0.0
 10
237.977010
 20
278.568544
 30
0.0
  0
LWPOLYLINE
  5
197
100
AcDbEntity
  8
0
 62
5
100
AcDbPolyline
 90
6
 70
1
 10
242.721420
 20
280.172581
 30
0.0
 10
239.943300
 20
278.568544
 30
0.0
 10
239.943300
 20
275.360987
 30
0.0
 10
242.721420
 20
273.757467
 30
0.0
 10
245.499550
 20
275.360987
 30
0.0
 10
245.499550
 20
278.568544
 30
0.0
  0
LWPOLYLINE
  5
198
100
AcDbEntity
  8
0
 62
5
100
AcDbPolyline
 90
6
 70
1
 10
250.243960
 20
280.172581
 30
0.0
 10
247.465840
 20
278.568544
 30
0.0
 10
247.465840
 20
275.360987
 30
0.0
 10
250.243960
 20
273.757467
 30
0.0
 10
253.021570
 20
275.360987
 30
0.0
 10
253.021570
 20
278.568544
 30
0.0
  0
LWPOLYLINE
  5
199
100
AcDbEntity
  8
0
 62
5
100
AcDbPolyline
 90
6
 70
1
 10
257.765980
 20
280.172581
 30
0.0
 10
254.987860
 20
278.568544
 30
0.0
 10
254.987860
 20
275.360987
 30
0.0
 10
257.765980
 20
273.757467
 30
0.0
 10
260.544110
 20
275.360987
 30
0.0
 10
260.544110
 20
278.568544
 30
0.0
  0
LWPOLYLINE
  5
19a
100
AcDbEntity
  8
0
 62
5
100
AcDbPolyline
 90
6
 70
1
 10
265.288010
 20
280.172581
 30
0.0
 10
262.510400
 20
278.568544
 30
0.0
 10
262.510400
 20
275.360987
 30
0.0
 10
265.288010
 20
273.757467
 30
0.0
 10
268.066130
 20
275.360987
 30
0.0
 10
268.066130
 20
278.568544
 30
0.0
  0
LWPOLYLINE
  5
19b
100
AcDbEntity
  8
0
 62
5
100
AcDbPolyline
 90
6
 70
1
 10
272.810550
 20
280.172581
 30
0.0
 10
270.032430
 20
278.568544
 30
0.0
 10
270.032430
 20
275.360987
 30
0.0
 10
272.810550
 20
273.757467
 30
0.0
 10
275.588680
 20
275.360987
 30
0.0
 10
275.588680
 20
278.568544
 30
0.0
  0
LWPOLYLINE
  5
19c
100
AcDbEntity
  8
0
 62
5
100
AcDbPolyline
 90
6
 70
1
 10
280.332550
 20
280.172581
 30
0.0
 10
277.554960
 20
278.568544
 30
0.0
 10
277.554960
 20
275.360987
 30
0.0
 10
280.332550
 20
273.757467
 30
0.0
 10
283.110680
 20
275.360987
 30
0.0
 10
283.110680
 20
278.568544
 30
0.0
  0
LWPOLYLINE
  5
19d
100
AcDbEntity
  8
0
 62
5
100
AcDbPolyline
 90
6
 70
1
 10
287.855110
 20
280.172581
 30
0.0
 10
285.076980
 20
278.568544
 30
0.0
 10
285.076980
 20
275.360987
 30
0.0
 10
287.855110
 20
273.757467
 30
0.0
 10
290.632700
 20
275.360987
 30
0.0
 10
290.632700
 20
278.568544
 30
0.0
  0
LWPOLYLINE
  5
19e
100
AcDbEntity
  8
0
 62
5
100
AcDbPolyline
 90
6
 70
1
 10
295.377130
 20
280.172581
 30
0.0
 10
292.599510
 20
278.568544
 30
0.0
 10
292.599510
 20
275.360987
 30
0.0
 10
295.377130
 20
273.757467
 30
0.0
 10
298.155260
 20
275.360987
 30
0.0
 10
298.155260
 20
278.568544
 30
0.0
  0
LWPOLYLINE
  5
19f
100
AcDbEntity
  8
0
 62
5
100
AcDbPolyline
 90
6
 70
1
 10
302.899660
 20
280.172581
 30
0.0
 10
300.121530
 20
278.568544
 30
0.0
 10
300.121530
 20
275.360987
 30
0.0
 10
302.899660
 20
273.757467
 30
0.0
 10
305.677280
 20
275.360987
 30
0.0
 10
305.677280
 20
278.568544
 30
0.0
  0
LWPOLYLINE
  5
1a0
100
AcDbEntity
  8
0
 62
5
100
AcDbPolyline
 90
6
 70
1
 10
310.421680
 20
280.172581
 30
0.0
 10
307.644090
 20
278.568544
 30
0.0
 10
307.644090
 20
275.360987
 30
0.0
 10
310.421680
 20
273.757467
 30
0.0
 10
313.199810
 20
275.360987
 30
0.0
 10
313.199810
 20
278.568544
 30
0.0
  0
LWPOLYLINE
  5
1a1
100
AcDbEntity
  8
0
 62
5
100
AcDbPolyline
 90
6
 70
1
 10
317.944210
 20
280.172581
 30
0.0
 10
315.166090
 20
278.568544
 30
0.0
 10
315.166090
 20
275.360987
 30
0.0
 10
317.944210
 20
273.757467
 30
0.0
 10
320.721830
 20
275.360987
 30
0.0
 10
320.721830
 20
278.568544
 30
0.0
  0
LWPOLYLINE
  5
1a2
100
AcDbEntity
  8
0
 62
5
100
AcDbPolyline
 90
6
 70
1
 10
325.466240
 20
280.172581
 30
0.0
 10
322.688640
 20
278.568544
 30
0.0
 10
322.688640
 20
275.360987
 30
0.0
 10
325.466240
 20
273.757467
 30
0.0
 10
328.244360
 20
275.360987
 30
0.0
 10
328.244360
 20
278.568544
 30
0.0
  0
LWPOLYLINE
  5
1a3
100
AcDbEntity
  8
0
 62
5
100
AcDbPolyline
 90
6
 70
1
 10
332.988790
 20
280.172581
 30
0.0
 10
330.210660
 20
278.568544
 30
0.0
 10
330.210660
 20
275.360987
 30
0.0
 10
332.988790
 20
273.757467
 30
0.0
 10
335.766390
 20
275.360987
 30
0.0
 10
335.766390
 20
278.568544
 30
0.0
  0
LWPOLYLINE
  5
1a4
100
AcDbEntity
  8
0
 62
5
100
AcDbPolyline
 90
6
 70
1
 10
340.510810
 20
280.172581
 30
0.0
 10
337.732690
 20
278.568544
 30
0.0
 10
337.732690
 20
275.360987
 30
0.0
 10
340.510810
 20
273.757467
 30
0.0
 10
343.288940
 20
275.360987
 30
0.0
 10
343.288940
 20
278.568544
 30
0.0
  0
LWPOLYLINE
  5
1a5
100
AcDbEntity
  8
0
 62
5
100
AcDbPolyline
 90
6
 70
1
 10
348.033340
 20
280.172581
 30
0.0
 10
345.255220
 20
278.568544
 30
0.0
 10
345.255220
 20
275.360987
 30
0.0
 10
348.033340
 20
273.757467
 30
0.0
 10
350.810940
 20
275.360987
 30
0.0
 10
350.810940
 20
278.568544
 30
0.0
  0
LWPOLYLINE
  5
1a6
100
AcDbEntity
  8
0
 62
5
100
AcDbPolyline
 90
6
 70
1
 10
355.555370
 20
280.172581
 30
0.0
 10
352.777240
 20
278.568544
 30
0.0
 10
352.777240
 20
275.360987
 30
0.0
 10
355.555370
 20
273.757467
 30
0.0
 10
358.333490
 20
275.360987
 30
0.0
 10
358.333490
 20
278.568544
 30
0.0
  0
LWPOLYLINE
  5
1a7
100
AcDbEntity
  8
0
 62
5
100
AcDbPolyline
 90
6
 70
1
 10
363.077390
 20
280.172581
 30
0.0
 10
360.299770
 20
278.568544
 30
0.0
 10
360.299770
 20
275.360987
 30
0.0
 10
363.077390
 20
273.757467
 30
0.0
 10
365.855520
 20
275.360987
 30
0.0
 10
365.855520
 20
278.568544
 30
0.0
  0
LWPOLYLINE
  5
1a8
100
AcDbEntity
  8
0
 62
5
100
AcDbPolyline
 90
6
 70
1
 10
370.599920
 20
280.172581
 30
0.0
 10
367.821790
 20
278.568544
 30
0.0
 10
367.821790
 20
275.360987
 30
0.0
 10
370.599920
 20
273.757467
 30
0.0
 10
373.378040
 20
275.360987
 30
0.0
 10
373.378040
 20
278.568544
 30
0.0
  0
LWPOLYLINE
  5
1a9
100
AcDbEntity
  8
0
 62
5
100
AcDbPolyline
 90
6
 70
1
 10
378.121940
 20
280.172581
 30
0.0
 10
375.344350
 20
278.568544
 30
0.0
 10
375.344350
 20
275.360987
 30
0.0
 10
378.121940
 20
273.757467
 30
0.0
 10
380.900070
 20
275.360987
 30
0.0
 10
380.900070
 20
278.568544
 30
0.0
  0
LWPOLYLINE
  5
1aa
100
AcDbEntity
  8
0
 62
5
100
AcDbPolyline
 90
6
 70
1
 10
385.644470
 20
280.172581
 30
0.0
 10
382.866350
 20
278.568544
 30
0.0
 10
382.866350
 20
275.360987
 30
0.0
 10
385.644470
 20
273.757467
 30
0.0
 10
388.422090
 20
275.360987
 30
0.0
 10
388.422090
 20
278.568544
 30
0.0
  0
LWPOLYLINE
  5
1ab
100
AcDbEntity
  8
0
 62
5
100
AcDbPolyline
 90
6
 70
1
 10
393.166500
 20
280.172581
 30
0.0
 10
390.388900
 20
278.568544
 30
0.0
 10
390.388900
 20
275.360987
 30
0.0
 10
393.166500
 20
273.757467
 30
0.0
 10
395.938930
 20
275.357886
 30
0.0
 10
395.938930
 20
278.571645
 30
0.0
  0
LWPOLYLINE
  5
1ac
100
AcDbEntity
  8
0
 62
5
100
AcDbPolyline
 90
4
 70
1
 10
205.206400
 20
280.117281
 30
0.0
 10
205.206400
 20
273.812758
 30
0.0
 10
207.887890
 20
275.360983
 30
0.0
 10
207.887890
 20
278.568540
 30
0.0
  0
LWPOLYLINE
  5
1ad
100
AcDbEntity
  8
0
 62
5
100
AcDbPolyline
 90
6
 70
1
 10
208.842870
 20
273.641708
 30
0.0
 10
206.065260
 20
272.038190
 30
0.0
 10
206.065260
 20
268.830117
 30
0.0
 10
208.842870
 20
267.226596
 30
0.0
 10
211.621000
 20
268.830117
 30
0.0
 10
211.621000
 20
272.038190
 30
0.0
  0
LWPOLYLINE
  5
1ae
100
AcDbEntity
  8
0
 62
5
100
AcDbPolyline
 90
6
 70
1
 10
216.365410
 20
273.641708
 30
0.0
 10
213.587290
 20
272.038190
 30
0.0
 10
213.587290
 20
268.830117
 30
0.0
 10
216.365410
 20
267.226596
 30
0.0
 10
219.143020
 20
268.830117
 30
0.0
 10
219.143020
 20
272.038190
 30
0.0
  0
LWPOLYLINE
  5
1af
100
AcDbEntity
  8
0
 62
5
100
AcDbPolyline
 90
6
 70
1
 10
223.887430
 20
273.641708
 30
0.0
 10
221.109820
 20
272.038190
 30
0.0
 10
221.109820
 20
268.830117
 30
0.0
 10
223.887430
 20
267.226596
 30
0.0
 10
226.665560
 20
268.830117
 30
0.0
 10
226.665560
 20
272.038190
 30
0.0
  0
LWPOLYLINE
  5
1b0
100
AcDbEntity
  8
0
 62
5
100
AcDbPolyline
 90
6
 70
1
 10
231.409970
 20
273.641708
 30
0.0
 10
228.631850
 20
272.038190
 30
0.0
 10
228.631850
 20
268.830117
 30
0.0
 10
231.409970
 20
267.226596
 30
0.0
 10
234.187580
 20
268.830117
 30
0.0
 10
234.187580
 20
272.038190
 30
0.0
  0
LWPOLYLINE
  5
1b1
100
AcDbEntity
  8
0
 62
5
100
AcDbPolyline
 90
6
 70
1
 10
238.931990
 20
273.641708
 30
0.0
 10
236.154380
 20
272.038190
 30
0.0
 10
236.154380
 20
268.830117
 30
0.0
 10
238.931990
 20
267.226596
 30
0.0
 10
241.710120
 20
268.830117
 30
0.0
 10
241.710120
 20
272.038190
 30
0.0
  0
LWPOLYLINE
  5
1b2
100
AcDbEntity
  8
0
 62
5
100
AcDbPolyline
 90
6
 70
1
 10
246.454530
 20
273.641708
 30
0.0
 10
243.676410
 20
272.038190
 30
0.0
 10
243.676410
 20
268.830117
 30
0.0
 10
246.454530
 20
267.226596
 30
0.0
 10
249.232140
 20
268.830117
 30
0.0
 10
249.232140
 20
272.038190
 30
0.0
  0
LWPOLYLINE
  5
1b3
100
AcDbEntity
  8
0
 62
5
100
AcDbPolyline
 90
6
 70
1
 10
253.976550
 20
273.641708
 30
0.0
 10
251.198430
 20
272.038190
 30
0.0
 10
251.198430
 20
268.830117
 30
0.0
 10
253.976550
 20
267.226596
 30
0.0
 10
256.754680
 20
268.830117
 30
0.0
 10
256.754680
 20
272.038190
 30
0.0
  0
LWPOLYLINE
  5
1b4
100
AcDbEntity
  8
0
 62
5
100
AcDbPolyline
 90
6
 70
1
 10
261.498570
 20
273.641708
 30
0.0
 10
258.720960
 20
272.038190
 30
0.0
 10
258.720960
 20
268.830117
 30
0.0
 10
261.498570
 20
267.226596
 30
0.0
 10
264.276700
 20
268.830117
 30
0.0
 10
264.276700
 20
272.038190
 30
0.0
  0
LWPOLYLINE
  5
1b5
100
AcDbEntity
  8
0
 62
5
100
AcDbPolyline
 90
6
 70
1
 10
269.021110
 20
273.641708
 30
0.0
 10
266.242990
 20
272.038190
 30
0.0
 10
266.242990
 20
268.830117
 30
0.0
 10
269.021110
 20
267.226596
 30
0.0
 10
271.799240
 20
268.830117
 30
0.0
 10
271.799240
 20
272.038190
 30
0.0
  0
LWPOLYLINE
  5
1b6
100
AcDbEntity
  8
0
 62
5
100
AcDbPolyline
 90
6
 70
1
 10
276.543140
 20
273.641708
 30
0.0
 10
273.765520
 20
272.038190
 30
0.0
 10
273.765520
 20
268.830117
 30
0.0
 10
276.543140
 20
267.226596
 30
0.0
 10
279.321260
 20
268.830117
 30
0.0
 10
279.321260
 20
272.038190
 30
0.0
  0
LWPOLYLINE
  5
1b7
100
AcDbEntity
  8
0
 62
5
100
AcDbPolyline
 90
6
 70
1
 10
284.065670
 20
273.641708
 30
0.0
 10
281.287540
 20
272.038190
 30
0.0
 10
281.287540
 20
268.830117
 30
0.0
 10
284.065670
 20
267.226596
 30
0.0
 10
286.843790
 20
268.830117
 30
0.0
 10
286.843790
 20
272.038190
 30
0.0
  0
LWPOLYLINE
  5
1b8
100
AcDbEntity
  8
0
 62
5
100
AcDbPolyline
 90
6
 70
1
 10
291.587690
 20
273.641708
 30
0.0
 10
288.810090
 20
272.038190
 30
0.0
 10
288.810090
 20
268.830117
 30
0.0
 10
291.587690
 20
267.226596
 30
0.0
 10
294.365810
 20
268.830117
 30
0.0
 10
294.365810
 20
272.038190
 30
0.0
  0
LWPOLYLINE
  5
1b9
100
AcDbEntity
  8
0
 62
5
100
AcDbPolyline
 90
6
 70
1
 10
299.110220
 20
273.641708
 30
0.0
 10
296.332090
 20
272.038190
 30
0.0
 10
296.332090
 20
268.830117
 30
0.0
 10
299.110220
 20
267.226596
 30
0.0
 10
301.887840
 20
268.830117
 30
0.0
 10
301.887840
 20
272.038190
 30
0.0
  0
LWPOLYLINE
  5
1ba
100
AcDbEntity
  8
0
 62
5
100
AcDbPolyline
 90
6
 70
1
 10
306.632240
 20
273.641708
 30
0.0
 10
303.854650
 20
272.038190
 30
0.0
 10
303.854650
 20
268.830117
 30
0.0
 10
306.632240
 20
267.226596
 30
0.0
 10
309.410370
 20
268.830117
 30
0.0
 10
309.410370
 20
272.038190
 30
0.0
  0
LWPOLYLINE
  5
1bb
100
AcDbEntity
  8
0
 62
5
100
AcDbPolyline
 90
6
 70
1
 10
314.154800
 20
273.641708
 30
0.0
 10
311.376670
 20
272.038190
 30
0.0
 10
311.376670
 20
268.830117
 30
0.0
 10
314.154800
 20
267.226596
 30
0.0
 10
316.932390
 20
268.830117
 30
0.0
 10
316.932390
 20
272.038190
 30
0.0
  0
LWPOLYLINE
  5
1bc
100
AcDbEntity
  8
0
 62
5
100
AcDbPolyline
 90
6
 70
1
 10
321.676820
 20
273.641708
 30
0.0
 10
318.899200
 20
272.038190
 30
0.0
 10
318.899200
 20
268.830117
 30
0.0
 10
321.676820
 20
267.226596
 30
0.0
 10
324.454950
 20
268.830117
 30
0.0
 10
324.454950
 20
272.038190
 30
0.0
  0
LWPOLYLINE
  5
1bd
100
AcDbEntity
  8
0
 62
5
100
AcDbPolyline
 90
6
 70
1
 10
329.199350
 20
273.641708
 30
0.0
 10
326.421220
 20
272.038190
 30
0.0
 10
326.421220
 20
268.830117
 30
0.0
 10
329.199350
 20
267.226596
 30
0.0
 10
331.976940
 20
268.830117
 30
0.0
 10
331.976940
 20
272.038190
 30
0.0
  0
LWPOLYLINE
  5
1be
100
AcDbEntity
  8
0
 62
5
100
AcDbPolyline
 90
6
 70
1
 10
336.721370
 20
273.641708
 30
0.0
 10
333.943750
 20
272.038190
 30
0.0
 10
333.943750
 20
268.830117
 30
0.0
 10
336.721370
 20
267.226596
 30
0.0
 10
339.499500
 20
268.830117
 30
0.0
 10
339.499500
 20
272.038190
 30
0.0
  0
LWPOLYLINE
  5
1bf
100
AcDbEntity
  8
0
 62
5
100
AcDbPolyline
 90
6
 70
1
 10
344.243900
 20
273.641708
 30
0.0
 10
341.465780
 20
272.038190
 30
0.0
 10
341.465780
 20
268.830117
 30
0.0
 10
344.243900
 20
267.226596
 30
0.0
 10
347.021520
 20
268.830117
 30
0.0
 10
347.021520
 20
272.038190
 30
0.0
  0
LWPOLYLINE
  5
1c0
100
AcDbEntity
  8
0
 62
5
100
AcDbPolyline
 90
6
 70
1
 10
351.765920
 20
273.641708
 30
0.0
 10
348.987800
 20
272.038190
 30
0.0
 10
348.987800
 20
268.830117
 30
0.0
 10
351.765920
 20
267.226596
 30
0.0
 10
354.544050
 20
268.830117
 30
0.0
 10
354.544050
 20
272.038190
 30
0.0
  0
LWPOLYLINE
  5
1c1
100
AcDbEntity
  8
0
 62
5
100
AcDbPolyline
 90
6
 70
1
 10
359.288480
 20
273.641708
 30
0.0
 10
356.510350
 20
272.038190
 30
0.0
 10
356.510350
 20
268.830117
 30
0.0
 10
359.288480
 20
267.226596
 30
0.0
 10
362.066070
 20
268.830117
 30
0.0
 10
362.066070
 20
272.038190
 30
0.0
  0
LWPOLYLINE
  5
1c2
100
AcDbEntity
  8
0
 62
5
100
AcDbPolyline
 90
6
 70
1
 10
366.810480
 20
273.641708
 30
0.0
 10
364.032350
 20
272.038190
 30
0.0
 10
364.032350
 20
268.830117
 30
0.0
 10
366.810480
 20
267.226596
 30
0.0
 10
369.588600
 20
268.830117
 30
0.0
 10
369.588600
 20
272.038190
 30
0.0
  0
LWPOLYLINE
  5
1c3
100
AcDbEntity
  8
0
 62
5
100
AcDbPolyline
 90
6
 70
1
 10
374.332500
 20
273.641708
 30
0.0
 10
371.554910
 20
272.038190
 30
0.0
 10
371.554910
 20
268.830117
 30
0.0
 10
374.332500
 20
267.226596
 30
0.0
 10
377.110630
 20
268.830117
 30
0.0
 10
377.110630
 20
272.038190
 30
0.0
  0
LWPOLYLINE
  5
1c4
100
AcDbEntity
  8
0
 62
5
100
AcDbPolyline
 90
6
 70
1
 10
381.855060
 20
273.641708
 30
0.0
 10
379.076930
 20
272.038190
 30
0.0
 10
379.076930
 20
268.830117
 30
0.0
 10
381.855060
 20
267.226596
 30
0.0
 10
384.632650
 20
268.830117
 30
0.0
 10
384.632650
 20
272.038190
 30
0.0
  0
LWPOLYLINE
  5
1c5
100
AcDbEntity
  8
0
 62
5
100
AcDbPolyline
 90
6
 70
1
 10
389.377080
 20
273.641708
 30
0.0
 10
386.599460
 20
272.038190
 30
0.0
 10
386.599460
 20
268.830117
 30
0.0
 10
389.377080
 20
267.226596
 30
0.0
 10
392.155210
 20
268.830117
 30
0.0
 10
392.155210
 20
272.038190
 30
0.0
  0
LWPOLYLINE
  5
1c6
100
AcDbEntity
  8
0
 62
5
100
AcDbPolyline
 90
4
 70
1
 10
395.938930
 20
273.087220
 30
0.0
 10
394.121480
 20
272.038190
 30
0.0
 10
394.121480
 20
268.830117
 30
0.0
 10
395.938930
 20
267.781084
 30
0.0
  0
LWPOLYLINE
  5
1c7
100
AcDbEntity
  8
0
 62
5
100
AcDbPolyline
 90
6
 70
1
 10
212.575980
 20
267.110841
 30
0.0
 10
209.797850
 20
265.507321
 30
0.0
 10
209.797850
 20
262.299248
 30
0.0
 10
212.575980
 20
260.695730
 30
0.0
 10
215.353590
 20
262.299248
 30
0.0
 10
215.353590
 20
265.507321
 30
0.0
  0
LWPOLYLINE
  5
1c8
100
AcDbEntity
  8
0
 62
5
100
AcDbPolyline
 90
6
 70
1
 10
220.098000
 20
267.110841
 30
0.0
 10
217.320390
 20
265.507321
 30
0.0
 10
217.320390
 20
262.299248
 30
0.0
 10
220.098000
 20
260.695730
 30
0.0
 10
222.876120
 20
262.299248
 30
0.0
 10
222.876120
 20
265.507321
 30
0.0
  0
LWPOLYLINE
  5
1c9
100
AcDbEntity
  8
0
 62
5
100
AcDbPolyline
 90
6
 70
1
 10
227.620540
 20
267.110841
 30
0.0
 10
224.842410
 20
265.507321
 30
0.0
 10
224.842410
 20
262.299248
 30
0.0
 10
227.620540
 20
260.695730
 30
0.0
 10
230.398150
 20
262.299248
 30
0.0
 10
230.398150
 20
265.507321
 30
0.0
  0
LWPOLYLINE
  5
1ca
100
AcDbEntity
  8
0
 62
5
100
AcDbPolyline
 90
6
 70
1
 10
235.142560
 20
267.110841
 30
0.0
 10
232.364950
 20
265.507321
 30
0.0
 10
232.364950
 20
262.299248
 30
0.0
 10
235.142560
 20
260.695730
 30
0.0
 10
237.920680
 20
262.299248
 30
0.0
 10
237.920680
 20
265.507321
 30
0.0
  0
LWPOLYLINE
  5
1cb
100
AcDbEntity
  8
0
 62
5
100
AcDbPolyline
 90
6
 70
1
 10
242.665100
 20
267.110841
 30
0.0
 10
239.886970
 20
265.507321
 30
0.0
 10
239.886970
 20
262.299248
 30
0.0
 10
242.665100
 20
260.695730
 30
0.0
 10
245.442710
 20
262.299248
 30
0.0
 10
245.442710
 20
265.507321
 30
0.0
  0
LWPOLYLINE
  5
1cc
100
AcDbEntity
  8
0
 62
5
100
AcDbPolyline
 90
6
 70
1
 10
250.187120
 20
267.110841
 30
0.0
 10
247.409510
 20
265.507321
 30
0.0
 10
247.409510
 20
262.299248
 30
0.0
 10
250.187120
 20
260.695730
 30
0.0
 10
252.965240
 20
262.299248
 30
0.0
 10
252.965240
 20
265.507321
 30
0.0
  0
LWPOLYLINE
  5
1cd
100
AcDbEntity
  8
0
 62
5
100
AcDbPolyline
 90
6
 70
1
 10
257.709660
 20
267.110841
 30
0.0
 10
254.931530
 20
265.507321
 30
0.0
 10
254.931530
 20
262.299248
 30
0.0
 10
257.709660
 20
260.695730
 30
0.0
 10
260.487260
 20
262.299248
 30
0.0
 10
260.487260
 20
265.507321
 30
0.0
  0
LWPOLYLINE
  5
1ce
100
AcDbEntity
  8
0
 62
5
100
AcDbPolyline
 90
6
 70
1
 10
265.231680
 20
267.110841
 30
0.0
 10
262.453550
 20
265.507321
 30
0.0
 10
262.453550
 20
262.299248
 30
0.0
 10
265.231680
 20
260.695730
 30
0.0
 10
268.009800
 20
262.299248
 30
0.0
 10
268.009800
 20
265.507321
 30
0.0
  0
LWPOLYLINE
  5
1cf
100
AcDbEntity
  8
0
 62
5
100
AcDbPolyline
 90
6
 70
1
 10
272.753700
 20
267.110841
 30
0.0
 10
269.976100
 20
265.507321
 30
0.0
 10
269.976100
 20
262.299248
 30
0.0
 10
272.753700
 20
260.695730
 30
0.0
 10
275.531820
 20
262.299248
 30
0.0
 10
275.531820
 20
265.507321
 30
0.0
  0
LWPOLYLINE
  5
1d0
100
AcDbEntity
  8
0
 62
5
100
AcDbPolyline
 90
6
 70
1
 10
280.276250
 20
267.110841
 30
0.0
 10
277.498120
 20
265.507321
 30
0.0
 10
277.498120
 20
262.299248
 30
0.0
 10
280.276250
 20
260.695730
 30
0.0
 10
283.054370
 20
262.299248
 30
0.0
 10
283.054370
 20
265.507321
 30
0.0
  0
LWPOLYLINE
  5
1d1
100
AcDbEntity
  8
0
 62
5
100
AcDbPolyline
 90
6
 70
1
 10
287.798250
 20
267.110841
 30
0.0
 10
285.020650
 20
265.507321
 30
0.0
 10
285.020650
 20
262.299248
 30
0.0
 10
287.798250
 20
260.695730
 30
0.0
 10
290.576370
 20
262.299248
 30
0.0
 10
290.576370
 20
265.507321
 30
0.0
  0
LWPOLYLINE
  5
1d2
100
AcDbEntity
  8
0
 62
5
100
AcDbPolyline
 90
6
 70
1
 10
295.320800
 20
267.110841
 30
0.0
 10
292.542680
 20
265.507321
 30
0.0
 10
292.542680
 20
262.299248
 30
0.0
 10
295.320800
 20
260.695730
 30
0.0
 10
298.098400
 20
262.299248
 30
0.0
 10
298.098400
 20
265.507321
 30
0.0
  0
LWPOLYLINE
  5
1d3
100
AcDbEntity
  8
0
 62
5
100
AcDbPolyline
 90
6
 70
1
 10
302.842830
 20
267.110841
 30
0.0
 10
300.065200
 20
265.507321
 30
0.0
 10
300.065200
 20
262.299248
 30
0.0
 10
302.842830
 20
260.695730
 30
0.0
 10
305.620950
 20
262.299248
 30
0.0
 10
305.620950
 20
265.507321
 30
0.0
  0
LWPOLYLINE
  5
1d4
100
AcDbEntity
  8
0
 62
5
100
AcDbPolyline
 90
6
 70
1
 10
310.365350
 20
267.110841
 30
0.0
 10
307.587230
 20
265.507321
 30
0.0
 10
307.587230
 20
262.299248
 30
0.0
 10
310.365350
 20
260.695730
 30
0.0
 10
313.142980
 20
262.299248
 30
0.0
 10
313.142980
 20
265.507321
 30
0.0
  0
LWPOLYLINE
  5
1d5
100
AcDbEntity
  8
0
 62
5
100
AcDbPolyline
 90
6
 70
1
 10
317.887380
 20
267.110841
 30
0.0
 10
315.109760
 20
265.507321
 30
0.0
 10
315.109760
 20
262.299248
 30
0.0
 10
317.887380
 20
260.695730
 30
0.0
 10
320.665500
 20
262.299248
 30
0.0
 10
320.665500
 20
265.507321
 30
0.0
  0
LWPOLYLINE
  5
1d6
100
AcDbEntity
  8
0
 62
5
100
AcDbPolyline
 90
6
 70
1
 10
325.409910
 20
267.110841
 30
0.0
 10
322.631780
 20
265.507321
 30
0.0
 10
322.631780
 20
262.299248
 30
0.0
 10
325.409910
 20
260.695730
 30
0.0
 10
328.187530
 20
262.299248
 30
0.0
 10
328.187530
 20
265.507321
 30
0.0
  0
LWPOLYLINE
  5
1d7
100
AcDbEntity
  8
0
 62
5
100
AcDbPolyline
 90
6
 70
1
 10
332.931930
 20
267.110841
 30
0.0
 10
330.154340
 20
265.507321
 30
0.0
 10
330.154340
 20
262.299248
 30
0.0
 10
332.931930
 20
260.695730
 30
0.0
 10
335.710060
 20
262.299248
 30
0.0
 10
335.710060
 20
265.507321
 30
0.0
  0
LWPOLYLINE
  5
1d8
100
AcDbEntity
  8
0
 62
5
100
AcDbPolyline
 90
6
 70
1
 10
340.454480
 20
267.110841
 30
0.0
 10
337.676360
 20
265.507321
 30
0.0
 10
337.676360
 20
262.299248
 30
0.0
 10
340.454480
 20
260.695730
 30
0.0
 10
343.232080
 20
262.299248
 30
0.0
 10
343.232080
 20
265.507321
 30
0.0
  0
LWPOLYLINE
  5
1d9
100
AcDbEntity
  8
0
 62
5
100
AcDbPolyline
 90
6
 70
1
 10
347.976510
 20
267.110841
 30
0.0
 10
345.198380
 20
265.507321
 30
0.0
 10
345.198380
 20
262.299248
 30
0.0
 10
347.976510
 20
260.695730
 30
0.0
 10
350.754630
 20
262.299248
 30
0.0
 10
350.754630
 20
265.507321
 30
0.0
  0
LWPOLYLINE
  5
1da
100
AcDbEntity
  8
0
 62
5
100
AcDbPolyline
 90
6
 70
1
 10
355.499040
 20
267.110841
 30
0.0
 10
352.720910
 20
265.507321
 30
0.0
 10
352.720910
 20
262.299248
 30
0.0
 10
355.499040
 20
260.695730
 30
0.0
 10
358.276630
 20
262.299248
 30
0.0
 10
358.276630
 20
265.507321
 30
0.0
  0
LWPOLYLINE
  5
1db
100
AcDbEntity
  8
0
 62
5
100
AcDbPolyline
 90
6
 70
1
 10
363.021060
 20
267.110841
 30
0.0
 10
360.242940
 20
265.507321
 30
0.0
 10
360.242940
 20
262.299248
 30
0.0
 10
363.021060
 20
260.695730
 30
0.0
 10
365.799190
 20
262.299248
 30
0.0
 10
365.799190
 20
265.507321
 30
0.0
  0
LWPOLYLINE
  5
1dc
100
AcDbEntity
  8
0
 62
5
100
AcDbPolyline
 90
6
 70
1
 10
370.543090
 20
267.110841
 30
0.0
 10
367.765460
 20
265.507321
 30
0.0
 10
367.765460
 20
262.299248
 30
0.0
 10
370.543090
 20
260.695730
 30
0.0
 10
373.321210
 20
262.299248
 30
0.0
 10
373.321210
 20
265.507321
 30
0.0
  0
LWPOLYLINE
  5
1dd
100
AcDbEntity
  8
0
 62
5
100
AcDbPolyline
 90
6
 70
1
 10
378.065610
 20
267.110841
 30
0.0
 10
375.287490
 20
265.507321
 30
0.0
 10
375.287490
 20
262.299248
 30
0.0
 10
378.065610
 20
260.695730
 30
0.0
 10
380.843740
 20
262.299248
 30
0.0
 10
380.843740
 20
265.507321
 30
0.0
  0
LWPOLYLINE
  5
1de
100
AcDbEntity
  8
0
 62
5
100
AcDbPolyline
 90
6
 70
1
 10
385.587640
 20
267.110841
 30
0.0
 10
382.810020
 20
265.507321
 30
0.0
 10
382.810020
 20
262.299248
 30
0.0
 10
385.587640
 20
260.695730
 30
0.0
 10
388.365760
 20
262.299248
 30
0.0
 10
388.365760
 20
265.507321
 30
0.0
  0
LWPOLYLINE
  5
1df
100
AcDbEntity
  8
0
 62
5
100
AcDbPolyline
 90
6
 70
1
 10
393.110170
 20
267.110841
 30
0.0
 10
390.332040
 20
265.507321
 30
0.0
 10
390.332040
 20
262.299248
 30
0.0
 10
393.110170
 20
260.695730
 30
0.0
 10
395.887790
 20
262.299248
 30
0.0
 10
395.887790
 20
265.507321
 30
0.0
  0
LWPOLYLINE
  5
1e0
100
AcDbEntity
  8
0
 62
5
100
AcDbPolyline
 90
4
 70
1
 10
205.206400
 20
267.022471
 30
0.0
 10
205.206400
 20
260.784093
 30
0.0
 10
207.831560
 20
262.299246
 30
0.0
 10
207.831560
 20
265.507319
 30
0.0
  0
LWPOLYLINE
  5
1e1
100
AcDbEntity
  8
0
 62
5
100
AcDbPolyline
 90
6
 70
1
 10
208.786550
 20
260.579973
 30
0.0
 10
206.008420
 20
258.976452
 30
0.0
 10
206.008420
 20
255.768895
 30
0.0
 10
208.786550
 20
254.164859
 30
0.0
 10
211.564150
 20
255.768895
 30
0.0
 10
211.564150
 20
258.976452
 30
0.0
  0
LWPOLYLINE
  5
1e2
100
AcDbEntity
  8
0
 62
5
100
AcDbPolyline
 90
6
 70
1
 10
216.308570
 20
260.579973
 30
0.0
 10
213.530960
 20
258.976452
 30
0.0
 10
213.530960
 20
255.768895
 30
0.0
 10
216.308570
 20
254.164859
 30
0.0
 10
219.086690
 20
255.768895
 30
0.0
 10
219.086690
 20
258.976452
 30
0.0
  0
LWPOLYLINE
  5
1e3
100
AcDbEntity
  8
0
 62
5
100
AcDbPolyline
 90
6
 70
1
 10
223.831110
 20
260.579973
 30
0.0
 10
221.052980
 20
258.976452
 30
0.0
 10
221.052980
 20
255.768895
 30
0.0
 10
223.831110
 20
254.164859
 30
0.0
 10
226.608710
 20
255.768895
 30
0.0
 10
226.608710
 20
258.976452
 30
0.0
  0
LWPOLYLINE
  5
1e4
100
AcDbEntity
  8
0
 62
5
100
AcDbPolyline
 90
6
 70
1
 10
231.353130
 20
260.579973
 30
0.0
 10
228.575520
 20
258.976452
 30
0.0
 10
228.575520
 20
255.768895
 30
0.0
 10
231.353130
 20
254.164859
 30
0.0
 10
234.131250
 20
255.768895
 30
0.0
 10
234.131250
 20
258.976452
 30
0.0
  0
LWPOLYLINE
  5
1e5
100
AcDbEntity
  8
0
 62
5
100
AcDbPolyline
 90
6
 70
1
 10
238.875660
 20
260.579973
 30
0.0
 10
236.097540
 20
258.976452
 30
0.0
 10
236.097540
 20
255.768895
 30
0.0
 10
238.875660
 20
254.164859
 30
0.0
 10
241.653270
 20
255.768895
 30
0.0
 10
241.653270
 20
258.976452
 30
0.0
  0
LWPOLYLINE
  5
1e6
100
AcDbEntity
  8
0
 62
5
100
AcDbPolyline
 90
6
 70
1
 10
246.397690
 20
260.579973
 30
0.0
 10
243.620080
 20
258.976452
 30
0.0
 10
243.620080
 20
255.768895
 30
0.0
 10
246.397690
 20
254.164859
 30
0.0
 10
249.175810
 20
255.768895
 30
0.0
 10
249.175810
 20
258.976452
 30
0.0
  0
LWPOLYLINE
  5
1e7
100
AcDbEntity
  8
0
 62
5
100
AcDbPolyline
 90
6
 70
1
 10
253.920220
 20
260.579973
 30
0.0
 10
251.142100
 20
258.976452
 30
0.0
 10
251.142100
 20
255.768895
 30
0.0
 10
253.920220
 20
254.164859
 30
0.0
 10
256.697830
 20
255.768895
 30
0.0
 10
256.697830
 20
258.976452
 30
0.0
  0
LWPOLYLINE
  5
1e8
100
AcDbEntity
  8
0
 62
5
100
AcDbPolyline
 90
6
 70
1
 10
261.442250
 20
260.579973
 30
0.0
 10
258.664120
 20
258.976452
 30
0.0
 10
258.664120
 20
255.768895
 30
0.0
 10
261.442250
 20
254.164859
 30
0.0
 10
264.220370
 20
255.768895
 30
0.0
 10
264.220370
 20
258.976452
 30
0.0
  0
LWPOLYLINE
  5
1e9
100
AcDbEntity
  8
0
 62
5
100
AcDbPolyline
 90
6
 70
1
 10
268.964250
 20
260.579973
 30
0.0
 10
266.186660
 20
258.976452
 30
0.0
 10
266.186660
 20
255.768895
 30
0.0
 10
268.964250
 20
254.164859
 30
0.0
 10
271.742380
 20
255.768895
 30
0.0
 10
271.742380
 20
258.976452
 30
0.0
  0
LWPOLYLINE
  5
1ea
100
AcDbEntity
  8
0
 62
5
100
AcDbPolyline
 90
6
 70
1
 10
276.486810
 20
260.579973
 30
0.0
 10
273.708680
 20
258.976452
 30
0.0
 10
273.708680
 20
255.768895
 30
0.0
 10
276.486810
 20
254.164859
 30
0.0
 10
279.264930
 20
255.768895
 30
0.0
 10
279.264930
 20
258.976452
 30
0.0
  0
LWPOLYLINE
  5
1eb
100
AcDbEntity
  8
0
 62
5
100
AcDbPolyline
 90
6
 70
1
 10
284.008830
 20
260.579973
 30
0.0
 10
281.231210
 20
258.976452
 30
0.0
 10
281.231210
 20
255.768895
 30
0.0
 10
284.008830
 20
254.164859
 30
0.0
 10
286.786960
 20
255.768895
 30
0.0
 10
286.786960
 20
258.976452
 30
0.0
  0
LWPOLYLINE
  5
1ec
100
AcDbEntity
  8
0
 62
5
100
AcDbPolyline
 90
6
 70
1
 10
291.531360
 20
260.579973
 30
0.0
 10
288.753240
 20
258.976452
 30
0.0
 10
288.753240
 20
255.768895
 30
0.0
 10
291.531360
 20
254.164859
 30
0.0
 10
294.309490
 20
255.768895
 30
0.0
 10
294.309490
 20
258.976452
 30
0.0
  0
LWPOLYLINE
  5
1ed
100
AcDbEntity
  8
0
 62
5
100
AcDbPolyline
 90
6
 70
1
 10
299.053380
 20
260.579973
 30
0.0
 10
296.275790
 20
258.976452
 30
0.0
 10
296.275790
 20
255.768895
 30
0.0
 10
299.053380
 20
254.164859
 30
0.0
 10
301.831510
 20
255.768895
 30
0.0
 10
301.831510
 20
258.976452
 30
0.0
  0
LWPOLYLINE
  5
1ee
100
AcDbEntity
  8
0
 62
5
100
AcDbPolyline
 90
6
 70
1
 10
306.575910
 20
260.579973
 30
0.0
 10
303.797790
 20
258.976452
 30
0.0
 10
303.797790
 20
255.768895
 30
0.0
 10
306.575910
 20
254.164859
 30
0.0
 10
309.353530
 20
255.768895
 30
0.0
 10
309.353530
 20
258.976452
 30
0.0
  0
LWPOLYLINE
  5
1ef
100
AcDbEntity
  8
0
 62
5
100
AcDbPolyline
 90
6
 70
1
 10
314.097940
 20
260.579973
 30
0.0
 10
311.320340
 20
258.976452
 30
0.0
 10
311.320340
 20
255.768895
 30
0.0
 10
314.097940
 20
254.164859
 30
0.0
 10
316.876060
 20
255.768895
 30
0.0
 10
316.876060
 20
258.976452
 30
0.0
  0
LWPOLYLINE
  5
1f0
100
AcDbEntity
  8
0
 62
5
100
AcDbPolyline
 90
6
 70
1
 10
321.620490
 20
260.579973
 30
0.0
 10
318.842370
 20
258.976452
 30
0.0
 10
318.842370
 20
255.768895
 30
0.0
 10
321.620490
 20
254.164859
 30
0.0
 10
324.398090
 20
255.768895
 30
0.0
 10
324.398090
 20
258.976452
 30
0.0
  0
LWPOLYLINE
  5
1f1
100
AcDbEntity
  8
0
 62
5
100
AcDbPolyline
 90
6
 70
1
 10
329.142520
 20
260.579973
 30
0.0
 10
326.364890
 20
258.976452
 30
0.0
 10
326.364890
 20
255.768895
 30
0.0
 10
329.142520
 20
254.164859
 30
0.0
 10
331.920640
 20
255.768895
 30
0.0
 10
331.920640
 20
258.976452
 30
0.0
  0
LWPOLYLINE
  5
1f2
100
AcDbEntity
  8
0
 62
5
100
AcDbPolyline
 90
6
 70
1
 10
336.665040
 20
260.579973
 30
0.0
 10
333.886920
 20
258.976452
 30
0.0
 10
333.886920
 20
255.768895
 30
0.0
 10
336.665040
 20
254.164859
 30
0.0
 10
339.442640
 20
255.768895
 30
0.0
 10
339.442640
 20
258.976452
 30
0.0
  0
LWPOLYLINE
  5
1f3
100
AcDbEntity
  8
0
 62
5
100
AcDbPolyline
 90
6
 70
1
 10
344.187070
 20
260.579973
 30
0.0
 10
341.409450
 20
258.976452
 30
0.0
 10
341.409450
 20
255.768895
 30
0.0
 10
344.187070
 20
254.164859
 30
0.0
 10
346.965190
 20
255.768895
 30
0.0
 10
346.965190
 20
258.976452
 30
0.0
  0
LWPOLYLINE
  5
1f4
100
AcDbEntity
  8
0
 62
5
100
AcDbPolyline
 90
6
 70
1
 10
351.709590
 20
260.579973
 30
0.0
 10
348.931470
 20
258.976452
 30
0.0
 10
348.931470
 20
255.768895
 30
0.0
 10
351.709590
 20
254.164859
 30
0.0
 10
354.487220
 20
255.768895
 30
0.0
 10
354.487220
 20
258.976452
 30
0.0
  0
LWPOLYLINE
  5
1f5
100
AcDbEntity
  8
0
 62
5
100
AcDbPolyline
 90
6
 70
1
 10
359.231620
 20
260.579973
 30
0.0
 10
356.453490
 20
258.976452
 30
0.0
 10
356.453490
 20
255.768895
 30
0.0
 10
359.231620
 20
254.164859
 30
0.0
 10
362.009740
 20
255.768895
 30
0.0
 10
362.009740
 20
258.976452
 30
0.0
  0
LWPOLYLINE
  5
1f6
100
AcDbEntity
  8
0
 62
5
100
AcDbPolyline
 90
6
 70
1
 10
366.754170
 20
260.579973
 30
0.0
 10
363.976050
 20
258.976452
 30
0.0
 10
363.976050
 20
255.768895
 30
0.0
 10
366.754170
 20
254.164859
 30
0.0
 10
369.531770
 20
255.768895
 30
0.0
 10
369.531770
 20
258.976452
 30
0.0
  0
LWPOLYLINE
  5
1f7
100
AcDbEntity
  8
0
 62
5
100
AcDbPolyline
 90
6
 70
1
 10
374.276170
 20
260.579973
 30
0.0
 10
371.498050
 20
258.976452
 30
0.0
 10
371.498050
 20
255.768895
 30
0.0
 10
374.276170
 20
254.164859
 30
0.0
 10
377.054300
 20
255.768895
 30
0.0
 10
377.054300
 20
258.976452
 30
0.0
  0
LWPOLYLINE
  5
1f8
100
AcDbEntity
  8
0
 62
5
100
AcDbPolyline
 90
6
 70
1
 10
381.798200
 20
260.579973
 30
0.0
 10
379.020600
 20
258.976452
 30
0.0
 10
379.020600
 20
255.768895
 30
0.0
 10
381.798200
 20
254.164859
 30
0.0
 10
384.576320
 20
255.768895
 30
0.0
 10
384.576320
 20
258.976452
 30
0.0
  0
LWPOLYLINE
  5
1f9
100
AcDbEntity
  8
0
 62
5
100
AcDbPolyline
 90
6
 70
1
 10
389.320750
 20
260.579973
 30
0.0
 10
386.542630
 20
258.976452
 30
0.0
 10
386.542630
 20
255.768895
 30
0.0
 10
389.320750
 20
254.164859
 30
0.0
 10
392.098350
 20
255.768895
 30
0.0
 10
392.098350
 20
258.976452
 30
0.0
  0
LWPOLYLINE
  5
1fa
100
AcDbEntity
  8
0
 62
5
100
AcDbPolyline
 90
4
 70
1
 10
395.938930
 20
260.058040
 30
0.0
 10
394.065150
 20
258.976452
 30
0.0
 10
394.065150
 20
255.768895
 30
0.0
 10
395.938930
 20
254.686792
 30
0.0
  0
LWPOLYLINE
  5
1fb
100
AcDbEntity
  8
0
 62
5
100
AcDbPolyline
 90
7
 70
1
 10
212.519130
 20
254.049622
 30
0.0
 10
209.741520
 20
252.445586
 30
0.0
 10
209.741520
 20
249.238029
 30
0.0
 10
209.842810
 20
249.179629
 30
0.0
 10
215.195970
 20
249.179629
 30
0.0
 10
215.297260
 20
249.238029
 30
0.0
 10
215.297260
 20
252.445586
 30
0.0
  0
LWPOLYLINE
  5
1fc
100
AcDbEntity
  8
0
 62
5
100
AcDbPolyline
 90
7
 70
1
 10
220.041670
 20
254.049622
 30
0.0
 10
217.263550
 20
252.445586
 30
0.0
 10
217.263550
 20
249.238029
 30
0.0
 10
217.364830
 20
249.179629
 30
0.0
 10
222.717990
 20
249.179629
 30
0.0
 10
222.819280
 20
249.238029
 30
0.0
 10
222.819280
 20
252.445586
 30
0.0
  0
LWPOLYLINE
  5
1fd
100
AcDbEntity
  8
0
 62
5
100
AcDbPolyline
 90
7
 70
1
 10
227.563690
 20
254.049622
 30
0.0
 10
224.786080
 20
252.445586
 30
0.0
 10
224.786080
 20
249.238029
 30
0.0
 10
224.887370
 20
249.179629
 30
0.0
 10
230.240530
 20
249.179629
 30
0.0
 10
230.341820
 20
249.238029
 30
0.0
 10
230.341820
 20
252.445586
 30
0.0
  0
LWPOLYLINE
  5
1fe
100
AcDbEntity
  8
0
 62
5
100
AcDbPolyline
 90
7
 70
1
 10
235.086230
 20
254.049622
 30
0.0
 10
232.308110
 20
252.445586
 30
0.0
 10
232.308110
 20
249.238029
 30
0.0
 10
232.409390
 20
249.179629
 30
0.0
 10
237.762550
 20
249.179629
 30
0.0
 10
237.863840
 20
249.238029
 30
0.0
 10
237.863840
 20
252.445586
 30
0.0
  0
LWPOLYLINE
  5
1ff
100
AcDbEntity
  8
0
 62
5
100
AcDbPolyline
 90
7
 70
1
 10
242.608250
 20
254.049622
 30
0.0
 10
239.830640
 20
252.445586
 30
0.0
 10
239.830640
 20
249.238029
 30
0.0
 10
239.931930
 20
249.179629
 30
0.0
 10
245.285090
 20
249.179629
 30
0.0
 10
245.386380
 20
249.238029
 30
0.0
 10
245.386380
 20
252.445586
 30
0.0
  0
LWPOLYLINE
  5
200
100
AcDbEntity
  8
0
 62
5
100
AcDbPolyline
 90
7
 70
1
 10
250.130790
 20
254.049622
 30
0.0
 10
247.352670
 20
252.445586
 30
0.0
 10
247.352670
 20
249.238029
 30
0.0
 10
247.453950
 20
249.179629
 30
0.0
 10
252.807110
 20
249.179629
 30
0.0
 10
252.908400
 20
249.238029
 30
0.0
 10
252.908400
 20
252.445586
 30
0.0
  0
LWPOLYLINE
  5
201
100
AcDbEntity
  8
0
 62
5
100
AcDbPolyline
 90
7
 70
1
 10
257.652810
 20
254.049622
 30
0.0
 10
254.875210
 20
252.445586
 30
0.0
 10
254.875210
 20
249.238029
 30
0.0
 10
254.976490
 20
249.179629
 30
0.0
 10
260.329650
 20
249.179629
 30
0.0
 10
260.430940
 20
249.238029
 30
0.0
 10
260.430940
 20
252.445586
 30
0.0
  0
LWPOLYLINE
  5
202
100
AcDbEntity
  8
0
 62
5
100
AcDbPolyline
 90
7
 70
1
 10
265.175350
 20
254.049622
 30
0.0
 10
262.397220
 20
252.445586
 30
0.0
 10
262.397220
 20
249.238029
 30
0.0
 10
262.498510
 20
249.179629
 30
0.0
 10
267.851680
 20
249.179629
 30
0.0
 10
267.952960
 20
249.238029
 30
0.0
 10
267.952960
 20
252.445586
 30
0.0
  0
LWPOLYLINE
  5
203
100
AcDbEntity
  8
0
 62
5
100
AcDbPolyline
 90
7
 70
1
 10
272.697370
 20
254.049622
 30
0.0
 10
269.919240
 20
252.445586
 30
0.0
 10
269.919240
 20
249.238029
 30
0.0
 10
270.020520
 20
249.179629
 30
0.0
 10
275.374210
 20
249.179629
 30
0.0
 10
275.475490
 20
249.238029
 30
0.0
 10
275.475490
 20
252.445586
 30
0.0
  0
LWPOLYLINE
  5
204
100
AcDbEntity
  8
0
 62
5
100
AcDbPolyline
 90
7
 70
1
 10
280.219390
 20
254.049622
 30
0.0
 10
277.441800
 20
252.445586
 30
0.0
 10
277.441800
 20
249.238029
 30
0.0
 10
277.543080
 20
249.179629
 30
0.0
 10
282.896230
 20
249.179629
 30
0.0
 10
282.997520
 20
249.238029
 30
0.0
 10
282.997520
 20
252.445586
 30
0.0
  0
LWPOLYLINE
  5
205
100
AcDbEntity
  8
0
 62
5
100
AcDbPolyline
 90
7
 70
1
 10
287.741940
 20
254.049622
 30
0.0
 10
284.963820
 20
252.445586
 30
0.0
 10
284.963820
 20
249.238029
 30
0.0
 10
285.065100
 20
249.179629
 30
0.0
 10
290.418760
 20
249.179629
 30
0.0
 10
290.520070
 20
249.238029
 30
0.0
 10
290.520070
 20
252.445586
 30
0.0
  0
LWPOLYLINE
  5
206
100
AcDbEntity
  8
0
 62
5
100
AcDbPolyline
 90
5
 70
1
 10
295.263940
 20
254.049622
 30
0.0
 10
292.486350
 20
252.445586
 30
0.0
 10
292.554550
 20
251.178473
 30
0.0
 10
298.042060
 20
251.178473
 30
0.0
 10
298.042060
 20
252.445581
 30
0.0
  0
LWPOLYLINE
  5
207
100
AcDbEntity
  8
0
 62
5
100
AcDbPolyline
 90
5
 70
1
 10
302.786500
 20
254.049622
 30
0.0
 10
300.008370
 20
252.445586
 30
0.0
 10
300.008370
 20
251.178478
 30
0.0
 10
305.564090
 20
251.178478
 30
0.0
 10
305.564090
 20
252.445586
 30
0.0
  0
LWPOLYLINE
  5
208
100
AcDbEntity
  8
0
 62
5
100
AcDbPolyline
 90
8
 70
1
 10
310.308520
 20
254.049622
 30
0.0
 10
307.530900
 20
252.445586
 30
0.0
 10
307.530900
 20
251.178478
 30
0.0
 10
308.554630
 20
251.178478
 30
0.0
 10
308.554630
 20
249.179633
 30
0.0
 10
312.985360
 20
249.179633
 30
0.0
 10
313.086650
 20
249.238033
 30
0.0
 10
313.086650
 20
252.445590
 30
0.0
  0
LWPOLYLINE
  5
209
100
AcDbEntity
  8
0
 62
5
100
AcDbPolyline
 90
7
 70
1
 10
317.831050
 20
254.049622
 30
0.0
 10
315.052920
 20
252.445586
 30
0.0
 10
315.052920
 20
249.238029
 30
0.0
 10
315.154210
 20
249.179629
 30
0.0
 10
320.507360
 20
249.179629
 30
0.0
 10
320.608670
 20
249.238029
 30
0.0
 10
320.608670
 20
252.445586
 30
0.0
  0
LWPOLYLINE
  5
20a
100
AcDbEntity
  8
0
 62
5
100
AcDbPolyline
 90
7
 70
1
 10
325.353070
 20
254.049622
 30
0.0
 10
322.575450
 20
252.445586
 30
0.0
 10
322.575450
 20
249.238029
 30
0.0
 10
322.676760
 20
249.179629
 30
0.0
 10
328.029920
 20
249.179629
 30
0.0
 10
328.131200
 20
249.238029
 30
0.0
 10
328.131200
 20
252.445586
 30
0.0
  0
LWPOLYLINE
  5
20b
100
AcDbEntity
  8
0
 62
5
100
AcDbPolyline
 90
7
 70
1
 10
332.875600
 20
254.049622
 30
0.0
 10
330.097480
 20
252.445586
 30
0.0
 10
330.097480
 20
249.238029
 30
0.0
 10
330.198760
 20
249.179629
 30
0.0
 10
335.551940
 20
249.179629
 30
0.0
 10
335.653220
 20
249.238029
 30
0.0
 10
335.653220
 20
252.445586
 30
0.0
  0
LWPOLYLINE
  5
20c
100
AcDbEntity
  8
0
 62
5
100
AcDbPolyline
 90
7
 70
1
 10
340.397630
 20
254.049622
 30
0.0
 10
337.620030
 20
252.445586
 30
0.0
 10
337.620030
 20
249.238029
 30
0.0
 10
337.721310
 20
249.179629
 30
0.0
 10
343.074470
 20
249.179629
 30
0.0
 10
343.175750
 20
249.238029
 30
0.0
 10
343.175750
 20
252.445586
 30
0.0
  0
LWPOLYLINE
  5
20d
100
AcDbEntity
  8
0
 62
5
100
AcDbPolyline
 90
7
 70
1
 10
347.920180
 20
254.049622
 30
0.0
 10
345.142050
 20
252.445586
 30
0.0
 10
345.142050
 20
249.238029
 30
0.0
 10
345.243340
 20
249.179629
 30
0.0
 10
350.596490
 20
249.179629
 30
0.0
 10
350.697780
 20
249.238029
 30
0.0
 10
350.697780
 20
252.445586
 30
0.0
  0
LWPOLYLINE
  5
20e
100
AcDbEntity
  8
0
 62
5
100
AcDbPolyline
 90
7
 70
1
 10
355.442200
 20
254.049622
 30
0.0
 10
352.664080
 20
252.445586
 30
0.0
 10
352.664080
 20
249.238029
 30
0.0
 10
352.765360
 20
249.179629
 30
0.0
 10
358.119020
 20
249.179629
 30
0.0
 10
358.220330
 20
249.238029
 30
0.0
 10
358.220330
 20
252.445586
 30
0.0
  0
LWPOLYLINE
  5
20f
100
AcDbEntity
  8
0
 62
5
100
AcDbPolyline
 90
7
 70
1
 10
362.964730
 20
254.049622
 30
0.0
 10
360.186610
 20
252.445586
 30
0.0
 10
360.186610
 20
249.238029
 30
0.0
 10
360.287890
 20
249.179629
 30
0.0
 10
365.641040
 20
249.179629
 30
0.0
 10
365.742330
 20
249.238029
 30
0.0
 10
365.742330
 20
252.445586
 30
0.0
  0
LWPOLYLINE
  5
210
100
AcDbEntity
  8
0
 62
5
100
AcDbPolyline
 90
7
 70
1
 10
370.486760
 20
254.049622
 30
0.0
 10
367.708630
 20
252.445586
 30
0.0
 10
367.708630
 20
249.238029
 30
0.0
 10
367.809910
 20
249.179629
 30
0.0
 10
373.163600
 20
249.179629
 30
0.0
 10
373.264880
 20
249.238029
 30
0.0
 10
373.264880
 20
252.445586
 30
0.0
  0
LWPOLYLINE
  5
211
100
AcDbEntity
  8
0
 62
5
100
AcDbPolyline
 90
7
 70
1
 10
378.008780
 20
254.049622
 30
0.0
 10
375.231160
 20
252.445586
 30
0.0
 10
375.231160
 20
249.238029
 30
0.0
 10
375.332440
 20
249.179629
 30
0.0
 10
380.685620
 20
249.179629
 30
0.0
 10
380.786910
 20
249.238029
 30
0.0
 10
380.786910
 20
252.445586
 30
0.0
  0
LWPOLYLINE
  5
212
100
AcDbEntity
  8
0
 62
5
100
AcDbPolyline
 90
7
 70
1
 10
385.531310
 20
254.049622
 30
0.0
 10
382.753180
 20
252.445586
 30
0.0
 10
382.753180
 20
249.238029
 30
0.0
 10
382.854470
 20
249.179629
 30
0.0
 10
388.208150
 20
249.179629
 30
0.0
 10
388.309430
 20
249.238029
 30
0.0
 10
388.309430
 20
252.445586
 30
0.0
  0
SPLINE
  5
213
100
AcDbEntity
  8
0
 62
5
100
AcDbSpline
 70
8
 71
3
 72
8
 73
4
 74
0
 40
0
 40
0
 40
0
 40
0
 40
1
 40
1
 40
1
 40
1
 10
395.409770
 20
249.179629
 30
0.0
 10
395.583310
 20
249.179629
 30
0.0
 10
395.735070
 20
249.263209
 30
0.0
 10
395.831460
 20
249.391504
 30
0.0
  0
LWPOLYLINE
  5
214
100
AcDbEntity
  8
0
 62
5
100
AcDbPolyline
 90
5
 70
0
 10
393.053330
 20
254.049622
 30
0.0
 10
390.275710
 20
252.445586
 30
0.0
 10
390.275710
 20
249.238029
 30
0.0
 10
390.377020
 20
249.179629
 30
0.0
 10
395.409770
 20
249.179629
 30
0.0
  0
LWPOLYLINE
  5
215
100
AcDbEntity
  8
0
 62
5
100
AcDbPolyline
 90
3
 70
0
 10
395.831460
 20
249.391504
 30
0.0
 10
395.831460
 20
252.445582
 30
0.0
 10
393.053330
 20
254.049622
 30
0.0
  0
SPLINE
  5
216
100
AcDbEntity
  8
0
 62
5
100
AcDbSpline
 70
8
 71
3
 72
8
 73
4
 74
0
 40
0
 40
0
 40
0
 40
0
 40
1
 40
1
 40
1
 40
1
 10
205.206400
 20
249.708799
 30
0.0
 10
205.206400
 20
249.415641
 30
0.0
 10
205.442410
 20
249.179633
 30
0.0
 10
205.735570
 20
249.179633
 30
0.0
  0
LWPOLYLINE
  5
217
100
AcDbEntity
  8
0
 62
5
100
AcDbPolyline
 90
2
 70
0
 10
205.206400
 20
253.928697
 30
0.0
 10
205.206400
 20
249.708799
 30
0.0
  0
LWPOLYLINE
  5
218
100
AcDbEntity
  8
0
 62
5
100
AcDbPolyline
 90
5
 70
0
 10
205.735570
 20
249.179633
 30
0.0
 10
207.673440
 20
249.179633
 30
0.0
 10
207.774720
 20
249.238033
 30
0.0
 10
207.774720
 20
252.445590
 30
0.0
 10
205.206400
 20
253.928697
 30
0.0
  0
LWPOLYLINE
  5
219
100
AcDbEntity
  8
0
 62
3
100
AcDbPolyline
 90
2
 70
0
 10
269.450000
 20
179.521683
 30
0.0
 10
295.000000
 20
179.521683
 30
0.0
  0
LWPOLYLINE
  5
21a
100
AcDbEntity
  8
0
 62
3
100
AcDbPolyline
 90
2
 70
0
 10
303.500000
 20
181.021683
 30
0.0
 10
300.000000
 20
181.021683
 30
0.0
  0
LWPOLYLINE
  5
21b
100
AcDbEntity
  8
0
 62
3
100
AcDbPolyline
 90
2
 70
0
 10
296.500000
 20
181.021683
 30
0.0
 10
300.000000
 20
181.021683
 30
0.0
  0
LWPOLYLINE
  5
21c
100
AcDbEntity
  8
0
 62
7
100
AcDbPolyline
 90
2
 70
0
 10
204.000000
 20
170.021683
 30
0.0
 10
222.000000
 20
170.021683
 30
0.0
  0
LWPOLYLINE
  5
21d
100
AcDbEntity
  8
0
 62
7
100
AcDbPolyline
 90
2
 70
0
 10
204.000000
 20
170.021683
 30
0.0
 10
200.000000
 20
174.021683
 30
0.0
  0
LWPOLYLINE
  5
21e
100
AcDbEntity
  8
0
 62
7
100
AcDbPolyline
 90
2
 70
0
 10
226.000000
 20
174.021683
 30
0.0
 10
222.000000
 20
170.021683
 30
0.0
  0
LWPOLYLINE
  5
21f
100
AcDbEntity
  8
0
 62
7
100
AcDbPolyline
 90
2
 70
0
 10
259.050000
 20
174.021683
 30
0.0
 10
226.000000
 20
174.021683
 30
0.0
  0
LWPOLYLINE
  5
220
100
AcDbEntity
  8
0
 62
7
100
AcDbPolyline
 90
2
 70
0
 10
259.050000
 20
178.021683
 30
0.0
 10
259.050000
 20
174.021683
 30
0.0
  0
LWPOLYLINE
  5
221
100
AcDbEntity
  8
0
 62
7
100
AcDbPolyline
 90
2
 70
0
 10
262.000000
 20
178.021683
 30
0.0
 10
259.050000
 20
178.021683
 30
0.0
  0
LWPOLYLINE
  5
222
100
AcDbEntity
  8
0
 62
7
100
AcDbPolyline
 90
2
 70
0
 10
262.000000
 20
175.521683
 30
0.0
 10
262.000000
 20
178.021683
 30
0.0
  0
LWPOLYLINE
  5
223
100
AcDbEntity
  8
0
 62
7
100
AcDbPolyline
 90
2
 70
0
 10
264.000000
 20
175.521683
 30
0.0
 10
262.000000
 20
175.521683
 30
0.0
  0
LWPOLYLINE
  5
224
100
AcDbEntity
  8
0
 62
7
100
AcDbPolyline
 90
2
 70
0
 10
264.000000
 20
178.021683
 30
0.0
 10
264.000000
 20
175.521683
 30
0.0
  0
LWPOLYLINE
  5
225
100
AcDbEntity
  8
0
 62
7
100
AcDbPolyline
 90
2
 70
0
 10
266.950000
 20
178.021683
 30
0.0
 10
264.000000
 20
178.021683
 30
0.0
  0
LWPOLYLINE
  5
226
100
AcDbEntity
  8
0
 62
7
100
AcDbPolyline
 90
2
 70
0
 10
266.950000
 20
174.021683
 30
0.0
 10
266.950000
 20
178.021683
 30
0.0
  0
LWPOLYLINE
  5
227
100
AcDbEntity
  8
0
 62
7
100
AcDbPolyline
 90
2
 70
0
 10
295.000000
 20
174.021683
 30
0.0
 10
266.950000
 20
174.021683
 30
0.0
  0
LWPOLYLINE
  5
228
100
AcDbEntity
  8
0
 62
7
100
AcDbPolyline
 90
2
 70
0
 10
296.500000
 20
175.521683
 30
0.0
 10
295.000000
 20
174.021683
 30
0.0
  0
LWPOLYLINE
  5
229
100
AcDbEntity
  8
0
 62
7
100
AcDbPolyline
 90
2
 70
0
 10
303.500000
 20
175.521683
 30
0.0
 10
296.500000
 20
175.521683
 30
0.0
  0
LWPOLYLINE
  5
22a
100
AcDbEntity
  8
0
 62
7
100
AcDbPolyline
 90
2
 70
0
 10
305.000000
 20
174.021683
 30
0.0
 10
303.500000
 20
175.521683
 30
0.0
  0
LWPOLYLINE
  5
22b
100
AcDbEntity
  8
0
 62
7
100
AcDbPolyline
 90
2
 70
0
 10
333.050000
 20
174.021683
 30
0.0
 10
305.000000
 20
174.021683
 30
0.0
  0
LWPOLYLINE
  5
22c
100
AcDbEntity
  8
0
 62
7
100
AcDbPolyline
 90
8
 70
0
 10
333.050000
 20
174.021683
 30
0.0
 10
333.050000
 20
178.021683
 30
0.0
 10
336.000000
 20
178.021683
 30
0.0
 10
336.000000
 20
175.521683
 30
0.0
 10
338.000000
 20
175.521683
 30
0.0
 10
338.000000
 20
178.021683
 30
0.0
 10
340.950000
 20
178.021683
 30
0.0
 10
340.950000
 20
174.021683
 30
0.0
  0
LWPOLYLINE
  5
22d
100
AcDbEntity
  8
0
 62
7
100
AcDbPolyline
 90
2
 70
0
 10
374.000000
 20
174.021683
 30
0.0
 10
340.950000
 20
174.021683
 30
0.0
  0
LWPOLYLINE
  5
22e
100
AcDbEntity
  8
0
 62
7
100
AcDbPolyline
 90
2
 70
0
 10
378.000000
 20
170.021683
 30
0.0
 10
374.000000
 20
174.021683
 30
0.0
  0
LWPOLYLINE
  5
22f
100
AcDbEntity
  8
0
 62
7
100
AcDbPolyline
 90
2
 70
0
 10
378.000000
 20
170.021683
 30
0.0
 10
396.000000
 20
170.021683
 30
0.0
  0
LWPOLYLINE
  5
230
100
AcDbEntity
  8
0
 62
7
100
AcDbPolyline
 90
2
 70
0
 10
400.000000
 20
174.021683
 30
0.0
 10
396.000000
 20
170.021683
 30
0.0
  0
LWPOLYLINE
  5
231
100
AcDbEntity
  8
0
 62
7
100
AcDbPolyline
 90
2
 70
0
 10
400.000000
 20
174.021683
 30
0.0
 10
400.000000
 20
194.071683
 30
0.0
  0
LWPOLYLINE
  5
232
100
AcDbEntity
  8
0
 62
7
100
AcDbPolyline
 90
2
 70
0
 10
390.000000
 20
194.071683
 30
0.0
 10
400.000000
 20
194.071683
 30
0.0
  0
LWPOLYLINE
  5
233
100
AcDbEntity
  8
0
 62
7
100
AcDbPolyline
 90
2
 70
0
 10
390.000000
 20
197.021683
 30
0.0
 10
390.000000
 20
194.071683
 30
0.0
  0
LWPOLYLINE
  5
234
100
AcDbEntity
  8
0
 62
7
100
AcDbPolyline
 90
2
 70
0
 10
400.000000
 20
197.021683
 30
0.0
 10
390.000000
 20
197.021683
 30
0.0
  0
LWPOLYLINE
  5
235
100
AcDbEntity
  8
0
 62
7
100
AcDbPolyline
 90
3
 70
0
 10
400.000000
 20
197.021683
 30
0.0
 10
400.000000
 20
205.021683
 30
0.0
 10
394.050000
 20
205.021683
 30
0.0
  0
LWPOLYLINE
  5
236
100
AcDbEntity
  8
0
 62
7
100
AcDbPolyline
 90
2
 70
0
 10
394.050000
 20
201.021683
 30
0.0
 10
394.050000
 20
205.021683
 30
0.0
  0
LWPOLYLINE
  5
237
100
AcDbEntity
  8
0
 62
7
100
AcDbPolyline
 90
2
 70
0
 10
390.950000
 20
201.021683
 30
0.0
 10
394.050000
 20
201.021683
 30
0.0
  0
LWPOLYLINE
  5
238
100
AcDbEntity
  8
0
 62
7
100
AcDbPolyline
 90
2
 70
0
 10
390.950000
 20
205.021683
 30
0.0
 10
390.950000
 20
201.021683
 30
0.0
  0
LWPOLYLINE
  5
239
100
AcDbEntity
  8
0
 62
7
100
AcDbPolyline
 90
2
 70
0
 10
390.950000
 20
205.021683
 30
0.0
 10
385.000000
 20
205.021683
 30
0.0
  0
LWPOLYLINE
  5
23a
100
AcDbEntity
  8
0
 62
7
100
AcDbPolyline
 90
2
 70
0
 10
381.000000
 20
202.521683
 30
0.0
 10
385.000000
 20
205.021683
 30
0.0
  0
LWPOLYLINE
  5
23b
100
AcDbEntity
  8
0
 62
7
100
AcDbPolyline
 90
2
 70
0
 10
303.950000
 20
202.521683
 30
0.0
 10
381.000000
 20
202.521683
 30
0.0
  0
LWPOLYLINE
  5
23c
100
AcDbEntity
  8
0
 62
7
100
AcDbPolyline
 90
2
 70
0
 10
303.950000
 20
199.021683
 30
0.0
 10
303.950000
 20
202.521683
 30
0.0
  0
LWPOLYLINE
  5
23d
100
AcDbEntity
  8
0
 62
7
100
AcDbPolyline
 90
2
 70
0
 10
301.000000
 20
199.021683
 30
0.0
 10
303.950000
 20
199.021683
 30
0.0
  0
LWPOLYLINE
  5
23e
100
AcDbEntity
  8
0
 62
7
100
AcDbPolyline
 90
2
 70
0
 10
301.000000
 20
201.521683
 30
0.0
 10
301.000000
 20
199.021683
 30
0.0
  0
LWPOLYLINE
  5
23f
100
AcDbEntity
  8
0
 62
7
100
AcDbPolyline
 90
2
 70
0
 10
299.000000
 20
201.521683
 30
0.0
 10
301.000000
 20
201.521683
 30
0.0
  0
LWPOLYLINE
  5
240
100
AcDbEntity
  8
0
 62
7
100
AcDbPolyline
 90
2
 70
0
 10
299.000000
 20
199.021683
 30
0.0
 10
299.000000
 20
201.521683
 30
0.0
  0
LWPOLYLINE
  5
241
100
AcDbEntity
  8
0
 62
7
100
AcDbPolyline
 90
2
 70
0
 10
296.050000
 20
199.021683
 30
0.0
 10
299.000000
 20
199.021683
 30
0.0
  0
LWPOLYLINE
  5
242
100
AcDbEntity
  8
0
 62
7
100
AcDbPolyline
 90
2
 70
0
 10
296.050000
 20
202.521683
 30
0.0
 10
296.050000
 20
199.021683
 30
0.0
  0
LWPOLYLINE
  5
243
100
AcDbEntity
  8
0
 62
7
100
AcDbPolyline
 90
2
 70
0
 10
219.000000
 20
202.521683
 30
0.0
 10
296.050000
 20
202.521683
 30
0.0
  0
LWPOLYLINE
  5
244
100
AcDbEntity
  8
0
 62
7
100
AcDbPolyline
 90
2
 70
0
 10
215.000000
 20
205.021683
 30
0.0
 10
219.000000
 20
202.521683
 30
0.0
  0
LWPOLYLINE
  5
245
100
AcDbEntity
  8
0
 62
7
100
AcDbPolyline
 90
2
 70
0
 10
215.000000
 20
205.021683
 30
0.0
 10
209.050000
 20
205.021683
 30
0.0
  0
LWPOLYLINE
  5
246
100
AcDbEntity
  8
0
 62
7
100
AcDbPolyline
 90
2
 70
0
 10
209.050000
 20
201.021683
 30
0.0
 10
209.050000
 20
205.021683
 30
0.0
  0
LWPOLYLINE
  5
247
100
AcDbEntity
  8
0
 62
7
100
AcDbPolyline
 90
2
 70
0
 10
205.950000
 20
201.021683
 30
0.0
 10
209.050000
 20
201.021683
 30
0.0
  0
LWPOLYLINE
  5
248
100
AcDbEntity
  8
0
 62
7
100
AcDbPolyline
 90
2
 70
0
 10
205.950000
 20
205.021683
 30
0.0
 10
205.950000
 20
201.021683
 30
0.0
  0
LWPOLYLINE
  5
249
100
AcDbEntity
  8
0
 62
7
100
AcDbPolyline
 90
3
 70
0
 10
205.950000
 20
205.021683
 30
0.0
 10
200.000000
 20
205.021683
 30
0.0
 10
200.000000
 20
197.021683
 30
0.0
  0
LWPOLYLINE
  5
24a
100
AcDbEntity
  8
0
 62
7
100
AcDbPolyline
 90
2
 70
0
 10
210.000000
 20
197.021683
 30
0.0
 10
200.000000
 20
197.021683
 30
0.0
  0
LWPOLYLINE
  5
24b
100
AcDbEntity
  8
0
 62
7
100
AcDbPolyline
 90
2
 70
0
 10
210.000000
 20
194.071683
 30
0.0
 10
210.000000
 20
197.021683
 30
0.0
  0
LWPOLYLINE
  5
24c
100
AcDbEntity
  8
0
 62
7
100
AcDbPolyline
 90
2
 70
0
 10
200.000000
 20
194.071683
 30
0.0
 10
210.000000
 20
194.071683
 30
0.0
  0
LWPOLYLINE
  5
24d
100
AcDbEntity
  8
0
 62
7
100
AcDbPolyline
 90
2
 70
0
 10
200.000000
 20
194.071683
 30
0.0
 10
200.000000
 20
174.021683
 30
0.0
  0
LWPOLYLINE
  5
24e
100
AcDbEntity
  8
0
 62
3
100
AcDbPolyline
 90
2
 70
0
 10
372.500000
 20
191.571683
 30
0.0
 10
368.450000
 20
187.521683
 30
0.0
  0
LWPOLYLINE
  5
24f
100
AcDbEntity
  8
0
 62
7
100
AcDbPolyline
 90
2
 70
0
 10
343.450000
 20
187.521683
 30
0.0
 10
343.450000
 20
179.521683
 30
0.0
  0
LWPOLYLINE
  5
250
100
AcDbEntity
  8
0
 62
3
100
AcDbPolyline
 90
2
 70
0
 10
387.000000
 20
183.471683
 30
0.0
 10
397.500000
 20
183.471683
 30
0.0
  0
LWPOLYLINE
  5
251
100
AcDbEntity
  8
0
 62
3
100
AcDbPolyline
 90
2
 70
0
 10
343.450000
 20
179.521683
 30
0.0
 10
383.050000
 20
179.521683
 30
0.0
  0
LWPOLYLINE
  5
252
100
AcDbEntity
  8
0
 62
5
100
AcDbPolyline
 90
4
 70
1
 10
232.000000
 20
192.071683
 30
0.0
 10
368.000000
 20
192.071683
 30
0.0
 10
365.450000
 20
189.521683
 30
0.0
 10
234.550000
 20
189.521683
 30
0.0
  0
LWPOLYLINE
  5
253
100
AcDbEntity
  8
0
 62
3
100
AcDbPolyline
 90
2
 70
0
 10
202.500000
 20
183.471683
 30
0.0
 10
202.500000
 20
191.571683
 30
0.0
  0
LWPOLYLINE
  5
254
100
AcDbEntity
  8
0
 62
3
100
AcDbPolyline
 90
2
 70
0
 10
213.000000
 20
183.471683
 30
0.0
 10
202.500000
 20
183.471683
 30
0.0
  0
LWPOLYLINE
  5
255
100
AcDbEntity
  8
0
 62
7
100
AcDbPolyline
 90
2
 70
0
 10
216.950000
 20
179.521683
 30
0.0
 10
213.000000
 20
183.471683
 30
0.0
  0
LWPOLYLINE
  5
256
100
AcDbEntity
  8
0
 62
3
100
AcDbPolyline
 90
2
 70
0
 10
256.550000
 20
179.521683
 30
0.0
 10
216.950000
 20
179.521683
 30
0.0
  0
LWPOLYLINE
  5
257
100
AcDbEntity
  8
0
 62
3
100
AcDbPolyline
 90
2
 70
0
 10
269.450000
 20
187.521683
 30
0.0
 10
269.450000
 20
179.521683
 30
0.0
  0
LWPOLYLINE
  5
258
100
AcDbEntity
  8
0
 62
3
100
AcDbPolyline
 90
2
 70
0
 10
300.000000
 20
187.521683
 30
0.0
 10
269.450000
 20
187.521683
 30
0.0
  0
LWPOLYLINE
  5
259
100
AcDbEntity
  8
0
 62
3
100
AcDbPolyline
 90
2
 70
0
 10
305.000000
 20
179.521683
 30
0.0
 10
303.500000
 20
181.021683
 30
0.0
  0
LWPOLYLINE
  5
25a
100
AcDbEntity
  8
0
 62
3
100
AcDbPolyline
 90
2
 70
0
 10
330.550000
 20
179.521683
 30
0.0
 10
305.000000
 20
179.521683
 30
0.0
  0
LWPOLYLINE
  5
25b
100
AcDbEntity
  8
0
 62
5
100
AcDbPolyline
 90
2
 70
0
 10
220.000000
 20
194.071683
 30
0.0
 10
280.000000
 20
194.071683
 30
0.0
  0
LWPOLYLINE
  5
25c
100
AcDbEntity
  8
0
 62
5
100
AcDbPolyline
 90
2
 70
0
 10
220.000000
 20
197.021683
 30
0.0
 10
220.000000
 20
194.071683
 30
0.0
  0
LWPOLYLINE
  5
25d
100
AcDbEntity
  8
0
 62
5
100
AcDbPolyline
 90
3
 70
0
 10
280.000000
 20
194.071683
 30
0.0
 10
280.000000
 20
197.021683
 30
0.0
 10
220.000000
 20
197.021683
 30
0.0
  0
LWPOLYLINE
  5
25e
100
AcDbEntity
  8
0
 62
5
100
AcDbPolyline
 90
2
 70
0
 10
310.000000
 20
197.021683
 30
0.0
 10
290.000000
 20
197.021683
 30
0.0
  0
LWPOLYLINE
  5
25f
100
AcDbEntity
  8
0
 62
5
100
AcDbPolyline
 90
2
 70
0
 10
310.000000
 20
194.071683
 30
0.0
 10
310.000000
 20
197.021683
 30
0.0
  0
LWPOLYLINE
  5
260
100
AcDbEntity
  8
0
 62
5
100
AcDbPolyline
 90
3
 70
0
 10
290.000000
 20
197.021683
 30
0.0
 10
290.000000
 20
194.071683
 30
0.0
 10
310.000000
 20
194.071683
 30
0.0
  0
LWPOLYLINE
  5
261
100
AcDbEntity
  8
0
 62
5
100
AcDbPolyline
 90
2
 70
0
 10
320.000000
 20
194.071683
 30
0.0
 10
380.000000
 20
194.071683
 30
0.0
  0
LWPOLYLINE
  5
262
100
AcDbEntity
  8
0
 62
5
100
AcDbPolyline
 90
2
 70
0
 10
320.000000
 20
197.021683
 30
0.0
 10
320.000000
 20
194.071683
 30
0.0
  0
LWPOLYLINE
  5
263
100
AcDbEntity
  8
0
 62
5
100
AcDbPolyline
 90
3
 70
0
 10
380.000000
 20
194.071683
 30
0.0
 10
380.000000
 20
197.021683
 30
0.0
 10
320.000000
 20
197.021683
 30
0.0
  0
LWPOLYLINE
  5
264
100
AcDbEntity
  8
0
 62
5
100
AcDbPolyline
 90
2
 70
0
 10
221.171600
 20
172.021683
 30
0.0
 10
224.000000
 20
174.850083
 30
0.0
  0
LWPOLYLINE
  5
265
100
AcDbEntity
  8
0
 62
5
100
AcDbPolyline
 90
2
 70
0
 10
204.828400
 20
172.021683
 30
0.0
 10
221.171600
 20
172.021683
 30
0.0
  0
LWPOLYLINE
  5
266
100
AcDbEntity
  8
0
 62
5
100
AcDbPolyline
 90
2
 70
0
 10
224.000000
 20
174.850083
 30
0.0
 10
224.000000
 20
177.021683
 30
0.0
  0
LWPOLYLINE
  5
267
100
AcDbEntity
  8
0
 62
5
100
AcDbPolyline
 90
2
 70
0
 10
202.000000
 20
174.850083
 30
0.0
 10
204.828400
 20
172.021683
 30
0.0
  0
LWPOLYLINE
  5
268
100
AcDbEntity
  8
0
 62
5
100
AcDbPolyline
 90
3
 70
0
 10
224.000000
 20
177.021683
 30
0.0
 10
202.000000
 20
177.021683
 30
0.0
 10
202.000000
 20
174.850083
 30
0.0
  0
LWPOLYLINE
  5
269
100
AcDbEntity
  8
0
 62
5
100
AcDbPolyline
 90
2
 70
0
 10
395.171600
 20
172.021683
 30
0.0
 10
378.828400
 20
172.021683
 30
0.0
  0
LWPOLYLINE
  5
26a
100
AcDbEntity
  8
0
 62
5
100
AcDbPolyline
 90
2
 70
0
 10
398.000000
 20
174.850083
 30
0.0
 10
395.171600
 20
172.021683
 30
0.0
  0
LWPOLYLINE
  5
26b
100
AcDbEntity
  8
0
 62
5
100
AcDbPolyline
 90
2
 70
0
 10
378.828400
 20
172.021683
 30
0.0
 10
376.000000
 20
174.850083
 30
0.0
  0
LWPOLYLINE
  5
26c
100
AcDbEntity
  8
0
 62
5
100
AcDbPolyline
 90
2
 70
0
 10
398.000000
 20
177.021683
 30
0.0
 10
398.000000
 20
174.850083
 30
0.0
  0
LWPOLYLINE
  5
26d
100
AcDbEntity
  8
0
 62
5
100
AcDbPolyline
 90
3
 70
0
 10
376.000000
 20
174.850083
 30
0.0
 10
376.000000
 20
177.021683
 30
0.0
 10
398.000000
 20
177.021683
 30
0.0
  0
LWPOLYLINE
  5
26e
100
AcDbEntity
  8
0
 62
3
100
AcDbPolyline
 90
2
 70
0
 10
397.500000
 20
191.571683
 30
0.0
 10
372.500000
 20
191.571683
 30
0.0
  0
LWPOLYLINE
  5
26f
100
AcDbEntity
  8
0
 62
3
100
AcDbPolyline
 90
2
 70
0
 10
368.450000
 20
187.521683
 30
0.0
 10
343.450000
 20
187.521683
 30
0.0
  0
LWPOLYLINE
  5
270
100
AcDbEntity
  8
0
 62
3
100
AcDbPolyline
 90
2
 70
0
 10
397.500000
 20
183.471683
 30
0.0
 10
397.500000
 20
191.571683
 30
0.0
  0
LWPOLYLINE
  5
271
100
AcDbEntity
  8
0
 62
3
100
AcDbPolyline
 90
2
 70
0
 10
383.050000
 20
179.521683
 30
0.0
 10
387.000000
 20
183.471683
 30
0.0
  0
LWPOLYLINE
  5
272
100
AcDbEntity
  8
0
 62
3
100
AcDbPolyline
 90
2
 70
0
 10
343.450000
 20
187.521683
 30
0.0
 10
343.450000
 20
179.521683
 30
0.0
  0
LWPOLYLINE
  5
273
100
AcDbEntity
  8
0
 62
3
100
AcDbPolyline
 90
5
 70
0
 10
202.500000
 20
191.571683
 30
0.0
 10
227.500000
 20
191.571683
 30
0.0
 10
231.550000
 20
187.521683
 30
0.0
 10
256.550000
 20
187.521683
 30
0.0
 10
256.550000
 20
179.521683
 30
0.0
  0
LWPOLYLINE
  5
274
100
AcDbEntity
  8
0
 62
3
100
AcDbPolyline
 90
2
 70
0
 10
216.950000
 20
179.521683
 30
0.0
 10
213.000000
 20
183.471683
 30
0.0
  0
LWPOLYLINE
  5
275
100
AcDbEntity
  8
0
 62
3
100
AcDbPolyline
 90
2
 70
0
 10
295.000000
 20
179.521683
 30
0.0
 10
296.500000
 20
181.021683
 30
0.0
  0
LWPOLYLINE
  5
276
100
AcDbEntity
  8
0
 62
3
100
AcDbPolyline
 90
3
 70
0
 10
300.000000
 20
187.521683
 30
0.0
 10
330.550000
 20
187.521683
 30
0.0
 10
330.550000
 20
179.521683
 30
0.0
  0
LWPOLYLINE
  5
277
100
AcDbEntity
  8
0
 62
7
100
AcDbPolyline
 90
2
 70
0
 10
371.022601
 20
166.750000
 30
0.0
 10
371.022601
 20
170.750000
 30
0.0
  0
LWPOLYLINE
  5
278
100
AcDbEntity
  8
0
 62
7
100
AcDbPolyline
 90
2
 70
0
 10
371.022601
 20
166.750000
 30
0.0
 10
369.022601
 20
164.750000
 30
0.0
  0
LWPOLYLINE
  5
279
100
AcDbEntity
  8
0
 62
7
100
AcDbPolyline
 90
2
 70
0
 10
369.022601
 20
172.750000
 30
0.0
 10
371.022601
 20
170.750000
 30
0.0
  0
LWPOLYLINE
  5
27a
100
AcDbEntity
  8
0
 62
7
100
AcDbPolyline
 90
2
 70
0
 10
369.022601
 20
172.750000
 30
0.0
 10
367.022601
 20
172.750000
 30
0.0
  0
LWPOLYLINE
  5
27b
100
AcDbEntity
  8
0
 62
7
100
AcDbPolyline
 90
2
 70
0
 10
367.022601
 20
171.450000
 30
0.0
 10
367.022601
 20
172.750000
 30
0.0
  0
LWPOLYLINE
  5
27c
100
AcDbEntity
  8
0
 62
7
100
AcDbPolyline
 90
2
 70
0
 10
365.722601
 20
171.450000
 30
0.0
 10
367.022601
 20
171.450000
 30
0.0
  0
LWPOLYLINE
  5
27d
100
AcDbEntity
  8
0
 62
7
100
AcDbPolyline
 90
2
 70
0
 10
365.722601
 20
172.750000
 30
0.0
 10
365.722601
 20
171.450000
 30
0.0
  0
LWPOLYLINE
  5
27e
100
AcDbEntity
  8
0
 62
7
100
AcDbPolyline
 90
2
 70
0
 10
365.722601
 20
172.750000
 30
0.0
 10
364.422601
 20
172.750000
 30
0.0
  0
LWPOLYLINE
  5
27f
100
AcDbEntity
  8
0
 62
7
100
AcDbPolyline
 90
2
 70
0
 10
364.422601
 20
171.450000
 30
0.0
 10
364.422601
 20
172.750000
 30
0.0
  0
LWPOLYLINE
  5
280
100
AcDbEntity
  8
0
 62
7
100
AcDbPolyline
 90
2
 70
0
 10
363.122601
 20
171.450000
 30
0.0
 10
364.422601
 20
171.450000
 30
0.0
  0
LWPOLYLINE
  5
281
100
AcDbEntity
  8
0
 62
7
100
AcDbPolyline
 90
2
 70
0
 10
363.122601
 20
172.750000
 30
0.0
 10
363.122601
 20
171.450000
 30
0.0
  0
LWPOLYLINE
  5
282
100
AcDbEntity
  8
0
 62
7
100
AcDbPolyline
 90
2
 70
0
 10
363.122601
 20
172.750000
 30
0.0
 10
353.022601
 20
172.750000
 30
0.0
  0
LWPOLYLINE
  5
283
100
AcDbEntity
  8
0
 62
7
100
AcDbPolyline
 90
2
 70
0
 10
351.022601
 20
170.750000
 30
0.0
 10
353.022601
 20
172.750000
 30
0.0
  0
LWPOLYLINE
  5
284
100
AcDbEntity
  8
0
 62
7
100
AcDbPolyline
 90
2
 70
0
 10
351.022601
 20
170.750000
 30
0.0
 10
351.022601
 20
169.700000
 30
0.0
  0
LWPOLYLINE
  5
285
100
AcDbEntity
  8
0
 62
7
100
AcDbPolyline
 90
2
 70
0
 10
365.022601
 20
169.700000
 30
0.0
 10
351.022601
 20
169.700000
 30
0.0
  0
LWPOLYLINE
  5
286
100
AcDbEntity
  8
0
 62
7
100
AcDbPolyline
 90
2
 70
0
 10
365.022601
 20
166.750000
 30
0.0
 10
365.022601
 20
169.700000
 30
0.0
  0
LWPOLYLINE
  5
287
100
AcDbEntity
  8
0
 62
7
100
AcDbPolyline
 90
2
 70
0
 10
357.022601
 20
166.750000
 30
0.0
 10
365.022601
 20
166.750000
 30
0.0
  0
LWPOLYLINE
  5
288
100
AcDbEntity
  8
0
 62
7
100
AcDbPolyline
 90
2
 70
0
 10
359.022601
 20
164.750000
 30
0.0
 10
357.022601
 20
166.750000
 30
0.0
  0
LWPOLYLINE
  5
289
100
AcDbEntity
  8
0
 62
7
100
AcDbPolyline
 90
2
 70
0
 10
359.022601
 20
164.750000
 30
0.0
 10
369.022601
 20
164.750000
 30
0.0
  0
LWPOLYLINE
  5
28a
100
AcDbEntity
  8
0
 62
7
100
AcDbPolyline
 90
2
 70
0
 10
347.587022
 20
166.749996
 30
0.0
 10
347.587022
 20
170.749996
 30
0.0
  0
LWPOLYLINE
  5
28b
100
AcDbEntity
  8
0
 62
7
100
AcDbPolyline
 90
2
 70
0
 10
347.587022
 20
166.749996
 30
0.0
 10
345.587022
 20
164.749996
 30
0.0
  0
LWPOLYLINE
  5
28c
100
AcDbEntity
  8
0
 62
7
100
AcDbPolyline
 90
2
 70
0
 10
345.587022
 20
172.749996
 30
0.0
 10
347.587022
 20
170.749996
 30
0.0
  0
LWPOLYLINE
  5
28d
100
AcDbEntity
  8
0
 62
7
100
AcDbPolyline
 90
2
 70
0
 10
345.587022
 20
172.749996
 30
0.0
 10
343.587022
 20
172.749996
 30
0.0
  0
LWPOLYLINE
  5
28e
100
AcDbEntity
  8
0
 62
7
100
AcDbPolyline
 90
2
 70
0
 10
343.587022
 20
171.449996
 30
0.0
 10
343.587022
 20
172.749996
 30
0.0
  0
LWPOLYLINE
  5
28f
100
AcDbEntity
  8
0
 62
7
100
AcDbPolyline
 90
2
 70
0
 10
342.287022
 20
171.449996
 30
0.0
 10
343.587022
 20
171.449996
 30
0.0
  0
LWPOLYLINE
  5
290
100
AcDbEntity
  8
0
 62
7
100
AcDbPolyline
 90
2
 70
0
 10
342.287022
 20
172.749996
 30
0.0
 10
342.287022
 20
171.449996
 30
0.0
  0
LWPOLYLINE
  5
291
100
AcDbEntity
  8
0
 62
7
100
AcDbPolyline
 90
2
 70
0
 10
342.287022
 20
172.749996
 30
0.0
 10
340.987022
 20
172.749996
 30
0.0
  0
LWPOLYLINE
  5
292
100
AcDbEntity
  8
0
 62
7
100
AcDbPolyline
 90
2
 70
0
 10
340.987022
 20
171.449996
 30
0.0
 10
340.987022
 20
172.749996
 30
0.0
  0
LWPOLYLINE
  5
293
100
AcDbEntity
  8
0
 62
7
100
AcDbPolyline
 90
2
 70
0
 10
339.687022
 20
171.449996
 30
0.0
 10
340.987022
 20
171.449996
 30
0.0
  0
LWPOLYLINE
  5
294
100
AcDbEntity
  8
0
 62
7
100
AcDbPolyline
 90
2
 70
0
 10
339.687022
 20
172.749996
 30
0.0
 10
339.687022
 20
171.449996
 30
0.0
  0
LWPOLYLINE
  5
295
100
AcDbEntity
  8
0
 62
7
100
AcDbPolyline
 90
2
 70
0
 10
339.687022
 20
172.749996
 30
0.0
 10
329.587023
 20
172.749996
 30
0.0
  0
LWPOLYLINE
  5
296
100
AcDbEntity
  8
0
 62
7
100
AcDbPolyline
 90
2
 70
0
 10
327.587023
 20
170.749996
 30
0.0
 10
329.587023
 20
172.749996
 30
0.0
  0
LWPOLYLINE
  5
297
100
AcDbEntity
  8
0
 62
7
100
AcDbPolyline
 90
2
 70
0
 10
327.587023
 20
170.749996
 30
0.0
 10
327.587023
 20
169.699996
 30
0.0
  0
LWPOLYLINE
  5
298
100
AcDbEntity
  8
0
 62
7
100
AcDbPolyline
 90
2
 70
0
 10
341.587022
 20
169.699996
 30
0.0
 10
327.587023
 20
169.699996
 30
0.0
  0
LWPOLYLINE
  5
299
100
AcDbEntity
  8
0
 62
7
100
AcDbPolyline
 90
2
 70
0
 10
341.587022
 20
166.749996
 30
0.0
 10
341.587022
 20
169.699996
 30
0.0
  0
LWPOLYLINE
  5
29a
100
AcDbEntity
  8
0
 62
7
100
AcDbPolyline
 90
2
 70
0
 10
333.587023
 20
166.749996
 30
0.0
 10
341.587022
 20
166.749996
 30
0.0
  0
LWPOLYLINE
  5
29b
100
AcDbEntity
  8
0
 62
7
100
AcDbPolyline
 90
2
 70
0
 10
335.587023
 20
164.749996
 30
0.0
 10
333.587023
 20
166.749996
 30
0.0
  0
LWPOLYLINE
  5
29c
100
AcDbEntity
  8
0
 62
7
100
AcDbPolyline
 90
2
 70
0
 10
335.587023
 20
164.749996
 30
0.0
 10
345.587022
 20
164.749996
 30
0.0
  0
LWPOLYLINE
  5
29d
100
AcDbEntity
  8
0
 62
7
100
AcDbPolyline
 90
2
 70
0
 10
324.151462
 20
166.749996
 30
0.0
 10
324.151462
 20
170.749996
 30
0.0
  0
LWPOLYLINE
  5
29e
100
AcDbEntity
  8
0
 62
7
100
AcDbPolyline
 90
2
 70
0
 10
324.151462
 20
166.749996
 30
0.0
 10
322.151462
 20
164.749996
 30
0.0
  0
LWPOLYLINE
  5
29f
100
AcDbEntity
  8
0
 62
7
100
AcDbPolyline
 90
2
 70
0
 10
322.151462
 20
172.749996
 30
0.0
 10
324.151462
 20
170.749996
 30
0.0
  0
LWPOLYLINE
  5
2a0
100
AcDbEntity
  8
0
 62
7
100
AcDbPolyline
 90
2
 70
0
 10
322.151462
 20
172.749996
 30
0.0
 10
320.151462
 20
172.749996
 30
0.0
  0
LWPOLYLINE
  5
2a1
100
AcDbEntity
  8
0
 62
7
100
AcDbPolyline
 90
2
 70
0
 10
320.151462
 20
171.449996
 30
0.0
 10
320.151462
 20
172.749996
 30
0.0
  0
LWPOLYLINE
  5
2a2
100
AcDbEntity
  8
0
 62
7
100
AcDbPolyline
 90
2
 70
0
 10
318.851462
 20
171.449996
 30
0.0
 10
320.151462
 20
171.449996
 30
0.0
  0
LWPOLYLINE
  5
2a3
100
AcDbEntity
  8
0
 62
7
100
AcDbPolyline
 90
2
 70
0
 10
318.851462
 20
172.749996
 30
0.0
 10
318.851462
 20
171.449996
 30
0.0
  0
LWPOLYLINE
  5
2a4
100
AcDbEntity
  8
0
 62
7
100
AcDbPolyline
 90
2
 70
0
 10
318.851462
 20
172.749996
 30
0.0
 10
317.551462
 20
172.749996
 30
0.0
  0
LWPOLYLINE
  5
2a5
100
AcDbEntity
  8
0
 62
7
100
AcDbPolyline
 90
2
 70
0
 10
317.551462
 20
171.449996
 30
0.0
 10
317.551462
 20
172.749996
 30
0.0
  0
LWPOLYLINE
  5
2a6
100
AcDbEntity
  8
0
 62
7
100
AcDbPolyline
 90
2
 70
0
 10
316.251462
 20
171.449996
 30
0.0
 10
317.551462
 20
171.449996
 30
0.0
  0
LWPOLYLINE
  5
2a7
100
AcDbEntity
  8
0
 62
7
100
AcDbPolyline
 90
2
 70
0
 10
316.251462
 20
172.749996
 30
0.0
 10
316.251462
 20
171.449996
 30
0.0
  0
LWPOLYLINE
  5
2a8
100
AcDbEntity
  8
0
 62
7
100
AcDbPolyline
 90
2
 70
0
 10
316.251462
 20
172.749996
 30
0.0
 10
306.151463
 20
172.749996
 30
0.0
  0
LWPOLYLINE
  5
2a9
100
AcDbEntity
  8
0
 62
7
100
AcDbPolyline
 90
2
 70
0
 10
304.151463
 20
170.749996
 30
0.0
 10
306.151463
 20
172.749996
 30
0.0
  0
LWPOLYLINE
  5
2aa
100
AcDbEntity
  8
0
 62
7
100
AcDbPolyline
 90
2
 70
0
 10
304.151463
 20
170.749996
 30
0.0
 10
304.151463
 20
169.699996
 30
0.0
  0
LWPOLYLINE
  5
2ab
100
AcDbEntity
  8
0
 62
7
100
AcDbPolyline
 90
2
 70
0
 10
318.151462
 20
169.699996
 30
0.0
 10
304.151463
 20
169.699996
 30
0.0
  0
LWPOLYLINE
  5
2ac
100
AcDbEntity
  8
0
 62
7
100
AcDbPolyline
 90
2
 70
0
 10
318.151462
 20
166.749996
 30
0.0
 10
318.151462
 20
169.699996
 30
0.0
  0
LWPOLYLINE
  5
2ad
100
AcDbEntity
  8
0
 62
7
100
AcDbPolyline
 90
2
 70
0
 10
310.151463
 20
166.749996
 30
0.0
 10
318.151462
 20
166.749996
 30
0.0
  0
LWPOLYLINE
  5
2ae
100
AcDbEntity
  8
0
 62
7
100
AcDbPolyline
 90
2
 70
0
 10
312.151463
 20
164.749996
 30
0.0
 10
310.151463
 20
166.749996
 30
0.0
  0
LWPOLYLINE
  5
2af
100
AcDbEntity
  8
0
 62
7
100
AcDbPolyline
 90
2
 70
0
 10
312.151463
 20
164.749996
 30
0.0
 10
322.151462
 20
164.749996
 30
0.0
  0
LWPOLYLINE
  5
2b0
100
AcDbEntity
  8
0
 62
7
100
AcDbPolyline
 90
2
 70
0
 10
300.715912
 20
166.749996
 30
0.0
 10
300.715912
 20
170.749996
 30
0.0
  0
LWPOLYLINE
  5
2b1
100
AcDbEntity
  8
0
 62
7
100
AcDbPolyline
 90
2
 70
0
 10
300.715912
 20
166.749996
 30
0.0
 10
298.715912
 20
164.749996
 30
0.0
  0
LWPOLYLINE
  5
2b2
100
AcDbEntity
  8
0
 62
7
100
AcDbPolyline
 90
2
 70
0
 10
298.715912
 20
172.749996
 30
0.0
 10
300.715912
 20
170.749996
 30
0.0
  0
LWPOLYLINE
  5
2b3
100
AcDbEntity
  8
0
 62
7
100
AcDbPolyline
 90
2
 70
0
 10
298.715912
 20
172.749996
 30
0.0
 10
296.715912
 20
172.749996
 30
0.0
  0
LWPOLYLINE
  5
2b4
100
AcDbEntity
  8
0
 62
7
100
AcDbPolyline
 90
2
 70
0
 10
296.715912
 20
171.449996
 30
0.0
 10
296.715912
 20
172.749996
 30
0.0
  0
LWPOLYLINE
  5
2b5
100
AcDbEntity
  8
0
 62
7
100
AcDbPolyline
 90
2
 70
0
 10
295.415912
 20
171.449996
 30
0.0
 10
296.715912
 20
171.449996
 30
0.0
  0
LWPOLYLINE
  5
2b6
100
AcDbEntity
  8
0
 62
7
100
AcDbPolyline
 90
2
 70
0
 10
295.415912
 20
172.749996
 30
0.0
 10
295.415912
 20
171.449996
 30
0.0
  0
LWPOLYLINE
  5
2b7
100
AcDbEntity
  8
0
 62
7
100
AcDbPolyline
 90
2
 70
0
 10
295.415912
 20
172.749996
 30
0.0
 10
294.115912
 20
172.749996
 30
0.0
  0
LWPOLYLINE
  5
2b8
100
AcDbEntity
  8
0
 62
7
100
AcDbPolyline
 90
2
 70
0
 10
294.115912
 20
171.449996
 30
0.0
 10
294.115912
 20
172.749996
 30
0.0
  0
LWPOLYLINE
  5
2b9
100
AcDbEntity
  8
0
 62
7
100
AcDbPolyline
 90
2
 70
0
 10
292.815912
 20
171.449996
 30
0.0
 10
294.115912
 20
171.449996
 30
0.0
  0
LWPOLYLINE
  5
2ba
100
AcDbEntity
  8
0
 62
7
100
AcDbPolyline
 90
2
 70
0
 10
292.815912
 20
172.749996
 30
0.0
 10
292.815912
 20
171.449996
 30
0.0
  0
LWPOLYLINE
  5
2bb
100
AcDbEntity
  8
0
 62
7
100
AcDbPolyline
 90
2
 70
0
 10
292.815912
 20
172.749996
 30
0.0
 10
282.715913
 20
172.749996
 30
0.0
  0
LWPOLYLINE
  5
2bc
100
AcDbEntity
  8
0
 62
7
100
AcDbPolyline
 90
2
 70
0
 10
280.715913
 20
170.749996
 30
0.0
 10
282.715913
 20
172.749996
 30
0.0
  0
LWPOLYLINE
  5
2bd
100
AcDbEntity
  8
0
 62
7
100
AcDbPolyline
 90
2
 70
0
 10
280.715913
 20
170.749996
 30
0.0
 10
280.715913
 20
169.699996
 30
0.0
  0
LWPOLYLINE
  5
2be
100
AcDbEntity
  8
0
 62
7
100
AcDbPolyline
 90
2
 70
0
 10
294.715912
 20
169.699996
 30
0.0
 10
280.715913
 20
169.699996
 30
0.0
  0
LWPOLYLINE
  5
2bf
100
AcDbEntity
  8
0
 62
7
100
AcDbPolyline
 90
2
 70
0
 10
294.715912
 20
166.749996
 30
0.0
 10
294.715912
 20
169.699996
 30
0.0
  0
LWPOLYLINE
  5
2c0
100
AcDbEntity
  8
0
 62
7
100
AcDbPolyline
 90
2
 70
0
 10
286.715913
 20
166.749996
 30
0.0
 10
294.715912
 20
166.749996
 30
0.0
  0
LWPOLYLINE
  5
2c1
100
AcDbEntity
  8
0
 62
7
100
AcDbPolyline
 90
2
 70
0
 10
288.715913
 20
164.749996
 30
0.0
 10
286.715913
 20
166.749996
 30
0.0
  0
LWPOLYLINE
  5
2c2
100
AcDbEntity
  8
0
 62
7
100
AcDbPolyline
 90
2
 70
0
 10
288.715913
 20
164.749996
 30
0.0
 10
298.715912
 20
164.749996
 30
0.0
  0
LWPOLYLINE
  5
2c3
100
AcDbEntity
  8
0
 62
7
100
AcDbPolyline
 90
2
 70
0
 10
277.280332
 20
166.749996
 30
0.0
 10
277.280332
 20
170.749996
 30
0.0
  0
LWPOLYLINE
  5
2c4
100
AcDbEntity
  8
0
 62
7
100
AcDbPolyline
 90
2
 70
0
 10
277.280332
 20
166.749996
 30
0.0
 10
275.280332
 20
164.749996
 30
0.0
  0
LWPOLYLINE
  5
2c5
100
AcDbEntity
  8
0
 62
7
100
AcDbPolyline
 90
2
 70
0
 10
275.280332
 20
172.749996
 30
0.0
 10
277.280332
 20
170.749996
 30
0.0
  0
LWPOLYLINE
  5
2c6
100
AcDbEntity
  8
0
 62
7
100
AcDbPolyline
 90
2
 70
0
 10
275.280332
 20
172.749996
 30
0.0
 10
273.280332
 20
172.749996
 30
0.0
  0
LWPOLYLINE
  5
2c7
100
AcDbEntity
  8
0
 62
7
100
AcDbPolyline
 90
2
 70
0
 10
273.280332
 20
171.449996
 30
0.0
 10
273.280332
 20
172.749996
 30
0.0
  0
LWPOLYLINE
  5
2c8
100
AcDbEntity
  8
0
 62
7
100
AcDbPolyline
 90
2
 70
0
 10
271.980332
 20
171.449996
 30
0.0
 10
273.280332
 20
171.449996
 30
0.0
  0
LWPOLYLINE
  5
2c9
100
AcDbEntity
  8
0
 62
7
100
AcDbPolyline
 90
2
 70
0
 10
271.980332
 20
172.749996
 30
0.0
 10
271.980332
 20
171.449996
 30
0.0
  0
LWPOLYLINE
  5
2ca
100
AcDbEntity
  8
0
 62
7
100
AcDbPolyline
 90
2
 70
0
 10
271.980332
 20
172.749996
 30
0.0
 10
270.680332
 20
172.749996
 30
0.0
  0
LWPOLYLINE
  5
2cb
100
AcDbEntity
  8
0
 62
7
100
AcDbPolyline
 90
2
 70
0
 10
270.680332
 20
171.449996
 30
0.0
 10
270.680332
 20
172.749996
 30
0.0
  0
LWPOLYLINE
  5
2cc
100
AcDbEntity
  8
0
 62
7
100
AcDbPolyline
 90
2
 70
0
 10
269.380332
 20
171.449996
 30
0.0
 10
270.680332
 20
171.449996
 30
0.0
  0
LWPOLYLINE
  5
2cd
100
AcDbEntity
  8
0
 62
7
100
AcDbPolyline
 90
2
 70
0
 10
269.380332
 20
172.749996
 30
0.0
 10
269.380332
 20
171.449996
 30
0.0
  0
LWPOLYLINE
  5
2ce
100
AcDbEntity
  8
0
 62
7
100
AcDbPolyline
 90
2
 70
0
 10
269.380332
 20
172.749996
 30
0.0
 10
259.280333
 20
172.749996
 30
0.0
  0
LWPOLYLINE
  5
2cf
100
AcDbEntity
  8
0
 62
7
100
AcDbPolyline
 90
2
 70
0
 10
257.280333
 20
170.749996
 30
0.0
 10
259.280333
 20
172.749996
 30
0.0
  0
LWPOLYLINE
  5
2d0
100
AcDbEntity
  8
0
 62
7
100
AcDbPolyline
 90
2
 70
0
 10
257.280333
 20
170.749996
 30
0.0
 10
257.280333
 20
169.699996
 30
0.0
  0
LWPOLYLINE
  5
2d1
100
AcDbEntity
  8
0
 62
7
100
AcDbPolyline
 90
2
 70
0
 10
271.280332
 20
169.699996
 30
0.0
 10
257.280333
 20
169.699996
 30
0.0
  0
LWPOLYLINE
  5
2d2
100
AcDbEntity
  8
0
 62
7
100
AcDbPolyline
 90
2
 70
0
 10
271.280332
 20
166.749996
 30
0.0
 10
271.280332
 20
169.699996
 30
0.0
  0
LWPOLYLINE
  5
2d3
100
AcDbEntity
  8
0
 62
7
100
AcDbPolyline
 90
2
 70
0
 10
263.280333
 20
166.749996
 30
0.0
 10
271.280332
 20
166.749996
 30
0.0
  0
LWPOLYLINE
  5
2d4
100
AcDbEntity
  8
0
 62
7
100
AcDbPolyline
 90
2
 70
0
 10
265.280333
 20
164.749996
 30
0.0
 10
263.280333
 20
166.749996
 30
0.0
  0
LWPOLYLINE
  5
2d5
100
AcDbEntity
  8
0
 62
7
100
AcDbPolyline
 90
2
 70
0
 10
265.280333
 20
164.749996
 30
0.0
 10
275.280332
 20
164.749996
 30
0.0
  0
LWPOLYLINE
  5
2d6
100
AcDbEntity
  8
0
 62
7
100
AcDbPolyline
 90
2
 70
0
 10
253.844782
 20
166.749996
 30
0.0
 10
253.844782
 20
170.749996
 30
0.0
  0
LWPOLYLINE
  5
2d7
100
AcDbEntity
  8
0
 62
7
100
AcDbPolyline
 90
2
 70
0
 10
253.844782
 20
166.749996
 30
0.0
 10
251.844782
 20
164.749996
 30
0.0
  0
LWPOLYLINE
  5
2d8
100
AcDbEntity
  8
0
 62
7
100
AcDbPolyline
 90
2
 70
0
 10
251.844782
 20
172.749996
 30
0.0
 10
253.844782
 20
170.749996
 30
0.0
  0
LWPOLYLINE
  5
2d9
100
AcDbEntity
  8
0
 62
7
100
AcDbPolyline
 90
2
 70
0
 10
251.844782
 20
172.749996
 30
0.0
 10
249.844782
 20
172.749996
 30
0.0
  0
LWPOLYLINE
  5
2da
100
AcDbEntity
  8
0
 62
7
100
AcDbPolyline
 90
2
 70
0
 10
249.844782
 20
171.449996
 30
0.0
 10
249.844782
 20
172.749996
 30
0.0
  0
LWPOLYLINE
  5
2db
100
AcDbEntity
  8
0
 62
7
100
AcDbPolyline
 90
2
 70
0
 10
248.544782
 20
171.449996
 30
0.0
 10
249.844782
 20
171.449996
 30
0.0
  0
LWPOLYLINE
  5
2dc
100
AcDbEntity
  8
0
 62
7
100
AcDbPolyline
 90
2
 70
0
 10
248.544782
 20
172.749996
 30
0.0
 10
248.544782
 20
171.449996
 30
0.0
  0
LWPOLYLINE
  5
2dd
100
AcDbEntity
  8
0
 62
7
100
AcDbPolyline
 90
2
 70
0
 10
248.544782
 20
172.749996
 30
0.0
 10
247.244782
 20
172.749996
 30
0.0
  0
LWPOLYLINE
  5
2de
100
AcDbEntity
  8
0
 62
7
100
AcDbPolyline
 90
2
 70
0
 10
247.244782
 20
171.449996
 30
0.0
 10
247.244782
 20
172.749996
 30
0.0
  0
LWPOLYLINE
  5
2df
100
AcDbEntity
  8
0
 62
7
100
AcDbPolyline
 90
2
 70
0
 10
245.944782
 20
171.449996
 30
0.0
 10
247.244782
 20
171.449996
 30
0.0
  0
LWPOLYLINE
  5
2e0
100
AcDbEntity
  8
0
 62
7
100
AcDbPolyline
 90
2
 70
0
 10
245.944782
 20
172.749996
 30
0.0
 10
245.944782
 20
171.449996
 30
0.0
  0
LWPOLYLINE
  5
2e1
100
AcDbEntity
  8
0
 62
7
100
AcDbPolyline
 90
2
 70
0
 10
245.944782
 20
172.749996
 30
0.0
 10
235.844783
 20
172.749996
 30
0.0
  0
LWPOLYLINE
  5
2e2
100
AcDbEntity
  8
0
 62
7
100
AcDbPolyline
 90
2
 70
0
 10
233.844783
 20
170.749996
 30
0.0
 10
235.844783
 20
172.749996
 30
0.0
  0
LWPOLYLINE
  5
2e3
100
AcDbEntity
  8
0
 62
7
100
AcDbPolyline
 90
2
 70
0
 10
233.844783
 20
170.749996
 30
0.0
 10
233.844783
 20
169.699996
 30
0.0
  0
LWPOLYLINE
  5
2e4
100
AcDbEntity
  8
0
 62
7
100
AcDbPolyline
 90
2
 70
0
 10
247.844782
 20
169.699996
 30
0.0
 10
233.844783
 20
169.699996
 30
0.0
  0
LWPOLYLINE
  5
2e5
100
AcDbEntity
  8
0
 62
7
100
AcDbPolyline
 90
2
 70
0
 10
247.844782
 20
166.749996
 30
0.0
 10
247.844782
 20
169.699996
 30
0.0
  0
LWPOLYLINE
  5
2e6
100
AcDbEntity
  8
0
 62
7
100
AcDbPolyline
 90
2
 70
0
 10
239.844783
 20
166.749996
 30
0.0
 10
247.844782
 20
166.749996
 30
0.0
  0
LWPOLYLINE
  5
2e7
100
AcDbEntity
  8
0
 62
7
100
AcDbPolyline
 90
2
 70
0
 10
241.844783
 20
164.749996
 30
0.0
 10
239.844783
 20
166.749996
 30
0.0
  0
LWPOLYLINE
  5
2e8
100
AcDbEntity
  8
0
 62
7
100
AcDbPolyline
 90
2
 70
0
 10
241.844783
 20
164.749996
 30
0.0
 10
251.844782
 20
164.749996
 30
0.0
  0
LWPOLYLINE
  5
2e9
100
AcDbEntity
  8
0
 62
7
100
AcDbPolyline
 90
2
 70
0
 10
233.844620
 20
157.290877
 30
0.0
 10
233.844620
 20
161.290877
 30
0.0
  0
LWPOLYLINE
  5
2ea
100
AcDbEntity
  8
0
 62
7
100
AcDbPolyline
 90
2
 70
0
 10
233.844620
 20
157.290877
 30
0.0
 10
235.844620
 20
155.290877
 30
0.0
  0
LWPOLYLINE
  5
2eb
100
AcDbEntity
  8
0
 62
7
100
AcDbPolyline
 90
2
 70
0
 10
235.844620
 20
163.290877
 30
0.0
 10
233.844620
 20
161.290877
 30
0.0
  0
LWPOLYLINE
  5
2ec
100
AcDbEntity
  8
0
 62
7
100
AcDbPolyline
 90
2
 70
0
 10
235.844620
 20
163.290877
 30
0.0
 10
237.844620
 20
163.290877
 30
0.0
  0
LWPOLYLINE
  5
2ed
100
AcDbEntity
  8
0
 62
7
100
AcDbPolyline
 90
2
 70
0
 10
237.844620
 20
161.990877
 30
0.0
 10
237.844620
 20
163.290877
 30
0.0
  0
LWPOLYLINE
  5
2ee
100
AcDbEntity
  8
0
 62
7
100
AcDbPolyline
 90
2
 70
0
 10
239.144620
 20
161.990877
 30
0.0
 10
237.844620
 20
161.990877
 30
0.0
  0
LWPOLYLINE
  5
2ef
100
AcDbEntity
  8
0
 62
7
100
AcDbPolyline
 90
2
 70
0
 10
239.144620
 20
163.290877
 30
0.0
 10
239.144620
 20
161.990877
 30
0.0
  0
LWPOLYLINE
  5
2f0
100
AcDbEntity
  8
0
 62
7
100
AcDbPolyline
 90
2
 70
0
 10
239.144620
 20
163.290877
 30
0.0
 10
240.444620
 20
163.290877
 30
0.0
  0
LWPOLYLINE
  5
2f1
100
AcDbEntity
  8
0
 62
7
100
AcDbPolyline
 90
2
 70
0
 10
240.444620
 20
161.990877
 30
0.0
 10
240.444620
 20
163.290877
 30
0.0
  0
LWPOLYLINE
  5
2f2
100
AcDbEntity
  8
0
 62
7
100
AcDbPolyline
 90
2
 70
0
 10
241.744620
 20
161.990877
 30
0.0
 10
240.444620
 20
161.990877
 30
0.0
  0
LWPOLYLINE
  5
2f3
100
AcDbEntity
  8
0
 62
7
100
AcDbPolyline
 90
2
 70
0
 10
241.744620
 20
163.290877
 30
0.0
 10
241.744620
 20
161.990877
 30
0.0
  0
LWPOLYLINE
  5
2f4
100
AcDbEntity
  8
0
 62
7
100
AcDbPolyline
 90
2
 70
0
 10
241.744620
 20
163.290877
 30
0.0
 10
251.844620
 20
163.290877
 30
0.0
  0
LWPOLYLINE
  5
2f5
100
AcDbEntity
  8
0
 62
7
100
AcDbPolyline
 90
2
 70
0
 10
253.844620
 20
161.290877
 30
0.0
 10
251.844620
 20
163.290877
 30
0.0
  0
LWPOLYLINE
  5
2f6
100
AcDbEntity
  8
0
 62
7
100
AcDbPolyline
 90
2
 70
0
 10
253.844620
 20
161.290877
 30
0.0
 10
253.844620
 20
160.240877
 30
0.0
  0
LWPOLYLINE
  5
2f7
100
AcDbEntity
  8
0
 62
7
100
AcDbPolyline
 90
2
 70
0
 10
239.844620
 20
160.240877
 30
0.0
 10
253.844620
 20
160.240877
 30
0.0
  0
LWPOLYLINE
  5
2f8
100
AcDbEntity
  8
0
 62
7
100
AcDbPolyline
 90
2
 70
0
 10
239.844620
 20
157.290877
 30
0.0
 10
239.844620
 20
160.240877
 30
0.0
  0
LWPOLYLINE
  5
2f9
100
AcDbEntity
  8
0
 62
7
100
AcDbPolyline
 90
2
 70
0
 10
247.844620
 20
157.290877
 30
0.0
 10
239.844620
 20
157.290877
 30
0.0
  0
LWPOLYLINE
  5
2fa
100
AcDbEntity
  8
0
 62
7
100
AcDbPolyline
 90
2
 70
0
 10
245.844620
 20
155.290877
 30
0.0
 10
247.844620
 20
157.290877
 30
0.0
  0
LWPOLYLINE
  5
2fb
100
AcDbEntity
  8
0
 62
7
100
AcDbPolyline
 90
2
 70
0
 10
245.844620
 20
155.290877
 30
0.0
 10
235.844620
 20
155.290877
 30
0.0
  0
LWPOLYLINE
  5
2fc
100
AcDbEntity
  8
0
 62
7
100
AcDbPolyline
 90
2
 70
0
 10
257.280199
 20
157.290873
 30
0.0
 10
257.280199
 20
161.290873
 30
0.0
  0
LWPOLYLINE
  5
2fd
100
AcDbEntity
  8
0
 62
7
100
AcDbPolyline
 90
2
 70
0
 10
257.280199
 20
157.290873
 30
0.0
 10
259.280199
 20
155.290873
 30
0.0
  0
LWPOLYLINE
  5
2fe
100
AcDbEntity
  8
0
 62
7
100
AcDbPolyline
 90
2
 70
0
 10
259.280199
 20
163.290873
 30
0.0
 10
257.280199
 20
161.290873
 30
0.0
  0
LWPOLYLINE
  5
2ff
100
AcDbEntity
  8
0
 62
7
100
AcDbPolyline
 90
2
 70
0
 10
259.280199
 20
163.290873
 30
0.0
 10
261.280199
 20
163.290873
 30
0.0
  0
LWPOLYLINE
  5
300
100
AcDbEntity
  8
0
 62
7
100
AcDbPolyline
 90
2
 70
0
 10
261.280199
 20
161.990873
 30
0.0
 10
261.280199
 20
163.290873
 30
0.0
  0
LWPOLYLINE
  5
301
100
AcDbEntity
  8
0
 62
7
100
AcDbPolyline
 90
2
 70
0
 10
262.580199
 20
161.990873
 30
0.0
 10
261.280199
 20
161.990873
 30
0.0
  0
LWPOLYLINE
  5
302
100
AcDbEntity
  8
0
 62
7
100
AcDbPolyline
 90
2
 70
0
 10
262.580199
 20
163.290873
 30
0.0
 10
262.580199
 20
161.990873
 30
0.0
  0
LWPOLYLINE
  5
303
100
AcDbEntity
  8
0
 62
7
100
AcDbPolyline
 90
2
 70
0
 10
262.580199
 20
163.290873
 30
0.0
 10
263.880199
 20
163.290873
 30
0.0
  0
LWPOLYLINE
  5
304
100
AcDbEntity
  8
0
 62
7
100
AcDbPolyline
 90
2
 70
0
 10
263.880199
 20
161.990873
 30
0.0
 10
263.880199
 20
163.290873
 30
0.0
  0
LWPOLYLINE
  5
305
100
AcDbEntity
  8
0
 62
7
100
AcDbPolyline
 90
2
 70
0
 10
265.180199
 20
161.990873
 30
0.0
 10
263.880199
 20
161.990873
 30
0.0
  0
LWPOLYLINE
  5
306
100
AcDbEntity
  8
0
 62
7
100
AcDbPolyline
 90
2
 70
0
 10
265.180199
 20
163.290873
 30
0.0
 10
265.180199
 20
161.990873
 30
0.0
  0
LWPOLYLINE
  5
307
100
AcDbEntity
  8
0
 62
7
100
AcDbPolyline
 90
2
 70
0
 10
265.180199
 20
163.290873
 30
0.0
 10
275.280198
 20
163.290873
 30
0.0
  0
LWPOLYLINE
  5
308
100
AcDbEntity
  8
0
 62
7
100
AcDbPolyline
 90
2
 70
0
 10
277.280198
 20
161.290873
 30
0.0
 10
275.280198
 20
163.290873
 30
0.0
  0
LWPOLYLINE
  5
309
100
AcDbEntity
  8
0
 62
7
100
AcDbPolyline
 90
2
 70
0
 10
277.280198
 20
161.290873
 30
0.0
 10
277.280198
 20
160.240873
 30
0.0
  0
LWPOLYLINE
  5
30a
100
AcDbEntity
  8
0
 62
7
100
AcDbPolyline
 90
2
 70
0
 10
263.280199
 20
160.240873
 30
0.0
 10
277.280198
 20
160.240873
 30
0.0
  0
LWPOLYLINE
  5
30b
100
AcDbEntity
  8
0
 62
7
100
AcDbPolyline
 90
2
 70
0
 10
263.280199
 20
157.290873
 30
0.0
 10
263.280199
 20
160.240873
 30
0.0
  0
LWPOLYLINE
  5
30c
100
AcDbEntity
  8
0
 62
7
100
AcDbPolyline
 90
2
 70
0
 10
271.280198
 20
157.290873
 30
0.0
 10
263.280199
 20
157.290873
 30
0.0
  0
LWPOLYLINE
  5
30d
100
AcDbEntity
  8
0
 62
7
100
AcDbPolyline
 90
2
 70
0
 10
269.280198
 20
155.290873
 30
0.0
 10
271.280198
 20
157.290873
 30
0.0
  0
LWPOLYLINE
  5
30e
100
AcDbEntity
  8
0
 62
7
100
AcDbPolyline
 90
2
 70
0
 10
269.280198
 20
155.290873
 30
0.0
 10
259.280199
 20
155.290873
 30
0.0
  0
LWPOLYLINE
  5
30f
100
AcDbEntity
  8
0
 62
7
100
AcDbPolyline
 90
2
 70
0
 10
280.715759
 20
157.290873
 30
0.0
 10
280.715759
 20
161.290873
 30
0.0
  0
LWPOLYLINE
  5
310
100
AcDbEntity
  8
0
 62
7
100
AcDbPolyline
 90
2
 70
0
 10
280.715759
 20
157.290873
 30
0.0
 10
282.715759
 20
155.290873
 30
0.0
  0
LWPOLYLINE
  5
311
100
AcDbEntity
  8
0
 62
7
100
AcDbPolyline
 90
2
 70
0
 10
282.715759
 20
163.290873
 30
0.0
 10
280.715759
 20
161.290873
 30
0.0
  0
LWPOLYLINE
  5
312
100
AcDbEntity
  8
0
 62
7
100
AcDbPolyline
 90
2
 70
0
 10
282.715759
 20
163.290873
 30
0.0
 10
284.715759
 20
163.290873
 30
0.0
  0
LWPOLYLINE
  5
313
100
AcDbEntity
  8
0
 62
7
100
AcDbPolyline
 90
2
 70
0
 10
284.715759
 20
161.990873
 30
0.0
 10
284.715759
 20
163.290873
 30
0.0
  0
LWPOLYLINE
  5
314
100
AcDbEntity
  8
0
 62
7
100
AcDbPolyline
 90
2
 70
0
 10
286.015759
 20
161.990873
 30
0.0
 10
284.715759
 20
161.990873
 30
0.0
  0
LWPOLYLINE
  5
315
100
AcDbEntity
  8
0
 62
7
100
AcDbPolyline
 90
2
 70
0
 10
286.015759
 20
163.290873
 30
0.0
 10
286.015759
 20
161.990873
 30
0.0
  0
LWPOLYLINE
  5
316
100
AcDbEntity
  8
0
 62
7
100
AcDbPolyline
 90
2
 70
0
 10
286.015759
 20
163.290873
 30
0.0
 10
287.315759
 20
163.290873
 30
0.0
  0
LWPOLYLINE
  5
317
100
AcDbEntity
  8
0
 62
7
100
AcDbPolyline
 90
2
 70
0
 10
287.315759
 20
161.990873
 30
0.0
 10
287.315759
 20
163.290873
 30
0.0
  0
LWPOLYLINE
  5
318
100
AcDbEntity
  8
0
 62
7
100
AcDbPolyline
 90
2
 70
0
 10
288.615759
 20
161.990873
 30
0.0
 10
287.315759
 20
161.990873
 30
0.0
  0
LWPOLYLINE
  5
319
100
AcDbEntity
  8
0
 62
7
100
AcDbPolyline
 90
2
 70
0
 10
288.615759
 20
163.290873
 30
0.0
 10
288.615759
 20
161.990873
 30
0.0
  0
LWPOLYLINE
  5
31a
100
AcDbEntity
  8
0
 62
7
100
AcDbPolyline
 90
2
 70
0
 10
288.615759
 20
163.290873
 30
0.0
 10
298.715758
 20
163.290873
 30
0.0
  0
LWPOLYLINE
  5
31b
100
AcDbEntity
  8
0
 62
7
100
AcDbPolyline
 90
2
 70
0
 10
300.715758
 20
161.290873
 30
0.0
 10
298.715758
 20
163.290873
 30
0.0
  0
LWPOLYLINE
  5
31c
100
AcDbEntity
  8
0
 62
7
100
AcDbPolyline
 90
2
 70
0
 10
300.715758
 20
161.290873
 30
0.0
 10
300.715758
 20
160.240873
 30
0.0
  0
LWPOLYLINE
  5
31d
100
AcDbEntity
  8
0
 62
7
100
AcDbPolyline
 90
2
 70
0
 10
286.715759
 20
160.240873
 30
0.0
 10
300.715758
 20
160.240873
 30
0.0
  0
LWPOLYLINE
  5
31e
100
AcDbEntity
  8
0
 62
7
100
AcDbPolyline
 90
2
 70
0
 10
286.715759
 20
157.290873
 30
0.0
 10
286.715759
 20
160.240873
 30
0.0
  0
LWPOLYLINE
  5
31f
100
AcDbEntity
  8
0
 62
7
100
AcDbPolyline
 90
2
 70
0
 10
294.715758
 20
157.290873
 30
0.0
 10
286.715759
 20
157.290873
 30
0.0
  0
LWPOLYLINE
  5
320
100
AcDbEntity
  8
0
 62
7
100
AcDbPolyline
 90
2
 70
0
 10
292.715758
 20
155.290873
 30
0.0
 10
294.715758
 20
157.290873
 30
0.0
  0
LWPOLYLINE
  5
321
100
AcDbEntity
  8
0
 62
7
100
AcDbPolyline
 90
2
 70
0
 10
292.715758
 20
155.290873
 30
0.0
 10
282.715759
 20
155.290873
 30
0.0
  0
LWPOLYLINE
  5
322
100
AcDbEntity
  8
0
 62
7
100
AcDbPolyline
 90
2
 70
0
 10
304.151309
 20
157.290873
 30
0.0
 10
304.151309
 20
161.290873
 30
0.0
  0
LWPOLYLINE
  5
323
100
AcDbEntity
  8
0
 62
7
100
AcDbPolyline
 90
2
 70
0
 10
304.151309
 20
157.290873
 30
0.0
 10
306.151309
 20
155.290873
 30
0.0
  0
LWPOLYLINE
  5
324
100
AcDbEntity
  8
0
 62
7
100
AcDbPolyline
 90
2
 70
0
 10
306.151309
 20
163.290873
 30
0.0
 10
304.151309
 20
161.290873
 30
0.0
  0
LWPOLYLINE
  5
325
100
AcDbEntity
  8
0
 62
7
100
AcDbPolyline
 90
2
 70
0
 10
306.151309
 20
163.290873
 30
0.0
 10
308.151309
 20
163.290873
 30
0.0
  0
LWPOLYLINE
  5
326
100
AcDbEntity
  8
0
 62
7
100
AcDbPolyline
 90
2
 70
0
 10
308.151309
 20
161.990873
 30
0.0
 10
308.151309
 20
163.290873
 30
0.0
  0
LWPOLYLINE
  5
327
100
AcDbEntity
  8
0
 62
7
100
AcDbPolyline
 90
2
 70
0
 10
309.451309
 20
161.990873
 30
0.0
 10
308.151309
 20
161.990873
 30
0.0
  0
LWPOLYLINE
  5
328
100
AcDbEntity
  8
0
 62
7
100
AcDbPolyline
 90
2
 70
0
 10
309.451309
 20
163.290873
 30
0.0
 10
309.451309
 20
161.990873
 30
0.0
  0
LWPOLYLINE
  5
329
100
AcDbEntity
  8
0
 62
7
100
AcDbPolyline
 90
2
 70
0
 10
309.451309
 20
163.290873
 30
0.0
 10
310.751309
 20
163.290873
 30
0.0
  0
LWPOLYLINE
  5
32a
100
AcDbEntity
  8
0
 62
7
100
AcDbPolyline
 90
2
 70
0
 10
310.751309
 20
161.990873
 30
0.0
 10
310.751309
 20
163.290873
 30
0.0
  0
LWPOLYLINE
  5
32b
100
AcDbEntity
  8
0
 62
7
100
AcDbPolyline
 90
2
 70
0
 10
312.051309
 20
161.990873
 30
0.0
 10
310.751309
 20
161.990873
 30
0.0
  0
LWPOLYLINE
  5
32c
100
AcDbEntity
  8
0
 62
7
100
AcDbPolyline
 90
2
 70
0
 10
312.051309
 20
163.290873
 30
0.0
 10
312.051309
 20
161.990873
 30
0.0
  0
LWPOLYLINE
  5
32d
100
AcDbEntity
  8
0
 62
7
100
AcDbPolyline
 90
2
 70
0
 10
312.051309
 20
163.290873
 30
0.0
 10
322.151308
 20
163.290873
 30
0.0
  0
LWPOLYLINE
  5
32e
100
AcDbEntity
  8
0
 62
7
100
AcDbPolyline
 90
2
 70
0
 10
324.151308
 20
161.290873
 30
0.0
 10
322.151308
 20
163.290873
 30
0.0
  0
LWPOLYLINE
  5
32f
100
AcDbEntity
  8
0
 62
7
100
AcDbPolyline
 90
2
 70
0
 10
324.151308
 20
161.290873
 30
0.0
 10
324.151308
 20
160.240873
 30
0.0
  0
LWPOLYLINE
  5
330
100
AcDbEntity
  8
0
 62
7
100
AcDbPolyline
 90
2
 70
0
 10
310.151309
 20
160.240873
 30
0.0
 10
324.151308
 20
160.240873
 30
0.0
  0
LWPOLYLINE
  5
331
100
AcDbEntity
  8
0
 62
7
100
AcDbPolyline
 90
2
 70
0
 10
310.151309
 20
157.290873
 30
0.0
 10
310.151309
 20
160.240873
 30
0.0
  0
LWPOLYLINE
  5
332
100
AcDbEntity
  8
0
 62
7
100
AcDbPolyline
 90
2
 70
0
 10
318.151308
 20
157.290873
 30
0.0
 10
310.151309
 20
157.290873
 30
0.0
  0
LWPOLYLINE
  5
333
100
AcDbEntity
  8
0
 62
7
100
AcDbPolyline
 90
2
 70
0
 10
316.151308
 20
155.290873
 30
0.0
 10
318.151308
 20
157.290873
 30
0.0
  0
LWPOLYLINE
  5
334
100
AcDbEntity
  8
0
 62
7
100
AcDbPolyline
 90
2
 70
0
 10
316.151308
 20
155.290873
 30
0.0
 10
306.151309
 20
155.290873
 30
0.0
  0
LWPOLYLINE
  5
335
100
AcDbEntity
  8
0
 62
7
100
AcDbPolyline
 90
2
 70
0
 10
327.586889
 20
157.290873
 30
0.0
 10
327.586889
 20
161.290873
 30
0.0
  0
LWPOLYLINE
  5
336
100
AcDbEntity
  8
0
 62
7
100
AcDbPolyline
 90
2
 70
0
 10
327.586889
 20
157.290873
 30
0.0
 10
329.586889
 20
155.290873
 30
0.0
  0
LWPOLYLINE
  5
337
100
AcDbEntity
  8
0
 62
7
100
AcDbPolyline
 90
2
 70
0
 10
329.586889
 20
163.290873
 30
0.0
 10
327.586889
 20
161.290873
 30
0.0
  0
LWPOLYLINE
  5
338
100
AcDbEntity
  8
0
 62
7
100
AcDbPolyline
 90
2
 70
0
 10
329.586889
 20
163.290873
 30
0.0
 10
331.586889
 20
163.290873
 30
0.0
  0
LWPOLYLINE
  5
339
100
AcDbEntity
  8
0
 62
7
100
AcDbPolyline
 90
2
 70
0
 10
331.586889
 20
161.990873
 30
0.0
 10
331.586889
 20
163.290873
 30
0.0
  0
LWPOLYLINE
  5
33a
100
AcDbEntity
  8
0
 62
7
100
AcDbPolyline
 90
2
 70
0
 10
332.886889
 20
161.990873
 30
0.0
 10
331.586889
 20
161.990873
 30
0.0
  0
LWPOLYLINE
  5
33b
100
AcDbEntity
  8
0
 62
7
100
AcDbPolyline
 90
2
 70
0
 10
332.886889
 20
163.290873
 30
0.0
 10
332.886889
 20
161.990873
 30
0.0
  0
LWPOLYLINE
  5
33c
100
AcDbEntity
  8
0
 62
7
100
AcDbPolyline
 90
2
 70
0
 10
332.886889
 20
163.290873
 30
0.0
 10
334.186889
 20
163.290873
 30
0.0
  0
LWPOLYLINE
  5
33d
100
AcDbEntity
  8
0
 62
7
100
AcDbPolyline
 90
2
 70
0
 10
334.186889
 20
161.990873
 30
0.0
 10
334.186889
 20
163.290873
 30
0.0
  0
LWPOLYLINE
  5
33e
100
AcDbEntity
  8
0
 62
7
100
AcDbPolyline
 90
2
 70
0
 10
335.486889
 20
161.990873
 30
0.0
 10
334.186889
 20
161.990873
 30
0.0
  0
LWPOLYLINE
  5
33f
100
AcDbEntity
  8
0
 62
7
100
AcDbPolyline
 90
2
 70
0
 10
335.486889
 20
163.290873
 30
0.0
 10
335.486889
 20
161.990873
 30
0.0
  0
LWPOLYLINE
  5
340
100
AcDbEntity
  8
0
 62
7
100
AcDbPolyline
 90
2
 70
0
 10
335.486889
 20
163.290873
 30
0.0
 10
345.586888
 20
163.290873
 30
0.0
  0
LWPOLYLINE
  5
341
100
AcDbEntity
  8
0
 62
7
100
AcDbPolyline
 90
2
 70
0
 10
347.586888
 20
161.290873
 30
0.0
 10
345.586888
 20
163.290873
 30
0.0
  0
LWPOLYLINE
  5
342
100
AcDbEntity
  8
0
 62
7
100
AcDbPolyline
 90
2
 70
0
 10
347.586888
 20
161.290873
 30
0.0
 10
347.586888
 20
160.240873
 30
0.0
  0
LWPOLYLINE
  5
343
100
AcDbEntity
  8
0
 62
7
100
AcDbPolyline
 90
2
 70
0
 10
333.586889
 20
160.240873
 30
0.0
 10
347.586888
 20
160.240873
 30
0.0
  0
LWPOLYLINE
  5
344
100
AcDbEntity
  8
0
 62
7
100
AcDbPolyline
 90
2
 70
0
 10
333.586889
 20
157.290873
 30
0.0
 10
333.586889
 20
160.240873
 30
0.0
  0
LWPOLYLINE
  5
345
100
AcDbEntity
  8
0
 62
7
100
AcDbPolyline
 90
2
 70
0
 10
341.586888
 20
157.290873
 30
0.0
 10
333.586889
 20
157.290873
 30
0.0
  0
LWPOLYLINE
  5
346
100
AcDbEntity
  8
0
 62
7
100
AcDbPolyline
 90
2
 70
0
 10
339.586888
 20
155.290873
 30
0.0
 10
341.586888
 20
157.290873
 30
0.0
  0
LWPOLYLINE
  5
347
100
AcDbEntity
  8
0
 62
7
100
AcDbPolyline
 90
2
 70
0
 10
339.586888
 20
155.290873
 30
0.0
 10
329.586889
 20
155.290873
 30
0.0
  0
LWPOLYLINE
  5
348
100
AcDbEntity
  8
0
 62
7
100
AcDbPolyline
 90
2
 70
0
 10
351.022439
 20
157.290873
 30
0.0
 10
351.022439
 20
161.290873
 30
0.0
  0
LWPOLYLINE
  5
349
100
AcDbEntity
  8
0
 62
7
100
AcDbPolyline
 90
2
 70
0
 10
351.022439
 20
157.290873
 30
0.0
 10
353.022439
 20
155.290873
 30
0.0
  0
LWPOLYLINE
  5
34a
100
AcDbEntity
  8
0
 62
7
100
AcDbPolyline
 90
2
 70
0
 10
353.022439
 20
163.290873
 30
0.0
 10
351.022439
 20
161.290873
 30
0.0
  0
LWPOLYLINE
  5
34b
100
AcDbEntity
  8
0
 62
7
100
AcDbPolyline
 90
2
 70
0
 10
353.022439
 20
163.290873
 30
0.0
 10
355.022439
 20
163.290873
 30
0.0
  0
LWPOLYLINE
  5
34c
100
AcDbEntity
  8
0
 62
7
100
AcDbPolyline
 90
2
 70
0
 10
355.022439
 20
161.990873
 30
0.0
 10
355.022439
 20
163.290873
 30
0.0
  0
LWPOLYLINE
  5
34d
100
AcDbEntity
  8
0
 62
7
100
AcDbPolyline
 90
2
 70
0
 10
356.322439
 20
161.990873
 30
0.0
 10
355.022439
 20
161.990873
 30
0.0
  0
LWPOLYLINE
  5
34e
100
AcDbEntity
  8
0
 62
7
100
AcDbPolyline
 90
2
 70
0
 10
356.322439
 20
163.290873
 30
0.0
 10
356.322439
 20
161.990873
 30
0.0
  0
LWPOLYLINE
  5
34f
100
AcDbEntity
  8
0
 62
7
100
AcDbPolyline
 90
2
 70
0
 10
356.322439
 20
163.290873
 30
0.0
 10
357.622439
 20
163.290873
 30
0.0
  0
LWPOLYLINE
  5
350
100
AcDbEntity
  8
0
 62
7
100
AcDbPolyline
 90
2
 70
0
 10
357.622439
 20
161.990873
 30
0.0
 10
357.622439
 20
163.290873
 30
0.0
  0
LWPOLYLINE
  5
351
100
AcDbEntity
  8
0
 62
7
100
AcDbPolyline
 90
2
 70
0
 10
358.922439
 20
161.990873
 30
0.0
 10
357.622439
 20
161.990873
 30
0.0
  0
LWPOLYLINE
  5
352
100
AcDbEntity
  8
0
 62
7
100
AcDbPolyline
 90
2
 70
0
 10
358.922439
 20
163.290873
 30
0.0
 10
358.922439
 20
161.990873
 30
0.0
  0
LWPOLYLINE
  5
353
100
AcDbEntity
  8
0
 62
7
100
AcDbPolyline
 90
2
 70
0
 10
358.922439
 20
163.290873
 30
0.0
 10
369.022438
 20
163.290873
 30
0.0
  0
LWPOLYLINE
  5
354
100
AcDbEntity
  8
0
 62
7
100
AcDbPolyline
 90
2
 70
0
 10
371.022438
 20
161.290873
 30
0.0
 10
369.022438
 20
163.290873
 30
0.0
  0
LWPOLYLINE
  5
355
100
AcDbEntity
  8
0
 62
7
100
AcDbPolyline
 90
2
 70
0
 10
371.022438
 20
161.290873
 30
0.0
 10
371.022438
 20
160.240873
 30
0.0
  0
LWPOLYLINE
  5
356
100
AcDbEntity
  8
0
 62
7
100
AcDbPolyline
 90
2
 70
0
 10
357.022439
 20
160.240873
 30
0.0
 10
371.022438
 20
160.240873
 30
0.0
  0
LWPOLYLINE
  5
357
100
AcDbEntity
  8
0
 62
7
100
AcDbPolyline
 90
2
 70
0
 10
357.022439
 20
157.290873
 30
0.0
 10
357.022439
 20
160.240873
 30
0.0
  0
LWPOLYLINE
  5
358
100
AcDbEntity
  8
0
 62
7
100
AcDbPolyline
 90
2
 70
0
 10
365.022438
 20
157.290873
 30
0.0
 10
357.022439
 20
157.290873
 30
0.0
  0
LWPOLYLINE
  5
359
100
AcDbEntity
  8
0
 62
7
100
AcDbPolyline
 90
2
 70
0
 10
363.022438
 20
155.290873
 30
0.0
 10
365.022438
 20
157.290873
 30
0.0
  0
LWPOLYLINE
  5
35a
100
AcDbEntity
  8
0
 62
7
100
AcDbPolyline
 90
2
 70
0
 10
363.022438
 20
155.290873
 30
0.0
 10
353.022439
 20
155.290873
 30
0.0
  0
ENDSEC
  0
SECTION
  2
OBJECTS
  0
DICTIONARY
  5
C
330
0
100
AcDbDictionary
  3
ACAD_GROUP
350
D
  3
ACAD_MLINESTYLE
350
17
  0
DICTIONARY
  5
D
330
C
100
AcDbDictionary
  0
DICTIONARY
  5
1A
330
C
100
AcDbDictionary
  0
DICTIONARY
  5
17
330
C
100
AcDbDictionary
  3
STANDARD
350
18
  0
DICTIONARY
  5
19
330
C
100
AcDbDictionary
  0
ENDSEC
  0
EOF
