<?xml version="1.0" encoding="UTF-8"?>

<svg xmlns="http://www.w3.org/2000/svg" version="1.1"
	width="594mm"
	height="420mm"
	viewBox="0 0 594 420">
	<!-- Working space 0 0 594 420 -->
	<defs>
		<radialGradient
			id="radialGradient3661"
			gradientUnits="userSpaceOnUse"
			cy="29.149"
			cx="282.65"
			gradientTransform="matrix(.14777 .23089 -.24680 .15795 -26.318 -62.617)"
			r="19.571">
				<stop stop-color="#71b2f8" offset="0"/>
				<stop stop-color="#002795" offset="1"/>
		</radialGradient>
		<radialGradient
			id="radialGradient3817"
			gradientUnits="userSpaceOnUse"
			cy="33.9"
			cx="270.58"
			gradientTransform="matrix(.26631 .065024 -.17931 .73438 -60.668 -36.938)"
			r="19.571">
				<stop stop-color="#ff6d0f" offset="0"/>
				<stop stop-color="#ff1000" offset="1"/>
		</radialGradient>
	</defs>
	<!-- Set display:none to hide FreeCAD Logo -->
	<g
		style="display:inline"
		id="freecad-logo"
		transform="translate(552, 380) scale(2)"
		fill-rule="evenodd"
		stroke-width=".45621">
		<path d="m0.22811 0.22835v13.256h2.9558v-5.1876h2.09v-2.0452h-2.09v-2.2075h5.1486v-3.8087l-8.1044-0.0075z"
			stroke="#370700"
			fill="url(#radialGradient3817)"/>
		<path d="m13.386 4.1792-1.7193 0.98645-0.75925-0.26348-0.72439-1.8513-1.1395 0.05988-0.51976 1.9144-0.72743 0.34835-1.8143-0.79367-0.76632 0.85156 0.98645 1.7193-0.26957 0.75702-1.8513 0.72439 0.065967 1.1417 1.9144 0.51976 0.34835 0.72743-0.79976 1.8121 0.85156 0.76632 1.7193-0.98645 0.76311 0.27179 0.7183 1.8491 1.1478-0.06375 0.51367-1.9166 0.72743-0.34835 1.8182 0.80198 0.76632-0.85156-0.98645-1.7193 0.2657-0.76533 1.8491-0.7183-0.05766-1.1456-1.9166-0.51367-0.34835-0.72743 0.7959-1.8204-0.85156-0.76632zm-2.5751 2.8195 0.35295 0.20478 0.30579 0.27725 0.24481 0.33087 0.17611 0.36787 0.10354 0.39656 0.01715 0.4064-0.0587 0.4063-0.13396 0.38571-0.2131 0.35681-0.26894 0.30192-0.33087 0.24481-0.36787 0.17611-0.39656 0.10354-0.40863 0.02325-0.4063-0.0587-0.38571-0.13396-0.35681-0.2131-0.2997-0.27503-0.24703-0.32478-0.17611-0.36787-0.10132-0.40264-0.02324-0.40863 0.05869-0.4063 0.13396-0.38571 0.21087-0.35072 0.27116-0.30801 0.33087-0.24481 0.36787-0.17611 0.40264-0.10132 0.40641-0.01715 0.4063 0.05869 0.38571 0.13396z" 
		stroke="#000137"
		fill="url(#radialGradient3661)"/>
	</g>
<g id="Ortho_0_0"
   transform="rotate(0,480,110) translate(480,110) scale(1,1)"
  >
<g   stroke="rgb(0, 0, 0)"
   stroke-width="0.35"
   stroke-linecap="butt"
   stroke-linejoin="miter"
   fill="none"
   transform="scale(1,-1)"
  >
<path id= "1" d=" M -103 103 L 103 103 " />
<path id= "2" d=" M -103 -103 L -103 103 " />
<path id= "3" d=" M 103 103 L 103 -103 " />
<path id= "4" d=" M 103 -103 L -103 -103 " />
<path id= "5" d=" M 93.99 -91 L 93.99 -93.99 " />
<path id= "6" d=" M 91 -91 L 93.99 -91 " />
<path id= "7" d=" M 93.99 -93.99 L 91 -93.99 " />
<path id= "8" d=" M 91 -93.99 L 91 -91 " />
<path id= "9" d=" M 42.4 -94.005 L 52.5 -94.005 " />
<path id= "10" d=" M 42.4 -96.995 L 42.4 -94.005 " />
<path id= "11" d=" M 52.5 -94.005 L 52.5 -96.995 " />
<path id= "12" d=" M 52.5 -96.995 L 42.4 -96.995 " />
<path id= "13" d=" M -42.4 -96.995 L -42.4 -94.005 " />
<path id= "14" d=" M -52.5 -96.995 L -42.4 -96.995 " />
<path id= "15" d=" M -42.4 -94.005 L -52.5 -94.005 " />
<path id= "16" d=" M -52.5 -94.005 L -52.5 -96.995 " />
<path id= "17" d=" M -93.99 -93.99 L -91 -93.99 " />
<path id= "18" d=" M -93.99 -91 L -93.99 -93.99 " />
<path id= "19" d=" M -91 -93.99 L -91 -91 " />
<path id= "20" d=" M -91 -91 L -93.99 -91 " />
<path id= "21" d=" M 96.995 52.5 L 94.005 52.5 " />
<path id= "22" d=" M 96.995 42.4 L 96.995 52.5 " />
<path id= "23" d=" M 94.005 52.5 L 94.005 42.4 " />
<path id= "24" d=" M 94.005 42.4 L 96.995 42.4 " />
<path id= "25" d=" M 94.005 -52.5 L 94.005 -42.4 " />
<path id= "26" d=" M 96.995 -52.5 L 94.005 -52.5 " />
<path id= "27" d=" M 94.005 -42.4 L 96.995 -42.4 " />
<path id= "28" d=" M 96.995 -42.4 L 96.995 -52.5 " />
<path id= "29" d=" M 94.005 -94.005 L 96.995 -94.005 " />
<path id= "30" d=" M 94.005 -96.995 L 94.005 -94.005 " />
<path id= "31" d=" M 96.995 -94.005 L 96.995 -96.995 " />
<path id= "32" d=" M 96.995 -96.995 L 94.005 -96.995 " />
<path id= "33" d=" M -86 -86 L -86 86 " />
<path id= "34" d=" M 86 -86 L -86 -86 " />
<path id= "35" d=" M 86 86 L 86 -86 " />
<path id= "36" d=" M -86 86 L 86 86 " />
<path id= "37" d=" M 97.01 -91 L 100 -91 " />
<path id= "38" d=" M 97.01 -93.99 L 97.01 -91 " />
<path id= "39" d=" M 100 -91 L 100 -93.99 " />
<path id= "40" d=" M 100 -93.99 L 97.01 -93.99 " />
<path id= "41" d=" M 100 97.01 L 100 100 " />
<path id= "42" d=" M 97.01 97.01 L 100 97.01 " />
<path id= "43" d=" M 100 100 L 97.01 100 " />
<path id= "44" d=" M 97.01 100 L 97.01 97.01 " />
<path id= "45" d=" M 93.99 100 L 91 100 " />
<path id= "46" d=" M 93.99 97.01 L 93.99 100 " />
<path id= "47" d=" M 91 100 L 91 97.01 " />
<path id= "48" d=" M 91 97.01 L 93.99 97.01 " />
<path id= "49" d=" M 96.995 96.995 L 94.005 96.995 " />
<path id= "50" d=" M 96.995 94.005 L 96.995 96.995 " />
<path id= "51" d=" M 94.005 96.995 L 94.005 94.005 " />
<path id= "52" d=" M 94.005 94.005 L 96.995 94.005 " />
<path id= "53" d=" M 93.99 91 L 93.99 93.99 " />
<path id= "54" d=" M 91 91 L 93.99 91 " />
<path id= "55" d=" M 93.99 93.99 L 91 93.99 " />
<path id= "56" d=" M 91 93.99 L 91 91 " />
<path id= "57" d=" M 97.01 91 L 100 91 " />
<path id= "58" d=" M 97.01 93.99 L 97.01 91 " />
<path id= "59" d=" M 100 91 L 100 93.99 " />
<path id= "60" d=" M 100 93.99 L 97.01 93.99 " />
<path id= "61" d=" M 42.4 96.995 L 42.4 94.005 " />
<path id= "62" d=" M 52.5 96.995 L 42.4 96.995 " />
<path id= "63" d=" M 42.4 94.005 L 52.5 94.005 " />
<path id= "64" d=" M 52.5 94.005 L 52.5 96.995 " />
<path id= "65" d=" M -42.4 94.005 L -52.5 94.005 " />
<path id= "66" d=" M -42.4 96.995 L -42.4 94.005 " />
<path id= "67" d=" M -52.5 94.005 L -52.5 96.995 " />
<path id= "68" d=" M -52.5 96.995 L -42.4 96.995 " />
<path id= "69" d=" M -91 97.01 L -93.99 97.01 " />
<path id= "70" d=" M -91 100 L -91 97.01 " />
<path id= "71" d=" M -93.99 97.01 L -93.99 100 " />
<path id= "72" d=" M -93.99 100 L -91 100 " />
<path id= "73" d=" M -91 91 L -93.99 91 " />
<path id= "74" d=" M -91 93.99 L -91 91 " />
<path id= "75" d=" M -93.99 91 L -93.99 93.99 " />
<path id= "76" d=" M -93.99 93.99 L -91 93.99 " />
<path id= "77" d=" M 97.01 -97.01 L 100 -97.01 " />
<path id= "78" d=" M 97.01 -100 L 97.01 -97.01 " />
<path id= "79" d=" M 100 -97.01 L 100 -100 " />
<path id= "80" d=" M 100 -100 L 97.01 -100 " />
<path id= "81" d=" M 91 -100 L 91 -97.01 " />
<path id= "82" d=" M 93.99 -100 L 91 -100 " />
<path id= "83" d=" M 91 -97.01 L 93.99 -97.01 " />
<path id= "84" d=" M 93.99 -97.01 L 93.99 -100 " />
<path id= "85" d=" M -100 -100 L -97.01 -100 " />
<path id= "86" d=" M -100 -97.01 L -100 -100 " />
<path id= "87" d=" M -97.01 -100 L -97.01 -97.01 " />
<path id= "88" d=" M -97.01 -97.01 L -100 -97.01 " />
<path id= "89" d=" M -96.995 -96.995 L -94.005 -96.995 " />
<path id= "90" d=" M -96.995 -94.005 L -96.995 -96.995 " />
<path id= "91" d=" M -94.005 -96.995 L -94.005 -94.005 " />
<path id= "92" d=" M -94.005 -94.005 L -96.995 -94.005 " />
<path id= "93" d=" M -97.01 -91 L -100 -91 " />
<path id= "94" d=" M -97.01 -93.99 L -97.01 -91 " />
<path id= "95" d=" M -100 -91 L -100 -93.99 " />
<path id= "96" d=" M -100 -93.99 L -97.01 -93.99 " />
<path id= "97" d=" M -96.995 -42.4 L -96.995 -52.5 " />
<path id= "98" d=" M -94.005 -42.4 L -96.995 -42.4 " />
<path id= "99" d=" M -96.995 -52.5 L -94.005 -52.5 " />
<path id= "100" d=" M -94.005 -52.5 L -94.005 -42.4 " />
<path id= "101" d=" M -93.99 -100 L -91 -100 " />
<path id= "102" d=" M -93.99 -97.01 L -93.99 -100 " />
<path id= "103" d=" M -91 -100 L -91 -97.01 " />
<path id= "104" d=" M -91 -97.01 L -93.99 -97.01 " />
<path id= "105" d=" M -94.005 42.4 L -96.995 42.4 " />
<path id= "106" d=" M -94.005 52.5 L -94.005 42.4 " />
<path id= "107" d=" M -96.995 42.4 L -96.995 52.5 " />
<path id= "108" d=" M -96.995 52.5 L -94.005 52.5 " />
<path id= "109" d=" M -96.995 96.995 L -94.005 96.995 " />
<path id= "110" d=" M -96.995 94.005 L -96.995 96.995 " />
<path id= "111" d=" M -94.005 96.995 L -94.005 94.005 " />
<path id= "112" d=" M -94.005 94.005 L -96.995 94.005 " />
<path id= "113" d=" M -97.01 91 L -100 91 " />
<path id= "114" d=" M -97.01 93.99 L -97.01 91 " />
<path id= "115" d=" M -100 91 L -100 93.99 " />
<path id= "116" d=" M -100 93.99 L -97.01 93.99 " />
<path id= "117" d=" M -100 97.01 L -100 100 " />
<path id= "118" d=" M -97.01 97.01 L -100 97.01 " />
<path id= "119" d=" M -100 100 L -97.01 100 " />
<path id= "120" d=" M -97.01 100 L -97.01 97.01 " />
<path id= "121" d=" M -86 -86 L -86 86 " />
</g>
</g>



<g id="Ortho_0_001"
   transform="rotate(0,270,110) translate(270,110) scale(1,1)"
  >
<g   stroke="rgb(0, 0, 0)"
   stroke-width="0.35"
   stroke-linecap="butt"
   stroke-linejoin="miter"
   fill="none"
   transform="scale(1,-1)"
  >
<path id= "1" d=" M -103 103 L 103 103 " />
<path id= "2" d=" M -103 -103 L -103 103 " />
<path id= "3" d=" M 103 103 L 103 -103 " />
<path id= "4" d=" M 103 -103 L -103 -103 " />
<path id= "5" d=" M 93.99 -91 L 93.99 -93.99 " />
<path id= "6" d=" M 91 -91 L 93.99 -91 " />
<path id= "7" d=" M 93.99 -93.99 L 91 -93.99 " />
<path id= "8" d=" M 91 -93.99 L 91 -91 " />
<path id= "9" d=" M 42.4 -94.005 L 52.5 -94.005 " />
<path id= "10" d=" M 42.4 -96.995 L 42.4 -94.005 " />
<path id= "11" d=" M 52.5 -94.005 L 52.5 -96.995 " />
<path id= "12" d=" M 52.5 -96.995 L 42.4 -96.995 " />
<path id= "13" d=" M -42.4 -96.995 L -42.4 -94.005 " />
<path id= "14" d=" M -52.5 -96.995 L -42.4 -96.995 " />
<path id= "15" d=" M -42.4 -94.005 L -52.5 -94.005 " />
<path id= "16" d=" M -52.5 -94.005 L -52.5 -96.995 " />
<path id= "17" d=" M -93.99 -93.99 L -91 -93.99 " />
<path id= "18" d=" M -93.99 -91 L -93.99 -93.99 " />
<path id= "19" d=" M -91 -93.99 L -91 -91 " />
<path id= "20" d=" M -91 -91 L -93.99 -91 " />
<path id= "21" d=" M 96.995 52.5 L 94.005 52.5 " />
<path id= "22" d=" M 96.995 42.4 L 96.995 52.5 " />
<path id= "23" d=" M 94.005 52.5 L 94.005 42.4 " />
<path id= "24" d=" M 94.005 42.4 L 96.995 42.4 " />
<path id= "25" d=" M 94.005 -52.5 L 94.005 -42.4 " />
<path id= "26" d=" M 96.995 -52.5 L 94.005 -52.5 " />
<path id= "27" d=" M 94.005 -42.4 L 96.995 -42.4 " />
<path id= "28" d=" M 96.995 -42.4 L 96.995 -52.5 " />
<path id= "29" d=" M 94.005 -94.005 L 96.995 -94.005 " />
<path id= "30" d=" M 94.005 -96.995 L 94.005 -94.005 " />
<path id= "31" d=" M 96.995 -94.005 L 96.995 -96.995 " />
<path id= "32" d=" M 96.995 -96.995 L 94.005 -96.995 " />
<path id= "33" d=" M -86 -86 L -86 86 " />
<path id= "34" d=" M 86 -86 L -86 -86 " />
<path id= "35" d=" M 86 86 L 86 -86 " />
<path id= "36" d=" M -86 86 L 86 86 " />
<path id= "37" d=" M 97.01 -91 L 100 -91 " />
<path id= "38" d=" M 97.01 -93.99 L 97.01 -91 " />
<path id= "39" d=" M 100 -91 L 100 -93.99 " />
<path id= "40" d=" M 100 -93.99 L 97.01 -93.99 " />
<path id= "41" d=" M 100 97.01 L 100 100 " />
<path id= "42" d=" M 97.01 97.01 L 100 97.01 " />
<path id= "43" d=" M 100 100 L 97.01 100 " />
<path id= "44" d=" M 97.01 100 L 97.01 97.01 " />
<path id= "45" d=" M 93.99 100 L 91 100 " />
<path id= "46" d=" M 93.99 97.01 L 93.99 100 " />
<path id= "47" d=" M 91 100 L 91 97.01 " />
<path id= "48" d=" M 91 97.01 L 93.99 97.01 " />
<path id= "49" d=" M 96.995 96.995 L 94.005 96.995 " />
<path id= "50" d=" M 96.995 94.005 L 96.995 96.995 " />
<path id= "51" d=" M 94.005 96.995 L 94.005 94.005 " />
<path id= "52" d=" M 94.005 94.005 L 96.995 94.005 " />
<path id= "53" d=" M 93.99 91 L 93.99 93.99 " />
<path id= "54" d=" M 91 91 L 93.99 91 " />
<path id= "55" d=" M 93.99 93.99 L 91 93.99 " />
<path id= "56" d=" M 91 93.99 L 91 91 " />
<path id= "57" d=" M 97.01 91 L 100 91 " />
<path id= "58" d=" M 97.01 93.99 L 97.01 91 " />
<path id= "59" d=" M 100 91 L 100 93.99 " />
<path id= "60" d=" M 100 93.99 L 97.01 93.99 " />
<path id= "61" d=" M 42.4 96.995 L 42.4 94.005 " />
<path id= "62" d=" M 52.5 96.995 L 42.4 96.995 " />
<path id= "63" d=" M 42.4 94.005 L 52.5 94.005 " />
<path id= "64" d=" M 52.5 94.005 L 52.5 96.995 " />
<path id= "65" d=" M -42.4 94.005 L -52.5 94.005 " />
<path id= "66" d=" M -42.4 96.995 L -42.4 94.005 " />
<path id= "67" d=" M -52.5 94.005 L -52.5 96.995 " />
<path id= "68" d=" M -52.5 96.995 L -42.4 96.995 " />
<path id= "69" d=" M -91 97.01 L -93.99 97.01 " />
<path id= "70" d=" M -91 100 L -91 97.01 " />
<path id= "71" d=" M -93.99 97.01 L -93.99 100 " />
<path id= "72" d=" M -93.99 100 L -91 100 " />
<path id= "73" d=" M -91 91 L -93.99 91 " />
<path id= "74" d=" M -91 93.99 L -91 91 " />
<path id= "75" d=" M -93.99 91 L -93.99 93.99 " />
<path id= "76" d=" M -93.99 93.99 L -91 93.99 " />
<path id= "77" d=" M 97.01 -97.01 L 100 -97.01 " />
<path id= "78" d=" M 97.01 -100 L 97.01 -97.01 " />
<path id= "79" d=" M 100 -97.01 L 100 -100 " />
<path id= "80" d=" M 100 -100 L 97.01 -100 " />
<path id= "81" d=" M 91 -100 L 91 -97.01 " />
<path id= "82" d=" M 93.99 -100 L 91 -100 " />
<path id= "83" d=" M 91 -97.01 L 93.99 -97.01 " />
<path id= "84" d=" M 93.99 -97.01 L 93.99 -100 " />
<path id= "85" d=" M -100 -100 L -97.01 -100 " />
<path id= "86" d=" M -100 -97.01 L -100 -100 " />
<path id= "87" d=" M -97.01 -100 L -97.01 -97.01 " />
<path id= "88" d=" M -97.01 -97.01 L -100 -97.01 " />
<path id= "89" d=" M -96.995 -96.995 L -94.005 -96.995 " />
<path id= "90" d=" M -96.995 -94.005 L -96.995 -96.995 " />
<path id= "91" d=" M -94.005 -96.995 L -94.005 -94.005 " />
<path id= "92" d=" M -94.005 -94.005 L -96.995 -94.005 " />
<path id= "93" d=" M -97.01 -91 L -100 -91 " />
<path id= "94" d=" M -97.01 -93.99 L -97.01 -91 " />
<path id= "95" d=" M -100 -91 L -100 -93.99 " />
<path id= "96" d=" M -100 -93.99 L -97.01 -93.99 " />
<path id= "97" d=" M -96.995 -42.4 L -96.995 -52.5 " />
<path id= "98" d=" M -94.005 -42.4 L -96.995 -42.4 " />
<path id= "99" d=" M -96.995 -52.5 L -94.005 -52.5 " />
<path id= "100" d=" M -94.005 -52.5 L -94.005 -42.4 " />
<path id= "101" d=" M -93.99 -100 L -91 -100 " />
<path id= "102" d=" M -93.99 -97.01 L -93.99 -100 " />
<path id= "103" d=" M -91 -100 L -91 -97.01 " />
<path id= "104" d=" M -91 -97.01 L -93.99 -97.01 " />
<path id= "105" d=" M -94.005 42.4 L -96.995 42.4 " />
<path id= "106" d=" M -94.005 52.5 L -94.005 42.4 " />
<path id= "107" d=" M -96.995 42.4 L -96.995 52.5 " />
<path id= "108" d=" M -96.995 52.5 L -94.005 52.5 " />
<path id= "109" d=" M -96.995 96.995 L -94.005 96.995 " />
<path id= "110" d=" M -96.995 94.005 L -96.995 96.995 " />
<path id= "111" d=" M -94.005 96.995 L -94.005 94.005 " />
<path id= "112" d=" M -94.005 94.005 L -96.995 94.005 " />
<path id= "113" d=" M -97.01 91 L -100 91 " />
<path id= "114" d=" M -97.01 93.99 L -97.01 91 " />
<path id= "115" d=" M -100 91 L -100 93.99 " />
<path id= "116" d=" M -100 93.99 L -97.01 93.99 " />
<path id= "117" d=" M -100 97.01 L -100 100 " />
<path id= "118" d=" M -97.01 97.01 L -100 97.01 " />
<path id= "119" d=" M -100 100 L -97.01 100 " />
<path id= "120" d=" M -97.01 100 L -97.01 97.01 " />
<path id= "121" d=" M -86 -86 L -86 86 " />
</g>
</g>



<g id="Ortho_0_002"
   transform="rotate(90,490,285.5) translate(490,285.5) scale(1,1)"
  >
<g   stroke="rgb(0, 0, 0)"
   stroke-width="0.35"
   stroke-linecap="butt"
   stroke-linejoin="miter"
   fill="none"
   transform="scale(1,-1)"
  >
<path id= "1" d=" M -69.5 -52.7 L -69.5 -42.7 " />
<path id= "2" d=" M -69.5 -52.7 L -68 -52.7 " />
<path id= "3" d=" M -68 -42.7 L -69.5 -42.7 " />
<path id= "4" d=" M -68 -52.7 L -68 -91 " />
<path id= "5" d=" M -68 -42.7 L -68 42.7 " />
<path id= "6" d=" M -68 -91 L -55 -91 " />
<path id= "7" d=" M -68 42.7 L -69.5 42.7 " />
<path id= "8" d=" M -55 -91 L -55 -94 " />
<path id= "9" d=" M -69.5 42.7 L -69.5 52.7 " />
<path id= "10" d=" M -42 -94 L -55 -94 " />
<path id= "11" d=" M -69.5 52.7 L -68 52.7 " />
<path id= "12" d=" M -42 -94 L -42 -91 " />
<path id= "13" d=" M -68 52.7 L -68 91 " />
<path id= "14" d=" M -42 -91 L -29 -91 " />
<path id= "15" d=" M -55 91 L -68 91 " />
<path id= "16" d=" M -29 -91 L -29 -94 " />
<path id= "17" d=" M -55 94 L -55 91 " />
<path id= "18" d=" M -16 -94 L -29 -94 " />
<path id= "19" d=" M -55 94 L -42 94 " />
<path id= "20" d=" M -16 -94 L -16 -91 " />
<path id= "21" d=" M -42 91 L -42 94 " />
<path id= "22" d=" M -16 -91 L -3 -91 " />
<path id= "23" d=" M -29 91 L -42 91 " />
<path id= "24" d=" M -3 -91 L -3 -52.7 " />
<path id= "25" d=" M -29 94 L -29 91 " />
<path id= "26" d=" M -3 -52.7 L -1.5 -52.7 " />
<path id= "27" d=" M -29 94 L -16 94 " />
<path id= "28" d=" M -1.5 -42.7 L -1.5 -52.7 " />
<path id= "29" d=" M -16 91 L -16 94 " />
<path id= "30" d=" M -1.5 -42.7 L -3 -42.7 " />
<path id= "31" d=" M -3 91 L -16 91 " />
<path id= "32" d=" M -3 -42.7 L -3 42.7 " />
<path id= "33" d=" M -3 52.7 L -3 91 " />
<path id= "34" d=" M -1.5 42.7 L -3 42.7 " />
<path id= "35" d=" M -3 52.7 L -1.5 52.7 " />
<path id= "36" d=" M -1.5 52.7 L -1.5 42.7 " />
<path id= "37" d=" M -36.7 12.8 L -42.4971 12.8 " />
<path id= "38" d=" M -36.7 16.8667 L -36.7 12.8 " />
<path id= "39" d=" M -39.2 20.9333 L -36.7 16.8667 " />
<path id= "40" d=" M -39.2 25 L -39.2 20.9333 " />
<path id= "41" d=" M -44.5 25 L -39.2 25 " />
<path id= "42" d=" M -47 22.5 L -44.5 25 " />
<path id= "43" d=" M -47 8.29706 L -47 22.5 " />
<path id= "44" d=" M -42.4971 12.8 L -47 8.29706 " />
<path id= "45" d=" M -29 22.5 L -29 12.8 " />
<path id= "46" d=" M -31.5 25 L -29 22.5 " />
<path id= "47" d=" M -38 25 L -31.5 25 " />
<path id= "48" d=" M -38 21.2727 L -38 25 " />
<path id= "49" d=" M -35.5 17.206 L -38 21.2727 " />
<path id= "50" d=" M -35.5 12.8 L -35.5 17.206 " />
<path id= "51" d=" M -29 12.8 L -35.5 12.8 " />
<path id= "52" d=" M -47 0.6 L -29 0.6 " />
<path id= "53" d=" M -29 0.6 L -29 11.6 " />
<path id= "54" d=" M -29 11.6 L -42 11.6 " />
<path id= "55" d=" M -42 11.6 L -47 6.6 " />
<path id= "56" d=" M -47 6.6 L -47 0.6 " />
<path id= "57" d=" M -35.5 40.2 L -35.5 35.794 " />
<path id= "58" d=" M -35.5 35.794 L -38 31.7273 " />
<path id= "59" d=" M -38 31.7273 L -38 28 " />
<path id= "60" d=" M -38 28 L -31.5 28 " />
<path id= "61" d=" M -31.5 28 L -29 30.5 " />
<path id= "62" d=" M -29 30.5 L -29 40.2 " />
<path id= "63" d=" M -29 40.2 L -35.5 40.2 " />
<path id= "64" d=" M -47 30.5 L -44.5 28 " />
<path id= "65" d=" M -44.5 28 L -39.2 28 " />
<path id= "66" d=" M -39.2 28 L -39.2 32.0667 " />
<path id= "67" d=" M -39.2 32.0667 L -36.7 36.1333 " />
<path id= "68" d=" M -36.7 36.1333 L -36.7 40.2 " />
<path id= "69" d=" M -36.7 40.2 L -42.4971 40.2 " />
<path id= "70" d=" M -42.4971 40.2 L -47 44.7029 " />
<path id= "71" d=" M -47 44.7029 L -47 30.5 " />
<path id= "72" d=" M -47 46.4 L -47 52.4 " />
<path id= "73" d=" M -42 41.4 L -47 46.4 " />
<path id= "74" d=" M -29 41.4 L -42 41.4 " />
<path id= "75" d=" M -29 52.4 L -29 41.4 " />
<path id= "76" d=" M -47 52.4 L -29 52.4 " />
<path id= "77" d=" M -29 64.6 L -42 64.6 " />
<path id= "78" d=" M -42 64.6 L -47 59.6 " />
<path id= "79" d=" M -47 59.6 L -47 53.6 " />
<path id= "80" d=" M -47 53.6 L -29 53.6 " />
<path id= "81" d=" M -29 53.6 L -29 64.6 " />
<path id= "82" d=" M -39.2 -20.9333 L -36.7 -16.8667 " />
<path id= "83" d=" M -36.7 -16.8667 L -36.7 -12.8 " />
<path id= "84" d=" M -36.7 -12.8 L -42.4971 -12.8 " />
<path id= "85" d=" M -42.4971 -12.8 L -47 -8.29706 " />
<path id= "86" d=" M -47 -8.29706 L -47 -22.5 " />
<path id= "87" d=" M -47 -22.5 L -44.5 -25 " />
<path id= "88" d=" M -44.5 -25 L -39.2 -25 " />
<path id= "89" d=" M -39.2 -25 L -39.2 -20.9333 " />
<path id= "90" d=" M -35.5 -17.206 L -38 -21.2727 " />
<path id= "91" d=" M -38 -21.2727 L -38 -25 " />
<path id= "92" d=" M -38 -25 L -31.5 -25 " />
<path id= "93" d=" M -31.5 -25 L -29 -22.5 " />
<path id= "94" d=" M -29 -22.5 L -29 -12.8 " />
<path id= "95" d=" M -29 -12.8 L -35.5 -12.8 " />
<path id= "96" d=" M -35.5 -12.8 L -35.5 -17.206 " />
<path id= "97" d=" M -47 -0.6 L -29 -0.6 " />
<path id= "98" d=" M -47 -6.6 L -47 -0.6 " />
<path id= "99" d=" M -42 -11.6 L -47 -6.6 " />
<path id= "100" d=" M -29 -11.6 L -42 -11.6 " />
<path id= "101" d=" M -29 -0.6 L -29 -11.6 " />
<path id= "102" d=" M -47 -44.7029 L -47 -30.5 " />
<path id= "103" d=" M -42.4971 -40.2 L -47 -44.7029 " />
<path id= "104" d=" M -36.7 -40.2 L -42.4971 -40.2 " />
<path id= "105" d=" M -36.7 -36.1333 L -36.7 -40.2 " />
<path id= "106" d=" M -39.2 -32.0667 L -36.7 -36.1333 " />
<path id= "107" d=" M -39.2 -28 L -39.2 -32.0667 " />
<path id= "108" d=" M -44.5 -28 L -39.2 -28 " />
<path id= "109" d=" M -47 -30.5 L -44.5 -28 " />
<path id= "110" d=" M -47 -52.4 L -29 -52.4 " />
<path id= "111" d=" M -29 -52.4 L -29 -41.4 " />
<path id= "112" d=" M -29 -41.4 L -42 -41.4 " />
<path id= "113" d=" M -42 -41.4 L -47 -46.4 " />
<path id= "114" d=" M -47 -46.4 L -47 -52.4 " />
<path id= "115" d=" M -35.5 -35.794 L -38 -31.7273 " />
<path id= "116" d=" M -35.5 -40.2 L -35.5 -35.794 " />
<path id= "117" d=" M -29 -40.2 L -35.5 -40.2 " />
<path id= "118" d=" M -29 -30.5 L -29 -40.2 " />
<path id= "119" d=" M -31.5 -28 L -29 -30.5 " />
<path id= "120" d=" M -38 -28 L -31.5 -28 " />
<path id= "121" d=" M -38 -31.7273 L -38 -28 " />
<path id= "122" d=" M -35.5 70.206 L -38 74.2727 " />
<path id= "123" d=" M -35.5 65.8 L -35.5 70.206 " />
<path id= "124" d=" M -29 65.8 L -35.5 65.8 " />
<path id= "125" d=" M -29 75.5 L -29 65.8 " />
<path id= "126" d=" M -31.5 78 L -29 75.5 " />
<path id= "127" d=" M -38 78 L -31.5 78 " />
<path id= "128" d=" M -38 74.2727 L -38 78 " />
<path id= "129" d=" M -47 75.5 L -44.5 78 " />
<path id= "130" d=" M -47 61.2971 L -47 75.5 " />
<path id= "131" d=" M -42.4971 65.8 L -47 61.2971 " />
<path id= "132" d=" M -36.7 65.8 L -42.4971 65.8 " />
<path id= "133" d=" M -36.7 69.8667 L -36.7 65.8 " />
<path id= "134" d=" M -39.2 73.9333 L -36.7 69.8667 " />
<path id= "135" d=" M -39.2 78 L -39.2 73.9333 " />
<path id= "136" d=" M -44.5 78 L -39.2 78 " />
<path id= "137" d=" M -35.5 -65.8 L -35.5 -70.206 " />
<path id= "138" d=" M -29 -65.8 L -35.5 -65.8 " />
<path id= "139" d=" M -35.5 -70.206 L -38 -74.2727 " />
<path id= "140" d=" M -29 -75.5 L -29 -65.8 " />
<path id= "141" d=" M -38 -74.2727 L -38 -78 " />
<path id= "142" d=" M -31.5 -78 L -29 -75.5 " />
<path id= "143" d=" M -38 -78 L -31.5 -78 " />
<path id= "144" d=" M -42.4971 -65.8 L -47 -61.2971 " />
<path id= "145" d=" M -36.7 -65.8 L -42.4971 -65.8 " />
<path id= "146" d=" M -47 -61.2971 L -47 -75.5 " />
<path id= "147" d=" M -36.7 -69.8667 L -36.7 -65.8 " />
<path id= "148" d=" M -47 -75.5 L -44.5 -78 " />
<path id= "149" d=" M -39.2 -73.9333 L -36.7 -69.8667 " />
<path id= "150" d=" M -44.5 -78 L -39.2 -78 " />
<path id= "151" d=" M -39.2 -78 L -39.2 -73.9333 " />
<path id= "152" d=" M -47 -59.6 L -47 -53.6 " />
<path id= "153" d=" M -42 -64.6 L -47 -59.6 " />
<path id= "154" d=" M -47 -53.6 L -29 -53.6 " />
<path id= "155" d=" M -29 -64.6 L -42 -64.6 " />
<path id= "156" d=" M -29 -53.6 L -29 -64.6 " />
</g>
</g>



<g id="Ortho_0_003"
   transform="rotate(90,290,285.5) translate(290,285.5) scale(1,1)"
  >
<g   stroke="rgb(0, 0, 0)"
   stroke-width="0.35"
   stroke-linecap="butt"
   stroke-linejoin="miter"
   fill="none"
   transform="scale(1,-1)"
  >
<path id= "1" d=" M -68 5 L -68 -5 " />
<path id= "2" d=" M -68 5 L -68 91 " />
<path id= "3" d=" M -55 91 L -68 91 " />
<path id= "4" d=" M -42 91 L -55 91 " />
<path id= "5" d=" M -29 91 L -42 91 " />
<path id= "6" d=" M -16 91 L -29 91 " />
<path id= "7" d=" M -3 91 L -16 91 " />
<path id= "8" d=" M -3 5 L -3 91 " />
<path id= "9" d=" M -3 -5 L -3 5 " />
<path id= "10" d=" M -3 -91 L -3 -5 " />
<path id= "11" d=" M -16 -91 L -3 -91 " />
<path id= "12" d=" M -16 -91 L -29 -91 " />
<path id= "13" d=" M -29 -91 L -42 -91 " />
<path id= "14" d=" M -42 -91 L -55 -91 " />
<path id= "15" d=" M -68 -91 L -55 -91 " />
<path id= "16" d=" M -68 -5 L -68 -91 " />
<path id= "17" d=" M -28 28 L -48 28 " />
<path id= "18" d=" M -28 78 L -28 28 " />
<path id= "19" d=" M -48 28 L -48 78 " />
<path id= "20" d=" M -48 78 L -28 78 " />
<path id= "21" d=" M -48 25 L -28 25 " />
<path id= "22" d=" M -48 -25 L -48 25 " />
<path id= "23" d=" M -28 25 L -28 -25 " />
<path id= "24" d=" M -28 -25 L -48 -25 " />
<path id= "25" d=" M -48 -78 L -48 -28 " />
<path id= "26" d=" M -28 -78 L -48 -78 " />
<path id= "27" d=" M -48 -28 L -28 -28 " />
<path id= "28" d=" M -28 -28 L -28 -78 " />
</g>
</g>



<g id="Ortho_0_004"
   transform="rotate(90,102.456,20.3376) translate(102.456,20.3376) scale(1,1)"
  >
<g   stroke="rgb(0, 0, 0)"
   stroke-width="0.35"
   stroke-linecap="butt"
   stroke-linejoin="miter"
   fill="none"
   transform="scale(1,-1)"
  >
<path id= "1" d=" M -5.83757 -90.9565 L -5.83757 -87.9565 " />
<path id= "2" d=" M -5.83757 -90.9565 L -2.83757 -90.9565 " />
<path id= "3" d=" M -5.83757 -87.9565 L 65.1624 -87.9565 " />
<path id= "4" d=" M 65.1624 -87.9565 L 65.1624 -90.9815 " />
<path id= "5" d=" M 62.1624 -90.9815 L 65.1624 -90.9815 " />
<path id= "6" d=" M 62.1624 -93.9315 L 62.1624 -90.9815 " />
<path id= "7" d=" M 65.1624 -93.9315 L 62.1624 -93.9315 " />
<path id= "8" d=" M 65.1624 -93.9315 L 65.1624 -96.9565 " />
<path id= "9" d=" M 65.1624 -96.9565 L -2.83757 -96.9565 " />
<path id= "10" d=" M -2.83757 -90.9565 L -2.83757 -96.9565 " />
</g>
</g>



<g id="Ortho_0_005"
   transform="rotate(90,109.258,0.154137) translate(109.258,0.154137) scale(1,1)"
  >
<g   stroke="rgb(0, 0, 0)"
   stroke-width="0.35"
   stroke-linecap="butt"
   stroke-linejoin="miter"
   fill="none"
   transform="scale(1,-1)"
  >
<path id= "1" d=" M 14.3459 -85.7579 L 14.3459 -82.7579 " />
<path id= "2" d=" M 14.3459 -85.7579 L 18.8459 -85.7579 " />
<path id= "3" d=" M 18.8459 -82.7579 L 14.3459 -82.7579 " />
<path id= "4" d=" M 18.8459 -79.7579 L 18.8459 -82.7579 " />
<path id= "5" d=" M 18.8459 -79.7579 L 31.8459 -79.7579 " />
<path id= "6" d=" M 31.8459 -82.7579 L 31.8459 -79.7579 " />
<path id= "7" d=" M 44.8459 -82.7579 L 31.8459 -82.7579 " />
<path id= "8" d=" M 44.8459 -79.7579 L 44.8459 -82.7579 " />
<path id= "9" d=" M 44.8459 -79.7579 L 57.8459 -79.7579 " />
<path id= "10" d=" M 57.8459 -82.7579 L 57.8459 -79.7579 " />
<path id= "11" d=" M 70.8459 -82.7579 L 57.8459 -82.7579 " />
<path id= "12" d=" M 70.8459 -79.7579 L 70.8459 -82.7579 " />
<path id= "13" d=" M 70.8459 -79.7579 L 83.8459 -79.7579 " />
<path id= "14" d=" M 83.8459 -82.7579 L 83.8459 -79.7579 " />
<path id= "15" d=" M 85.3459 -82.7579 L 83.8459 -82.7579 " />
<path id= "16" d=" M 85.3459 -82.7579 L 85.3459 -85.7579 " />
<path id= "17" d=" M 83.8459 -85.7579 L 85.3459 -85.7579 " />
<path id= "18" d=" M 83.8459 -88.7579 L 83.8459 -85.7579 " />
<path id= "19" d=" M 83.8459 -88.7579 L 18.8459 -88.7579 " />
<path id= "20" d=" M 18.8459 -85.7579 L 18.8459 -88.7579 " />
</g>
</g>



<g id="Ortho_0_006"
   transform="rotate(-90,-59.1988,-1.34586) translate(-59.1988,-1.34586) scale(1,1)"
  >
<g   stroke="rgb(0, 0, 0)"
   stroke-width="0.35"
   stroke-linecap="butt"
   stroke-linejoin="miter"
   fill="none"
   transform="scale(1,-1)"
  >
<path id= "1" d=" M -15.8459 -94.6988 L -15.8459 -97.6988 " />
<path id= "2" d=" M -18.8459 -97.6988 L -15.8459 -97.6988 " />
<path id= "3" d=" M -18.8459 -103.699 L -18.8459 -97.6988 " />
<path id= "4" d=" M -18.8459 -103.699 L -86.8459 -103.699 " />
<path id= "5" d=" M -86.8459 -103.699 L -86.8459 -100.674 " />
<path id= "6" d=" M -83.8459 -100.674 L -86.8459 -100.674 " />
<path id= "7" d=" M -83.8459 -97.7238 L -83.8459 -100.674 " />
<path id= "8" d=" M -86.8459 -97.7238 L -83.8459 -97.7238 " />
<path id= "9" d=" M -86.8459 -97.7238 L -86.8459 -94.6988 " />
<path id= "10" d=" M -86.8459 -94.6988 L -15.8459 -94.6988 " />
<path id= "11" d=" M -44.8459 -97.7238 L -31.8459 -97.7238 " />
<path id= "12" d=" M -44.8459 -100.674 L -44.8459 -97.7238 " />
<path id= "13" d=" M -31.8459 -100.674 L -44.8459 -100.674 " />
<path id= "14" d=" M -31.8459 -97.7238 L -31.8459 -100.674 " />
<path id= "15" d=" M -57.8459 -97.7238 L -57.8459 -100.674 " />
<path id= "16" d=" M -70.8459 -97.7238 L -57.8459 -97.7238 " />
<path id= "17" d=" M -70.8459 -100.674 L -70.8459 -97.7238 " />
<path id= "18" d=" M -57.8459 -100.674 L -70.8459 -100.674 " />
</g>
</g>



</svg>

