<?xml version="1.0" encoding="UTF-8" standalone="no"?>
<!-- Created with Inkscape (http://www.inkscape.org/) -->

<svg
   xmlns:dc="http://purl.org/dc/elements/1.1/"
   xmlns:cc="http://creativecommons.org/ns#"
   xmlns:rdf="http://www.w3.org/1999/02/22-rdf-syntax-ns#"
   xmlns:svg="http://www.w3.org/2000/svg"
   xmlns="http://www.w3.org/2000/svg"
   xmlns:sodipodi="http://sodipodi.sourceforge.net/DTD/sodipodi-0.dtd"
   xmlns:inkscape="http://www.inkscape.org/namespaces/inkscape"
   width="841mm"
   height="594mm"
   viewBox="0 0 2979.9212 2104.7244"
   id="svg8649"
   version="1.1"
   inkscape:version="0.91 r13725"
   sodipodi:docname="hexagon_pattern.svg">
  <defs
     id="defs8651" />
  <sodipodi:namedview
     id="base"
     pagecolor="#ffffff"
     bordercolor="#666666"
     borderopacity="1.0"
     inkscape:pageopacity="0.0"
     inkscape:pageshadow="2"
     inkscape:zoom="0.24748737"
     inkscape:cx="1167.2503"
     inkscape:cy="1038.5889"
     inkscape:document-units="mm"
     inkscape:current-layer="layer1"
     showgrid="false"
     units="mm"
     inkscape:window-width="1707"
     inkscape:window-height="907"
     inkscape:window-x="-8"
     inkscape:window-y="-8"
     inkscape:window-maximized="1" />
  <metadata
     id="metadata8654">
    <rdf:RDF>
      <cc:Work
         rdf:about="">
        <dc:format>image/svg+xml</dc:format>
        <dc:type
           rdf:resource="http://purl.org/dc/dcmitype/StillImage" />
        <dc:title></dc:title>
      </cc:Work>
    </rdf:RDF>
  </metadata>
  <g
     inkscape:label="Calque 1"
     inkscape:groupmode="layer"
     id="layer1"
     transform="translate(0,1052.362)">
    <path
       style="opacity:1;fill:none;fill-opacity:0.73333333;stroke:#00ff00;stroke-width:0.35433071;stroke-linecap:square;stroke-linejoin:miter;stroke-miterlimit:4;stroke-dasharray:none;stroke-opacity:1"
       d="M 163.46289 49.748047 L 106.42188 82.681641 L 106.42188 148.54492 L 163.46289 181.47656 L 220.50195 148.54492 L 220.50195 82.681641 L 163.46289 49.748047 z M 286.17578 49.748047 L 229.13672 82.681641 L 229.13672 148.54492 L 286.17578 181.47656 L 343.21484 148.54492 L 343.21484 82.681641 L 286.17578 49.748047 z M 408.88867 49.748047 L 351.84961 82.681641 L 351.84961 148.54492 L 408.88867 181.47656 L 465.92969 148.54492 L 465.92969 82.681641 L 408.88867 49.748047 z M 531.60156 49.748047 L 474.5625 82.681641 L 474.5625 148.54492 L 531.60156 181.47656 L 588.64258 148.54492 L 588.64258 82.681641 L 531.60156 49.748047 z M 654.31445 49.748047 L 597.27539 82.681641 L 597.27539 148.54492 L 654.31445 181.47656 L 711.35547 148.54492 L 711.35547 82.681641 L 654.31445 49.748047 z M 777.02734 49.748047 L 719.98828 82.681641 L 719.98828 148.54492 L 777.02734 181.47656 L 834.06836 148.54492 L 834.06836 82.681641 L 777.02734 49.748047 z M 899.74023 49.748047 L 842.70117 82.681641 L 842.70117 148.54492 L 899.74219 181.47656 L 956.78125 148.54492 L 956.78125 82.681641 L 899.74023 49.748047 z M 1022.4551 49.748047 L 965.41406 82.681641 L 965.41406 148.54492 L 1022.4551 181.47656 L 1079.4941 148.54492 L 1079.4941 82.681641 L 1022.4551 49.748047 z M 1145.168 49.748047 L 1088.127 82.681641 L 1088.127 148.54492 L 1145.168 181.47656 L 1202.207 148.54492 L 1202.207 82.681641 L 1145.168 49.748047 z M 1267.8809 49.748047 L 1210.8398 82.681641 L 1210.8398 148.54492 L 1267.8809 181.47656 L 1324.9199 148.54492 L 1324.9199 82.681641 L 1267.8809 49.748047 z M 1390.5938 49.748047 L 1333.5527 82.681641 L 1333.5527 148.54492 L 1390.5938 181.47656 L 1447.6328 148.54492 L 1447.6328 82.681641 L 1390.5938 49.748047 z M 1513.3066 49.748047 L 1456.2656 82.681641 L 1456.2656 148.54492 L 1513.3066 181.47656 L 1570.3457 148.54492 L 1570.3457 82.681641 L 1513.3066 49.748047 z M 1636.0195 49.748047 L 1578.9805 82.681641 L 1578.9805 148.54492 L 1636.0195 181.47656 L 1693.0605 148.54492 L 1693.0605 82.681641 L 1636.0195 49.748047 z M 1758.7324 49.748047 L 1701.6934 82.681641 L 1701.6934 148.54492 L 1758.7324 181.47656 L 1815.7734 148.54492 L 1815.7734 82.681641 L 1758.7324 49.748047 z M 1881.4453 49.748047 L 1824.4062 82.681641 L 1824.4062 148.54492 L 1881.4453 181.47656 L 1938.4863 148.54492 L 1938.4863 82.681641 L 1881.4453 49.748047 z M 2004.1582 49.748047 L 1947.1191 82.681641 L 1947.1191 148.54492 L 2004.1582 181.47656 L 2061.1992 148.54492 L 2061.1992 82.681641 L 2004.1582 49.748047 z M 224.49609 156.04883 L 167.45703 188.98047 L 167.45703 254.84375 L 224.49805 287.77734 L 281.53711 254.84375 L 281.53711 188.98047 L 224.49609 156.04883 z M 347.21094 156.04883 L 290.16992 188.98047 L 290.16992 254.84375 L 347.21094 287.77734 L 404.25 254.84375 L 404.25 188.98047 L 347.21094 156.04883 z M 469.92383 156.04883 L 412.88281 188.98047 L 412.88281 254.84375 L 469.92383 287.77734 L 526.96289 254.84375 L 526.96289 188.98047 L 469.92383 156.04883 z M 592.63672 156.04883 L 535.5957 188.98047 L 535.5957 254.84375 L 592.63672 287.77734 L 649.67578 254.84375 L 649.67578 188.98047 L 592.63672 156.04883 z M 715.34961 156.04883 L 658.30859 188.98047 L 658.30859 254.84375 L 715.34961 287.77734 L 772.38867 254.84375 L 772.38867 188.98047 L 715.34961 156.04883 z M 838.0625 156.04883 L 781.02148 188.98047 L 781.02148 254.84375 L 838.0625 287.77734 L 895.10156 254.84375 L 895.10156 188.98047 L 838.0625 156.04883 z M 960.77539 156.04883 L 903.73633 188.98047 L 903.73633 254.84375 L 960.77539 287.77734 L 1017.8164 254.84375 L 1017.8164 188.98047 L 960.77539 156.04883 z M 1083.4883 156.04883 L 1026.4492 188.98047 L 1026.4492 254.84375 L 1083.4883 287.77734 L 1140.5293 254.84375 L 1140.5293 188.98047 L 1083.4883 156.04883 z M 1206.2012 156.04883 L 1149.1621 188.98047 L 1149.1621 254.84375 L 1206.2012 287.77734 L 1263.2422 254.84375 L 1263.2422 188.98047 L 1206.2012 156.04883 z M 1328.9141 156.04883 L 1271.875 188.98047 L 1271.875 254.84375 L 1328.9141 287.77734 L 1385.9551 254.84375 L 1385.9551 188.98047 L 1328.9141 156.04883 z M 1451.627 156.04883 L 1394.5879 188.98047 L 1394.5879 254.84375 L 1451.627 287.77734 L 1508.668 254.84375 L 1508.668 188.98047 L 1451.627 156.04883 z M 1574.3418 156.04883 L 1517.3008 188.98047 L 1517.3008 254.84375 L 1574.3418 287.77734 L 1631.3809 254.84375 L 1631.3809 188.98047 L 1574.3418 156.04883 z M 1697.0547 156.04883 L 1640.0137 188.98047 L 1640.0137 254.84375 L 1697.0547 287.77734 L 1754.0938 254.84375 L 1754.0938 188.98047 L 1697.0547 156.04883 z M 1819.7676 156.04883 L 1762.7266 188.98047 L 1762.7266 254.84375 L 1819.7676 287.77734 L 1876.8066 254.84375 L 1876.8066 188.98047 L 1819.7676 156.04883 z M 1942.4805 156.04883 L 1885.4395 188.98047 L 1885.4395 254.84375 L 1942.4805 287.77734 L 1999.5195 254.84375 L 1999.5195 188.98047 L 1942.4805 156.04883 z M 2065.1934 156.04883 L 2008.1523 188.98047 L 2008.1523 254.84375 L 2065.1934 287.77734 L 2122.2324 254.84375 L 2122.2324 188.98047 L 2065.1934 156.04883 z M 163.46289 262.34766 L 106.42188 295.2793 L 106.42188 361.14453 L 163.46289 394.07617 L 220.50195 361.14453 L 220.50195 295.2793 L 163.46289 262.34766 z M 286.17578 262.34766 L 229.13672 295.2793 L 229.13672 361.14453 L 286.17578 394.07617 L 343.21484 361.14453 L 343.21484 295.2793 L 286.17578 262.34766 z M 408.88867 262.34766 L 351.84961 295.2793 L 351.84961 361.14453 L 408.88867 394.07617 L 465.92969 361.14453 L 465.92969 295.2793 L 408.88867 262.34766 z M 531.60156 262.34766 L 474.5625 295.2793 L 474.5625 361.14453 L 531.60156 394.07617 L 588.64258 361.14453 L 588.64258 295.2793 L 531.60156 262.34766 z M 654.31445 262.34766 L 597.27539 295.2793 L 597.27539 361.14453 L 654.31445 394.07617 L 711.35547 361.14453 L 711.35547 295.2793 L 654.31445 262.34766 z M 777.02734 262.34766 L 719.98828 295.2793 L 719.98828 361.14453 L 777.02734 394.07617 L 834.06836 361.14453 L 834.06836 295.2793 L 777.02734 262.34766 z M 899.74023 262.34766 L 842.70117 295.2793 L 842.70117 361.14453 L 899.74219 394.07617 L 956.78125 361.14453 L 956.78125 295.2793 L 899.74023 262.34766 z M 1022.4551 262.34766 L 965.41406 295.2793 L 965.41406 361.14453 L 1022.4551 394.07617 L 1079.4941 361.14453 L 1079.4941 295.2793 L 1022.4551 262.34766 z M 1145.168 262.34766 L 1088.127 295.2793 L 1088.127 361.14453 L 1145.168 394.07617 L 1202.207 361.14453 L 1202.207 295.2793 L 1145.168 262.34766 z M 1267.8809 262.34766 L 1210.8398 295.2793 L 1210.8398 361.14453 L 1267.8809 394.07617 L 1324.9199 361.14453 L 1324.9199 295.2793 L 1267.8809 262.34766 z M 1390.5938 262.34766 L 1333.5527 295.2793 L 1333.5527 361.14453 L 1390.5938 394.07617 L 1447.6328 361.14453 L 1447.6328 295.2793 L 1390.5938 262.34766 z M 1513.3066 262.34766 L 1456.2656 295.2793 L 1456.2656 361.14453 L 1513.3066 394.07617 L 1570.3457 361.14453 L 1570.3457 295.2793 L 1513.3066 262.34766 z M 1636.0195 262.34766 L 1578.9805 295.2793 L 1578.9805 361.14453 L 1636.0195 394.07617 L 1693.0605 361.14453 L 1693.0605 295.2793 L 1636.0195 262.34766 z M 1758.7324 262.34766 L 1701.6934 295.2793 L 1701.6934 361.14453 L 1758.7324 394.07617 L 1815.7734 361.14453 L 1815.7734 295.2793 L 1758.7324 262.34766 z M 1881.4453 262.34766 L 1824.4062 295.2793 L 1824.4062 361.14453 L 1881.4453 394.07617 L 1938.4863 361.14453 L 1938.4863 295.2793 L 1881.4453 262.34766 z M 2004.1582 262.34766 L 1947.1191 295.2793 L 1947.1191 361.14453 L 2004.1582 394.07617 L 2061.1992 361.14453 L 2061.1992 295.2793 L 2004.1582 262.34766 z M 224.49609 368.64648 L 167.45703 401.57812 L 167.45703 467.44336 L 224.49805 500.375 L 281.53711 467.44336 L 281.53711 401.57812 L 224.49609 368.64648 z M 347.21094 368.64648 L 290.16992 401.57812 L 290.16992 467.44336 L 347.21094 500.375 L 404.25 467.44336 L 404.25 401.57812 L 347.21094 368.64648 z M 469.92383 368.64648 L 412.88281 401.57812 L 412.88281 467.44336 L 469.92383 500.375 L 526.96289 467.44336 L 526.96289 401.57812 L 469.92383 368.64648 z M 592.63672 368.64648 L 535.5957 401.57812 L 535.5957 467.44336 L 592.63672 500.375 L 649.67578 467.44336 L 649.67578 401.57812 L 592.63672 368.64648 z M 715.34961 368.64648 L 658.30859 401.57812 L 658.30859 467.44336 L 715.34961 500.375 L 772.38867 467.44336 L 772.38867 401.57812 L 715.34961 368.64648 z M 838.0625 368.64648 L 781.02148 401.57812 L 781.02148 467.44336 L 838.0625 500.375 L 895.10156 467.44336 L 895.10156 401.57812 L 838.0625 368.64648 z M 960.77539 368.64648 L 903.73633 401.57812 L 903.73633 467.44336 L 960.77539 500.375 L 1017.8164 467.44336 L 1017.8164 401.57812 L 960.77539 368.64648 z M 1083.4883 368.64648 L 1026.4492 401.57812 L 1026.4492 467.44336 L 1083.4883 500.375 L 1140.5293 467.44336 L 1140.5293 401.57812 L 1083.4883 368.64648 z M 1206.2012 368.64648 L 1149.1621 401.57812 L 1149.1621 467.44336 L 1206.2012 500.375 L 1263.2422 467.44336 L 1263.2422 401.57812 L 1206.2012 368.64648 z M 1328.9141 368.64648 L 1271.875 401.57812 L 1271.875 467.44336 L 1328.9141 500.375 L 1385.9551 467.44336 L 1385.9551 401.57812 L 1328.9141 368.64648 z M 1451.627 368.64648 L 1394.5879 401.57812 L 1394.5879 467.44336 L 1451.627 500.375 L 1508.668 467.44336 L 1508.668 401.57812 L 1451.627 368.64648 z M 1574.3418 368.64648 L 1517.3008 401.57812 L 1517.3008 467.44336 L 1574.3418 500.375 L 1631.3809 467.44336 L 1631.3809 401.57812 L 1574.3418 368.64648 z M 1697.0547 368.64648 L 1640.0137 401.57812 L 1640.0137 467.44336 L 1697.0547 500.375 L 1754.0938 467.44336 L 1754.0938 401.57812 L 1697.0547 368.64648 z M 1819.7676 368.64648 L 1762.7266 401.57812 L 1762.7266 467.44336 L 1819.7676 500.375 L 1876.8066 467.44336 L 1876.8066 401.57812 L 1819.7676 368.64648 z M 1942.4805 368.64648 L 1885.4395 401.57812 L 1885.4395 467.44336 L 1942.4805 500.375 L 1999.5195 467.44336 L 1999.5195 401.57812 L 1942.4805 368.64648 z M 2065.1934 368.64648 L 2008.1523 401.57812 L 2008.1523 467.44336 L 2065.1934 500.375 L 2122.2324 467.44336 L 2122.2324 401.57812 L 2065.1934 368.64648 z M 163.46289 474.94531 L 106.42188 507.87695 L 106.42188 573.74219 L 163.46289 606.67383 L 220.50195 573.74219 L 220.50195 507.87695 L 163.46289 474.94531 z M 286.17578 474.94531 L 229.13672 507.87695 L 229.13672 573.74219 L 286.17578 606.67383 L 343.21484 573.74219 L 343.21484 507.87695 L 286.17578 474.94531 z M 408.88867 474.94531 L 351.84961 507.87695 L 351.84961 573.74219 L 408.88867 606.67383 L 465.92969 573.74219 L 465.92969 507.87695 L 408.88867 474.94531 z M 531.60156 474.94531 L 474.5625 507.87695 L 474.5625 573.74219 L 531.60156 606.67383 L 588.64258 573.74219 L 588.64258 507.87695 L 531.60156 474.94531 z M 654.31445 474.94531 L 597.27539 507.87695 L 597.27539 573.74219 L 654.31445 606.67383 L 711.35547 573.74219 L 711.35547 507.87695 L 654.31445 474.94531 z M 777.02734 474.94531 L 719.98828 507.87695 L 719.98828 573.74219 L 777.02734 606.67383 L 834.06836 573.74219 L 834.06836 507.87695 L 777.02734 474.94531 z M 899.74023 474.94531 L 842.70117 507.87695 L 842.70117 573.74219 L 899.74219 606.67383 L 956.78125 573.74219 L 956.78125 507.87695 L 899.74023 474.94531 z M 1022.4551 474.94531 L 965.41406 507.87695 L 965.41406 573.74219 L 1022.4551 606.67383 L 1079.4941 573.74219 L 1079.4941 507.87695 L 1022.4551 474.94531 z M 1145.168 474.94531 L 1088.127 507.87695 L 1088.127 573.74219 L 1145.168 606.67383 L 1202.207 573.74219 L 1202.207 507.87695 L 1145.168 474.94531 z M 1267.8809 474.94531 L 1210.8398 507.87695 L 1210.8398 573.74219 L 1267.8809 606.67383 L 1324.9199 573.74219 L 1324.9199 507.87695 L 1267.8809 474.94531 z M 1390.5938 474.94531 L 1333.5527 507.87695 L 1333.5527 573.74219 L 1390.5938 606.67383 L 1447.6328 573.74219 L 1447.6328 507.87695 L 1390.5938 474.94531 z M 1513.3066 474.94531 L 1456.2656 507.87695 L 1456.2656 573.74219 L 1513.3066 606.67383 L 1570.3457 573.74219 L 1570.3457 507.87695 L 1513.3066 474.94531 z M 1636.0195 474.94531 L 1578.9805 507.87695 L 1578.9805 573.74219 L 1636.0195 606.67383 L 1693.0605 573.74219 L 1693.0605 507.87695 L 1636.0195 474.94531 z M 1758.7324 474.94531 L 1701.6934 507.87695 L 1701.6934 573.74219 L 1758.7324 606.67383 L 1815.7734 573.74219 L 1815.7734 507.87695 L 1758.7324 474.94531 z M 1881.4453 474.94531 L 1824.4062 507.87695 L 1824.4062 573.74219 L 1881.4453 606.67383 L 1938.4863 573.74219 L 1938.4863 507.87695 L 1881.4453 474.94531 z M 2004.1582 474.94531 L 1947.1191 507.87695 L 1947.1191 573.74219 L 2004.1582 606.67383 L 2061.1992 573.74219 L 2061.1992 507.87695 L 2004.1582 474.94531 z M 224.49609 581.24414 L 167.45703 614.17773 L 167.45703 680.04102 L 224.49805 712.97266 L 281.53711 680.04102 L 281.53711 614.17773 L 224.49609 581.24414 z M 347.21094 581.24414 L 290.16992 614.17773 L 290.16992 680.04102 L 347.21094 712.97266 L 404.25 680.04102 L 404.25 614.17773 L 347.21094 581.24414 z M 469.92383 581.24414 L 412.88281 614.17773 L 412.88281 680.04102 L 469.92383 712.97266 L 526.96289 680.04102 L 526.96289 614.17773 L 469.92383 581.24414 z M 592.63672 581.24414 L 535.5957 614.17773 L 535.5957 680.04102 L 592.63672 712.97266 L 649.67578 680.04102 L 649.67578 614.17773 L 592.63672 581.24414 z M 715.34961 581.24414 L 658.30859 614.17773 L 658.30859 680.04102 L 715.34961 712.97266 L 772.38867 680.04102 L 772.38867 614.17773 L 715.34961 581.24414 z M 838.0625 581.24414 L 781.02148 614.17773 L 781.02148 680.04102 L 838.0625 712.97266 L 895.10156 680.04102 L 895.10156 614.17773 L 838.0625 581.24414 z M 960.77539 581.24414 L 903.73633 614.17773 L 903.73633 680.04102 L 960.77539 712.97266 L 1017.8164 680.04102 L 1017.8164 614.17773 L 960.77539 581.24414 z M 1083.4883 581.24414 L 1026.4492 614.17773 L 1026.4492 680.04102 L 1083.4883 712.97266 L 1140.5293 680.04102 L 1140.5293 614.17773 L 1083.4883 581.24414 z M 1206.2012 581.24414 L 1149.1621 614.17773 L 1149.1621 680.04102 L 1206.2012 712.97266 L 1263.2422 680.04102 L 1263.2422 614.17773 L 1206.2012 581.24414 z M 1328.9141 581.24414 L 1271.875 614.17773 L 1271.875 680.04102 L 1328.9141 712.97266 L 1385.9551 680.04102 L 1385.9551 614.17773 L 1328.9141 581.24414 z M 1451.627 581.24414 L 1394.5879 614.17773 L 1394.5879 680.04102 L 1451.627 712.97266 L 1508.668 680.04102 L 1508.668 614.17773 L 1451.627 581.24414 z M 1574.3418 581.24414 L 1517.3008 614.17773 L 1517.3008 680.04102 L 1574.3418 712.97266 L 1631.3809 680.04102 L 1631.3809 614.17773 L 1574.3418 581.24414 z M 1697.0547 581.24414 L 1640.0137 614.17773 L 1640.0137 680.04102 L 1697.0547 712.97266 L 1754.0938 680.04102 L 1754.0938 614.17773 L 1697.0547 581.24414 z M 1819.7676 581.24414 L 1762.7266 614.17773 L 1762.7266 680.04102 L 1819.7676 712.97266 L 1876.8066 680.04102 L 1876.8066 614.17773 L 1819.7676 581.24414 z M 1942.4805 581.24414 L 1885.4395 614.17773 L 1885.4395 680.04102 L 1942.4805 712.97266 L 1999.5195 680.04102 L 1999.5195 614.17773 L 1942.4805 581.24414 z M 2065.1934 581.24414 L 2008.1523 614.17773 L 2008.1523 680.04102 L 2065.1934 712.97266 L 2122.2324 680.04102 L 2122.2324 614.17773 L 2065.1934 581.24414 z M 163.46289 687.54492 L 106.42188 720.47656 L 106.42188 786.33984 L 163.46289 819.27344 L 220.50195 786.33984 L 220.50195 720.47656 L 163.46289 687.54492 z M 286.17578 687.54492 L 229.13672 720.47656 L 229.13672 786.33984 L 286.17578 819.27344 L 343.21484 786.33984 L 343.21484 720.47656 L 286.17578 687.54492 z M 408.88867 687.54492 L 351.84961 720.47656 L 351.84961 786.33984 L 408.88867 819.27344 L 465.92969 786.33984 L 465.92969 720.47656 L 408.88867 687.54492 z M 531.60156 687.54492 L 474.5625 720.47656 L 474.5625 786.33984 L 531.60156 819.27344 L 588.64258 786.33984 L 588.64258 720.47656 L 531.60156 687.54492 z M 654.31445 687.54492 L 597.27539 720.47656 L 597.27539 786.33984 L 654.31445 819.27344 L 711.35547 786.33984 L 711.35547 720.47656 L 654.31445 687.54492 z M 777.02734 687.54492 L 719.98828 720.47656 L 719.98828 786.33984 L 777.02734 819.27344 L 834.06836 786.33984 L 834.06836 720.47656 L 777.02734 687.54492 z M 899.74023 687.54492 L 842.70117 720.47656 L 842.70117 786.33984 L 899.74219 819.27344 L 956.78125 786.33984 L 956.78125 720.47656 L 899.74023 687.54492 z M 1022.4551 687.54492 L 965.41406 720.47656 L 965.41406 786.33984 L 1022.4551 819.27344 L 1079.4941 786.33984 L 1079.4941 720.47656 L 1022.4551 687.54492 z M 1145.168 687.54492 L 1088.127 720.47656 L 1088.127 786.33984 L 1145.168 819.27344 L 1202.207 786.33984 L 1202.207 720.47656 L 1145.168 687.54492 z M 1267.8809 687.54492 L 1210.8398 720.47656 L 1210.8398 786.33984 L 1267.8809 819.27344 L 1324.9199 786.33984 L 1324.9199 720.47656 L 1267.8809 687.54492 z M 1390.5938 687.54492 L 1333.5527 720.47656 L 1333.5527 786.33984 L 1390.5938 819.27344 L 1447.6328 786.33984 L 1447.6328 720.47656 L 1390.5938 687.54492 z M 1513.3066 687.54492 L 1456.2656 720.47656 L 1456.2656 786.33984 L 1513.3066 819.27344 L 1570.3457 786.33984 L 1570.3457 720.47656 L 1513.3066 687.54492 z M 1636.0195 687.54492 L 1578.9805 720.47656 L 1578.9805 786.33984 L 1636.0195 819.27344 L 1693.0605 786.33984 L 1693.0605 720.47656 L 1636.0195 687.54492 z M 1758.7324 687.54492 L 1701.6934 720.47656 L 1701.6934 786.33984 L 1758.7324 819.27344 L 1815.7734 786.33984 L 1815.7734 720.47656 L 1758.7324 687.54492 z M 1881.4453 687.54492 L 1824.4062 720.47656 L 1824.4062 786.33984 L 1881.4453 819.27344 L 1938.4863 786.33984 L 1938.4863 720.47656 L 1881.4453 687.54492 z M 2004.1582 687.54492 L 1947.1191 720.47656 L 1947.1191 786.33984 L 2004.1582 819.27344 L 2061.1992 786.33984 L 2061.1992 720.47656 L 2004.1582 687.54492 z M 224.49609 793.84375 L 167.45703 826.77539 L 167.45703 892.64062 L 224.49805 925.57227 L 281.53711 892.64062 L 281.53711 826.77539 L 224.49609 793.84375 z M 347.21094 793.84375 L 290.16992 826.77539 L 290.16992 892.64062 L 347.21094 925.57227 L 404.25 892.64062 L 404.25 826.77539 L 347.21094 793.84375 z M 469.92383 793.84375 L 412.88281 826.77539 L 412.88281 892.64062 L 469.92383 925.57227 L 526.96289 892.64062 L 526.96289 826.77539 L 469.92383 793.84375 z M 592.63672 793.84375 L 535.5957 826.77539 L 535.5957 892.64062 L 592.63672 925.57227 L 649.67578 892.64062 L 649.67578 826.77539 L 592.63672 793.84375 z M 715.34961 793.84375 L 658.30859 826.77539 L 658.30859 892.64062 L 715.34961 925.57227 L 772.38867 892.64062 L 772.38867 826.77539 L 715.34961 793.84375 z M 838.0625 793.84375 L 781.02148 826.77539 L 781.02148 892.64062 L 838.0625 925.57227 L 895.10156 892.64062 L 895.10156 826.77539 L 838.0625 793.84375 z M 960.77539 793.84375 L 903.73633 826.77539 L 903.73633 892.64062 L 960.77539 925.57227 L 1017.8164 892.64062 L 1017.8164 826.77539 L 960.77539 793.84375 z M 1083.4883 793.84375 L 1026.4492 826.77539 L 1026.4492 892.64062 L 1083.4883 925.57227 L 1140.5293 892.64062 L 1140.5293 826.77539 L 1083.4883 793.84375 z M 1206.2012 793.84375 L 1149.1621 826.77539 L 1149.1621 892.64062 L 1206.2012 925.57227 L 1263.2422 892.64062 L 1263.2422 826.77539 L 1206.2012 793.84375 z M 1328.9141 793.84375 L 1271.875 826.77539 L 1271.875 892.64062 L 1328.9141 925.57227 L 1385.9551 892.64062 L 1385.9551 826.77539 L 1328.9141 793.84375 z M 1451.627 793.84375 L 1394.5879 826.77539 L 1394.5879 892.64062 L 1451.627 925.57227 L 1508.668 892.64062 L 1508.668 826.77539 L 1451.627 793.84375 z M 1574.3418 793.84375 L 1517.3008 826.77539 L 1517.3008 892.64062 L 1574.3418 925.57227 L 1631.3809 892.64062 L 1631.3809 826.77539 L 1574.3418 793.84375 z M 1697.0547 793.84375 L 1640.0137 826.77539 L 1640.0137 892.64062 L 1697.0547 925.57227 L 1754.0938 892.64062 L 1754.0938 826.77539 L 1697.0547 793.84375 z M 1819.7676 793.84375 L 1762.7266 826.77539 L 1762.7266 892.64062 L 1819.7676 925.57227 L 1876.8066 892.64062 L 1876.8066 826.77539 L 1819.7676 793.84375 z M 1942.4805 793.84375 L 1885.4395 826.77539 L 1885.4395 892.64062 L 1942.4805 925.57227 L 1999.5195 892.64062 L 1999.5195 826.77539 L 1942.4805 793.84375 z M 2065.1934 793.84375 L 2008.1523 826.77539 L 2008.1523 892.64062 L 2065.1934 925.57227 L 2122.2324 892.64062 L 2122.2324 826.77539 L 2065.1934 793.84375 z M 163.46289 900.14258 L 106.42188 933.07422 L 106.42188 998.93945 L 163.46289 1031.8711 L 220.50195 998.93945 L 220.50195 933.07422 L 163.46289 900.14258 z M 286.17578 900.14258 L 229.13672 933.07422 L 229.13672 998.93945 L 286.17578 1031.8711 L 343.21484 998.93945 L 343.21484 933.07422 L 286.17578 900.14258 z M 408.88867 900.14258 L 351.84961 933.07422 L 351.84961 998.93945 L 408.88867 1031.8711 L 465.92969 998.93945 L 465.92969 933.07422 L 408.88867 900.14258 z M 531.60156 900.14258 L 474.5625 933.07422 L 474.5625 998.93945 L 531.60156 1031.8711 L 588.64258 998.93945 L 588.64258 933.07422 L 531.60156 900.14258 z M 654.31445 900.14258 L 597.27539 933.07422 L 597.27539 998.93945 L 654.31445 1031.8711 L 711.35547 998.93945 L 711.35547 933.07422 L 654.31445 900.14258 z M 777.02734 900.14258 L 719.98828 933.07422 L 719.98828 998.93945 L 777.02734 1031.8711 L 834.06836 998.93945 L 834.06836 933.07422 L 777.02734 900.14258 z M 899.74023 900.14258 L 842.70117 933.07422 L 842.70117 998.93945 L 899.74219 1031.8711 L 956.78125 998.93945 L 956.78125 933.07422 L 899.74023 900.14258 z M 1022.4551 900.14258 L 965.41406 933.07422 L 965.41406 998.93945 L 1022.4551 1031.8711 L 1079.4941 998.93945 L 1079.4941 933.07422 L 1022.4551 900.14258 z M 1145.168 900.14258 L 1088.127 933.07422 L 1088.127 998.93945 L 1145.168 1031.8711 L 1202.207 998.93945 L 1202.207 933.07422 L 1145.168 900.14258 z M 1267.8809 900.14258 L 1210.8398 933.07422 L 1210.8398 998.93945 L 1267.8809 1031.8711 L 1324.9199 998.93945 L 1324.9199 933.07422 L 1267.8809 900.14258 z M 1390.5938 900.14258 L 1333.5527 933.07422 L 1333.5527 998.93945 L 1390.5938 1031.8711 L 1447.6328 998.93945 L 1447.6328 933.07422 L 1390.5938 900.14258 z M 1513.3066 900.14258 L 1456.2656 933.07422 L 1456.2656 998.93945 L 1513.3066 1031.8711 L 1570.3457 998.93945 L 1570.3457 933.07422 L 1513.3066 900.14258 z M 1636.0195 900.14258 L 1578.9805 933.07422 L 1578.9805 998.93945 L 1636.0195 1031.8711 L 1693.0605 998.93945 L 1693.0605 933.07422 L 1636.0195 900.14258 z M 1758.7324 900.14258 L 1701.6934 933.07422 L 1701.6934 998.93945 L 1758.7324 1031.8711 L 1815.7734 998.93945 L 1815.7734 933.07422 L 1758.7324 900.14258 z M 1881.4453 900.14258 L 1824.4062 933.07422 L 1824.4062 998.93945 L 1881.4453 1031.8711 L 1938.4863 998.93945 L 1938.4863 933.07422 L 1881.4453 900.14258 z M 2004.1582 900.14258 L 1947.1191 933.07422 L 1947.1191 998.93945 L 2004.1582 1031.8711 L 2061.1992 998.93945 L 2061.1992 933.07422 L 2004.1582 900.14258 z M 224.49609 1006.4414 L 167.45703 1039.373 L 167.45703 1105.2383 L 224.49805 1138.1699 L 281.53711 1105.2383 L 281.53711 1039.373 L 224.49609 1006.4414 z M 347.21094 1006.4414 L 290.16992 1039.373 L 290.16992 1105.2383 L 347.21094 1138.1699 L 404.25 1105.2383 L 404.25 1039.373 L 347.21094 1006.4414 z M 469.92383 1006.4414 L 412.88281 1039.373 L 412.88281 1105.2383 L 469.92383 1138.1699 L 526.96289 1105.2383 L 526.96289 1039.373 L 469.92383 1006.4414 z M 592.63672 1006.4414 L 535.5957 1039.373 L 535.5957 1105.2383 L 592.63672 1138.1699 L 649.67578 1105.2383 L 649.67578 1039.373 L 592.63672 1006.4414 z M 715.34961 1006.4414 L 658.30859 1039.373 L 658.30859 1105.2383 L 715.34961 1138.1699 L 772.38867 1105.2383 L 772.38867 1039.373 L 715.34961 1006.4414 z M 838.0625 1006.4414 L 781.02148 1039.373 L 781.02148 1105.2383 L 838.0625 1138.1699 L 895.10156 1105.2383 L 895.10156 1039.373 L 838.0625 1006.4414 z M 960.77539 1006.4414 L 903.73633 1039.373 L 903.73633 1105.2383 L 960.77539 1138.1699 L 1017.8164 1105.2383 L 1017.8164 1039.373 L 960.77539 1006.4414 z M 1083.4883 1006.4414 L 1026.4492 1039.373 L 1026.4492 1105.2383 L 1083.4883 1138.1699 L 1140.5293 1105.2383 L 1140.5293 1039.373 L 1083.4883 1006.4414 z M 1206.2012 1006.4414 L 1149.1621 1039.373 L 1149.1621 1105.2383 L 1206.2012 1138.1699 L 1263.2422 1105.2383 L 1263.2422 1039.373 L 1206.2012 1006.4414 z M 1328.9141 1006.4414 L 1271.875 1039.373 L 1271.875 1105.2383 L 1328.9141 1138.1699 L 1385.9551 1105.2383 L 1385.9551 1039.373 L 1328.9141 1006.4414 z M 1451.627 1006.4414 L 1394.5879 1039.373 L 1394.5879 1105.2383 L 1451.627 1138.1699 L 1508.668 1105.2383 L 1508.668 1039.373 L 1451.627 1006.4414 z M 1574.3418 1006.4414 L 1517.3008 1039.373 L 1517.3008 1105.2383 L 1574.3418 1138.1699 L 1631.3809 1105.2383 L 1631.3809 1039.373 L 1574.3418 1006.4414 z M 1697.0547 1006.4414 L 1640.0137 1039.373 L 1640.0137 1105.2383 L 1697.0547 1138.1699 L 1754.0938 1105.2383 L 1754.0938 1039.373 L 1697.0547 1006.4414 z M 1819.7676 1006.4414 L 1762.7266 1039.373 L 1762.7266 1105.2383 L 1819.7676 1138.1699 L 1876.8066 1105.2383 L 1876.8066 1039.373 L 1819.7676 1006.4414 z M 1942.4805 1006.4414 L 1885.4395 1039.373 L 1885.4395 1105.2383 L 1942.4805 1138.1699 L 1999.5195 1105.2383 L 1999.5195 1039.373 L 1942.4805 1006.4414 z M 2065.1934 1006.4414 L 2008.1523 1039.373 L 2008.1523 1105.2383 L 2065.1934 1138.1699 L 2122.2324 1105.2383 L 2122.2324 1039.373 L 2065.1934 1006.4414 z M 163.46289 1112.7402 L 106.42188 1145.6738 L 106.42188 1211.5371 L 163.46289 1244.4688 L 220.50195 1211.5371 L 220.50195 1145.6738 L 163.46289 1112.7402 z M 286.17578 1112.7402 L 229.13672 1145.6738 L 229.13672 1211.5371 L 286.17578 1244.4688 L 343.21484 1211.5371 L 343.21484 1145.6738 L 286.17578 1112.7402 z M 408.88867 1112.7402 L 351.84961 1145.6738 L 351.84961 1211.5371 L 408.88867 1244.4688 L 465.92969 1211.5371 L 465.92969 1145.6738 L 408.88867 1112.7402 z M 531.60156 1112.7402 L 474.5625 1145.6738 L 474.5625 1211.5371 L 531.60156 1244.4688 L 588.64258 1211.5371 L 588.64258 1145.6738 L 531.60156 1112.7402 z M 654.31445 1112.7402 L 597.27539 1145.6738 L 597.27539 1211.5371 L 654.31445 1244.4688 L 711.35547 1211.5371 L 711.35547 1145.6738 L 654.31445 1112.7402 z M 777.02734 1112.7402 L 719.98828 1145.6738 L 719.98828 1211.5371 L 777.02734 1244.4688 L 834.06836 1211.5371 L 834.06836 1145.6738 L 777.02734 1112.7402 z M 899.74023 1112.7402 L 842.70117 1145.6738 L 842.70117 1211.5371 L 899.74219 1244.4688 L 956.78125 1211.5371 L 956.78125 1145.6738 L 899.74023 1112.7402 z M 1022.4551 1112.7402 L 965.41406 1145.6738 L 965.41406 1211.5371 L 1022.4551 1244.4688 L 1079.4941 1211.5371 L 1079.4941 1145.6738 L 1022.4551 1112.7402 z M 1145.168 1112.7402 L 1088.127 1145.6738 L 1088.127 1211.5371 L 1145.168 1244.4688 L 1202.207 1211.5371 L 1202.207 1145.6738 L 1145.168 1112.7402 z M 1267.8809 1112.7402 L 1210.8398 1145.6738 L 1210.8398 1211.5371 L 1267.8809 1244.4688 L 1324.9199 1211.5371 L 1324.9199 1145.6738 L 1267.8809 1112.7402 z M 1390.5938 1112.7402 L 1333.5527 1145.6738 L 1333.5527 1211.5371 L 1390.5938 1244.4688 L 1447.6328 1211.5371 L 1447.6328 1145.6738 L 1390.5938 1112.7402 z M 1513.3066 1112.7402 L 1456.2656 1145.6738 L 1456.2656 1211.5371 L 1513.3066 1244.4688 L 1570.3457 1211.5371 L 1570.3457 1145.6738 L 1513.3066 1112.7402 z M 1636.0195 1112.7402 L 1578.9805 1145.6738 L 1578.9805 1211.5371 L 1636.0195 1244.4688 L 1693.0605 1211.5371 L 1693.0605 1145.6738 L 1636.0195 1112.7402 z M 1758.7324 1112.7402 L 1701.6934 1145.6738 L 1701.6934 1211.5371 L 1758.7324 1244.4688 L 1815.7734 1211.5371 L 1815.7734 1145.6738 L 1758.7324 1112.7402 z M 1881.4453 1112.7402 L 1824.4062 1145.6738 L 1824.4062 1211.5371 L 1881.4453 1244.4688 L 1938.4863 1211.5371 L 1938.4863 1145.6738 L 1881.4453 1112.7402 z M 2004.1582 1112.7402 L 1947.1191 1145.6738 L 1947.1191 1211.5371 L 2004.1582 1244.4688 L 2061.1992 1211.5371 L 2061.1992 1145.6738 L 2004.1582 1112.7402 z M 224.49609 1219.041 L 167.45703 1251.9727 L 167.45703 1317.8359 L 224.49805 1350.7695 L 281.53711 1317.8359 L 281.53711 1251.9727 L 224.49609 1219.041 z M 347.21094 1219.041 L 290.16992 1251.9727 L 290.16992 1317.8359 L 347.21094 1350.7695 L 404.25 1317.8359 L 404.25 1251.9727 L 347.21094 1219.041 z M 469.92383 1219.041 L 412.88281 1251.9727 L 412.88281 1317.8359 L 469.92383 1350.7695 L 526.96289 1317.8359 L 526.96289 1251.9727 L 469.92383 1219.041 z M 592.63672 1219.041 L 535.5957 1251.9727 L 535.5957 1317.8359 L 592.63672 1350.7695 L 649.67578 1317.8359 L 649.67578 1251.9727 L 592.63672 1219.041 z M 715.34961 1219.041 L 658.30859 1251.9727 L 658.30859 1317.8359 L 715.34961 1350.7695 L 772.38867 1317.8359 L 772.38867 1251.9727 L 715.34961 1219.041 z M 838.0625 1219.041 L 781.02148 1251.9727 L 781.02148 1317.8359 L 838.0625 1350.7695 L 895.10156 1317.8359 L 895.10156 1251.9727 L 838.0625 1219.041 z M 960.77539 1219.041 L 903.73633 1251.9727 L 903.73633 1317.8359 L 960.77539 1350.7695 L 1017.8164 1317.8359 L 1017.8164 1251.9727 L 960.77539 1219.041 z M 1083.4883 1219.041 L 1026.4492 1251.9727 L 1026.4492 1317.8359 L 1083.4883 1350.7695 L 1140.5293 1317.8359 L 1140.5293 1251.9727 L 1083.4883 1219.041 z M 1206.2012 1219.041 L 1149.1621 1251.9727 L 1149.1621 1317.8359 L 1206.2012 1350.7695 L 1263.2422 1317.8359 L 1263.2422 1251.9727 L 1206.2012 1219.041 z M 1328.9141 1219.041 L 1271.875 1251.9727 L 1271.875 1317.8359 L 1328.9141 1350.7695 L 1385.9551 1317.8359 L 1385.9551 1251.9727 L 1328.9141 1219.041 z M 1451.627 1219.041 L 1394.5879 1251.9727 L 1394.5879 1317.8359 L 1451.627 1350.7695 L 1508.668 1317.8359 L 1508.668 1251.9727 L 1451.627 1219.041 z M 1574.3418 1219.041 L 1517.3008 1251.9727 L 1517.3008 1317.8359 L 1574.3418 1350.7695 L 1631.3809 1317.8359 L 1631.3809 1251.9727 L 1574.3418 1219.041 z M 1697.0547 1219.041 L 1640.0137 1251.9727 L 1640.0137 1317.8359 L 1697.0547 1350.7695 L 1754.0938 1317.8359 L 1754.0938 1251.9727 L 1697.0547 1219.041 z M 1819.7676 1219.041 L 1762.7266 1251.9727 L 1762.7266 1317.8359 L 1819.7676 1350.7695 L 1876.8066 1317.8359 L 1876.8066 1251.9727 L 1819.7676 1219.041 z M 1942.4805 1219.041 L 1885.4395 1251.9727 L 1885.4395 1317.8359 L 1942.4805 1350.7695 L 1999.5195 1317.8359 L 1999.5195 1251.9727 L 1942.4805 1219.041 z M 2065.1934 1219.041 L 2008.1523 1251.9727 L 2008.1523 1317.8359 L 2065.1934 1350.7695 L 2122.2324 1317.8359 L 2122.2324 1251.9727 L 2065.1934 1219.041 z M 163.46289 1325.3398 L 106.42188 1358.2715 L 106.42188 1424.1367 L 163.46289 1457.0684 L 220.50195 1424.1367 L 220.50195 1358.2715 L 163.46289 1325.3398 z M 286.17578 1325.3398 L 229.13672 1358.2715 L 229.13672 1424.1367 L 286.17578 1457.0684 L 343.21484 1424.1367 L 343.21484 1358.2715 L 286.17578 1325.3398 z M 408.88867 1325.3398 L 351.84961 1358.2715 L 351.84961 1424.1367 L 408.88867 1457.0684 L 465.92969 1424.1367 L 465.92969 1358.2715 L 408.88867 1325.3398 z M 531.60156 1325.3398 L 474.5625 1358.2715 L 474.5625 1424.1367 L 531.60156 1457.0684 L 588.64258 1424.1367 L 588.64258 1358.2715 L 531.60156 1325.3398 z M 654.31445 1325.3398 L 597.27539 1358.2715 L 597.27539 1424.1367 L 654.31445 1457.0684 L 711.35547 1424.1367 L 711.35547 1358.2715 L 654.31445 1325.3398 z M 777.02734 1325.3398 L 719.98828 1358.2715 L 719.98828 1424.1367 L 777.02734 1457.0684 L 834.06836 1424.1367 L 834.06836 1358.2715 L 777.02734 1325.3398 z M 899.74023 1325.3398 L 842.70117 1358.2715 L 842.70117 1424.1367 L 899.74219 1457.0684 L 956.78125 1424.1367 L 956.78125 1358.2715 L 899.74023 1325.3398 z M 1022.4551 1325.3398 L 965.41406 1358.2715 L 965.41406 1424.1367 L 1022.4551 1457.0684 L 1079.4941 1424.1367 L 1079.4941 1358.2715 L 1022.4551 1325.3398 z M 1145.168 1325.3398 L 1088.127 1358.2715 L 1088.127 1424.1367 L 1145.168 1457.0684 L 1202.207 1424.1367 L 1202.207 1358.2715 L 1145.168 1325.3398 z M 1267.8809 1325.3398 L 1210.8398 1358.2715 L 1210.8398 1424.1367 L 1267.8809 1457.0684 L 1324.9199 1424.1367 L 1324.9199 1358.2715 L 1267.8809 1325.3398 z M 1390.5938 1325.3398 L 1333.5527 1358.2715 L 1333.5527 1424.1367 L 1390.5938 1457.0684 L 1447.6328 1424.1367 L 1447.6328 1358.2715 L 1390.5938 1325.3398 z M 1513.3066 1325.3398 L 1456.2656 1358.2715 L 1456.2656 1424.1367 L 1513.3066 1457.0684 L 1570.3457 1424.1367 L 1570.3457 1358.2715 L 1513.3066 1325.3398 z M 1636.0195 1325.3398 L 1578.9805 1358.2715 L 1578.9805 1424.1367 L 1636.0195 1457.0684 L 1693.0605 1424.1367 L 1693.0605 1358.2715 L 1636.0195 1325.3398 z M 1758.7324 1325.3398 L 1701.6934 1358.2715 L 1701.6934 1424.1367 L 1758.7324 1457.0684 L 1815.7734 1424.1367 L 1815.7734 1358.2715 L 1758.7324 1325.3398 z M 1881.4453 1325.3398 L 1824.4062 1358.2715 L 1824.4062 1424.1367 L 1881.4453 1457.0684 L 1938.4863 1424.1367 L 1938.4863 1358.2715 L 1881.4453 1325.3398 z M 2004.1582 1325.3398 L 1947.1191 1358.2715 L 1947.1191 1424.1367 L 2004.1582 1457.0684 L 2061.1992 1424.1367 L 2061.1992 1358.2715 L 2004.1582 1325.3398 z M 224.49609 1431.6387 L 167.45703 1464.5703 L 167.45703 1530.4355 L 224.49805 1563.3672 L 281.53711 1530.4355 L 281.53711 1464.5703 L 224.49609 1431.6387 z M 347.21094 1431.6387 L 290.16992 1464.5703 L 290.16992 1530.4355 L 347.21094 1563.3672 L 404.25 1530.4355 L 404.25 1464.5703 L 347.21094 1431.6387 z M 469.92383 1431.6387 L 412.88281 1464.5703 L 412.88281 1530.4355 L 469.92383 1563.3672 L 526.96289 1530.4355 L 526.96289 1464.5703 L 469.92383 1431.6387 z M 592.63672 1431.6387 L 535.5957 1464.5703 L 535.5957 1530.4355 L 592.63672 1563.3672 L 649.67578 1530.4355 L 649.67578 1464.5703 L 592.63672 1431.6387 z M 715.34961 1431.6387 L 658.30859 1464.5703 L 658.30859 1530.4355 L 715.34961 1563.3672 L 772.38867 1530.4355 L 772.38867 1464.5703 L 715.34961 1431.6387 z M 838.0625 1431.6387 L 781.02148 1464.5703 L 781.02148 1530.4355 L 838.0625 1563.3672 L 895.10156 1530.4355 L 895.10156 1464.5703 L 838.0625 1431.6387 z M 960.77539 1431.6387 L 903.73633 1464.5703 L 903.73633 1530.4355 L 960.77539 1563.3672 L 1017.8164 1530.4355 L 1017.8164 1464.5703 L 960.77539 1431.6387 z M 1083.4883 1431.6387 L 1026.4492 1464.5703 L 1026.4492 1530.4355 L 1083.4883 1563.3672 L 1140.5293 1530.4355 L 1140.5293 1464.5703 L 1083.4883 1431.6387 z M 1206.2012 1431.6387 L 1149.1621 1464.5703 L 1149.1621 1530.4355 L 1206.2012 1563.3672 L 1263.2422 1530.4355 L 1263.2422 1464.5703 L 1206.2012 1431.6387 z M 1328.9141 1431.6387 L 1271.875 1464.5703 L 1271.875 1530.4355 L 1328.9141 1563.3672 L 1385.9551 1530.4355 L 1385.9551 1464.5703 L 1328.9141 1431.6387 z M 1451.627 1431.6387 L 1394.5879 1464.5703 L 1394.5879 1530.4355 L 1451.627 1563.3672 L 1508.668 1530.4355 L 1508.668 1464.5703 L 1451.627 1431.6387 z M 1574.3418 1431.6387 L 1517.3008 1464.5703 L 1517.3008 1530.4355 L 1574.3418 1563.3672 L 1631.3809 1530.4355 L 1631.3809 1464.5703 L 1574.3418 1431.6387 z M 1697.0547 1431.6387 L 1640.0137 1464.5703 L 1640.0137 1530.4355 L 1697.0547 1563.3672 L 1754.0938 1530.4355 L 1754.0938 1464.5703 L 1697.0547 1431.6387 z M 1819.7676 1431.6387 L 1762.7266 1464.5703 L 1762.7266 1530.4355 L 1819.7676 1563.3672 L 1876.8066 1530.4355 L 1876.8066 1464.5703 L 1819.7676 1431.6387 z M 1942.4805 1431.6387 L 1885.4395 1464.5703 L 1885.4395 1530.4355 L 1942.4805 1563.3672 L 1999.5195 1530.4355 L 1999.5195 1464.5703 L 1942.4805 1431.6387 z M 2065.1934 1431.6387 L 2008.1523 1464.5703 L 2008.1523 1530.4355 L 2065.1934 1563.3672 L 2122.2324 1530.4355 L 2122.2324 1464.5703 L 2065.1934 1431.6387 z M 163.46289 1537.9375 L 106.42188 1570.8691 L 106.42188 1636.7344 L 163.46289 1669.666 L 220.50195 1636.7344 L 220.50195 1570.8691 L 163.46289 1537.9375 z M 286.17578 1537.9375 L 229.13672 1570.8691 L 229.13672 1636.7344 L 286.17578 1669.666 L 343.21484 1636.7344 L 343.21484 1570.8691 L 286.17578 1537.9375 z M 408.88867 1537.9375 L 351.84961 1570.8691 L 351.84961 1636.7344 L 408.88867 1669.666 L 465.92969 1636.7344 L 465.92969 1570.8691 L 408.88867 1537.9375 z M 531.60156 1537.9375 L 474.5625 1570.8691 L 474.5625 1636.7344 L 531.60156 1669.666 L 588.64258 1636.7344 L 588.64258 1570.8691 L 531.60156 1537.9375 z M 654.31445 1537.9375 L 597.27539 1570.8691 L 597.27539 1636.7344 L 654.31445 1669.666 L 711.35547 1636.7344 L 711.35547 1570.8691 L 654.31445 1537.9375 z M 777.02734 1537.9375 L 719.98828 1570.8691 L 719.98828 1636.7344 L 777.02734 1669.666 L 834.06836 1636.7344 L 834.06836 1570.8691 L 777.02734 1537.9375 z M 899.74023 1537.9375 L 842.70117 1570.8691 L 842.70117 1636.7344 L 899.74219 1669.666 L 956.78125 1636.7344 L 956.78125 1570.8691 L 899.74023 1537.9375 z M 1022.4551 1537.9375 L 965.41406 1570.8691 L 965.41406 1636.7344 L 1022.4551 1669.666 L 1079.4941 1636.7344 L 1079.4941 1570.8691 L 1022.4551 1537.9375 z M 1145.168 1537.9375 L 1088.127 1570.8691 L 1088.127 1636.7344 L 1145.168 1669.666 L 1202.207 1636.7344 L 1202.207 1570.8691 L 1145.168 1537.9375 z M 1267.8809 1537.9375 L 1210.8398 1570.8691 L 1210.8398 1636.7344 L 1267.8809 1669.666 L 1324.9199 1636.7344 L 1324.9199 1570.8691 L 1267.8809 1537.9375 z M 1390.5938 1537.9375 L 1333.5527 1570.8691 L 1333.5527 1636.7344 L 1390.5938 1669.666 L 1447.6328 1636.7344 L 1447.6328 1570.8691 L 1390.5938 1537.9375 z M 1513.3066 1537.9375 L 1456.2656 1570.8691 L 1456.2656 1636.7344 L 1513.3066 1669.666 L 1570.3457 1636.7344 L 1570.3457 1570.8691 L 1513.3066 1537.9375 z M 1636.0195 1537.9375 L 1578.9805 1570.8691 L 1578.9805 1636.7344 L 1636.0195 1669.666 L 1693.0605 1636.7344 L 1693.0605 1570.8691 L 1636.0195 1537.9375 z M 1758.7324 1537.9375 L 1701.6934 1570.8691 L 1701.6934 1636.7344 L 1758.7324 1669.666 L 1815.7734 1636.7344 L 1815.7734 1570.8691 L 1758.7324 1537.9375 z M 1881.4453 1537.9375 L 1824.4062 1570.8691 L 1824.4062 1636.7344 L 1881.4453 1669.666 L 1938.4863 1636.7344 L 1938.4863 1570.8691 L 1881.4453 1537.9375 z M 2004.1582 1537.9375 L 1947.1191 1570.8691 L 1947.1191 1636.7344 L 2004.1582 1669.666 L 2061.1992 1636.7344 L 2061.1992 1570.8691 L 2004.1582 1537.9375 z M 224.49609 1644.2363 L 167.45703 1677.1699 L 167.45703 1743.0332 L 224.49805 1775.9648 L 281.53711 1743.0332 L 281.53711 1677.1699 L 224.49609 1644.2363 z M 347.21094 1644.2363 L 290.16992 1677.1699 L 290.16992 1743.0332 L 347.21094 1775.9648 L 404.25 1743.0332 L 404.25 1677.1699 L 347.21094 1644.2363 z M 469.92383 1644.2363 L 412.88281 1677.1699 L 412.88281 1743.0332 L 469.92383 1775.9648 L 526.96289 1743.0332 L 526.96289 1677.1699 L 469.92383 1644.2363 z M 592.63672 1644.2363 L 535.5957 1677.1699 L 535.5957 1743.0332 L 592.63672 1775.9648 L 649.67578 1743.0332 L 649.67578 1677.1699 L 592.63672 1644.2363 z M 715.34961 1644.2363 L 658.30859 1677.1699 L 658.30859 1743.0332 L 715.34961 1775.9648 L 772.38867 1743.0332 L 772.38867 1677.1699 L 715.34961 1644.2363 z M 838.0625 1644.2363 L 781.02148 1677.1699 L 781.02148 1743.0332 L 838.0625 1775.9648 L 895.10156 1743.0332 L 895.10156 1677.1699 L 838.0625 1644.2363 z M 960.77539 1644.2363 L 903.73633 1677.1699 L 903.73633 1743.0332 L 960.77539 1775.9648 L 1017.8164 1743.0332 L 1017.8164 1677.1699 L 960.77539 1644.2363 z M 1083.4883 1644.2363 L 1026.4492 1677.1699 L 1026.4492 1743.0332 L 1083.4883 1775.9648 L 1140.5293 1743.0332 L 1140.5293 1677.1699 L 1083.4883 1644.2363 z M 1206.2012 1644.2363 L 1149.1621 1677.1699 L 1149.1621 1743.0332 L 1206.2012 1775.9648 L 1263.2422 1743.0332 L 1263.2422 1677.1699 L 1206.2012 1644.2363 z M 1328.9141 1644.2363 L 1271.875 1677.1699 L 1271.875 1743.0332 L 1328.9141 1775.9648 L 1385.9551 1743.0332 L 1385.9551 1677.1699 L 1328.9141 1644.2363 z M 1451.627 1644.2363 L 1394.5879 1677.1699 L 1394.5879 1743.0332 L 1451.627 1775.9648 L 1508.668 1743.0332 L 1508.668 1677.1699 L 1451.627 1644.2363 z M 1574.3418 1644.2363 L 1517.3008 1677.1699 L 1517.3008 1743.0332 L 1574.3418 1775.9648 L 1631.3809 1743.0332 L 1631.3809 1677.1699 L 1574.3418 1644.2363 z M 1697.0547 1644.2363 L 1640.0137 1677.1699 L 1640.0137 1743.0332 L 1697.0547 1775.9648 L 1754.0938 1743.0332 L 1754.0938 1677.1699 L 1697.0547 1644.2363 z M 1819.7676 1644.2363 L 1762.7266 1677.1699 L 1762.7266 1743.0332 L 1819.7676 1775.9648 L 1876.8066 1743.0332 L 1876.8066 1677.1699 L 1819.7676 1644.2363 z M 1942.4805 1644.2363 L 1885.4395 1677.1699 L 1885.4395 1743.0332 L 1942.4805 1775.9648 L 1999.5195 1743.0332 L 1999.5195 1677.1699 L 1942.4805 1644.2363 z M 2065.1934 1644.2363 L 2008.1523 1677.1699 L 2008.1523 1743.0332 L 2065.1934 1775.9648 L 2122.2324 1743.0332 L 2122.2324 1677.1699 L 2065.1934 1644.2363 z "
       transform="translate(0,-1052.362)"
       id="path10224" />
  </g>
</svg>
