<?xml version="1.0" encoding="UTF-8"?>

<svg xmlns="http://www.w3.org/2000/svg" version="1.1"
	width="594mm"
	height="420mm"
	viewBox="0 0 594 420">
	<!-- Working space 0 0 594 420 -->
	<defs>
		<radialGradient
			id="radialGradient3661"
			gradientUnits="userSpaceOnUse"
			cy="29.149"
			cx="282.65"
			gradientTransform="matrix(.14777 .23089 -.24680 .15795 -26.318 -62.617)"
			r="19.571">
				<stop stop-color="#71b2f8" offset="0"/>
				<stop stop-color="#002795" offset="1"/>
		</radialGradient>
		<radialGradient
			id="radialGradient3817"
			gradientUnits="userSpaceOnUse"
			cy="33.9"
			cx="270.58"
			gradientTransform="matrix(.26631 .065024 -.17931 .73438 -60.668 -36.938)"
			r="19.571">
				<stop stop-color="#ff6d0f" offset="0"/>
				<stop stop-color="#ff1000" offset="1"/>
		</radialGradient>
	</defs>
	<!-- Set display:none to hide FreeCAD Logo -->
	<g
		style="display:inline"
		id="freecad-logo"
		transform="translate(552, 380) scale(2)"
		fill-rule="evenodd"
		stroke-width=".45621">
		<path d="m0.22811 0.22835v13.256h2.9558v-5.1876h2.09v-2.0452h-2.09v-2.2075h5.1486v-3.8087l-8.1044-0.0075z"
			stroke="#370700"
			fill="url(#radialGradient3817)"/>
		<path d="m13.386 4.1792-1.7193 0.98645-0.75925-0.26348-0.72439-1.8513-1.1395 0.05988-0.51976 1.9144-0.72743 0.34835-1.8143-0.79367-0.76632 0.85156 0.98645 1.7193-0.26957 0.75702-1.8513 0.72439 0.065967 1.1417 1.9144 0.51976 0.34835 0.72743-0.79976 1.8121 0.85156 0.76632 1.7193-0.98645 0.76311 0.27179 0.7183 1.8491 1.1478-0.06375 0.51367-1.9166 0.72743-0.34835 1.8182 0.80198 0.76632-0.85156-0.98645-1.7193 0.2657-0.76533 1.8491-0.7183-0.05766-1.1456-1.9166-0.51367-0.34835-0.72743 0.7959-1.8204-0.85156-0.76632zm-2.5751 2.8195 0.35295 0.20478 0.30579 0.27725 0.24481 0.33087 0.17611 0.36787 0.10354 0.39656 0.01715 0.4064-0.0587 0.4063-0.13396 0.38571-0.2131 0.35681-0.26894 0.30192-0.33087 0.24481-0.36787 0.17611-0.39656 0.10354-0.40863 0.02325-0.4063-0.0587-0.38571-0.13396-0.35681-0.2131-0.2997-0.27503-0.24703-0.32478-0.17611-0.36787-0.10132-0.40264-0.02324-0.40863 0.05869-0.4063 0.13396-0.38571 0.21087-0.35072 0.27116-0.30801 0.33087-0.24481 0.36787-0.17611 0.40264-0.10132 0.40641-0.01715 0.4063 0.05869 0.38571 0.13396z" 
		stroke="#000137"
		fill="url(#radialGradient3661)"/>
	</g>
<g id="Ortho_0_0"
   transform="rotate(0,480,110) translate(480,110) scale(1,1)"
  >
<g   stroke="rgb(0, 0, 0)"
   stroke-width="0.35"
   stroke-linecap="butt"
   stroke-linejoin="miter"
   fill="none"
   transform="scale(1,-1)"
  >
<path id= "1" d=" M -103 103 L 103 103 " />
<path id= "2" d=" M -103 -7.45 L -103 103 " />
<path id= "3" d=" M 103 103 L 103 -103 " />
<path id= "4" d=" M -103 -7.45 L -7.45 -7.45 " />
<path id= "5" d=" M 103 -103 L -7.45 -103 " />
<path id= "6" d=" M -7.45 -7.45 L -7.45 -103 " />
<path id= "7" d=" M 4.5 -4.5 L 1.55 -4.5 " />
<path id= "8" d=" M 4.5 -1.55 L 4.5 -4.5 " />
<path id= "9" d=" M 1.55 -4.5 L 1.55 -1.55 " />
<path id= "10" d=" M 1.55 -1.55 L 4.5 -1.55 " />
<path id= "11" d=" M -1.475 -1.475 L -1.475 1.475 " />
<path id= "12" d=" M 1.475 -1.475 L -1.475 -1.475 " />
<path id= "13" d=" M -1.475 1.475 L 1.475 1.475 " />
<path id= "14" d=" M 1.475 1.475 L 1.475 -1.475 " />
<path id= "15" d=" M -4.5 -4.5 L -4.5 -1.55 " />
<path id= "16" d=" M -1.55 -4.5 L -4.5 -4.5 " />
<path id= "17" d=" M -4.5 -1.55 L -1.55 -1.55 " />
<path id= "18" d=" M -1.55 -1.55 L -1.55 -4.5 " />
<path id= "19" d=" M -52.875 97.025 L -42.675 97.025 " />
<path id= "20" d=" M -52.875 94.075 L -52.875 97.025 " />
<path id= "21" d=" M -42.675 94.075 L -52.875 94.075 " />
<path id= "22" d=" M -42.675 97.025 L -42.675 94.075 " />
<path id= "23" d=" M -1.55 -94 L -4.5 -94 " />
<path id= "24" d=" M -1.55 -91.05 L -1.55 -94 " />
<path id= "25" d=" M -4.5 -94 L -4.5 -91.05 " />
<path id= "26" d=" M -4.5 -91.05 L -1.55 -91.05 " />
<path id= "27" d=" M 1.55 -94 L 1.55 -91.05 " />
<path id= "28" d=" M 4.5 -94 L 1.55 -94 " />
<path id= "29" d=" M 1.55 -91.05 L 4.5 -91.05 " />
<path id= "30" d=" M 4.5 -91.05 L 4.5 -94 " />
<path id= "31" d=" M 1.475 -52.875 L -1.475 -52.875 " />
<path id= "32" d=" M 1.475 -42.675 L 1.475 -52.875 " />
<path id= "33" d=" M -1.475 -42.675 L 1.475 -42.675 " />
<path id= "34" d=" M -1.475 -52.875 L -1.475 -42.675 " />
<path id= "35" d=" M -84.05 11.5 L -84.05 84.05 " />
<path id= "36" d=" M 11.5 11.5 L -84.05 11.5 " />
<path id= "37" d=" M -84.05 84.05 L 84.05 84.05 " />
<path id= "38" d=" M 11.5 -84.05 L 11.5 11.5 " />
<path id= "39" d=" M 84.05 84.05 L 84.05 -84.05 " />
<path id= "40" d=" M 84.05 -84.05 L 11.5 -84.05 " />
<path id= "41" d=" M 91.05 91.05 L 91.05 94 " />
<path id= "42" d=" M 94 91.05 L 91.05 91.05 " />
<path id= "43" d=" M 91.05 94 L 94 94 " />
<path id= "44" d=" M 94 94 L 94 91.05 " />
<path id= "45" d=" M 91.05 -94 L 91.05 -91.05 " />
<path id= "46" d=" M 94 -94 L 91.05 -94 " />
<path id= "47" d=" M 91.05 -91.05 L 94 -91.05 " />
<path id= "48" d=" M 94 -91.05 L 94 -94 " />
<path id= "49" d=" M -97.1 100.05 L -97.1 97.1 " />
<path id= "50" d=" M -100.05 100.05 L -97.1 100.05 " />
<path id= "51" d=" M -97.1 97.1 L -100.05 97.1 " />
<path id= "52" d=" M -100.05 97.1 L -100.05 100.05 " />
<path id= "53" d=" M -100.05 94 L -97.1 94 " />
<path id= "54" d=" M -100.05 91.05 L -100.05 94 " />
<path id= "55" d=" M -97.1 94 L -97.1 91.05 " />
<path id= "56" d=" M -97.1 91.05 L -100.05 91.05 " />
<path id= "57" d=" M -97.025 94.075 L -97.025 97.025 " />
<path id= "58" d=" M -94.075 94.075 L -97.025 94.075 " />
<path id= "59" d=" M -97.025 97.025 L -94.075 97.025 " />
<path id= "60" d=" M -94.075 97.025 L -94.075 94.075 " />
<path id= "61" d=" M -94.075 -1.475 L -97.025 -1.475 " />
<path id= "62" d=" M -94.075 1.475 L -94.075 -1.475 " />
<path id= "63" d=" M -97.025 -1.475 L -97.025 1.475 " />
<path id= "64" d=" M -97.025 1.475 L -94.075 1.475 " />
<path id= "65" d=" M -94.075 42.675 L -97.025 42.675 " />
<path id= "66" d=" M -94.075 52.875 L -94.075 42.675 " />
<path id= "67" d=" M -97.025 52.875 L -94.075 52.875 " />
<path id= "68" d=" M -97.025 42.675 L -97.025 52.875 " />
<path id= "69" d=" M -97.1 1.55 L -100.05 1.55 " />
<path id= "70" d=" M -97.1 4.5 L -97.1 1.55 " />
<path id= "71" d=" M -100.05 1.55 L -100.05 4.5 " />
<path id= "72" d=" M -100.05 4.5 L -97.1 4.5 " />
<path id= "73" d=" M -94 100.05 L -91.05 100.05 " />
<path id= "74" d=" M -94 97.1 L -94 100.05 " />
<path id= "75" d=" M -91.05 100.05 L -91.05 97.1 " />
<path id= "76" d=" M -91.05 97.1 L -94 97.1 " />
<path id= "77" d=" M -94 91.05 L -94 94 " />
<path id= "78" d=" M -91.05 91.05 L -94 91.05 " />
<path id= "79" d=" M -94 94 L -91.05 94 " />
<path id= "80" d=" M -91.05 94 L -91.05 91.05 " />
<path id= "81" d=" M -94 1.55 L -94 4.5 " />
<path id= "82" d=" M -91.05 1.55 L -94 1.55 " />
<path id= "83" d=" M -94 4.5 L -91.05 4.5 " />
<path id= "84" d=" M -91.05 4.5 L -91.05 1.55 " />
<path id= "85" d=" M -52.875 -1.475 L -52.875 1.475 " />
<path id= "86" d=" M -42.675 -1.475 L -52.875 -1.475 " />
<path id= "87" d=" M -42.675 1.475 L -42.675 -1.475 " />
<path id= "88" d=" M -52.875 1.475 L -42.675 1.475 " />
<path id= "89" d=" M 91.05 100.05 L 94 100.05 " />
<path id= "90" d=" M 91.05 97.1 L 91.05 100.05 " />
<path id= "91" d=" M 94 100.05 L 94 97.1 " />
<path id= "92" d=" M 94 97.1 L 91.05 97.1 " />
<path id= "93" d=" M 52.875 97.025 L 52.875 94.075 " />
<path id= "94" d=" M 42.675 97.025 L 52.875 97.025 " />
<path id= "95" d=" M 42.675 94.075 L 42.675 97.025 " />
<path id= "96" d=" M 52.875 94.075 L 42.675 94.075 " />
<path id= "97" d=" M 1.55 1.55 L 1.55 4.5 " />
<path id= "98" d=" M 4.5 1.55 L 1.55 1.55 " />
<path id= "99" d=" M 1.55 4.5 L 4.5 4.5 " />
<path id= "100" d=" M 4.5 4.5 L 4.5 1.55 " />
<path id= "101" d=" M -4.5 4.5 L -1.55 4.5 " />
<path id= "102" d=" M -4.5 1.55 L -4.5 4.5 " />
<path id= "103" d=" M -1.55 4.5 L -1.55 1.55 " />
<path id= "104" d=" M -1.55 1.55 L -4.5 1.55 " />
<path id= "105" d=" M -100.05 -4.5 L -100.05 -1.55 " />
<path id= "106" d=" M -97.1 -4.5 L -100.05 -4.5 " />
<path id= "107" d=" M -100.05 -1.55 L -97.1 -1.55 " />
<path id= "108" d=" M -97.1 -1.55 L -97.1 -4.5 " />
<path id= "109" d=" M -91.05 -1.55 L -91.05 -4.5 " />
<path id= "110" d=" M -94 -1.55 L -91.05 -1.55 " />
<path id= "111" d=" M -91.05 -4.5 L -94 -4.5 " />
<path id= "112" d=" M -94 -4.5 L -94 -1.55 " />
<path id= "113" d=" M 97.1 94 L 100.05 94 " />
<path id= "114" d=" M 97.1 91.05 L 97.1 94 " />
<path id= "115" d=" M 100.05 94 L 100.05 91.05 " />
<path id= "116" d=" M 100.05 91.05 L 97.1 91.05 " />
<path id= "117" d=" M 94.075 97.025 L 97.025 97.025 " />
<path id= "118" d=" M 94.075 94.075 L 94.075 97.025 " />
<path id= "119" d=" M 97.025 97.025 L 97.025 94.075 " />
<path id= "120" d=" M 97.025 94.075 L 94.075 94.075 " />
<path id= "121" d=" M 94.075 52.875 L 97.025 52.875 " />
<path id= "122" d=" M 94.075 42.675 L 94.075 52.875 " />
<path id= "123" d=" M 97.025 42.675 L 94.075 42.675 " />
<path id= "124" d=" M 97.025 52.875 L 97.025 42.675 " />
<path id= "125" d=" M 94.075 -52.875 L 94.075 -42.675 " />
<path id= "126" d=" M 97.025 -52.875 L 94.075 -52.875 " />
<path id= "127" d=" M 97.025 -42.675 L 97.025 -52.875 " />
<path id= "128" d=" M 94.075 -42.675 L 97.025 -42.675 " />
<path id= "129" d=" M 100.05 100.05 L 100.05 97.1 " />
<path id= "130" d=" M 97.1 100.05 L 100.05 100.05 " />
<path id= "131" d=" M 100.05 97.1 L 97.1 97.1 " />
<path id= "132" d=" M 97.1 97.1 L 97.1 100.05 " />
<path id= "133" d=" M 97.1 -94 L 97.1 -91.05 " />
<path id= "134" d=" M 100.05 -94 L 97.1 -94 " />
<path id= "135" d=" M 97.1 -91.05 L 100.05 -91.05 " />
<path id= "136" d=" M 100.05 -91.05 L 100.05 -94 " />
<path id= "137" d=" M 94.075 -94.075 L 97.025 -94.075 " />
<path id= "138" d=" M 94.075 -97.025 L 94.075 -94.075 " />
<path id= "139" d=" M 97.025 -94.075 L 97.025 -97.025 " />
<path id= "140" d=" M 97.025 -97.025 L 94.075 -97.025 " />
<path id= "141" d=" M 42.675 -97.025 L 42.675 -94.075 " />
<path id= "142" d=" M 52.875 -97.025 L 42.675 -97.025 " />
<path id= "143" d=" M 52.875 -94.075 L 52.875 -97.025 " />
<path id= "144" d=" M 42.675 -94.075 L 52.875 -94.075 " />
<path id= "145" d=" M 1.475 -94.075 L 1.475 -97.025 " />
<path id= "146" d=" M -1.475 -94.075 L 1.475 -94.075 " />
<path id= "147" d=" M 1.475 -97.025 L -1.475 -97.025 " />
<path id= "148" d=" M -1.475 -97.025 L -1.475 -94.075 " />
<path id= "149" d=" M -1.55 -97.1 L -1.55 -100.05 " />
<path id= "150" d=" M -4.5 -97.1 L -1.55 -97.1 " />
<path id= "151" d=" M -1.55 -100.05 L -4.5 -100.05 " />
<path id= "152" d=" M -4.5 -100.05 L -4.5 -97.1 " />
<path id= "153" d=" M 4.5 -100.05 L 1.55 -100.05 " />
<path id= "154" d=" M 4.5 -97.1 L 4.5 -100.05 " />
<path id= "155" d=" M 1.55 -100.05 L 1.55 -97.1 " />
<path id= "156" d=" M 1.55 -97.1 L 4.5 -97.1 " />
<path id= "157" d=" M 97.1 -97.1 L 100.05 -97.1 " />
<path id= "158" d=" M 97.1 -100.05 L 97.1 -97.1 " />
<path id= "159" d=" M 100.05 -97.1 L 100.05 -100.05 " />
<path id= "160" d=" M 100.05 -100.05 L 97.1 -100.05 " />
<path id= "161" d=" M 91.05 -97.1 L 94 -97.1 " />
<path id= "162" d=" M 91.05 -100.05 L 91.05 -97.1 " />
<path id= "163" d=" M 94 -97.1 L 94 -100.05 " />
<path id= "164" d=" M 94 -100.05 L 91.05 -100.05 " />
<path id= "165" d=" M -84.05 11.5 L -84.05 84.05 " />
</g>
</g>



<g id="Ortho_0_001"
   transform="rotate(0,110.646,101.075) translate(110.646,101.075) scale(1,1)"
  >
<g   stroke="rgb(0, 0, 0)"
   stroke-width="0.35"
   stroke-linecap="butt"
   stroke-linejoin="miter"
   fill="none"
   transform="scale(1,-1)"
  >
<path id= "1" d=" M -103.646 94.075 L 102.354 94.075 " />
<path id= "2" d=" M -103.646 -16.375 L -103.646 94.075 " />
<path id= "3" d=" M 102.354 94.075 L 102.354 -111.925 " />
<path id= "4" d=" M -103.646 -16.375 L -8.09639 -16.375 " />
<path id= "5" d=" M 102.354 -111.925 L -8.09639 -111.925 " />
<path id= "6" d=" M -8.09639 -16.375 L -8.09639 -111.925 " />
<path id= "7" d=" M 3.85361 -13.425 L 0.903607 -13.425 " />
<path id= "8" d=" M 3.85361 -10.475 L 3.85361 -13.425 " />
<path id= "9" d=" M 0.903607 -13.425 L 0.903607 -10.475 " />
<path id= "10" d=" M 0.903607 -10.475 L 3.85361 -10.475 " />
<path id= "11" d=" M -2.12139 -10.4 L -2.12139 -7.45 " />
<path id= "12" d=" M 0.828607 -10.4 L -2.12139 -10.4 " />
<path id= "13" d=" M -2.12139 -7.45 L 0.828607 -7.45 " />
<path id= "14" d=" M 0.828607 -7.45 L 0.828607 -10.4 " />
<path id= "15" d=" M -5.14639 -13.425 L -5.14639 -10.475 " />
<path id= "16" d=" M -2.19639 -13.425 L -5.14639 -13.425 " />
<path id= "17" d=" M -5.14639 -10.475 L -2.19639 -10.475 " />
<path id= "18" d=" M -2.19639 -10.475 L -2.19639 -13.425 " />
<path id= "19" d=" M -53.5214 -10.4 L -53.5214 -7.45 " />
<path id= "20" d=" M -43.3214 -10.4 L -53.5214 -10.4 " />
<path id= "21" d=" M -43.3214 -7.45 L -43.3214 -10.4 " />
<path id= "22" d=" M -53.5214 -7.45 L -43.3214 -7.45 " />
<path id= "23" d=" M -43.3214 88.1 L -43.3214 85.15 " />
<path id= "24" d=" M -53.5214 88.1 L -43.3214 88.1 " />
<path id= "25" d=" M -53.5214 85.15 L -53.5214 88.1 " />
<path id= "26" d=" M -43.3214 85.15 L -53.5214 85.15 " />
<path id= "27" d=" M -2.19639 -102.925 L -5.14639 -102.925 " />
<path id= "28" d=" M -2.19639 -99.975 L -2.19639 -102.925 " />
<path id= "29" d=" M -5.14639 -102.925 L -5.14639 -99.975 " />
<path id= "30" d=" M -5.14639 -99.975 L -2.19639 -99.975 " />
<path id= "31" d=" M 0.903607 -102.925 L 0.903607 -99.975 " />
<path id= "32" d=" M 3.85361 -102.925 L 0.903607 -102.925 " />
<path id= "33" d=" M 0.903607 -99.975 L 3.85361 -99.975 " />
<path id= "34" d=" M 3.85361 -99.975 L 3.85361 -102.925 " />
<path id= "35" d=" M 0.828607 -51.6 L 0.828607 -61.8 " />
<path id= "36" d=" M -2.12139 -51.6 L 0.828607 -51.6 " />
<path id= "37" d=" M -2.12139 -61.8 L -2.12139 -51.6 " />
<path id= "38" d=" M 0.828607 -61.8 L -2.12139 -61.8 " />
<path id= "39" d=" M -83.6964 3.575 L -83.6964 74.125 " />
<path id= "40" d=" M 11.8536 3.575 L -83.6964 3.575 " />
<path id= "41" d=" M -83.6964 74.125 L 82.4036 74.125 " />
<path id= "42" d=" M 11.8536 -91.975 L 11.8536 3.575 " />
<path id= "43" d=" M 82.4036 74.125 L 82.4036 -91.975 " />
<path id= "44" d=" M 82.4036 -91.975 L 11.8536 -91.975 " />
<path id= "45" d=" M 90.4036 82.125 L 90.4036 85.075 " />
<path id= "46" d=" M 93.3536 82.125 L 90.4036 82.125 " />
<path id= "47" d=" M 90.4036 85.075 L 93.3536 85.075 " />
<path id= "48" d=" M 93.3536 85.075 L 93.3536 82.125 " />
<path id= "49" d=" M 42.0286 85.15 L 42.0286 88.1 " />
<path id= "50" d=" M 52.2286 85.15 L 42.0286 85.15 " />
<path id= "51" d=" M 52.2286 88.1 L 52.2286 85.15 " />
<path id= "52" d=" M 42.0286 88.1 L 52.2286 88.1 " />
<path id= "53" d=" M 90.4036 -102.925 L 90.4036 -99.975 " />
<path id= "54" d=" M 93.3536 -102.925 L 90.4036 -102.925 " />
<path id= "55" d=" M 90.4036 -99.975 L 93.3536 -99.975 " />
<path id= "56" d=" M 93.3536 -99.975 L 93.3536 -102.925 " />
<path id= "57" d=" M -97.7464 91.125 L -97.7464 88.175 " />
<path id= "58" d=" M -100.696 91.125 L -97.7464 91.125 " />
<path id= "59" d=" M -97.7464 88.175 L -100.696 88.175 " />
<path id= "60" d=" M -100.696 88.175 L -100.696 91.125 " />
<path id= "61" d=" M -100.696 85.075 L -97.7464 85.075 " />
<path id= "62" d=" M -100.696 82.125 L -100.696 85.075 " />
<path id= "63" d=" M -97.7464 85.075 L -97.7464 82.125 " />
<path id= "64" d=" M -97.7464 82.125 L -100.696 82.125 " />
<path id= "65" d=" M -97.6714 85.15 L -97.6714 88.1 " />
<path id= "66" d=" M -94.7214 85.15 L -97.6714 85.15 " />
<path id= "67" d=" M -97.6714 88.1 L -94.7214 88.1 " />
<path id= "68" d=" M -94.7214 88.1 L -94.7214 85.15 " />
<path id= "69" d=" M -94.7214 -10.4 L -97.6714 -10.4 " />
<path id= "70" d=" M -94.7214 -7.45 L -94.7214 -10.4 " />
<path id= "71" d=" M -97.6714 -10.4 L -97.6714 -7.45 " />
<path id= "72" d=" M -97.6714 -7.45 L -94.7214 -7.45 " />
<path id= "73" d=" M -94.7214 43.95 L -94.7214 33.75 " />
<path id= "74" d=" M -97.6714 43.95 L -94.7214 43.95 " />
<path id= "75" d=" M -97.6714 33.75 L -97.6714 43.95 " />
<path id= "76" d=" M -94.7214 33.75 L -97.6714 33.75 " />
<path id= "77" d=" M -97.7464 -7.375 L -100.696 -7.375 " />
<path id= "78" d=" M -97.7464 -4.425 L -97.7464 -7.375 " />
<path id= "79" d=" M -100.696 -7.375 L -100.696 -4.425 " />
<path id= "80" d=" M -100.696 -4.425 L -97.7464 -4.425 " />
<path id= "81" d=" M -94.6464 91.125 L -91.6964 91.125 " />
<path id= "82" d=" M -94.6464 88.175 L -94.6464 91.125 " />
<path id= "83" d=" M -91.6964 91.125 L -91.6964 88.175 " />
<path id= "84" d=" M -91.6964 88.175 L -94.6464 88.175 " />
<path id= "85" d=" M -94.6464 82.125 L -94.6464 85.075 " />
<path id= "86" d=" M -91.6964 82.125 L -94.6464 82.125 " />
<path id= "87" d=" M -94.6464 85.075 L -91.6964 85.075 " />
<path id= "88" d=" M -91.6964 85.075 L -91.6964 82.125 " />
<path id= "89" d=" M -94.6464 -7.375 L -94.6464 -4.425 " />
<path id= "90" d=" M -91.6964 -7.375 L -94.6464 -7.375 " />
<path id= "91" d=" M -94.6464 -4.425 L -91.6964 -4.425 " />
<path id= "92" d=" M -91.6964 -4.425 L -91.6964 -7.375 " />
<path id= "93" d=" M 90.4036 91.125 L 93.3536 91.125 " />
<path id= "94" d=" M 90.4036 88.175 L 90.4036 91.125 " />
<path id= "95" d=" M 93.3536 91.125 L 93.3536 88.175 " />
<path id= "96" d=" M 93.3536 88.175 L 90.4036 88.175 " />
<path id= "97" d=" M 0.903607 -7.375 L 0.903607 -4.425 " />
<path id= "98" d=" M 3.85361 -7.375 L 0.903607 -7.375 " />
<path id= "99" d=" M 0.903607 -4.425 L 3.85361 -4.425 " />
<path id= "100" d=" M 3.85361 -4.425 L 3.85361 -7.375 " />
<path id= "101" d=" M -5.14639 -4.425 L -2.19639 -4.425 " />
<path id= "102" d=" M -5.14639 -7.375 L -5.14639 -4.425 " />
<path id= "103" d=" M -2.19639 -4.425 L -2.19639 -7.375 " />
<path id= "104" d=" M -2.19639 -7.375 L -5.14639 -7.375 " />
<path id= "105" d=" M -100.696 -13.425 L -100.696 -10.475 " />
<path id= "106" d=" M -97.7464 -13.425 L -100.696 -13.425 " />
<path id= "107" d=" M -100.696 -10.475 L -97.7464 -10.475 " />
<path id= "108" d=" M -97.7464 -10.475 L -97.7464 -13.425 " />
<path id= "109" d=" M -91.6964 -10.475 L -91.6964 -13.425 " />
<path id= "110" d=" M -94.6464 -10.475 L -91.6964 -10.475 " />
<path id= "111" d=" M -91.6964 -13.425 L -94.6464 -13.425 " />
<path id= "112" d=" M -94.6464 -13.425 L -94.6464 -10.475 " />
<path id= "113" d=" M 96.4536 85.075 L 99.4036 85.075 " />
<path id= "114" d=" M 96.4536 82.125 L 96.4536 85.075 " />
<path id= "115" d=" M 99.4036 85.075 L 99.4036 82.125 " />
<path id= "116" d=" M 99.4036 82.125 L 96.4536 82.125 " />
<path id= "117" d=" M 93.4286 88.1 L 96.3786 88.1 " />
<path id= "118" d=" M 93.4286 85.15 L 93.4286 88.1 " />
<path id= "119" d=" M 96.3786 88.1 L 96.3786 85.15 " />
<path id= "120" d=" M 96.3786 85.15 L 93.4286 85.15 " />
<path id= "121" d=" M 93.4286 43.95 L 96.3786 43.95 " />
<path id= "122" d=" M 93.4286 33.75 L 93.4286 43.95 " />
<path id= "123" d=" M 96.3786 33.75 L 93.4286 33.75 " />
<path id= "124" d=" M 96.3786 43.95 L 96.3786 33.75 " />
<path id= "125" d=" M 93.4286 -61.8 L 93.4286 -51.6 " />
<path id= "126" d=" M 96.3786 -61.8 L 93.4286 -61.8 " />
<path id= "127" d=" M 96.3786 -51.6 L 96.3786 -61.8 " />
<path id= "128" d=" M 93.4286 -51.6 L 96.3786 -51.6 " />
<path id= "129" d=" M 99.4036 91.125 L 99.4036 88.175 " />
<path id= "130" d=" M 96.4536 91.125 L 99.4036 91.125 " />
<path id= "131" d=" M 99.4036 88.175 L 96.4536 88.175 " />
<path id= "132" d=" M 96.4536 88.175 L 96.4536 91.125 " />
<path id= "133" d=" M 96.4536 -102.925 L 96.4536 -99.975 " />
<path id= "134" d=" M 99.4036 -102.925 L 96.4536 -102.925 " />
<path id= "135" d=" M 96.4536 -99.975 L 99.4036 -99.975 " />
<path id= "136" d=" M 99.4036 -99.975 L 99.4036 -102.925 " />
<path id= "137" d=" M 93.4286 -103 L 96.3786 -103 " />
<path id= "138" d=" M 93.4286 -105.95 L 93.4286 -103 " />
<path id= "139" d=" M 96.3786 -103 L 96.3786 -105.95 " />
<path id= "140" d=" M 96.3786 -105.95 L 93.4286 -105.95 " />
<path id= "141" d=" M 52.2286 -103 L 52.2286 -105.95 " />
<path id= "142" d=" M 42.0286 -103 L 52.2286 -103 " />
<path id= "143" d=" M 42.0286 -105.95 L 42.0286 -103 " />
<path id= "144" d=" M 52.2286 -105.95 L 42.0286 -105.95 " />
<path id= "145" d=" M 0.828607 -103 L 0.828607 -105.95 " />
<path id= "146" d=" M -2.12139 -103 L 0.828607 -103 " />
<path id= "147" d=" M 0.828607 -105.95 L -2.12139 -105.95 " />
<path id= "148" d=" M -2.12139 -105.95 L -2.12139 -103 " />
<path id= "149" d=" M -2.19639 -106.025 L -2.19639 -108.975 " />
<path id= "150" d=" M -5.14639 -106.025 L -2.19639 -106.025 " />
<path id= "151" d=" M -2.19639 -108.975 L -5.14639 -108.975 " />
<path id= "152" d=" M -5.14639 -108.975 L -5.14639 -106.025 " />
<path id= "153" d=" M 3.85361 -108.975 L 0.903607 -108.975 " />
<path id= "154" d=" M 3.85361 -106.025 L 3.85361 -108.975 " />
<path id= "155" d=" M 0.903607 -108.975 L 0.903607 -106.025 " />
<path id= "156" d=" M 0.903607 -106.025 L 3.85361 -106.025 " />
<path id= "157" d=" M 96.4536 -106.025 L 99.4036 -106.025 " />
<path id= "158" d=" M 96.4536 -108.975 L 96.4536 -106.025 " />
<path id= "159" d=" M 99.4036 -106.025 L 99.4036 -108.975 " />
<path id= "160" d=" M 99.4036 -108.975 L 96.4536 -108.975 " />
<path id= "161" d=" M 90.4036 -106.025 L 93.3536 -106.025 " />
<path id= "162" d=" M 90.4036 -108.975 L 90.4036 -106.025 " />
<path id= "163" d=" M 93.3536 -106.025 L 93.3536 -108.975 " />
<path id= "164" d=" M 93.3536 -108.975 L 90.4036 -108.975 " />
</g>
</g>



<g id="Ortho_0_002"
   transform="rotate(90,253.45,75.5) translate(253.45,75.5) scale(1,1)"
  >
<g   stroke="rgb(0, 0, 0)"
   stroke-width="0.35"
   stroke-linecap="butt"
   stroke-linejoin="miter"
   fill="none"
   transform="scale(1,-1)"
  >
<path id= "1" d=" M -16 -36.75 L -3 -36.75 " />
<path id= "2" d=" M -29 -36.75 L -16 -36.75 " />
<path id= "3" d=" M -42 -36.75 L -29 -36.75 " />
<path id= "4" d=" M -55 -36.75 L -42 -36.75 " />
<path id= "5" d=" M -55 -36.75 L -68 -36.75 " />
<path id= "6" d=" M -68 -36.75 L -68 1.55 " />
<path id= "7" d=" M -68 11.55 L -68 1.55 " />
<path id= "8" d=" M -68 11.55 L -68 49.85 " />
<path id= "9" d=" M -55 49.85 L -68 49.85 " />
<path id= "10" d=" M -42 49.85 L -55 49.85 " />
<path id= "11" d=" M -29 49.85 L -42 49.85 " />
<path id= "12" d=" M -16 49.85 L -29 49.85 " />
<path id= "13" d=" M -3 49.85 L -16 49.85 " />
<path id= "14" d=" M -3 11.55 L -3 49.85 " />
<path id= "15" d=" M -3 1.55 L -3 11.55 " />
<path id= "16" d=" M -3 -36.75 L -3 1.55 " />
<path id= "17" d=" M -48 -28.45 L -48 41.55 " />
<path id= "18" d=" M -28 -28.45 L -48 -28.45 " />
<path id= "19" d=" M -48 41.55 L -28 41.55 " />
<path id= "20" d=" M -28 41.55 L -28 -28.45 " />
</g>
</g>



<g id="Ortho_0_003"
   transform="rotate(90,274.159,44.5175) translate(274.159,44.5175) scale(1,1)"
  >
<g   stroke="rgb(0, 0, 0)"
   stroke-width="0.35"
   stroke-linecap="butt"
   stroke-linejoin="miter"
   fill="none"
   transform="scale(1,-1)"
  >
<path id= "1" d=" M 84.9825 -57.459 L 97.9825 -57.459 " />
<path id= "2" d=" M 71.9825 -57.459 L 84.9825 -57.459 " />
<path id= "3" d=" M 58.9825 -57.459 L 71.9825 -57.459 " />
<path id= "4" d=" M 45.9825 -57.459 L 58.9825 -57.459 " />
<path id= "5" d=" M 45.9825 -57.459 L 32.9825 -57.459 " />
<path id= "6" d=" M 32.9825 -57.459 L 32.9825 29.141 " />
<path id= "7" d=" M 45.9825 29.141 L 32.9825 29.141 " />
<path id= "8" d=" M 58.9825 29.141 L 45.9825 29.141 " />
<path id= "9" d=" M 71.9825 29.141 L 58.9825 29.141 " />
<path id= "10" d=" M 84.9825 29.141 L 71.9825 29.141 " />
<path id= "11" d=" M 97.9825 29.141 L 84.9825 29.141 " />
<path id= "12" d=" M 97.9825 -57.459 L 97.9825 29.141 " />
<path id= "13" d=" M 56.0325 -40.559 L 56.0325 -37.609 " />
<path id= "14" d=" M 58.9825 -40.559 L 56.0325 -40.559 " />
<path id= "15" d=" M 58.9825 -37.609 L 58.9825 -40.559 " />
<path id= "16" d=" M 56.0325 -37.609 L 58.9825 -37.609 " />
<path id= "17" d=" M 58.9825 -31.659 L 58.9825 -34.609 " />
<path id= "18" d=" M 56.0325 -31.659 L 58.9825 -31.659 " />
<path id= "19" d=" M 56.0325 -34.609 L 56.0325 -31.659 " />
<path id= "20" d=" M 58.9825 -34.609 L 56.0325 -34.609 " />
<path id= "21" d=" M 90.8825 -34.609 L 90.8825 -31.659 " />
<path id= "22" d=" M 90.8825 -31.659 L 87.9325 -31.659 " />
<path id= "23" d=" M 87.9325 -31.659 L 87.9325 -34.609 " />
<path id= "24" d=" M 87.9325 -34.609 L 90.8825 -34.609 " />
<path id= "25" d=" M 71.9825 -31.659 L 74.9325 -31.659 " />
<path id= "26" d=" M 71.9825 -34.609 L 71.9825 -31.659 " />
<path id= "27" d=" M 74.9325 -34.609 L 71.9825 -34.609 " />
<path id= "28" d=" M 74.9325 -31.659 L 74.9325 -34.609 " />
<path id= "29" d=" M 87.9325 -40.559 L 87.9325 -37.609 " />
<path id= "30" d=" M 90.8825 -40.559 L 87.9325 -40.559 " />
<path id= "31" d=" M 90.8825 -37.609 L 90.8825 -40.559 " />
<path id= "32" d=" M 87.9325 -37.609 L 90.8825 -37.609 " />
<path id= "33" d=" M 74.9325 -37.609 L 74.9325 -40.559 " />
<path id= "34" d=" M 71.9825 -37.609 L 74.9325 -37.609 " />
<path id= "35" d=" M 71.9825 -40.559 L 71.9825 -37.609 " />
<path id= "36" d=" M 74.9325 -40.559 L 71.9825 -40.559 " />
<path id= "37" d=" M 46.9825 -27.659 L 49.4825 -30.159 " />
<path id= "38" d=" M 46.9825 -27.659 L 46.9825 -0.659027 " />
<path id= "39" d=" M 94.4825 -30.159 L 49.4825 -30.159 " />
<path id= "40" d=" M 46.9825 -0.659027 L 49.4825 1.84097 " />
<path id= "41" d=" M 94.4825 -30.159 L 96.9825 -27.659 " />
<path id= "42" d=" M 49.4825 1.84097 L 94.4825 1.84097 " />
<path id= "43" d=" M 96.9825 -0.659027 L 96.9825 -27.659 " />
<path id= "44" d=" M 96.9825 -0.659027 L 94.4825 1.84097 " />
</g>
</g>



<g id="Ortho_0_004"
   transform="rotate(90,344.059,37.9175) translate(344.059,37.9175) scale(1,1)"
  >
<g   stroke="rgb(0, 0, 0)"
   stroke-width="0.35"
   stroke-linecap="butt"
   stroke-linejoin="miter"
   fill="none"
   transform="scale(1,-1)"
  >
<path id= "1" d=" M 47.1825 -27.459 L 47.1825 -0.659027 " />
<path id= "2" d=" M 47.1825 -27.459 L 49.6825 -29.959 " />
<path id= "3" d=" M 47.1825 -0.659027 L 49.6825 1.84097 " />
<path id= "4" d=" M 94.4825 -29.959 L 49.6825 -29.959 " />
<path id= "5" d=" M 49.6825 1.84097 L 94.4825 1.84097 " />
<path id= "6" d=" M 96.9825 -27.459 L 94.4825 -29.959 " />
<path id= "7" d=" M 94.4825 1.84097 L 96.9825 -0.659027 " />
<path id= "8" d=" M 96.9825 -0.659027 L 96.9825 -27.459 " />
<path id= "9" d=" M 69.1325 -22.459 L 69.1325 -19.459 " />
<path id= "10" d=" M 72.0825 -22.459 L 69.1325 -22.459 " />
<path id= "11" d=" M 72.0825 -19.459 L 72.0825 -22.459 " />
<path id= "12" d=" M 69.1325 -19.459 L 72.0825 -19.459 " />
<path id= "13" d=" M 72.0825 -28.459 L 69.1325 -28.459 " />
<path id= "14" d=" M 72.0825 -25.459 L 72.0825 -28.459 " />
<path id= "15" d=" M 69.1325 -25.459 L 72.0825 -25.459 " />
<path id= "16" d=" M 69.1325 -28.459 L 69.1325 -25.459 " />
<path id= "17" d=" M 88.0325 -19.459 L 88.0325 -22.459 " />
<path id= "18" d=" M 85.0825 -19.459 L 88.0325 -19.459 " />
<path id= "19" d=" M 85.0825 -22.459 L 85.0825 -19.459 " />
<path id= "20" d=" M 88.0325 -22.459 L 85.0825 -22.459 " />
<path id= "21" d=" M 88.0325 -25.459 L 88.0325 -28.459 " />
<path id= "22" d=" M 85.0825 -25.459 L 88.0325 -25.459 " />
<path id= "23" d=" M 85.0825 -28.459 L 85.0825 -25.459 " />
<path id= "24" d=" M 88.0325 -28.459 L 85.0825 -28.459 " />
<path id= "25" d=" M 56.1325 -22.459 L 53.1825 -22.459 " />
<path id= "26" d=" M 56.1325 -19.459 L 56.1325 -22.459 " />
<path id= "27" d=" M 53.1825 -19.459 L 56.1325 -19.459 " />
<path id= "28" d=" M 53.1825 -22.459 L 53.1825 -19.459 " />
<path id= "29" d=" M 56.1325 -28.459 L 53.1825 -28.459 " />
<path id= "30" d=" M 56.1325 -25.459 L 56.1325 -28.459 " />
<path id= "31" d=" M 53.1825 -25.459 L 56.1325 -25.459 " />
<path id= "32" d=" M 53.1825 -28.459 L 53.1825 -25.459 " />
</g>
</g>



<g id="Ortho_0_005"
   transform="rotate(90,43.45,195.5) translate(43.45,195.5) scale(1,1)"
  >
<g   stroke="rgb(0, 0, 0)"
   stroke-width="0.35"
   stroke-linecap="butt"
   stroke-linejoin="miter"
   fill="none"
   transform="scale(1,-1)"
  >
<path id= "1" d=" M -15.1 -36.75 L -15.1 -39.75 " />
<path id= "2" d=" M -15.1 -36.75 L -3 -36.75 " />
<path id= "3" d=" M -15.1 -39.75 L -28.7 -39.75 " />
<path id= "4" d=" M -28.7 -39.75 L -28.7 -36.75 " />
<path id= "5" d=" M -28.7 -36.75 L -42.3 -36.75 " />
<path id= "6" d=" M -42.3 -36.75 L -42.3 -39.75 " />
<path id= "7" d=" M -42.3 -39.75 L -55.9 -39.75 " />
<path id= "8" d=" M -55.9 -39.75 L -55.9 -36.75 " />
<path id= "9" d=" M -55.9 -36.75 L -68 -36.75 " />
<path id= "10" d=" M -68 1.55 L -68 -36.75 " />
<path id= "11" d=" M -69.5 1.55 L -68 1.55 " />
<path id= "12" d=" M -69.5 1.55 L -69.5 11.55 " />
<path id= "13" d=" M -68 11.55 L -69.5 11.55 " />
<path id= "14" d=" M -68 49.85 L -68 11.55 " />
<path id= "15" d=" M -55.9 49.85 L -68 49.85 " />
<path id= "16" d=" M -55.9 52.85 L -55.9 49.85 " />
<path id= "17" d=" M -42.3 52.85 L -55.9 52.85 " />
<path id= "18" d=" M -42.3 49.85 L -42.3 52.85 " />
<path id= "19" d=" M -28.7 49.85 L -42.3 49.85 " />
<path id= "20" d=" M -28.7 52.85 L -28.7 49.85 " />
<path id= "21" d=" M -15.1 52.85 L -28.7 52.85 " />
<path id= "22" d=" M -15.1 49.85 L -15.1 52.85 " />
<path id= "23" d=" M -3 49.85 L -15.1 49.85 " />
<path id= "24" d=" M -3 11.55 L -3 49.85 " />
<path id= "25" d=" M -1.5 11.55 L -3 11.55 " />
<path id= "26" d=" M -1.5 1.55 L -1.5 11.55 " />
<path id= "27" d=" M -3 1.55 L -1.5 1.55 " />
<path id= "28" d=" M -3 -36.75 L -3 1.55 " />
<path id= "29" d=" M -41 20.15 L -46 15.15 " />
<path id= "30" d=" M -28 20.15 L -41 20.15 " />
<path id= "31" d=" M -46 15.15 L -46 7.15 " />
<path id= "32" d=" M -28 7.15 L -28 20.15 " />
<path id= "33" d=" M -46 7.15 L -28 7.15 " />
<path id= "34" d=" M -37.6 32.7838 L -37.6 40.55 " />
<path id= "35" d=" M -35.2 28.7838 L -37.6 32.7838 " />
<path id= "36" d=" M -37.6 40.55 L -42.3963 40.55 " />
<path id= "37" d=" M -35.2 21.35 L -35.2 28.7838 " />
<path id= "38" d=" M -46 36.9463 L -42.3963 40.55 " />
<path id= "39" d=" M -41.4971 21.35 L -35.2 21.35 " />
<path id= "40" d=" M -46 36.9463 L -46 16.8471 " />
<path id= "41" d=" M -46 16.8471 L -41.4971 21.35 " />
<path id= "42" d=" M -31.6037 40.55 L -36.4 40.55 " />
<path id= "43" d=" M -31.6037 40.55 L -28 36.9463 " />
<path id= "44" d=" M -36.4 40.55 L -36.4 33.1162 " />
<path id= "45" d=" M -28 21.35 L -28 36.9463 " />
<path id= "46" d=" M -36.4 33.1162 L -34 29.1162 " />
<path id= "47" d=" M -34 21.35 L -28 21.35 " />
<path id= "48" d=" M -34 29.1162 L -34 21.35 " />
<path id= "49" d=" M -28 -7.05 L -41 -7.05 " />
<path id= "50" d=" M -28 5.95 L -28 -7.05 " />
<path id= "51" d=" M -41 -7.05 L -46 -2.05 " />
<path id= "52" d=" M -46 5.95 L -28 5.95 " />
<path id= "53" d=" M -46 -2.05 L -46 5.95 " />
<path id= "54" d=" M -31.6037 -27.45 L -28 -23.8463 " />
<path id= "55" d=" M -31.6037 -27.45 L -36.4 -27.45 " />
<path id= "56" d=" M -28 -8.25 L -28 -23.8463 " />
<path id= "57" d=" M -36.4 -27.45 L -36.4 -20.0162 " />
<path id= "58" d=" M -34 -8.25 L -28 -8.25 " />
<path id= "59" d=" M -36.4 -20.0162 L -34 -16.0162 " />
<path id= "60" d=" M -34 -16.0162 L -34 -8.25 " />
<path id= "61" d=" M -41.4971 -8.25 L -35.2 -8.25 " />
<path id= "62" d=" M -46 -3.74706 L -41.4971 -8.25 " />
<path id= "63" d=" M -35.2 -8.25 L -35.2 -15.6838 " />
<path id= "64" d=" M -46 -23.8463 L -46 -3.74706 " />
<path id= "65" d=" M -35.2 -15.6838 L -37.6 -19.6838 " />
<path id= "66" d=" M -46 -23.8463 L -42.3963 -27.45 " />
<path id= "67" d=" M -37.6 -19.6838 L -37.6 -27.45 " />
<path id= "68" d=" M -37.6 -27.45 L -42.3963 -27.45 " />
</g>
</g>



<g id="Ortho_0_006"
   transform="rotate(90,64.159,169.517) translate(64.159,169.517) scale(1,1)"
  >
<g   stroke="rgb(0, 0, 0)"
   stroke-width="0.35"
   stroke-linecap="butt"
   stroke-linejoin="miter"
   fill="none"
   transform="scale(1,-1)"
  >
<path id= "1" d=" M 84.9825 -57.459 L 84.9825 -60.459 " />
<path id= "2" d=" M 84.9825 -57.459 L 97.9825 -57.459 " />
<path id= "3" d=" M 84.9825 -60.459 L 71.9825 -60.459 " />
<path id= "4" d=" M 97.9825 -57.459 L 97.9825 -19.159 " />
<path id= "5" d=" M 71.9825 -60.459 L 71.9825 -57.459 " />
<path id= "6" d=" M 99.4825 -19.159 L 97.9825 -19.159 " />
<path id= "7" d=" M 71.9825 -57.459 L 58.9825 -57.459 " />
<path id= "8" d=" M 99.4825 -9.15903 L 99.4825 -19.159 " />
<path id= "9" d=" M 58.9825 -57.459 L 58.9825 -60.459 " />
<path id= "10" d=" M 97.9825 -9.15903 L 99.4825 -9.15903 " />
<path id= "11" d=" M 58.9825 -60.459 L 45.9825 -60.459 " />
<path id= "12" d=" M 97.9825 -9.15903 L 97.9825 29.141 " />
<path id= "13" d=" M 45.9825 -60.459 L 45.9825 -57.459 " />
<path id= "14" d=" M 97.9825 29.141 L 84.9825 29.141 " />
<path id= "15" d=" M 45.9825 -57.459 L 32.9825 -57.459 " />
<path id= "16" d=" M 84.9825 29.141 L 84.9825 32.141 " />
<path id= "17" d=" M 32.9825 -57.459 L 32.9825 -19.159 " />
<path id= "18" d=" M 84.9825 32.141 L 71.9825 32.141 " />
<path id= "19" d=" M 32.9825 -19.159 L 31.4825 -19.159 " />
<path id= "20" d=" M 71.9825 32.141 L 71.9825 29.141 " />
<path id= "21" d=" M 31.4825 -19.159 L 31.4825 -9.15903 " />
<path id= "22" d=" M 71.9825 29.141 L 58.9825 29.141 " />
<path id= "23" d=" M 31.4825 -9.15903 L 32.9825 -9.15903 " />
<path id= "24" d=" M 58.9825 29.141 L 58.9825 32.141 " />
<path id= "25" d=" M 32.9825 -9.15903 L 32.9825 29.141 " />
<path id= "26" d=" M 58.9825 32.141 L 45.9825 32.141 " />
<path id= "27" d=" M 45.9825 29.141 L 32.9825 29.141 " />
<path id= "28" d=" M 45.9825 32.141 L 45.9825 29.141 " />
<path id= "29" d=" M 46.9825 -26.659 L 49.4825 -29.159 " />
<path id= "30" d=" M 94.4825 -29.159 L 49.4825 -29.159 " />
<path id= "31" d=" M 94.4825 -29.159 L 96.9825 -26.659 " />
<path id= "32" d=" M 96.9825 -1.65903 L 96.9825 -26.659 " />
<path id= "33" d=" M 94.4825 0.840973 L 96.9825 -1.65903 " />
<path id= "34" d=" M 49.4825 0.840973 L 94.4825 0.840973 " />
<path id= "35" d=" M 46.9825 -1.65903 L 49.4825 0.840973 " />
<path id= "36" d=" M 46.9825 -26.659 L 46.9825 -1.65903 " />
</g>
</g>



<g id="Ortho_0_007"
   transform="rotate(90,358.35,215.5) translate(358.35,215.5) scale(1,1)"
  >
<g   stroke="rgb(0, 0, 0)"
   stroke-width="0.35"
   stroke-linecap="butt"
   stroke-linejoin="miter"
   fill="none"
   transform="scale(1,-1)"
  >
<path id= "1" d=" M -69.5 -101.05 L -69.5 -91.05 " />
<path id= "2" d=" M -69.5 -101.05 L -68 -101.05 " />
<path id= "3" d=" M -68 -91.05 L -69.5 -91.05 " />
<path id= "4" d=" M -68 -101.05 L -68 -139.35 " />
<path id= "5" d=" M -68 -91.05 L -68 -5.65 " />
<path id= "6" d=" M -68 -139.35 L -55 -139.35 " />
<path id= "7" d=" M -68 -5.65 L -69.5 -5.65 " />
<path id= "8" d=" M -55 -139.35 L -55 -142.35 " />
<path id= "9" d=" M -69.5 -5.65 L -69.5 4.35 " />
<path id= "10" d=" M -42 -142.35 L -55 -142.35 " />
<path id= "11" d=" M -69.5 4.35 L -68 4.35 " />
<path id= "12" d=" M -42 -142.35 L -42 -139.35 " />
<path id= "13" d=" M -68 4.35 L -68 42.65 " />
<path id= "14" d=" M -42 -139.35 L -29 -139.35 " />
<path id= "15" d=" M -55 42.65 L -68 42.65 " />
<path id= "16" d=" M -29 -139.35 L -29 -142.35 " />
<path id= "17" d=" M -55 45.65 L -55 42.65 " />
<path id= "18" d=" M -16 -142.35 L -29 -142.35 " />
<path id= "19" d=" M -55 45.65 L -42 45.65 " />
<path id= "20" d=" M -16 -142.35 L -16 -139.35 " />
<path id= "21" d=" M -42 42.65 L -42 45.65 " />
<path id= "22" d=" M -16 -139.35 L -3 -139.35 " />
<path id= "23" d=" M -29 42.65 L -42 42.65 " />
<path id= "24" d=" M -3 -139.35 L -3 -101.05 " />
<path id= "25" d=" M -29 45.65 L -29 42.65 " />
<path id= "26" d=" M -3 -101.05 L -1.5 -101.05 " />
<path id= "27" d=" M -29 45.65 L -16 45.65 " />
<path id= "28" d=" M -1.5 -91.05 L -1.5 -101.05 " />
<path id= "29" d=" M -16 42.65 L -16 45.65 " />
<path id= "30" d=" M -1.5 -91.05 L -3 -91.05 " />
<path id= "31" d=" M -3 42.65 L -16 42.65 " />
<path id= "32" d=" M -3 -91.05 L -3 -5.65 " />
<path id= "33" d=" M -3 4.35 L -3 42.65 " />
<path id= "34" d=" M -1.5 -5.65 L -3 -5.65 " />
<path id= "35" d=" M -3 4.35 L -1.5 4.35 " />
<path id= "36" d=" M -1.5 4.35 L -1.5 -5.65 " />
<path id= "37" d=" M -36.7 -35.55 L -42.4971 -35.55 " />
<path id= "38" d=" M -36.7 -31.4833 L -36.7 -35.55 " />
<path id= "39" d=" M -39.2 -27.4167 L -36.7 -31.4833 " />
<path id= "40" d=" M -39.2 -23.35 L -39.2 -27.4167 " />
<path id= "41" d=" M -44.5 -23.35 L -39.2 -23.35 " />
<path id= "42" d=" M -47 -25.85 L -44.5 -23.35 " />
<path id= "43" d=" M -47 -40.0529 L -47 -25.85 " />
<path id= "44" d=" M -42.4971 -35.55 L -47 -40.0529 " />
<path id= "45" d=" M -29 -25.85 L -29 -35.55 " />
<path id= "46" d=" M -31.5 -23.35 L -29 -25.85 " />
<path id= "47" d=" M -38 -23.35 L -31.5 -23.35 " />
<path id= "48" d=" M -38 -27.0773 L -38 -23.35 " />
<path id= "49" d=" M -35.5 -31.144 L -38 -27.0773 " />
<path id= "50" d=" M -35.5 -35.55 L -35.5 -31.144 " />
<path id= "51" d=" M -29 -35.55 L -35.5 -35.55 " />
<path id= "52" d=" M -47 -47.75 L -29 -47.75 " />
<path id= "53" d=" M -29 -47.75 L -29 -36.75 " />
<path id= "54" d=" M -29 -36.75 L -42 -36.75 " />
<path id= "55" d=" M -42 -36.75 L -47 -41.75 " />
<path id= "56" d=" M -47 -41.75 L -47 -47.75 " />
<path id= "57" d=" M -35.5 -8.15 L -35.5 -12.556 " />
<path id= "58" d=" M -35.5 -12.556 L -38 -16.6227 " />
<path id= "59" d=" M -38 -16.6227 L -38 -20.35 " />
<path id= "60" d=" M -38 -20.35 L -31.5 -20.35 " />
<path id= "61" d=" M -31.5 -20.35 L -29 -17.85 " />
<path id= "62" d=" M -29 -17.85 L -29 -8.15 " />
<path id= "63" d=" M -29 -8.15 L -35.5 -8.15 " />
<path id= "64" d=" M -47 -17.85 L -44.5 -20.35 " />
<path id= "65" d=" M -44.5 -20.35 L -39.2 -20.35 " />
<path id= "66" d=" M -39.2 -20.35 L -39.2 -16.2833 " />
<path id= "67" d=" M -39.2 -16.2833 L -36.7 -12.2167 " />
<path id= "68" d=" M -36.7 -12.2167 L -36.7 -8.15 " />
<path id= "69" d=" M -36.7 -8.15 L -42.4971 -8.15 " />
<path id= "70" d=" M -42.4971 -8.15 L -47 -3.64706 " />
<path id= "71" d=" M -47 -3.64706 L -47 -17.85 " />
<path id= "72" d=" M -47 -1.95 L -47 4.05 " />
<path id= "73" d=" M -42 -6.95 L -47 -1.95 " />
<path id= "74" d=" M -29 -6.95 L -42 -6.95 " />
<path id= "75" d=" M -29 4.05 L -29 -6.95 " />
<path id= "76" d=" M -47 4.05 L -29 4.05 " />
<path id= "77" d=" M -29 16.25 L -42 16.25 " />
<path id= "78" d=" M -42 16.25 L -47 11.25 " />
<path id= "79" d=" M -47 11.25 L -47 5.25 " />
<path id= "80" d=" M -47 5.25 L -29 5.25 " />
<path id= "81" d=" M -29 5.25 L -29 16.25 " />
<path id= "82" d=" M -39.2 -69.2833 L -36.7 -65.2167 " />
<path id= "83" d=" M -36.7 -65.2167 L -36.7 -61.15 " />
<path id= "84" d=" M -36.7 -61.15 L -42.4971 -61.15 " />
<path id= "85" d=" M -42.4971 -61.15 L -47 -56.6471 " />
<path id= "86" d=" M -47 -56.6471 L -47 -70.85 " />
<path id= "87" d=" M -47 -70.85 L -44.5 -73.35 " />
<path id= "88" d=" M -44.5 -73.35 L -39.2 -73.35 " />
<path id= "89" d=" M -39.2 -73.35 L -39.2 -69.2833 " />
<path id= "90" d=" M -35.5 -65.556 L -38 -69.6227 " />
<path id= "91" d=" M -38 -69.6227 L -38 -73.35 " />
<path id= "92" d=" M -38 -73.35 L -31.5 -73.35 " />
<path id= "93" d=" M -31.5 -73.35 L -29 -70.85 " />
<path id= "94" d=" M -29 -70.85 L -29 -61.15 " />
<path id= "95" d=" M -29 -61.15 L -35.5 -61.15 " />
<path id= "96" d=" M -35.5 -61.15 L -35.5 -65.556 " />
<path id= "97" d=" M -47 -48.95 L -29 -48.95 " />
<path id= "98" d=" M -47 -54.95 L -47 -48.95 " />
<path id= "99" d=" M -42 -59.95 L -47 -54.95 " />
<path id= "100" d=" M -29 -59.95 L -42 -59.95 " />
<path id= "101" d=" M -29 -48.95 L -29 -59.95 " />
<path id= "102" d=" M -47 -93.0529 L -47 -78.85 " />
<path id= "103" d=" M -42.4971 -88.55 L -47 -93.0529 " />
<path id= "104" d=" M -36.7 -88.55 L -42.4971 -88.55 " />
<path id= "105" d=" M -36.7 -84.4833 L -36.7 -88.55 " />
<path id= "106" d=" M -39.2 -80.4167 L -36.7 -84.4833 " />
<path id= "107" d=" M -39.2 -76.35 L -39.2 -80.4167 " />
<path id= "108" d=" M -44.5 -76.35 L -39.2 -76.35 " />
<path id= "109" d=" M -47 -78.85 L -44.5 -76.35 " />
<path id= "110" d=" M -47 -100.75 L -29 -100.75 " />
<path id= "111" d=" M -29 -100.75 L -29 -89.75 " />
<path id= "112" d=" M -29 -89.75 L -42 -89.75 " />
<path id= "113" d=" M -42 -89.75 L -47 -94.75 " />
<path id= "114" d=" M -47 -94.75 L -47 -100.75 " />
<path id= "115" d=" M -35.5 -84.144 L -38 -80.0773 " />
<path id= "116" d=" M -35.5 -88.55 L -35.5 -84.144 " />
<path id= "117" d=" M -29 -88.55 L -35.5 -88.55 " />
<path id= "118" d=" M -29 -78.85 L -29 -88.55 " />
<path id= "119" d=" M -31.5 -76.35 L -29 -78.85 " />
<path id= "120" d=" M -38 -76.35 L -31.5 -76.35 " />
<path id= "121" d=" M -38 -80.0773 L -38 -76.35 " />
<path id= "122" d=" M -35.5 21.856 L -38 25.9227 " />
<path id= "123" d=" M -35.5 17.45 L -35.5 21.856 " />
<path id= "124" d=" M -29 17.45 L -35.5 17.45 " />
<path id= "125" d=" M -29 27.15 L -29 17.45 " />
<path id= "126" d=" M -31.5 29.65 L -29 27.15 " />
<path id= "127" d=" M -38 29.65 L -31.5 29.65 " />
<path id= "128" d=" M -38 25.9227 L -38 29.65 " />
<path id= "129" d=" M -47 27.15 L -44.5 29.65 " />
<path id= "130" d=" M -47 12.9471 L -47 27.15 " />
<path id= "131" d=" M -42.4971 17.45 L -47 12.9471 " />
<path id= "132" d=" M -36.7 17.45 L -42.4971 17.45 " />
<path id= "133" d=" M -36.7 21.5167 L -36.7 17.45 " />
<path id= "134" d=" M -39.2 25.5833 L -36.7 21.5167 " />
<path id= "135" d=" M -39.2 29.65 L -39.2 25.5833 " />
<path id= "136" d=" M -44.5 29.65 L -39.2 29.65 " />
<path id= "137" d=" M -35.5 -114.15 L -35.5 -118.556 " />
<path id= "138" d=" M -29 -114.15 L -35.5 -114.15 " />
<path id= "139" d=" M -35.5 -118.556 L -38 -122.623 " />
<path id= "140" d=" M -29 -123.85 L -29 -114.15 " />
<path id= "141" d=" M -38 -122.623 L -38 -126.35 " />
<path id= "142" d=" M -31.5 -126.35 L -29 -123.85 " />
<path id= "143" d=" M -38 -126.35 L -31.5 -126.35 " />
<path id= "144" d=" M -42.4971 -114.15 L -47 -109.647 " />
<path id= "145" d=" M -36.7 -114.15 L -42.4971 -114.15 " />
<path id= "146" d=" M -47 -109.647 L -47 -123.85 " />
<path id= "147" d=" M -36.7 -118.217 L -36.7 -114.15 " />
<path id= "148" d=" M -47 -123.85 L -44.5 -126.35 " />
<path id= "149" d=" M -39.2 -122.283 L -36.7 -118.217 " />
<path id= "150" d=" M -44.5 -126.35 L -39.2 -126.35 " />
<path id= "151" d=" M -39.2 -126.35 L -39.2 -122.283 " />
<path id= "152" d=" M -47 -107.95 L -47 -101.95 " />
<path id= "153" d=" M -42 -112.95 L -47 -107.95 " />
<path id= "154" d=" M -47 -101.95 L -29 -101.95 " />
<path id= "155" d=" M -29 -112.95 L -42 -112.95 " />
<path id= "156" d=" M -29 -101.95 L -29 -112.95 " />
</g>
</g>



<g id="Ortho_0_008"
   transform="rotate(90,358.35,285.5) translate(358.35,285.5) scale(1,1)"
  >
<g   stroke="rgb(0, 0, 0)"
   stroke-width="0.35"
   stroke-linecap="butt"
   stroke-linejoin="miter"
   fill="none"
   transform="scale(1,-1)"
  >
<path id= "1" d=" M -68 -43.35 L -68 -53.35 " />
<path id= "2" d=" M -68 -43.35 L -68 42.65 " />
<path id= "3" d=" M -55 42.65 L -68 42.65 " />
<path id= "4" d=" M -42 42.65 L -55 42.65 " />
<path id= "5" d=" M -29 42.65 L -42 42.65 " />
<path id= "6" d=" M -16 42.65 L -29 42.65 " />
<path id= "7" d=" M -3 42.65 L -16 42.65 " />
<path id= "8" d=" M -3 -43.35 L -3 42.65 " />
<path id= "9" d=" M -3 -53.35 L -3 -43.35 " />
<path id= "10" d=" M -3 -139.35 L -3 -53.35 " />
<path id= "11" d=" M -16 -139.35 L -3 -139.35 " />
<path id= "12" d=" M -16 -139.35 L -29 -139.35 " />
<path id= "13" d=" M -29 -139.35 L -42 -139.35 " />
<path id= "14" d=" M -42 -139.35 L -55 -139.35 " />
<path id= "15" d=" M -68 -139.35 L -55 -139.35 " />
<path id= "16" d=" M -68 -53.35 L -68 -139.35 " />
<path id= "17" d=" M -28 -20.35 L -48 -20.35 " />
<path id= "18" d=" M -28 29.65 L -28 -20.35 " />
<path id= "19" d=" M -48 -20.35 L -48 29.65 " />
<path id= "20" d=" M -48 29.65 L -28 29.65 " />
<path id= "21" d=" M -48 -23.35 L -28 -23.35 " />
<path id= "22" d=" M -48 -73.35 L -48 -23.35 " />
<path id= "23" d=" M -28 -23.35 L -28 -73.35 " />
<path id= "24" d=" M -28 -73.35 L -48 -73.35 " />
<path id= "25" d=" M -48 -126.35 L -48 -76.35 " />
<path id= "26" d=" M -28 -126.35 L -48 -126.35 " />
<path id= "27" d=" M -48 -76.35 L -28 -76.35 " />
<path id= "28" d=" M -28 -76.35 L -28 -126.35 " />
</g>
</g>



<g id="Ortho_0_009"
   transform="rotate(90,446.476,124.929) translate(446.476,124.929) scale(1,1)"
  >
<g   stroke="rgb(0, 0, 0)"
   stroke-width="0.35"
   stroke-linecap="butt"
   stroke-linejoin="miter"
   fill="none"
   transform="scale(1,-1)"
  >
<path id= "1" d=" M -115.429 -129.976 L -115.429 -126.976 " />
<path id= "2" d=" M -115.429 -129.976 L -112.429 -129.976 " />
<path id= "3" d=" M -115.429 -126.976 L -44.4294 -126.976 " />
<path id= "4" d=" M -44.4294 -126.976 L -44.4294 -130.001 " />
<path id= "5" d=" M -47.4294 -130.001 L -44.4294 -130.001 " />
<path id= "6" d=" M -47.4294 -132.951 L -47.4294 -130.001 " />
<path id= "7" d=" M -44.4294 -132.951 L -47.4294 -132.951 " />
<path id= "8" d=" M -44.4294 -132.951 L -44.4294 -135.976 " />
<path id= "9" d=" M -44.4294 -135.976 L -112.429 -135.976 " />
<path id= "10" d=" M -112.429 -129.976 L -112.429 -135.976 " />
</g>
</g>



<g id="Ortho_0_010"
   transform="rotate(90,476.047,133.929) translate(476.047,133.929) scale(1,1)"
  >
<g   stroke="rgb(0, 0, 0)"
   stroke-width="0.35"
   stroke-linecap="butt"
   stroke-linejoin="miter"
   fill="none"
   transform="scale(1,-1)"
  >
<path id= "1" d=" M -124.429 -150.547 L -124.429 -147.547 " />
<path id= "2" d=" M -121.429 -147.547 L -124.429 -147.547 " />
<path id= "3" d=" M -121.429 -141.547 L -121.429 -147.547 " />
<path id= "4" d=" M -121.429 -141.547 L -53.4291 -141.547 " />
<path id= "5" d=" M -53.4291 -141.547 L -53.4291 -144.572 " />
<path id= "6" d=" M -56.4291 -144.572 L -53.4291 -144.572 " />
<path id= "7" d=" M -56.4291 -147.522 L -56.4291 -144.572 " />
<path id= "8" d=" M -53.4291 -147.522 L -56.4291 -147.522 " />
<path id= "9" d=" M -53.4291 -147.522 L -53.4291 -150.547 " />
<path id= "10" d=" M -53.4291 -150.547 L -124.429 -150.547 " />
<path id= "11" d=" M -95.4291 -147.522 L -108.429 -147.522 " />
<path id= "12" d=" M -95.4291 -144.572 L -95.4291 -147.522 " />
<path id= "13" d=" M -108.429 -144.572 L -95.4291 -144.572 " />
<path id= "14" d=" M -108.429 -147.522 L -108.429 -144.572 " />
<path id= "15" d=" M -82.4291 -147.522 L -82.4291 -144.572 " />
<path id= "16" d=" M -69.4291 -147.522 L -82.4291 -147.522 " />
<path id= "17" d=" M -69.4291 -144.572 L -69.4291 -147.522 " />
<path id= "18" d=" M -82.4291 -144.572 L -69.4291 -144.572 " />
</g>
</g>



<g id="Ortho_0_011"
   transform="rotate(90,496.722,118.258) translate(496.722,118.258) scale(1,1)"
  >
<g   stroke="rgb(0, 0, 0)"
   stroke-width="0.35"
   stroke-linecap="butt"
   stroke-linejoin="miter"
   fill="none"
   transform="scale(1,-1)"
  >
<path id= "1" d=" M -108.758 -153.222 L -108.758 -150.222 " />
<path id= "2" d=" M -108.758 -153.222 L -104.258 -153.222 " />
<path id= "3" d=" M -104.258 -150.222 L -108.758 -150.222 " />
<path id= "4" d=" M -104.258 -147.222 L -104.258 -150.222 " />
<path id= "5" d=" M -104.258 -147.222 L -91.2579 -147.222 " />
<path id= "6" d=" M -91.2579 -150.222 L -91.2579 -147.222 " />
<path id= "7" d=" M -78.2579 -150.222 L -91.2579 -150.222 " />
<path id= "8" d=" M -78.2579 -147.222 L -78.2579 -150.222 " />
<path id= "9" d=" M -78.2579 -147.222 L -65.2579 -147.222 " />
<path id= "10" d=" M -65.2579 -150.222 L -65.2579 -147.222 " />
<path id= "11" d=" M -52.2579 -150.222 L -65.2579 -150.222 " />
<path id= "12" d=" M -52.2579 -147.222 L -52.2579 -150.222 " />
<path id= "13" d=" M -52.2579 -147.222 L -39.2579 -147.222 " />
<path id= "14" d=" M -39.2579 -150.222 L -39.2579 -147.222 " />
<path id= "15" d=" M -37.7579 -150.222 L -39.2579 -150.222 " />
<path id= "16" d=" M -37.7579 -150.222 L -37.7579 -153.222 " />
<path id= "17" d=" M -39.2579 -153.222 L -37.7579 -153.222 " />
<path id= "18" d=" M -39.2579 -156.222 L -39.2579 -153.222 " />
<path id= "19" d=" M -39.2579 -156.222 L -104.258 -156.222 " />
<path id= "20" d=" M -104.258 -153.222 L -104.258 -156.222 " />
</g>
</g>



<g id="Ortho_0_012"
   transform="rotate(0,394.084,147.794) translate(394.084,147.794) scale(1,1)"
  >
<g   stroke="rgb(0, 0, 0)"
   stroke-width="0.35"
   stroke-linecap="butt"
   stroke-linejoin="miter"
   fill="none"
   transform="scale(1,-1)"
  >
<path id= "1" d=" M -31.609 123.819 L -34.609 123.819 " />
<path id= "2" d=" M -34.609 123.819 L -34.609 126.769 " />
<path id= "3" d=" M -34.609 126.769 L -37.559 126.769 " />
<path id= "4" d=" M -37.559 126.769 L -37.559 123.819 " />
<path id= "5" d=" M -37.559 123.819 L -40.559 123.819 " />
<path id= "6" d=" M -40.559 123.819 L -40.559 129.819 " />
<path d="M-38.1203 131.769 A2.5 2.5 0 0 1 -40.559 129.819" /><path id= "8" d=" M -30.109 131.769 L -38.1203 131.769 " />
<path d="M-30.109 126.769 A2.5 2.5 0 1 1 -30.109 131.769" /><path id= "10" d=" M -31.609 126.769 L -30.109 126.769 " />
<path id= "11" d=" M -31.609 123.819 L -31.609 126.769 " />
<circle cx ="-30.109" cy ="129.269" r ="1.1" /></g>
</g>



<g id="Ortho_0_013"
   transform="rotate(180,386.184,-77.7935) translate(386.184,-77.7935) scale(1,1)"
  >
<g   stroke="rgb(0, 0, 0)"
   stroke-width="0.35"
   stroke-linecap="butt"
   stroke-linejoin="miter"
   fill="none"
   transform="scale(1,-1)"
  >
<path id= "1" d=" M 30.409 131.819 L 23.959 131.819 " />
<path d="M30.409 131.819 A2.5 2.5 0 0 0 30.409 126.819" /><path id= "3" d=" M 30.409 126.819 L 28.409 126.819 " />
<path id= "4" d=" M 28.409 123.769 L 28.409 126.819 " />
<path id= "5" d=" M 25.409 123.769 L 28.409 123.769 " />
<path id= "6" d=" M 25.409 126.819 L 25.409 123.769 " />
<path id= "7" d=" M 22.459 126.819 L 25.409 126.819 " />
<path id= "8" d=" M 22.459 123.769 L 22.459 126.819 " />
<path id= "9" d=" M 19.459 123.769 L 22.459 123.769 " />
<path id= "10" d=" M 19.459 127.819 L 19.459 123.769 " />
<path id= "11" d=" M 23.959 131.819 L 19.459 127.819 " />
<circle cx ="30.409" cy ="129.319" r ="1.1" /></g>
</g>



</svg>

