<?xml version="1.0" encoding="UTF-8"?>

<svg xmlns="http://www.w3.org/2000/svg" version="1.1"
	width="420mm"
	height="297mm"
	viewBox="0 0 420 297">
	<!-- Working space 0 0 420 297 -->
	<defs>
		<radialGradient
			id="radialGradient3661"
			gradientUnits="userSpaceOnUse"
			cy="29.149"
			cx="282.65"
			gradientTransform="matrix(.14777 .23089 -.24680 .15795 -26.318 -62.617)"
			r="19.571">
				<stop stop-color="#71b2f8" offset="0"/>
				<stop stop-color="#002795" offset="1"/>
		</radialGradient>
		<radialGradient
			id="radialGradient3817"
			gradientUnits="userSpaceOnUse"
			cy="33.9"
			cx="270.58"
			gradientTransform="matrix(.26631 .065024 -.17931 .73438 -60.668 -36.938)"
			r="19.571">
				<stop stop-color="#ff6d0f" offset="0"/>
				<stop stop-color="#ff1000" offset="1"/>
		</radialGradient>
	</defs>
	<!-- Set display:none to hide FreeCAD Logo -->
	<g
		style="display:inline"
		id="freecad-logo"
		transform="translate(386, 264) scale(1.5)"
		fill-rule="evenodd"
		stroke-width=".45621">
		<path d="m0.22811 0.22835v13.256h2.9558v-5.1876h2.09v-2.0452h-2.09v-2.2075h5.1486v-3.8087l-8.1044-0.0075z"
			stroke="#370700"
			fill="url(#radialGradient3817)"/>
		<path d="m13.386 4.1792-1.7193 0.98645-0.75925-0.26348-0.72439-1.8513-1.1395 0.05988-0.51976 1.9144-0.72743 0.34835-1.8143-0.79367-0.76632 0.85156 0.98645 1.7193-0.26957 0.75702-1.8513 0.72439 0.065967 1.1417 1.9144 0.51976 0.34835 0.72743-0.79976 1.8121 0.85156 0.76632 1.7193-0.98645 0.76311 0.27179 0.7183 1.8491 1.1478-0.06375 0.51367-1.9166 0.72743-0.34835 1.8182 0.80198 0.76632-0.85156-0.98645-1.7193 0.2657-0.76533 1.8491-0.7183-0.05766-1.1456-1.9166-0.51367-0.34835-0.72743 0.7959-1.8204-0.85156-0.76632zm-2.5751 2.8195 0.35295 0.20478 0.30579 0.27725 0.24481 0.33087 0.17611 0.36787 0.10354 0.39656 0.01715 0.4064-0.0587 0.4063-0.13396 0.38571-0.2131 0.35681-0.26894 0.30192-0.33087 0.24481-0.36787 0.17611-0.39656 0.10354-0.40863 0.02325-0.4063-0.0587-0.38571-0.13396-0.35681-0.2131-0.2997-0.27503-0.24703-0.32478-0.17611-0.36787-0.10132-0.40264-0.02324-0.40863 0.05869-0.4063 0.13396-0.38571 0.21087-0.35072 0.27116-0.30801 0.33087-0.24481 0.36787-0.17611 0.40264-0.10132 0.40641-0.01715 0.4063 0.05869 0.38571 0.13396z" 
		stroke="#000137"
		fill="url(#radialGradient3661)"/>
	</g>
<g id="Ortho_0_001"
   transform="rotate(90,120,143) translate(120,143) scale(1,1)"
  >
<g   stroke="rgb(0, 0, 0)"
   stroke-width="0.35"
   stroke-linecap="butt"
   stroke-linejoin="miter"
   fill="none"
   transform="scale(1,-1)"
  >
<path id= "1" d=" M 28 -103.05 L 28 -96.05 " />
<path id= "2" d=" M 28 -103.05 L 20 -103.05 " />
<path id= "3" d=" M 28 -96.05 L 25 -92.05 " />
<path id= "4" d=" M 25 -92.05 L 25 92.05 " />
<path id= "5" d=" M 25 92.05 L 28 96.05 " />
<path id= "6" d=" M 28 96.05 L 28 103.05 " />
<path id= "7" d=" M 20 103.05 L 28 103.05 " />
<path id= "8" d=" M 20 106 L 20 103.05 " />
<path id= "9" d=" M 20 106 L 12 106 " />
<path id= "10" d=" M 12 103.05 L 12 106 " />
<path id= "11" d=" M 4 103.05 L 12 103.05 " />
<path id= "12" d=" M 4 106 L 4 103.05 " />
<path id= "13" d=" M 4 106 L 2.95 106 " />
<path id= "14" d=" M 2.95 91 L 2.95 106 " />
<path id= "15" d=" M -2.66454e-015 91 L 2.95 91 " />
<path id= "16" d=" M -2.66454e-015 106 L -2.66454e-015 91 " />
<path id= "17" d=" M -1.06581e-014 106 L -4 106 " />
<path id= "18" d=" M -4 103.05 L -4 106 " />
<path id= "19" d=" M -12 103.05 L -4 103.05 " />
<path id= "20" d=" M -12 103.05 L -12 96.05 " />
<path id= "21" d=" M -9 92.05 L -12 96.05 " />
<path id= "22" d=" M -9 9 L -9 92.05 " />
<path id= "23" d=" M -10.5 7.5 L -9 9 " />
<path id= "24" d=" M -10.5 -7.5 L -10.5 7.5 " />
<path id= "25" d=" M -9 -9 L -10.5 -7.5 " />
<path id= "26" d=" M -9 -92.05 L -9 -9 " />
<path id= "27" d=" M -12 -96.05 L -9 -92.05 " />
<path id= "28" d=" M -12 -96.05 L -12 -103.05 " />
<path id= "29" d=" M -4 -103.05 L -12 -103.05 " />
<path id= "30" d=" M -4 -106 L -4 -103.05 " />
<path id= "31" d=" M -4 -106 L 1.77636e-015 -106 " />
<path id= "32" d=" M -2.66454e-015 -91 L -2.66454e-015 -106 " />
<path id= "33" d=" M 2.95 -91 L -3.55271e-015 -91 " />
<path id= "34" d=" M 2.95 -106 L 2.95 -91 " />
<path id= "35" d=" M 2.95 -106 L 4 -106 " />
<path id= "36" d=" M 4 -103.05 L 4 -106 " />
<path id= "37" d=" M 12 -103.05 L 4 -103.05 " />
<path id= "38" d=" M 12 -106 L 12 -103.05 " />
<path id= "39" d=" M 12 -106 L 20 -106 " />
<path id= "40" d=" M 20 -103.05 L 20 -106 " />
</g>
</g>



<g id="Ortho_0_002"
   transform="rotate(-90,120,205.5) translate(120,205.5) scale(1,1)"
  >
<g   stroke="rgb(0, 0, 0)"
   stroke-width="0.35"
   stroke-linecap="butt"
   stroke-linejoin="miter"
   fill="none"
   transform="scale(1,-1)"
  >
<path id= "1" d=" M 28 106 L 28 96 " />
<path id= "2" d=" M 28 96 L 25 92 " />
<path id= "3" d=" M 25 92 L 25 -92 " />
<path id= "4" d=" M 25 -92 L 28 -96 " />
<path id= "5" d=" M 28 -96 L 28 -106 " />
<path id= "6" d=" M 28 -106 L 20 -106 " />
<path id= "7" d=" M 20 -103.05 L 20 -106 " />
<path id= "8" d=" M 12 -103.05 L 20 -103.05 " />
<path id= "9" d=" M 12 -106 L 12 -103.05 " />
<path id= "10" d=" M 12 -106 L 4 -106 " />
<path id= "11" d=" M 4 -103.05 L 4 -106 " />
<path id= "12" d=" M 2.95 -103.05 L 4 -103.05 " />
<path id= "13" d=" M 2.95 -91 L 2.95 -103.05 " />
<path id= "14" d=" M 1.95399e-014 -91 L 2.95 -91 " />
<path id= "15" d=" M 1.95399e-014 -103.05 L 1.95399e-014 -91 " />
<path id= "16" d=" M -4 -103.05 L 2.04281e-014 -103.05 " />
<path id= "17" d=" M -4 -106 L -4 -103.05 " />
<path id= "18" d=" M -4 -106 L -12 -106 " />
<path id= "19" d=" M -12 -106 L -12 -96 " />
<path id= "20" d=" M -9 -92 L -12 -96 " />
<path id= "21" d=" M -9 -6.5 L -9 -92 " />
<path id= "22" d=" M -10.5 -5 L -9 -6.5 " />
<path id= "23" d=" M -10.5 5 L -10.5 -5 " />
<path id= "24" d=" M -9 6.5 L -10.5 5 " />
<path id= "25" d=" M -9 92 L -9 6.5 " />
<path id= "26" d=" M -12 96 L -9 92 " />
<path id= "27" d=" M -12 96 L -12 106 " />
<path id= "28" d=" M -12 106 L -4 106 " />
<path id= "29" d=" M -4 103.05 L -4 106 " />
<path id= "30" d=" M 1.9984e-014 103.05 L -4 103.05 " />
<path id= "31" d=" M 1.95399e-014 91 L 1.95399e-014 103.05 " />
<path id= "32" d=" M 2.95 91 L 1.95399e-014 91 " />
<path id= "33" d=" M 2.95 103.05 L 2.95 91 " />
<path id= "34" d=" M 4 103.05 L 2.95 103.05 " />
<path id= "35" d=" M 4 106 L 4 103.05 " />
<path id= "36" d=" M 4 106 L 12 106 " />
<path id= "37" d=" M 12 103.05 L 12 106 " />
<path id= "38" d=" M 20 103.05 L 12 103.05 " />
<path id= "39" d=" M 20 106 L 20 103.05 " />
<path id= "40" d=" M 20 106 L 28 106 " />
</g>
</g>



<g id="Ortho_0_003"
   transform="rotate(90,12.225,14.5) translate(12.225,14.5) scale(1,1)"
  >
<g   stroke="rgb(0, 0, 0)"
   stroke-width="0.35"
   stroke-linecap="butt"
   stroke-linejoin="miter"
   fill="none"
   transform="scale(1,-1)"
  >
<path id= "1" d=" M 28 -7.5 L 28 -0.5 " />
<path id= "2" d=" M 28 -7.5 L 20 -7.5 " />
<path id= "3" d=" M 28 -0.5 L 25 3.5 " />
<path id= "4" d=" M 25 3.5 L 25 92.05 " />
<path id= "5" d=" M 25 92.05 L 28 96.05 " />
<path id= "6" d=" M 28 96.05 L 28 103.05 " />
<path id= "7" d=" M 20 103.05 L 28 103.05 " />
<path id= "8" d=" M 20 106 L 20 103.05 " />
<path id= "9" d=" M 20 106 L 12 106 " />
<path id= "10" d=" M 12 103.05 L 12 106 " />
<path id= "11" d=" M 4 103.05 L 12 103.05 " />
<path id= "12" d=" M 4 106 L 4 103.05 " />
<path id= "13" d=" M 4 106 L 2.95 106 " />
<path id= "14" d=" M 2.95 91 L 2.95 106 " />
<path id= "15" d=" M 2.12275e-013 91 L 2.95 91 " />
<path id= "16" d=" M 2.12275e-013 106 L 2.12275e-013 91 " />
<path id= "17" d=" M 2.02505e-013 106 L -4 106 " />
<path id= "18" d=" M -4 103.05 L -4 106 " />
<path id= "19" d=" M -12 103.05 L -4 103.05 " />
<path id= "20" d=" M -12 103.05 L -12 96.05 " />
<path id= "21" d=" M -9 92.05 L -12 96.05 " />
<path id= "22" d=" M -9 56.775 L -9 92.05 " />
<path id= "23" d=" M -10.5 55.275 L -9 56.775 " />
<path id= "24" d=" M -10.5 40.275 L -10.5 55.275 " />
<path id= "25" d=" M -9 38.775 L -10.5 40.275 " />
<path id= "26" d=" M -9 3.5 L -9 38.775 " />
<path id= "27" d=" M -12 -0.5 L -9 3.5 " />
<path id= "28" d=" M -12 -0.5 L -12 -7.5 " />
<path id= "29" d=" M -4 -7.5 L -12 -7.5 " />
<path id= "30" d=" M -4 -10.45 L -4 -7.5 " />
<path id= "31" d=" M -4 -10.45 L 2.16716e-013 -10.45 " />
<path id= "32" d=" M 2.12275e-013 4.55 L 2.12275e-013 -10.45 " />
<path id= "33" d=" M 2.95 4.55 L 2.11386e-013 4.55 " />
<path id= "34" d=" M 2.95 -10.45 L 2.95 4.55 " />
<path id= "35" d=" M 2.95 -10.45 L 4 -10.45 " />
<path id= "36" d=" M 4 -7.5 L 4 -10.45 " />
<path id= "37" d=" M 12 -7.5 L 4 -7.5 " />
<path id= "38" d=" M 12 -10.45 L 12 -7.5 " />
<path id= "39" d=" M 12 -10.45 L 20 -10.45 " />
<path id= "40" d=" M 20 -7.5 L 20 -10.45 " />
</g>
</g>



<g id="Ortho_0_004"
   transform="rotate(-90,116.725,65.5) translate(116.725,65.5) scale(1,1)"
  >
<g   stroke="rgb(0, 0, 0)"
   stroke-width="0.35"
   stroke-linecap="butt"
   stroke-linejoin="miter"
   fill="none"
   transform="scale(1,-1)"
  >
<path id= "1" d=" M 25.5 106 L 25.5 96 " />
<path id= "2" d=" M 25.5 96 L 22.5 92 " />
<path id= "3" d=" M 22.5 92 L 22.5 21.45 " />
<path id= "4" d=" M 22.5 21.45 L 25.5 17.45 " />
<path id= "5" d=" M 25.5 17.45 L 25.5 7.45 " />
<path id= "6" d=" M 25.5 7.45 L 17.5 7.45 " />
<path id= "7" d=" M 17.5 10.4 L 17.5 7.45 " />
<path id= "8" d=" M 9.5 10.4 L 17.5 10.4 " />
<path id= "9" d=" M 9.5 7.45 L 9.5 10.4 " />
<path id= "10" d=" M 9.5 7.45 L 1.5 7.45 " />
<path id= "11" d=" M 1.5 10.4 L 1.5 7.45 " />
<path id= "12" d=" M 0.45 10.4 L 1.5 10.4 " />
<path id= "13" d=" M 0.45 22.45 L 0.45 10.4 " />
<path id= "14" d=" M -2.5 22.45 L 0.45 22.45 " />
<path id= "15" d=" M -2.5 10.4 L -2.5 22.45 " />
<path id= "16" d=" M -6.5 10.4 L -2.5 10.4 " />
<path id= "17" d=" M -6.5 7.45 L -6.5 10.4 " />
<path id= "18" d=" M -6.5 7.45 L -14.5 7.45 " />
<path id= "19" d=" M -14.5 7.45 L -14.5 17.45 " />
<path id= "20" d=" M -11.5 21.45 L -14.5 17.45 " />
<path id= "21" d=" M -11.5 51.225 L -11.5 21.45 " />
<path id= "22" d=" M -13 52.725 L -11.5 51.225 " />
<path id= "23" d=" M -13 60.725 L -13 52.725 " />
<path id= "24" d=" M -11.5 62.225 L -13 60.725 " />
<path id= "25" d=" M -11.5 92 L -11.5 62.225 " />
<path id= "26" d=" M -14.5 96 L -11.5 92 " />
<path id= "27" d=" M -14.5 96 L -14.5 106 " />
<path id= "28" d=" M -14.5 106 L -6.5 106 " />
<path id= "29" d=" M -6.5 103.05 L -6.5 106 " />
<path id= "30" d=" M -2.5 103.05 L -6.5 103.05 " />
<path id= "31" d=" M -2.5 91 L -2.5 103.05 " />
<path id= "32" d=" M 0.45 91 L -2.5 91 " />
<path id= "33" d=" M 0.45 103.05 L 0.45 91 " />
<path id= "34" d=" M 1.5 103.05 L 0.45 103.05 " />
<path id= "35" d=" M 1.5 106 L 1.5 103.05 " />
<path id= "36" d=" M 1.5 106 L 9.5 106 " />
<path id= "37" d=" M 9.5 103.05 L 9.5 106 " />
<path id= "38" d=" M 17.5 103.05 L 9.5 103.05 " />
<path id= "39" d=" M 17.5 106 L 17.5 103.05 " />
<path id= "40" d=" M 17.5 106 L 25.5 106 " />
</g>
</g>



<g id="Ortho_0_005"
   transform="rotate(90,116.725,94.5) translate(116.725,94.5) scale(1,1)"
  >
<g   stroke="rgb(0, 0, 0)"
   stroke-width="0.35"
   stroke-linecap="butt"
   stroke-linejoin="miter"
   fill="none"
   transform="scale(1,-1)"
  >
<path id= "1" d=" M 28 -103.05 L 28 -96.05 " />
<path id= "2" d=" M 28 -103.05 L 20 -103.05 " />
<path id= "3" d=" M 25 -92.05 L 28 -96.05 " />
<path id= "4" d=" M 25 -21.4 L 25 -92.05 " />
<path id= "5" d=" M 28 -17.4 L 25 -21.4 " />
<path id= "6" d=" M 28 -17.4 L 28 -10.4 " />
<path id= "7" d=" M 20 -10.4 L 28 -10.4 " />
<path id= "8" d=" M 20 -7.45 L 20 -10.4 " />
<path id= "9" d=" M 20 -7.45 L 12 -7.45 " />
<path id= "10" d=" M 12 -10.4 L 12 -7.45 " />
<path id= "11" d=" M 4 -10.4 L 12 -10.4 " />
<path id= "12" d=" M 4 -7.45 L 4 -10.4 " />
<path id= "13" d=" M 4 -7.45 L 2.95 -7.45 " />
<path id= "14" d=" M 2.95 -22.45 L 2.95 -7.45 " />
<path id= "15" d=" M 1.68754e-014 -22.45 L 2.95 -22.45 " />
<path id= "16" d=" M 1.68754e-014 -7.45 L 1.68754e-014 -22.45 " />
<path id= "17" d=" M 7.10543e-015 -7.45 L -4 -7.45 " />
<path id= "18" d=" M -4 -10.4 L -4 -7.45 " />
<path id= "19" d=" M -12 -10.4 L -4 -10.4 " />
<path id= "20" d=" M -12 -10.4 L -12 -17.4 " />
<path id= "21" d=" M -12 -17.4 L -9 -21.4 " />
<path id= "22" d=" M -9 -21.4 L -9 -47.725 " />
<path id= "23" d=" M -9 -47.725 L -10.5 -49.225 " />
<path id= "24" d=" M -10.5 -49.225 L -10.5 -64.225 " />
<path id= "25" d=" M -10.5 -64.225 L -9 -65.725 " />
<path id= "26" d=" M -9 -65.725 L -9 -92.05 " />
<path id= "27" d=" M -9 -92.05 L -12 -96.05 " />
<path id= "28" d=" M -12 -96.05 L -12 -103.05 " />
<path id= "29" d=" M -4 -103.05 L -12 -103.05 " />
<path id= "30" d=" M -4 -106 L -4 -103.05 " />
<path id= "31" d=" M -4 -106 L 2.13163e-014 -106 " />
<path id= "32" d=" M 1.68754e-014 -91 L 1.68754e-014 -106 " />
<path id= "33" d=" M 2.95 -91 L 1.59872e-014 -91 " />
<path id= "34" d=" M 2.95 -106 L 2.95 -91 " />
<path id= "35" d=" M 2.95 -106 L 4 -106 " />
<path id= "36" d=" M 4 -103.05 L 4 -106 " />
<path id= "37" d=" M 12 -103.05 L 4 -103.05 " />
<path id= "38" d=" M 12 -106 L 12 -103.05 " />
<path id= "39" d=" M 12 -106 L 20 -106 " />
<path id= "40" d=" M 20 -103.05 L 20 -106 " />
</g>
</g>



<g id="Ortho_0_006"
   transform="rotate(-90,22.225,245.55) translate(22.225,245.55) scale(1,1)"
  >
<g   stroke="rgb(0, 0, 0)"
   stroke-width="0.35"
   stroke-linecap="butt"
   stroke-linejoin="miter"
   fill="none"
   transform="scale(1,-1)"
  >
<path id= "1" d=" M 28.05 10.45 L 28.05 0.45 " />
<path id= "2" d=" M 28.05 0.45 L 25.05 -3.55 " />
<path id= "3" d=" M 25.05 -3.55 L 25.05 -92 " />
<path id= "4" d=" M 25.05 -92 L 28.05 -96 " />
<path id= "5" d=" M 28.05 -96 L 28.05 -106 " />
<path id= "6" d=" M 28.05 -106 L 20.05 -106 " />
<path id= "7" d=" M 20.05 -103.05 L 20.05 -106 " />
<path id= "8" d=" M 12.05 -103.05 L 20.05 -103.05 " />
<path id= "9" d=" M 12.05 -106 L 12.05 -103.05 " />
<path id= "10" d=" M 12.05 -106 L 4.05 -106 " />
<path id= "11" d=" M 4.05 -103.05 L 4.05 -106 " />
<path id= "12" d=" M 3 -103.05 L 4.05 -103.05 " />
<path id= "13" d=" M 3 -91 L 3 -103.05 " />
<path id= "14" d=" M 0.05 -91 L 3 -91 " />
<path id= "15" d=" M 0.05 -103.05 L 0.05 -91 " />
<path id= "16" d=" M -3.95 -103.05 L 0.05 -103.05 " />
<path id= "17" d=" M -3.95 -106 L -3.95 -103.05 " />
<path id= "18" d=" M -3.95 -106 L -11.95 -106 " />
<path id= "19" d=" M -11.95 -106 L -11.95 -96 " />
<path id= "20" d=" M -8.95 -92 L -11.95 -96 " />
<path id= "21" d=" M -8.95 -54.275 L -8.95 -92 " />
<path id= "22" d=" M -10.45 -52.775 L -8.95 -54.275 " />
<path id= "23" d=" M -10.45 -42.775 L -10.45 -52.775 " />
<path id= "24" d=" M -8.95 -41.275 L -10.45 -42.775 " />
<path id= "25" d=" M -8.95 -3.55 L -8.95 -41.275 " />
<path id= "26" d=" M -11.95 0.45 L -8.95 -3.55 " />
<path id= "27" d=" M -11.95 0.45 L -11.95 10.45 " />
<path id= "28" d=" M -11.95 10.45 L -3.95 10.45 " />
<path id= "29" d=" M -3.95 7.5 L -3.95 10.45 " />
<path id= "30" d=" M 0.05 7.5 L -3.95 7.5 " />
<path id= "31" d=" M 0.05 -4.55 L 0.05 7.5 " />
<path id= "32" d=" M 3 -4.55 L 0.05 -4.55 " />
<path id= "33" d=" M 3 7.5 L 3 -4.55 " />
<path id= "34" d=" M 4.05 7.5 L 3 7.5 " />
<path id= "35" d=" M 4.05 10.45 L 4.05 7.5 " />
<path id= "36" d=" M 4.05 10.45 L 12.05 10.45 " />
<path id= "37" d=" M 12.05 7.5 L 12.05 10.45 " />
<path id= "38" d=" M 20.05 7.5 L 12.05 7.5 " />
<path id= "39" d=" M 20.05 10.45 L 20.05 7.5 " />
<path id= "40" d=" M 20.05 10.45 L 28.05 10.45 " />
</g>
</g>



<g id="Ortho_0_0"
   transform="rotate(0,300,120) translate(300,120) scale(1,1)"
  >
<g   stroke="rgb(0, 0, 0)"
   stroke-width="0.35"
   stroke-linecap="butt"
   stroke-linejoin="miter"
   fill="none"
   transform="scale(1,-1)"
  >
<path id= "1" d=" M -106 106 L -91 106 " />
<path id= "2" d=" M -91 103.05 L -91 106 " />
<path id= "3" d=" M -106 91 L -106 106 " />
<path id= "4" d=" M -106 91 L -103.05 91 " />
<path id= "5" d=" M 91 103.05 L -91 103.05 " />
<path id= "6" d=" M -103.05 91 L -103.05 4.55 " />
<path id= "7" d=" M 91 106 L 91 103.05 " />
<path id= "8" d=" M -103.05 4.55 L -106 4.55 " />
<path id= "9" d=" M 91 106 L 106 106 " />
<path id= "10" d=" M -106 -10.45 L -106 4.55 " />
<path id= "11" d=" M 106 106 L 106 91 " />
<path id= "12" d=" M -91 -10.45 L -106 -10.45 " />
<path id= "13" d=" M 103.05 91 L 106 91 " />
<path id= "14" d=" M -91 -10.45 L -91 -7.5 " />
<path id= "15" d=" M 103.05 -91 L 103.05 91 " />
<path id= "16" d=" M -91 -7.5 L -22.5 -7.5 " />
<path id= "17" d=" M 106 -91 L 103.05 -91 " />
<path id= "18" d=" M -22.5 -7.5 L -22.5 -10.45 " />
<path id= "19" d=" M 106 -91 L 106 -106 " />
<path id= "20" d=" M -10.45 -10.45 L -22.5 -10.45 " />
<path id= "21" d=" M 106 -106 L 91 -106 " />
<path id= "22" d=" M -10.45 -22.5 L -10.45 -10.45 " />
<path id= "23" d=" M 91 -103.05 L 91 -106 " />
<path id= "24" d=" M -10.45 -22.5 L -7.5 -22.5 " />
<path id= "25" d=" M 4.55 -103.05 L 91 -103.05 " />
<path id= "26" d=" M -7.5 -22.5 L -7.5 -91 " />
<path id= "27" d=" M 4.55 -106 L 4.55 -103.05 " />
<path id= "28" d=" M -7.5 -91 L -10.45 -91 " />
<path id= "29" d=" M 4.55 -106 L -10.45 -106 " />
<path id= "30" d=" M -10.45 -106 L -10.45 -91 " />
<path id= "31" d=" M 88.05 -88.05 L 7.5 -88.05 " />
<path id= "32" d=" M 88.05 88.05 L 88.05 -88.05 " />
<path id= "33" d=" M -88.05 88.05 L 88.05 88.05 " />
<path id= "34" d=" M -88.05 7.5 L -88.05 88.05 " />
<path id= "35" d=" M 7.5 7.5 L -88.05 7.5 " />
<path id= "36" d=" M 7.5 -88.05 L 7.5 7.5 " />
<path id= "37" d=" M 1.55 1.55 L 1.55 -1.45 " />
<path id= "38" d=" M -1.45 1.55 L 1.55 1.55 " />
<path id= "39" d=" M 1.55 -1.45 L -1.45 -1.45 " />
<path id= "40" d=" M -1.45 -1.45 L -1.45 1.55 " />
<path id= "41" d=" M -94 97 L -94 94 " />
<path id= "42" d=" M -97 97 L -94 97 " />
<path id= "43" d=" M -94 94 L -97 94 " />
<path id= "44" d=" M -97 94 L -97 97 " />
<path id= "45" d=" M -94 1.55 L -94 -1.45 " />
<path id= "46" d=" M -97 1.55 L -94 1.55 " />
<path id= "47" d=" M -94 -1.45 L -97 -1.45 " />
<path id= "48" d=" M -97 -1.45 L -97 1.55 " />
<path id= "49" d=" M 97 -97 L 94 -97 " />
<path id= "50" d=" M 97 -94 L 97 -97 " />
<path id= "51" d=" M 94 -97 L 94 -94 " />
<path id= "52" d=" M 94 -94 L 97 -94 " />
<path id= "53" d=" M 1.55 -97 L -1.45 -97 " />
<path id= "54" d=" M 1.55 -94 L 1.55 -97 " />
<path id= "55" d=" M -1.45 -97 L -1.45 -94 " />
<path id= "56" d=" M -1.45 -94 L 1.55 -94 " />
<path id= "57" d=" M 97 97 L 97 94 " />
<path id= "58" d=" M 94 97 L 97 97 " />
<path id= "59" d=" M 97 94 L 94 94 " />
<path id= "60" d=" M 94 94 L 94 97 " />
<path id= "61" d=" M -88.05 7.5 L -88.05 88.05 " />
<path id= "62" d=" M 7.5 -88.05 L 7.5 7.5 " />
</g>
</g>



</svg>

