  0
SECTION
  2
HEADER
  9
$ACADVER
  1
AC1014
  9
$HANDSEED
  5
FFFF
  9
$MEASUREMENT
 70
     1
  0
ENDSEC
  0
SECTION
  2
TABLES
  0
TABLE
  2
VPORT
  5
8
330
0
100
AcDbSymbolTable
 70
     4
  0
VPORT
  5
2E
330
8
100
AcDbSymbolTableRecord
100
AcDbViewportTableRecord
  2
*ACTIVE
 70
     0
 10
0.0
 20
0.0
 11
1.0
 21
1.0
 12
210.0
 22
148.5
 13
0.0
 23
0.0
 14
10.0
 24
10.0
 15
10.0
 25
10.0
 16
0.0
 26
0.0
 36
1.0
 17
0.0
 27
0.0
 37
0.0
 40
341.0
 41
1.24
 42
50.0
 43
0.0
 44
0.0
 50
0.0
 51
0.0
 71
     0
 72
   100
 73
     1
 74
     3
 75
     0
 76
     0
 77
     0
 78
     0
  0
ENDTAB
  0
TABLE
  2
LTYPE
  5
5
330
0
100
AcDbSymbolTable
 70
     1
  0
LTYPE
  5
14
330
5
100
AcDbSymbolTableRecord
100
AcDbLinetypeTableRecord
  2
BYBLOCK
 70
     0
  3

 72
    65
 73
     0
 40
0.0
  0
LTYPE
  5
15
330
5
100
AcDbSymbolTableRecord
100
AcDbLinetypeTableRecord
  2
BYLAYER
 70
     0
  3

 72
    65
 73
     0
 40
0.0
  0
LTYPE
  5
16
330
5
100
AcDbSymbolTableRecord
100
AcDbLinetypeTableRecord
  2
CONTINUOUS
 70
     0
  3
Solid line
 72
    65
 73
     0
 40
0.0
  0
ENDTAB
  0
TABLE
  2
LAYER
  5
2
100
AcDbSymbolTable
 70
4
  0
LAYER
  5
50
100
AcDbSymbolTableRecord
100
AcDbLayerTableRecord
  2
0
 70
0
  6
CONTINUOUS
  0
LAYER
  5
51
100
AcDbSymbolTableRecord
100
AcDbLayerTableRecord
  2
Gravure
 70
0
  6
CONTINUOUS
  0
LAYER
  5
52
100
AcDbSymbolTableRecord
100
AcDbLayerTableRecord
  2
Découpe_1
 70
0
  6
CONTINUOUS
  0
LAYER
  5
53
100
AcDbSymbolTableRecord
100
AcDbLayerTableRecord
  2
Découpe_2
 70
0
  6
CONTINUOUS
  0
ENDTAB
  0
TABLE
  2
STYLE
  5
3
330
0
100
AcDbSymbolTable
 70
     1
  0
STYLE
  5
11
330
3
100
AcDbSymbolTableRecord
100
AcDbTextStyleTableRecord
  2
STANDARD
 70
     0
 40
0.0
 41
1.0
 50
0.0
 71
     0
 42
2.5
  3
txt
  4

  0
ENDTAB
  0
TABLE
  2
VIEW
  5
6
330
0
100
AcDbSymbolTable
 70
     0
  0
ENDTAB
  0
TABLE
  2
UCS
  5
7
330
0
100
AcDbSymbolTable
 70
     0
  0
ENDTAB
  0
TABLE
  2
APPID
  5
9
330
0
100
AcDbSymbolTable
 70
     2
  0
APPID
  5
12
330
9
100
AcDbSymbolTableRecord
100
AcDbRegAppTableRecord
  2
ACAD
 70
     0
  0
ENDTAB
  0
TABLE
  2
DIMSTYLE
  5
A
330
0
100
AcDbSymbolTable
 70
     1
  0
DIMSTYLE
105
27
330
A
100
AcDbSymbolTableRecord
100
AcDbDimStyleTableRecord
  2
ISO-25
 70
     0
  3

  4

  5

  6

  7

 40
1.0
 41
2.5
 42
0.625
 43
3.75
 44
1.25
 45
0.0
 46
0.0
 47
0.0
 48
0.0
140
2.5
141
2.5
142
0.0
143
0.03937007874016
144
1.0
145
0.0
146
1.0
147
0.625
 71
     0
 72
     0
 73
     0
 74
     0
 75
     0
 76
     0
 77
     1
 78
     8
170
     0
171
     3
172
     1
173
     0
174
     0
175
     0
176
     0
177
     0
178
     0
270
     2
271
     2
272
     2
273
     2
274
     3
340
11
275
     0
280
     0
281
     0
282
     0
283
     0
284
     8
285
     0
286
     0
287
     3
288
     0
  0
ENDTAB
  0
TABLE
  2
BLOCK_RECORD
  5
1
330
0
100
AcDbSymbolTable
 70
     1
  0
BLOCK_RECORD
  5
1F
330
1
100
AcDbSymbolTableRecord
100
AcDbBlockTableRecord
  2
*MODEL_SPACE
  0
BLOCK_RECORD
  5
1B
330
1
100
AcDbSymbolTableRecord
100
AcDbBlockTableRecord
  2
*PAPER_SPACE
  0
ENDTAB
  0
ENDSEC
  0
SECTION
  2
BLOCKS
  0
BLOCK
  5
20
330
1F
100
AcDbEntity
  8
0
100
AcDbBlockBegin
  2
*MODEL_SPACE
 70
     0
 10
0.0
 20
0.0
 30
0.0
  3
*MODEL_SPACE
  1

  0
ENDBLK
  5
21
330
1F
100
AcDbEntity
  8
0
100
AcDbBlockEnd
  0
BLOCK
  5
1C
330
1B
100
AcDbEntity
 67
     1
  8
0
100
AcDbBlockBegin
  2
*PAPER_SPACE
  1

  0
ENDBLK
  5
1D
330
1B
100
AcDbEntity
 67
     1
  8
0
100
AcDbBlockEnd
  0
ENDSEC
  0
SECTION
  2
ENTITIES
  0
LWPOLYLINE
  5
100
100
AcDbEntity
  8
Gravure
 62
3
100
AcDbPolyline
 90
7
 70
0
 10
222.674435
 20
273.516576
 30
0.0
 10
222.674435
 20
264.521844
 30
0.0
 10
227.316217
 20
261.841837
 30
0.0
 10
239.752737
 20
269.021966
 30
0.0
 10
239.752737
 20
273.516576
 30
0.0
 10
222.674435
 20
273.516576
 30
0.0
 10
222.674435
 20
273.516576
 30
0.0
  0
LWPOLYLINE
  5
101
100
AcDbEntity
  8
Gravure
 62
3
100
AcDbPolyline
 90
7
 70
0
 10
240.458843
 20
273.516576
 30
0.0
 10
240.458843
 20
269.021966
 30
0.0
 10
252.894810
 20
261.841837
 30
0.0
 10
265.331330
 20
269.021966
 30
0.0
 10
265.331330
 20
273.516576
 30
0.0
 10
240.458843
 20
273.516576
 30
0.0
 10
240.458843
 20
273.516576
 30
0.0
  0
LWPOLYLINE
  5
102
100
AcDbEntity
  8
Gravure
 62
3
100
AcDbPolyline
 90
7
 70
0
 10
266.037436
 20
273.516576
 30
0.0
 10
266.037436
 20
269.021966
 30
0.0
 10
278.473956
 20
261.841837
 30
0.0
 10
290.910487
 20
269.021966
 30
0.0
 10
290.910487
 20
273.516576
 30
0.0
 10
266.037436
 20
273.516576
 30
0.0
 10
266.037436
 20
273.516576
 30
0.0
  0
LWPOLYLINE
  5
103
100
AcDbEntity
  8
Gravure
 62
3
100
AcDbPolyline
 90
7
 70
0
 10
291.616043
 20
273.516576
 30
0.0
 10
291.616043
 20
269.021966
 30
0.0
 10
304.052560
 20
261.841837
 30
0.0
 10
316.489078
 20
269.021966
 30
0.0
 10
316.489078
 20
273.516576
 30
0.0
 10
291.616043
 20
273.516576
 30
0.0
 10
291.616043
 20
273.516576
 30
0.0
  0
LWPOLYLINE
  5
104
100
AcDbEntity
  8
Gravure
 62
3
100
AcDbPolyline
 90
7
 70
0
 10
317.194633
 20
273.516576
 30
0.0
 10
317.194633
 20
269.021966
 30
0.0
 10
329.631150
 20
261.841837
 30
0.0
 10
342.067668
 20
269.021966
 30
0.0
 10
342.067668
 20
273.516576
 30
0.0
 10
317.194633
 20
273.516576
 30
0.0
 10
317.194633
 20
273.516576
 30
0.0
  0
LWPOLYLINE
  5
105
100
AcDbEntity
  8
Gravure
 62
3
100
AcDbPolyline
 90
7
 70
0
 10
342.773223
 20
273.516576
 30
0.0
 10
342.773223
 20
269.021966
 30
0.0
 10
355.209740
 20
261.841837
 30
0.0
 10
367.646258
 20
269.021966
 30
0.0
 10
367.646258
 20
273.516576
 30
0.0
 10
342.773223
 20
273.516576
 30
0.0
 10
342.773223
 20
273.516576
 30
0.0
  0
LWPOLYLINE
  5
106
100
AcDbEntity
  8
Gravure
 62
3
100
AcDbPolyline
 90
7
 70
0
 10
368.351813
 20
273.516576
 30
0.0
 10
368.351813
 20
269.021966
 30
0.0
 10
380.788330
 20
261.841837
 30
0.0
 10
393.224848
 20
269.021966
 30
0.0
 10
393.224848
 20
273.516576
 30
0.0
 10
368.351813
 20
273.516576
 30
0.0
 10
368.351813
 20
273.516576
 30
0.0
  0
LWPOLYLINE
  5
107
100
AcDbEntity
  8
Gravure
 62
3
100
AcDbPolyline
 90
6
 70
0
 10
393.930968
 20
273.516576
 30
0.0
 10
393.930968
 20
269.021966
 30
0.0
 10
398.774494
 20
266.225651
 30
0.0
 10
398.774494
 20
273.516576
 30
0.0
 10
393.930968
 20
273.516576
 30
0.0
 10
393.930968
 20
273.516576
 30
0.0
  0
LWPOLYLINE
  5
108
100
AcDbEntity
  8
Gravure
 62
3
100
AcDbPolyline
 90
8
 70
0
 10
239.908730
 20
267.842917
 30
0.0
 10
227.472763
 20
260.662786
 30
0.0
 10
227.472763
 20
246.302526
 30
0.0
 10
239.908730
 20
239.121845
 30
0.0
 10
252.345250
 20
246.302526
 30
0.0
 10
252.345250
 20
260.662786
 30
0.0
 10
239.908730
 20
267.842917
 30
0.0
 10
239.908730
 20
267.842917
 30
0.0
  0
LWPOLYLINE
  5
109
100
AcDbEntity
  8
Gravure
 62
3
100
AcDbPolyline
 90
8
 70
0
 10
265.487876
 20
267.842917
 30
0.0
 10
253.051356
 20
260.662786
 30
0.0
 10
253.051356
 20
246.302526
 30
0.0
 10
265.487876
 20
239.121845
 30
0.0
 10
277.924393
 20
246.302526
 30
0.0
 10
277.924393
 20
260.662786
 30
0.0
 10
265.487876
 20
267.842917
 30
0.0
 10
265.487876
 20
267.842917
 30
0.0
  0
LWPOLYLINE
  5
10a
100
AcDbEntity
  8
Gravure
 62
3
100
AcDbPolyline
 90
8
 70
0
 10
291.066472
 20
267.842917
 30
0.0
 10
278.629949
 20
260.662786
 30
0.0
 10
278.629949
 20
246.302526
 30
0.0
 10
291.066472
 20
239.121845
 30
0.0
 10
303.502989
 20
246.302526
 30
0.0
 10
303.502989
 20
260.662786
 30
0.0
 10
291.066472
 20
267.842917
 30
0.0
 10
291.066472
 20
267.842917
 30
0.0
  0
LWPOLYLINE
  5
10b
100
AcDbEntity
  8
Gravure
 62
3
100
AcDbPolyline
 90
8
 70
0
 10
316.645062
 20
267.842917
 30
0.0
 10
304.208544
 20
260.662786
 30
0.0
 10
304.208544
 20
246.302526
 30
0.0
 10
316.645062
 20
239.121845
 30
0.0
 10
329.081579
 20
246.302526
 30
0.0
 10
329.081579
 20
260.662786
 30
0.0
 10
316.645062
 20
267.842917
 30
0.0
 10
316.645062
 20
267.842917
 30
0.0
  0
LWPOLYLINE
  5
10c
100
AcDbEntity
  8
Gravure
 62
3
100
AcDbPolyline
 90
8
 70
0
 10
342.223652
 20
267.842917
 30
0.0
 10
329.787135
 20
260.662786
 30
0.0
 10
329.787135
 20
246.302526
 30
0.0
 10
342.223652
 20
239.121845
 30
0.0
 10
354.660169
 20
246.302526
 30
0.0
 10
354.660169
 20
260.662786
 30
0.0
 10
342.223652
 20
267.842917
 30
0.0
 10
342.223652
 20
267.842917
 30
0.0
  0
LWPOLYLINE
  5
10d
100
AcDbEntity
  8
Gravure
 62
3
100
AcDbPolyline
 90
8
 70
0
 10
367.802242
 20
267.842917
 30
0.0
 10
355.365725
 20
260.662786
 30
0.0
 10
355.365725
 20
246.302526
 30
0.0
 10
367.802242
 20
239.121845
 30
0.0
 10
380.238759
 20
246.302526
 30
0.0
 10
380.238759
 20
260.662786
 30
0.0
 10
367.802242
 20
267.842917
 30
0.0
 10
367.802242
 20
267.842917
 30
0.0
  0
LWPOLYLINE
  5
10e
100
AcDbEntity
  8
Gravure
 62
3
100
AcDbPolyline
 90
8
 70
0
 10
393.380832
 20
267.842917
 30
0.0
 10
380.944879
 20
260.662786
 30
0.0
 10
380.944879
 20
246.302526
 30
0.0
 10
393.380832
 20
239.121845
 30
0.0
 10
398.774494
 20
242.236212
 30
0.0
 10
398.774494
 20
264.729103
 30
0.0
 10
393.380832
 20
267.842917
 30
0.0
 10
393.380832
 20
267.842917
 30
0.0
  0
LWPOLYLINE
  5
10f
100
AcDbEntity
  8
Gravure
 62
3
100
AcDbPolyline
 90
6
 70
0
 10
222.674435
 20
263.025296
 30
0.0
 10
222.674435
 20
243.939465
 30
0.0
 10
226.766657
 20
246.302526
 30
0.0
 10
226.766657
 20
260.662786
 30
0.0
 10
222.674435
 20
263.025296
 30
0.0
 10
222.674435
 20
263.025296
 30
0.0
  0
LWPOLYLINE
  5
110
100
AcDbEntity
  8
Gravure
 62
3
100
AcDbPolyline
 90
8
 70
0
 10
226.922650
 20
245.122925
 30
0.0
 10
222.674435
 20
242.670018
 30
0.0
 10
222.674435
 20
218.855315
 30
0.0
 10
226.922650
 20
216.402406
 30
0.0
 10
239.359170
 20
223.582537
 30
0.0
 10
239.359170
 20
237.942796
 30
0.0
 10
226.922650
 20
245.122925
 30
0.0
 10
226.922650
 20
245.122925
 30
0.0
  0
LWPOLYLINE
  5
111
100
AcDbEntity
  8
Gravure
 62
3
100
AcDbPolyline
 90
8
 70
0
 10
252.501796
 20
245.122925
 30
0.0
 10
240.065276
 20
237.942796
 30
0.0
 10
240.065276
 20
223.582537
 30
0.0
 10
252.501796
 20
216.402406
 30
0.0
 10
264.937763
 20
223.582537
 30
0.0
 10
264.937763
 20
237.942796
 30
0.0
 10
252.501796
 20
245.122925
 30
0.0
 10
252.501796
 20
245.122925
 30
0.0
  0
LWPOLYLINE
  5
112
100
AcDbEntity
  8
Gravure
 62
3
100
AcDbPolyline
 90
8
 70
0
 10
278.080389
 20
245.122925
 30
0.0
 10
265.643869
 20
237.942796
 30
0.0
 10
265.643869
 20
223.582537
 30
0.0
 10
278.080389
 20
216.402406
 30
0.0
 10
290.516900
 20
223.582537
 30
0.0
 10
290.516900
 20
237.942796
 30
0.0
 10
278.080389
 20
245.122925
 30
0.0
 10
278.080389
 20
245.122925
 30
0.0
  0
LWPOLYLINE
  5
113
100
AcDbEntity
  8
Gravure
 62
3
100
AcDbPolyline
 90
8
 70
0
 10
303.658973
 20
245.122925
 30
0.0
 10
291.222456
 20
237.942796
 30
0.0
 10
291.222456
 20
223.582537
 30
0.0
 10
303.658973
 20
216.402406
 30
0.0
 10
316.095490
 20
223.582537
 30
0.0
 10
316.095490
 20
237.942796
 30
0.0
 10
303.658973
 20
245.122925
 30
0.0
 10
303.658973
 20
245.122925
 30
0.0
  0
LWPOLYLINE
  5
114
100
AcDbEntity
  8
Gravure
 62
3
100
AcDbPolyline
 90
8
 70
0
 10
329.237563
 20
245.122925
 30
0.0
 10
316.801046
 20
237.942796
 30
0.0
 10
316.801046
 20
223.582537
 30
0.0
 10
329.237563
 20
216.402406
 30
0.0
 10
341.674080
 20
223.582537
 30
0.0
 10
341.674080
 20
237.942796
 30
0.0
 10
329.237563
 20
245.122925
 30
0.0
 10
329.237563
 20
245.122925
 30
0.0
  0
LWPOLYLINE
  5
115
100
AcDbEntity
  8
Gravure
 62
3
100
AcDbPolyline
 90
8
 70
0
 10
354.816181
 20
245.122925
 30
0.0
 10
342.379636
 20
237.942796
 30
0.0
 10
342.379636
 20
223.582537
 30
0.0
 10
354.816181
 20
216.402406
 30
0.0
 10
367.252699
 20
223.582537
 30
0.0
 10
367.252699
 20
237.942796
 30
0.0
 10
354.816181
 20
245.122925
 30
0.0
 10
354.816181
 20
245.122925
 30
0.0
  0
LWPOLYLINE
  5
116
100
AcDbEntity
  8
Gravure
 62
3
100
AcDbPolyline
 90
8
 70
0
 10
380.394771
 20
245.122925
 30
0.0
 10
367.958790
 20
237.942796
 30
0.0
 10
367.958790
 20
223.582537
 30
0.0
 10
380.394771
 20
216.402406
 30
0.0
 10
392.831289
 20
223.582537
 30
0.0
 10
392.831289
 20
237.942796
 30
0.0
 10
380.394771
 20
245.122925
 30
0.0
 10
380.394771
 20
245.122925
 30
0.0
  0
LWPOLYLINE
  5
117
100
AcDbEntity
  8
Gravure
 62
3
100
AcDbPolyline
 90
6
 70
0
 10
398.774494
 20
240.966212
 30
0.0
 10
393.537380
 20
237.942796
 30
0.0
 10
393.537380
 20
223.582537
 30
0.0
 10
398.774494
 20
220.559118
 30
0.0
 10
398.774494
 20
240.966212
 30
0.0
 10
398.774494
 20
240.966212
 30
0.0
  0
LWPOLYLINE
  5
118
100
AcDbEntity
  8
Gravure
 62
3
100
AcDbPolyline
 90
8
 70
0
 10
239.515713
 20
222.403486
 30
0.0
 10
227.079196
 20
215.223354
 30
0.0
 10
227.079196
 20
200.862545
 30
0.0
 10
239.515713
 20
193.682413
 30
0.0
 10
251.951683
 20
200.862545
 30
0.0
 10
251.951683
 20
215.223354
 30
0.0
 10
239.515713
 20
222.403486
 30
0.0
 10
239.515713
 20
222.403486
 30
0.0
  0
LWPOLYLINE
  5
119
100
AcDbEntity
  8
Gravure
 62
3
100
AcDbPolyline
 90
8
 70
0
 10
265.094309
 20
222.403486
 30
0.0
 10
252.657789
 20
215.223354
 30
0.0
 10
252.657789
 20
200.862545
 30
0.0
 10
265.094309
 20
193.682413
 30
0.0
 10
277.530826
 20
200.862545
 30
0.0
 10
277.530826
 20
215.223354
 30
0.0
 10
265.094309
 20
222.403486
 30
0.0
 10
265.094309
 20
222.403486
 30
0.0
  0
LWPOLYLINE
  5
11a
100
AcDbEntity
  8
Gravure
 62
3
100
AcDbPolyline
 90
8
 70
0
 10
290.672913
 20
222.403486
 30
0.0
 10
278.236381
 20
215.223354
 30
0.0
 10
278.236381
 20
200.862545
 30
0.0
 10
290.672913
 20
193.682413
 30
0.0
 10
303.109430
 20
200.862545
 30
0.0
 10
303.109430
 20
215.223354
 30
0.0
 10
290.672913
 20
222.403486
 30
0.0
 10
290.672913
 20
222.403486
 30
0.0
  0
LWPOLYLINE
  5
11b
100
AcDbEntity
  8
Gravure
 62
3
100
AcDbPolyline
 90
8
 70
0
 10
316.251503
 20
222.403486
 30
0.0
 10
303.814986
 20
215.223354
 30
0.0
 10
303.814986
 20
200.862545
 30
0.0
 10
316.251503
 20
193.682413
 30
0.0
 10
328.688020
 20
200.862545
 30
0.0
 10
328.688020
 20
215.223354
 30
0.0
 10
316.251503
 20
222.403486
 30
0.0
 10
316.251503
 20
222.403486
 30
0.0
  0
LWPOLYLINE
  5
11c
100
AcDbEntity
  8
Gravure
 62
3
100
AcDbPolyline
 90
8
 70
0
 10
341.830093
 20
222.403486
 30
0.0
 10
329.393576
 20
215.223354
 30
0.0
 10
329.393576
 20
200.862545
 30
0.0
 10
341.830093
 20
193.682413
 30
0.0
 10
354.266610
 20
200.862545
 30
0.0
 10
354.266610
 20
215.223354
 30
0.0
 10
341.830093
 20
222.403486
 30
0.0
 10
341.830093
 20
222.403486
 30
0.0
  0
LWPOLYLINE
  5
11d
100
AcDbEntity
  8
Gravure
 62
3
100
AcDbPolyline
 90
8
 70
0
 10
367.408683
 20
222.403486
 30
0.0
 10
354.972166
 20
215.223354
 30
0.0
 10
354.972166
 20
200.862545
 30
0.0
 10
367.408683
 20
193.682413
 30
0.0
 10
379.845200
 20
200.862545
 30
0.0
 10
379.845200
 20
215.223354
 30
0.0
 10
367.408683
 20
222.403486
 30
0.0
 10
367.408683
 20
222.403486
 30
0.0
  0
LWPOLYLINE
  5
11e
100
AcDbEntity
  8
Gravure
 62
3
100
AcDbPolyline
 90
8
 70
0
 10
392.987837
 20
222.403486
 30
0.0
 10
380.551320
 20
215.223354
 30
0.0
 10
380.551320
 20
200.862545
 30
0.0
 10
392.987837
 20
193.682413
 30
0.0
 10
398.774494
 20
197.023329
 30
0.0
 10
398.774494
 20
219.062570
 30
0.0
 10
392.987837
 20
222.403486
 30
0.0
 10
392.987837
 20
222.403486
 30
0.0
  0
LWPOLYLINE
  5
11f
100
AcDbEntity
  8
Gravure
 62
3
100
AcDbPolyline
 90
6
 70
0
 10
222.674435
 20
217.358763
 30
0.0
 10
222.674435
 20
198.727135
 30
0.0
 10
226.373090
 20
200.862545
 30
0.0
 10
226.373090
 20
215.223354
 30
0.0
 10
222.674435
 20
217.358763
 30
0.0
 10
222.674435
 20
217.358763
 30
0.0
  0
LWPOLYLINE
  5
120
100
AcDbEntity
  8
Gravure
 62
3
100
AcDbPolyline
 90
6
 70
0
 10
226.529633
 20
199.683493
 30
0.0
 10
222.674435
 20
197.457689
 30
0.0
 10
222.674435
 20
192.966384
 30
0.0
 10
238.163584
 20
192.966384
 30
0.0
 10
226.529633
 20
199.683493
 30
0.0
 10
226.529633
 20
199.683493
 30
0.0
  0
LWPOLYLINE
  5
121
100
AcDbEntity
  8
Gravure
 62
3
100
AcDbPolyline
 90
5
 70
0
 10
252.108229
 20
199.683493
 30
0.0
 10
240.473728
 20
192.966384
 30
0.0
 10
263.742727
 20
192.966384
 30
0.0
 10
252.108229
 20
199.683493
 30
0.0
 10
252.108229
 20
199.683493
 30
0.0
  0
LWPOLYLINE
  5
122
100
AcDbEntity
  8
Gravure
 62
3
100
AcDbPolyline
 90
5
 70
0
 10
277.686821
 20
199.683493
 30
0.0
 10
266.052320
 20
192.966384
 30
0.0
 10
289.321322
 20
192.966384
 30
0.0
 10
277.686821
 20
199.683493
 30
0.0
 10
277.686821
 20
199.683493
 30
0.0
  0
LWPOLYLINE
  5
123
100
AcDbEntity
  8
Gravure
 62
3
100
AcDbPolyline
 90
5
 70
0
 10
303.265414
 20
199.683493
 30
0.0
 10
291.630916
 20
192.966384
 30
0.0
 10
314.899912
 20
192.966384
 30
0.0
 10
303.265414
 20
199.683493
 30
0.0
 10
303.265414
 20
199.683493
 30
0.0
  0
LWPOLYLINE
  5
124
100
AcDbEntity
  8
Gravure
 62
3
100
AcDbPolyline
 90
9
 70
0
 10
328.844004
 20
199.683493
 30
0.0
 10
317.209506
 20
192.966384
 30
0.0
 10
318.224293
 20
192.966384
 30
0.0
 10
318.224293
 20
177.094142
 30
0.0
 10
328.844004
 20
170.962974
 30
0.0
 10
341.280522
 20
178.143105
 30
0.0
 10
341.280522
 20
192.503365
 30
0.0
 10
328.844004
 20
199.683493
 30
0.0
 10
328.844004
 20
199.683493
 30
0.0
  0
LWPOLYLINE
  5
125
100
AcDbEntity
  8
Gravure
 62
3
100
AcDbPolyline
 90
8
 70
0
 10
354.422594
 20
199.683493
 30
0.0
 10
341.986077
 20
192.503365
 30
0.0
 10
341.986077
 20
178.143105
 30
0.0
 10
354.422594
 20
170.962974
 30
0.0
 10
366.859112
 20
178.143105
 30
0.0
 10
366.859112
 20
192.503365
 30
0.0
 10
354.422594
 20
199.683493
 30
0.0
 10
354.422594
 20
199.683493
 30
0.0
  0
LWPOLYLINE
  5
126
100
AcDbEntity
  8
Gravure
 62
3
100
AcDbPolyline
 90
8
 70
0
 10
380.001184
 20
199.683493
 30
0.0
 10
367.565232
 20
192.503365
 30
0.0
 10
367.565232
 20
178.143105
 30
0.0
 10
380.001184
 20
170.962974
 30
0.0
 10
392.437702
 20
178.143105
 30
0.0
 10
392.437702
 20
192.503365
 30
0.0
 10
380.001184
 20
199.683493
 30
0.0
 10
380.001184
 20
199.683493
 30
0.0
  0
LWPOLYLINE
  5
127
100
AcDbEntity
  8
Gravure
 62
3
100
AcDbPolyline
 90
6
 70
0
 10
398.774494
 20
195.754432
 30
0.0
 10
393.143822
 20
192.503365
 30
0.0
 10
393.143822
 20
178.143105
 30
0.0
 10
398.774494
 20
174.892035
 30
0.0
 10
398.774494
 20
195.754432
 30
0.0
 10
398.774494
 20
195.754432
 30
0.0
  0
LWPOLYLINE
  5
128
100
AcDbEntity
  8
Gravure
 62
3
100
AcDbPolyline
 90
8
 70
0
 10
341.436534
 20
176.964054
 30
0.0
 10
328.999989
 20
169.783373
 30
0.0
 10
328.999989
 20
155.423113
 30
0.0
 10
341.436534
 20
148.242982
 30
0.0
 10
353.873051
 20
155.423113
 30
0.0
 10
353.873051
 20
169.783373
 30
0.0
 10
341.436534
 20
176.964054
 30
0.0
 10
341.436534
 20
176.964054
 30
0.0
  0
LWPOLYLINE
  5
129
100
AcDbEntity
  8
Gravure
 62
3
100
AcDbPolyline
 90
8
 70
0
 10
367.015124
 20
176.964054
 30
0.0
 10
354.579143
 20
169.783373
 30
0.0
 10
354.579143
 20
155.423113
 30
0.0
 10
367.015124
 20
148.242982
 30
0.0
 10
379.451641
 20
155.423113
 30
0.0
 10
379.451641
 20
169.783373
 30
0.0
 10
367.015124
 20
176.964054
 30
0.0
 10
367.015124
 20
176.964054
 30
0.0
  0
LWPOLYLINE
  5
12a
100
AcDbEntity
  8
Gravure
 62
3
100
AcDbPolyline
 90
8
 70
0
 10
392.594250
 20
176.964054
 30
0.0
 10
380.157733
 20
169.783373
 30
0.0
 10
380.157733
 20
155.423113
 30
0.0
 10
392.594250
 20
148.242982
 30
0.0
 10
398.774494
 20
151.810999
 30
0.0
 10
398.774494
 20
173.395487
 30
0.0
 10
392.594250
 20
176.964054
 30
0.0
 10
392.594250
 20
176.964054
 30
0.0
  0
LWPOLYLINE
  5
12b
100
AcDbEntity
  8
Gravure
 62
3
100
AcDbPolyline
 90
6
 70
0
 10
318.224293
 20
175.597591
 30
0.0
 10
318.224293
 20
149.609446
 30
0.0
 10
328.294433
 20
155.423113
 30
0.0
 10
328.294433
 20
169.783373
 30
0.0
 10
318.224293
 20
175.597591
 30
0.0
 10
318.224293
 20
175.597591
 30
0.0
  0
LWPOLYLINE
  5
12c
100
AcDbEntity
  8
Gravure
 62
3
100
AcDbPolyline
 90
8
 70
0
 10
328.450445
 20
154.244065
 30
0.0
 10
318.224293
 20
148.339996
 30
0.0
 10
318.224293
 20
131.427059
 30
0.0
 10
328.450445
 20
125.522993
 30
0.0
 10
340.886963
 20
132.703121
 30
0.0
 10
340.886963
 20
147.063934
 30
0.0
 10
328.450445
 20
154.244065
 30
0.0
 10
328.450445
 20
154.244065
 30
0.0
  0
LWPOLYLINE
  5
12d
100
AcDbEntity
  8
Gravure
 62
3
100
AcDbPolyline
 90
8
 70
0
 10
354.029035
 20
154.244065
 30
0.0
 10
341.593054
 20
147.063934
 30
0.0
 10
341.593054
 20
132.703121
 30
0.0
 10
354.029035
 20
125.522993
 30
0.0
 10
366.465553
 20
132.703121
 30
0.0
 10
366.465553
 20
147.063934
 30
0.0
 10
354.029035
 20
154.244065
 30
0.0
 10
354.029035
 20
154.244065
 30
0.0
  0
LWPOLYLINE
  5
12e
100
AcDbEntity
  8
Gravure
 62
3
100
AcDbPolyline
 90
8
 70
0
 10
379.608190
 20
154.244065
 30
0.0
 10
367.171673
 20
147.063934
 30
0.0
 10
367.171673
 20
132.703121
 30
0.0
 10
379.608190
 20
125.522993
 30
0.0
 10
392.044143
 20
132.703121
 30
0.0
 10
392.044143
 20
147.063934
 30
0.0
 10
379.608190
 20
154.244065
 30
0.0
 10
379.608190
 20
154.244065
 30
0.0
  0
LWPOLYLINE
  5
12f
100
AcDbEntity
  8
Gravure
 62
3
100
AcDbPolyline
 90
6
 70
0
 10
398.774494
 20
150.542103
 30
0.0
 10
392.750263
 20
147.063934
 30
0.0
 10
392.750263
 20
132.703121
 30
0.0
 10
398.774494
 20
129.224952
 30
0.0
 10
398.774494
 20
150.542103
 30
0.0
 10
398.774494
 20
150.542103
 30
0.0
  0
LWPOLYLINE
  5
130
100
AcDbEntity
  8
Gravure
 62
3
100
AcDbPolyline
 90
8
 70
0
 10
341.042947
 20
131.524073
 30
0.0
 10
328.606430
 20
124.343942
 30
0.0
 10
328.606430
 20
109.983682
 30
0.0
 10
341.042947
 20
102.803551
 30
0.0
 10
353.479464
 20
109.983682
 30
0.0
 10
353.479464
 20
124.343942
 30
0.0
 10
341.042947
 20
131.524073
 30
0.0
 10
341.042947
 20
131.524073
 30
0.0
  0
LWPOLYLINE
  5
131
100
AcDbEntity
  8
Gravure
 62
3
100
AcDbPolyline
 90
8
 70
0
 10
366.622101
 20
131.524073
 30
0.0
 10
354.185584
 20
124.343942
 30
0.0
 10
354.185584
 20
109.983682
 30
0.0
 10
366.622101
 20
102.803551
 30
0.0
 10
379.058054
 20
109.983682
 30
0.0
 10
379.058054
 20
124.343942
 30
0.0
 10
366.622101
 20
131.524073
 30
0.0
 10
366.622101
 20
131.524073
 30
0.0
  0
LWPOLYLINE
  5
132
100
AcDbEntity
  8
Gravure
 62
3
100
AcDbPolyline
 90
8
 70
0
 10
392.200691
 20
131.524073
 30
0.0
 10
379.764174
 20
124.343942
 30
0.0
 10
379.764174
 20
109.983682
 30
0.0
 10
392.200691
 20
102.803551
 30
0.0
 10
398.774494
 20
106.598669
 30
0.0
 10
398.774494
 20
127.728954
 30
0.0
 10
392.200691
 20
131.524073
 30
0.0
 10
392.200691
 20
131.524073
 30
0.0
  0
LWPOLYLINE
  5
133
100
AcDbEntity
  8
Gravure
 62
3
100
AcDbPolyline
 90
6
 70
0
 10
318.224293
 20
129.930508
 30
0.0
 10
318.224293
 20
104.397116
 30
0.0
 10
327.900874
 20
109.983682
 30
0.0
 10
327.900874
 20
124.343942
 30
0.0
 10
318.224293
 20
129.930508
 30
0.0
 10
318.224293
 20
129.930508
 30
0.0
  0
LWPOLYLINE
  5
134
100
AcDbEntity
  8
Gravure
 62
3
100
AcDbPolyline
 90
7
 70
0
 10
328.056858
 20
108.804634
 30
0.0
 10
318.224293
 20
103.127666
 30
0.0
 10
318.224293
 20
97.416524
 30
0.0
 10
340.493404
 20
97.416524
 30
0.0
 10
340.493404
 20
101.623952
 30
0.0
 10
328.056858
 20
108.804634
 30
0.0
 10
328.056858
 20
108.804634
 30
0.0
  0
LWPOLYLINE
  5
135
100
AcDbEntity
  8
Gravure
 62
3
100
AcDbPolyline
 90
7
 70
0
 10
353.636013
 20
108.804634
 30
0.0
 10
341.199496
 20
101.623952
 30
0.0
 10
341.199496
 20
97.416524
 30
0.0
 10
366.071994
 20
97.416524
 30
0.0
 10
366.071994
 20
101.623952
 30
0.0
 10
353.636013
 20
108.804634
 30
0.0
 10
353.636013
 20
108.804634
 30
0.0
  0
LWPOLYLINE
  5
136
100
AcDbEntity
  8
Gravure
 62
3
100
AcDbPolyline
 90
7
 70
0
 10
379.214603
 20
108.804634
 30
0.0
 10
366.778086
 20
101.623952
 30
0.0
 10
366.778086
 20
97.416524
 30
0.0
 10
391.651120
 20
97.416524
 30
0.0
 10
391.651120
 20
101.623952
 30
0.0
 10
379.214603
 20
108.804634
 30
0.0
 10
379.214603
 20
108.804634
 30
0.0
  0
LWPOLYLINE
  5
137
100
AcDbEntity
  8
Gravure
 62
3
100
AcDbPolyline
 90
6
 70
0
 10
398.774494
 20
105.329773
 30
0.0
 10
392.356676
 20
101.623952
 30
0.0
 10
392.356676
 20
97.416524
 30
0.0
 10
398.774494
 20
97.416524
 30
0.0
 10
398.774494
 20
105.329773
 30
0.0
 10
398.774494
 20
105.329773
 30
0.0
  0
LWPOLYLINE
  5
138
100
AcDbEntity
  8
Découpe_1
 62
5
100
AcDbPolyline
 90
2
 70
0
 10
312.274360
 20
187.016600
 30
0.0
 10
312.274360
 20
184.016600
 30
0.0
  0
LWPOLYLINE
  5
139
100
AcDbEntity
  8
Découpe_1
 62
5
100
AcDbPolyline
 90
2
 70
0
 10
309.274360
 20
187.016600
 30
0.0
 10
312.274360
 20
187.016600
 30
0.0
  0
LWPOLYLINE
  5
13a
100
AcDbEntity
  8
Découpe_1
 62
5
100
AcDbPolyline
 90
3
 70
0
 10
312.274360
 20
184.016600
 30
0.0
 10
309.274360
 20
184.016600
 30
0.0
 10
309.274360
 20
187.016600
 30
0.0
  0
LWPOLYLINE
  5
13b
100
AcDbEntity
  8
Découpe_1
 62
5
100
AcDbPolyline
 90
2
 70
0
 10
216.724360
 20
187.016600
 30
0.0
 10
216.724360
 20
184.016600
 30
0.0
  0
LWPOLYLINE
  5
13c
100
AcDbEntity
  8
Découpe_1
 62
5
100
AcDbPolyline
 90
2
 70
0
 10
213.724360
 20
187.016600
 30
0.0
 10
216.724360
 20
187.016600
 30
0.0
  0
LWPOLYLINE
  5
13d
100
AcDbEntity
  8
Découpe_1
 62
5
100
AcDbPolyline
 90
3
 70
0
 10
216.724360
 20
184.016600
 30
0.0
 10
213.724360
 20
184.016600
 30
0.0
 10
213.724360
 20
187.016600
 30
0.0
  0
LWPOLYLINE
  5
13e
100
AcDbEntity
  8
Découpe_1
 62
5
100
AcDbPolyline
 90
2
 70
0
 10
216.724360
 20
282.466600
 30
0.0
 10
216.724360
 20
279.466600
 30
0.0
  0
LWPOLYLINE
  5
13f
100
AcDbEntity
  8
Découpe_1
 62
5
100
AcDbPolyline
 90
2
 70
0
 10
213.724360
 20
282.466600
 30
0.0
 10
216.724360
 20
282.466600
 30
0.0
  0
LWPOLYLINE
  5
140
100
AcDbEntity
  8
Découpe_1
 62
5
100
AcDbPolyline
 90
3
 70
0
 10
216.724360
 20
279.466600
 30
0.0
 10
213.724360
 20
279.466600
 30
0.0
 10
213.724360
 20
282.466600
 30
0.0
  0
LWPOLYLINE
  5
141
100
AcDbEntity
  8
Découpe_1
 62
5
100
AcDbPolyline
 90
2
 70
0
 10
407.724360
 20
282.466600
 30
0.0
 10
407.724360
 20
279.466600
 30
0.0
  0
LWPOLYLINE
  5
142
100
AcDbEntity
  8
Découpe_1
 62
5
100
AcDbPolyline
 90
2
 70
0
 10
404.724360
 20
282.466600
 30
0.0
 10
407.724360
 20
282.466600
 30
0.0
  0
LWPOLYLINE
  5
143
100
AcDbEntity
  8
Découpe_1
 62
5
100
AcDbPolyline
 90
3
 70
0
 10
407.724360
 20
279.466600
 30
0.0
 10
404.724360
 20
279.466600
 30
0.0
 10
404.724360
 20
282.466600
 30
0.0
  0
LWPOLYLINE
  5
144
100
AcDbEntity
  8
Découpe_1
 62
5
100
AcDbPolyline
 90
2
 70
0
 10
407.724360
 20
88.466600
 30
0.0
 10
404.724360
 20
88.466600
 30
0.0
  0
LWPOLYLINE
  5
145
100
AcDbEntity
  8
Découpe_1
 62
5
100
AcDbPolyline
 90
2
 70
0
 10
407.724360
 20
91.466600
 30
0.0
 10
407.724360
 20
88.466600
 30
0.0
  0
LWPOLYLINE
  5
146
100
AcDbEntity
  8
Découpe_1
 62
5
100
AcDbPolyline
 90
3
 70
0
 10
404.724360
 20
88.466600
 30
0.0
 10
404.724360
 20
91.466600
 30
0.0
 10
407.724360
 20
91.466600
 30
0.0
  0
LWPOLYLINE
  5
147
100
AcDbEntity
  8
Découpe_1
 62
5
100
AcDbPolyline
 90
2
 70
0
 10
312.274360
 20
88.466600
 30
0.0
 10
309.274360
 20
88.466600
 30
0.0
  0
LWPOLYLINE
  5
148
100
AcDbEntity
  8
Découpe_1
 62
5
100
AcDbPolyline
 90
2
 70
0
 10
312.274360
 20
91.466600
 30
0.0
 10
312.274360
 20
88.466600
 30
0.0
  0
LWPOLYLINE
  5
149
100
AcDbEntity
  8
Découpe_1
 62
5
100
AcDbPolyline
 90
3
 70
0
 10
309.274360
 20
88.466600
 30
0.0
 10
309.274360
 20
91.466600
 30
0.0
 10
312.274360
 20
91.466600
 30
0.0
  0
LWPOLYLINE
  5
14a
100
AcDbEntity
  8
Découpe_2
 62
4
100
AcDbPolyline
 90
2
 70
0
 10
128.186490
 20
288.516600
 30
0.0
 10
128.186490
 20
281.516600
 30
0.0
  0
LWPOLYLINE
  5
14b
100
AcDbEntity
  8
Découpe_2
 62
4
100
AcDbPolyline
 90
2
 70
0
 10
128.186490
 20
288.516600
 30
0.0
 10
135.186490
 20
288.516600
 30
0.0
  0
LWPOLYLINE
  5
14c
100
AcDbEntity
  8
Découpe_2
 62
4
100
AcDbPolyline
 90
5
 70
0
 10
128.186490
 20
281.516600
 30
0.0
 10
131.186490
 20
277.516600
 30
0.0
 10
131.186490
 20
93.416600
 30
0.0
 10
128.186490
 20
89.416600
 30
0.0
 10
128.186490
 20
82.416600
 30
0.0
  0
LWPOLYLINE
  5
14d
100
AcDbEntity
  8
Découpe_2
 62
4
100
AcDbPolyline
 90
2
 70
0
 10
135.186490
 20
82.416600
 30
0.0
 10
128.186490
 20
82.416600
 30
0.0
  0
LWPOLYLINE
  5
14e
100
AcDbEntity
  8
Découpe_2
 62
4
100
AcDbPolyline
 90
2
 70
0
 10
135.186490
 20
79.466600
 30
0.0
 10
135.186490
 20
82.416600
 30
0.0
  0
LWPOLYLINE
  5
14f
100
AcDbEntity
  8
Découpe_2
 62
4
100
AcDbPolyline
 90
2
 70
0
 10
135.186490
 20
79.466600
 30
0.0
 10
142.186490
 20
79.466600
 30
0.0
  0
LWPOLYLINE
  5
150
100
AcDbEntity
  8
Découpe_2
 62
4
100
AcDbPolyline
 90
2
 70
0
 10
142.186490
 20
82.416600
 30
0.0
 10
142.186490
 20
79.466600
 30
0.0
  0
LWPOLYLINE
  5
151
100
AcDbEntity
  8
Découpe_2
 62
4
100
AcDbPolyline
 90
2
 70
0
 10
148.236490
 20
82.416600
 30
0.0
 10
142.186490
 20
82.416600
 30
0.0
  0
LWPOLYLINE
  5
152
100
AcDbEntity
  8
Découpe_2
 62
4
100
AcDbPolyline
 90
2
 70
0
 10
148.236490
 20
94.466600
 30
0.0
 10
148.236490
 20
82.416600
 30
0.0
  0
LWPOLYLINE
  5
153
100
AcDbEntity
  8
Découpe_2
 62
4
100
AcDbPolyline
 90
2
 70
0
 10
151.186490
 20
94.466600
 30
0.0
 10
148.236490
 20
94.466600
 30
0.0
  0
LWPOLYLINE
  5
154
100
AcDbEntity
  8
Découpe_2
 62
4
100
AcDbPolyline
 90
2
 70
0
 10
151.186490
 20
79.466600
 30
0.0
 10
151.186490
 20
94.466600
 30
0.0
  0
LWPOLYLINE
  5
155
100
AcDbEntity
  8
Découpe_2
 62
4
100
AcDbPolyline
 90
2
 70
0
 10
151.186490
 20
79.466600
 30
0.0
 10
156.186490
 20
79.466600
 30
0.0
  0
LWPOLYLINE
  5
156
100
AcDbEntity
  8
Découpe_2
 62
4
100
AcDbPolyline
 90
2
 70
0
 10
156.186490
 20
82.416600
 30
0.0
 10
156.186490
 20
79.466600
 30
0.0
  0
LWPOLYLINE
  5
157
100
AcDbEntity
  8
Découpe_2
 62
4
100
AcDbPolyline
 90
2
 70
0
 10
163.186490
 20
82.416600
 30
0.0
 10
156.186490
 20
82.416600
 30
0.0
  0
LWPOLYLINE
  5
158
100
AcDbEntity
  8
Découpe_2
 62
4
100
AcDbPolyline
 90
2
 70
0
 10
163.186490
 20
82.416600
 30
0.0
 10
163.186490
 20
89.416600
 30
0.0
  0
LWPOLYLINE
  5
159
100
AcDbEntity
  8
Découpe_2
 62
4
100
AcDbPolyline
 90
2
 70
0
 10
160.186490
 20
93.416600
 30
0.0
 10
163.186490
 20
89.416600
 30
0.0
  0
LWPOLYLINE
  5
15a
100
AcDbEntity
  8
Découpe_2
 62
4
100
AcDbPolyline
 90
2
 70
0
 10
160.186490
 20
176.466600
 30
0.0
 10
160.186490
 20
93.416600
 30
0.0
  0
LWPOLYLINE
  5
15b
100
AcDbEntity
  8
Découpe_2
 62
4
100
AcDbPolyline
 90
2
 70
0
 10
161.686490
 20
177.966600
 30
0.0
 10
160.186490
 20
176.466600
 30
0.0
  0
LWPOLYLINE
  5
15c
100
AcDbEntity
  8
Découpe_2
 62
4
100
AcDbPolyline
 90
2
 70
0
 10
161.686490
 20
192.966600
 30
0.0
 10
161.686490
 20
177.966600
 30
0.0
  0
LWPOLYLINE
  5
15d
100
AcDbEntity
  8
Découpe_2
 62
4
100
AcDbPolyline
 90
2
 70
0
 10
160.186490
 20
194.466600
 30
0.0
 10
161.686490
 20
192.966600
 30
0.0
  0
LWPOLYLINE
  5
15e
100
AcDbEntity
  8
Découpe_2
 62
4
100
AcDbPolyline
 90
2
 70
0
 10
160.186490
 20
277.516600
 30
0.0
 10
160.186490
 20
194.466600
 30
0.0
  0
LWPOLYLINE
  5
15f
100
AcDbEntity
  8
Découpe_2
 62
4
100
AcDbPolyline
 90
2
 70
0
 10
163.186490
 20
281.516600
 30
0.0
 10
160.186490
 20
277.516600
 30
0.0
  0
LWPOLYLINE
  5
160
100
AcDbEntity
  8
Découpe_2
 62
4
100
AcDbPolyline
 90
2
 70
0
 10
163.186490
 20
281.516600
 30
0.0
 10
163.186490
 20
288.516600
 30
0.0
  0
LWPOLYLINE
  5
161
100
AcDbEntity
  8
Découpe_2
 62
4
100
AcDbPolyline
 90
2
 70
0
 10
156.186490
 20
288.516600
 30
0.0
 10
163.186490
 20
288.516600
 30
0.0
  0
LWPOLYLINE
  5
162
100
AcDbEntity
  8
Découpe_2
 62
4
100
AcDbPolyline
 90
2
 70
0
 10
156.186490
 20
291.466600
 30
0.0
 10
156.186490
 20
288.516600
 30
0.0
  0
LWPOLYLINE
  5
163
100
AcDbEntity
  8
Découpe_2
 62
4
100
AcDbPolyline
 90
2
 70
0
 10
156.186490
 20
291.466600
 30
0.0
 10
151.186490
 20
291.466600
 30
0.0
  0
LWPOLYLINE
  5
164
100
AcDbEntity
  8
Découpe_2
 62
4
100
AcDbPolyline
 90
2
 70
0
 10
151.186490
 20
276.466600
 30
0.0
 10
151.186490
 20
291.466600
 30
0.0
  0
LWPOLYLINE
  5
165
100
AcDbEntity
  8
Découpe_2
 62
4
100
AcDbPolyline
 90
2
 70
0
 10
148.236490
 20
276.466600
 30
0.0
 10
151.186490
 20
276.466600
 30
0.0
  0
LWPOLYLINE
  5
166
100
AcDbEntity
  8
Découpe_2
 62
4
100
AcDbPolyline
 90
2
 70
0
 10
148.236490
 20
288.516600
 30
0.0
 10
148.236490
 20
276.466600
 30
0.0
  0
LWPOLYLINE
  5
167
100
AcDbEntity
  8
Découpe_2
 62
4
100
AcDbPolyline
 90
2
 70
0
 10
142.186490
 20
288.516600
 30
0.0
 10
148.236490
 20
288.516600
 30
0.0
  0
LWPOLYLINE
  5
168
100
AcDbEntity
  8
Découpe_2
 62
4
100
AcDbPolyline
 90
2
 70
0
 10
142.186490
 20
291.466600
 30
0.0
 10
142.186490
 20
288.516600
 30
0.0
  0
LWPOLYLINE
  5
169
100
AcDbEntity
  8
Découpe_2
 62
4
100
AcDbPolyline
 90
2
 70
0
 10
142.186490
 20
291.466600
 30
0.0
 10
135.186490
 20
291.466600
 30
0.0
  0
LWPOLYLINE
  5
16a
100
AcDbEntity
  8
Découpe_2
 62
4
100
AcDbPolyline
 90
2
 70
0
 10
135.186490
 20
288.516600
 30
0.0
 10
135.186490
 20
291.466600
 30
0.0
  0
LWPOLYLINE
  5
16b
100
AcDbEntity
  8
Découpe_2
 62
4
100
AcDbPolyline
 90
7
 70
0
 10
200.913510
 20
291.466600
 30
0.0
 10
200.913510
 20
281.466600
 30
0.0
 10
197.913510
 20
277.466600
 30
0.0
 10
197.913510
 20
93.466600
 30
0.0
 10
200.913510
 20
89.466600
 30
0.0
 10
200.913510
 20
79.466600
 30
0.0
 10
193.913510
 20
79.466600
 30
0.0
  0
LWPOLYLINE
  5
16c
100
AcDbEntity
  8
Découpe_2
 62
4
100
AcDbPolyline
 90
2
 70
0
 10
193.913510
 20
82.416600
 30
0.0
 10
193.913510
 20
79.466600
 30
0.0
  0
LWPOLYLINE
  5
16d
100
AcDbEntity
  8
Découpe_2
 62
4
100
AcDbPolyline
 90
2
 70
0
 10
186.913510
 20
82.416600
 30
0.0
 10
193.913510
 20
82.416600
 30
0.0
  0
LWPOLYLINE
  5
16e
100
AcDbEntity
  8
Découpe_2
 62
4
100
AcDbPolyline
 90
2
 70
0
 10
186.913510
 20
79.466600
 30
0.0
 10
186.913510
 20
82.416600
 30
0.0
  0
LWPOLYLINE
  5
16f
100
AcDbEntity
  8
Découpe_2
 62
4
100
AcDbPolyline
 90
2
 70
0
 10
186.913510
 20
79.466600
 30
0.0
 10
180.863510
 20
79.466600
 30
0.0
  0
LWPOLYLINE
  5
170
100
AcDbEntity
  8
Découpe_2
 62
4
100
AcDbPolyline
 90
2
 70
0
 10
180.863510
 20
94.466600
 30
0.0
 10
180.863510
 20
79.466600
 30
0.0
  0
LWPOLYLINE
  5
171
100
AcDbEntity
  8
Découpe_2
 62
4
100
AcDbPolyline
 90
2
 70
0
 10
177.913510
 20
94.466600
 30
0.0
 10
180.863510
 20
94.466600
 30
0.0
  0
LWPOLYLINE
  5
172
100
AcDbEntity
  8
Découpe_2
 62
4
100
AcDbPolyline
 90
2
 70
0
 10
177.913510
 20
82.416600
 30
0.0
 10
177.913510
 20
94.466600
 30
0.0
  0
LWPOLYLINE
  5
173
100
AcDbEntity
  8
Découpe_2
 62
4
100
AcDbPolyline
 90
2
 70
0
 10
172.913510
 20
82.416600
 30
0.0
 10
177.913510
 20
82.416600
 30
0.0
  0
LWPOLYLINE
  5
174
100
AcDbEntity
  8
Découpe_2
 62
4
100
AcDbPolyline
 90
2
 70
0
 10
172.913510
 20
79.466600
 30
0.0
 10
172.913510
 20
82.416600
 30
0.0
  0
LWPOLYLINE
  5
175
100
AcDbEntity
  8
Découpe_2
 62
4
100
AcDbPolyline
 90
3
 70
0
 10
172.913510
 20
79.466600
 30
0.0
 10
165.913510
 20
79.466600
 30
0.0
 10
165.913510
 20
89.466600
 30
0.0
  0
LWPOLYLINE
  5
176
100
AcDbEntity
  8
Découpe_2
 62
4
100
AcDbPolyline
 90
2
 70
0
 10
168.913510
 20
93.466600
 30
0.0
 10
165.913510
 20
89.466600
 30
0.0
  0
LWPOLYLINE
  5
177
100
AcDbEntity
  8
Découpe_2
 62
4
100
AcDbPolyline
 90
2
 70
0
 10
168.913510
 20
178.966600
 30
0.0
 10
168.913510
 20
93.466600
 30
0.0
  0
LWPOLYLINE
  5
178
100
AcDbEntity
  8
Découpe_2
 62
4
100
AcDbPolyline
 90
2
 70
0
 10
167.413510
 20
180.466600
 30
0.0
 10
168.913510
 20
178.966600
 30
0.0
  0
LWPOLYLINE
  5
179
100
AcDbEntity
  8
Découpe_2
 62
4
100
AcDbPolyline
 90
2
 70
0
 10
167.413510
 20
190.466600
 30
0.0
 10
167.413510
 20
180.466600
 30
0.0
  0
LWPOLYLINE
  5
17a
100
AcDbEntity
  8
Découpe_2
 62
4
100
AcDbPolyline
 90
2
 70
0
 10
168.913510
 20
191.966600
 30
0.0
 10
167.413510
 20
190.466600
 30
0.0
  0
LWPOLYLINE
  5
17b
100
AcDbEntity
  8
Découpe_2
 62
4
100
AcDbPolyline
 90
2
 70
0
 10
168.913510
 20
277.466600
 30
0.0
 10
168.913510
 20
191.966600
 30
0.0
  0
LWPOLYLINE
  5
17c
100
AcDbEntity
  8
Découpe_2
 62
4
100
AcDbPolyline
 90
2
 70
0
 10
165.913510
 20
281.466600
 30
0.0
 10
168.913510
 20
277.466600
 30
0.0
  0
LWPOLYLINE
  5
17d
100
AcDbEntity
  8
Découpe_2
 62
4
100
AcDbPolyline
 90
3
 70
0
 10
165.913510
 20
281.466600
 30
0.0
 10
165.913510
 20
291.466600
 30
0.0
 10
172.913510
 20
291.466600
 30
0.0
  0
LWPOLYLINE
  5
17e
100
AcDbEntity
  8
Découpe_2
 62
4
100
AcDbPolyline
 90
2
 70
0
 10
172.913510
 20
288.516600
 30
0.0
 10
172.913510
 20
291.466600
 30
0.0
  0
LWPOLYLINE
  5
17f
100
AcDbEntity
  8
Découpe_2
 62
4
100
AcDbPolyline
 90
2
 70
0
 10
177.913510
 20
288.516600
 30
0.0
 10
172.913510
 20
288.516600
 30
0.0
  0
LWPOLYLINE
  5
180
100
AcDbEntity
  8
Découpe_2
 62
4
100
AcDbPolyline
 90
2
 70
0
 10
177.913510
 20
276.466600
 30
0.0
 10
177.913510
 20
288.516600
 30
0.0
  0
LWPOLYLINE
  5
181
100
AcDbEntity
  8
Découpe_2
 62
4
100
AcDbPolyline
 90
2
 70
0
 10
180.863510
 20
276.466600
 30
0.0
 10
177.913510
 20
276.466600
 30
0.0
  0
LWPOLYLINE
  5
182
100
AcDbEntity
  8
Découpe_2
 62
4
100
AcDbPolyline
 90
2
 70
0
 10
180.863510
 20
291.466600
 30
0.0
 10
180.863510
 20
276.466600
 30
0.0
  0
LWPOLYLINE
  5
183
100
AcDbEntity
  8
Découpe_2
 62
4
100
AcDbPolyline
 90
2
 70
0
 10
180.863510
 20
291.466600
 30
0.0
 10
186.913510
 20
291.466600
 30
0.0
  0
LWPOLYLINE
  5
184
100
AcDbEntity
  8
Découpe_2
 62
4
100
AcDbPolyline
 90
2
 70
0
 10
186.913510
 20
288.516600
 30
0.0
 10
186.913510
 20
291.466600
 30
0.0
  0
LWPOLYLINE
  5
185
100
AcDbEntity
  8
Découpe_2
 62
4
100
AcDbPolyline
 90
2
 70
0
 10
193.913510
 20
288.516600
 30
0.0
 10
186.913510
 20
288.516600
 30
0.0
  0
LWPOLYLINE
  5
186
100
AcDbEntity
  8
Découpe_2
 62
4
100
AcDbPolyline
 90
2
 70
0
 10
193.913510
 20
291.466600
 30
0.0
 10
193.913510
 20
288.516600
 30
0.0
  0
LWPOLYLINE
  5
187
100
AcDbEntity
  8
Découpe_2
 62
4
100
AcDbPolyline
 90
2
 70
0
 10
193.913510
 20
291.466600
 30
0.0
 10
200.913510
 20
291.466600
 30
0.0
  0
LWPOLYLINE
  5
188
100
AcDbEntity
  8
Découpe_2
 62
4
100
AcDbPolyline
 90
2
 70
0
 10
91.063520
 20
288.516600
 30
0.0
 10
91.063520
 20
281.516600
 30
0.0
  0
LWPOLYLINE
  5
189
100
AcDbEntity
  8
Découpe_2
 62
4
100
AcDbPolyline
 90
2
 70
0
 10
91.063520
 20
288.516600
 30
0.0
 10
98.063520
 20
288.516600
 30
0.0
  0
LWPOLYLINE
  5
18a
100
AcDbEntity
  8
Découpe_2
 62
4
100
AcDbPolyline
 90
5
 70
0
 10
91.063520
 20
281.516600
 30
0.0
 10
94.063520
 20
277.516600
 30
0.0
 10
94.063520
 20
188.966600
 30
0.0
 10
91.063520
 20
184.966600
 30
0.0
 10
91.063520
 20
177.966600
 30
0.0
  0
LWPOLYLINE
  5
18b
100
AcDbEntity
  8
Découpe_2
 62
4
100
AcDbPolyline
 90
2
 70
0
 10
98.063520
 20
177.966600
 30
0.0
 10
91.063520
 20
177.966600
 30
0.0
  0
LWPOLYLINE
  5
18c
100
AcDbEntity
  8
Découpe_2
 62
4
100
AcDbPolyline
 90
2
 70
0
 10
98.063520
 20
175.016600
 30
0.0
 10
98.063520
 20
177.966600
 30
0.0
  0
LWPOLYLINE
  5
18d
100
AcDbEntity
  8
Découpe_2
 62
4
100
AcDbPolyline
 90
2
 70
0
 10
98.063520
 20
175.016600
 30
0.0
 10
105.063520
 20
175.016600
 30
0.0
  0
LWPOLYLINE
  5
18e
100
AcDbEntity
  8
Découpe_2
 62
4
100
AcDbPolyline
 90
2
 70
0
 10
105.063520
 20
177.966600
 30
0.0
 10
105.063520
 20
175.016600
 30
0.0
  0
LWPOLYLINE
  5
18f
100
AcDbEntity
  8
Découpe_2
 62
4
100
AcDbPolyline
 90
2
 70
0
 10
111.113520
 20
177.966600
 30
0.0
 10
105.063520
 20
177.966600
 30
0.0
  0
LWPOLYLINE
  5
190
100
AcDbEntity
  8
Découpe_2
 62
4
100
AcDbPolyline
 90
2
 70
0
 10
111.113520
 20
190.016600
 30
0.0
 10
111.113520
 20
177.966600
 30
0.0
  0
LWPOLYLINE
  5
191
100
AcDbEntity
  8
Découpe_2
 62
4
100
AcDbPolyline
 90
2
 70
0
 10
114.063520
 20
190.016600
 30
0.0
 10
111.113520
 20
190.016600
 30
0.0
  0
LWPOLYLINE
  5
192
100
AcDbEntity
  8
Découpe_2
 62
4
100
AcDbPolyline
 90
2
 70
0
 10
114.063520
 20
175.016600
 30
0.0
 10
114.063520
 20
190.016600
 30
0.0
  0
LWPOLYLINE
  5
193
100
AcDbEntity
  8
Découpe_2
 62
4
100
AcDbPolyline
 90
2
 70
0
 10
114.063520
 20
175.016600
 30
0.0
 10
119.063520
 20
175.016600
 30
0.0
  0
LWPOLYLINE
  5
194
100
AcDbEntity
  8
Découpe_2
 62
4
100
AcDbPolyline
 90
2
 70
0
 10
119.063520
 20
177.966600
 30
0.0
 10
119.063520
 20
175.016600
 30
0.0
  0
LWPOLYLINE
  5
195
100
AcDbEntity
  8
Découpe_2
 62
4
100
AcDbPolyline
 90
2
 70
0
 10
126.063520
 20
177.966600
 30
0.0
 10
119.063520
 20
177.966600
 30
0.0
  0
LWPOLYLINE
  5
196
100
AcDbEntity
  8
Découpe_2
 62
4
100
AcDbPolyline
 90
2
 70
0
 10
126.063520
 20
177.966600
 30
0.0
 10
126.063520
 20
184.966600
 30
0.0
  0
LWPOLYLINE
  5
197
100
AcDbEntity
  8
Découpe_2
 62
4
100
AcDbPolyline
 90
2
 70
0
 10
123.063520
 20
188.966600
 30
0.0
 10
126.063520
 20
184.966600
 30
0.0
  0
LWPOLYLINE
  5
198
100
AcDbEntity
  8
Découpe_2
 62
4
100
AcDbPolyline
 90
2
 70
0
 10
123.063520
 20
224.241600
 30
0.0
 10
123.063520
 20
188.966600
 30
0.0
  0
LWPOLYLINE
  5
199
100
AcDbEntity
  8
Découpe_2
 62
4
100
AcDbPolyline
 90
2
 70
0
 10
124.563520
 20
225.741600
 30
0.0
 10
123.063520
 20
224.241600
 30
0.0
  0
LWPOLYLINE
  5
19a
100
AcDbEntity
  8
Découpe_2
 62
4
100
AcDbPolyline
 90
2
 70
0
 10
124.563520
 20
240.741600
 30
0.0
 10
124.563520
 20
225.741600
 30
0.0
  0
LWPOLYLINE
  5
19b
100
AcDbEntity
  8
Découpe_2
 62
4
100
AcDbPolyline
 90
2
 70
0
 10
123.063520
 20
242.241600
 30
0.0
 10
124.563520
 20
240.741600
 30
0.0
  0
LWPOLYLINE
  5
19c
100
AcDbEntity
  8
Découpe_2
 62
4
100
AcDbPolyline
 90
2
 70
0
 10
123.063520
 20
277.516600
 30
0.0
 10
123.063520
 20
242.241600
 30
0.0
  0
LWPOLYLINE
  5
19d
100
AcDbEntity
  8
Découpe_2
 62
4
100
AcDbPolyline
 90
2
 70
0
 10
126.063520
 20
281.516600
 30
0.0
 10
123.063520
 20
277.516600
 30
0.0
  0
LWPOLYLINE
  5
19e
100
AcDbEntity
  8
Découpe_2
 62
4
100
AcDbPolyline
 90
2
 70
0
 10
126.063520
 20
281.516600
 30
0.0
 10
126.063520
 20
288.516600
 30
0.0
  0
LWPOLYLINE
  5
19f
100
AcDbEntity
  8
Découpe_2
 62
4
100
AcDbPolyline
 90
2
 70
0
 10
119.063520
 20
288.516600
 30
0.0
 10
126.063520
 20
288.516600
 30
0.0
  0
LWPOLYLINE
  5
1a0
100
AcDbEntity
  8
Découpe_2
 62
4
100
AcDbPolyline
 90
2
 70
0
 10
119.063520
 20
291.466600
 30
0.0
 10
119.063520
 20
288.516600
 30
0.0
  0
LWPOLYLINE
  5
1a1
100
AcDbEntity
  8
Découpe_2
 62
4
100
AcDbPolyline
 90
2
 70
0
 10
119.063520
 20
291.466600
 30
0.0
 10
114.063520
 20
291.466600
 30
0.0
  0
LWPOLYLINE
  5
1a2
100
AcDbEntity
  8
Découpe_2
 62
4
100
AcDbPolyline
 90
2
 70
0
 10
114.063520
 20
276.466600
 30
0.0
 10
114.063520
 20
291.466600
 30
0.0
  0
LWPOLYLINE
  5
1a3
100
AcDbEntity
  8
Découpe_2
 62
4
100
AcDbPolyline
 90
2
 70
0
 10
111.113520
 20
276.466600
 30
0.0
 10
114.063520
 20
276.466600
 30
0.0
  0
LWPOLYLINE
  5
1a4
100
AcDbEntity
  8
Découpe_2
 62
4
100
AcDbPolyline
 90
2
 70
0
 10
111.113520
 20
288.516600
 30
0.0
 10
111.113520
 20
276.466600
 30
0.0
  0
LWPOLYLINE
  5
1a5
100
AcDbEntity
  8
Découpe_2
 62
4
100
AcDbPolyline
 90
2
 70
0
 10
105.063520
 20
288.516600
 30
0.0
 10
111.113520
 20
288.516600
 30
0.0
  0
LWPOLYLINE
  5
1a6
100
AcDbEntity
  8
Découpe_2
 62
4
100
AcDbPolyline
 90
2
 70
0
 10
105.063520
 20
291.466600
 30
0.0
 10
105.063520
 20
288.516600
 30
0.0
  0
LWPOLYLINE
  5
1a7
100
AcDbEntity
  8
Découpe_2
 62
4
100
AcDbPolyline
 90
2
 70
0
 10
105.063520
 20
291.466600
 30
0.0
 10
98.063520
 20
291.466600
 30
0.0
  0
LWPOLYLINE
  5
1a8
100
AcDbEntity
  8
Découpe_2
 62
4
100
AcDbPolyline
 90
2
 70
0
 10
98.063520
 20
288.516600
 30
0.0
 10
98.063520
 20
291.466600
 30
0.0
  0
LWPOLYLINE
  5
1a9
100
AcDbEntity
  8
Découpe_2
 62
4
100
AcDbPolyline
 90
7
 70
0
 10
200.162840
 20
171.420270
 30
0.0
 10
210.162840
 20
171.420270
 30
0.0
 10
214.162840
 20
168.420270
 30
0.0
 10
284.712840
 20
168.420270
 30
0.0
 10
288.712840
 20
171.420270
 30
0.0
 10
298.712840
 20
171.420270
 30
0.0
 10
298.712840
 20
164.420270
 30
0.0
  0
LWPOLYLINE
  5
1aa
100
AcDbEntity
  8
Découpe_2
 62
4
100
AcDbPolyline
 90
2
 70
0
 10
295.762840
 20
164.420270
 30
0.0
 10
298.712840
 20
164.420270
 30
0.0
  0
LWPOLYLINE
  5
1ab
100
AcDbEntity
  8
Découpe_2
 62
4
100
AcDbPolyline
 90
2
 70
0
 10
295.762840
 20
157.420270
 30
0.0
 10
295.762840
 20
164.420270
 30
0.0
  0
LWPOLYLINE
  5
1ac
100
AcDbEntity
  8
Découpe_2
 62
4
100
AcDbPolyline
 90
2
 70
0
 10
298.712840
 20
157.420270
 30
0.0
 10
295.762840
 20
157.420270
 30
0.0
  0
LWPOLYLINE
  5
1ad
100
AcDbEntity
  8
Découpe_2
 62
4
100
AcDbPolyline
 90
2
 70
0
 10
298.712840
 20
157.420270
 30
0.0
 10
298.712840
 20
151.370270
 30
0.0
  0
LWPOLYLINE
  5
1ae
100
AcDbEntity
  8
Découpe_2
 62
4
100
AcDbPolyline
 90
2
 70
0
 10
283.712840
 20
151.370270
 30
0.0
 10
298.712840
 20
151.370270
 30
0.0
  0
LWPOLYLINE
  5
1af
100
AcDbEntity
  8
Découpe_2
 62
4
100
AcDbPolyline
 90
2
 70
0
 10
283.712840
 20
148.420270
 30
0.0
 10
283.712840
 20
151.370270
 30
0.0
  0
LWPOLYLINE
  5
1b0
100
AcDbEntity
  8
Découpe_2
 62
4
100
AcDbPolyline
 90
2
 70
0
 10
295.762840
 20
148.420270
 30
0.0
 10
283.712840
 20
148.420270
 30
0.0
  0
LWPOLYLINE
  5
1b1
100
AcDbEntity
  8
Découpe_2
 62
4
100
AcDbPolyline
 90
2
 70
0
 10
295.762840
 20
143.420270
 30
0.0
 10
295.762840
 20
148.420270
 30
0.0
  0
LWPOLYLINE
  5
1b2
100
AcDbEntity
  8
Découpe_2
 62
4
100
AcDbPolyline
 90
2
 70
0
 10
298.712840
 20
143.420270
 30
0.0
 10
295.762840
 20
143.420270
 30
0.0
  0
LWPOLYLINE
  5
1b3
100
AcDbEntity
  8
Découpe_2
 62
4
100
AcDbPolyline
 90
3
 70
0
 10
298.712840
 20
143.420270
 30
0.0
 10
298.712840
 20
136.420270
 30
0.0
 10
288.712840
 20
136.420270
 30
0.0
  0
LWPOLYLINE
  5
1b4
100
AcDbEntity
  8
Découpe_2
 62
4
100
AcDbPolyline
 90
2
 70
0
 10
284.712840
 20
139.420270
 30
0.0
 10
288.712840
 20
136.420270
 30
0.0
  0
LWPOLYLINE
  5
1b5
100
AcDbEntity
  8
Découpe_2
 62
4
100
AcDbPolyline
 90
2
 70
0
 10
254.937840
 20
139.420270
 30
0.0
 10
284.712840
 20
139.420270
 30
0.0
  0
LWPOLYLINE
  5
1b6
100
AcDbEntity
  8
Découpe_2
 62
4
100
AcDbPolyline
 90
2
 70
0
 10
253.437840
 20
137.920270
 30
0.0
 10
254.937840
 20
139.420270
 30
0.0
  0
LWPOLYLINE
  5
1b7
100
AcDbEntity
  8
Découpe_2
 62
4
100
AcDbPolyline
 90
2
 70
0
 10
245.437840
 20
137.920270
 30
0.0
 10
253.437840
 20
137.920270
 30
0.0
  0
LWPOLYLINE
  5
1b8
100
AcDbEntity
  8
Découpe_2
 62
4
100
AcDbPolyline
 90
2
 70
0
 10
243.937840
 20
139.420270
 30
0.0
 10
245.437840
 20
137.920270
 30
0.0
  0
LWPOLYLINE
  5
1b9
100
AcDbEntity
  8
Découpe_2
 62
4
100
AcDbPolyline
 90
2
 70
0
 10
214.162840
 20
139.420270
 30
0.0
 10
243.937840
 20
139.420270
 30
0.0
  0
LWPOLYLINE
  5
1ba
100
AcDbEntity
  8
Découpe_2
 62
4
100
AcDbPolyline
 90
2
 70
0
 10
210.162840
 20
136.420270
 30
0.0
 10
214.162840
 20
139.420270
 30
0.0
  0
LWPOLYLINE
  5
1bb
100
AcDbEntity
  8
Découpe_2
 62
4
100
AcDbPolyline
 90
3
 70
0
 10
210.162840
 20
136.420270
 30
0.0
 10
200.162840
 20
136.420270
 30
0.0
 10
200.162840
 20
143.420270
 30
0.0
  0
LWPOLYLINE
  5
1bc
100
AcDbEntity
  8
Découpe_2
 62
4
100
AcDbPolyline
 90
2
 70
0
 10
203.112840
 20
143.420270
 30
0.0
 10
200.162840
 20
143.420270
 30
0.0
  0
LWPOLYLINE
  5
1bd
100
AcDbEntity
  8
Découpe_2
 62
4
100
AcDbPolyline
 90
2
 70
0
 10
203.112840
 20
148.420270
 30
0.0
 10
203.112840
 20
143.420270
 30
0.0
  0
LWPOLYLINE
  5
1be
100
AcDbEntity
  8
Découpe_2
 62
4
100
AcDbPolyline
 90
2
 70
0
 10
215.162840
 20
148.420270
 30
0.0
 10
203.112840
 20
148.420270
 30
0.0
  0
LWPOLYLINE
  5
1bf
100
AcDbEntity
  8
Découpe_2
 62
4
100
AcDbPolyline
 90
2
 70
0
 10
215.162840
 20
151.370270
 30
0.0
 10
215.162840
 20
148.420270
 30
0.0
  0
LWPOLYLINE
  5
1c0
100
AcDbEntity
  8
Découpe_2
 62
4
100
AcDbPolyline
 90
2
 70
0
 10
200.162840
 20
151.370270
 30
0.0
 10
215.162840
 20
151.370270
 30
0.0
  0
LWPOLYLINE
  5
1c1
100
AcDbEntity
  8
Découpe_2
 62
4
100
AcDbPolyline
 90
2
 70
0
 10
200.162840
 20
151.370270
 30
0.0
 10
200.162840
 20
157.420270
 30
0.0
  0
LWPOLYLINE
  5
1c2
100
AcDbEntity
  8
Découpe_2
 62
4
100
AcDbPolyline
 90
2
 70
0
 10
203.112840
 20
157.420270
 30
0.0
 10
200.162840
 20
157.420270
 30
0.0
  0
LWPOLYLINE
  5
1c3
100
AcDbEntity
  8
Découpe_2
 62
4
100
AcDbPolyline
 90
2
 70
0
 10
203.112840
 20
164.420270
 30
0.0
 10
203.112840
 20
157.420270
 30
0.0
  0
LWPOLYLINE
  5
1c4
100
AcDbEntity
  8
Découpe_2
 62
4
100
AcDbPolyline
 90
2
 70
0
 10
200.162840
 20
164.420270
 30
0.0
 10
203.112840
 20
164.420270
 30
0.0
  0
LWPOLYLINE
  5
1c5
100
AcDbEntity
  8
Découpe_2
 62
4
100
AcDbPolyline
 90
2
 70
0
 10
200.162840
 20
164.420270
 30
0.0
 10
200.162840
 20
171.420270
 30
0.0
  0
LWPOLYLINE
  5
1c6
100
AcDbEntity
  8
Découpe_2
 62
4
100
AcDbPolyline
 90
2
 70
0
 10
203.112840
 20
96.420270
 30
0.0
 10
210.112840
 20
96.420270
 30
0.0
  0
LWPOLYLINE
  5
1c7
100
AcDbEntity
  8
Découpe_2
 62
4
100
AcDbPolyline
 90
2
 70
0
 10
203.112840
 20
96.420270
 30
0.0
 10
203.112840
 20
103.420270
 30
0.0
  0
LWPOLYLINE
  5
1c8
100
AcDbEntity
  8
Découpe_2
 62
4
100
AcDbPolyline
 90
2
 70
0
 10
214.112840
 20
99.420270
 30
0.0
 10
210.112840
 20
96.420270
 30
0.0
  0
LWPOLYLINE
  5
1c9
100
AcDbEntity
  8
Découpe_2
 62
4
100
AcDbPolyline
 90
2
 70
0
 10
284.762840
 20
99.420270
 30
0.0
 10
214.112840
 20
99.420270
 30
0.0
  0
LWPOLYLINE
  5
1ca
100
AcDbEntity
  8
Découpe_2
 62
4
100
AcDbPolyline
 90
2
 70
0
 10
288.762840
 20
96.420270
 30
0.0
 10
284.762840
 20
99.420270
 30
0.0
  0
LWPOLYLINE
  5
1cb
100
AcDbEntity
  8
Découpe_2
 62
4
100
AcDbPolyline
 90
2
 70
0
 10
288.762840
 20
96.420270
 30
0.0
 10
295.762840
 20
96.420270
 30
0.0
  0
LWPOLYLINE
  5
1cc
100
AcDbEntity
  8
Découpe_2
 62
4
100
AcDbPolyline
 90
2
 70
0
 10
295.762840
 20
103.420270
 30
0.0
 10
295.762840
 20
96.420270
 30
0.0
  0
LWPOLYLINE
  5
1cd
100
AcDbEntity
  8
Découpe_2
 62
4
100
AcDbPolyline
 90
2
 70
0
 10
298.712840
 20
103.420270
 30
0.0
 10
295.762840
 20
103.420270
 30
0.0
  0
LWPOLYLINE
  5
1ce
100
AcDbEntity
  8
Découpe_2
 62
4
100
AcDbPolyline
 90
2
 70
0
 10
298.712840
 20
103.420270
 30
0.0
 10
298.712840
 20
110.420270
 30
0.0
  0
LWPOLYLINE
  5
1cf
100
AcDbEntity
  8
Découpe_2
 62
4
100
AcDbPolyline
 90
2
 70
0
 10
295.762840
 20
110.420270
 30
0.0
 10
298.712840
 20
110.420270
 30
0.0
  0
LWPOLYLINE
  5
1d0
100
AcDbEntity
  8
Découpe_2
 62
4
100
AcDbPolyline
 90
2
 70
0
 10
295.762840
 20
116.470270
 30
0.0
 10
295.762840
 20
110.420270
 30
0.0
  0
LWPOLYLINE
  5
1d1
100
AcDbEntity
  8
Découpe_2
 62
4
100
AcDbPolyline
 90
2
 70
0
 10
283.712840
 20
116.470270
 30
0.0
 10
295.762840
 20
116.470270
 30
0.0
  0
LWPOLYLINE
  5
1d2
100
AcDbEntity
  8
Découpe_2
 62
4
100
AcDbPolyline
 90
2
 70
0
 10
283.712840
 20
119.420270
 30
0.0
 10
283.712840
 20
116.470270
 30
0.0
  0
LWPOLYLINE
  5
1d3
100
AcDbEntity
  8
Découpe_2
 62
4
100
AcDbPolyline
 90
2
 70
0
 10
298.712840
 20
119.420270
 30
0.0
 10
283.712840
 20
119.420270
 30
0.0
  0
LWPOLYLINE
  5
1d4
100
AcDbEntity
  8
Découpe_2
 62
4
100
AcDbPolyline
 90
2
 70
0
 10
298.712840
 20
119.420270
 30
0.0
 10
298.712840
 20
124.420270
 30
0.0
  0
LWPOLYLINE
  5
1d5
100
AcDbEntity
  8
Découpe_2
 62
4
100
AcDbPolyline
 90
2
 70
0
 10
295.762840
 20
124.420270
 30
0.0
 10
298.712840
 20
124.420270
 30
0.0
  0
LWPOLYLINE
  5
1d6
100
AcDbEntity
  8
Découpe_2
 62
4
100
AcDbPolyline
 90
2
 70
0
 10
295.762840
 20
131.420270
 30
0.0
 10
295.762840
 20
124.420270
 30
0.0
  0
LWPOLYLINE
  5
1d7
100
AcDbEntity
  8
Découpe_2
 62
4
100
AcDbPolyline
 90
2
 70
0
 10
295.762840
 20
131.420270
 30
0.0
 10
288.762840
 20
131.420270
 30
0.0
  0
LWPOLYLINE
  5
1d8
100
AcDbEntity
  8
Découpe_2
 62
4
100
AcDbPolyline
 90
2
 70
0
 10
284.762840
 20
128.420270
 30
0.0
 10
288.762840
 20
131.420270
 30
0.0
  0
LWPOLYLINE
  5
1d9
100
AcDbEntity
  8
Découpe_2
 62
4
100
AcDbPolyline
 90
2
 70
0
 10
259.762840
 20
128.420270
 30
0.0
 10
284.762840
 20
128.420270
 30
0.0
  0
LWPOLYLINE
  5
1da
100
AcDbEntity
  8
Découpe_2
 62
4
100
AcDbPolyline
 90
2
 70
0
 10
258.262840
 20
129.920270
 30
0.0
 10
259.762840
 20
128.420270
 30
0.0
  0
LWPOLYLINE
  5
1db
100
AcDbEntity
  8
Découpe_2
 62
4
100
AcDbPolyline
 90
2
 70
0
 10
240.612840
 20
129.920270
 30
0.0
 10
258.262840
 20
129.920270
 30
0.0
  0
LWPOLYLINE
  5
1dc
100
AcDbEntity
  8
Découpe_2
 62
4
100
AcDbPolyline
 90
2
 70
0
 10
239.112840
 20
128.420270
 30
0.0
 10
240.612840
 20
129.920270
 30
0.0
  0
LWPOLYLINE
  5
1dd
100
AcDbEntity
  8
Découpe_2
 62
4
100
AcDbPolyline
 90
2
 70
0
 10
214.112840
 20
128.420270
 30
0.0
 10
239.112840
 20
128.420270
 30
0.0
  0
LWPOLYLINE
  5
1de
100
AcDbEntity
  8
Découpe_2
 62
4
100
AcDbPolyline
 90
2
 70
0
 10
210.112840
 20
131.420270
 30
0.0
 10
214.112840
 20
128.420270
 30
0.0
  0
LWPOLYLINE
  5
1df
100
AcDbEntity
  8
Découpe_2
 62
4
100
AcDbPolyline
 90
2
 70
0
 10
210.112840
 20
131.420270
 30
0.0
 10
203.112840
 20
131.420270
 30
0.0
  0
LWPOLYLINE
  5
1e0
100
AcDbEntity
  8
Découpe_2
 62
4
100
AcDbPolyline
 90
2
 70
0
 10
203.112840
 20
124.420270
 30
0.0
 10
203.112840
 20
131.420270
 30
0.0
  0
LWPOLYLINE
  5
1e1
100
AcDbEntity
  8
Découpe_2
 62
4
100
AcDbPolyline
 90
2
 70
0
 10
200.162840
 20
124.420270
 30
0.0
 10
203.112840
 20
124.420270
 30
0.0
  0
LWPOLYLINE
  5
1e2
100
AcDbEntity
  8
Découpe_2
 62
4
100
AcDbPolyline
 90
2
 70
0
 10
200.162840
 20
124.420270
 30
0.0
 10
200.162840
 20
119.420270
 30
0.0
  0
LWPOLYLINE
  5
1e3
100
AcDbEntity
  8
Découpe_2
 62
4
100
AcDbPolyline
 90
2
 70
0
 10
215.162840
 20
119.420270
 30
0.0
 10
200.162840
 20
119.420270
 30
0.0
  0
LWPOLYLINE
  5
1e4
100
AcDbEntity
  8
Découpe_2
 62
4
100
AcDbPolyline
 90
2
 70
0
 10
215.162840
 20
116.470270
 30
0.0
 10
215.162840
 20
119.420270
 30
0.0
  0
LWPOLYLINE
  5
1e5
100
AcDbEntity
  8
Découpe_2
 62
4
100
AcDbPolyline
 90
2
 70
0
 10
203.112840
 20
116.470270
 30
0.0
 10
215.162840
 20
116.470270
 30
0.0
  0
LWPOLYLINE
  5
1e6
100
AcDbEntity
  8
Découpe_2
 62
4
100
AcDbPolyline
 90
2
 70
0
 10
203.112840
 20
110.420270
 30
0.0
 10
203.112840
 20
116.470270
 30
0.0
  0
LWPOLYLINE
  5
1e7
100
AcDbEntity
  8
Découpe_2
 62
4
100
AcDbPolyline
 90
2
 70
0
 10
200.162840
 20
110.420270
 30
0.0
 10
203.112840
 20
110.420270
 30
0.0
  0
LWPOLYLINE
  5
1e8
100
AcDbEntity
  8
Découpe_2
 62
4
100
AcDbPolyline
 90
2
 70
0
 10
200.162840
 20
110.420270
 30
0.0
 10
200.162840
 20
103.420270
 30
0.0
  0
LWPOLYLINE
  5
1e9
100
AcDbEntity
  8
Découpe_2
 62
4
100
AcDbPolyline
 90
2
 70
0
 10
203.112840
 20
103.420270
 30
0.0
 10
200.162840
 20
103.420270
 30
0.0
  0
LWPOLYLINE
  5
1ea
100
AcDbEntity
  8
Découpe_2
 62
4
100
AcDbPolyline
 90
7
 70
0
 10
85.894595
 20
291.466600
 30
0.0
 10
85.894595
 20
281.466600
 30
0.0
 10
82.894595
 20
277.466600
 30
0.0
 10
82.894595
 20
189.016600
 30
0.0
 10
85.894595
 20
185.016600
 30
0.0
 10
85.894595
 20
175.016600
 30
0.0
 10
78.894595
 20
175.016600
 30
0.0
  0
LWPOLYLINE
  5
1eb
100
AcDbEntity
  8
Découpe_2
 62
4
100
AcDbPolyline
 90
2
 70
0
 10
78.894595
 20
177.966600
 30
0.0
 10
78.894595
 20
175.016600
 30
0.0
  0
LWPOLYLINE
  5
1ec
100
AcDbEntity
  8
Découpe_2
 62
4
100
AcDbPolyline
 90
2
 70
0
 10
71.894595
 20
177.966600
 30
0.0
 10
78.894595
 20
177.966600
 30
0.0
  0
LWPOLYLINE
  5
1ed
100
AcDbEntity
  8
Découpe_2
 62
4
100
AcDbPolyline
 90
2
 70
0
 10
71.894595
 20
175.016600
 30
0.0
 10
71.894595
 20
177.966600
 30
0.0
  0
LWPOLYLINE
  5
1ee
100
AcDbEntity
  8
Découpe_2
 62
4
100
AcDbPolyline
 90
2
 70
0
 10
71.894595
 20
175.016600
 30
0.0
 10
65.844595
 20
175.016600
 30
0.0
  0
LWPOLYLINE
  5
1ef
100
AcDbEntity
  8
Découpe_2
 62
4
100
AcDbPolyline
 90
2
 70
0
 10
65.844595
 20
190.016600
 30
0.0
 10
65.844595
 20
175.016600
 30
0.0
  0
LWPOLYLINE
  5
1f0
100
AcDbEntity
  8
Découpe_2
 62
4
100
AcDbPolyline
 90
2
 70
0
 10
62.894595
 20
190.016600
 30
0.0
 10
65.844595
 20
190.016600
 30
0.0
  0
LWPOLYLINE
  5
1f1
100
AcDbEntity
  8
Découpe_2
 62
4
100
AcDbPolyline
 90
2
 70
0
 10
62.894595
 20
177.966600
 30
0.0
 10
62.894595
 20
190.016600
 30
0.0
  0
LWPOLYLINE
  5
1f2
100
AcDbEntity
  8
Découpe_2
 62
4
100
AcDbPolyline
 90
2
 70
0
 10
57.894595
 20
177.966600
 30
0.0
 10
62.894595
 20
177.966600
 30
0.0
  0
LWPOLYLINE
  5
1f3
100
AcDbEntity
  8
Découpe_2
 62
4
100
AcDbPolyline
 90
2
 70
0
 10
57.894595
 20
175.016600
 30
0.0
 10
57.894595
 20
177.966600
 30
0.0
  0
LWPOLYLINE
  5
1f4
100
AcDbEntity
  8
Découpe_2
 62
4
100
AcDbPolyline
 90
3
 70
0
 10
57.894595
 20
175.016600
 30
0.0
 10
50.894595
 20
175.016600
 30
0.0
 10
50.894595
 20
185.016600
 30
0.0
  0
LWPOLYLINE
  5
1f5
100
AcDbEntity
  8
Découpe_2
 62
4
100
AcDbPolyline
 90
2
 70
0
 10
53.894595
 20
189.016600
 30
0.0
 10
50.894595
 20
185.016600
 30
0.0
  0
LWPOLYLINE
  5
1f6
100
AcDbEntity
  8
Découpe_2
 62
4
100
AcDbPolyline
 90
2
 70
0
 10
53.894595
 20
226.741600
 30
0.0
 10
53.894595
 20
189.016600
 30
0.0
  0
LWPOLYLINE
  5
1f7
100
AcDbEntity
  8
Découpe_2
 62
4
100
AcDbPolyline
 90
2
 70
0
 10
52.394595
 20
228.241600
 30
0.0
 10
53.894595
 20
226.741600
 30
0.0
  0
LWPOLYLINE
  5
1f8
100
AcDbEntity
  8
Découpe_2
 62
4
100
AcDbPolyline
 90
2
 70
0
 10
52.394595
 20
238.241600
 30
0.0
 10
52.394595
 20
228.241600
 30
0.0
  0
LWPOLYLINE
  5
1f9
100
AcDbEntity
  8
Découpe_2
 62
4
100
AcDbPolyline
 90
2
 70
0
 10
53.894595
 20
239.741600
 30
0.0
 10
52.394595
 20
238.241600
 30
0.0
  0
LWPOLYLINE
  5
1fa
100
AcDbEntity
  8
Découpe_2
 62
4
100
AcDbPolyline
 90
2
 70
0
 10
53.894595
 20
277.466600
 30
0.0
 10
53.894595
 20
239.741600
 30
0.0
  0
LWPOLYLINE
  5
1fb
100
AcDbEntity
  8
Découpe_2
 62
4
100
AcDbPolyline
 90
2
 70
0
 10
50.894595
 20
281.466600
 30
0.0
 10
53.894595
 20
277.466600
 30
0.0
  0
LWPOLYLINE
  5
1fc
100
AcDbEntity
  8
Découpe_2
 62
4
100
AcDbPolyline
 90
3
 70
0
 10
50.894595
 20
281.466600
 30
0.0
 10
50.894595
 20
291.466600
 30
0.0
 10
57.894595
 20
291.466600
 30
0.0
  0
LWPOLYLINE
  5
1fd
100
AcDbEntity
  8
Découpe_2
 62
4
100
AcDbPolyline
 90
2
 70
0
 10
57.894595
 20
288.516600
 30
0.0
 10
57.894595
 20
291.466600
 30
0.0
  0
LWPOLYLINE
  5
1fe
100
AcDbEntity
  8
Découpe_2
 62
4
100
AcDbPolyline
 90
2
 70
0
 10
62.894595
 20
288.516600
 30
0.0
 10
57.894595
 20
288.516600
 30
0.0
  0
LWPOLYLINE
  5
1ff
100
AcDbEntity
  8
Découpe_2
 62
4
100
AcDbPolyline
 90
2
 70
0
 10
62.894595
 20
276.466600
 30
0.0
 10
62.894595
 20
288.516600
 30
0.0
  0
LWPOLYLINE
  5
200
100
AcDbEntity
  8
Découpe_2
 62
4
100
AcDbPolyline
 90
2
 70
0
 10
65.844595
 20
276.466600
 30
0.0
 10
62.894595
 20
276.466600
 30
0.0
  0
LWPOLYLINE
  5
201
100
AcDbEntity
  8
Découpe_2
 62
4
100
AcDbPolyline
 90
2
 70
0
 10
65.844595
 20
291.466600
 30
0.0
 10
65.844595
 20
276.466600
 30
0.0
  0
LWPOLYLINE
  5
202
100
AcDbEntity
  8
Découpe_2
 62
4
100
AcDbPolyline
 90
2
 70
0
 10
65.844595
 20
291.466600
 30
0.0
 10
71.894595
 20
291.466600
 30
0.0
  0
LWPOLYLINE
  5
203
100
AcDbEntity
  8
Découpe_2
 62
4
100
AcDbPolyline
 90
2
 70
0
 10
71.894595
 20
288.516600
 30
0.0
 10
71.894595
 20
291.466600
 30
0.0
  0
LWPOLYLINE
  5
204
100
AcDbEntity
  8
Découpe_2
 62
4
100
AcDbPolyline
 90
2
 70
0
 10
78.894595
 20
288.516600
 30
0.0
 10
71.894595
 20
288.516600
 30
0.0
  0
LWPOLYLINE
  5
205
100
AcDbEntity
  8
Découpe_2
 62
4
100
AcDbPolyline
 90
2
 70
0
 10
78.894595
 20
291.466600
 30
0.0
 10
78.894595
 20
288.516600
 30
0.0
  0
LWPOLYLINE
  5
206
100
AcDbEntity
  8
Découpe_2
 62
4
100
AcDbPolyline
 90
2
 70
0
 10
78.894595
 20
291.466600
 30
0.0
 10
85.894595
 20
291.466600
 30
0.0
  0
LWPOLYLINE
  5
207
100
AcDbEntity
  8
Découpe_2
 62
4
100
AcDbPolyline
 90
2
 70
0
 10
204.724360
 20
291.466600
 30
0.0
 10
219.724360
 20
291.466600
 30
0.0
  0
LWPOLYLINE
  5
208
100
AcDbEntity
  8
Découpe_2
 62
4
100
AcDbPolyline
 90
2
 70
0
 10
219.724360
 20
288.516600
 30
0.0
 10
219.724360
 20
291.466600
 30
0.0
  0
LWPOLYLINE
  5
209
100
AcDbEntity
  8
Découpe_2
 62
4
100
AcDbPolyline
 90
2
 70
0
 10
204.724360
 20
276.466600
 30
0.0
 10
204.724360
 20
291.466600
 30
0.0
  0
LWPOLYLINE
  5
20a
100
AcDbEntity
  8
Découpe_2
 62
4
100
AcDbPolyline
 90
2
 70
0
 10
204.724360
 20
276.466600
 30
0.0
 10
207.674360
 20
276.466600
 30
0.0
  0
LWPOLYLINE
  5
20b
100
AcDbEntity
  8
Découpe_2
 62
4
100
AcDbPolyline
 90
2
 70
0
 10
401.724360
 20
288.516600
 30
0.0
 10
219.724360
 20
288.516600
 30
0.0
  0
LWPOLYLINE
  5
20c
100
AcDbEntity
  8
Découpe_2
 62
4
100
AcDbPolyline
 90
2
 70
0
 10
207.674360
 20
276.466600
 30
0.0
 10
207.674360
 20
190.016600
 30
0.0
  0
LWPOLYLINE
  5
20d
100
AcDbEntity
  8
Découpe_2
 62
4
100
AcDbPolyline
 90
2
 70
0
 10
401.724360
 20
291.466600
 30
0.0
 10
401.724360
 20
288.516600
 30
0.0
  0
LWPOLYLINE
  5
20e
100
AcDbEntity
  8
Découpe_2
 62
4
100
AcDbPolyline
 90
2
 70
0
 10
207.674360
 20
190.016600
 30
0.0
 10
204.724360
 20
190.016600
 30
0.0
  0
LWPOLYLINE
  5
20f
100
AcDbEntity
  8
Découpe_2
 62
4
100
AcDbPolyline
 90
2
 70
0
 10
401.724360
 20
291.466600
 30
0.0
 10
416.724360
 20
291.466600
 30
0.0
  0
LWPOLYLINE
  5
210
100
AcDbEntity
  8
Découpe_2
 62
4
100
AcDbPolyline
 90
2
 70
0
 10
204.724360
 20
175.016600
 30
0.0
 10
204.724360
 20
190.016600
 30
0.0
  0
LWPOLYLINE
  5
211
100
AcDbEntity
  8
Découpe_2
 62
4
100
AcDbPolyline
 90
2
 70
0
 10
416.724360
 20
291.466600
 30
0.0
 10
416.724360
 20
276.466600
 30
0.0
  0
LWPOLYLINE
  5
212
100
AcDbEntity
  8
Découpe_2
 62
4
100
AcDbPolyline
 90
2
 70
0
 10
219.724360
 20
175.016600
 30
0.0
 10
204.724360
 20
175.016600
 30
0.0
  0
LWPOLYLINE
  5
213
100
AcDbEntity
  8
Découpe_2
 62
4
100
AcDbPolyline
 90
2
 70
0
 10
413.774360
 20
276.466600
 30
0.0
 10
416.724360
 20
276.466600
 30
0.0
  0
LWPOLYLINE
  5
214
100
AcDbEntity
  8
Découpe_2
 62
4
100
AcDbPolyline
 90
2
 70
0
 10
219.724360
 20
175.016600
 30
0.0
 10
219.724360
 20
177.966600
 30
0.0
  0
LWPOLYLINE
  5
215
100
AcDbEntity
  8
Découpe_2
 62
4
100
AcDbPolyline
 90
2
 70
0
 10
413.774360
 20
94.466600
 30
0.0
 10
413.774360
 20
276.466600
 30
0.0
  0
LWPOLYLINE
  5
216
100
AcDbEntity
  8
Découpe_2
 62
4
100
AcDbPolyline
 90
2
 70
0
 10
219.724360
 20
177.966600
 30
0.0
 10
288.224360
 20
177.966600
 30
0.0
  0
LWPOLYLINE
  5
217
100
AcDbEntity
  8
Découpe_2
 62
4
100
AcDbPolyline
 90
2
 70
0
 10
416.724360
 20
94.466600
 30
0.0
 10
413.774360
 20
94.466600
 30
0.0
  0
LWPOLYLINE
  5
218
100
AcDbEntity
  8
Découpe_2
 62
4
100
AcDbPolyline
 90
2
 70
0
 10
288.224360
 20
177.966600
 30
0.0
 10
288.224360
 20
175.016600
 30
0.0
  0
LWPOLYLINE
  5
219
100
AcDbEntity
  8
Découpe_2
 62
4
100
AcDbPolyline
 90
2
 70
0
 10
416.724360
 20
94.466600
 30
0.0
 10
416.724360
 20
79.466600
 30
0.0
  0
LWPOLYLINE
  5
21a
100
AcDbEntity
  8
Découpe_2
 62
4
100
AcDbPolyline
 90
2
 70
0
 10
300.274360
 20
175.016600
 30
0.0
 10
288.224360
 20
175.016600
 30
0.0
  0
LWPOLYLINE
  5
21b
100
AcDbEntity
  8
Découpe_2
 62
4
100
AcDbPolyline
 90
2
 70
0
 10
416.724360
 20
79.466600
 30
0.0
 10
401.724360
 20
79.466600
 30
0.0
  0
LWPOLYLINE
  5
21c
100
AcDbEntity
  8
Découpe_2
 62
4
100
AcDbPolyline
 90
2
 70
0
 10
300.274360
 20
162.966600
 30
0.0
 10
300.274360
 20
175.016600
 30
0.0
  0
LWPOLYLINE
  5
21d
100
AcDbEntity
  8
Découpe_2
 62
4
100
AcDbPolyline
 90
2
 70
0
 10
401.724360
 20
82.416600
 30
0.0
 10
401.724360
 20
79.466600
 30
0.0
  0
LWPOLYLINE
  5
21e
100
AcDbEntity
  8
Découpe_2
 62
4
100
AcDbPolyline
 90
2
 70
0
 10
300.274360
 20
162.966600
 30
0.0
 10
303.224360
 20
162.966600
 30
0.0
  0
LWPOLYLINE
  5
21f
100
AcDbEntity
  8
Découpe_2
 62
4
100
AcDbPolyline
 90
2
 70
0
 10
315.274360
 20
82.416600
 30
0.0
 10
401.724360
 20
82.416600
 30
0.0
  0
LWPOLYLINE
  5
220
100
AcDbEntity
  8
Découpe_2
 62
4
100
AcDbPolyline
 90
2
 70
0
 10
303.224360
 20
162.966600
 30
0.0
 10
303.224360
 20
94.466600
 30
0.0
  0
LWPOLYLINE
  5
221
100
AcDbEntity
  8
Découpe_2
 62
4
100
AcDbPolyline
 90
2
 70
0
 10
315.274360
 20
79.466600
 30
0.0
 10
315.274360
 20
82.416600
 30
0.0
  0
LWPOLYLINE
  5
222
100
AcDbEntity
  8
Découpe_2
 62
4
100
AcDbPolyline
 90
2
 70
0
 10
303.224360
 20
94.466600
 30
0.0
 10
300.274360
 20
94.466600
 30
0.0
  0
LWPOLYLINE
  5
223
100
AcDbEntity
  8
Découpe_2
 62
4
100
AcDbPolyline
 90
3
 70
0
 10
315.274360
 20
79.466600
 30
0.0
 10
300.274360
 20
79.466600
 30
0.0
 10
300.274360
 20
94.466600
 30
0.0
  0
ENDSEC
  0
SECTION
  2
OBJECTS
  0
DICTIONARY
  5
C
330
0
100
AcDbDictionary
  3
ACAD_GROUP
350
D
  3
ACAD_MLINESTYLE
350
17
  0
DICTIONARY
  5
D
330
C
100
AcDbDictionary
  0
DICTIONARY
  5
1A
330
C
100
AcDbDictionary
  0
DICTIONARY
  5
17
330
C
100
AcDbDictionary
  3
STANDARD
350
18
  0
DICTIONARY
  5
19
330
C
100
AcDbDictionary
  0
ENDSEC
  0
EOF
