  0
SECTION
  2
HEADER
  9
$ACADVER
  1
AC1014
  9
$HANDSEED
  5
FFFF
  9
$MEASUREMENT
 70
     1
  0
ENDSEC
  0
SECTION
  2
TABLES
  0
TABLE
  2
VPORT
  5
8
330
0
100
AcDbSymbolTable
 70
     4
  0
VPORT
  5
2E
330
8
100
AcDbSymbolTableRecord
100
AcDbViewportTableRecord
  2
*ACTIVE
 70
     0
 10
0.0
 20
0.0
 11
1.0
 21
1.0
 12
210.0
 22
148.5
 13
0.0
 23
0.0
 14
10.0
 24
10.0
 15
10.0
 25
10.0
 16
0.0
 26
0.0
 36
1.0
 17
0.0
 27
0.0
 37
0.0
 40
341.0
 41
1.24
 42
50.0
 43
0.0
 44
0.0
 50
0.0
 51
0.0
 71
     0
 72
   100
 73
     1
 74
     3
 75
     0
 76
     0
 77
     0
 78
     0
  0
ENDTAB
  0
TABLE
  2
LTYPE
  5
5
330
0
100
AcDbSymbolTable
 70
     1
  0
LTYPE
  5
14
330
5
100
AcDbSymbolTableRecord
100
AcDbLinetypeTableRecord
  2
BYBLOCK
 70
     0
  3

 72
    65
 73
     0
 40
0.0
  0
LTYPE
  5
15
330
5
100
AcDbSymbolTableRecord
100
AcDbLinetypeTableRecord
  2
BYLAYER
 70
     0
  3

 72
    65
 73
     0
 40
0.0
  0
LTYPE
  5
16
330
5
100
AcDbSymbolTableRecord
100
AcDbLinetypeTableRecord
  2
CONTINUOUS
 70
     0
  3
Solid line
 72
    65
 73
     0
 40
0.0
  0
ENDTAB
  0
TABLE
  2
LAYER
  5
2
100
AcDbSymbolTable
 70
4
  0
LAYER
  5
50
100
AcDbSymbolTableRecord
100
AcDbLayerTableRecord
  2
0
 70
0
  6
CONTINUOUS
  0
LAYER
  5
51
100
AcDbSymbolTableRecord
100
AcDbLayerTableRecord
  2
Gravure
 70
0
  6
CONTINUOUS
  0
LAYER
  5
52
100
AcDbSymbolTableRecord
100
AcDbLayerTableRecord
  2
Decoupe_1
 70
0
  6
CONTINUOUS
  0
LAYER
  5
53
100
AcDbSymbolTableRecord
100
AcDbLayerTableRecord
  2
Decoupe_2
 70
0
  6
CONTINUOUS
  0
ENDTAB
  0
TABLE
  2
STYLE
  5
3
330
0
100
AcDbSymbolTable
 70
     1
  0
STYLE
  5
11
330
3
100
AcDbSymbolTableRecord
100
AcDbTextStyleTableRecord
  2
STANDARD
 70
     0
 40
0.0
 41
1.0
 50
0.0
 71
     0
 42
2.5
  3
txt
  4

  0
ENDTAB
  0
TABLE
  2
VIEW
  5
6
330
0
100
AcDbSymbolTable
 70
     0
  0
ENDTAB
  0
TABLE
  2
UCS
  5
7
330
0
100
AcDbSymbolTable
 70
     0
  0
ENDTAB
  0
TABLE
  2
APPID
  5
9
330
0
100
AcDbSymbolTable
 70
     2
  0
APPID
  5
12
330
9
100
AcDbSymbolTableRecord
100
AcDbRegAppTableRecord
  2
ACAD
 70
     0
  0
ENDTAB
  0
TABLE
  2
DIMSTYLE
  5
A
330
0
100
AcDbSymbolTable
 70
     1
  0
DIMSTYLE
105
27
330
A
100
AcDbSymbolTableRecord
100
AcDbDimStyleTableRecord
  2
ISO-25
 70
     0
  3

  4

  5

  6

  7

 40
1.0
 41
2.5
 42
0.625
 43
3.75
 44
1.25
 45
0.0
 46
0.0
 47
0.0
 48
0.0
140
2.5
141
2.5
142
0.0
143
0.03937007874016
144
1.0
145
0.0
146
1.0
147
0.625
 71
     0
 72
     0
 73
     0
 74
     0
 75
     0
 76
     0
 77
     1
 78
     8
170
     0
171
     3
172
     1
173
     0
174
     0
175
     0
176
     0
177
     0
178
     0
270
     2
271
     2
272
     2
273
     2
274
     3
340
11
275
     0
280
     0
281
     0
282
     0
283
     0
284
     8
285
     0
286
     0
287
     3
288
     0
  0
ENDTAB
  0
TABLE
  2
BLOCK_RECORD
  5
1
330
0
100
AcDbSymbolTable
 70
     1
  0
BLOCK_RECORD
  5
1F
330
1
100
AcDbSymbolTableRecord
100
AcDbBlockTableRecord
  2
*MODEL_SPACE
  0
BLOCK_RECORD
  5
1B
330
1
100
AcDbSymbolTableRecord
100
AcDbBlockTableRecord
  2
*PAPER_SPACE
  0
ENDTAB
  0
ENDSEC
  0
SECTION
  2
BLOCKS
  0
BLOCK
  5
20
330
1F
100
AcDbEntity
  8
0
100
AcDbBlockBegin
  2
*MODEL_SPACE
 70
     0
 10
0.0
 20
0.0
 30
0.0
  3
*MODEL_SPACE
  1

  0
ENDBLK
  5
21
330
1F
100
AcDbEntity
  8
0
100
AcDbBlockEnd
  0
BLOCK
  5
1C
330
1B
100
AcDbEntity
 67
     1
  8
0
100
AcDbBlockBegin
  2
*PAPER_SPACE
  1

  0
ENDBLK
  5
1D
330
1B
100
AcDbEntity
 67
     1
  8
0
100
AcDbBlockEnd
  0
ENDSEC
  0
SECTION
  2
ENTITIES
  0
LWPOLYLINE
  5
100
100
AcDbEntity
  8
Gravure
 62
3
100
AcDbPolyline
 90
7
 70
0
 10
218.447714
 20
275.772149
 30
0.0
 10
218.447714
 20
261.210144
 30
0.0
 10
229.784561
 20
254.664463
 30
0.0
 10
242.218324
 20
261.842937
 30
0.0
 10
242.218324
 20
275.772149
 30
0.0
 10
218.447714
 20
275.772149
 30
0.0
 10
218.447714
 20
275.772149
 30
0.0
  0
LWPOLYLINE
  5
101
100
AcDbEntity
  8
Gravure
 62
3
100
AcDbPolyline
 90
7
 70
0
 10
243.351621
 20
275.772149
 30
0.0
 10
243.351621
 20
261.842937
 30
0.0
 10
255.784833
 20
254.664463
 30
0.0
 10
268.218046
 20
261.842937
 30
0.0
 10
268.218046
 20
275.772149
 30
0.0
 10
243.351621
 20
275.772149
 30
0.0
 10
243.351621
 20
275.772149
 30
0.0
  0
LWPOLYLINE
  5
102
100
AcDbEntity
  8
Gravure
 62
3
100
AcDbPolyline
 90
7
 70
0
 10
269.351343
 20
275.772149
 30
0.0
 10
269.351343
 20
261.842937
 30
0.0
 10
281.785106
 20
254.664463
 30
0.0
 10
294.218329
 20
261.842937
 30
0.0
 10
294.218329
 20
275.772149
 30
0.0
 10
269.351343
 20
275.772149
 30
0.0
 10
269.351343
 20
275.772149
 30
0.0
  0
LWPOLYLINE
  5
103
100
AcDbEntity
  8
Gravure
 62
3
100
AcDbPolyline
 90
7
 70
0
 10
295.351621
 20
275.772149
 30
0.0
 10
295.351621
 20
261.842937
 30
0.0
 10
307.784836
 20
254.664463
 30
0.0
 10
320.218051
 20
261.842937
 30
0.0
 10
320.218051
 20
275.772149
 30
0.0
 10
295.351621
 20
275.772149
 30
0.0
 10
295.351621
 20
275.772149
 30
0.0
  0
LWPOLYLINE
  5
104
100
AcDbEntity
  8
Gravure
 62
3
100
AcDbPolyline
 90
7
 70
0
 10
321.351343
 20
275.772149
 30
0.0
 10
321.351343
 20
261.842937
 30
0.0
 10
333.785094
 20
254.664463
 30
0.0
 10
346.218310
 20
261.842937
 30
0.0
 10
346.218310
 20
275.772149
 30
0.0
 10
321.351343
 20
275.772149
 30
0.0
 10
321.351343
 20
275.772149
 30
0.0
  0
LWPOLYLINE
  5
105
100
AcDbEntity
  8
Gravure
 62
3
100
AcDbPolyline
 90
7
 70
0
 10
347.351601
 20
275.772149
 30
0.0
 10
347.351601
 20
261.842937
 30
0.0
 10
359.784817
 20
254.664463
 30
0.0
 10
372.218032
 20
261.842937
 30
0.0
 10
372.218032
 20
275.772149
 30
0.0
 10
347.351601
 20
275.772149
 30
0.0
 10
347.351601
 20
275.772149
 30
0.0
  0
LWPOLYLINE
  5
106
100
AcDbEntity
  8
Gravure
 62
3
100
AcDbPolyline
 90
7
 70
0
 10
373.351323
 20
275.772149
 30
0.0
 10
373.351323
 20
261.842937
 30
0.0
 10
385.785103
 20
254.664463
 30
0.0
 10
394.547764
 20
259.723516
 30
0.0
 10
394.547764
 20
275.772149
 30
0.0
 10
373.351323
 20
275.772149
 30
0.0
 10
373.351323
 20
275.772149
 30
0.0
  0
LWPOLYLINE
  5
107
100
AcDbEntity
  8
Gravure
 62
3
100
AcDbPolyline
 90
8
 70
0
 10
242.584880
 20
260.283550
 30
0.0
 10
230.151670
 20
253.105625
 30
0.0
 10
230.151670
 20
238.748120
 30
0.0
 10
242.584880
 20
231.569646
 30
0.0
 10
255.018092
 20
238.748120
 30
0.0
 10
255.018092
 20
253.105625
 30
0.0
 10
242.584880
 20
260.283550
 30
0.0
 10
242.584880
 20
260.283550
 30
0.0
  0
LWPOLYLINE
  5
108
100
AcDbEntity
  8
Gravure
 62
3
100
AcDbPolyline
 90
8
 70
0
 10
268.584602
 20
260.283550
 30
0.0
 10
256.151392
 20
253.105625
 30
0.0
 10
256.151392
 20
238.748120
 30
0.0
 10
268.584602
 20
231.569646
 30
0.0
 10
281.018367
 20
238.748120
 30
0.0
 10
281.018367
 20
253.105625
 30
0.0
 10
268.584602
 20
260.283550
 30
0.0
 10
268.584602
 20
260.283550
 30
0.0
  0
LWPOLYLINE
  5
109
100
AcDbEntity
  8
Gravure
 62
3
100
AcDbPolyline
 90
8
 70
0
 10
294.584880
 20
260.283550
 30
0.0
 10
282.151664
 20
253.105625
 30
0.0
 10
282.151664
 20
238.748120
 30
0.0
 10
294.584880
 20
231.569646
 30
0.0
 10
307.018095
 20
238.748120
 30
0.0
 10
307.018095
 20
253.105625
 30
0.0
 10
294.584880
 20
260.283550
 30
0.0
 10
294.584880
 20
260.283550
 30
0.0
  0
LWPOLYLINE
  5
10a
100
AcDbEntity
  8
Gravure
 62
3
100
AcDbPolyline
 90
8
 70
0
 10
320.584602
 20
260.283550
 30
0.0
 10
308.151386
 20
253.105625
 30
0.0
 10
308.151386
 20
238.748120
 30
0.0
 10
320.584602
 20
231.569646
 30
0.0
 10
333.018353
 20
238.748120
 30
0.0
 10
333.018353
 20
253.105625
 30
0.0
 10
320.584602
 20
260.283550
 30
0.0
 10
320.584602
 20
260.283550
 30
0.0
  0
LWPOLYLINE
  5
10b
100
AcDbEntity
  8
Gravure
 62
3
100
AcDbPolyline
 90
8
 70
0
 10
346.584860
 20
260.283550
 30
0.0
 10
334.151673
 20
253.105625
 30
0.0
 10
334.151673
 20
238.748120
 30
0.0
 10
346.584860
 20
231.569646
 30
0.0
 10
359.018075
 20
238.748120
 30
0.0
 10
359.018075
 20
253.105625
 30
0.0
 10
346.584860
 20
260.283550
 30
0.0
 10
346.584860
 20
260.283550
 30
0.0
  0
LWPOLYLINE
  5
10c
100
AcDbEntity
  8
Gravure
 62
3
100
AcDbPolyline
 90
8
 70
0
 10
372.585146
 20
260.283550
 30
0.0
 10
360.151395
 20
253.105625
 30
0.0
 10
360.151395
 20
238.748120
 30
0.0
 10
372.584582
 20
231.569646
 30
0.0
 10
385.018362
 20
238.748120
 30
0.0
 10
385.018362
 20
253.105625
 30
0.0
 10
372.585146
 20
260.283550
 30
0.0
 10
372.585146
 20
260.283550
 30
0.0
  0
LWPOLYLINE
  5
10d
100
AcDbEntity
  8
Gravure
 62
3
100
AcDbPolyline
 90
6
 70
0
 10
218.447714
 20
259.208131
 30
0.0
 10
218.447714
 20
232.645065
 30
0.0
 10
229.018370
 20
238.748120
 30
0.0
 10
229.018370
 20
253.105625
 30
0.0
 10
218.447714
 20
259.208131
 30
0.0
 10
218.447714
 20
259.208131
 30
0.0
  0
LWPOLYLINE
  5
10e
100
AcDbEntity
  8
Gravure
 62
3
100
AcDbPolyline
 90
6
 70
0
 10
394.547764
 20
257.953012
 30
0.0
 10
386.151653
 20
253.105625
 30
0.0
 10
386.151653
 20
238.748120
 30
0.0
 10
394.547764
 20
233.900733
 30
0.0
 10
394.547764
 20
257.953012
 30
0.0
 10
394.547764
 20
257.953012
 30
0.0
  0
LWPOLYLINE
  5
10f
100
AcDbEntity
  8
Gravure
 62
3
100
AcDbPolyline
 90
8
 70
0
 10
229.384929
 20
237.189286
 30
0.0
 10
218.447714
 20
230.874563
 30
0.0
 10
218.447714
 20
214.790651
 30
0.0
 10
229.384929
 20
208.475929
 30
0.0
 10
241.818141
 20
215.654407
 30
0.0
 10
241.818141
 20
230.010808
 30
0.0
 10
229.384929
 20
237.189286
 30
0.0
 10
229.384929
 20
237.189286
 30
0.0
  0
LWPOLYLINE
  5
110
100
AcDbEntity
  8
Gravure
 62
3
100
AcDbPolyline
 90
8
 70
0
 10
255.384651
 20
237.189286
 30
0.0
 10
242.951438
 20
230.010808
 30
0.0
 10
242.951438
 20
215.654407
 30
0.0
 10
255.384651
 20
208.475929
 30
0.0
 10
267.817863
 20
215.654407
 30
0.0
 10
267.817863
 20
230.010808
 30
0.0
 10
255.384651
 20
237.189286
 30
0.0
 10
255.384651
 20
237.189286
 30
0.0
  0
LWPOLYLINE
  5
111
100
AcDbEntity
  8
Gravure
 62
3
100
AcDbPolyline
 90
8
 70
0
 10
281.384923
 20
237.189286
 30
0.0
 10
268.951714
 20
230.010808
 30
0.0
 10
268.951714
 20
215.654407
 30
0.0
 10
281.384923
 20
208.475929
 30
0.0
 10
293.818138
 20
215.654407
 30
0.0
 10
293.818138
 20
230.010808
 30
0.0
 10
281.384923
 20
237.189286
 30
0.0
 10
281.384923
 20
237.189286
 30
0.0
  0
LWPOLYLINE
  5
112
100
AcDbEntity
  8
Gravure
 62
3
100
AcDbPolyline
 90
8
 70
0
 10
307.384645
 20
237.189286
 30
0.0
 10
294.951430
 20
230.010808
 30
0.0
 10
294.951430
 20
215.654407
 30
0.0
 10
307.384645
 20
208.475929
 30
0.0
 10
319.817860
 20
215.654407
 30
0.0
 10
319.817860
 20
230.010808
 30
0.0
 10
307.384645
 20
237.189286
 30
0.0
 10
307.384645
 20
237.189286
 30
0.0
  0
LWPOLYLINE
  5
113
100
AcDbEntity
  8
Gravure
 62
3
100
AcDbPolyline
 90
8
 70
0
 10
333.384932
 20
237.189286
 30
0.0
 10
320.951716
 20
230.010808
 30
0.0
 10
320.951716
 20
215.654407
 30
0.0
 10
333.384932
 20
208.475929
 30
0.0
 10
345.818119
 20
215.654407
 30
0.0
 10
345.818119
 20
230.010808
 30
0.0
 10
333.384932
 20
237.189286
 30
0.0
 10
333.384932
 20
237.189286
 30
0.0
  0
LWPOLYLINE
  5
114
100
AcDbEntity
  8
Gravure
 62
3
100
AcDbPolyline
 90
8
 70
0
 10
359.384654
 20
237.189286
 30
0.0
 10
346.951438
 20
230.010808
 30
0.0
 10
346.951438
 20
215.654407
 30
0.0
 10
359.384654
 20
208.475929
 30
0.0
 10
371.818405
 20
215.654407
 30
0.0
 10
371.818405
 20
230.010808
 30
0.0
 10
359.384654
 20
237.189286
 30
0.0
 10
359.384654
 20
237.189286
 30
0.0
  0
LWPOLYLINE
  5
115
100
AcDbEntity
  8
Gravure
 62
3
100
AcDbPolyline
 90
8
 70
0
 10
385.384912
 20
237.189286
 30
0.0
 10
372.951697
 20
230.010808
 30
0.0
 10
372.951697
 20
215.654407
 30
0.0
 10
385.384912
 20
208.475929
 30
0.0
 10
394.547764
 20
213.766492
 30
0.0
 10
394.547764
 20
231.898720
 30
0.0
 10
385.384912
 20
237.189286
 30
0.0
 10
385.384912
 20
237.189286
 30
0.0
  0
LWPOLYLINE
  5
116
100
AcDbEntity
  8
Gravure
 62
3
100
AcDbPolyline
 90
8
 70
0
 10
242.184700
 20
214.095019
 30
0.0
 10
229.751487
 20
206.917092
 30
0.0
 10
229.751487
 20
192.560140
 30
0.0
 10
242.184700
 20
185.381662
 30
0.0
 10
254.617909
 20
192.560140
 30
0.0
 10
254.617909
 20
206.917092
 30
0.0
 10
242.184700
 20
214.095019
 30
0.0
 10
242.184700
 20
214.095019
 30
0.0
  0
LWPOLYLINE
  5
117
100
AcDbEntity
  8
Gravure
 62
3
100
AcDbPolyline
 90
8
 70
0
 10
268.184972
 20
214.095019
 30
0.0
 10
255.751760
 20
206.917092
 30
0.0
 10
255.751760
 20
192.560140
 30
0.0
 10
268.184972
 20
185.381662
 30
0.0
 10
280.618185
 20
192.560140
 30
0.0
 10
280.618185
 20
206.917092
 30
0.0
 10
268.184972
 20
214.095019
 30
0.0
 10
268.184972
 20
214.095019
 30
0.0
  0
LWPOLYLINE
  5
118
100
AcDbEntity
  8
Gravure
 62
3
100
AcDbPolyline
 90
8
 70
0
 10
294.184689
 20
214.095019
 30
0.0
 10
281.751482
 20
206.917092
 30
0.0
 10
281.751482
 20
192.560140
 30
0.0
 10
294.184689
 20
185.381662
 30
0.0
 10
306.617904
 20
192.560140
 30
0.0
 10
306.617904
 20
206.917092
 30
0.0
 10
294.184689
 20
214.095019
 30
0.0
 10
294.184689
 20
214.095019
 30
0.0
  0
LWPOLYLINE
  5
119
100
AcDbEntity
  8
Gravure
 62
3
100
AcDbPolyline
 90
8
 70
0
 10
320.184975
 20
214.095019
 30
0.0
 10
307.751760
 20
206.917092
 30
0.0
 10
307.751760
 20
192.560140
 30
0.0
 10
320.184975
 20
185.381662
 30
0.0
 10
332.618190
 20
192.560140
 30
0.0
 10
332.618190
 20
206.917092
 30
0.0
 10
320.184975
 20
214.095019
 30
0.0
 10
320.184975
 20
214.095019
 30
0.0
  0
LWPOLYLINE
  5
11a
100
AcDbEntity
  8
Gravure
 62
3
100
AcDbPolyline
 90
8
 70
0
 10
346.184697
 20
214.095019
 30
0.0
 10
333.751482
 20
206.917092
 30
0.0
 10
333.751482
 20
192.560140
 30
0.0
 10
346.184697
 20
185.381662
 30
0.0
 10
358.617912
 20
192.560140
 30
0.0
 10
358.617912
 20
206.917092
 30
0.0
 10
346.184697
 20
214.095019
 30
0.0
 10
346.184697
 20
214.095019
 30
0.0
  0
LWPOLYLINE
  5
11b
100
AcDbEntity
  8
Gravure
 62
3
100
AcDbPolyline
 90
8
 70
0
 10
372.184955
 20
214.095019
 30
0.0
 10
359.751740
 20
206.917092
 30
0.0
 10
359.751740
 20
192.560140
 30
0.0
 10
372.184955
 20
185.381662
 30
0.0
 10
384.618171
 20
192.560140
 30
0.0
 10
384.618171
 20
206.917092
 30
0.0
 10
372.184955
 20
214.095019
 30
0.0
 10
372.184955
 20
214.095019
 30
0.0
  0
LWPOLYLINE
  5
11c
100
AcDbEntity
  8
Gravure
 62
3
100
AcDbPolyline
 90
6
 70
0
 10
218.447714
 20
212.788637
 30
0.0
 10
218.447714
 20
186.688044
 30
0.0
 10
228.618187
 20
192.560140
 30
0.0
 10
228.618187
 20
206.917092
 30
0.0
 10
218.447714
 20
212.788637
 30
0.0
 10
218.447714
 20
212.788637
 30
0.0
  0
LWPOLYLINE
  5
11d
100
AcDbEntity
  8
Gravure
 62
3
100
AcDbPolyline
 90
6
 70
0
 10
394.547764
 20
211.995438
 30
0.0
 10
385.751462
 20
206.917092
 30
0.0
 10
385.751462
 20
192.560140
 30
0.0
 10
394.547764
 20
187.481243
 30
0.0
 10
394.547764
 20
211.995438
 30
0.0
 10
394.547764
 20
211.995438
 30
0.0
  0
LWPOLYLINE
  5
11e
100
AcDbEntity
  8
Gravure
 62
3
100
AcDbPolyline
 90
8
 70
0
 10
228.984746
 20
191.001302
 30
0.0
 10
218.447714
 20
184.917539
 30
0.0
 10
218.447714
 20
168.371161
 30
0.0
 10
228.984746
 20
162.287949
 30
0.0
 10
241.417959
 20
169.465873
 30
0.0
 10
241.417959
 20
183.822828
 30
0.0
 10
228.984746
 20
191.001302
 30
0.0
 10
228.984746
 20
191.001302
 30
0.0
  0
LWPOLYLINE
  5
11f
100
AcDbEntity
  8
Gravure
 62
3
100
AcDbPolyline
 90
8
 70
0
 10
254.985018
 20
191.001302
 30
0.0
 10
242.551809
 20
183.822828
 30
0.0
 10
242.551809
 20
169.465873
 30
0.0
 10
254.985018
 20
162.287949
 30
0.0
 10
267.418231
 20
169.465873
 30
0.0
 10
267.418231
 20
183.822828
 30
0.0
 10
254.985018
 20
191.001302
 30
0.0
 10
254.985018
 20
191.001302
 30
0.0
  0
LWPOLYLINE
  5
120
100
AcDbEntity
  8
Gravure
 62
3
100
AcDbPolyline
 90
8
 70
0
 10
280.984740
 20
191.001302
 30
0.0
 10
268.551531
 20
183.822828
 30
0.0
 10
268.551531
 20
169.465873
 30
0.0
 10
280.984740
 20
162.287949
 30
0.0
 10
293.417947
 20
169.465873
 30
0.0
 10
293.417947
 20
183.822828
 30
0.0
 10
280.984740
 20
191.001302
 30
0.0
 10
280.984740
 20
191.001302
 30
0.0
  0
LWPOLYLINE
  5
121
100
AcDbEntity
  8
Gravure
 62
3
100
AcDbPolyline
 90
8
 70
0
 10
306.985018
 20
191.001302
 30
0.0
 10
294.551803
 20
183.822828
 30
0.0
 10
294.551803
 20
169.465873
 30
0.0
 10
306.985018
 20
162.287949
 30
0.0
 10
319.418234
 20
169.465873
 30
0.0
 10
319.418234
 20
183.822828
 30
0.0
 10
306.985018
 20
191.001302
 30
0.0
 10
306.985018
 20
191.001302
 30
0.0
  0
LWPOLYLINE
  5
122
100
AcDbEntity
  8
Gravure
 62
3
100
AcDbPolyline
 90
8
 70
0
 10
332.984740
 20
191.001302
 30
0.0
 10
320.551525
 20
183.822828
 30
0.0
 10
320.551525
 20
169.465873
 30
0.0
 10
332.984740
 20
162.287949
 30
0.0
 10
345.417956
 20
169.465873
 30
0.0
 10
345.417956
 20
183.822828
 30
0.0
 10
332.984740
 20
191.001302
 30
0.0
 10
332.984740
 20
191.001302
 30
0.0
  0
LWPOLYLINE
  5
123
100
AcDbEntity
  8
Gravure
 62
3
100
AcDbPolyline
 90
8
 70
0
 10
358.984999
 20
191.001302
 30
0.0
 10
346.551812
 20
183.822828
 30
0.0
 10
346.551812
 20
169.465873
 30
0.0
 10
358.984999
 20
162.287949
 30
0.0
 10
371.418214
 20
169.465873
 30
0.0
 10
371.418214
 20
183.822828
 30
0.0
 10
358.984999
 20
191.001302
 30
0.0
 10
358.984999
 20
191.001302
 30
0.0
  0
LWPOLYLINE
  5
124
100
AcDbEntity
  8
Gravure
 62
3
100
AcDbPolyline
 90
8
 70
0
 10
384.984721
 20
191.001302
 30
0.0
 10
372.551534
 20
183.822828
 30
0.0
 10
372.551534
 20
169.465873
 30
0.0
 10
384.984721
 20
162.287949
 30
0.0
 10
394.547764
 20
167.808921
 30
0.0
 10
394.547764
 20
185.479780
 30
0.0
 10
384.984721
 20
191.001302
 30
0.0
 10
384.984721
 20
191.001302
 30
0.0
  0
LWPOLYLINE
  5
125
100
AcDbEntity
  8
Gravure
 62
3
100
AcDbPolyline
 90
8
 70
0
 10
241.785068
 20
167.907035
 30
0.0
 10
229.351305
 20
160.728561
 30
0.0
 10
229.351305
 20
146.372159
 30
0.0
 10
241.785068
 20
139.193682
 30
0.0
 10
254.218280
 20
146.372159
 30
0.0
 10
254.218280
 20
160.728561
 30
0.0
 10
241.785068
 20
167.907035
 30
0.0
 10
241.785068
 20
167.907035
 30
0.0
  0
LWPOLYLINE
  5
126
100
AcDbEntity
  8
Gravure
 62
3
100
AcDbPolyline
 90
8
 70
0
 10
267.784790
 20
167.907035
 30
0.0
 10
255.351577
 20
160.728561
 30
0.0
 10
255.351577
 20
146.372159
 30
0.0
 10
267.784790
 20
139.193682
 30
0.0
 10
280.218002
 20
146.372159
 30
0.0
 10
280.218002
 20
160.728561
 30
0.0
 10
267.784790
 20
167.907035
 30
0.0
 10
267.784790
 20
167.907035
 30
0.0
  0
LWPOLYLINE
  5
127
100
AcDbEntity
  8
Gravure
 62
3
100
AcDbPolyline
 90
8
 70
0
 10
293.785062
 20
167.907035
 30
0.0
 10
281.351852
 20
160.728561
 30
0.0
 10
281.351852
 20
146.372159
 30
0.0
 10
293.785062
 20
139.193682
 30
0.0
 10
306.218277
 20
146.372159
 30
0.0
 10
306.218277
 20
160.728561
 30
0.0
 10
293.785062
 20
167.907035
 30
0.0
 10
293.785062
 20
167.907035
 30
0.0
  0
LWPOLYLINE
  5
128
100
AcDbEntity
  8
Gravure
 62
3
100
AcDbPolyline
 90
8
 70
0
 10
319.784784
 20
167.907035
 30
0.0
 10
307.351569
 20
160.728561
 30
0.0
 10
307.351569
 20
146.372159
 30
0.0
 10
319.784784
 20
139.193682
 30
0.0
 10
332.217999
 20
146.372159
 30
0.0
 10
332.217999
 20
160.728561
 30
0.0
 10
319.784784
 20
167.907035
 30
0.0
 10
319.784784
 20
167.907035
 30
0.0
  0
LWPOLYLINE
  5
129
100
AcDbEntity
  8
Gravure
 62
3
100
AcDbPolyline
 90
8
 70
0
 10
345.785070
 20
167.907035
 30
0.0
 10
333.351855
 20
160.728561
 30
0.0
 10
333.351855
 20
146.372159
 30
0.0
 10
345.785070
 20
139.193682
 30
0.0
 10
358.218257
 20
146.372159
 30
0.0
 10
358.218257
 20
160.728561
 30
0.0
 10
345.785070
 20
167.907035
 30
0.0
 10
345.785070
 20
167.907035
 30
0.0
  0
LWPOLYLINE
  5
12a
100
AcDbEntity
  8
Gravure
 62
3
100
AcDbPolyline
 90
8
 70
0
 10
371.784792
 20
167.907035
 30
0.0
 10
359.351577
 20
160.728561
 30
0.0
 10
359.351577
 20
146.372159
 30
0.0
 10
371.784792
 20
139.193682
 30
0.0
 10
384.217979
 20
146.372159
 30
0.0
 10
384.217979
 20
160.728561
 30
0.0
 10
371.784792
 20
167.907035
 30
0.0
 10
371.784792
 20
167.907035
 30
0.0
  0
LWPOLYLINE
  5
12b
100
AcDbEntity
  8
Gravure
 62
3
100
AcDbPolyline
 90
6
 70
0
 10
218.447714
 20
166.369698
 30
0.0
 10
218.447714
 20
140.731022
 30
0.0
 10
228.218005
 20
146.372159
 30
0.0
 10
228.218005
 20
160.728561
 30
0.0
 10
218.447714
 20
166.369698
 30
0.0
 10
218.447714
 20
166.369698
 30
0.0
  0
LWPOLYLINE
  5
12c
100
AcDbEntity
  8
Gravure
 62
3
100
AcDbPolyline
 90
6
 70
0
 10
394.547764
 20
166.037866
 30
0.0
 10
385.351835
 20
160.728561
 30
0.0
 10
385.351835
 20
146.372159
 30
0.0
 10
394.547764
 20
141.062854
 30
0.0
 10
394.547764
 20
166.037866
 30
0.0
 10
394.547764
 20
166.037866
 30
0.0
  0
LWPOLYLINE
  5
12d
100
AcDbEntity
  8
Gravure
 62
3
100
AcDbPolyline
 90
8
 70
0
 10
228.585117
 20
144.813322
 30
0.0
 10
218.447714
 20
138.960518
 30
0.0
 10
218.447714
 20
121.952218
 30
0.0
 10
228.584563
 20
116.099965
 30
0.0
 10
241.018326
 20
123.277892
 30
0.0
 10
241.018326
 20
137.634844
 30
0.0
 10
228.585117
 20
144.813322
 30
0.0
 10
228.585117
 20
144.813322
 30
0.0
  0
LWPOLYLINE
  5
12e
100
AcDbEntity
  8
Gravure
 62
3
100
AcDbPolyline
 90
8
 70
0
 10
254.584839
 20
144.813322
 30
0.0
 10
242.151626
 20
137.634844
 30
0.0
 10
242.151626
 20
123.277892
 30
0.0
 10
254.584839
 20
116.099965
 30
0.0
 10
267.018048
 20
123.277892
 30
0.0
 10
267.018048
 20
137.634844
 30
0.0
 10
254.584839
 20
144.813322
 30
0.0
 10
254.584839
 20
144.813322
 30
0.0
  0
LWPOLYLINE
  5
12f
100
AcDbEntity
  8
Gravure
 62
3
100
AcDbPolyline
 90
8
 70
0
 10
280.585111
 20
144.813322
 30
0.0
 10
268.151348
 20
137.634844
 30
0.0
 10
268.151348
 20
123.277892
 30
0.0
 10
280.585111
 20
116.099965
 30
0.0
 10
293.018321
 20
123.277892
 30
0.0
 10
293.018321
 20
137.634844
 30
0.0
 10
280.585111
 20
144.813322
 30
0.0
 10
280.585111
 20
144.813322
 30
0.0
  0
LWPOLYLINE
  5
130
100
AcDbEntity
  8
Gravure
 62
3
100
AcDbPolyline
 90
8
 70
0
 10
306.584827
 20
144.813322
 30
0.0
 10
294.151612
 20
137.634844
 30
0.0
 10
294.151612
 20
123.277892
 30
0.0
 10
306.584827
 20
116.099965
 30
0.0
 10
319.018043
 20
123.277892
 30
0.0
 10
319.018043
 20
137.634844
 30
0.0
 10
306.584827
 20
144.813322
 30
0.0
 10
306.584827
 20
144.813322
 30
0.0
  0
LWPOLYLINE
  5
131
100
AcDbEntity
  8
Gravure
 62
3
100
AcDbPolyline
 90
8
 70
0
 10
332.585114
 20
144.813322
 30
0.0
 10
320.151334
 20
137.634844
 30
0.0
 10
320.151334
 20
123.277892
 30
0.0
 10
332.585114
 20
116.099965
 30
0.0
 10
345.018329
 20
123.277892
 30
0.0
 10
345.018329
 20
137.634844
 30
0.0
 10
332.585114
 20
144.813322
 30
0.0
 10
332.585114
 20
144.813322
 30
0.0
  0
LWPOLYLINE
  5
132
100
AcDbEntity
  8
Gravure
 62
3
100
AcDbPolyline
 90
8
 70
0
 10
358.584836
 20
144.813322
 30
0.0
 10
346.151621
 20
137.634844
 30
0.0
 10
346.151621
 20
123.277892
 30
0.0
 10
358.584836
 20
116.099965
 30
0.0
 10
371.018051
 20
123.277892
 30
0.0
 10
371.018051
 20
137.634844
 30
0.0
 10
358.584836
 20
144.813322
 30
0.0
 10
358.584836
 20
144.813322
 30
0.0
  0
LWPOLYLINE
  5
133
100
AcDbEntity
  8
Gravure
 62
3
100
AcDbPolyline
 90
8
 70
0
 10
384.585094
 20
144.813322
 30
0.0
 10
372.151343
 20
137.634844
 30
0.0
 10
372.151343
 20
123.277892
 30
0.0
 10
384.585094
 20
116.099965
 30
0.0
 10
394.547764
 20
121.851347
 30
0.0
 10
394.547764
 20
139.061390
 30
0.0
 10
384.585094
 20
144.813322
 30
0.0
 10
384.585094
 20
144.813322
 30
0.0
  0
LWPOLYLINE
  5
134
100
AcDbEntity
  8
Gravure
 62
3
100
AcDbPolyline
 90
9
 70
0
 10
241.384885
 20
121.719055
 30
0.0
 10
228.951672
 20
114.540577
 30
0.0
 10
228.951672
 20
100.184176
 30
0.0
 10
229.838578
 20
99.672098
 30
0.0
 10
252.931191
 20
99.672098
 30
0.0
 10
253.818097
 20
100.184176
 30
0.0
 10
253.818097
 20
114.540577
 30
0.0
 10
241.384885
 20
121.719055
 30
0.0
 10
241.384885
 20
121.719055
 30
0.0
  0
LWPOLYLINE
  5
135
100
AcDbEntity
  8
Gravure
 62
3
100
AcDbPolyline
 90
9
 70
0
 10
267.384607
 20
121.719055
 30
0.0
 10
254.951395
 20
114.540577
 30
0.0
 10
254.951395
 20
100.184176
 30
0.0
 10
255.838300
 20
99.672098
 30
0.0
 10
278.931464
 20
99.672098
 30
0.0
 10
279.818370
 20
100.184176
 30
0.0
 10
279.818370
 20
114.540577
 30
0.0
 10
267.384607
 20
121.719055
 30
0.0
 10
267.384607
 20
121.719055
 30
0.0
  0
LWPOLYLINE
  5
136
100
AcDbEntity
  8
Gravure
 62
3
100
AcDbPolyline
 90
9
 70
0
 10
293.384871
 20
121.719055
 30
0.0
 10
280.951670
 20
114.540577
 30
0.0
 10
280.951670
 20
100.184176
 30
0.0
 10
281.838573
 20
99.672098
 30
0.0
 10
304.931174
 20
99.672098
 30
0.0
 10
305.818086
 20
100.184176
 30
0.0
 10
305.818086
 20
114.540577
 30
0.0
 10
293.384871
 20
121.719055
 30
0.0
 10
293.384871
 20
121.719055
 30
0.0
  0
LWPOLYLINE
  5
137
100
AcDbEntity
  8
Gravure
 62
3
100
AcDbPolyline
 90
9
 70
0
 10
319.385157
 20
121.719055
 30
0.0
 10
306.951378
 20
114.540577
 30
0.0
 10
306.951378
 20
100.184176
 30
0.0
 10
307.838289
 20
99.672098
 30
0.0
 10
330.931461
 20
99.672098
 30
0.0
 10
331.818372
 20
100.184176
 30
0.0
 10
331.818372
 20
114.540577
 30
0.0
 10
319.385157
 20
121.719055
 30
0.0
 10
319.385157
 20
121.719055
 30
0.0
  0
LWPOLYLINE
  5
138
100
AcDbEntity
  8
Gravure
 62
3
100
AcDbPolyline
 90
9
 70
0
 10
345.384879
 20
121.719055
 30
0.0
 10
332.951664
 20
114.540577
 30
0.0
 10
332.951664
 20
100.184176
 30
0.0
 10
333.838576
 20
99.672098
 30
0.0
 10
356.931183
 20
99.672098
 30
0.0
 10
357.818095
 20
100.184176
 30
0.0
 10
357.818095
 20
114.540577
 30
0.0
 10
345.384879
 20
121.719055
 30
0.0
 10
345.384879
 20
121.719055
 30
0.0
  0
LWPOLYLINE
  5
139
100
AcDbEntity
  8
Gravure
 62
3
100
AcDbPolyline
 90
9
 70
0
 10
371.384601
 20
121.719055
 30
0.0
 10
358.951386
 20
114.540577
 30
0.0
 10
358.951386
 20
100.184176
 30
0.0
 10
359.838298
 20
99.672098
 30
0.0
 10
382.931469
 20
99.672098
 30
0.0
 10
383.818353
 20
100.184176
 30
0.0
 10
383.818353
 20
114.540577
 30
0.0
 10
371.384601
 20
121.719055
 30
0.0
 10
371.384601
 20
121.719055
 30
0.0
  0
LWPOLYLINE
  5
13a
100
AcDbEntity
  8
Gravure
 62
3
100
AcDbPolyline
 90
7
 70
0
 10
394.547764
 20
120.080842
 30
0.0
 10
384.951673
 20
114.540577
 30
0.0
 10
384.951673
 20
100.184176
 30
0.0
 10
385.838556
 20
99.672098
 30
0.0
 10
394.547764
 20
99.672098
 30
0.0
 10
394.547764
 20
120.080842
 30
0.0
 10
394.547764
 20
120.080842
 30
0.0
  0
LWPOLYLINE
  5
13b
100
AcDbEntity
  8
Gravure
 62
3
100
AcDbPolyline
 90
7
 70
0
 10
218.447714
 20
119.950758
 30
0.0
 10
218.447714
 20
99.672098
 30
0.0
 10
226.931469
 20
99.672098
 30
0.0
 10
227.818375
 20
100.184176
 30
0.0
 10
227.818375
 20
114.540577
 30
0.0
 10
218.447714
 20
119.950758
 30
0.0
 10
218.447714
 20
119.950758
 30
0.0
  0
LWPOLYLINE
  5
13c
100
AcDbEntity
  8
Decoupe_1
 62
5
100
AcDbPolyline
 90
2
 70
0
 10
212.497690
 20
90.721930
 30
0.0
 10
209.497690
 20
90.721930
 30
0.0
  0
LWPOLYLINE
  5
13d
100
AcDbEntity
  8
Decoupe_1
 62
5
100
AcDbPolyline
 90
2
 70
0
 10
212.497690
 20
93.721930
 30
0.0
 10
212.497690
 20
90.721930
 30
0.0
  0
LWPOLYLINE
  5
13e
100
AcDbEntity
  8
Decoupe_1
 62
5
100
AcDbPolyline
 90
2
 70
0
 10
209.497690
 20
93.721930
 30
0.0
 10
212.497690
 20
93.721930
 30
0.0
  0
LWPOLYLINE
  5
13f
100
AcDbEntity
  8
Decoupe_1
 62
5
100
AcDbPolyline
 90
2
 70
0
 10
209.497690
 20
90.721930
 30
0.0
 10
209.497690
 20
93.721930
 30
0.0
  0
LWPOLYLINE
  5
140
100
AcDbEntity
  8
Decoupe_1
 62
5
100
AcDbPolyline
 90
2
 70
0
 10
403.497690
 20
90.721930
 30
0.0
 10
400.497690
 20
90.721930
 30
0.0
  0
LWPOLYLINE
  5
141
100
AcDbEntity
  8
Decoupe_1
 62
5
100
AcDbPolyline
 90
2
 70
0
 10
403.497690
 20
93.721930
 30
0.0
 10
403.497690
 20
90.721930
 30
0.0
  0
LWPOLYLINE
  5
142
100
AcDbEntity
  8
Decoupe_1
 62
5
100
AcDbPolyline
 90
2
 70
0
 10
400.497690
 20
93.721930
 30
0.0
 10
403.497690
 20
93.721930
 30
0.0
  0
LWPOLYLINE
  5
143
100
AcDbEntity
  8
Decoupe_1
 62
5
100
AcDbPolyline
 90
2
 70
0
 10
400.497690
 20
90.721930
 30
0.0
 10
400.497690
 20
93.721930
 30
0.0
  0
LWPOLYLINE
  5
144
100
AcDbEntity
  8
Decoupe_1
 62
5
100
AcDbPolyline
 90
2
 70
0
 10
212.497690
 20
281.721930
 30
0.0
 10
209.497690
 20
281.721930
 30
0.0
  0
LWPOLYLINE
  5
145
100
AcDbEntity
  8
Decoupe_1
 62
5
100
AcDbPolyline
 90
2
 70
0
 10
212.497690
 20
284.721930
 30
0.0
 10
212.497690
 20
281.721930
 30
0.0
  0
LWPOLYLINE
  5
146
100
AcDbEntity
  8
Decoupe_1
 62
5
100
AcDbPolyline
 90
2
 70
0
 10
209.497690
 20
284.721930
 30
0.0
 10
212.497690
 20
284.721930
 30
0.0
  0
LWPOLYLINE
  5
147
100
AcDbEntity
  8
Decoupe_1
 62
5
100
AcDbPolyline
 90
2
 70
0
 10
209.497690
 20
281.721930
 30
0.0
 10
209.497690
 20
284.721930
 30
0.0
  0
LWPOLYLINE
  5
148
100
AcDbEntity
  8
Decoupe_1
 62
5
100
AcDbPolyline
 90
2
 70
0
 10
403.497690
 20
281.721930
 30
0.0
 10
400.497690
 20
281.721930
 30
0.0
  0
LWPOLYLINE
  5
149
100
AcDbEntity
  8
Decoupe_1
 62
5
100
AcDbPolyline
 90
2
 70
0
 10
403.497690
 20
284.721930
 30
0.0
 10
403.497690
 20
281.721930
 30
0.0
  0
LWPOLYLINE
  5
14a
100
AcDbEntity
  8
Decoupe_1
 62
5
100
AcDbPolyline
 90
2
 70
0
 10
400.497690
 20
284.721930
 30
0.0
 10
403.497690
 20
284.721930
 30
0.0
  0
LWPOLYLINE
  5
14b
100
AcDbEntity
  8
Decoupe_1
 62
5
100
AcDbPolyline
 90
2
 70
0
 10
400.497690
 20
281.721930
 30
0.0
 10
400.497690
 20
284.721930
 30
0.0
  0
LWPOLYLINE
  5
14c
100
AcDbEntity
  8
Decoupe_2
 62
4
100
AcDbPolyline
 90
2
 70
0
 10
200.497690
 20
293.721930
 30
0.0
 10
215.497690
 20
293.721930
 30
0.0
  0
LWPOLYLINE
  5
14d
100
AcDbEntity
  8
Decoupe_2
 62
4
100
AcDbPolyline
 90
2
 70
0
 10
215.497690
 20
290.771930
 30
0.0
 10
215.497690
 20
293.721930
 30
0.0
  0
LWPOLYLINE
  5
14e
100
AcDbEntity
  8
Decoupe_2
 62
4
100
AcDbPolyline
 90
2
 70
0
 10
200.497690
 20
278.721930
 30
0.0
 10
200.497690
 20
293.721930
 30
0.0
  0
LWPOLYLINE
  5
14f
100
AcDbEntity
  8
Decoupe_2
 62
4
100
AcDbPolyline
 90
2
 70
0
 10
200.497690
 20
278.721930
 30
0.0
 10
203.447690
 20
278.721930
 30
0.0
  0
LWPOLYLINE
  5
150
100
AcDbEntity
  8
Decoupe_2
 62
4
100
AcDbPolyline
 90
2
 70
0
 10
397.497690
 20
290.771930
 30
0.0
 10
215.497690
 20
290.771930
 30
0.0
  0
LWPOLYLINE
  5
151
100
AcDbEntity
  8
Decoupe_2
 62
4
100
AcDbPolyline
 90
2
 70
0
 10
203.447690
 20
278.721930
 30
0.0
 10
203.447690
 20
96.721930
 30
0.0
  0
LWPOLYLINE
  5
152
100
AcDbEntity
  8
Decoupe_2
 62
4
100
AcDbPolyline
 90
2
 70
0
 10
397.497690
 20
293.721930
 30
0.0
 10
397.497690
 20
290.771930
 30
0.0
  0
LWPOLYLINE
  5
153
100
AcDbEntity
  8
Decoupe_2
 62
4
100
AcDbPolyline
 90
2
 70
0
 10
203.447690
 20
96.721930
 30
0.0
 10
200.497690
 20
96.721930
 30
0.0
  0
LWPOLYLINE
  5
154
100
AcDbEntity
  8
Decoupe_2
 62
4
100
AcDbPolyline
 90
2
 70
0
 10
397.497690
 20
293.721930
 30
0.0
 10
412.497690
 20
293.721930
 30
0.0
  0
LWPOLYLINE
  5
155
100
AcDbEntity
  8
Decoupe_2
 62
4
100
AcDbPolyline
 90
2
 70
0
 10
200.497690
 20
81.721930
 30
0.0
 10
200.497690
 20
96.721930
 30
0.0
  0
LWPOLYLINE
  5
156
100
AcDbEntity
  8
Decoupe_2
 62
4
100
AcDbPolyline
 90
2
 70
0
 10
412.497690
 20
293.721930
 30
0.0
 10
412.497690
 20
278.721930
 30
0.0
  0
LWPOLYLINE
  5
157
100
AcDbEntity
  8
Decoupe_2
 62
4
100
AcDbPolyline
 90
2
 70
0
 10
215.497690
 20
81.721930
 30
0.0
 10
200.497690
 20
81.721930
 30
0.0
  0
LWPOLYLINE
  5
158
100
AcDbEntity
  8
Decoupe_2
 62
4
100
AcDbPolyline
 90
2
 70
0
 10
409.547690
 20
278.721930
 30
0.0
 10
412.497690
 20
278.721930
 30
0.0
  0
LWPOLYLINE
  5
159
100
AcDbEntity
  8
Decoupe_2
 62
4
100
AcDbPolyline
 90
2
 70
0
 10
215.497690
 20
81.721930
 30
0.0
 10
215.497690
 20
84.671930
 30
0.0
  0
LWPOLYLINE
  5
15a
100
AcDbEntity
  8
Decoupe_2
 62
4
100
AcDbPolyline
 90
2
 70
0
 10
409.547690
 20
96.721930
 30
0.0
 10
409.547690
 20
278.721930
 30
0.0
  0
LWPOLYLINE
  5
15b
100
AcDbEntity
  8
Decoupe_2
 62
4
100
AcDbPolyline
 90
2
 70
0
 10
215.497690
 20
84.671930
 30
0.0
 10
397.497690
 20
84.671930
 30
0.0
  0
LWPOLYLINE
  5
15c
100
AcDbEntity
  8
Decoupe_2
 62
4
100
AcDbPolyline
 90
2
 70
0
 10
412.497690
 20
96.721930
 30
0.0
 10
409.547690
 20
96.721930
 30
0.0
  0
LWPOLYLINE
  5
15d
100
AcDbEntity
  8
Decoupe_2
 62
4
100
AcDbPolyline
 90
2
 70
0
 10
397.497690
 20
84.671930
 30
0.0
 10
397.497690
 20
81.721930
 30
0.0
  0
LWPOLYLINE
  5
15e
100
AcDbEntity
  8
Decoupe_2
 62
4
100
AcDbPolyline
 90
3
 70
0
 10
412.497690
 20
96.721930
 30
0.0
 10
412.497690
 20
81.721930
 30
0.0
 10
397.497690
 20
81.721930
 30
0.0
  0
LWPOLYLINE
  5
15f
100
AcDbEntity
  8
Decoupe_2
 62
4
100
AcDbPolyline
 90
2
 70
0
 10
74.120543
 20
84.671930
 30
0.0
 10
74.120543
 20
91.671930
 30
0.0
  0
LWPOLYLINE
  5
160
100
AcDbEntity
  8
Decoupe_2
 62
4
100
AcDbPolyline
 90
2
 70
0
 10
74.120543
 20
84.671930
 30
0.0
 10
67.120543
 20
84.671930
 30
0.0
  0
LWPOLYLINE
  5
161
100
AcDbEntity
  8
Decoupe_2
 62
4
100
AcDbPolyline
 90
5
 70
0
 10
74.120543
 20
91.671930
 30
0.0
 10
71.120543
 20
95.671930
 30
0.0
 10
71.120543
 20
279.771930
 30
0.0
 10
74.120543
 20
283.771930
 30
0.0
 10
74.120543
 20
290.771930
 30
0.0
  0
LWPOLYLINE
  5
162
100
AcDbEntity
  8
Decoupe_2
 62
4
100
AcDbPolyline
 90
2
 70
0
 10
67.120543
 20
290.771930
 30
0.0
 10
74.120543
 20
290.771930
 30
0.0
  0
LWPOLYLINE
  5
163
100
AcDbEntity
  8
Decoupe_2
 62
4
100
AcDbPolyline
 90
2
 70
0
 10
67.120543
 20
293.721930
 30
0.0
 10
67.120543
 20
290.771930
 30
0.0
  0
LWPOLYLINE
  5
164
100
AcDbEntity
  8
Decoupe_2
 62
4
100
AcDbPolyline
 90
2
 70
0
 10
67.120543
 20
293.721930
 30
0.0
 10
60.120543
 20
293.721930
 30
0.0
  0
LWPOLYLINE
  5
165
100
AcDbEntity
  8
Decoupe_2
 62
4
100
AcDbPolyline
 90
2
 70
0
 10
60.120543
 20
290.771930
 30
0.0
 10
60.120543
 20
293.721930
 30
0.0
  0
LWPOLYLINE
  5
166
100
AcDbEntity
  8
Decoupe_2
 62
4
100
AcDbPolyline
 90
2
 70
0
 10
54.070543
 20
290.771930
 30
0.0
 10
60.120543
 20
290.771930
 30
0.0
  0
LWPOLYLINE
  5
167
100
AcDbEntity
  8
Decoupe_2
 62
4
100
AcDbPolyline
 90
2
 70
0
 10
54.070543
 20
278.721930
 30
0.0
 10
54.070543
 20
290.771930
 30
0.0
  0
LWPOLYLINE
  5
168
100
AcDbEntity
  8
Decoupe_2
 62
4
100
AcDbPolyline
 90
2
 70
0
 10
51.120543
 20
278.721930
 30
0.0
 10
54.070543
 20
278.721930
 30
0.0
  0
LWPOLYLINE
  5
169
100
AcDbEntity
  8
Decoupe_2
 62
4
100
AcDbPolyline
 90
2
 70
0
 10
51.120543
 20
293.721930
 30
0.0
 10
51.120543
 20
278.721930
 30
0.0
  0
LWPOLYLINE
  5
16a
100
AcDbEntity
  8
Decoupe_2
 62
4
100
AcDbPolyline
 90
2
 70
0
 10
51.120543
 20
293.721930
 30
0.0
 10
46.120543
 20
293.721930
 30
0.0
  0
LWPOLYLINE
  5
16b
100
AcDbEntity
  8
Decoupe_2
 62
4
100
AcDbPolyline
 90
2
 70
0
 10
46.120543
 20
290.771930
 30
0.0
 10
46.120543
 20
293.721930
 30
0.0
  0
LWPOLYLINE
  5
16c
100
AcDbEntity
  8
Decoupe_2
 62
4
100
AcDbPolyline
 90
2
 70
0
 10
39.120543
 20
290.771930
 30
0.0
 10
46.120543
 20
290.771930
 30
0.0
  0
LWPOLYLINE
  5
16d
100
AcDbEntity
  8
Decoupe_2
 62
4
100
AcDbPolyline
 90
2
 70
0
 10
39.120543
 20
290.771930
 30
0.0
 10
39.120543
 20
283.771930
 30
0.0
  0
LWPOLYLINE
  5
16e
100
AcDbEntity
  8
Decoupe_2
 62
4
100
AcDbPolyline
 90
2
 70
0
 10
42.120543
 20
279.771930
 30
0.0
 10
39.120543
 20
283.771930
 30
0.0
  0
LWPOLYLINE
  5
16f
100
AcDbEntity
  8
Decoupe_2
 62
4
100
AcDbPolyline
 90
2
 70
0
 10
42.120543
 20
196.721930
 30
0.0
 10
42.120543
 20
279.771930
 30
0.0
  0
LWPOLYLINE
  5
170
100
AcDbEntity
  8
Decoupe_2
 62
4
100
AcDbPolyline
 90
2
 70
0
 10
40.620543
 20
195.221930
 30
0.0
 10
42.120543
 20
196.721930
 30
0.0
  0
LWPOLYLINE
  5
171
100
AcDbEntity
  8
Decoupe_2
 62
4
100
AcDbPolyline
 90
2
 70
0
 10
40.620543
 20
180.221930
 30
0.0
 10
40.620543
 20
195.221930
 30
0.0
  0
LWPOLYLINE
  5
172
100
AcDbEntity
  8
Decoupe_2
 62
4
100
AcDbPolyline
 90
2
 70
0
 10
42.120543
 20
178.721930
 30
0.0
 10
40.620543
 20
180.221930
 30
0.0
  0
LWPOLYLINE
  5
173
100
AcDbEntity
  8
Decoupe_2
 62
4
100
AcDbPolyline
 90
2
 70
0
 10
42.120543
 20
95.671930
 30
0.0
 10
42.120543
 20
178.721930
 30
0.0
  0
LWPOLYLINE
  5
174
100
AcDbEntity
  8
Decoupe_2
 62
4
100
AcDbPolyline
 90
2
 70
0
 10
39.120543
 20
91.671930
 30
0.0
 10
42.120543
 20
95.671930
 30
0.0
  0
LWPOLYLINE
  5
175
100
AcDbEntity
  8
Decoupe_2
 62
4
100
AcDbPolyline
 90
2
 70
0
 10
39.120543
 20
91.671930
 30
0.0
 10
39.120543
 20
84.671930
 30
0.0
  0
LWPOLYLINE
  5
176
100
AcDbEntity
  8
Decoupe_2
 62
4
100
AcDbPolyline
 90
2
 70
0
 10
46.120543
 20
84.671930
 30
0.0
 10
39.120543
 20
84.671930
 30
0.0
  0
LWPOLYLINE
  5
177
100
AcDbEntity
  8
Decoupe_2
 62
4
100
AcDbPolyline
 90
2
 70
0
 10
46.120543
 20
81.721930
 30
0.0
 10
46.120543
 20
84.671930
 30
0.0
  0
LWPOLYLINE
  5
178
100
AcDbEntity
  8
Decoupe_2
 62
4
100
AcDbPolyline
 90
2
 70
0
 10
46.120543
 20
81.721930
 30
0.0
 10
51.120543
 20
81.721930
 30
0.0
  0
LWPOLYLINE
  5
179
100
AcDbEntity
  8
Decoupe_2
 62
4
100
AcDbPolyline
 90
2
 70
0
 10
51.120543
 20
96.721930
 30
0.0
 10
51.120543
 20
81.721930
 30
0.0
  0
LWPOLYLINE
  5
17a
100
AcDbEntity
  8
Decoupe_2
 62
4
100
AcDbPolyline
 90
2
 70
0
 10
54.070543
 20
96.721930
 30
0.0
 10
51.120543
 20
96.721930
 30
0.0
  0
LWPOLYLINE
  5
17b
100
AcDbEntity
  8
Decoupe_2
 62
4
100
AcDbPolyline
 90
2
 70
0
 10
54.070543
 20
84.671930
 30
0.0
 10
54.070543
 20
96.721930
 30
0.0
  0
LWPOLYLINE
  5
17c
100
AcDbEntity
  8
Decoupe_2
 62
4
100
AcDbPolyline
 90
2
 70
0
 10
60.120543
 20
84.671930
 30
0.0
 10
54.070543
 20
84.671930
 30
0.0
  0
LWPOLYLINE
  5
17d
100
AcDbEntity
  8
Decoupe_2
 62
4
100
AcDbPolyline
 90
2
 70
0
 10
60.120543
 20
81.721930
 30
0.0
 10
60.120543
 20
84.671930
 30
0.0
  0
LWPOLYLINE
  5
17e
100
AcDbEntity
  8
Decoupe_2
 62
4
100
AcDbPolyline
 90
2
 70
0
 10
60.120543
 20
81.721930
 30
0.0
 10
67.120543
 20
81.721930
 30
0.0
  0
LWPOLYLINE
  5
17f
100
AcDbEntity
  8
Decoupe_2
 62
4
100
AcDbPolyline
 90
2
 70
0
 10
67.120543
 20
84.671930
 30
0.0
 10
67.120543
 20
81.721930
 30
0.0
  0
LWPOLYLINE
  5
180
100
AcDbEntity
  8
Decoupe_2
 62
4
100
AcDbPolyline
 90
7
 70
0
 10
78.103600
 20
81.721930
 30
0.0
 10
78.103600
 20
91.721930
 30
0.0
 10
81.103600
 20
95.721930
 30
0.0
 10
81.103600
 20
279.721930
 30
0.0
 10
78.103600
 20
283.721930
 30
0.0
 10
78.103600
 20
293.721930
 30
0.0
 10
85.103600
 20
293.721930
 30
0.0
  0
LWPOLYLINE
  5
181
100
AcDbEntity
  8
Decoupe_2
 62
4
100
AcDbPolyline
 90
2
 70
0
 10
85.103600
 20
290.771930
 30
0.0
 10
85.103600
 20
293.721930
 30
0.0
  0
LWPOLYLINE
  5
182
100
AcDbEntity
  8
Decoupe_2
 62
4
100
AcDbPolyline
 90
2
 70
0
 10
92.103600
 20
290.771930
 30
0.0
 10
85.103600
 20
290.771930
 30
0.0
  0
LWPOLYLINE
  5
183
100
AcDbEntity
  8
Decoupe_2
 62
4
100
AcDbPolyline
 90
2
 70
0
 10
92.103600
 20
293.721930
 30
0.0
 10
92.103600
 20
290.771930
 30
0.0
  0
LWPOLYLINE
  5
184
100
AcDbEntity
  8
Decoupe_2
 62
4
100
AcDbPolyline
 90
2
 70
0
 10
92.103600
 20
293.721930
 30
0.0
 10
98.153600
 20
293.721930
 30
0.0
  0
LWPOLYLINE
  5
185
100
AcDbEntity
  8
Decoupe_2
 62
4
100
AcDbPolyline
 90
2
 70
0
 10
98.153600
 20
278.721930
 30
0.0
 10
98.153600
 20
293.721930
 30
0.0
  0
LWPOLYLINE
  5
186
100
AcDbEntity
  8
Decoupe_2
 62
4
100
AcDbPolyline
 90
2
 70
0
 10
101.103600
 20
278.721930
 30
0.0
 10
98.153600
 20
278.721930
 30
0.0
  0
LWPOLYLINE
  5
187
100
AcDbEntity
  8
Decoupe_2
 62
4
100
AcDbPolyline
 90
2
 70
0
 10
101.103600
 20
290.771930
 30
0.0
 10
101.103600
 20
278.721930
 30
0.0
  0
LWPOLYLINE
  5
188
100
AcDbEntity
  8
Decoupe_2
 62
4
100
AcDbPolyline
 90
2
 70
0
 10
106.103600
 20
290.771930
 30
0.0
 10
101.103600
 20
290.771930
 30
0.0
  0
LWPOLYLINE
  5
189
100
AcDbEntity
  8
Decoupe_2
 62
4
100
AcDbPolyline
 90
2
 70
0
 10
106.103600
 20
293.721930
 30
0.0
 10
106.103600
 20
290.771930
 30
0.0
  0
LWPOLYLINE
  5
18a
100
AcDbEntity
  8
Decoupe_2
 62
4
100
AcDbPolyline
 90
3
 70
0
 10
106.103600
 20
293.721930
 30
0.0
 10
113.103600
 20
293.721930
 30
0.0
 10
113.103600
 20
283.721930
 30
0.0
  0
LWPOLYLINE
  5
18b
100
AcDbEntity
  8
Decoupe_2
 62
4
100
AcDbPolyline
 90
2
 70
0
 10
110.103600
 20
279.721930
 30
0.0
 10
113.103600
 20
283.721930
 30
0.0
  0
LWPOLYLINE
  5
18c
100
AcDbEntity
  8
Decoupe_2
 62
4
100
AcDbPolyline
 90
2
 70
0
 10
110.103600
 20
194.221930
 30
0.0
 10
110.103600
 20
279.721930
 30
0.0
  0
LWPOLYLINE
  5
18d
100
AcDbEntity
  8
Decoupe_2
 62
4
100
AcDbPolyline
 90
2
 70
0
 10
111.603600
 20
192.721930
 30
0.0
 10
110.103600
 20
194.221930
 30
0.0
  0
LWPOLYLINE
  5
18e
100
AcDbEntity
  8
Decoupe_2
 62
4
100
AcDbPolyline
 90
2
 70
0
 10
111.603600
 20
182.721930
 30
0.0
 10
111.603600
 20
192.721930
 30
0.0
  0
LWPOLYLINE
  5
18f
100
AcDbEntity
  8
Decoupe_2
 62
4
100
AcDbPolyline
 90
2
 70
0
 10
110.103600
 20
181.221930
 30
0.0
 10
111.603600
 20
182.721930
 30
0.0
  0
LWPOLYLINE
  5
190
100
AcDbEntity
  8
Decoupe_2
 62
4
100
AcDbPolyline
 90
2
 70
0
 10
110.103600
 20
95.721930
 30
0.0
 10
110.103600
 20
181.221930
 30
0.0
  0
LWPOLYLINE
  5
191
100
AcDbEntity
  8
Decoupe_2
 62
4
100
AcDbPolyline
 90
2
 70
0
 10
113.103600
 20
91.721930
 30
0.0
 10
110.103600
 20
95.721930
 30
0.0
  0
LWPOLYLINE
  5
192
100
AcDbEntity
  8
Decoupe_2
 62
4
100
AcDbPolyline
 90
3
 70
0
 10
113.103600
 20
91.721930
 30
0.0
 10
113.103600
 20
81.721930
 30
0.0
 10
106.103600
 20
81.721930
 30
0.0
  0
LWPOLYLINE
  5
193
100
AcDbEntity
  8
Decoupe_2
 62
4
100
AcDbPolyline
 90
2
 70
0
 10
106.103600
 20
84.671930
 30
0.0
 10
106.103600
 20
81.721930
 30
0.0
  0
LWPOLYLINE
  5
194
100
AcDbEntity
  8
Decoupe_2
 62
4
100
AcDbPolyline
 90
2
 70
0
 10
101.103600
 20
84.671930
 30
0.0
 10
106.103600
 20
84.671930
 30
0.0
  0
LWPOLYLINE
  5
195
100
AcDbEntity
  8
Decoupe_2
 62
4
100
AcDbPolyline
 90
2
 70
0
 10
101.103600
 20
96.721930
 30
0.0
 10
101.103600
 20
84.671930
 30
0.0
  0
LWPOLYLINE
  5
196
100
AcDbEntity
  8
Decoupe_2
 62
4
100
AcDbPolyline
 90
2
 70
0
 10
98.153600
 20
96.721930
 30
0.0
 10
101.103600
 20
96.721930
 30
0.0
  0
LWPOLYLINE
  5
197
100
AcDbEntity
  8
Decoupe_2
 62
4
100
AcDbPolyline
 90
2
 70
0
 10
98.153600
 20
81.721930
 30
0.0
 10
98.153600
 20
96.721930
 30
0.0
  0
LWPOLYLINE
  5
198
100
AcDbEntity
  8
Decoupe_2
 62
4
100
AcDbPolyline
 90
2
 70
0
 10
98.153600
 20
81.721930
 30
0.0
 10
92.103600
 20
81.721930
 30
0.0
  0
LWPOLYLINE
  5
199
100
AcDbEntity
  8
Decoupe_2
 62
4
100
AcDbPolyline
 90
2
 70
0
 10
92.103600
 20
84.671930
 30
0.0
 10
92.103600
 20
81.721930
 30
0.0
  0
LWPOLYLINE
  5
19a
100
AcDbEntity
  8
Decoupe_2
 62
4
100
AcDbPolyline
 90
2
 70
0
 10
85.103600
 20
84.671930
 30
0.0
 10
92.103600
 20
84.671930
 30
0.0
  0
LWPOLYLINE
  5
19b
100
AcDbEntity
  8
Decoupe_2
 62
4
100
AcDbPolyline
 90
2
 70
0
 10
85.103600
 20
81.721930
 30
0.0
 10
85.103600
 20
84.671930
 30
0.0
  0
LWPOLYLINE
  5
19c
100
AcDbEntity
  8
Decoupe_2
 62
4
100
AcDbPolyline
 90
2
 70
0
 10
85.103600
 20
81.721930
 30
0.0
 10
78.103600
 20
81.721930
 30
0.0
  0
LWPOLYLINE
  5
19d
100
AcDbEntity
  8
Decoupe_2
 62
4
100
AcDbPolyline
 90
2
 70
0
 10
155.317800
 20
84.671940
 30
0.0
 10
155.317800
 20
91.671940
 30
0.0
  0
LWPOLYLINE
  5
19e
100
AcDbEntity
  8
Decoupe_2
 62
4
100
AcDbPolyline
 90
2
 70
0
 10
155.317800
 20
84.671940
 30
0.0
 10
148.317800
 20
84.671940
 30
0.0
  0
LWPOLYLINE
  5
19f
100
AcDbEntity
  8
Decoupe_2
 62
4
100
AcDbPolyline
 90
5
 70
0
 10
155.317800
 20
91.671940
 30
0.0
 10
152.317800
 20
95.671940
 30
0.0
 10
152.317800
 20
279.771940
 30
0.0
 10
155.317800
 20
283.771940
 30
0.0
 10
155.317800
 20
290.771940
 30
0.0
  0
LWPOLYLINE
  5
1a0
100
AcDbEntity
  8
Decoupe_2
 62
4
100
AcDbPolyline
 90
2
 70
0
 10
148.317800
 20
290.771940
 30
0.0
 10
155.317800
 20
290.771940
 30
0.0
  0
LWPOLYLINE
  5
1a1
100
AcDbEntity
  8
Decoupe_2
 62
4
100
AcDbPolyline
 90
2
 70
0
 10
148.317800
 20
293.721940
 30
0.0
 10
148.317800
 20
290.771940
 30
0.0
  0
LWPOLYLINE
  5
1a2
100
AcDbEntity
  8
Decoupe_2
 62
4
100
AcDbPolyline
 90
2
 70
0
 10
148.317800
 20
293.721940
 30
0.0
 10
141.317800
 20
293.721940
 30
0.0
  0
LWPOLYLINE
  5
1a3
100
AcDbEntity
  8
Decoupe_2
 62
4
100
AcDbPolyline
 90
2
 70
0
 10
141.317800
 20
290.771940
 30
0.0
 10
141.317800
 20
293.721940
 30
0.0
  0
LWPOLYLINE
  5
1a4
100
AcDbEntity
  8
Decoupe_2
 62
4
100
AcDbPolyline
 90
2
 70
0
 10
135.267800
 20
290.771940
 30
0.0
 10
141.317800
 20
290.771940
 30
0.0
  0
LWPOLYLINE
  5
1a5
100
AcDbEntity
  8
Decoupe_2
 62
4
100
AcDbPolyline
 90
2
 70
0
 10
135.267800
 20
278.721940
 30
0.0
 10
135.267800
 20
290.771940
 30
0.0
  0
LWPOLYLINE
  5
1a6
100
AcDbEntity
  8
Decoupe_2
 62
4
100
AcDbPolyline
 90
2
 70
0
 10
132.317800
 20
278.721940
 30
0.0
 10
135.267800
 20
278.721940
 30
0.0
  0
LWPOLYLINE
  5
1a7
100
AcDbEntity
  8
Decoupe_2
 62
4
100
AcDbPolyline
 90
2
 70
0
 10
132.317800
 20
293.721940
 30
0.0
 10
132.317800
 20
278.721940
 30
0.0
  0
LWPOLYLINE
  5
1a8
100
AcDbEntity
  8
Decoupe_2
 62
4
100
AcDbPolyline
 90
2
 70
0
 10
132.317800
 20
293.721940
 30
0.0
 10
127.317800
 20
293.721940
 30
0.0
  0
LWPOLYLINE
  5
1a9
100
AcDbEntity
  8
Decoupe_2
 62
4
100
AcDbPolyline
 90
2
 70
0
 10
127.317800
 20
290.771940
 30
0.0
 10
127.317800
 20
293.721940
 30
0.0
  0
LWPOLYLINE
  5
1aa
100
AcDbEntity
  8
Decoupe_2
 62
4
100
AcDbPolyline
 90
2
 70
0
 10
120.317800
 20
290.771940
 30
0.0
 10
127.317800
 20
290.771940
 30
0.0
  0
LWPOLYLINE
  5
1ab
100
AcDbEntity
  8
Decoupe_2
 62
4
100
AcDbPolyline
 90
2
 70
0
 10
120.317800
 20
290.771940
 30
0.0
 10
120.317800
 20
283.771940
 30
0.0
  0
LWPOLYLINE
  5
1ac
100
AcDbEntity
  8
Decoupe_2
 62
4
100
AcDbPolyline
 90
2
 70
0
 10
123.317800
 20
279.771940
 30
0.0
 10
120.317800
 20
283.771940
 30
0.0
  0
LWPOLYLINE
  5
1ad
100
AcDbEntity
  8
Decoupe_2
 62
4
100
AcDbPolyline
 90
2
 70
0
 10
123.317800
 20
196.721940
 30
0.0
 10
123.317800
 20
279.771940
 30
0.0
  0
LWPOLYLINE
  5
1ae
100
AcDbEntity
  8
Decoupe_2
 62
4
100
AcDbPolyline
 90
2
 70
0
 10
121.817800
 20
195.221940
 30
0.0
 10
123.317800
 20
196.721940
 30
0.0
  0
LWPOLYLINE
  5
1af
100
AcDbEntity
  8
Decoupe_2
 62
4
100
AcDbPolyline
 90
2
 70
0
 10
121.817800
 20
180.221940
 30
0.0
 10
121.817800
 20
195.221940
 30
0.0
  0
LWPOLYLINE
  5
1b0
100
AcDbEntity
  8
Decoupe_2
 62
4
100
AcDbPolyline
 90
2
 70
0
 10
123.317800
 20
178.721940
 30
0.0
 10
121.817800
 20
180.221940
 30
0.0
  0
LWPOLYLINE
  5
1b1
100
AcDbEntity
  8
Decoupe_2
 62
4
100
AcDbPolyline
 90
2
 70
0
 10
123.317800
 20
95.671940
 30
0.0
 10
123.317800
 20
178.721940
 30
0.0
  0
LWPOLYLINE
  5
1b2
100
AcDbEntity
  8
Decoupe_2
 62
4
100
AcDbPolyline
 90
2
 70
0
 10
120.317800
 20
91.671940
 30
0.0
 10
123.317800
 20
95.671940
 30
0.0
  0
LWPOLYLINE
  5
1b3
100
AcDbEntity
  8
Decoupe_2
 62
4
100
AcDbPolyline
 90
2
 70
0
 10
120.317800
 20
91.671940
 30
0.0
 10
120.317800
 20
84.671940
 30
0.0
  0
LWPOLYLINE
  5
1b4
100
AcDbEntity
  8
Decoupe_2
 62
4
100
AcDbPolyline
 90
2
 70
0
 10
127.317800
 20
84.671940
 30
0.0
 10
120.317800
 20
84.671940
 30
0.0
  0
LWPOLYLINE
  5
1b5
100
AcDbEntity
  8
Decoupe_2
 62
4
100
AcDbPolyline
 90
2
 70
0
 10
127.317800
 20
81.721940
 30
0.0
 10
127.317800
 20
84.671940
 30
0.0
  0
LWPOLYLINE
  5
1b6
100
AcDbEntity
  8
Decoupe_2
 62
4
100
AcDbPolyline
 90
2
 70
0
 10
127.317800
 20
81.721940
 30
0.0
 10
132.317800
 20
81.721940
 30
0.0
  0
LWPOLYLINE
  5
1b7
100
AcDbEntity
  8
Decoupe_2
 62
4
100
AcDbPolyline
 90
2
 70
0
 10
132.317800
 20
96.721940
 30
0.0
 10
132.317800
 20
81.721940
 30
0.0
  0
LWPOLYLINE
  5
1b8
100
AcDbEntity
  8
Decoupe_2
 62
4
100
AcDbPolyline
 90
2
 70
0
 10
135.267800
 20
96.721940
 30
0.0
 10
132.317800
 20
96.721940
 30
0.0
  0
LWPOLYLINE
  5
1b9
100
AcDbEntity
  8
Decoupe_2
 62
4
100
AcDbPolyline
 90
2
 70
0
 10
135.267800
 20
84.671940
 30
0.0
 10
135.267800
 20
96.721940
 30
0.0
  0
LWPOLYLINE
  5
1ba
100
AcDbEntity
  8
Decoupe_2
 62
4
100
AcDbPolyline
 90
2
 70
0
 10
141.317800
 20
84.671940
 30
0.0
 10
135.267800
 20
84.671940
 30
0.0
  0
LWPOLYLINE
  5
1bb
100
AcDbEntity
  8
Decoupe_2
 62
4
100
AcDbPolyline
 90
2
 70
0
 10
141.317800
 20
81.721940
 30
0.0
 10
141.317800
 20
84.671940
 30
0.0
  0
LWPOLYLINE
  5
1bc
100
AcDbEntity
  8
Decoupe_2
 62
4
100
AcDbPolyline
 90
2
 70
0
 10
141.317800
 20
81.721940
 30
0.0
 10
148.317800
 20
81.721940
 30
0.0
  0
LWPOLYLINE
  5
1bd
100
AcDbEntity
  8
Decoupe_2
 62
4
100
AcDbPolyline
 90
2
 70
0
 10
148.317800
 20
84.671940
 30
0.0
 10
148.317800
 20
81.721940
 30
0.0
  0
LWPOLYLINE
  5
1be
100
AcDbEntity
  8
Decoupe_2
 62
4
100
AcDbPolyline
 90
7
 70
0
 10
159.300860
 20
81.721940
 30
0.0
 10
159.300860
 20
91.721940
 30
0.0
 10
162.300860
 20
95.721940
 30
0.0
 10
162.300860
 20
279.721940
 30
0.0
 10
159.300860
 20
283.721940
 30
0.0
 10
159.300860
 20
293.721940
 30
0.0
 10
166.300860
 20
293.721940
 30
0.0
  0
LWPOLYLINE
  5
1bf
100
AcDbEntity
  8
Decoupe_2
 62
4
100
AcDbPolyline
 90
2
 70
0
 10
166.300860
 20
290.771940
 30
0.0
 10
166.300860
 20
293.721940
 30
0.0
  0
LWPOLYLINE
  5
1c0
100
AcDbEntity
  8
Decoupe_2
 62
4
100
AcDbPolyline
 90
2
 70
0
 10
173.300860
 20
290.771940
 30
0.0
 10
166.300860
 20
290.771940
 30
0.0
  0
LWPOLYLINE
  5
1c1
100
AcDbEntity
  8
Decoupe_2
 62
4
100
AcDbPolyline
 90
2
 70
0
 10
173.300860
 20
293.721940
 30
0.0
 10
173.300860
 20
290.771940
 30
0.0
  0
LWPOLYLINE
  5
1c2
100
AcDbEntity
  8
Decoupe_2
 62
4
100
AcDbPolyline
 90
2
 70
0
 10
173.300860
 20
293.721940
 30
0.0
 10
179.350860
 20
293.721940
 30
0.0
  0
LWPOLYLINE
  5
1c3
100
AcDbEntity
  8
Decoupe_2
 62
4
100
AcDbPolyline
 90
2
 70
0
 10
179.350860
 20
278.721940
 30
0.0
 10
179.350860
 20
293.721940
 30
0.0
  0
LWPOLYLINE
  5
1c4
100
AcDbEntity
  8
Decoupe_2
 62
4
100
AcDbPolyline
 90
2
 70
0
 10
182.300860
 20
278.721940
 30
0.0
 10
179.350860
 20
278.721940
 30
0.0
  0
LWPOLYLINE
  5
1c5
100
AcDbEntity
  8
Decoupe_2
 62
4
100
AcDbPolyline
 90
2
 70
0
 10
182.300860
 20
290.771940
 30
0.0
 10
182.300860
 20
278.721940
 30
0.0
  0
LWPOLYLINE
  5
1c6
100
AcDbEntity
  8
Decoupe_2
 62
4
100
AcDbPolyline
 90
2
 70
0
 10
187.300860
 20
290.771940
 30
0.0
 10
182.300860
 20
290.771940
 30
0.0
  0
LWPOLYLINE
  5
1c7
100
AcDbEntity
  8
Decoupe_2
 62
4
100
AcDbPolyline
 90
2
 70
0
 10
187.300860
 20
293.721940
 30
0.0
 10
187.300860
 20
290.771940
 30
0.0
  0
LWPOLYLINE
  5
1c8
100
AcDbEntity
  8
Decoupe_2
 62
4
100
AcDbPolyline
 90
3
 70
0
 10
187.300860
 20
293.721940
 30
0.0
 10
194.300860
 20
293.721940
 30
0.0
 10
194.300860
 20
283.721940
 30
0.0
  0
LWPOLYLINE
  5
1c9
100
AcDbEntity
  8
Decoupe_2
 62
4
100
AcDbPolyline
 90
2
 70
0
 10
191.300860
 20
279.721940
 30
0.0
 10
194.300860
 20
283.721940
 30
0.0
  0
LWPOLYLINE
  5
1ca
100
AcDbEntity
  8
Decoupe_2
 62
4
100
AcDbPolyline
 90
2
 70
0
 10
191.300860
 20
194.221940
 30
0.0
 10
191.300860
 20
279.721940
 30
0.0
  0
LWPOLYLINE
  5
1cb
100
AcDbEntity
  8
Decoupe_2
 62
4
100
AcDbPolyline
 90
2
 70
0
 10
192.800860
 20
192.721940
 30
0.0
 10
191.300860
 20
194.221940
 30
0.0
  0
LWPOLYLINE
  5
1cc
100
AcDbEntity
  8
Decoupe_2
 62
4
100
AcDbPolyline
 90
2
 70
0
 10
192.800860
 20
182.721940
 30
0.0
 10
192.800860
 20
192.721940
 30
0.0
  0
LWPOLYLINE
  5
1cd
100
AcDbEntity
  8
Decoupe_2
 62
4
100
AcDbPolyline
 90
2
 70
0
 10
191.300860
 20
181.221940
 30
0.0
 10
192.800860
 20
182.721940
 30
0.0
  0
LWPOLYLINE
  5
1ce
100
AcDbEntity
  8
Decoupe_2
 62
4
100
AcDbPolyline
 90
2
 70
0
 10
191.300860
 20
95.721940
 30
0.0
 10
191.300860
 20
181.221940
 30
0.0
  0
LWPOLYLINE
  5
1cf
100
AcDbEntity
  8
Decoupe_2
 62
4
100
AcDbPolyline
 90
2
 70
0
 10
194.300860
 20
91.721940
 30
0.0
 10
191.300860
 20
95.721940
 30
0.0
  0
LWPOLYLINE
  5
1d0
100
AcDbEntity
  8
Decoupe_2
 62
4
100
AcDbPolyline
 90
3
 70
0
 10
194.300860
 20
91.721940
 30
0.0
 10
194.300860
 20
81.721940
 30
0.0
 10
187.300860
 20
81.721940
 30
0.0
  0
LWPOLYLINE
  5
1d1
100
AcDbEntity
  8
Decoupe_2
 62
4
100
AcDbPolyline
 90
2
 70
0
 10
187.300860
 20
84.671940
 30
0.0
 10
187.300860
 20
81.721940
 30
0.0
  0
LWPOLYLINE
  5
1d2
100
AcDbEntity
  8
Decoupe_2
 62
4
100
AcDbPolyline
 90
2
 70
0
 10
182.300860
 20
84.671940
 30
0.0
 10
187.300860
 20
84.671940
 30
0.0
  0
LWPOLYLINE
  5
1d3
100
AcDbEntity
  8
Decoupe_2
 62
4
100
AcDbPolyline
 90
2
 70
0
 10
182.300860
 20
96.721940
 30
0.0
 10
182.300860
 20
84.671940
 30
0.0
  0
LWPOLYLINE
  5
1d4
100
AcDbEntity
  8
Decoupe_2
 62
4
100
AcDbPolyline
 90
2
 70
0
 10
179.350860
 20
96.721940
 30
0.0
 10
182.300860
 20
96.721940
 30
0.0
  0
LWPOLYLINE
  5
1d5
100
AcDbEntity
  8
Decoupe_2
 62
4
100
AcDbPolyline
 90
2
 70
0
 10
179.350860
 20
81.721940
 30
0.0
 10
179.350860
 20
96.721940
 30
0.0
  0
LWPOLYLINE
  5
1d6
100
AcDbEntity
  8
Decoupe_2
 62
4
100
AcDbPolyline
 90
2
 70
0
 10
179.350860
 20
81.721940
 30
0.0
 10
173.300860
 20
81.721940
 30
0.0
  0
LWPOLYLINE
  5
1d7
100
AcDbEntity
  8
Decoupe_2
 62
4
100
AcDbPolyline
 90
2
 70
0
 10
173.300860
 20
84.671940
 30
0.0
 10
173.300860
 20
81.721940
 30
0.0
  0
LWPOLYLINE
  5
1d8
100
AcDbEntity
  8
Decoupe_2
 62
4
100
AcDbPolyline
 90
2
 70
0
 10
166.300860
 20
84.671940
 30
0.0
 10
173.300860
 20
84.671940
 30
0.0
  0
LWPOLYLINE
  5
1d9
100
AcDbEntity
  8
Decoupe_2
 62
4
100
AcDbPolyline
 90
2
 70
0
 10
166.300860
 20
81.721940
 30
0.0
 10
166.300860
 20
84.671940
 30
0.0
  0
LWPOLYLINE
  5
1da
100
AcDbEntity
  8
Decoupe_2
 62
4
100
AcDbPolyline
 90
2
 70
0
 10
166.300860
 20
81.721940
 30
0.0
 10
159.300860
 20
81.721940
 30
0.0
  0
ENDSEC
  0
SECTION
  2
OBJECTS
  0
DICTIONARY
  5
C
330
0
100
AcDbDictionary
  3
ACAD_GROUP
350
D
  3
ACAD_MLINESTYLE
350
17
  0
DICTIONARY
  5
D
330
C
100
AcDbDictionary
  0
DICTIONARY
  5
1A
330
C
100
AcDbDictionary
  0
DICTIONARY
  5
17
330
C
100
AcDbDictionary
  3
STANDARD
350
18
  0
DICTIONARY
  5
19
330
C
100
AcDbDictionary
  0
ENDSEC
  0
EOF
