  0
SECTION
  2
HEADER
  9
$ACADVER
  1
AC1014
  9
$HANDSEED
  5
FFFF
  9
$MEASUREMENT
 70
     1
  0
ENDSEC
  0
SECTION
  2
TABLES
  0
TABLE
  2
VPORT
  5
8
330
0
100
AcDbSymbolTable
 70
     4
  0
VPORT
  5
2E
330
8
100
AcDbSymbolTableRecord
100
AcDbViewportTableRecord
  2
*ACTIVE
 70
     0
 10
0.0
 20
0.0
 11
1.0
 21
1.0
 12
210.0
 22
148.5
 13
0.0
 23
0.0
 14
10.0
 24
10.0
 15
10.0
 25
10.0
 16
0.0
 26
0.0
 36
1.0
 17
0.0
 27
0.0
 37
0.0
 40
341.0
 41
1.24
 42
50.0
 43
0.0
 44
0.0
 50
0.0
 51
0.0
 71
     0
 72
   100
 73
     1
 74
     3
 75
     0
 76
     0
 77
     0
 78
     0
  0
ENDTAB
  0
TABLE
  2
LTYPE
  5
5
330
0
100
AcDbSymbolTable
 70
     1
  0
LTYPE
  5
14
330
5
100
AcDbSymbolTableRecord
100
AcDbLinetypeTableRecord
  2
BYBLOCK
 70
     0
  3

 72
    65
 73
     0
 40
0.0
  0
LTYPE
  5
15
330
5
100
AcDbSymbolTableRecord
100
AcDbLinetypeTableRecord
  2
BYLAYER
 70
     0
  3

 72
    65
 73
     0
 40
0.0
  0
LTYPE
  5
16
330
5
100
AcDbSymbolTableRecord
100
AcDbLinetypeTableRecord
  2
CONTINUOUS
 70
     0
  3
Solid line
 72
    65
 73
     0
 40
0.0
  0
ENDTAB
  0
TABLE
  2
LAYER
  5
2
100
AcDbSymbolTable
 70
3
  0
LAYER
  5
50
100
AcDbSymbolTableRecord
100
AcDbLayerTableRecord
  2
0
 70
0
  6
CONTINUOUS
  0
LAYER
  5
51
100
AcDbSymbolTableRecord
100
AcDbLayerTableRecord
  2
Decoupe_1
 70
0
  6
CONTINUOUS
  0
LAYER
  5
52
100
AcDbSymbolTableRecord
100
AcDbLayerTableRecord
  2
Decoupe_2
 70
0
  6
CONTINUOUS
  0
ENDTAB
  0
TABLE
  2
STYLE
  5
3
330
0
100
AcDbSymbolTable
 70
     1
  0
STYLE
  5
11
330
3
100
AcDbSymbolTableRecord
100
AcDbTextStyleTableRecord
  2
STANDARD
 70
     0
 40
0.0
 41
1.0
 50
0.0
 71
     0
 42
2.5
  3
txt
  4

  0
ENDTAB
  0
TABLE
  2
VIEW
  5
6
330
0
100
AcDbSymbolTable
 70
     0
  0
ENDTAB
  0
TABLE
  2
UCS
  5
7
330
0
100
AcDbSymbolTable
 70
     0
  0
ENDTAB
  0
TABLE
  2
APPID
  5
9
330
0
100
AcDbSymbolTable
 70
     2
  0
APPID
  5
12
330
9
100
AcDbSymbolTableRecord
100
AcDbRegAppTableRecord
  2
ACAD
 70
     0
  0
ENDTAB
  0
TABLE
  2
DIMSTYLE
  5
A
330
0
100
AcDbSymbolTable
 70
     1
  0
DIMSTYLE
105
27
330
A
100
AcDbSymbolTableRecord
100
AcDbDimStyleTableRecord
  2
ISO-25
 70
     0
  3

  4

  5

  6

  7

 40
1.0
 41
2.5
 42
0.625
 43
3.75
 44
1.25
 45
0.0
 46
0.0
 47
0.0
 48
0.0
140
2.5
141
2.5
142
0.0
143
0.03937007874016
144
1.0
145
0.0
146
1.0
147
0.625
 71
     0
 72
     0
 73
     0
 74
     0
 75
     0
 76
     0
 77
     1
 78
     8
170
     0
171
     3
172
     1
173
     0
174
     0
175
     0
176
     0
177
     0
178
     0
270
     2
271
     2
272
     2
273
     2
274
     3
340
11
275
     0
280
     0
281
     0
282
     0
283
     0
284
     8
285
     0
286
     0
287
     3
288
     0
  0
ENDTAB
  0
TABLE
  2
BLOCK_RECORD
  5
1
330
0
100
AcDbSymbolTable
 70
     1
  0
BLOCK_RECORD
  5
1F
330
1
100
AcDbSymbolTableRecord
100
AcDbBlockTableRecord
  2
*MODEL_SPACE
  0
BLOCK_RECORD
  5
1B
330
1
100
AcDbSymbolTableRecord
100
AcDbBlockTableRecord
  2
*PAPER_SPACE
  0
ENDTAB
  0
ENDSEC
  0
SECTION
  2
BLOCKS
  0
BLOCK
  5
20
330
1F
100
AcDbEntity
  8
0
100
AcDbBlockBegin
  2
*MODEL_SPACE
 70
     0
 10
0.0
 20
0.0
 30
0.0
  3
*MODEL_SPACE
  1

  0
ENDBLK
  5
21
330
1F
100
AcDbEntity
  8
0
100
AcDbBlockEnd
  0
BLOCK
  5
1C
330
1B
100
AcDbEntity
 67
     1
  8
0
100
AcDbBlockBegin
  2
*PAPER_SPACE
  1

  0
ENDBLK
  5
1D
330
1B
100
AcDbEntity
 67
     1
  8
0
100
AcDbBlockEnd
  0
ENDSEC
  0
SECTION
  2
ENTITIES
  0
LWPOLYLINE
  5
100
100
AcDbEntity
  8
0
 62
6
100
AcDbPolyline
 90
3
 70
0
 10
147.187730
 20
149.117742
 30
0.0
 10
147.187730
 20
152.117742
 30
0.0
 10
146.187730
 20
153.117742
 30
0.0
  0
LWPOLYLINE
  5
101
100
AcDbEntity
  8
0
 62
6
100
AcDbPolyline
 90
2
 70
0
 10
144.187730
 20
146.117742
 30
0.0
 10
147.187730
 20
149.117742
 30
0.0
  0
LWPOLYLINE
  5
102
100
AcDbEntity
  8
0
 62
6
100
AcDbPolyline
 90
2
 70
0
 10
146.187730
 20
153.117742
 30
0.0
 10
144.187730
 20
153.117742
 30
0.0
  0
LWPOLYLINE
  5
103
100
AcDbEntity
  8
0
 62
6
100
AcDbPolyline
 90
2
 70
0
 10
144.187730
 20
146.117742
 30
0.0
 10
131.187710
 20
146.117742
 30
0.0
  0
LWPOLYLINE
  5
104
100
AcDbEntity
  8
0
 62
6
100
AcDbPolyline
 90
2
 70
0
 10
144.187730
 20
151.117742
 30
0.0
 10
144.187730
 20
153.117742
 30
0.0
  0
LWPOLYLINE
  5
105
100
AcDbEntity
  8
0
 62
6
100
AcDbPolyline
 90
2
 70
0
 10
131.187710
 20
146.117742
 30
0.0
 10
131.187710
 20
146.017742
 30
0.0
  0
LWPOLYLINE
  5
106
100
AcDbEntity
  8
0
 62
6
100
AcDbPolyline
 90
2
 70
0
 10
123.187710
 20
151.117742
 30
0.0
 10
144.187730
 20
151.117742
 30
0.0
  0
LWPOLYLINE
  5
107
100
AcDbEntity
  8
0
 62
6
100
AcDbPolyline
 90
2
 70
0
 10
131.187710
 20
146.017742
 30
0.0
 10
128.287710
 20
143.117742
 30
0.0
  0
LWPOLYLINE
  5
108
100
AcDbEntity
  8
0
 62
6
100
AcDbPolyline
 90
3
 70
0
 10
123.187710
 20
151.117742
 30
0.0
 10
123.187710
 20
143.117742
 30
0.0
 10
128.287710
 20
143.117742
 30
0.0
  0
LWPOLYLINE
  5
109
100
AcDbEntity
  8
0
 62
6
100
AcDbPolyline
 90
3
 70
0
 10
131.304302
 20
141.340469
 30
0.0
 10
131.304302
 20
138.340469
 30
0.0
 10
132.304302
 20
137.340469
 30
0.0
  0
LWPOLYLINE
  5
10a
100
AcDbEntity
  8
0
 62
6
100
AcDbPolyline
 90
2
 70
0
 10
134.304302
 20
144.340469
 30
0.0
 10
131.304302
 20
141.340469
 30
0.0
  0
LWPOLYLINE
  5
10b
100
AcDbEntity
  8
0
 62
6
100
AcDbPolyline
 90
2
 70
0
 10
132.304302
 20
137.340469
 30
0.0
 10
134.304302
 20
137.340469
 30
0.0
  0
LWPOLYLINE
  5
10c
100
AcDbEntity
  8
0
 62
6
100
AcDbPolyline
 90
2
 70
0
 10
134.304302
 20
144.340469
 30
0.0
 10
147.304322
 20
144.340469
 30
0.0
  0
LWPOLYLINE
  5
10d
100
AcDbEntity
  8
0
 62
6
100
AcDbPolyline
 90
2
 70
0
 10
134.304302
 20
139.340469
 30
0.0
 10
134.304302
 20
137.340469
 30
0.0
  0
LWPOLYLINE
  5
10e
100
AcDbEntity
  8
0
 62
6
100
AcDbPolyline
 90
2
 70
0
 10
147.304322
 20
144.340469
 30
0.0
 10
147.304322
 20
144.440469
 30
0.0
  0
LWPOLYLINE
  5
10f
100
AcDbEntity
  8
0
 62
6
100
AcDbPolyline
 90
2
 70
0
 10
155.304322
 20
139.340469
 30
0.0
 10
134.304302
 20
139.340469
 30
0.0
  0
LWPOLYLINE
  5
110
100
AcDbEntity
  8
0
 62
6
100
AcDbPolyline
 90
2
 70
0
 10
147.304322
 20
144.440469
 30
0.0
 10
150.204322
 20
147.340469
 30
0.0
  0
LWPOLYLINE
  5
111
100
AcDbEntity
  8
0
 62
6
100
AcDbPolyline
 90
3
 70
0
 10
155.304322
 20
139.340469
 30
0.0
 10
155.304322
 20
147.340469
 30
0.0
 10
150.204322
 20
147.340469
 30
0.0
  0
LWPOLYLINE
  5
112
100
AcDbEntity
  8
0
 62
6
100
AcDbPolyline
 90
3
 70
0
 10
147.187730
 20
132.024219
 30
0.0
 10
147.187730
 20
135.024219
 30
0.0
 10
146.187730
 20
136.024219
 30
0.0
  0
LWPOLYLINE
  5
113
100
AcDbEntity
  8
0
 62
6
100
AcDbPolyline
 90
2
 70
0
 10
144.187730
 20
129.024219
 30
0.0
 10
147.187730
 20
132.024219
 30
0.0
  0
LWPOLYLINE
  5
114
100
AcDbEntity
  8
0
 62
6
100
AcDbPolyline
 90
2
 70
0
 10
146.187730
 20
136.024219
 30
0.0
 10
144.187730
 20
136.024219
 30
0.0
  0
LWPOLYLINE
  5
115
100
AcDbEntity
  8
0
 62
6
100
AcDbPolyline
 90
2
 70
0
 10
144.187730
 20
129.024219
 30
0.0
 10
131.187710
 20
129.024219
 30
0.0
  0
LWPOLYLINE
  5
116
100
AcDbEntity
  8
0
 62
6
100
AcDbPolyline
 90
2
 70
0
 10
144.187730
 20
134.024219
 30
0.0
 10
144.187730
 20
136.024219
 30
0.0
  0
LWPOLYLINE
  5
117
100
AcDbEntity
  8
0
 62
6
100
AcDbPolyline
 90
2
 70
0
 10
131.187710
 20
129.024219
 30
0.0
 10
131.187710
 20
128.924219
 30
0.0
  0
LWPOLYLINE
  5
118
100
AcDbEntity
  8
0
 62
6
100
AcDbPolyline
 90
2
 70
0
 10
123.187710
 20
134.024219
 30
0.0
 10
144.187730
 20
134.024219
 30
0.0
  0
LWPOLYLINE
  5
119
100
AcDbEntity
  8
0
 62
6
100
AcDbPolyline
 90
2
 70
0
 10
131.187710
 20
128.924219
 30
0.0
 10
128.287710
 20
126.024219
 30
0.0
  0
LWPOLYLINE
  5
11a
100
AcDbEntity
  8
0
 62
6
100
AcDbPolyline
 90
3
 70
0
 10
123.187710
 20
134.024219
 30
0.0
 10
123.187710
 20
126.024219
 30
0.0
 10
128.287710
 20
126.024219
 30
0.0
  0
LWPOLYLINE
  5
11b
100
AcDbEntity
  8
0
 62
6
100
AcDbPolyline
 90
3
 70
0
 10
131.304302
 20
124.246946
 30
0.0
 10
131.304302
 20
121.246946
 30
0.0
 10
132.304302
 20
120.246946
 30
0.0
  0
LWPOLYLINE
  5
11c
100
AcDbEntity
  8
0
 62
6
100
AcDbPolyline
 90
2
 70
0
 10
134.304302
 20
127.246946
 30
0.0
 10
131.304302
 20
124.246946
 30
0.0
  0
LWPOLYLINE
  5
11d
100
AcDbEntity
  8
0
 62
6
100
AcDbPolyline
 90
2
 70
0
 10
132.304302
 20
120.246946
 30
0.0
 10
134.304302
 20
120.246946
 30
0.0
  0
LWPOLYLINE
  5
11e
100
AcDbEntity
  8
0
 62
6
100
AcDbPolyline
 90
2
 70
0
 10
134.304302
 20
127.246946
 30
0.0
 10
147.304322
 20
127.246946
 30
0.0
  0
LWPOLYLINE
  5
11f
100
AcDbEntity
  8
0
 62
6
100
AcDbPolyline
 90
2
 70
0
 10
134.304302
 20
122.246946
 30
0.0
 10
134.304302
 20
120.246946
 30
0.0
  0
LWPOLYLINE
  5
120
100
AcDbEntity
  8
0
 62
6
100
AcDbPolyline
 90
2
 70
0
 10
147.304322
 20
127.246946
 30
0.0
 10
147.304322
 20
127.346946
 30
0.0
  0
LWPOLYLINE
  5
121
100
AcDbEntity
  8
0
 62
6
100
AcDbPolyline
 90
2
 70
0
 10
155.304322
 20
122.246946
 30
0.0
 10
134.304302
 20
122.246946
 30
0.0
  0
LWPOLYLINE
  5
122
100
AcDbEntity
  8
0
 62
6
100
AcDbPolyline
 90
2
 70
0
 10
147.304322
 20
127.346946
 30
0.0
 10
150.204322
 20
130.246946
 30
0.0
  0
LWPOLYLINE
  5
123
100
AcDbEntity
  8
0
 62
6
100
AcDbPolyline
 90
3
 70
0
 10
155.304322
 20
122.246946
 30
0.0
 10
155.304322
 20
130.246946
 30
0.0
 10
150.204322
 20
130.246946
 30
0.0
  0
SPLINE
  5
124
100
AcDbEntity
  8
Decoupe_1
 62
5
100
AcDbSpline
 70
8
 71
3
 72
8
 73
4
 74
0
 40
0
 40
0
 40
0
 40
0
 40
1
 40
1
 40
1
 40
1
 10
255.513660
 20
191.402344
 30
0.0
 10
254.342490
 20
190.724168
 30
0.0
 10
253.283940
 20
189.868088
 30
0.0
 10
252.373040
 20
188.867188
 30
0.0
  0
LWPOLYLINE
  5
125
100
AcDbEntity
  8
Decoupe_1
 62
5
100
AcDbPolyline
 90
3
 70
0
 10
255.601560
 20
191.425781
 30
0.0
 10
255.601560
 20
191.250000
 30
0.0
 10
255.513660
 20
191.402344
 30
0.0
  0
SPLINE
  5
126
100
AcDbEntity
  8
Decoupe_1
 62
5
100
AcDbSpline
 70
8
 71
3
 72
8
 73
4
 74
0
 40
0
 40
0
 40
0
 40
0
 40
1
 40
1
 40
1
 40
1
 10
271.861320
 20
188.867188
 30
0.0
 10
270.950410
 20
189.868088
 30
0.0
 10
269.889910
 20
190.724168
 30
0.0
 10
268.718740
 20
191.402344
 30
0.0
  0
LWPOLYLINE
  5
127
100
AcDbEntity
  8
Decoupe_1
 62
5
100
AcDbPolyline
 90
6
 70
0
 10
252.373040
 20
188.867188
 30
0.0
 10
252.501940
 20
188.750000
 30
0.0
 10
252.501940
 20
188.574219
 30
0.0
 10
271.730460
 20
188.574219
 30
0.0
 10
271.730460
 20
188.750000
 30
0.0
 10
271.861320
 20
188.867188
 30
0.0
  0
LWPOLYLINE
  5
128
100
AcDbEntity
  8
Decoupe_1
 62
5
100
AcDbPolyline
 90
4
 70
0
 10
268.718740
 20
191.402344
 30
0.0
 10
268.630860
 20
191.250000
 30
0.0
 10
268.630860
 20
191.425781
 30
0.0
 10
255.601560
 20
191.425781
 30
0.0
  0
SPLINE
  5
129
100
AcDbEntity
  8
Decoupe_1
 62
5
100
AcDbSpline
 70
8
 71
3
 72
8
 73
4
 74
0
 40
0
 40
0
 40
0
 40
0
 40
1
 40
1
 40
1
 40
1
 10
250.564450
 20
186.333980
 30
0.0
 10
250.122950
 20
185.528766
 30
0.0
 10
249.766860
 20
184.680050
 30
0.0
 10
249.501950
 20
183.800777
 30
0.0
  0
LWPOLYLINE
  5
12a
100
AcDbEntity
  8
Decoupe_1
 62
5
100
AcDbPolyline
 90
3
 70
0
 10
250.716800
 20
186.425781
 30
0.0
 10
250.716800
 20
186.250000
 30
0.0
 10
250.564450
 20
186.333980
 30
0.0
  0
SPLINE
  5
12b
100
AcDbEntity
  8
Decoupe_1
 62
5
100
AcDbSpline
 70
8
 71
3
 72
8
 73
4
 74
0
 40
0
 40
0
 40
0
 40
0
 40
1
 40
1
 40
1
 40
1
 10
274.732420
 20
183.800780
 30
0.0
 10
274.467520
 20
184.680053
 30
0.0
 10
274.111420
 20
185.528769
 30
0.0
 10
273.669920
 20
186.333983
 30
0.0
  0
LWPOLYLINE
  5
12c
100
AcDbEntity
  8
Decoupe_1
 62
5
100
AcDbPolyline
 90
6
 70
0
 10
249.501950
 20
183.800777
 30
0.0
 10
249.669920
 20
183.749997
 30
0.0
 10
249.669920
 20
183.574216
 30
0.0
 10
274.564450
 20
183.574216
 30
0.0
 10
274.564450
 20
183.750000
 30
0.0
 10
274.732420
 20
183.800780
 30
0.0
  0
LWPOLYLINE
  5
12d
100
AcDbEntity
  8
Decoupe_1
 62
5
100
AcDbPolyline
 90
4
 70
0
 10
273.669920
 20
186.333983
 30
0.0
 10
273.515620
 20
186.250003
 30
0.0
 10
273.515620
 20
186.425784
 30
0.0
 10
250.716800
 20
186.425781
 30
0.0
  0
SPLINE
  5
12e
100
AcDbEntity
  8
Decoupe_1
 62
5
100
AcDbSpline
 70
8
 71
3
 72
8
 73
4
 74
0
 40
0
 40
0
 40
0
 40
0
 40
1
 40
1
 40
1
 40
1
 10
249.001950
 20
181.267580
 30
0.0
 10
248.920550
 20
180.424990
 30
0.0
 10
248.920550
 20
179.575014
 30
0.0
 10
249.001950
 20
178.732424
 30
0.0
  0
LWPOLYLINE
  5
12f
100
AcDbEntity
  8
Decoupe_1
 62
5
100
AcDbPolyline
 90
3
 70
0
 10
249.177730
 20
181.425781
 30
0.0
 10
249.177730
 20
181.250000
 30
0.0
 10
249.001950
 20
181.267580
 30
0.0
  0
SPLINE
  5
130
100
AcDbEntity
  8
Decoupe_1
 62
5
100
AcDbSpline
 70
8
 71
3
 72
8
 73
4
 74
0
 40
0
 40
0
 40
0
 40
0
 40
1
 40
1
 40
1
 40
1
 10
275.230470
 20
178.732420
 30
0.0
 10
275.311870
 20
179.575010
 30
0.0
 10
275.311870
 20
180.424986
 30
0.0
 10
275.230470
 20
181.267576
 30
0.0
  0
LWPOLYLINE
  5
131
100
AcDbEntity
  8
Decoupe_1
 62
5
100
AcDbPolyline
 90
6
 70
0
 10
249.001950
 20
178.732424
 30
0.0
 10
249.177730
 20
178.750000
 30
0.0
 10
249.177730
 20
178.574219
 30
0.0
 10
275.056640
 20
178.574219
 30
0.0
 10
275.056640
 20
178.750000
 30
0.0
 10
275.230470
 20
178.732420
 30
0.0
  0
LWPOLYLINE
  5
132
100
AcDbEntity
  8
Decoupe_1
 62
5
100
AcDbPolyline
 90
4
 70
0
 10
275.230470
 20
181.267576
 30
0.0
 10
275.056640
 20
181.250000
 30
0.0
 10
275.056640
 20
181.425781
 30
0.0
 10
249.177730
 20
181.425781
 30
0.0
  0
SPLINE
  5
133
100
AcDbEntity
  8
Decoupe_1
 62
5
100
AcDbSpline
 70
8
 71
3
 72
8
 73
4
 74
0
 40
0
 40
0
 40
0
 40
0
 40
1
 40
1
 40
1
 40
1
 10
249.501950
 20
176.199220
 30
0.0
 10
249.766860
 20
175.319947
 30
0.0
 10
250.122950
 20
174.471231
 30
0.0
 10
250.564450
 20
173.666017
 30
0.0
  0
LWPOLYLINE
  5
134
100
AcDbEntity
  8
Decoupe_1
 62
5
100
AcDbPolyline
 90
3
 70
0
 10
249.669920
 20
176.425781
 30
0.0
 10
249.669920
 20
176.250000
 30
0.0
 10
249.501950
 20
176.199220
 30
0.0
  0
SPLINE
  5
135
100
AcDbEntity
  8
Decoupe_1
 62
5
100
AcDbSpline
 70
8
 71
3
 72
8
 73
4
 74
0
 40
0
 40
0
 40
0
 40
0
 40
1
 40
1
 40
1
 40
1
 10
273.669920
 20
173.666020
 30
0.0
 10
274.111420
 20
174.471234
 30
0.0
 10
274.467520
 20
175.319950
 30
0.0
 10
274.732420
 20
176.199223
 30
0.0
  0
LWPOLYLINE
  5
136
100
AcDbEntity
  8
Decoupe_1
 62
5
100
AcDbPolyline
 90
6
 70
0
 10
250.564450
 20
173.666017
 30
0.0
 10
250.716800
 20
173.750000
 30
0.0
 10
250.716800
 20
173.574219
 30
0.0
 10
273.515620
 20
173.574219
 30
0.0
 10
273.515620
 20
173.750000
 30
0.0
 10
273.669920
 20
173.666020
 30
0.0
  0
LWPOLYLINE
  5
137
100
AcDbEntity
  8
Decoupe_1
 62
5
100
AcDbPolyline
 90
4
 70
0
 10
274.732420
 20
176.199223
 30
0.0
 10
274.564450
 20
176.250000
 30
0.0
 10
274.564450
 20
176.425781
 30
0.0
 10
249.669920
 20
176.425781
 30
0.0
  0
SPLINE
  5
138
100
AcDbEntity
  8
Decoupe_1
 62
5
100
AcDbSpline
 70
8
 71
3
 72
8
 73
4
 74
0
 40
0
 40
0
 40
0
 40
0
 40
1
 40
1
 40
1
 40
1
 10
252.373050
 20
171.132812
 30
0.0
 10
253.283950
 20
170.131912
 30
0.0
 10
254.342500
 20
169.275832
 30
0.0
 10
255.513670
 20
168.597656
 30
0.0
  0
LWPOLYLINE
  5
139
100
AcDbEntity
  8
Decoupe_1
 62
5
100
AcDbPolyline
 90
3
 70
0
 10
252.501950
 20
171.425781
 30
0.0
 10
252.501950
 20
171.250000
 30
0.0
 10
252.373050
 20
171.132812
 30
0.0
  0
SPLINE
  5
13a
100
AcDbEntity
  8
Decoupe_1
 62
5
100
AcDbSpline
 70
8
 71
3
 72
8
 73
4
 74
0
 40
0
 40
0
 40
0
 40
0
 40
1
 40
1
 40
1
 40
1
 10
268.718760
 20
168.597656
 30
0.0
 10
269.889930
 20
169.275832
 30
0.0
 10
270.950430
 20
170.131912
 30
0.0
 10
271.861340
 20
171.132812
 30
0.0
  0
LWPOLYLINE
  5
13b
100
AcDbEntity
  8
Decoupe_1
 62
5
100
AcDbPolyline
 90
6
 70
0
 10
255.513670
 20
168.597656
 30
0.0
 10
255.601560
 20
168.750000
 30
0.0
 10
255.601560
 20
168.574219
 30
0.0
 10
268.630860
 20
168.574219
 30
0.0
 10
268.630860
 20
168.750000
 30
0.0
 10
268.718760
 20
168.597656
 30
0.0
  0
SPLINE
  5
13c
100
AcDbEntity
  8
Decoupe_1
 62
5
100
AcDbSpline
 70
8
 71
3
 72
8
 73
4
 74
0
 40
0
 40
0
 40
0
 40
0
 40
1
 40
1
 40
1
 40
1
 10
264.617190
 20
148.466797
 30
0.0
 10
262.337020
 20
148.466797
 30
0.0
 10
260.055430
 20
147.875657
 30
0.0
 10
258.013670
 20
146.693359
 30
0.0
  0
SPLINE
  5
13d
100
AcDbEntity
  8
Decoupe_1
 62
5
100
AcDbSpline
 70
8
 71
3
 72
8
 73
4
 74
0
 40
0
 40
0
 40
0
 40
0
 40
1
 40
1
 40
1
 40
1
 10
258.013670
 20
146.693359
 30
0.0
 10
256.842520
 20
146.015181
 30
0.0
 10
255.783950
 20
145.161055
 30
0.0
 10
254.873050
 20
144.160156
 30
0.0
  0
SPLINE
  5
13e
100
AcDbEntity
  8
Decoupe_1
 62
5
100
AcDbSpline
 70
8
 71
3
 72
8
 73
4
 74
0
 40
0
 40
0
 40
0
 40
0
 40
1
 40
1
 40
1
 40
1
 10
254.873050
 20
144.160156
 30
0.0
 10
254.172170
 20
143.390046
 30
0.0
 10
253.565080
 20
142.540010
 30
0.0
 10
253.064450
 20
141.626953
 30
0.0
  0
SPLINE
  5
13f
100
AcDbEntity
  8
Decoupe_1
 62
5
100
AcDbSpline
 70
8
 71
3
 72
8
 73
4
 74
0
 40
0
 40
0
 40
0
 40
0
 40
1
 40
1
 40
1
 40
1
 10
253.064450
 20
141.626953
 30
0.0
 10
252.622960
 20
140.821738
 30
0.0
 10
252.266850
 20
139.971068
 30
0.0
 10
252.001950
 20
139.091797
 30
0.0
  0
SPLINE
  5
140
100
AcDbEntity
  8
Decoupe_1
 62
5
100
AcDbSpline
 70
8
 71
3
 72
8
 73
4
 74
0
 40
0
 40
0
 40
0
 40
0
 40
1
 40
1
 40
1
 40
1
 10
252.001950
 20
139.091797
 30
0.0
 10
251.753060
 20
138.265623
 30
0.0
 10
251.584920
 20
137.417447
 30
0.0
 10
251.501950
 20
136.558594
 30
0.0
  0
SPLINE
  5
141
100
AcDbEntity
  8
Decoupe_1
 62
5
100
AcDbSpline
 70
8
 71
3
 72
8
 73
4
 74
0
 40
0
 40
0
 40
0
 40
0
 40
1
 40
1
 40
1
 40
1
 10
251.501950
 20
136.558594
 30
0.0
 10
251.420550
 20
135.716004
 30
0.0
 10
251.420550
 20
134.867981
 30
0.0
 10
251.501950
 20
134.025391
 30
0.0
  0
SPLINE
  5
142
100
AcDbEntity
  8
Decoupe_1
 62
5
100
AcDbSpline
 70
8
 71
3
 72
8
 73
4
 74
0
 40
0
 40
0
 40
0
 40
0
 40
1
 40
1
 40
1
 40
1
 10
251.501950
 20
134.025391
 30
0.0
 10
251.584950
 20
133.166537
 30
0.0
 10
251.753060
 20
132.318361
 30
0.0
 10
252.001950
 20
131.492188
 30
0.0
  0
SPLINE
  5
143
100
AcDbEntity
  8
Decoupe_1
 62
5
100
AcDbSpline
 70
8
 71
3
 72
8
 73
4
 74
0
 40
0
 40
0
 40
0
 40
0
 40
1
 40
1
 40
1
 40
1
 10
252.001950
 20
131.492188
 30
0.0
 10
252.266850
 20
130.612916
 30
0.0
 10
252.622960
 20
129.762246
 30
0.0
 10
253.064450
 20
128.957031
 30
0.0
  0
SPLINE
  5
144
100
AcDbEntity
  8
Decoupe_1
 62
5
100
AcDbSpline
 70
8
 71
3
 72
8
 73
4
 74
0
 40
0
 40
0
 40
0
 40
0
 40
1
 40
1
 40
1
 40
1
 10
253.064450
 20
128.957031
 30
0.0
 10
253.565080
 20
128.043974
 30
0.0
 10
254.172170
 20
127.193939
 30
0.0
 10
254.873050
 20
126.423828
 30
0.0
  0
SPLINE
  5
145
100
AcDbEntity
  8
Decoupe_1
 62
5
100
AcDbSpline
 70
8
 71
3
 72
8
 73
4
 74
0
 40
0
 40
0
 40
0
 40
0
 40
1
 40
1
 40
1
 40
1
 10
254.873050
 20
126.423828
 30
0.0
 10
255.783950
 20
125.422941
 30
0.0
 10
256.842520
 20
124.568794
 30
0.0
 10
258.013670
 20
123.890625
 30
0.0
  0
SPLINE
  5
146
100
AcDbEntity
  8
Decoupe_1
 62
5
100
AcDbSpline
 70
8
 71
3
 72
8
 73
4
 74
0
 40
0
 40
0
 40
0
 40
0
 40
1
 40
1
 40
1
 40
1
 10
258.013670
 20
123.890625
 30
0.0
 10
262.097200
 20
121.526029
 30
0.0
 10
267.135230
 20
121.526029
 30
0.0
 10
271.218750
 20
123.890625
 30
0.0
  0
SPLINE
  5
147
100
AcDbEntity
  8
Decoupe_1
 62
5
100
AcDbSpline
 70
8
 71
3
 72
8
 73
4
 74
0
 40
0
 40
0
 40
0
 40
0
 40
1
 40
1
 40
1
 40
1
 10
271.218750
 20
123.890625
 30
0.0
 10
272.389940
 20
124.568785
 30
0.0
 10
273.450400
 20
125.422932
 30
0.0
 10
274.361330
 20
126.423828
 30
0.0
  0
SPLINE
  5
148
100
AcDbEntity
  8
Decoupe_1
 62
5
100
AcDbSpline
 70
8
 71
3
 72
8
 73
4
 74
0
 40
0
 40
0
 40
0
 40
0
 40
1
 40
1
 40
1
 40
1
 10
274.361330
 20
126.423828
 30
0.0
 10
275.062170
 20
127.193944
 30
0.0
 10
275.669320
 20
128.043980
 30
0.0
 10
276.169920
 20
128.957031
 30
0.0
  0
SPLINE
  5
149
100
AcDbEntity
  8
Decoupe_1
 62
5
100
AcDbSpline
 70
8
 71
3
 72
8
 73
4
 74
0
 40
0
 40
0
 40
0
 40
0
 40
1
 40
1
 40
1
 40
1
 10
276.169920
 20
128.957031
 30
0.0
 10
276.611420
 20
129.762245
 30
0.0
 10
276.967520
 20
130.612915
 30
0.0
 10
277.232420
 20
131.492188
 30
0.0
  0
SPLINE
  5
14a
100
AcDbEntity
  8
Decoupe_1
 62
5
100
AcDbSpline
 70
8
 71
3
 72
8
 73
4
 74
0
 40
0
 40
0
 40
0
 40
0
 40
1
 40
1
 40
1
 40
1
 10
277.232420
 20
131.492188
 30
0.0
 10
277.481330
 20
132.318360
 30
0.0
 10
277.647490
 20
133.166536
 30
0.0
 10
277.730470
 20
134.025391
 30
0.0
  0
SPLINE
  5
14b
100
AcDbEntity
  8
Decoupe_1
 62
5
100
AcDbSpline
 70
8
 71
3
 72
8
 73
4
 74
0
 40
0
 40
0
 40
0
 40
0
 40
1
 40
1
 40
1
 40
1
 10
277.730470
 20
134.025391
 30
0.0
 10
277.771170
 20
134.446442
 30
0.0
 10
277.791070
 20
134.868005
 30
0.0
 10
277.790970
 20
135.291016
 30
0.0
  0
SPLINE
  5
14c
100
AcDbEntity
  8
Decoupe_1
 62
5
100
AcDbSpline
 70
8
 71
3
 72
8
 73
4
 74
0
 40
0
 40
0
 40
0
 40
0
 40
1
 40
1
 40
1
 40
1
 10
277.790970
 20
135.291016
 30
0.0
 10
277.790980
 20
135.714026
 30
0.0
 10
277.771070
 20
136.137542
 30
0.0
 10
277.730470
 20
136.558594
 30
0.0
  0
SPLINE
  5
14d
100
AcDbEntity
  8
Decoupe_1
 62
5
100
AcDbSpline
 70
8
 71
3
 72
8
 73
4
 74
0
 40
0
 40
0
 40
0
 40
0
 40
1
 40
1
 40
1
 40
1
 10
277.730470
 20
136.558594
 30
0.0
 10
277.647470
 20
137.417448
 30
0.0
 10
277.481330
 20
138.265624
 30
0.0
 10
277.232420
 20
139.091797
 30
0.0
  0
SPLINE
  5
14e
100
AcDbEntity
  8
Decoupe_1
 62
5
100
AcDbSpline
 70
8
 71
3
 72
8
 73
4
 74
0
 40
0
 40
0
 40
0
 40
0
 40
1
 40
1
 40
1
 40
1
 10
277.232420
 20
139.091797
 30
0.0
 10
276.967520
 20
139.971069
 30
0.0
 10
276.611420
 20
140.821739
 30
0.0
 10
276.169920
 20
141.626953
 30
0.0
  0
SPLINE
  5
14f
100
AcDbEntity
  8
Decoupe_1
 62
5
100
AcDbSpline
 70
8
 71
3
 72
8
 73
4
 74
0
 40
0
 40
0
 40
0
 40
0
 40
1
 40
1
 40
1
 40
1
 10
276.169920
 20
141.626953
 30
0.0
 10
275.669320
 20
142.540005
 30
0.0
 10
275.062170
 20
143.390040
 30
0.0
 10
274.361330
 20
144.160156
 30
0.0
  0
SPLINE
  5
150
100
AcDbEntity
  8
Decoupe_1
 62
5
100
AcDbSpline
 70
8
 71
3
 72
8
 73
4
 74
0
 40
0
 40
0
 40
0
 40
0
 40
1
 40
1
 40
1
 40
1
 10
274.361330
 20
144.160156
 30
0.0
 10
273.450400
 20
145.161063
 30
0.0
 10
272.389940
 20
146.015190
 30
0.0
 10
271.218750
 20
146.693359
 30
0.0
  0
SPLINE
  5
151
100
AcDbEntity
  8
Decoupe_1
 62
5
100
AcDbSpline
 70
8
 71
3
 72
8
 73
4
 74
0
 40
0
 40
0
 40
0
 40
0
 40
1
 40
1
 40
1
 40
1
 10
271.218750
 20
146.693359
 30
0.0
 10
269.176990
 20
147.875657
 30
0.0
 10
266.897350
 20
148.466797
 30
0.0
 10
264.617190
 20
148.466797
 30
0.0
  0
LWPOLYLINE
  5
152
100
AcDbEntity
  8
Decoupe_1
 62
5
100
AcDbPolyline
 90
4
 70
0
 10
271.861340
 20
171.132812
 30
0.0
 10
271.730470
 20
171.250000
 30
0.0
 10
271.730470
 20
171.425781
 30
0.0
 10
252.501950
 20
171.425781
 30
0.0
  0
SPLINE
  5
153
100
AcDbEntity
  8
Decoupe_1
 62
5
100
AcDbSpline
 70
8
 71
3
 72
8
 73
4
 74
0
 40
0
 40
0
 40
0
 40
0
 40
1
 40
1
 40
1
 40
1
 10
222.701170
 20
148.466797
 30
0.0
 10
220.421010
 20
148.466797
 30
0.0
 10
218.139420
 20
147.875657
 30
0.0
 10
216.097660
 20
146.693359
 30
0.0
  0
SPLINE
  5
154
100
AcDbEntity
  8
Decoupe_1
 62
5
100
AcDbSpline
 70
8
 71
3
 72
8
 73
4
 74
0
 40
0
 40
0
 40
0
 40
0
 40
1
 40
1
 40
1
 40
1
 10
216.097660
 20
146.693359
 30
0.0
 10
214.926500
 20
146.015182
 30
0.0
 10
213.867930
 20
145.161053
 30
0.0
 10
212.957030
 20
144.160156
 30
0.0
  0
SPLINE
  5
155
100
AcDbEntity
  8
Decoupe_1
 62
5
100
AcDbSpline
 70
8
 71
3
 72
8
 73
4
 74
0
 40
0
 40
0
 40
0
 40
0
 40
1
 40
1
 40
1
 40
1
 10
212.957030
 20
144.160156
 30
0.0
 10
212.256150
 20
143.390046
 30
0.0
 10
211.649070
 20
142.540010
 30
0.0
 10
211.148440
 20
141.626953
 30
0.0
  0
SPLINE
  5
156
100
AcDbEntity
  8
Decoupe_1
 62
5
100
AcDbSpline
 70
8
 71
3
 72
8
 73
4
 74
0
 40
0
 40
0
 40
0
 40
0
 40
1
 40
1
 40
1
 40
1
 10
211.148440
 20
141.626953
 30
0.0
 10
210.706940
 20
140.821739
 30
0.0
 10
210.350840
 20
139.971069
 30
0.0
 10
210.085940
 20
139.091797
 30
0.0
  0
SPLINE
  5
157
100
AcDbEntity
  8
Decoupe_1
 62
5
100
AcDbSpline
 70
8
 71
3
 72
8
 73
4
 74
0
 40
0
 40
0
 40
0
 40
0
 40
1
 40
1
 40
1
 40
1
 10
210.085940
 20
139.091797
 30
0.0
 10
209.837030
 20
138.265624
 30
0.0
 10
209.668910
 20
137.417448
 30
0.0
 10
209.585940
 20
136.558594
 30
0.0
  0
SPLINE
  5
158
100
AcDbEntity
  8
Decoupe_1
 62
5
100
AcDbSpline
 70
8
 71
3
 72
8
 73
4
 74
0
 40
0
 40
0
 40
0
 40
0
 40
1
 40
1
 40
1
 40
1
 10
209.585940
 20
136.558594
 30
0.0
 10
209.504540
 20
135.716000
 30
0.0
 10
209.504540
 20
134.867984
 30
0.0
 10
209.585940
 20
134.025391
 30
0.0
  0
SPLINE
  5
159
100
AcDbEntity
  8
Decoupe_1
 62
5
100
AcDbSpline
 70
8
 71
3
 72
8
 73
4
 74
0
 40
0
 40
0
 40
0
 40
0
 40
1
 40
1
 40
1
 40
1
 10
209.585940
 20
134.025391
 30
0.0
 10
209.668940
 20
133.166536
 30
0.0
 10
209.837030
 20
132.318360
 30
0.0
 10
210.085940
 20
131.492188
 30
0.0
  0
SPLINE
  5
15a
100
AcDbEntity
  8
Decoupe_1
 62
5
100
AcDbSpline
 70
8
 71
3
 72
8
 73
4
 74
0
 40
0
 40
0
 40
0
 40
0
 40
1
 40
1
 40
1
 40
1
 10
210.085940
 20
131.492188
 30
0.0
 10
210.350840
 20
130.612915
 30
0.0
 10
210.706940
 20
129.762245
 30
0.0
 10
211.148440
 20
128.957031
 30
0.0
  0
SPLINE
  5
15b
100
AcDbEntity
  8
Decoupe_1
 62
5
100
AcDbSpline
 70
8
 71
3
 72
8
 73
4
 74
0
 40
0
 40
0
 40
0
 40
0
 40
1
 40
1
 40
1
 40
1
 10
211.148440
 20
128.957031
 30
0.0
 10
211.649070
 20
128.043974
 30
0.0
 10
212.256150
 20
127.193939
 30
0.0
 10
212.957030
 20
126.423828
 30
0.0
  0
SPLINE
  5
15c
100
AcDbEntity
  8
Decoupe_1
 62
5
100
AcDbSpline
 70
8
 71
3
 72
8
 73
4
 74
0
 40
0
 40
0
 40
0
 40
0
 40
1
 40
1
 40
1
 40
1
 10
212.957030
 20
126.423828
 30
0.0
 10
213.867930
 20
125.422930
 30
0.0
 10
214.926500
 20
124.568803
 30
0.0
 10
216.097660
 20
123.890625
 30
0.0
  0
SPLINE
  5
15d
100
AcDbEntity
  8
Decoupe_1
 62
5
100
AcDbSpline
 70
8
 71
3
 72
8
 73
4
 74
0
 40
0
 40
0
 40
0
 40
0
 40
1
 40
1
 40
1
 40
1
 10
216.097660
 20
123.890625
 30
0.0
 10
220.181180
 20
121.526029
 30
0.0
 10
225.219210
 20
121.526029
 30
0.0
 10
229.302730
 20
123.890625
 30
0.0
  0
SPLINE
  5
15e
100
AcDbEntity
  8
Decoupe_1
 62
5
100
AcDbSpline
 70
8
 71
3
 72
8
 73
4
 74
0
 40
0
 40
0
 40
0
 40
0
 40
1
 40
1
 40
1
 40
1
 10
229.302730
 20
123.890625
 30
0.0
 10
230.473890
 20
124.568803
 30
0.0
 10
231.532460
 20
125.422930
 30
0.0
 10
232.443360
 20
126.423828
 30
0.0
  0
SPLINE
  5
15f
100
AcDbEntity
  8
Decoupe_1
 62
5
100
AcDbSpline
 70
8
 71
3
 72
8
 73
4
 74
0
 40
0
 40
0
 40
0
 40
0
 40
1
 40
1
 40
1
 40
1
 10
232.443360
 20
126.423828
 30
0.0
 10
233.144240
 20
127.193939
 30
0.0
 10
233.751320
 20
128.043974
 30
0.0
 10
234.251950
 20
128.957031
 30
0.0
  0
SPLINE
  5
160
100
AcDbEntity
  8
Decoupe_1
 62
5
100
AcDbSpline
 70
8
 71
3
 72
8
 73
4
 74
0
 40
0
 40
0
 40
0
 40
0
 40
1
 40
1
 40
1
 40
1
 10
234.251950
 20
128.957031
 30
0.0
 10
234.693460
 20
129.762245
 30
0.0
 10
235.049550
 20
130.612915
 30
0.0
 10
235.314450
 20
131.492188
 30
0.0
  0
SPLINE
  5
161
100
AcDbEntity
  8
Decoupe_1
 62
5
100
AcDbSpline
 70
8
 71
3
 72
8
 73
4
 74
0
 40
0
 40
0
 40
0
 40
0
 40
1
 40
1
 40
1
 40
1
 10
235.314450
 20
131.492188
 30
0.0
 10
235.563360
 20
132.318360
 30
0.0
 10
235.731480
 20
133.166536
 30
0.0
 10
235.814450
 20
134.025391
 30
0.0
  0
SPLINE
  5
162
100
AcDbEntity
  8
Decoupe_1
 62
5
100
AcDbSpline
 70
8
 71
3
 72
8
 73
4
 74
0
 40
0
 40
0
 40
0
 40
0
 40
1
 40
1
 40
1
 40
1
 10
235.814450
 20
134.025391
 30
0.0
 10
235.855150
 20
134.446442
 30
0.0
 10
235.875050
 20
134.868005
 30
0.0
 10
235.875050
 20
135.291016
 30
0.0
  0
SPLINE
  5
163
100
AcDbEntity
  8
Decoupe_1
 62
5
100
AcDbSpline
 70
8
 71
3
 72
8
 73
4
 74
0
 40
0
 40
0
 40
0
 40
0
 40
1
 40
1
 40
1
 40
1
 10
235.875050
 20
135.291016
 30
0.0
 10
235.875060
 20
135.714029
 30
0.0
 10
235.855150
 20
136.137539
 30
0.0
 10
235.814450
 20
136.558594
 30
0.0
  0
SPLINE
  5
164
100
AcDbEntity
  8
Decoupe_1
 62
5
100
AcDbSpline
 70
8
 71
3
 72
8
 73
4
 74
0
 40
0
 40
0
 40
0
 40
0
 40
1
 40
1
 40
1
 40
1
 10
235.814450
 20
136.558594
 30
0.0
 10
235.731450
 20
137.417448
 30
0.0
 10
235.563360
 20
138.265624
 30
0.0
 10
235.314450
 20
139.091797
 30
0.0
  0
SPLINE
  5
165
100
AcDbEntity
  8
Decoupe_1
 62
5
100
AcDbSpline
 70
8
 71
3
 72
8
 73
4
 74
0
 40
0
 40
0
 40
0
 40
0
 40
1
 40
1
 40
1
 40
1
 10
235.314450
 20
139.091797
 30
0.0
 10
235.049550
 20
139.971069
 30
0.0
 10
234.693460
 20
140.821739
 30
0.0
 10
234.251950
 20
141.626953
 30
0.0
  0
SPLINE
  5
166
100
AcDbEntity
  8
Decoupe_1
 62
5
100
AcDbSpline
 70
8
 71
3
 72
8
 73
4
 74
0
 40
0
 40
0
 40
0
 40
0
 40
1
 40
1
 40
1
 40
1
 10
234.251950
 20
141.626953
 30
0.0
 10
233.751320
 20
142.540010
 30
0.0
 10
233.144240
 20
143.390046
 30
0.0
 10
232.443360
 20
144.160156
 30
0.0
  0
SPLINE
  5
167
100
AcDbEntity
  8
Decoupe_1
 62
5
100
AcDbSpline
 70
8
 71
3
 72
8
 73
4
 74
0
 40
0
 40
0
 40
0
 40
0
 40
1
 40
1
 40
1
 40
1
 10
232.443360
 20
144.160156
 30
0.0
 10
231.532460
 20
145.161053
 30
0.0
 10
230.473890
 20
146.015182
 30
0.0
 10
229.302730
 20
146.693359
 30
0.0
  0
SPLINE
  5
168
100
AcDbEntity
  8
Decoupe_1
 62
5
100
AcDbSpline
 70
8
 71
3
 72
8
 73
4
 74
0
 40
0
 40
0
 40
0
 40
0
 40
1
 40
1
 40
1
 40
1
 10
229.302730
 20
146.693359
 30
0.0
 10
227.260970
 20
147.875657
 30
0.0
 10
224.981340
 20
148.466797
 30
0.0
 10
222.701170
 20
148.466797
 30
0.0
  0
LWPOLYLINE
  5
169
100
AcDbEntity
  8
Decoupe_1
 62
5
100
AcDbPolyline
 90
1
 70
1
 10
264.617190
 20
148.466797
 30
0.0
  0
SPLINE
  5
16a
100
AcDbEntity
  8
Decoupe_1
 62
5
100
AcDbSpline
 70
8
 71
3
 72
8
 73
4
 74
0
 40
0
 40
0
 40
0
 40
0
 40
1
 40
1
 40
1
 40
1
 10
169.681640
 20
193.203125
 30
0.0
 10
167.401470
 20
193.203125
 30
0.0
 10
165.121840
 20
192.611989
 30
0.0
 10
163.080080
 20
191.429688
 30
0.0
  0
SPLINE
  5
16b
100
AcDbEntity
  8
Decoupe_1
 62
5
100
AcDbSpline
 70
8
 71
3
 72
8
 73
4
 74
0
 40
0
 40
0
 40
0
 40
0
 40
1
 40
1
 40
1
 40
1
 10
163.080080
 20
191.429688
 30
0.0
 10
161.908910
 20
190.751512
 30
0.0
 10
160.850360
 20
189.897385
 30
0.0
 10
159.939450
 20
188.896484
 30
0.0
  0
SPLINE
  5
16c
100
AcDbEntity
  8
Decoupe_1
 62
5
100
AcDbSpline
 70
8
 71
3
 72
8
 73
4
 74
0
 40
0
 40
0
 40
0
 40
0
 40
1
 40
1
 40
1
 40
1
 10
159.939450
 20
188.896484
 30
0.0
 10
159.238590
 20
188.126372
 30
0.0
 10
158.631480
 20
187.274383
 30
0.0
 10
158.130860
 20
186.361328
 30
0.0
  0
SPLINE
  5
16d
100
AcDbEntity
  8
Decoupe_1
 62
5
100
AcDbSpline
 70
8
 71
3
 72
8
 73
4
 74
0
 40
0
 40
0
 40
0
 40
0
 40
1
 40
1
 40
1
 40
1
 10
158.130860
 20
186.361328
 30
0.0
 10
157.689360
 20
185.556114
 30
0.0
 10
157.333260
 20
184.707397
 30
0.0
 10
157.068360
 20
183.828125
 30
0.0
  0
SPLINE
  5
16e
100
AcDbEntity
  8
Decoupe_1
 62
5
100
AcDbSpline
 70
8
 71
3
 72
8
 73
4
 74
0
 40
0
 40
0
 40
0
 40
0
 40
1
 40
1
 40
1
 40
1
 10
157.068360
 20
183.828125
 30
0.0
 10
156.819450
 20
183.001953
 30
0.0
 10
156.651330
 20
182.153777
 30
0.0
 10
156.568360
 20
181.294922
 30
0.0
  0
SPLINE
  5
16f
100
AcDbEntity
  8
Decoupe_1
 62
5
100
AcDbSpline
 70
8
 71
3
 72
8
 73
4
 74
0
 40
0
 40
0
 40
0
 40
0
 40
1
 40
1
 40
1
 40
1
 10
156.568360
 20
181.294922
 30
0.0
 10
156.486960
 20
180.452332
 30
0.0
 10
156.486960
 20
179.604309
 30
0.0
 10
156.568360
 20
178.761719
 30
0.0
  0
SPLINE
  5
170
100
AcDbEntity
  8
Decoupe_1
 62
5
100
AcDbSpline
 70
8
 71
3
 72
8
 73
4
 74
0
 40
0
 40
0
 40
0
 40
0
 40
1
 40
1
 40
1
 40
1
 10
156.568360
 20
178.761719
 30
0.0
 10
156.651360
 20
177.902864
 30
0.0
 10
156.819450
 20
177.054688
 30
0.0
 10
157.068360
 20
176.228516
 30
0.0
  0
SPLINE
  5
171
100
AcDbEntity
  8
Decoupe_1
 62
5
100
AcDbSpline
 70
8
 71
3
 72
8
 73
4
 74
0
 40
0
 40
0
 40
0
 40
0
 40
1
 40
1
 40
1
 40
1
 10
157.068360
 20
176.228516
 30
0.0
 10
157.333260
 20
175.349243
 30
0.0
 10
157.689360
 20
174.498574
 30
0.0
 10
158.130860
 20
173.693359
 30
0.0
  0
SPLINE
  5
172
100
AcDbEntity
  8
Decoupe_1
 62
5
100
AcDbSpline
 70
8
 71
3
 72
8
 73
4
 74
0
 40
0
 40
0
 40
0
 40
0
 40
1
 40
1
 40
1
 40
1
 10
158.130860
 20
173.693359
 30
0.0
 10
158.631480
 20
172.780305
 30
0.0
 10
159.238590
 20
171.930269
 30
0.0
 10
159.939450
 20
171.160156
 30
0.0
  0
SPLINE
  5
173
100
AcDbEntity
  8
Decoupe_1
 62
5
100
AcDbSpline
 70
8
 71
3
 72
8
 73
4
 74
0
 40
0
 40
0
 40
0
 40
0
 40
1
 40
1
 40
1
 40
1
 10
159.939450
 20
171.160156
 30
0.0
 10
160.850360
 20
170.159256
 30
0.0
 10
161.908910
 20
169.305129
 30
0.0
 10
163.080080
 20
168.626953
 30
0.0
  0
SPLINE
  5
174
100
AcDbEntity
  8
Decoupe_1
 62
5
100
AcDbSpline
 70
8
 71
3
 72
8
 73
4
 74
0
 40
0
 40
0
 40
0
 40
0
 40
1
 40
1
 40
1
 40
1
 10
163.080080
 20
168.626953
 30
0.0
 10
167.163610
 20
166.262350
 30
0.0
 10
172.201630
 20
166.262350
 30
0.0
 10
176.285160
 20
168.626953
 30
0.0
  0
SPLINE
  5
175
100
AcDbEntity
  8
Decoupe_1
 62
5
100
AcDbSpline
 70
8
 71
3
 72
8
 73
4
 74
0
 40
0
 40
0
 40
0
 40
0
 40
1
 40
1
 40
1
 40
1
 10
176.285160
 20
168.626953
 30
0.0
 10
177.456320
 20
169.305129
 30
0.0
 10
178.514870
 20
170.159256
 30
0.0
 10
179.425780
 20
171.160156
 30
0.0
  0
SPLINE
  5
176
100
AcDbEntity
  8
Decoupe_1
 62
5
100
AcDbSpline
 70
8
 71
3
 72
8
 73
4
 74
0
 40
0
 40
0
 40
0
 40
0
 40
1
 40
1
 40
1
 40
1
 10
179.425780
 20
171.160156
 30
0.0
 10
180.126650
 20
171.930269
 30
0.0
 10
180.733760
 20
172.780305
 30
0.0
 10
181.234380
 20
173.693359
 30
0.0
  0
SPLINE
  5
177
100
AcDbEntity
  8
Decoupe_1
 62
5
100
AcDbSpline
 70
8
 71
3
 72
8
 73
4
 74
0
 40
0
 40
0
 40
0
 40
0
 40
1
 40
1
 40
1
 40
1
 10
181.234380
 20
173.693359
 30
0.0
 10
181.675880
 20
174.498574
 30
0.0
 10
182.031970
 20
175.349243
 30
0.0
 10
182.296880
 20
176.228516
 30
0.0
  0
SPLINE
  5
178
100
AcDbEntity
  8
Decoupe_1
 62
5
100
AcDbSpline
 70
8
 71
3
 72
8
 73
4
 74
0
 40
0
 40
0
 40
0
 40
0
 40
1
 40
1
 40
1
 40
1
 10
182.296880
 20
176.228516
 30
0.0
 10
182.545780
 20
177.054688
 30
0.0
 10
182.713900
 20
177.902864
 30
0.0
 10
182.796880
 20
178.761719
 30
0.0
  0
SPLINE
  5
179
100
AcDbEntity
  8
Decoupe_1
 62
5
100
AcDbSpline
 70
8
 71
3
 72
8
 73
4
 74
0
 40
0
 40
0
 40
0
 40
0
 40
1
 40
1
 40
1
 40
1
 10
182.796880
 20
178.761719
 30
0.0
 10
182.837580
 20
179.182770
 30
0.0
 10
182.857480
 20
179.604334
 30
0.0
 10
182.857380
 20
180.027344
 30
0.0
  0
SPLINE
  5
17a
100
AcDbEntity
  8
Decoupe_1
 62
5
100
AcDbSpline
 70
8
 71
3
 72
8
 73
4
 74
0
 40
0
 40
0
 40
0
 40
0
 40
1
 40
1
 40
1
 40
1
 10
182.857380
 20
180.027344
 30
0.0
 10
182.857390
 20
180.450354
 30
0.0
 10
182.837480
 20
180.873871
 30
0.0
 10
182.796880
 20
181.294922
 30
0.0
  0
SPLINE
  5
17b
100
AcDbEntity
  8
Decoupe_1
 62
5
100
AcDbSpline
 70
8
 71
3
 72
8
 73
4
 74
0
 40
0
 40
0
 40
0
 40
0
 40
1
 40
1
 40
1
 40
1
 10
182.796880
 20
181.294922
 30
0.0
 10
182.713880
 20
182.153777
 30
0.0
 10
182.545780
 20
183.001953
 30
0.0
 10
182.296880
 20
183.828125
 30
0.0
  0
SPLINE
  5
17c
100
AcDbEntity
  8
Decoupe_1
 62
5
100
AcDbSpline
 70
8
 71
3
 72
8
 73
4
 74
0
 40
0
 40
0
 40
0
 40
0
 40
1
 40
1
 40
1
 40
1
 10
182.296880
 20
183.828125
 30
0.0
 10
182.031970
 20
184.707397
 30
0.0
 10
181.675880
 20
185.556114
 30
0.0
 10
181.234380
 20
186.361328
 30
0.0
  0
SPLINE
  5
17d
100
AcDbEntity
  8
Decoupe_1
 62
5
100
AcDbSpline
 70
8
 71
3
 72
8
 73
4
 74
0
 40
0
 40
0
 40
0
 40
0
 40
1
 40
1
 40
1
 40
1
 10
181.234380
 20
186.361328
 30
0.0
 10
180.733760
 20
187.274383
 30
0.0
 10
180.126650
 20
188.126372
 30
0.0
 10
179.425780
 20
188.896484
 30
0.0
  0
SPLINE
  5
17e
100
AcDbEntity
  8
Decoupe_1
 62
5
100
AcDbSpline
 70
8
 71
3
 72
8
 73
4
 74
0
 40
0
 40
0
 40
0
 40
0
 40
1
 40
1
 40
1
 40
1
 10
179.425780
 20
188.896484
 30
0.0
 10
178.514870
 20
189.897385
 30
0.0
 10
177.456320
 20
190.751512
 30
0.0
 10
176.285160
 20
191.429688
 30
0.0
  0
SPLINE
  5
17f
100
AcDbEntity
  8
Decoupe_1
 62
5
100
AcDbSpline
 70
8
 71
3
 72
8
 73
4
 74
0
 40
0
 40
0
 40
0
 40
0
 40
1
 40
1
 40
1
 40
1
 10
176.285160
 20
191.429688
 30
0.0
 10
174.243390
 20
192.611989
 30
0.0
 10
171.961810
 20
193.203125
 30
0.0
 10
169.681640
 20
193.203125
 30
0.0
  0
LWPOLYLINE
  5
180
100
AcDbEntity
  8
Decoupe_1
 62
5
100
AcDbPolyline
 90
1
 70
1
 10
222.701170
 20
148.466797
 30
0.0
  0
SPLINE
  5
181
100
AcDbEntity
  8
Decoupe_1
 62
5
100
AcDbSpline
 70
8
 71
3
 72
8
 73
4
 74
0
 40
0
 40
0
 40
0
 40
0
 40
1
 40
1
 40
1
 40
1
 10
180.638670
 20
148.466797
 30
0.0
 10
178.358510
 20
148.466797
 30
0.0
 10
176.076920
 20
147.875657
 30
0.0
 10
174.035160
 20
146.693359
 30
0.0
  0
SPLINE
  5
182
100
AcDbEntity
  8
Decoupe_1
 62
5
100
AcDbSpline
 70
8
 71
3
 72
8
 73
4
 74
0
 40
0
 40
0
 40
0
 40
0
 40
1
 40
1
 40
1
 40
1
 10
174.035160
 20
146.693359
 30
0.0
 10
172.864000
 20
146.015181
 30
0.0
 10
171.805430
 20
145.161055
 30
0.0
 10
170.894530
 20
144.160156
 30
0.0
  0
SPLINE
  5
183
100
AcDbEntity
  8
Decoupe_1
 62
5
100
AcDbSpline
 70
8
 71
3
 72
8
 73
4
 74
0
 40
0
 40
0
 40
0
 40
0
 40
1
 40
1
 40
1
 40
1
 10
170.894530
 20
144.160156
 30
0.0
 10
170.193650
 20
143.390046
 30
0.0
 10
169.586570
 20
142.540010
 30
0.0
 10
169.085940
 20
141.626953
 30
0.0
  0
SPLINE
  5
184
100
AcDbEntity
  8
Decoupe_1
 62
5
100
AcDbSpline
 70
8
 71
3
 72
8
 73
4
 74
0
 40
0
 40
0
 40
0
 40
0
 40
1
 40
1
 40
1
 40
1
 10
169.085940
 20
141.626953
 30
0.0
 10
168.644440
 20
140.821739
 30
0.0
 10
168.288340
 20
139.971069
 30
0.0
 10
168.023440
 20
139.091797
 30
0.0
  0
SPLINE
  5
185
100
AcDbEntity
  8
Decoupe_1
 62
5
100
AcDbSpline
 70
8
 71
3
 72
8
 73
4
 74
0
 40
0
 40
0
 40
0
 40
0
 40
1
 40
1
 40
1
 40
1
 10
168.023440
 20
139.091797
 30
0.0
 10
167.774530
 20
138.265624
 30
0.0
 10
167.606410
 20
137.417448
 30
0.0
 10
167.523440
 20
136.558594
 30
0.0
  0
SPLINE
  5
186
100
AcDbEntity
  8
Decoupe_1
 62
5
100
AcDbSpline
 70
8
 71
3
 72
8
 73
4
 74
0
 40
0
 40
0
 40
0
 40
0
 40
1
 40
1
 40
1
 40
1
 10
167.523440
 20
136.558594
 30
0.0
 10
167.442040
 20
135.716004
 30
0.0
 10
167.442040
 20
134.867981
 30
0.0
 10
167.523440
 20
134.025391
 30
0.0
  0
SPLINE
  5
187
100
AcDbEntity
  8
Decoupe_1
 62
5
100
AcDbSpline
 70
8
 71
3
 72
8
 73
4
 74
0
 40
0
 40
0
 40
0
 40
0
 40
1
 40
1
 40
1
 40
1
 10
167.523440
 20
134.025391
 30
0.0
 10
167.606440
 20
133.166536
 30
0.0
 10
167.774530
 20
132.318360
 30
0.0
 10
168.023440
 20
131.492188
 30
0.0
  0
SPLINE
  5
188
100
AcDbEntity
  8
Decoupe_1
 62
5
100
AcDbSpline
 70
8
 71
3
 72
8
 73
4
 74
0
 40
0
 40
0
 40
0
 40
0
 40
1
 40
1
 40
1
 40
1
 10
168.023440
 20
131.492188
 30
0.0
 10
168.288340
 20
130.612915
 30
0.0
 10
168.644440
 20
129.762245
 30
0.0
 10
169.085940
 20
128.957031
 30
0.0
  0
SPLINE
  5
189
100
AcDbEntity
  8
Decoupe_1
 62
5
100
AcDbSpline
 70
8
 71
3
 72
8
 73
4
 74
0
 40
0
 40
0
 40
0
 40
0
 40
1
 40
1
 40
1
 40
1
 10
169.085940
 20
128.957031
 30
0.0
 10
169.586570
 20
128.043964
 30
0.0
 10
170.193650
 20
127.193948
 30
0.0
 10
170.894530
 20
126.423828
 30
0.0
  0
SPLINE
  5
18a
100
AcDbEntity
  8
Decoupe_1
 62
5
100
AcDbSpline
 70
8
 71
3
 72
8
 73
4
 74
0
 40
0
 40
0
 40
0
 40
0
 40
1
 40
1
 40
1
 40
1
 10
170.894530
 20
126.423828
 30
0.0
 10
171.805430
 20
125.422930
 30
0.0
 10
172.864000
 20
124.568803
 30
0.0
 10
174.035160
 20
123.890625
 30
0.0
  0
SPLINE
  5
18b
100
AcDbEntity
  8
Decoupe_1
 62
5
100
AcDbSpline
 70
8
 71
3
 72
8
 73
4
 74
0
 40
0
 40
0
 40
0
 40
0
 40
1
 40
1
 40
1
 40
1
 10
174.035160
 20
123.890625
 30
0.0
 10
178.118680
 20
121.526029
 30
0.0
 10
183.156710
 20
121.526029
 30
0.0
 10
187.240230
 20
123.890625
 30
0.0
  0
SPLINE
  5
18c
100
AcDbEntity
  8
Decoupe_1
 62
5
100
AcDbSpline
 70
8
 71
3
 72
8
 73
4
 74
0
 40
0
 40
0
 40
0
 40
0
 40
1
 40
1
 40
1
 40
1
 10
187.240230
 20
123.890625
 30
0.0
 10
188.411390
 20
124.568803
 30
0.0
 10
189.471910
 20
125.422930
 30
0.0
 10
190.382810
 20
126.423828
 30
0.0
  0
SPLINE
  5
18d
100
AcDbEntity
  8
Decoupe_1
 62
5
100
AcDbSpline
 70
8
 71
3
 72
8
 73
4
 74
0
 40
0
 40
0
 40
0
 40
0
 40
1
 40
1
 40
1
 40
1
 10
190.382810
 20
126.423828
 30
0.0
 10
191.083700
 20
127.193948
 30
0.0
 10
191.690780
 20
128.043964
 30
0.0
 10
192.191410
 20
128.957031
 30
0.0
  0
SPLINE
  5
18e
100
AcDbEntity
  8
Decoupe_1
 62
5
100
AcDbSpline
 70
8
 71
3
 72
8
 73
4
 74
0
 40
0
 40
0
 40
0
 40
0
 40
1
 40
1
 40
1
 40
1
 10
192.191410
 20
128.957031
 30
0.0
 10
192.632910
 20
129.762245
 30
0.0
 10
192.989000
 20
130.612915
 30
0.0
 10
193.253910
 20
131.492188
 30
0.0
  0
SPLINE
  5
18f
100
AcDbEntity
  8
Decoupe_1
 62
5
100
AcDbSpline
 70
8
 71
3
 72
8
 73
4
 74
0
 40
0
 40
0
 40
0
 40
0
 40
1
 40
1
 40
1
 40
1
 10
193.253910
 20
131.492188
 30
0.0
 10
193.502810
 20
132.318360
 30
0.0
 10
193.668980
 20
133.166536
 30
0.0
 10
193.751950
 20
134.025391
 30
0.0
  0
SPLINE
  5
190
100
AcDbEntity
  8
Decoupe_1
 62
5
100
AcDbSpline
 70
8
 71
3
 72
8
 73
4
 74
0
 40
0
 40
0
 40
0
 40
0
 40
1
 40
1
 40
1
 40
1
 10
193.751950
 20
134.025391
 30
0.0
 10
193.792650
 20
134.446442
 30
0.0
 10
193.812550
 20
134.868005
 30
0.0
 10
193.812550
 20
135.291016
 30
0.0
  0
SPLINE
  5
191
100
AcDbEntity
  8
Decoupe_1
 62
5
100
AcDbSpline
 70
8
 71
3
 72
8
 73
4
 74
0
 40
0
 40
0
 40
0
 40
0
 40
1
 40
1
 40
1
 40
1
 10
193.812550
 20
135.291016
 30
0.0
 10
193.812560
 20
135.714026
 30
0.0
 10
193.792650
 20
136.137542
 30
0.0
 10
193.751950
 20
136.558594
 30
0.0
  0
SPLINE
  5
192
100
AcDbEntity
  8
Decoupe_1
 62
5
100
AcDbSpline
 70
8
 71
3
 72
8
 73
4
 74
0
 40
0
 40
0
 40
0
 40
0
 40
1
 40
1
 40
1
 40
1
 10
193.751950
 20
136.558594
 30
0.0
 10
193.668950
 20
137.417448
 30
0.0
 10
193.502810
 20
138.265624
 30
0.0
 10
193.253910
 20
139.091797
 30
0.0
  0
SPLINE
  5
193
100
AcDbEntity
  8
Decoupe_1
 62
5
100
AcDbSpline
 70
8
 71
3
 72
8
 73
4
 74
0
 40
0
 40
0
 40
0
 40
0
 40
1
 40
1
 40
1
 40
1
 10
193.253910
 20
139.091797
 30
0.0
 10
192.989000
 20
139.971069
 30
0.0
 10
192.632910
 20
140.821739
 30
0.0
 10
192.191410
 20
141.626953
 30
0.0
  0
SPLINE
  5
194
100
AcDbEntity
  8
Decoupe_1
 62
5
100
AcDbSpline
 70
8
 71
3
 72
8
 73
4
 74
0
 40
0
 40
0
 40
0
 40
0
 40
1
 40
1
 40
1
 40
1
 10
192.191410
 20
141.626953
 30
0.0
 10
191.690780
 20
142.540010
 30
0.0
 10
191.083690
 20
143.390046
 30
0.0
 10
190.382810
 20
144.160156
 30
0.0
  0
SPLINE
  5
195
100
AcDbEntity
  8
Decoupe_1
 62
5
100
AcDbSpline
 70
8
 71
3
 72
8
 73
4
 74
0
 40
0
 40
0
 40
0
 40
0
 40
1
 40
1
 40
1
 40
1
 10
190.382810
 20
144.160156
 30
0.0
 10
189.471910
 20
145.161055
 30
0.0
 10
188.411390
 20
146.015181
 30
0.0
 10
187.240230
 20
146.693359
 30
0.0
  0
SPLINE
  5
196
100
AcDbEntity
  8
Decoupe_1
 62
5
100
AcDbSpline
 70
8
 71
3
 72
8
 73
4
 74
0
 40
0
 40
0
 40
0
 40
0
 40
1
 40
1
 40
1
 40
1
 10
187.240230
 20
146.693359
 30
0.0
 10
185.198470
 20
147.875657
 30
0.0
 10
182.918840
 20
148.466797
 30
0.0
 10
180.638670
 20
148.466797
 30
0.0
  0
LWPOLYLINE
  5
197
100
AcDbEntity
  8
Decoupe_1
 62
5
100
AcDbPolyline
 90
1
 70
1
 10
169.681640
 20
193.203125
 30
0.0
  0
LWPOLYLINE
  5
198
100
AcDbEntity
  8
Decoupe_1
 62
5
100
AcDbPolyline
 90
1
 70
1
 10
180.638670
 20
148.466797
 30
0.0
  0
LWPOLYLINE
  5
199
100
AcDbEntity
  8
Decoupe_2
 62
6
100
AcDbPolyline
 90
2
 70
0
 10
279.823680
 20
117.999026
 30
0.0
 10
277.616680
 20
115.792006
 30
0.0
  0
LWPOLYLINE
  5
19a
100
AcDbEntity
  8
Decoupe_2
 62
6
100
AcDbPolyline
 90
2
 70
0
 10
279.823680
 20
117.999026
 30
0.0
 10
278.245280
 20
119.577456
 30
0.0
  0
LWPOLYLINE
  5
19b
100
AcDbEntity
  8
Decoupe_2
 62
6
100
AcDbPolyline
 90
2
 70
0
 10
277.616680
 20
115.792006
 30
0.0
 10
251.616690
 20
115.792006
 30
0.0
  0
LWPOLYLINE
  5
19c
100
AcDbEntity
  8
Decoupe_2
 62
6
100
AcDbPolyline
 90
2
 70
0
 10
278.245280
 20
119.577456
 30
0.0
 10
280.331280
 20
121.663416
 30
0.0
  0
LWPOLYLINE
  5
19d
100
AcDbEntity
  8
Decoupe_2
 62
6
100
AcDbPolyline
 90
2
 70
0
 10
251.616690
 20
115.792006
 30
0.0
 10
249.409680
 20
117.999026
 30
0.0
  0
LWPOLYLINE
  5
19e
100
AcDbEntity
  8
Decoupe_2
 62
6
100
AcDbPolyline
 90
2
 70
0
 10
280.331280
 20
121.663416
 30
0.0
 10
281.909680
 20
120.084986
 30
0.0
  0
LWPOLYLINE
  5
19f
100
AcDbEntity
  8
Decoupe_2
 62
6
100
AcDbPolyline
 90
2
 70
0
 10
249.409680
 20
117.999026
 30
0.0
 10
250.988100
 20
119.577456
 30
0.0
  0
LWPOLYLINE
  5
1a0
100
AcDbEntity
  8
Decoupe_2
 62
6
100
AcDbPolyline
 90
2
 70
0
 10
284.116680
 20
122.292006
 30
0.0
 10
281.909680
 20
120.084986
 30
0.0
  0
LWPOLYLINE
  5
1a1
100
AcDbEntity
  8
Decoupe_2
 62
6
100
AcDbPolyline
 90
2
 70
0
 10
250.988100
 20
119.577456
 30
0.0
 10
248.902140
 20
121.663416
 30
0.0
  0
LWPOLYLINE
  5
1a2
100
AcDbEntity
  8
Decoupe_2
 62
6
100
AcDbPolyline
 90
2
 70
0
 10
284.116680
 20
148.291976
 30
0.0
 10
284.116680
 20
122.292006
 30
0.0
  0
LWPOLYLINE
  5
1a3
100
AcDbEntity
  8
Decoupe_2
 62
6
100
AcDbPolyline
 90
2
 70
0
 10
248.902140
 20
121.663416
 30
0.0
 10
247.323710
 20
120.084986
 30
0.0
  0
LWPOLYLINE
  5
1a4
100
AcDbEntity
  8
Decoupe_2
 62
6
100
AcDbPolyline
 90
2
 70
0
 10
281.909680
 20
150.498976
 30
0.0
 10
284.116680
 20
148.291976
 30
0.0
  0
LWPOLYLINE
  5
1a5
100
AcDbEntity
  8
Decoupe_2
 62
6
100
AcDbPolyline
 90
2
 70
0
 10
247.323710
 20
120.084986
 30
0.0
 10
245.116690
 20
122.292006
 30
0.0
  0
LWPOLYLINE
  5
1a6
100
AcDbEntity
  8
Decoupe_2
 62
6
100
AcDbPolyline
 90
2
 70
0
 10
280.331280
 20
148.920576
 30
0.0
 10
281.909680
 20
150.498976
 30
0.0
  0
LWPOLYLINE
  5
1a7
100
AcDbEntity
  8
Decoupe_2
 62
6
100
AcDbPolyline
 90
2
 70
0
 10
245.116690
 20
122.292006
 30
0.0
 10
245.116690
 20
148.291976
 30
0.0
  0
LWPOLYLINE
  5
1a8
100
AcDbEntity
  8
Decoupe_2
 62
6
100
AcDbPolyline
 90
2
 70
0
 10
278.245280
 20
151.006576
 30
0.0
 10
280.331280
 20
148.920576
 30
0.0
  0
LWPOLYLINE
  5
1a9
100
AcDbEntity
  8
Decoupe_2
 62
6
100
AcDbPolyline
 90
2
 70
0
 10
245.116690
 20
148.291976
 30
0.0
 10
247.323710
 20
150.498976
 30
0.0
  0
LWPOLYLINE
  5
1aa
100
AcDbEntity
  8
Decoupe_2
 62
6
100
AcDbPolyline
 90
2
 70
0
 10
279.823680
 20
152.584976
 30
0.0
 10
278.245280
 20
151.006576
 30
0.0
  0
LWPOLYLINE
  5
1ab
100
AcDbEntity
  8
Decoupe_2
 62
6
100
AcDbPolyline
 90
2
 70
0
 10
248.902140
 20
148.920576
 30
0.0
 10
247.323710
 20
150.498976
 30
0.0
  0
LWPOLYLINE
  5
1ac
100
AcDbEntity
  8
Decoupe_2
 62
6
100
AcDbPolyline
 90
2
 70
0
 10
277.616680
 20
154.791976
 30
0.0
 10
279.823680
 20
152.584976
 30
0.0
  0
LWPOLYLINE
  5
1ad
100
AcDbEntity
  8
Decoupe_2
 62
6
100
AcDbPolyline
 90
2
 70
0
 10
250.988100
 20
151.006576
 30
0.0
 10
248.902140
 20
148.920576
 30
0.0
  0
LWPOLYLINE
  5
1ae
100
AcDbEntity
  8
Decoupe_2
 62
6
100
AcDbPolyline
 90
2
 70
0
 10
251.616690
 20
154.791976
 30
0.0
 10
277.616680
 20
154.791976
 30
0.0
  0
LWPOLYLINE
  5
1af
100
AcDbEntity
  8
Decoupe_2
 62
6
100
AcDbPolyline
 90
2
 70
0
 10
249.409680
 20
152.584976
 30
0.0
 10
250.988100
 20
151.006576
 30
0.0
  0
LWPOLYLINE
  5
1b0
100
AcDbEntity
  8
Decoupe_2
 62
6
100
AcDbPolyline
 90
2
 70
0
 10
249.409680
 20
152.584976
 30
0.0
 10
251.616690
 20
154.791976
 30
0.0
  0
LWPOLYLINE
  5
1b1
100
AcDbEntity
  8
Decoupe_2
 62
6
100
AcDbPolyline
 90
4
 70
0
 10
245.659680
 20
198.543000
 30
0.0
 10
248.488080
 20
195.714600
 30
0.0
 10
246.402080
 20
193.628600
 30
0.0
 10
243.573680
 20
196.457000
 30
0.0
  0
LWPOLYLINE
  5
1b2
100
AcDbEntity
  8
Decoupe_2
 62
6
100
AcDbPolyline
 90
2
 70
0
 10
240.116680
 20
193.000000
 30
0.0
 10
243.573680
 20
196.457000
 30
0.0
  0
LWPOLYLINE
  5
1b3
100
AcDbEntity
  8
Decoupe_2
 62
6
100
AcDbPolyline
 90
2
 70
0
 10
240.116680
 20
167.000000
 30
0.0
 10
240.116680
 20
193.000000
 30
0.0
  0
LWPOLYLINE
  5
1b4
100
AcDbEntity
  8
Decoupe_2
 62
6
100
AcDbPolyline
 90
2
 70
0
 10
240.116680
 20
167.000000
 30
0.0
 10
243.573680
 20
163.543000
 30
0.0
  0
LWPOLYLINE
  5
1b5
100
AcDbEntity
  8
Decoupe_2
 62
6
100
AcDbPolyline
 90
2
 70
0
 10
246.402080
 20
166.371400
 30
0.0
 10
243.573680
 20
163.543000
 30
0.0
  0
LWPOLYLINE
  5
1b6
100
AcDbEntity
  8
Decoupe_2
 62
6
100
AcDbPolyline
 90
2
 70
0
 10
248.488080
 20
164.285400
 30
0.0
 10
246.402080
 20
166.371400
 30
0.0
  0
LWPOLYLINE
  5
1b7
100
AcDbEntity
  8
Decoupe_2
 62
6
100
AcDbPolyline
 90
2
 70
0
 10
245.659680
 20
161.457000
 30
0.0
 10
248.488080
 20
164.285400
 30
0.0
  0
LWPOLYLINE
  5
1b8
100
AcDbEntity
  8
Decoupe_2
 62
6
100
AcDbPolyline
 90
2
 70
0
 10
245.659680
 20
161.457000
 30
0.0
 10
249.116680
 20
158.000000
 30
0.0
  0
LWPOLYLINE
  5
1b9
100
AcDbEntity
  8
Decoupe_2
 62
6
100
AcDbPolyline
 90
2
 70
0
 10
275.116680
 20
158.000000
 30
0.0
 10
249.116680
 20
158.000000
 30
0.0
  0
LWPOLYLINE
  5
1ba
100
AcDbEntity
  8
Decoupe_2
 62
6
100
AcDbPolyline
 90
2
 70
0
 10
278.573680
 20
161.457000
 30
0.0
 10
275.116680
 20
158.000000
 30
0.0
  0
LWPOLYLINE
  5
1bb
100
AcDbEntity
  8
Decoupe_2
 62
6
100
AcDbPolyline
 90
4
 70
0
 10
278.573680
 20
161.457000
 30
0.0
 10
275.745280
 20
164.285400
 30
0.0
 10
277.831280
 20
166.371400
 30
0.0
 10
280.659680
 20
163.543000
 30
0.0
  0
LWPOLYLINE
  5
1bc
100
AcDbEntity
  8
Decoupe_2
 62
6
100
AcDbPolyline
 90
2
 70
0
 10
284.116680
 20
167.000000
 30
0.0
 10
280.659680
 20
163.543000
 30
0.0
  0
LWPOLYLINE
  5
1bd
100
AcDbEntity
  8
Decoupe_2
 62
6
100
AcDbPolyline
 90
2
 70
0
 10
284.116680
 20
193.000000
 30
0.0
 10
284.116680
 20
167.000000
 30
0.0
  0
LWPOLYLINE
  5
1be
100
AcDbEntity
  8
Decoupe_2
 62
6
100
AcDbPolyline
 90
2
 70
0
 10
284.116680
 20
193.000000
 30
0.0
 10
280.659680
 20
196.457000
 30
0.0
  0
LWPOLYLINE
  5
1bf
100
AcDbEntity
  8
Decoupe_2
 62
6
100
AcDbPolyline
 90
2
 70
0
 10
277.831280
 20
193.628600
 30
0.0
 10
280.659680
 20
196.457000
 30
0.0
  0
LWPOLYLINE
  5
1c0
100
AcDbEntity
  8
Decoupe_2
 62
6
100
AcDbPolyline
 90
2
 70
0
 10
275.745280
 20
195.714600
 30
0.0
 10
277.831280
 20
193.628600
 30
0.0
  0
LWPOLYLINE
  5
1c1
100
AcDbEntity
  8
Decoupe_2
 62
6
100
AcDbPolyline
 90
2
 70
0
 10
278.573680
 20
198.543000
 30
0.0
 10
275.745280
 20
195.714600
 30
0.0
  0
LWPOLYLINE
  5
1c2
100
AcDbEntity
  8
Decoupe_2
 62
6
100
AcDbPolyline
 90
2
 70
0
 10
278.573680
 20
198.543000
 30
0.0
 10
275.116680
 20
202.000000
 30
0.0
  0
SPLINE
  5
1c3
100
AcDbEntity
  8
Decoupe_2
 62
5
100
AcDbSpline
 70
8
 71
3
 72
8
 73
4
 74
0
 40
0
 40
0
 40
0
 40
0
 40
1
 40
1
 40
1
 40
1
 10
123.863280
 20
193.144531
 30
0.0
 10
121.583110
 20
193.144531
 30
0.0
 10
119.303480
 20
192.553396
 30
0.0
 10
117.261720
 20
191.371094
 30
0.0
  0
SPLINE
  5
1c4
100
AcDbEntity
  8
Decoupe_2
 62
5
100
AcDbSpline
 70
8
 71
3
 72
8
 73
4
 74
0
 40
0
 40
0
 40
0
 40
0
 40
1
 40
1
 40
1
 40
1
 10
117.261720
 20
191.371094
 30
0.0
 10
116.090550
 20
190.692918
 30
0.0
 10
115.030050
 20
189.838791
 30
0.0
 10
114.119140
 20
188.837891
 30
0.0
  0
SPLINE
  5
1c5
100
AcDbEntity
  8
Decoupe_2
 62
5
100
AcDbSpline
 70
8
 71
3
 72
8
 73
4
 74
0
 40
0
 40
0
 40
0
 40
0
 40
1
 40
1
 40
1
 40
1
 10
114.119140
 20
188.837891
 30
0.0
 10
113.418270
 20
188.067778
 30
0.0
 10
112.811170
 20
187.217742
 30
0.0
 10
112.310550
 20
186.304688
 30
0.0
  0
SPLINE
  5
1c6
100
AcDbEntity
  8
Decoupe_2
 62
5
100
AcDbSpline
 70
8
 71
3
 72
8
 73
4
 74
0
 40
0
 40
0
 40
0
 40
0
 40
1
 40
1
 40
1
 40
1
 10
112.310550
 20
186.304688
 30
0.0
 10
111.869040
 20
185.499473
 30
0.0
 10
111.512950
 20
184.650757
 30
0.0
 10
111.248050
 20
183.771484
 30
0.0
  0
SPLINE
  5
1c7
100
AcDbEntity
  8
Decoupe_2
 62
5
100
AcDbSpline
 70
8
 71
3
 72
8
 73
4
 74
0
 40
0
 40
0
 40
0
 40
0
 40
1
 40
1
 40
1
 40
1
 10
111.248050
 20
183.771484
 30
0.0
 10
110.999140
 20
182.945312
 30
0.0
 10
110.832970
 20
182.097136
 30
0.0
 10
110.750000
 20
181.238281
 30
0.0
  0
SPLINE
  5
1c8
100
AcDbEntity
  8
Decoupe_2
 62
5
100
AcDbSpline
 70
8
 71
3
 72
8
 73
4
 74
0
 40
0
 40
0
 40
0
 40
0
 40
1
 40
1
 40
1
 40
1
 10
110.750000
 20
181.238281
 30
0.0
 10
110.668600
 20
180.395691
 30
0.0
 10
110.668600
 20
179.545715
 30
0.0
 10
110.750000
 20
178.703125
 30
0.0
  0
SPLINE
  5
1c9
100
AcDbEntity
  8
Decoupe_2
 62
5
100
AcDbSpline
 70
8
 71
3
 72
8
 73
4
 74
0
 40
0
 40
0
 40
0
 40
0
 40
1
 40
1
 40
1
 40
1
 10
110.750000
 20
178.703125
 30
0.0
 10
110.833000
 20
177.844270
 30
0.0
 10
110.999140
 20
176.996094
 30
0.0
 10
111.248050
 20
176.169922
 30
0.0
  0
SPLINE
  5
1ca
100
AcDbEntity
  8
Decoupe_2
 62
5
100
AcDbSpline
 70
8
 71
3
 72
8
 73
4
 74
0
 40
0
 40
0
 40
0
 40
0
 40
1
 40
1
 40
1
 40
1
 10
111.248050
 20
176.169922
 30
0.0
 10
111.512950
 20
175.290650
 30
0.0
 10
111.869040
 20
174.441933
 30
0.0
 10
112.310550
 20
173.636719
 30
0.0
  0
SPLINE
  5
1cb
100
AcDbEntity
  8
Decoupe_2
 62
5
100
AcDbSpline
 70
8
 71
3
 72
8
 73
4
 74
0
 40
0
 40
0
 40
0
 40
0
 40
1
 40
1
 40
1
 40
1
 10
112.310550
 20
173.636719
 30
0.0
 10
112.811170
 20
172.723664
 30
0.0
 10
113.418270
 20
171.873628
 30
0.0
 10
114.119140
 20
171.103516
 30
0.0
  0
SPLINE
  5
1cc
100
AcDbEntity
  8
Decoupe_2
 62
5
100
AcDbSpline
 70
8
 71
3
 72
8
 73
4
 74
0
 40
0
 40
0
 40
0
 40
0
 40
1
 40
1
 40
1
 40
1
 10
114.119140
 20
171.103516
 30
0.0
 10
115.030050
 20
170.102615
 30
0.0
 10
116.090550
 20
169.246535
 30
0.0
 10
117.261720
 20
168.568359
 30
0.0
  0
SPLINE
  5
1cd
100
AcDbEntity
  8
Decoupe_2
 62
5
100
AcDbSpline
 70
8
 71
3
 72
8
 73
4
 74
0
 40
0
 40
0
 40
0
 40
0
 40
1
 40
1
 40
1
 40
1
 10
117.261720
 20
168.568359
 30
0.0
 10
121.345250
 20
166.203756
 30
0.0
 10
126.381310
 20
166.203756
 30
0.0
 10
130.464840
 20
168.568359
 30
0.0
  0
SPLINE
  5
1ce
100
AcDbEntity
  8
Decoupe_2
 62
5
100
AcDbSpline
 70
8
 71
3
 72
8
 73
4
 74
0
 40
0
 40
0
 40
0
 40
0
 40
1
 40
1
 40
1
 40
1
 10
130.464840
 20
168.568359
 30
0.0
 10
131.636010
 20
169.246535
 30
0.0
 10
132.696510
 20
170.102615
 30
0.0
 10
133.607420
 20
171.103516
 30
0.0
  0
SPLINE
  5
1cf
100
AcDbEntity
  8
Decoupe_2
 62
5
100
AcDbSpline
 70
8
 71
3
 72
8
 73
4
 74
0
 40
0
 40
0
 40
0
 40
0
 40
1
 40
1
 40
1
 40
1
 10
133.607420
 20
171.103516
 30
0.0
 10
134.308290
 20
171.873628
 30
0.0
 10
134.915400
 20
172.723664
 30
0.0
 10
135.416020
 20
173.636719
 30
0.0
  0
SPLINE
  5
1d0
100
AcDbEntity
  8
Decoupe_2
 62
5
100
AcDbSpline
 70
8
 71
3
 72
8
 73
4
 74
0
 40
0
 40
0
 40
0
 40
0
 40
1
 40
1
 40
1
 40
1
 10
135.416020
 20
173.636719
 30
0.0
 10
135.857520
 20
174.441933
 30
0.0
 10
136.213610
 20
175.290650
 30
0.0
 10
136.478520
 20
176.169922
 30
0.0
  0
SPLINE
  5
1d1
100
AcDbEntity
  8
Decoupe_2
 62
5
100
AcDbSpline
 70
8
 71
3
 72
8
 73
4
 74
0
 40
0
 40
0
 40
0
 40
0
 40
1
 40
1
 40
1
 40
1
 10
136.478520
 20
176.169922
 30
0.0
 10
136.727420
 20
176.996094
 30
0.0
 10
136.893590
 20
177.844270
 30
0.0
 10
136.976560
 20
178.703125
 30
0.0
  0
SPLINE
  5
1d2
100
AcDbEntity
  8
Decoupe_2
 62
5
100
AcDbSpline
 70
8
 71
3
 72
8
 73
4
 74
0
 40
0
 40
0
 40
0
 40
0
 40
1
 40
1
 40
1
 40
1
 10
136.976560
 20
178.703125
 30
0.0
 10
137.017260
 20
179.124176
 30
0.0
 10
137.039060
 20
179.547693
 30
0.0
 10
137.039060
 20
179.970703
 30
0.0
  0
SPLINE
  5
1d3
100
AcDbEntity
  8
Decoupe_2
 62
5
100
AcDbSpline
 70
8
 71
3
 72
8
 73
4
 74
0
 40
0
 40
0
 40
0
 40
0
 40
1
 40
1
 40
1
 40
1
 10
137.039060
 20
179.970703
 30
0.0
 10
137.039070
 20
180.393713
 30
0.0
 10
137.017260
 20
180.817230
 30
0.0
 10
136.976560
 20
181.238281
 30
0.0
  0
SPLINE
  5
1d4
100
AcDbEntity
  8
Decoupe_2
 62
5
100
AcDbSpline
 70
8
 71
3
 72
8
 73
4
 74
0
 40
0
 40
0
 40
0
 40
0
 40
1
 40
1
 40
1
 40
1
 10
136.976560
 20
181.238281
 30
0.0
 10
136.893560
 20
182.097136
 30
0.0
 10
136.727420
 20
182.945312
 30
0.0
 10
136.478520
 20
183.771484
 30
0.0
  0
SPLINE
  5
1d5
100
AcDbEntity
  8
Decoupe_2
 62
5
100
AcDbSpline
 70
8
 71
3
 72
8
 73
4
 74
0
 40
0
 40
0
 40
0
 40
0
 40
1
 40
1
 40
1
 40
1
 10
136.478520
 20
183.771484
 30
0.0
 10
136.213610
 20
184.650757
 30
0.0
 10
135.857520
 20
185.499473
 30
0.0
 10
135.416020
 20
186.304688
 30
0.0
  0
SPLINE
  5
1d6
100
AcDbEntity
  8
Decoupe_2
 62
5
100
AcDbSpline
 70
8
 71
3
 72
8
 73
4
 74
0
 40
0
 40
0
 40
0
 40
0
 40
1
 40
1
 40
1
 40
1
 10
135.416020
 20
186.304688
 30
0.0
 10
134.915400
 20
187.217742
 30
0.0
 10
134.308290
 20
188.067778
 30
0.0
 10
133.607420
 20
188.837891
 30
0.0
  0
SPLINE
  5
1d7
100
AcDbEntity
  8
Decoupe_2
 62
5
100
AcDbSpline
 70
8
 71
3
 72
8
 73
4
 74
0
 40
0
 40
0
 40
0
 40
0
 40
1
 40
1
 40
1
 40
1
 10
133.607420
 20
188.837891
 30
0.0
 10
132.696510
 20
189.838791
 30
0.0
 10
131.636010
 20
190.692918
 30
0.0
 10
130.464840
 20
191.371094
 30
0.0
  0
SPLINE
  5
1d8
100
AcDbEntity
  8
Decoupe_2
 62
5
100
AcDbSpline
 70
8
 71
3
 72
8
 73
4
 74
0
 40
0
 40
0
 40
0
 40
0
 40
1
 40
1
 40
1
 40
1
 10
130.464840
 20
191.371094
 30
0.0
 10
128.423080
 20
192.553396
 30
0.0
 10
126.143450
 20
193.144531
 30
0.0
 10
123.863280
 20
193.144531
 30
0.0
  0
LWPOLYLINE
  5
1d9
100
AcDbEntity
  8
Decoupe_2
 62
6
100
AcDbPolyline
 90
3
 70
0
 10
245.659680
 20
198.543000
 30
0.0
 10
249.116680
 20
202.000000
 30
0.0
 10
275.116680
 20
202.000000
 30
0.0
  0
LWPOLYLINE
  5
1da
100
AcDbEntity
  8
Decoupe_2
 62
5
100
AcDbPolyline
 90
1
 70
1
 10
123.863280
 20
193.144531
 30
0.0
  0
LWPOLYLINE
  5
1db
100
AcDbEntity
  8
Decoupe_2
 62
6
100
AcDbPolyline
 90
2
 70
0
 10
136.863270
 20
157.970533
 30
0.0
 10
110.863270
 20
157.970533
 30
0.0
  0
LWPOLYLINE
  5
1dc
100
AcDbEntity
  8
Decoupe_2
 62
6
100
AcDbPolyline
 90
2
 70
0
 10
140.320270
 20
161.427533
 30
0.0
 10
136.863270
 20
157.970533
 30
0.0
  0
LWPOLYLINE
  5
1dd
100
AcDbEntity
  8
Decoupe_2
 62
6
100
AcDbPolyline
 90
2
 70
0
 10
107.406270
 20
161.427533
 30
0.0
 10
110.863270
 20
157.970533
 30
0.0
  0
LWPOLYLINE
  5
1de
100
AcDbEntity
  8
Decoupe_2
 62
6
100
AcDbPolyline
 90
2
 70
0
 10
140.320270
 20
161.427533
 30
0.0
 10
137.491870
 20
164.255933
 30
0.0
  0
LWPOLYLINE
  5
1df
100
AcDbEntity
  8
Decoupe_2
 62
6
100
AcDbPolyline
 90
2
 70
0
 10
107.406270
 20
161.427533
 30
0.0
 10
110.234670
 20
164.255933
 30
0.0
  0
LWPOLYLINE
  5
1e0
100
AcDbEntity
  8
Decoupe_2
 62
6
100
AcDbPolyline
 90
2
 70
0
 10
137.491870
 20
164.255933
 30
0.0
 10
139.577870
 20
166.341933
 30
0.0
  0
LWPOLYLINE
  5
1e1
100
AcDbEntity
  8
Decoupe_2
 62
6
100
AcDbPolyline
 90
2
 70
0
 10
110.234670
 20
164.255933
 30
0.0
 10
108.148670
 20
166.341933
 30
0.0
  0
LWPOLYLINE
  5
1e2
100
AcDbEntity
  8
Decoupe_2
 62
6
100
AcDbPolyline
 90
2
 70
0
 10
139.577870
 20
166.341933
 30
0.0
 10
142.406270
 20
163.513533
 30
0.0
  0
LWPOLYLINE
  5
1e3
100
AcDbEntity
  8
Decoupe_2
 62
6
100
AcDbPolyline
 90
2
 70
0
 10
108.148670
 20
166.341933
 30
0.0
 10
105.320270
 20
163.513533
 30
0.0
  0
LWPOLYLINE
  5
1e4
100
AcDbEntity
  8
Decoupe_2
 62
6
100
AcDbPolyline
 90
2
 70
0
 10
145.863270
 20
166.970533
 30
0.0
 10
142.406270
 20
163.513533
 30
0.0
  0
LWPOLYLINE
  5
1e5
100
AcDbEntity
  8
Decoupe_2
 62
6
100
AcDbPolyline
 90
2
 70
0
 10
101.863270
 20
166.970533
 30
0.0
 10
105.320270
 20
163.513533
 30
0.0
  0
LWPOLYLINE
  5
1e6
100
AcDbEntity
  8
Decoupe_2
 62
6
100
AcDbPolyline
 90
2
 70
0
 10
145.863270
 20
192.970533
 30
0.0
 10
145.863270
 20
166.970533
 30
0.0
  0
LWPOLYLINE
  5
1e7
100
AcDbEntity
  8
Decoupe_2
 62
6
100
AcDbPolyline
 90
2
 70
0
 10
101.863270
 20
166.970533
 30
0.0
 10
101.863270
 20
192.970533
 30
0.0
  0
LWPOLYLINE
  5
1e8
100
AcDbEntity
  8
Decoupe_2
 62
6
100
AcDbPolyline
 90
2
 70
0
 10
145.863270
 20
192.970533
 30
0.0
 10
142.406270
 20
196.427533
 30
0.0
  0
LWPOLYLINE
  5
1e9
100
AcDbEntity
  8
Decoupe_2
 62
6
100
AcDbPolyline
 90
2
 70
0
 10
101.863270
 20
192.970533
 30
0.0
 10
105.320270
 20
196.427533
 30
0.0
  0
LWPOLYLINE
  5
1ea
100
AcDbEntity
  8
Decoupe_2
 62
6
100
AcDbPolyline
 90
2
 70
0
 10
139.577870
 20
193.599133
 30
0.0
 10
142.406270
 20
196.427533
 30
0.0
  0
LWPOLYLINE
  5
1eb
100
AcDbEntity
  8
Decoupe_2
 62
6
100
AcDbPolyline
 90
2
 70
0
 10
108.148670
 20
193.599133
 30
0.0
 10
105.320270
 20
196.427533
 30
0.0
  0
LWPOLYLINE
  5
1ec
100
AcDbEntity
  8
Decoupe_2
 62
6
100
AcDbPolyline
 90
2
 70
0
 10
137.491870
 20
195.685133
 30
0.0
 10
139.577870
 20
193.599133
 30
0.0
  0
LWPOLYLINE
  5
1ed
100
AcDbEntity
  8
Decoupe_2
 62
6
100
AcDbPolyline
 90
2
 70
0
 10
110.234670
 20
195.685133
 30
0.0
 10
108.148670
 20
193.599133
 30
0.0
  0
LWPOLYLINE
  5
1ee
100
AcDbEntity
  8
Decoupe_2
 62
6
100
AcDbPolyline
 90
2
 70
0
 10
140.320270
 20
198.513533
 30
0.0
 10
137.491870
 20
195.685133
 30
0.0
  0
LWPOLYLINE
  5
1ef
100
AcDbEntity
  8
Decoupe_2
 62
6
100
AcDbPolyline
 90
2
 70
0
 10
107.406270
 20
198.513533
 30
0.0
 10
110.234670
 20
195.685133
 30
0.0
  0
LWPOLYLINE
  5
1f0
100
AcDbEntity
  8
Decoupe_2
 62
6
100
AcDbPolyline
 90
2
 70
0
 10
140.320270
 20
198.513533
 30
0.0
 10
136.863270
 20
201.970533
 30
0.0
  0
LWPOLYLINE
  5
1f1
100
AcDbEntity
  8
Decoupe_2
 62
6
100
AcDbPolyline
 90
3
 70
0
 10
107.406270
 20
198.513533
 30
0.0
 10
110.863270
 20
201.970533
 30
0.0
 10
136.863270
 20
201.970533
 30
0.0
  0
LWPOLYLINE
  5
1f2
100
AcDbEntity
  8
Decoupe_2
 62
6
100
AcDbPolyline
 90
2
 70
0
 10
228.291680
 20
158.000000
 30
0.0
 10
202.291680
 20
158.000000
 30
0.0
  0
LWPOLYLINE
  5
1f3
100
AcDbEntity
  8
Decoupe_2
 62
6
100
AcDbPolyline
 90
2
 70
0
 10
231.748680
 20
161.457000
 30
0.0
 10
228.291680
 20
158.000000
 30
0.0
  0
LWPOLYLINE
  5
1f4
100
AcDbEntity
  8
Decoupe_2
 62
6
100
AcDbPolyline
 90
2
 70
0
 10
198.834680
 20
161.457000
 30
0.0
 10
202.291680
 20
158.000000
 30
0.0
  0
LWPOLYLINE
  5
1f5
100
AcDbEntity
  8
Decoupe_2
 62
6
100
AcDbPolyline
 90
2
 70
0
 10
231.748680
 20
161.457000
 30
0.0
 10
228.920280
 20
164.285400
 30
0.0
  0
LWPOLYLINE
  5
1f6
100
AcDbEntity
  8
Decoupe_2
 62
6
100
AcDbPolyline
 90
2
 70
0
 10
198.834680
 20
161.457000
 30
0.0
 10
201.663080
 20
164.285400
 30
0.0
  0
LWPOLYLINE
  5
1f7
100
AcDbEntity
  8
Decoupe_2
 62
6
100
AcDbPolyline
 90
2
 70
0
 10
228.920280
 20
164.285400
 30
0.0
 10
231.006280
 20
166.371400
 30
0.0
  0
LWPOLYLINE
  5
1f8
100
AcDbEntity
  8
Decoupe_2
 62
6
100
AcDbPolyline
 90
2
 70
0
 10
201.663080
 20
164.285400
 30
0.0
 10
199.577080
 20
166.371400
 30
0.0
  0
LWPOLYLINE
  5
1f9
100
AcDbEntity
  8
Decoupe_2
 62
6
100
AcDbPolyline
 90
2
 70
0
 10
231.006280
 20
166.371400
 30
0.0
 10
233.834680
 20
163.543000
 30
0.0
  0
LWPOLYLINE
  5
1fa
100
AcDbEntity
  8
Decoupe_2
 62
6
100
AcDbPolyline
 90
2
 70
0
 10
199.577080
 20
166.371400
 30
0.0
 10
196.748680
 20
163.543000
 30
0.0
  0
LWPOLYLINE
  5
1fb
100
AcDbEntity
  8
Decoupe_2
 62
6
100
AcDbPolyline
 90
2
 70
0
 10
237.291680
 20
167.000000
 30
0.0
 10
233.834680
 20
163.543000
 30
0.0
  0
LWPOLYLINE
  5
1fc
100
AcDbEntity
  8
Decoupe_2
 62
6
100
AcDbPolyline
 90
2
 70
0
 10
193.291680
 20
167.000000
 30
0.0
 10
196.748680
 20
163.543000
 30
0.0
  0
LWPOLYLINE
  5
1fd
100
AcDbEntity
  8
Decoupe_2
 62
6
100
AcDbPolyline
 90
2
 70
0
 10
237.291680
 20
193.000000
 30
0.0
 10
237.291680
 20
167.000000
 30
0.0
  0
LWPOLYLINE
  5
1fe
100
AcDbEntity
  8
Decoupe_2
 62
6
100
AcDbPolyline
 90
2
 70
0
 10
193.291680
 20
167.000000
 30
0.0
 10
193.291680
 20
193.000000
 30
0.0
  0
LWPOLYLINE
  5
1ff
100
AcDbEntity
  8
Decoupe_2
 62
6
100
AcDbPolyline
 90
2
 70
0
 10
237.291680
 20
193.000000
 30
0.0
 10
233.834680
 20
196.457000
 30
0.0
  0
LWPOLYLINE
  5
200
100
AcDbEntity
  8
Decoupe_2
 62
6
100
AcDbPolyline
 90
2
 70
0
 10
193.291680
 20
193.000000
 30
0.0
 10
196.748680
 20
196.457000
 30
0.0
  0
LWPOLYLINE
  5
201
100
AcDbEntity
  8
Decoupe_2
 62
6
100
AcDbPolyline
 90
2
 70
0
 10
231.006280
 20
193.628600
 30
0.0
 10
233.834680
 20
196.457000
 30
0.0
  0
LWPOLYLINE
  5
202
100
AcDbEntity
  8
Decoupe_2
 62
6
100
AcDbPolyline
 90
2
 70
0
 10
199.577080
 20
193.628600
 30
0.0
 10
196.748680
 20
196.457000
 30
0.0
  0
LWPOLYLINE
  5
203
100
AcDbEntity
  8
Decoupe_2
 62
6
100
AcDbPolyline
 90
2
 70
0
 10
228.920280
 20
195.714600
 30
0.0
 10
231.006280
 20
193.628600
 30
0.0
  0
LWPOLYLINE
  5
204
100
AcDbEntity
  8
Decoupe_2
 62
6
100
AcDbPolyline
 90
2
 70
0
 10
201.663080
 20
195.714600
 30
0.0
 10
199.577080
 20
193.628600
 30
0.0
  0
LWPOLYLINE
  5
205
100
AcDbEntity
  8
Decoupe_2
 62
6
100
AcDbPolyline
 90
2
 70
0
 10
231.748680
 20
198.543000
 30
0.0
 10
228.920280
 20
195.714600
 30
0.0
  0
LWPOLYLINE
  5
206
100
AcDbEntity
  8
Decoupe_2
 62
6
100
AcDbPolyline
 90
2
 70
0
 10
198.834680
 20
198.543000
 30
0.0
 10
201.663080
 20
195.714600
 30
0.0
  0
LWPOLYLINE
  5
207
100
AcDbEntity
  8
Decoupe_2
 62
6
100
AcDbPolyline
 90
2
 70
0
 10
231.748680
 20
198.543000
 30
0.0
 10
228.291680
 20
202.000000
 30
0.0
  0
LWPOLYLINE
  5
208
100
AcDbEntity
  8
Decoupe_2
 62
6
100
AcDbPolyline
 90
3
 70
0
 10
198.834680
 20
198.543000
 30
0.0
 10
202.291680
 20
202.000000
 30
0.0
 10
228.291680
 20
202.000000
 30
0.0
  0
LWPOLYLINE
  5
209
100
AcDbEntity
  8
Decoupe_2
 62
6
100
AcDbPolyline
 90
2
 70
0
 10
182.682510
 20
158.028068
 30
0.0
 10
156.682510
 20
158.028068
 30
0.0
  0
LWPOLYLINE
  5
20a
100
AcDbEntity
  8
Decoupe_2
 62
6
100
AcDbPolyline
 90
2
 70
0
 10
186.139510
 20
161.485068
 30
0.0
 10
182.682510
 20
158.028068
 30
0.0
  0
LWPOLYLINE
  5
20b
100
AcDbEntity
  8
Decoupe_2
 62
6
100
AcDbPolyline
 90
2
 70
0
 10
153.225510
 20
161.485068
 30
0.0
 10
156.682510
 20
158.028068
 30
0.0
  0
LWPOLYLINE
  5
20c
100
AcDbEntity
  8
Decoupe_2
 62
6
100
AcDbPolyline
 90
2
 70
0
 10
186.139510
 20
161.485068
 30
0.0
 10
183.311110
 20
164.313468
 30
0.0
  0
LWPOLYLINE
  5
20d
100
AcDbEntity
  8
Decoupe_2
 62
6
100
AcDbPolyline
 90
2
 70
0
 10
153.225510
 20
161.485068
 30
0.0
 10
156.053910
 20
164.313468
 30
0.0
  0
LWPOLYLINE
  5
20e
100
AcDbEntity
  8
Decoupe_2
 62
6
100
AcDbPolyline
 90
2
 70
0
 10
183.311110
 20
164.313468
 30
0.0
 10
185.397110
 20
166.399468
 30
0.0
  0
LWPOLYLINE
  5
20f
100
AcDbEntity
  8
Decoupe_2
 62
6
100
AcDbPolyline
 90
2
 70
0
 10
156.053910
 20
164.313468
 30
0.0
 10
153.967910
 20
166.399468
 30
0.0
  0
LWPOLYLINE
  5
210
100
AcDbEntity
  8
Decoupe_2
 62
6
100
AcDbPolyline
 90
2
 70
0
 10
185.397110
 20
166.399468
 30
0.0
 10
188.225510
 20
163.571068
 30
0.0
  0
LWPOLYLINE
  5
211
100
AcDbEntity
  8
Decoupe_2
 62
6
100
AcDbPolyline
 90
2
 70
0
 10
153.967910
 20
166.399468
 30
0.0
 10
151.139510
 20
163.571068
 30
0.0
  0
LWPOLYLINE
  5
212
100
AcDbEntity
  8
Decoupe_2
 62
6
100
AcDbPolyline
 90
2
 70
0
 10
191.682510
 20
167.028068
 30
0.0
 10
188.225510
 20
163.571068
 30
0.0
  0
LWPOLYLINE
  5
213
100
AcDbEntity
  8
Decoupe_2
 62
6
100
AcDbPolyline
 90
2
 70
0
 10
147.682510
 20
167.028068
 30
0.0
 10
151.139510
 20
163.571068
 30
0.0
  0
LWPOLYLINE
  5
214
100
AcDbEntity
  8
Decoupe_2
 62
6
100
AcDbPolyline
 90
2
 70
0
 10
191.682510
 20
193.028068
 30
0.0
 10
191.682510
 20
167.028068
 30
0.0
  0
LWPOLYLINE
  5
215
100
AcDbEntity
  8
Decoupe_2
 62
6
100
AcDbPolyline
 90
2
 70
0
 10
147.682510
 20
167.028068
 30
0.0
 10
147.682510
 20
193.028068
 30
0.0
  0
LWPOLYLINE
  5
216
100
AcDbEntity
  8
Decoupe_2
 62
6
100
AcDbPolyline
 90
2
 70
0
 10
191.682510
 20
193.028068
 30
0.0
 10
188.225510
 20
196.485068
 30
0.0
  0
LWPOLYLINE
  5
217
100
AcDbEntity
  8
Decoupe_2
 62
6
100
AcDbPolyline
 90
2
 70
0
 10
147.682510
 20
193.028068
 30
0.0
 10
151.139510
 20
196.485068
 30
0.0
  0
LWPOLYLINE
  5
218
100
AcDbEntity
  8
Decoupe_2
 62
6
100
AcDbPolyline
 90
2
 70
0
 10
185.397110
 20
193.656668
 30
0.0
 10
188.225510
 20
196.485068
 30
0.0
  0
LWPOLYLINE
  5
219
100
AcDbEntity
  8
Decoupe_2
 62
6
100
AcDbPolyline
 90
2
 70
0
 10
153.967910
 20
193.656668
 30
0.0
 10
151.139510
 20
196.485068
 30
0.0
  0
LWPOLYLINE
  5
21a
100
AcDbEntity
  8
Decoupe_2
 62
6
100
AcDbPolyline
 90
2
 70
0
 10
183.311110
 20
195.742668
 30
0.0
 10
185.397110
 20
193.656668
 30
0.0
  0
LWPOLYLINE
  5
21b
100
AcDbEntity
  8
Decoupe_2
 62
6
100
AcDbPolyline
 90
2
 70
0
 10
156.053910
 20
195.742668
 30
0.0
 10
153.967910
 20
193.656668
 30
0.0
  0
LWPOLYLINE
  5
21c
100
AcDbEntity
  8
Decoupe_2
 62
6
100
AcDbPolyline
 90
2
 70
0
 10
186.139510
 20
198.571068
 30
0.0
 10
183.311110
 20
195.742668
 30
0.0
  0
LWPOLYLINE
  5
21d
100
AcDbEntity
  8
Decoupe_2
 62
6
100
AcDbPolyline
 90
2
 70
0
 10
153.225510
 20
198.571068
 30
0.0
 10
156.053910
 20
195.742668
 30
0.0
  0
LWPOLYLINE
  5
21e
100
AcDbEntity
  8
Decoupe_2
 62
6
100
AcDbPolyline
 90
2
 70
0
 10
186.139510
 20
198.571068
 30
0.0
 10
182.682510
 20
202.028068
 30
0.0
  0
LWPOLYLINE
  5
21f
100
AcDbEntity
  8
Decoupe_2
 62
6
100
AcDbPolyline
 90
3
 70
0
 10
153.225510
 20
198.571068
 30
0.0
 10
156.682510
 20
202.028068
 30
0.0
 10
182.682510
 20
202.028068
 30
0.0
  0
LWPOLYLINE
  5
220
100
AcDbEntity
  8
Decoupe_2
 62
6
100
AcDbPolyline
 90
2
 70
0
 10
237.907280
 20
117.998966
 30
0.0
 10
235.700280
 20
115.791966
 30
0.0
  0
LWPOLYLINE
  5
221
100
AcDbEntity
  8
Decoupe_2
 62
6
100
AcDbPolyline
 90
2
 70
0
 10
237.907280
 20
117.998966
 30
0.0
 10
236.328880
 20
119.577466
 30
0.0
  0
LWPOLYLINE
  5
222
100
AcDbEntity
  8
Decoupe_2
 62
6
100
AcDbPolyline
 90
2
 70
0
 10
235.700280
 20
115.791966
 30
0.0
 10
209.700280
 20
115.791966
 30
0.0
  0
LWPOLYLINE
  5
223
100
AcDbEntity
  8
Decoupe_2
 62
6
100
AcDbPolyline
 90
2
 70
0
 10
236.328880
 20
119.577466
 30
0.0
 10
238.414780
 20
121.663366
 30
0.0
  0
LWPOLYLINE
  5
224
100
AcDbEntity
  8
Decoupe_2
 62
6
100
AcDbPolyline
 90
2
 70
0
 10
209.700280
 20
115.791966
 30
0.0
 10
207.493280
 20
117.998966
 30
0.0
  0
LWPOLYLINE
  5
225
100
AcDbEntity
  8
Decoupe_2
 62
6
100
AcDbPolyline
 90
2
 70
0
 10
238.414780
 20
121.663366
 30
0.0
 10
239.993280
 20
120.084966
 30
0.0
  0
LWPOLYLINE
  5
226
100
AcDbEntity
  8
Decoupe_2
 62
6
100
AcDbPolyline
 90
2
 70
0
 10
207.493280
 20
117.998966
 30
0.0
 10
209.071680
 20
119.577466
 30
0.0
  0
LWPOLYLINE
  5
227
100
AcDbEntity
  8
Decoupe_2
 62
6
100
AcDbPolyline
 90
2
 70
0
 10
242.200280
 20
122.291966
 30
0.0
 10
239.993280
 20
120.084966
 30
0.0
  0
LWPOLYLINE
  5
228
100
AcDbEntity
  8
Decoupe_2
 62
6
100
AcDbPolyline
 90
2
 70
0
 10
209.071680
 20
119.577466
 30
0.0
 10
206.985680
 20
121.663366
 30
0.0
  0
LWPOLYLINE
  5
229
100
AcDbEntity
  8
Decoupe_2
 62
6
100
AcDbPolyline
 90
2
 70
0
 10
242.200280
 20
148.291976
 30
0.0
 10
242.200280
 20
122.291966
 30
0.0
  0
LWPOLYLINE
  5
22a
100
AcDbEntity
  8
Decoupe_2
 62
6
100
AcDbPolyline
 90
2
 70
0
 10
206.985680
 20
121.663366
 30
0.0
 10
205.407280
 20
120.084966
 30
0.0
  0
LWPOLYLINE
  5
22b
100
AcDbEntity
  8
Decoupe_2
 62
6
100
AcDbPolyline
 90
2
 70
0
 10
239.993280
 20
150.498986
 30
0.0
 10
242.200280
 20
148.291976
 30
0.0
  0
LWPOLYLINE
  5
22c
100
AcDbEntity
  8
Decoupe_2
 62
6
100
AcDbPolyline
 90
2
 70
0
 10
205.407280
 20
120.084966
 30
0.0
 10
203.200280
 20
122.291966
 30
0.0
  0
LWPOLYLINE
  5
22d
100
AcDbEntity
  8
Decoupe_2
 62
6
100
AcDbPolyline
 90
2
 70
0
 10
238.414780
 20
148.920566
 30
0.0
 10
239.993280
 20
150.498986
 30
0.0
  0
LWPOLYLINE
  5
22e
100
AcDbEntity
  8
Decoupe_2
 62
6
100
AcDbPolyline
 90
2
 70
0
 10
203.200280
 20
122.291966
 30
0.0
 10
203.200280
 20
148.291976
 30
0.0
  0
LWPOLYLINE
  5
22f
100
AcDbEntity
  8
Decoupe_2
 62
6
100
AcDbPolyline
 90
2
 70
0
 10
236.328880
 20
151.006526
 30
0.0
 10
238.414780
 20
148.920566
 30
0.0
  0
LWPOLYLINE
  5
230
100
AcDbEntity
  8
Decoupe_2
 62
6
100
AcDbPolyline
 90
2
 70
0
 10
203.200280
 20
148.291976
 30
0.0
 10
205.407280
 20
150.498986
 30
0.0
  0
LWPOLYLINE
  5
231
100
AcDbEntity
  8
Decoupe_2
 62
6
100
AcDbPolyline
 90
2
 70
0
 10
237.907280
 20
152.584956
 30
0.0
 10
236.328880
 20
151.006526
 30
0.0
  0
LWPOLYLINE
  5
232
100
AcDbEntity
  8
Decoupe_2
 62
6
100
AcDbPolyline
 90
2
 70
0
 10
206.985680
 20
148.920566
 30
0.0
 10
205.407280
 20
150.498986
 30
0.0
  0
LWPOLYLINE
  5
233
100
AcDbEntity
  8
Decoupe_2
 62
6
100
AcDbPolyline
 90
2
 70
0
 10
235.700280
 20
154.791976
 30
0.0
 10
237.907280
 20
152.584956
 30
0.0
  0
LWPOLYLINE
  5
234
100
AcDbEntity
  8
Decoupe_2
 62
6
100
AcDbPolyline
 90
2
 70
0
 10
209.071680
 20
151.006526
 30
0.0
 10
206.985680
 20
148.920566
 30
0.0
  0
LWPOLYLINE
  5
235
100
AcDbEntity
  8
Decoupe_2
 62
6
100
AcDbPolyline
 90
2
 70
0
 10
209.700280
 20
154.791976
 30
0.0
 10
235.700280
 20
154.791976
 30
0.0
  0
LWPOLYLINE
  5
236
100
AcDbEntity
  8
Decoupe_2
 62
6
100
AcDbPolyline
 90
2
 70
0
 10
207.493280
 20
152.584956
 30
0.0
 10
209.071680
 20
151.006526
 30
0.0
  0
LWPOLYLINE
  5
237
100
AcDbEntity
  8
Decoupe_2
 62
6
100
AcDbPolyline
 90
2
 70
0
 10
207.493280
 20
152.584956
 30
0.0
 10
209.700280
 20
154.791976
 30
0.0
  0
LWPOLYLINE
  5
238
100
AcDbEntity
  8
Decoupe_2
 62
6
100
AcDbPolyline
 90
2
 70
0
 10
195.845030
 20
117.998966
 30
0.0
 10
193.638030
 20
115.791946
 30
0.0
  0
LWPOLYLINE
  5
239
100
AcDbEntity
  8
Decoupe_2
 62
6
100
AcDbPolyline
 90
2
 70
0
 10
195.845030
 20
117.998966
 30
0.0
 10
194.266630
 20
119.577392
 30
0.0
  0
LWPOLYLINE
  5
23a
100
AcDbEntity
  8
Decoupe_2
 62
6
100
AcDbPolyline
 90
2
 70
0
 10
193.638030
 20
115.791946
 30
0.0
 10
167.638030
 20
115.791946
 30
0.0
  0
LWPOLYLINE
  5
23b
100
AcDbEntity
  8
Decoupe_2
 62
6
100
AcDbPolyline
 90
2
 70
0
 10
194.266630
 20
119.577392
 30
0.0
 10
196.352630
 20
121.663356
 30
0.0
  0
LWPOLYLINE
  5
23c
100
AcDbEntity
  8
Decoupe_2
 62
6
100
AcDbPolyline
 90
2
 70
0
 10
167.638030
 20
115.791946
 30
0.0
 10
165.431030
 20
117.998966
 30
0.0
  0
LWPOLYLINE
  5
23d
100
AcDbEntity
  8
Decoupe_2
 62
6
100
AcDbPolyline
 90
2
 70
0
 10
196.352630
 20
121.663356
 30
0.0
 10
197.931030
 20
120.084926
 30
0.0
  0
LWPOLYLINE
  5
23e
100
AcDbEntity
  8
Decoupe_2
 62
6
100
AcDbPolyline
 90
2
 70
0
 10
165.431030
 20
117.998966
 30
0.0
 10
167.009430
 20
119.577392
 30
0.0
  0
LWPOLYLINE
  5
23f
100
AcDbEntity
  8
Decoupe_2
 62
6
100
AcDbPolyline
 90
2
 70
0
 10
200.138030
 20
122.291946
 30
0.0
 10
197.931030
 20
120.084926
 30
0.0
  0
LWPOLYLINE
  5
240
100
AcDbEntity
  8
Decoupe_2
 62
6
100
AcDbPolyline
 90
2
 70
0
 10
167.009430
 20
119.577392
 30
0.0
 10
164.923430
 20
121.663356
 30
0.0
  0
LWPOLYLINE
  5
241
100
AcDbEntity
  8
Decoupe_2
 62
6
100
AcDbPolyline
 90
2
 70
0
 10
200.138030
 20
148.291976
 30
0.0
 10
200.138030
 20
122.291946
 30
0.0
  0
LWPOLYLINE
  5
242
100
AcDbEntity
  8
Decoupe_2
 62
6
100
AcDbPolyline
 90
2
 70
0
 10
164.923430
 20
121.663356
 30
0.0
 10
163.345030
 20
120.084926
 30
0.0
  0
LWPOLYLINE
  5
243
100
AcDbEntity
  8
Decoupe_2
 62
6
100
AcDbPolyline
 90
2
 70
0
 10
197.931030
 20
150.498976
 30
0.0
 10
200.138030
 20
148.291976
 30
0.0
  0
LWPOLYLINE
  5
244
100
AcDbEntity
  8
Decoupe_2
 62
6
100
AcDbPolyline
 90
2
 70
0
 10
163.345030
 20
120.084926
 30
0.0
 10
161.138030
 20
122.291946
 30
0.0
  0
LWPOLYLINE
  5
245
100
AcDbEntity
  8
Decoupe_2
 62
6
100
AcDbPolyline
 90
2
 70
0
 10
196.352630
 20
148.920576
 30
0.0
 10
197.931030
 20
150.498976
 30
0.0
  0
LWPOLYLINE
  5
246
100
AcDbEntity
  8
Decoupe_2
 62
6
100
AcDbPolyline
 90
2
 70
0
 10
161.138030
 20
122.291946
 30
0.0
 10
161.138030
 20
148.291976
 30
0.0
  0
LWPOLYLINE
  5
247
100
AcDbEntity
  8
Decoupe_2
 62
6
100
AcDbPolyline
 90
2
 70
0
 10
194.266630
 20
151.006476
 30
0.0
 10
196.352630
 20
148.920576
 30
0.0
  0
LWPOLYLINE
  5
248
100
AcDbEntity
  8
Decoupe_2
 62
6
100
AcDbPolyline
 90
2
 70
0
 10
161.138030
 20
148.291976
 30
0.0
 10
163.345030
 20
150.498976
 30
0.0
  0
LWPOLYLINE
  5
249
100
AcDbEntity
  8
Decoupe_2
 62
6
100
AcDbPolyline
 90
2
 70
0
 10
195.845030
 20
152.584976
 30
0.0
 10
194.266630
 20
151.006476
 30
0.0
  0
LWPOLYLINE
  5
24a
100
AcDbEntity
  8
Decoupe_2
 62
6
100
AcDbPolyline
 90
2
 70
0
 10
164.923430
 20
148.920576
 30
0.0
 10
163.345030
 20
150.498976
 30
0.0
  0
LWPOLYLINE
  5
24b
100
AcDbEntity
  8
Decoupe_2
 62
6
100
AcDbPolyline
 90
2
 70
0
 10
193.638030
 20
154.791976
 30
0.0
 10
195.845030
 20
152.584976
 30
0.0
  0
LWPOLYLINE
  5
24c
100
AcDbEntity
  8
Decoupe_2
 62
6
100
AcDbPolyline
 90
2
 70
0
 10
167.009430
 20
151.006476
 30
0.0
 10
164.923430
 20
148.920576
 30
0.0
  0
LWPOLYLINE
  5
24d
100
AcDbEntity
  8
Decoupe_2
 62
6
100
AcDbPolyline
 90
2
 70
0
 10
167.638030
 20
154.791976
 30
0.0
 10
193.638030
 20
154.791976
 30
0.0
  0
LWPOLYLINE
  5
24e
100
AcDbEntity
  8
Decoupe_2
 62
6
100
AcDbPolyline
 90
2
 70
0
 10
165.431030
 20
152.584976
 30
0.0
 10
167.009430
 20
151.006476
 30
0.0
  0
LWPOLYLINE
  5
24f
100
AcDbEntity
  8
Decoupe_2
 62
6
100
AcDbPolyline
 90
2
 70
0
 10
165.431030
 20
152.584976
 30
0.0
 10
167.638030
 20
154.791976
 30
0.0
  0
SPLINE
  5
250
100
AcDbEntity
  8
Decoupe_2
 62
5
100
AcDbSpline
 70
8
 71
3
 72
8
 73
4
 74
0
 40
0
 40
0
 40
0
 40
0
 40
1
 40
1
 40
1
 40
1
 10
216.553068
 20
182.878008
 30
0.0
 10
216.934736
 20
182.715976
 30
0.0
 10
217.281635
 20
182.481968
 30
0.0
 10
217.574819
 20
182.188765
 30
0.0
  0
SPLINE
  5
251
100
AcDbEntity
  8
Decoupe_2
 62
5
100
AcDbSpline
 70
8
 71
3
 72
8
 73
4
 74
0
 40
0
 40
0
 40
0
 40
0
 40
1
 40
1
 40
1
 40
1
 10
220.338894
 20
191.797202
 30
0.0
 10
221.865739
 20
191.149133
 30
0.0
 10
223.253502
 20
190.213107
 30
0.0
 10
224.426385
 20
189.040250
 30
0.0
  0
LWPOLYLINE
  5
252
100
AcDbEntity
  8
Decoupe_2
 62
5
100
AcDbPolyline
 90
2
 70
0
 10
217.574819
 20
182.188765
 30
0.0
 10
224.426385
 20
189.040250
 30
0.0
  0
SPLINE
  5
253
100
AcDbEntity
  8
Decoupe_2
 62
5
100
AcDbSpline
 70
8
 71
3
 72
8
 73
4
 74
0
 40
0
 40
0
 40
0
 40
0
 40
1
 40
1
 40
1
 40
1
 10
218.285701
 20
181.114852
 30
0.0
 10
218.441016
 20
180.730389
 30
0.0
 10
218.520846
 20
180.319615
 30
0.0
 10
218.520832
 20
179.904964
 30
0.0
  0
LWPOLYLINE
  5
254
100
AcDbEntity
  8
Decoupe_2
 62
5
100
AcDbPolyline
 90
2
 70
0
 10
216.553068
 20
182.878008
 30
0.0
 10
220.338894
 20
191.797202
 30
0.0
  0
LWPOLYLINE
  5
255
100
AcDbEntity
  8
Decoupe_2
 62
5
100
AcDbPolyline
 90
2
 70
0
 10
218.285701
 20
181.114852
 30
0.0
 10
227.269589
 20
184.744598
 30
0.0
  0
SPLINE
  5
256
100
AcDbEntity
  8
Decoupe_2
 62
5
100
AcDbSpline
 70
8
 71
3
 72
8
 73
4
 74
0
 40
0
 40
0
 40
0
 40
0
 40
1
 40
1
 40
1
 40
1
 10
227.269589
 20
184.744598
 30
0.0
 10
227.890912
 20
183.206728
 30
0.0
 10
228.210287
 20
181.563603
 30
0.0
 10
228.210273
 20
179.904964
 30
0.0
  0
SPLINE
  5
257
100
AcDbEntity
  8
Decoupe_2
 62
5
100
AcDbSpline
 70
8
 71
3
 72
8
 73
4
 74
0
 40
0
 40
0
 40
0
 40
0
 40
1
 40
1
 40
1
 40
1
 10
214.081130
 20
182.899647
 30
0.0
 10
214.465594
 20
183.054962
 30
0.0
 10
214.876368
 20
183.134792
 30
0.0
 10
215.291018
 20
183.134778
 30
0.0
  0
LWPOLYLINE
  5
258
100
AcDbEntity
  8
Decoupe_2
 62
5
100
AcDbPolyline
 90
2
 70
0
 10
218.520832
 20
179.904964
 30
0.0
 10
228.210273
 20
179.904964
 30
0.0
  0
LWPOLYLINE
  5
259
100
AcDbEntity
  8
Decoupe_2
 62
5
100
AcDbPolyline
 90
2
 70
0
 10
214.081130
 20
182.899647
 30
0.0
 10
210.451304
 20
191.883487
 30
0.0
  0
SPLINE
  5
25a
100
AcDbEntity
  8
Decoupe_2
 62
5
100
AcDbSpline
 70
8
 71
3
 72
8
 73
4
 74
0
 40
0
 40
0
 40
0
 40
0
 40
1
 40
1
 40
1
 40
1
 10
210.451304
 20
191.883487
 30
0.0
 10
211.989195
 20
192.504836
 30
0.0
 10
213.632349
 20
192.824228
 30
0.0
 10
215.291018
 20
192.824219
 30
0.0
  0
LWPOLYLINE
  5
25b
100
AcDbEntity
  8
Decoupe_2
 62
5
100
AcDbPolyline
 90
2
 70
0
 10
215.291018
 20
183.134778
 30
0.0
 10
215.291018
 20
192.824219
 30
0.0
  0
SPLINE
  5
25c
100
AcDbEntity
  8
Decoupe_2
 62
5
100
AcDbSpline
 70
8
 71
3
 72
8
 73
4
 74
0
 40
0
 40
0
 40
0
 40
0
 40
1
 40
1
 40
1
 40
1
 10
212.317975
 20
181.167014
 30
0.0
 10
212.480007
 20
181.548682
 30
0.0
 10
212.714014
 20
181.895581
 30
0.0
 10
213.007217
 20
182.188765
 30
0.0
  0
SPLINE
  5
25d
100
AcDbEntity
  8
Decoupe_2
 62
5
100
AcDbSpline
 70
8
 71
3
 72
8
 73
4
 74
0
 40
0
 40
0
 40
0
 40
0
 40
1
 40
1
 40
1
 40
1
 10
203.398845
 20
184.952921
 30
0.0
 10
204.046889
 20
186.479696
 30
0.0
 10
204.982864
 20
187.867402
 30
0.0
 10
206.155652
 20
189.040250
 30
0.0
  0
LWPOLYLINE
  5
25e
100
AcDbEntity
  8
Decoupe_2
 62
5
100
AcDbPolyline
 90
2
 70
0
 10
212.317975
 20
181.167014
 30
0.0
 10
203.398845
 20
184.952921
 30
0.0
  0
LWPOLYLINE
  5
25f
100
AcDbEntity
  8
Decoupe_2
 62
5
100
AcDbPolyline
 90
2
 70
0
 10
213.007217
 20
182.188765
 30
0.0
 10
206.155652
 20
189.040250
 30
0.0
  0
SPLINE
  5
260
100
AcDbEntity
  8
Decoupe_2
 62
5
100
AcDbSpline
 70
8
 71
3
 72
8
 73
4
 74
0
 40
0
 40
0
 40
0
 40
0
 40
1
 40
1
 40
1
 40
1
 10
214.028969
 20
176.931921
 30
0.0
 10
213.647300
 20
177.093953
 30
0.0
 10
213.300402
 20
177.327960
 30
0.0
 10
213.007217
 20
177.621163
 30
0.0
  0
SPLINE
  5
261
100
AcDbEntity
  8
Decoupe_2
 62
5
100
AcDbSpline
 70
8
 71
3
 72
8
 73
4
 74
0
 40
0
 40
0
 40
0
 40
0
 40
1
 40
1
 40
1
 40
1
 10
210.243143
 20
168.012791
 30
0.0
 10
208.716310
 20
168.660816
 30
0.0
 10
207.328547
 20
169.596793
 30
0.0
 10
206.155652
 20
170.769598
 30
0.0
  0
LWPOLYLINE
  5
262
100
AcDbEntity
  8
Decoupe_2
 62
5
100
AcDbPolyline
 90
2
 70
0
 10
213.007217
 20
177.621163
 30
0.0
 10
206.155652
 20
170.769598
 30
0.0
  0
SPLINE
  5
263
100
AcDbEntity
  8
Decoupe_2
 62
5
100
AcDbSpline
 70
8
 71
3
 72
8
 73
4
 74
0
 40
0
 40
0
 40
0
 40
0
 40
1
 40
1
 40
1
 40
1
 10
212.296335
 20
178.695076
 30
0.0
 10
212.141021
 20
179.079540
 30
0.0
 10
212.061191
 20
179.490314
 30
0.0
 10
212.061205
 20
179.904964
 30
0.0
  0
LWPOLYLINE
  5
264
100
AcDbEntity
  8
Decoupe_2
 62
5
100
AcDbPolyline
 90
2
 70
0
 10
214.028969
 20
176.931921
 30
0.0
 10
210.243143
 20
168.012791
 30
0.0
  0
LWPOLYLINE
  5
265
100
AcDbEntity
  8
Decoupe_2
 62
5
100
AcDbPolyline
 90
2
 70
0
 10
212.296335
 20
178.695076
 30
0.0
 10
203.312447
 20
175.065250
 30
0.0
  0
SPLINE
  5
266
100
AcDbEntity
  8
Decoupe_2
 62
5
100
AcDbSpline
 70
8
 71
3
 72
8
 73
4
 74
0
 40
0
 40
0
 40
0
 40
0
 40
1
 40
1
 40
1
 40
1
 10
203.312447
 20
175.065250
 30
0.0
 10
202.691115
 20
176.603145
 30
0.0
 10
202.371739
 20
178.246298
 30
0.0
 10
202.371764
 20
179.904964
 30
0.0
  0
LWPOLYLINE
  5
267
100
AcDbEntity
  8
Decoupe_2
 62
5
100
AcDbPolyline
 90
2
 70
0
 10
212.061205
 20
179.904964
 30
0.0
 10
202.371764
 20
179.904964
 30
0.0
  0
SPLINE
  5
268
100
AcDbEntity
  8
Decoupe_2
 62
5
100
AcDbSpline
 70
8
 71
3
 72
8
 73
4
 74
0
 40
0
 40
0
 40
0
 40
0
 40
1
 40
1
 40
1
 40
1
 10
220.130732
 20
167.926393
 30
0.0
 10
218.592838
 20
167.305061
 30
0.0
 10
216.949684
 20
166.985685
 30
0.0
 10
215.291018
 20
166.985710
 30
0.0
  0
SPLINE
  5
269
100
AcDbEntity
  8
Decoupe_2
 62
5
100
AcDbSpline
 70
8
 71
3
 72
8
 73
4
 74
0
 40
0
 40
0
 40
0
 40
0
 40
1
 40
1
 40
1
 40
1
 10
216.500906
 20
176.910281
 30
0.0
 10
216.116443
 20
176.754967
 30
0.0
 10
215.705669
 20
176.675137
 30
0.0
 10
215.291018
 20
176.675151
 30
0.0
  0
LWPOLYLINE
  5
26a
100
AcDbEntity
  8
Decoupe_2
 62
5
100
AcDbPolyline
 90
2
 70
0
 10
220.130732
 20
167.926393
 30
0.0
 10
216.500906
 20
176.910281
 30
0.0
  0
LWPOLYLINE
  5
26b
100
AcDbEntity
  8
Decoupe_2
 62
5
100
AcDbPolyline
 90
2
 70
0
 10
215.291018
 20
166.985710
 30
0.0
 10
215.291018
 20
176.675151
 30
0.0
  0
SPLINE
  5
26c
100
AcDbEntity
  8
Decoupe_2
 62
5
100
AcDbSpline
 70
8
 71
3
 72
8
 73
4
 74
0
 40
0
 40
0
 40
0
 40
0
 40
1
 40
1
 40
1
 40
1
 10
218.264062
 20
178.642915
 30
0.0
 10
218.102030
 20
178.261246
 30
0.0
 10
217.868022
 20
177.914348
 30
0.0
 10
217.574819
 20
177.621163
 30
0.0
  0
SPLINE
  5
26d
100
AcDbEntity
  8
Decoupe_2
 62
5
100
AcDbSpline
 70
8
 71
3
 72
8
 73
4
 74
0
 40
0
 40
0
 40
0
 40
0
 40
1
 40
1
 40
1
 40
1
 10
227.183192
 20
174.857089
 30
0.0
 10
226.535166
 20
173.330256
 30
0.0
 10
225.599190
 20
171.942493
 30
0.0
 10
224.426385
 20
170.769598
 30
0.0
  0
LWPOLYLINE
  5
26e
100
AcDbEntity
  8
Decoupe_2
 62
5
100
AcDbPolyline
 90
2
 70
0
 10
218.264062
 20
178.642915
 30
0.0
 10
227.183192
 20
174.857089
 30
0.0
  0
LWPOLYLINE
  5
26f
100
AcDbEntity
  8
Decoupe_2
 62
5
100
AcDbPolyline
 90
2
 70
0
 10
217.574819
 20
177.621163
 30
0.0
 10
224.426385
 20
170.769598
 30
0.0
  0
ENDSEC
  0
SECTION
  2
OBJECTS
  0
DICTIONARY
  5
C
330
0
100
AcDbDictionary
  3
ACAD_GROUP
350
D
  3
ACAD_MLINESTYLE
350
17
  0
DICTIONARY
  5
D
330
C
100
AcDbDictionary
  0
DICTIONARY
  5
1A
330
C
100
AcDbDictionary
  0
DICTIONARY
  5
17
330
C
100
AcDbDictionary
  3
STANDARD
350
18
  0
DICTIONARY
  5
19
330
C
100
AcDbDictionary
  0
ENDSEC
  0
EOF
