  0
SECTION
  2
HEADER
  9
$ACADVER
  1
AC1014
  9
$HANDSEED
  5
FFFF
  9
$MEASUREMENT
 70
     1
  0
ENDSEC
  0
SECTION
  2
TABLES
  0
TABLE
  2
VPORT
  5
8
330
0
100
AcDbSymbolTable
 70
     4
  0
VPORT
  5
2E
330
8
100
AcDbSymbolTableRecord
100
AcDbViewportTableRecord
  2
*ACTIVE
 70
     0
 10
0.0
 20
0.0
 11
1.0
 21
1.0
 12
210.0
 22
148.5
 13
0.0
 23
0.0
 14
10.0
 24
10.0
 15
10.0
 25
10.0
 16
0.0
 26
0.0
 36
1.0
 17
0.0
 27
0.0
 37
0.0
 40
341.0
 41
1.24
 42
50.0
 43
0.0
 44
0.0
 50
0.0
 51
0.0
 71
     0
 72
   100
 73
     1
 74
     3
 75
     0
 76
     0
 77
     0
 78
     0
  0
ENDTAB
  0
TABLE
  2
LTYPE
  5
5
330
0
100
AcDbSymbolTable
 70
     1
  0
LTYPE
  5
14
330
5
100
AcDbSymbolTableRecord
100
AcDbLinetypeTableRecord
  2
BYBLOCK
 70
     0
  3

 72
    65
 73
     0
 40
0.0
  0
LTYPE
  5
15
330
5
100
AcDbSymbolTableRecord
100
AcDbLinetypeTableRecord
  2
BYLAYER
 70
     0
  3

 72
    65
 73
     0
 40
0.0
  0
LTYPE
  5
16
330
5
100
AcDbSymbolTableRecord
100
AcDbLinetypeTableRecord
  2
CONTINUOUS
 70
     0
  3
Solid line
 72
    65
 73
     0
 40
0.0
  0
ENDTAB
  0
TABLE
  2
LAYER
  5
2
100
AcDbSymbolTable
 70
4
  0
LAYER
  5
50
100
AcDbSymbolTableRecord
100
AcDbLayerTableRecord
  2
0
 70
0
  6
CONTINUOUS
  0
LAYER
  5
51
100
AcDbSymbolTableRecord
100
AcDbLayerTableRecord
  2
Decoupe_1
 70
0
  6
CONTINUOUS
  0
LAYER
  5
52
100
AcDbSymbolTableRecord
100
AcDbLayerTableRecord
  2
Decoupe_2
 70
0
  6
CONTINUOUS
  0
LAYER
  5
53
100
AcDbSymbolTableRecord
100
AcDbLayerTableRecord
  2
Gravure
 70
0
  6
CONTINUOUS
  0
ENDTAB
  0
TABLE
  2
STYLE
  5
3
330
0
100
AcDbSymbolTable
 70
     1
  0
STYLE
  5
11
330
3
100
AcDbSymbolTableRecord
100
AcDbTextStyleTableRecord
  2
STANDARD
 70
     0
 40
0.0
 41
1.0
 50
0.0
 71
     0
 42
2.5
  3
txt
  4

  0
ENDTAB
  0
TABLE
  2
VIEW
  5
6
330
0
100
AcDbSymbolTable
 70
     0
  0
ENDTAB
  0
TABLE
  2
UCS
  5
7
330
0
100
AcDbSymbolTable
 70
     0
  0
ENDTAB
  0
TABLE
  2
APPID
  5
9
330
0
100
AcDbSymbolTable
 70
     2
  0
APPID
  5
12
330
9
100
AcDbSymbolTableRecord
100
AcDbRegAppTableRecord
  2
ACAD
 70
     0
  0
ENDTAB
  0
TABLE
  2
DIMSTYLE
  5
A
330
0
100
AcDbSymbolTable
 70
     1
  0
DIMSTYLE
105
27
330
A
100
AcDbSymbolTableRecord
100
AcDbDimStyleTableRecord
  2
ISO-25
 70
     0
  3

  4

  5

  6

  7

 40
1.0
 41
2.5
 42
0.625
 43
3.75
 44
1.25
 45
0.0
 46
0.0
 47
0.0
 48
0.0
140
2.5
141
2.5
142
0.0
143
0.03937007874016
144
1.0
145
0.0
146
1.0
147
0.625
 71
     0
 72
     0
 73
     0
 74
     0
 75
     0
 76
     0
 77
     1
 78
     8
170
     0
171
     3
172
     1
173
     0
174
     0
175
     0
176
     0
177
     0
178
     0
270
     2
271
     2
272
     2
273
     2
274
     3
340
11
275
     0
280
     0
281
     0
282
     0
283
     0
284
     8
285
     0
286
     0
287
     3
288
     0
  0
ENDTAB
  0
TABLE
  2
BLOCK_RECORD
  5
1
330
0
100
AcDbSymbolTable
 70
     1
  0
BLOCK_RECORD
  5
1F
330
1
100
AcDbSymbolTableRecord
100
AcDbBlockTableRecord
  2
*MODEL_SPACE
  0
BLOCK_RECORD
  5
1B
330
1
100
AcDbSymbolTableRecord
100
AcDbBlockTableRecord
  2
*PAPER_SPACE
  0
ENDTAB
  0
ENDSEC
  0
SECTION
  2
BLOCKS
  0
BLOCK
  5
20
330
1F
100
AcDbEntity
  8
0
100
AcDbBlockBegin
  2
*MODEL_SPACE
 70
     0
 10
0.0
 20
0.0
 30
0.0
  3
*MODEL_SPACE
  1

  0
ENDBLK
  5
21
330
1F
100
AcDbEntity
  8
0
100
AcDbBlockEnd
  0
BLOCK
  5
1C
330
1B
100
AcDbEntity
 67
     1
  8
0
100
AcDbBlockBegin
  2
*PAPER_SPACE
  1

  0
ENDBLK
  5
1D
330
1B
100
AcDbEntity
 67
     1
  8
0
100
AcDbBlockEnd
  0
ENDSEC
  0
SECTION
  2
ENTITIES
  0
LWPOLYLINE
  5
100
100
AcDbEntity
  8
Decoupe_2
 62
5
100
AcDbPolyline
 90
2
 70
0
 10
388.354052
 20
280.412822
 30
0.0
 10
368.158432
 20
285.527922
 30
0.0
  0
LWPOLYLINE
  5
101
100
AcDbEntity
  8
Decoupe_2
 62
5
100
AcDbPolyline
 90
2
 70
0
 10
370.486742
 20
280.412822
 30
0.0
 10
388.354052
 20
280.412822
 30
0.0
  0
LWPOLYLINE
  5
102
100
AcDbEntity
  8
Decoupe_2
 62
5
100
AcDbPolyline
 90
4
 70
0
 10
370.486742
 20
280.412822
 30
0.0
 10
370.486742
 20
278.912822
 30
0.0
 10
367.486742
 20
278.912822
 30
0.0
 10
367.486742
 20
280.412822
 30
0.0
  0
LWPOLYLINE
  5
103
100
AcDbEntity
  8
Decoupe_2
 62
5
100
AcDbPolyline
 90
2
 70
0
 10
363.354052
 20
280.412822
 30
0.0
 10
367.486742
 20
280.412822
 30
0.0
  0
LWPOLYLINE
  5
104
100
AcDbEntity
  8
Decoupe_2
 62
5
100
AcDbPolyline
 90
2
 70
0
 10
368.158432
 20
285.527922
 30
0.0
 10
363.354052
 20
280.412822
 30
0.0
  0
LWPOLYLINE
  5
105
100
AcDbEntity
  8
Decoupe_2
 62
6
100
AcDbPolyline
 90
3
 70
0
 10
389.854052
 20
269.412822
 30
0.0
 10
391.354052
 20
269.412822
 30
0.0
 10
391.354052
 20
277.412822
 30
0.0
  0
LWPOLYLINE
  5
106
100
AcDbEntity
  8
Decoupe_2
 62
6
100
AcDbPolyline
 90
2
 70
0
 10
389.854052
 20
266.412822
 30
0.0
 10
389.854052
 20
269.412822
 30
0.0
  0
LWPOLYLINE
  5
107
100
AcDbEntity
  8
Decoupe_2
 62
6
100
AcDbPolyline
 90
2
 70
0
 10
391.354052
 20
277.412822
 30
0.0
 10
394.354052
 20
277.412822
 30
0.0
  0
LWPOLYLINE
  5
108
100
AcDbEntity
  8
Decoupe_2
 62
6
100
AcDbPolyline
 90
2
 70
0
 10
391.354052
 20
266.412822
 30
0.0
 10
389.854052
 20
266.412822
 30
0.0
  0
LWPOLYLINE
  5
109
100
AcDbEntity
  8
Decoupe_2
 62
6
100
AcDbPolyline
 90
2
 70
0
 10
394.354052
 20
281.987922
 30
0.0
 10
394.354052
 20
277.412822
 30
0.0
  0
LWPOLYLINE
  5
10a
100
AcDbEntity
  8
Decoupe_2
 62
6
100
AcDbPolyline
 90
2
 70
0
 10
391.354052
 20
234.412822
 30
0.0
 10
391.354052
 20
266.412822
 30
0.0
  0
LWPOLYLINE
  5
10b
100
AcDbEntity
  8
Decoupe_2
 62
6
100
AcDbPolyline
 90
2
 70
0
 10
380.145812
 20
285.586522
 30
0.0
 10
394.354052
 20
281.987922
 30
0.0
  0
LWPOLYLINE
  5
10c
100
AcDbEntity
  8
Decoupe_2
 62
6
100
AcDbPolyline
 90
2
 70
0
 10
389.854052
 20
234.412822
 30
0.0
 10
391.354052
 20
234.412822
 30
0.0
  0
LWPOLYLINE
  5
10d
100
AcDbEntity
  8
Decoupe_2
 62
6
100
AcDbPolyline
 90
2
 70
0
 10
380.882392
 20
288.494722
 30
0.0
 10
380.145812
 20
285.586522
 30
0.0
  0
LWPOLYLINE
  5
10e
100
AcDbEntity
  8
Decoupe_2
 62
6
100
AcDbPolyline
 90
2
 70
0
 10
389.854052
 20
231.412822
 30
0.0
 10
389.854052
 20
234.412822
 30
0.0
  0
LWPOLYLINE
  5
10f
100
AcDbEntity
  8
Decoupe_2
 62
6
100
AcDbPolyline
 90
2
 70
0
 10
376.035452
 20
289.722322
 30
0.0
 10
380.882392
 20
288.494722
 30
0.0
  0
LWPOLYLINE
  5
110
100
AcDbEntity
  8
Decoupe_2
 62
6
100
AcDbPolyline
 90
2
 70
0
 10
391.354052
 20
231.412822
 30
0.0
 10
389.854052
 20
231.412822
 30
0.0
  0
LWPOLYLINE
  5
111
100
AcDbEntity
  8
Decoupe_2
 62
6
100
AcDbPolyline
 90
2
 70
0
 10
375.298872
 20
286.814122
 30
0.0
 10
376.035452
 20
289.722322
 30
0.0
  0
LWPOLYLINE
  5
112
100
AcDbEntity
  8
Decoupe_2
 62
6
100
AcDbPolyline
 90
2
 70
0
 10
391.354052
 20
223.412822
 30
0.0
 10
391.354052
 20
231.412822
 30
0.0
  0
LWPOLYLINE
  5
113
100
AcDbEntity
  8
Decoupe_2
 62
6
100
AcDbPolyline
 90
2
 70
0
 10
361.090652
 20
290.412822
 30
0.0
 10
375.298872
 20
286.814122
 30
0.0
  0
LWPOLYLINE
  5
114
100
AcDbEntity
  8
Decoupe_2
 62
6
100
AcDbPolyline
 90
2
 70
0
 10
394.354052
 20
223.412822
 30
0.0
 10
391.354052
 20
223.412822
 30
0.0
  0
LWPOLYLINE
  5
115
100
AcDbEntity
  8
Decoupe_2
 62
6
100
AcDbPolyline
 90
2
 70
0
 10
360.354052
 20
290.412822
 30
0.0
 10
361.090652
 20
290.412822
 30
0.0
  0
LWPOLYLINE
  5
116
100
AcDbEntity
  8
Decoupe_2
 62
6
100
AcDbPolyline
 90
2
 70
0
 10
394.354052
 20
223.412822
 30
0.0
 10
394.354052
 20
220.412822
 30
0.0
  0
LWPOLYLINE
  5
117
100
AcDbEntity
  8
Decoupe_2
 62
6
100
AcDbPolyline
 90
2
 70
0
 10
360.354052
 20
287.504622
 30
0.0
 10
360.354052
 20
290.412822
 30
0.0
  0
LWPOLYLINE
  5
118
100
AcDbEntity
  8
Decoupe_2
 62
6
100
AcDbPolyline
 90
2
 70
0
 10
394.354052
 20
220.412822
 30
0.0
 10
387.354052
 20
220.412822
 30
0.0
  0
LWPOLYLINE
  5
119
100
AcDbEntity
  8
Decoupe_2
 62
6
100
AcDbPolyline
 90
2
 70
0
 10
360.354052
 20
287.504622
 30
0.0
 10
365.734952
 20
286.141822
 30
0.0
  0
LWPOLYLINE
  5
11a
100
AcDbEntity
  8
Decoupe_2
 62
6
100
AcDbPolyline
 90
2
 70
0
 10
387.354052
 20
221.912822
 30
0.0
 10
387.354052
 20
220.412822
 30
0.0
  0
LWPOLYLINE
  5
11b
100
AcDbEntity
  8
Decoupe_2
 62
6
100
AcDbPolyline
 90
2
 70
0
 10
365.734952
 20
286.141822
 30
0.0
 10
360.354052
 20
280.412822
 30
0.0
  0
LWPOLYLINE
  5
11c
100
AcDbEntity
  8
Decoupe_2
 62
6
100
AcDbPolyline
 90
2
 70
0
 10
384.354052
 20
221.912822
 30
0.0
 10
387.354052
 20
221.912822
 30
0.0
  0
LWPOLYLINE
  5
11d
100
AcDbEntity
  8
Decoupe_2
 62
6
100
AcDbPolyline
 90
2
 70
0
 10
360.354052
 20
273.912822
 30
0.0
 10
360.354052
 20
280.412822
 30
0.0
  0
LWPOLYLINE
  5
11e
100
AcDbEntity
  8
Decoupe_2
 62
6
100
AcDbPolyline
 90
2
 70
0
 10
384.354052
 20
220.412822
 30
0.0
 10
384.354052
 20
221.912822
 30
0.0
  0
LWPOLYLINE
  5
11f
100
AcDbEntity
  8
Decoupe_2
 62
6
100
AcDbPolyline
 90
2
 70
0
 10
361.854052
 20
272.412822
 30
0.0
 10
360.354052
 20
273.912822
 30
0.0
  0
LWPOLYLINE
  5
120
100
AcDbEntity
  8
Decoupe_2
 62
6
100
AcDbPolyline
 90
2
 70
0
 10
384.354052
 20
220.412822
 30
0.0
 10
370.486742
 20
220.412822
 30
0.0
  0
LWPOLYLINE
  5
121
100
AcDbEntity
  8
Decoupe_2
 62
6
100
AcDbPolyline
 90
2
 70
0
 10
361.854052
 20
272.412822
 30
0.0
 10
363.354052
 20
272.412822
 30
0.0
  0
LWPOLYLINE
  5
122
100
AcDbEntity
  8
Decoupe_2
 62
6
100
AcDbPolyline
 90
2
 70
0
 10
370.486742
 20
221.912822
 30
0.0
 10
370.486742
 20
220.412822
 30
0.0
  0
LWPOLYLINE
  5
123
100
AcDbEntity
  8
Decoupe_2
 62
6
100
AcDbPolyline
 90
2
 70
0
 10
363.354052
 20
272.412822
 30
0.0
 10
363.354052
 20
277.412822
 30
0.0
  0
LWPOLYLINE
  5
124
100
AcDbEntity
  8
Decoupe_2
 62
6
100
AcDbPolyline
 90
2
 70
0
 10
367.486742
 20
221.912822
 30
0.0
 10
370.486742
 20
221.912822
 30
0.0
  0
LWPOLYLINE
  5
125
100
AcDbEntity
  8
Decoupe_2
 62
6
100
AcDbPolyline
 90
2
 70
0
 10
363.354052
 20
277.412822
 30
0.0
 10
388.354052
 20
277.412822
 30
0.0
  0
LWPOLYLINE
  5
126
100
AcDbEntity
  8
Decoupe_2
 62
6
100
AcDbPolyline
 90
2
 70
0
 10
367.486742
 20
220.412822
 30
0.0
 10
367.486742
 20
221.912822
 30
0.0
  0
LWPOLYLINE
  5
127
100
AcDbEntity
  8
Decoupe_2
 62
6
100
AcDbPolyline
 90
2
 70
0
 10
388.354052
 20
277.412822
 30
0.0
 10
388.354052
 20
223.412822
 30
0.0
  0
LWPOLYLINE
  5
128
100
AcDbEntity
  8
Decoupe_2
 62
6
100
AcDbPolyline
 90
2
 70
0
 10
367.486742
 20
220.412822
 30
0.0
 10
360.354052
 20
220.412822
 30
0.0
  0
LWPOLYLINE
  5
129
100
AcDbEntity
  8
Decoupe_2
 62
6
100
AcDbPolyline
 90
2
 70
0
 10
388.354052
 20
223.412822
 30
0.0
 10
363.354052
 20
223.412822
 30
0.0
  0
LWPOLYLINE
  5
12a
100
AcDbEntity
  8
Decoupe_2
 62
6
100
AcDbPolyline
 90
2
 70
0
 10
360.354052
 20
220.412822
 30
0.0
 10
360.354052
 20
226.912822
 30
0.0
  0
LWPOLYLINE
  5
12b
100
AcDbEntity
  8
Decoupe_2
 62
6
100
AcDbPolyline
 90
2
 70
0
 10
363.354052
 20
223.412822
 30
0.0
 10
363.354052
 20
228.412822
 30
0.0
  0
LWPOLYLINE
  5
12c
100
AcDbEntity
  8
Decoupe_2
 62
6
100
AcDbPolyline
 90
2
 70
0
 10
361.854052
 20
228.412822
 30
0.0
 10
360.354052
 20
226.912822
 30
0.0
  0
LWPOLYLINE
  5
12d
100
AcDbEntity
  8
Decoupe_2
 62
6
100
AcDbPolyline
 90
2
 70
0
 10
363.354052
 20
228.412822
 30
0.0
 10
361.854052
 20
228.412822
 30
0.0
  0
LWPOLYLINE
  5
12e
100
AcDbEntity
  8
Decoupe_2
 62
6
100
AcDbPolyline
 90
2
 70
0
 10
261.466720
 20
230.175002
 30
0.0
 10
353.466719
 20
230.175002
 30
0.0
  0
LWPOLYLINE
  5
12f
100
AcDbEntity
  8
Decoupe_2
 62
6
100
AcDbPolyline
 90
2
 70
0
 10
261.466720
 20
230.175002
 30
0.0
 10
261.466720
 20
233.125002
 30
0.0
  0
LWPOLYLINE
  5
130
100
AcDbEntity
  8
Decoupe_2
 62
6
100
AcDbPolyline
 90
2
 70
0
 10
353.466719
 20
233.175002
 30
0.0
 10
353.466719
 20
230.175002
 30
0.0
  0
LWPOLYLINE
  5
131
100
AcDbEntity
  8
Decoupe_2
 62
6
100
AcDbPolyline
 90
2
 70
0
 10
355.466719
 20
233.175002
 30
0.0
 10
353.466719
 20
233.175002
 30
0.0
  0
LWPOLYLINE
  5
132
100
AcDbEntity
  8
Decoupe_2
 62
6
100
AcDbPolyline
 90
2
 70
0
 10
355.466719
 20
236.175002
 30
0.0
 10
355.466719
 20
233.175002
 30
0.0
  0
LWPOLYLINE
  5
133
100
AcDbEntity
  8
Decoupe_2
 62
6
100
AcDbPolyline
 90
2
 70
0
 10
355.466719
 20
240.175002
 30
0.0
 10
355.466719
 20
236.175002
 30
0.0
  0
LWPOLYLINE
  5
134
100
AcDbEntity
  8
Decoupe_2
 62
6
100
AcDbPolyline
 90
2
 70
0
 10
358.466719
 20
240.175002
 30
0.0
 10
355.466719
 20
240.175002
 30
0.0
  0
LWPOLYLINE
  5
135
100
AcDbEntity
  8
Decoupe_2
 62
6
100
AcDbPolyline
 90
6
 70
0
 10
358.466719
 20
240.175002
 30
0.0
 10
358.466719
 20
250.175002
 30
0.0
 10
355.466719
 20
250.175002
 30
0.0
 10
355.466719
 20
270.175002
 30
0.0
 10
358.466719
 20
270.175002
 30
0.0
 10
358.466719
 20
280.175002
 30
0.0
  0
LWPOLYLINE
  5
136
100
AcDbEntity
  8
Decoupe_2
 62
6
100
AcDbPolyline
 90
2
 70
0
 10
355.466719
 20
280.175002
 30
0.0
 10
358.466719
 20
280.175002
 30
0.0
  0
LWPOLYLINE
  5
137
100
AcDbEntity
  8
Decoupe_2
 62
6
100
AcDbPolyline
 90
2
 70
0
 10
355.466719
 20
284.175002
 30
0.0
 10
355.466719
 20
280.175002
 30
0.0
  0
LWPOLYLINE
  5
138
100
AcDbEntity
  8
Decoupe_2
 62
6
100
AcDbPolyline
 90
2
 70
0
 10
355.466719
 20
287.175002
 30
0.0
 10
355.466719
 20
284.175002
 30
0.0
  0
LWPOLYLINE
  5
139
100
AcDbEntity
  8
Decoupe_2
 62
6
100
AcDbPolyline
 90
2
 70
0
 10
353.466719
 20
287.175002
 30
0.0
 10
355.466719
 20
287.175002
 30
0.0
  0
LWPOLYLINE
  5
13a
100
AcDbEntity
  8
Decoupe_2
 62
6
100
AcDbPolyline
 90
2
 70
0
 10
353.466719
 20
290.175002
 30
0.0
 10
353.466719
 20
287.175002
 30
0.0
  0
LWPOLYLINE
  5
13b
100
AcDbEntity
  8
Decoupe_2
 62
6
100
AcDbPolyline
 90
2
 70
0
 10
353.466719
 20
290.175002
 30
0.0
 10
261.466720
 20
290.175002
 30
0.0
  0
LWPOLYLINE
  5
13c
100
AcDbEntity
  8
Decoupe_2
 62
6
100
AcDbPolyline
 90
2
 70
0
 10
261.466720
 20
287.225002
 30
0.0
 10
261.466720
 20
290.175002
 30
0.0
  0
LWPOLYLINE
  5
13d
100
AcDbEntity
  8
Decoupe_2
 62
6
100
AcDbPolyline
 90
2
 70
0
 10
258.466720
 20
287.225002
 30
0.0
 10
261.466720
 20
287.225002
 30
0.0
  0
LWPOLYLINE
  5
13e
100
AcDbEntity
  8
Decoupe_2
 62
6
100
AcDbPolyline
 90
2
 70
0
 10
258.466720
 20
287.225002
 30
0.0
 10
258.466720
 20
233.125002
 30
0.0
  0
LWPOLYLINE
  5
13f
100
AcDbEntity
  8
Decoupe_2
 62
6
100
AcDbPolyline
 90
2
 70
0
 10
261.466720
 20
233.125002
 30
0.0
 10
258.466720
 20
233.125002
 30
0.0
  0
LWPOLYLINE
  5
140
100
AcDbEntity
  8
Decoupe_2
 62
6
100
AcDbPolyline
 90
3
 70
0
 10
200.108658
 20
290.250149
 30
0.0
 10
200.108658
 20
240.250152
 30
0.0
 10
190.108658
 20
240.250152
 30
0.0
  0
SPLINE
  5
141
100
AcDbEntity
  8
Decoupe_2
 62
6
100
AcDbSpline
 70
8
 71
3
 72
8
 73
4
 74
0
 40
0
 40
0
 40
0
 40
0
 40
1
 40
1
 40
1
 40
1
 10
190.108658
 20
240.250152
 30
0.0
 10
184.804328
 20
240.250152
 30
0.0
 10
179.717250
 20
242.357289
 30
0.0
 10
175.966522
 20
246.108016
 30
0.0
  0
SPLINE
  5
142
100
AcDbEntity
  8
Decoupe_2
 62
6
100
AcDbSpline
 70
8
 71
3
 72
8
 73
4
 74
0
 40
0
 40
0
 40
0
 40
0
 40
1
 40
1
 40
1
 40
1
 10
175.966522
 20
246.108016
 30
0.0
 10
172.215795
 20
249.858744
 30
0.0
 10
170.108658
 20
254.945822
 30
0.0
 10
170.108658
 20
260.250152
 30
0.0
  0
SPLINE
  5
143
100
AcDbEntity
  8
Decoupe_2
 62
6
100
AcDbSpline
 70
8
 71
3
 72
8
 73
4
 74
0
 40
0
 40
0
 40
0
 40
0
 40
1
 40
1
 40
1
 40
1
 10
170.108658
 20
270.250149
 30
0.0
 10
170.108658
 20
275.554479
 30
0.0
 10
172.215795
 20
280.641557
 30
0.0
 10
175.966522
 20
284.392285
 30
0.0
  0
SPLINE
  5
144
100
AcDbEntity
  8
Decoupe_2
 62
6
100
AcDbSpline
 70
8
 71
3
 72
8
 73
4
 74
0
 40
0
 40
0
 40
0
 40
0
 40
1
 40
1
 40
1
 40
1
 10
175.966522
 20
284.392285
 30
0.0
 10
179.717250
 20
288.143012
 30
0.0
 10
184.804328
 20
290.250149
 30
0.0
 10
190.108658
 20
290.250149
 30
0.0
  0
LWPOLYLINE
  5
145
100
AcDbEntity
  8
Decoupe_2
 62
6
100
AcDbPolyline
 90
2
 70
0
 10
190.108658
 20
290.250149
 30
0.0
 10
200.108658
 20
290.250149
 30
0.0
  0
LWPOLYLINE
  5
146
100
AcDbEntity
  8
Decoupe_2
 62
6
100
AcDbPolyline
 90
2
 70
0
 10
170.108658
 20
260.250152
 30
0.0
 10
170.108658
 20
270.250149
 30
0.0
  0
LWPOLYLINE
  5
147
100
AcDbEntity
  8
Decoupe_2
 62
5
100
AcDbPolyline
 90
2
 70
0
 10
187.158658
 20
249.350152
 30
0.0
 10
187.158658
 20
252.300152
 30
0.0
  0
LWPOLYLINE
  5
148
100
AcDbEntity
  8
Decoupe_2
 62
5
100
AcDbPolyline
 90
2
 70
0
 10
190.108658
 20
249.350152
 30
0.0
 10
187.158658
 20
249.350152
 30
0.0
  0
LWPOLYLINE
  5
149
100
AcDbEntity
  8
Decoupe_2
 62
5
100
AcDbPolyline
 90
2
 70
0
 10
190.108658
 20
252.300152
 30
0.0
 10
190.108658
 20
249.350152
 30
0.0
  0
LWPOLYLINE
  5
14a
100
AcDbEntity
  8
Decoupe_2
 62
5
100
AcDbPolyline
 90
2
 70
0
 10
187.158658
 20
252.300152
 30
0.0
 10
190.108658
 20
252.300152
 30
0.0
  0
LWPOLYLINE
  5
14b
100
AcDbEntity
  8
Decoupe_2
 62
5
100
AcDbPolyline
 90
2
 70
0
 10
187.158658
 20
277.300149
 30
0.0
 10
187.158658
 20
280.250149
 30
0.0
  0
LWPOLYLINE
  5
14c
100
AcDbEntity
  8
Decoupe_2
 62
5
100
AcDbPolyline
 90
2
 70
0
 10
190.108658
 20
277.300149
 30
0.0
 10
187.158658
 20
277.300149
 30
0.0
  0
LWPOLYLINE
  5
14d
100
AcDbEntity
  8
Decoupe_2
 62
5
100
AcDbPolyline
 90
2
 70
0
 10
190.108658
 20
280.250149
 30
0.0
 10
190.108658
 20
277.300149
 30
0.0
  0
LWPOLYLINE
  5
14e
100
AcDbEntity
  8
Decoupe_2
 62
5
100
AcDbPolyline
 90
2
 70
0
 10
187.158658
 20
280.250149
 30
0.0
 10
190.108658
 20
280.250149
 30
0.0
  0
LWPOLYLINE
  5
14f
100
AcDbEntity
  8
Decoupe_2
 62
5
100
AcDbPolyline
 90
2
 70
0
 10
198.058658
 20
280.250149
 30
0.0
 10
195.108658
 20
280.250149
 30
0.0
  0
LWPOLYLINE
  5
150
100
AcDbEntity
  8
Decoupe_2
 62
5
100
AcDbPolyline
 90
2
 70
0
 10
198.058658
 20
285.250149
 30
0.0
 10
198.058658
 20
280.250149
 30
0.0
  0
LWPOLYLINE
  5
151
100
AcDbEntity
  8
Decoupe_2
 62
5
100
AcDbPolyline
 90
3
 70
0
 10
195.108658
 20
280.250149
 30
0.0
 10
195.108658
 20
285.250149
 30
0.0
 10
198.058658
 20
285.250149
 30
0.0
  0
LWPOLYLINE
  5
152
100
AcDbEntity
  8
Decoupe_2
 62
5
100
AcDbPolyline
 90
2
 70
0
 10
195.108658
 20
245.250152
 30
0.0
 10
198.058658
 20
245.250152
 30
0.0
  0
LWPOLYLINE
  5
153
100
AcDbEntity
  8
Decoupe_2
 62
5
100
AcDbPolyline
 90
2
 70
0
 10
195.108658
 20
250.250152
 30
0.0
 10
195.108658
 20
245.250152
 30
0.0
  0
SPLINE
  5
154
100
AcDbEntity
  8
Decoupe_2
 62
5
100
AcDbSpline
 70
8
 71
3
 72
8
 73
4
 74
0
 40
0
 40
0
 40
0
 40
0
 40
1
 40
1
 40
1
 40
1
 10
190.108658
 20
288.250149
 30
0.0
 10
185.334761
 20
288.250149
 30
0.0
 10
180.756391
 20
286.353726
 30
0.0
 10
177.380736
 20
282.978071
 30
0.0
  0
SPLINE
  5
155
100
AcDbEntity
  8
Decoupe_2
 62
5
100
AcDbSpline
 70
8
 71
3
 72
8
 73
4
 74
0
 40
0
 40
0
 40
0
 40
0
 40
1
 40
1
 40
1
 40
1
 10
177.380736
 20
282.978071
 30
0.0
 10
174.005081
 20
279.602416
 30
0.0
 10
172.108658
 20
275.024046
 30
0.0
 10
172.108658
 20
270.250149
 30
0.0
  0
LWPOLYLINE
  5
156
100
AcDbEntity
  8
Decoupe_2
 62
5
100
AcDbPolyline
 90
3
 70
0
 10
198.058658
 20
245.250152
 30
0.0
 10
198.058658
 20
250.250152
 30
0.0
 10
195.108658
 20
250.250152
 30
0.0
  0
LWPOLYLINE
  5
157
100
AcDbEntity
  8
Decoupe_2
 62
5
100
AcDbPolyline
 90
2
 70
0
 10
190.108658
 20
288.250149
 30
0.0
 10
195.108658
 20
288.250149
 30
0.0
  0
LWPOLYLINE
  5
158
100
AcDbEntity
  8
Decoupe_2
 62
5
100
AcDbPolyline
 90
2
 70
0
 10
172.108658
 20
265.250149
 30
0.0
 10
172.108658
 20
270.250149
 30
0.0
  0
LWPOLYLINE
  5
159
100
AcDbEntity
  8
Decoupe_2
 62
5
100
AcDbPolyline
 90
2
 70
0
 10
195.108658
 20
288.250149
 30
0.0
 10
195.108658
 20
287.250149
 30
0.0
  0
LWPOLYLINE
  5
15a
100
AcDbEntity
  8
Decoupe_2
 62
5
100
AcDbPolyline
 90
2
 70
0
 10
172.108658
 20
265.250149
 30
0.0
 10
172.108658
 20
260.250152
 30
0.0
  0
SPLINE
  5
15b
100
AcDbEntity
  8
Decoupe_2
 62
5
100
AcDbSpline
 70
8
 71
3
 72
8
 73
4
 74
0
 40
0
 40
0
 40
0
 40
0
 40
1
 40
1
 40
1
 40
1
 10
190.108658
 20
242.250152
 30
0.0
 10
185.334761
 20
242.250152
 30
0.0
 10
180.756391
 20
244.146575
 30
0.0
 10
177.380736
 20
247.522230
 30
0.0
  0
SPLINE
  5
15c
100
AcDbEntity
  8
Decoupe_2
 62
5
100
AcDbSpline
 70
8
 71
3
 72
8
 73
4
 74
0
 40
0
 40
0
 40
0
 40
0
 40
1
 40
1
 40
1
 40
1
 10
177.380736
 20
247.522230
 30
0.0
 10
174.005081
 20
250.897885
 30
0.0
 10
172.108658
 20
255.476255
 30
0.0
 10
172.108658
 20
260.250152
 30
0.0
  0
SPLINE
  5
15d
100
AcDbEntity
  8
Decoupe_2
 62
5
100
AcDbSpline
 70
8
 71
3
 72
8
 73
4
 74
0
 40
0
 40
0
 40
0
 40
0
 40
1
 40
1
 40
1
 40
1
 10
190.108658
 20
287.250149
 30
0.0
 10
185.599978
 20
287.250149
 30
0.0
 10
181.275961
 20
285.459083
 30
0.0
 10
178.087843
 20
282.270964
 30
0.0
  0
SPLINE
  5
15e
100
AcDbEntity
  8
Decoupe_2
 62
5
100
AcDbSpline
 70
8
 71
3
 72
8
 73
4
 74
0
 40
0
 40
0
 40
0
 40
0
 40
1
 40
1
 40
1
 40
1
 10
178.087843
 20
282.270964
 30
0.0
 10
174.899724
 20
279.082846
 30
0.0
 10
173.108658
 20
274.758829
 30
0.0
 10
173.108658
 20
270.250149
 30
0.0
  0
LWPOLYLINE
  5
15f
100
AcDbEntity
  8
Decoupe_2
 62
5
100
AcDbPolyline
 90
2
 70
0
 10
195.108658
 20
287.250149
 30
0.0
 10
190.108658
 20
287.250149
 30
0.0
  0
LWPOLYLINE
  5
160
100
AcDbEntity
  8
Decoupe_2
 62
5
100
AcDbPolyline
 90
2
 70
0
 10
190.108658
 20
242.250152
 30
0.0
 10
195.108658
 20
242.250152
 30
0.0
  0
LWPOLYLINE
  5
161
100
AcDbEntity
  8
Decoupe_2
 62
5
100
AcDbPolyline
 90
2
 70
0
 10
173.108658
 20
270.250149
 30
0.0
 10
173.108658
 20
265.250149
 30
0.0
  0
LWPOLYLINE
  5
162
100
AcDbEntity
  8
Decoupe_2
 62
5
100
AcDbPolyline
 90
2
 70
0
 10
195.108658
 20
242.250152
 30
0.0
 10
195.108658
 20
243.250152
 30
0.0
  0
LWPOLYLINE
  5
163
100
AcDbEntity
  8
Decoupe_2
 62
5
100
AcDbPolyline
 90
2
 70
0
 10
173.108658
 20
260.250152
 30
0.0
 10
173.108658
 20
265.250149
 30
0.0
  0
SPLINE
  5
164
100
AcDbEntity
  8
Decoupe_2
 62
5
100
AcDbSpline
 70
8
 71
3
 72
8
 73
4
 74
0
 40
0
 40
0
 40
0
 40
0
 40
1
 40
1
 40
1
 40
1
 10
190.108658
 20
243.250152
 30
0.0
 10
185.599978
 20
243.250152
 30
0.0
 10
181.275961
 20
245.041218
 30
0.0
 10
178.087843
 20
248.229337
 30
0.0
  0
SPLINE
  5
165
100
AcDbEntity
  8
Decoupe_2
 62
5
100
AcDbSpline
 70
8
 71
3
 72
8
 73
4
 74
0
 40
0
 40
0
 40
0
 40
0
 40
1
 40
1
 40
1
 40
1
 10
178.087843
 20
248.229337
 30
0.0
 10
174.899724
 20
251.417455
 30
0.0
 10
173.108658
 20
255.741472
 30
0.0
 10
173.108658
 20
260.250152
 30
0.0
  0
LWPOLYLINE
  5
166
100
AcDbEntity
  8
Decoupe_2
 62
5
100
AcDbPolyline
 90
2
 70
0
 10
195.108658
 20
243.250152
 30
0.0
 10
190.108658
 20
243.250152
 30
0.0
  0
LWPOLYLINE
  5
167
100
AcDbEntity
  8
Decoupe_2
 62
5
100
AcDbPolyline
 90
4
 70
1
 10
249.709520
 20
250.175002
 30
0.0
 10
249.709520
 20
240.175002
 30
0.0
 10
246.709520
 20
240.175002
 30
0.0
 10
246.709520
 20
250.175002
 30
0.0
  0
LWPOLYLINE
  5
168
100
AcDbEntity
  8
Decoupe_2
 62
5
100
AcDbPolyline
 90
4
 70
1
 10
249.709520
 20
270.175002
 30
0.0
 10
246.709520
 20
270.175002
 30
0.0
 10
246.709520
 20
280.175002
 30
0.0
 10
249.709520
 20
280.175002
 30
0.0
  0
LWPOLYLINE
  5
169
100
AcDbEntity
  8
Decoupe_2
 62
6
100
AcDbPolyline
 90
2
 70
0
 10
251.709520
 20
230.175002
 30
0.0
 10
246.709520
 20
230.175002
 30
0.0
  0
LWPOLYLINE
  5
16a
100
AcDbEntity
  8
Decoupe_2
 62
6
100
AcDbPolyline
 90
2
 70
0
 10
251.709520
 20
233.125002
 30
0.0
 10
251.709520
 20
230.175002
 30
0.0
  0
LWPOLYLINE
  5
16b
100
AcDbEntity
  8
Decoupe_2
 62
6
100
AcDbPolyline
 90
2
 70
0
 10
246.709520
 20
230.175002
 30
0.0
 10
246.709520
 20
233.125002
 30
0.0
  0
LWPOLYLINE
  5
16c
100
AcDbEntity
  8
Decoupe_2
 62
6
100
AcDbPolyline
 90
2
 70
0
 10
256.709520
 20
233.125002
 30
0.0
 10
251.709520
 20
233.125002
 30
0.0
  0
LWPOLYLINE
  5
16d
100
AcDbEntity
  8
Decoupe_2
 62
6
100
AcDbPolyline
 90
2
 70
0
 10
246.709520
 20
233.125002
 30
0.0
 10
216.709520
 20
233.125002
 30
0.0
  0
LWPOLYLINE
  5
16e
100
AcDbEntity
  8
Decoupe_2
 62
6
100
AcDbPolyline
 90
2
 70
0
 10
256.709520
 20
287.225002
 30
0.0
 10
256.709520
 20
233.125002
 30
0.0
  0
LWPOLYLINE
  5
16f
100
AcDbEntity
  8
Decoupe_2
 62
6
100
AcDbPolyline
 90
2
 70
0
 10
216.709520
 20
233.125002
 30
0.0
 10
216.709520
 20
230.175002
 30
0.0
  0
LWPOLYLINE
  5
170
100
AcDbEntity
  8
Decoupe_2
 62
6
100
AcDbPolyline
 90
2
 70
0
 10
256.709520
 20
287.225002
 30
0.0
 10
251.709520
 20
287.225002
 30
0.0
  0
LWPOLYLINE
  5
171
100
AcDbEntity
  8
Decoupe_2
 62
6
100
AcDbPolyline
 90
2
 70
0
 10
216.709520
 20
230.175002
 30
0.0
 10
211.709520
 20
230.175002
 30
0.0
  0
LWPOLYLINE
  5
172
100
AcDbEntity
  8
Decoupe_2
 62
6
100
AcDbPolyline
 90
2
 70
0
 10
251.709520
 20
287.225002
 30
0.0
 10
251.709520
 20
290.175002
 30
0.0
  0
LWPOLYLINE
  5
173
100
AcDbEntity
  8
Decoupe_2
 62
6
100
AcDbPolyline
 90
2
 70
0
 10
211.709520
 20
230.175002
 30
0.0
 10
211.709520
 20
233.125002
 30
0.0
  0
LWPOLYLINE
  5
174
100
AcDbEntity
  8
Decoupe_2
 62
6
100
AcDbPolyline
 90
2
 70
0
 10
246.709520
 20
290.175002
 30
0.0
 10
251.709520
 20
290.175002
 30
0.0
  0
LWPOLYLINE
  5
175
100
AcDbEntity
  8
Decoupe_2
 62
6
100
AcDbPolyline
 90
2
 70
0
 10
211.709520
 20
233.125002
 30
0.0
 10
206.709520
 20
233.125002
 30
0.0
  0
LWPOLYLINE
  5
176
100
AcDbEntity
  8
Decoupe_2
 62
6
100
AcDbPolyline
 90
2
 70
0
 10
246.709520
 20
290.175002
 30
0.0
 10
246.709520
 20
287.225002
 30
0.0
  0
LWPOLYLINE
  5
177
100
AcDbEntity
  8
Decoupe_2
 62
6
100
AcDbPolyline
 90
2
 70
0
 10
206.709520
 20
233.125002
 30
0.0
 10
206.709520
 20
287.225002
 30
0.0
  0
LWPOLYLINE
  5
178
100
AcDbEntity
  8
Decoupe_2
 62
6
100
AcDbPolyline
 90
2
 70
0
 10
246.709520
 20
287.225002
 30
0.0
 10
216.709520
 20
287.225002
 30
0.0
  0
LWPOLYLINE
  5
179
100
AcDbEntity
  8
Decoupe_2
 62
6
100
AcDbPolyline
 90
2
 70
0
 10
211.709520
 20
287.225002
 30
0.0
 10
206.709520
 20
287.225002
 30
0.0
  0
LWPOLYLINE
  5
17a
100
AcDbEntity
  8
Decoupe_2
 62
6
100
AcDbPolyline
 90
2
 70
0
 10
216.709520
 20
287.225002
 30
0.0
 10
216.709520
 20
290.175002
 30
0.0
  0
LWPOLYLINE
  5
17b
100
AcDbEntity
  8
Decoupe_2
 62
6
100
AcDbPolyline
 90
2
 70
0
 10
211.709520
 20
290.175002
 30
0.0
 10
211.709520
 20
287.225002
 30
0.0
  0
LWPOLYLINE
  5
17c
100
AcDbEntity
  8
Decoupe_2
 62
6
100
AcDbPolyline
 90
2
 70
0
 10
211.709520
 20
290.175002
 30
0.0
 10
216.709520
 20
290.175002
 30
0.0
  0
LWPOLYLINE
  5
17d
100
AcDbEntity
  8
Decoupe_2
 62
6
100
AcDbPolyline
 90
2
 70
0
 10
391.149840
 20
204.585824
 30
0.0
 10
391.149840
 20
207.585824
 30
0.0
  0
LWPOLYLINE
  5
17e
100
AcDbEntity
  8
Decoupe_2
 62
6
100
AcDbPolyline
 90
3
 70
0
 10
391.149840
 20
204.585824
 30
0.0
 10
370.954220
 20
199.470724
 30
0.0
 10
366.149840
 20
204.585824
 30
0.0
  0
LWPOLYLINE
  5
17f
100
AcDbEntity
  8
Decoupe_2
 62
6
100
AcDbPolyline
 90
2
 70
0
 10
366.149840
 20
207.585824
 30
0.0
 10
366.149840
 20
204.585824
 30
0.0
  0
LWPOLYLINE
  5
180
100
AcDbEntity
  8
Decoupe_2
 62
6
100
AcDbPolyline
 90
2
 70
0
 10
363.149840
 20
207.585824
 30
0.0
 10
366.149840
 20
207.585824
 30
0.0
  0
LWPOLYLINE
  5
181
100
AcDbEntity
  8
Decoupe_2
 62
6
100
AcDbPolyline
 90
2
 70
0
 10
363.149840
 20
207.585824
 30
0.0
 10
363.149840
 20
204.585824
 30
0.0
  0
LWPOLYLINE
  5
182
100
AcDbEntity
  8
Decoupe_2
 62
6
100
AcDbPolyline
 90
2
 70
0
 10
368.530740
 20
198.856824
 30
0.0
 10
363.149840
 20
204.585824
 30
0.0
  0
LWPOLYLINE
  5
183
100
AcDbEntity
  8
Decoupe_2
 62
6
100
AcDbPolyline
 90
2
 70
0
 10
363.149840
 20
197.494024
 30
0.0
 10
368.530740
 20
198.856824
 30
0.0
  0
LWPOLYLINE
  5
184
100
AcDbEntity
  8
Decoupe_2
 62
6
100
AcDbPolyline
 90
9
 70
0
 10
363.149840
 20
197.494024
 30
0.0
 10
363.149840
 20
194.585824
 30
0.0
 10
363.886440
 20
194.585824
 30
0.0
 10
378.094660
 20
198.184524
 30
0.0
 10
378.831240
 20
195.276324
 30
0.0
 10
383.678180
 20
196.503924
 30
0.0
 10
382.941600
 20
199.412124
 30
0.0
 10
397.149840
 20
203.010724
 30
0.0
 10
397.149840
 20
204.585824
 30
0.0
  0
LWPOLYLINE
  5
185
100
AcDbEntity
  8
Decoupe_2
 62
6
100
AcDbPolyline
 90
2
 70
0
 10
394.149840
 20
204.585824
 30
0.0
 10
397.149840
 20
204.585824
 30
0.0
  0
LWPOLYLINE
  5
186
100
AcDbEntity
  8
Decoupe_2
 62
6
100
AcDbPolyline
 90
2
 70
0
 10
394.149840
 20
204.585824
 30
0.0
 10
394.149840
 20
207.585824
 30
0.0
  0
LWPOLYLINE
  5
187
100
AcDbEntity
  8
Decoupe_2
 62
6
100
AcDbPolyline
 90
2
 70
0
 10
391.149840
 20
207.585824
 30
0.0
 10
394.149840
 20
207.585824
 30
0.0
  0
LWPOLYLINE
  5
188
100
AcDbEntity
  8
Decoupe_2
 62
6
100
AcDbPolyline
 90
2
 70
0
 10
202.051430
 20
189.985604
 30
0.0
 10
202.051430
 20
200.985604
 30
0.0
  0
LWPOLYLINE
  5
189
100
AcDbEntity
  8
Decoupe_2
 62
6
100
AcDbPolyline
 90
2
 70
0
 10
203.551430
 20
200.985604
 30
0.0
 10
202.051430
 20
200.985604
 30
0.0
  0
LWPOLYLINE
  5
18a
100
AcDbEntity
  8
Decoupe_2
 62
6
100
AcDbPolyline
 90
2
 70
0
 10
203.551430
 20
203.985604
 30
0.0
 10
203.551430
 20
200.985604
 30
0.0
  0
LWPOLYLINE
  5
18b
100
AcDbEntity
  8
Decoupe_2
 62
6
100
AcDbPolyline
 90
2
 70
0
 10
202.051430
 20
203.985604
 30
0.0
 10
203.551430
 20
203.985604
 30
0.0
  0
LWPOLYLINE
  5
18c
100
AcDbEntity
  8
Decoupe_2
 62
6
100
AcDbPolyline
 90
2
 70
0
 10
202.051430
 20
203.985604
 30
0.0
 10
202.051430
 20
237.485604
 30
0.0
  0
LWPOLYLINE
  5
18d
100
AcDbEntity
  8
Decoupe_2
 62
6
100
AcDbPolyline
 90
2
 70
0
 10
203.551430
 20
237.485604
 30
0.0
 10
202.051430
 20
237.485604
 30
0.0
  0
LWPOLYLINE
  5
18e
100
AcDbEntity
  8
Decoupe_2
 62
6
100
AcDbPolyline
 90
2
 70
0
 10
203.551430
 20
240.485604
 30
0.0
 10
203.551430
 20
237.485604
 30
0.0
  0
LWPOLYLINE
  5
18f
100
AcDbEntity
  8
Decoupe_2
 62
6
100
AcDbPolyline
 90
2
 70
0
 10
202.051430
 20
240.485604
 30
0.0
 10
203.551430
 20
240.485604
 30
0.0
  0
LWPOLYLINE
  5
190
100
AcDbEntity
  8
Decoupe_2
 62
6
100
AcDbPolyline
 90
2
 70
0
 10
202.051430
 20
240.485604
 30
0.0
 10
202.051430
 20
273.985604
 30
0.0
  0
LWPOLYLINE
  5
191
100
AcDbEntity
  8
Decoupe_2
 62
6
100
AcDbPolyline
 90
2
 70
0
 10
203.551430
 20
273.985604
 30
0.0
 10
202.051430
 20
273.985604
 30
0.0
  0
LWPOLYLINE
  5
192
100
AcDbEntity
  8
Decoupe_2
 62
6
100
AcDbPolyline
 90
2
 70
0
 10
203.551430
 20
276.985604
 30
0.0
 10
203.551430
 20
273.985604
 30
0.0
  0
LWPOLYLINE
  5
193
100
AcDbEntity
  8
Decoupe_2
 62
6
100
AcDbPolyline
 90
2
 70
0
 10
202.051430
 20
276.985604
 30
0.0
 10
203.551430
 20
276.985604
 30
0.0
  0
LWPOLYLINE
  5
194
100
AcDbEntity
  8
Decoupe_2
 62
6
100
AcDbPolyline
 90
2
 70
0
 10
202.051430
 20
276.985604
 30
0.0
 10
202.051430
 20
286.985604
 30
0.0
  0
LWPOLYLINE
  5
195
100
AcDbEntity
  8
Decoupe_2
 62
6
100
AcDbPolyline
 90
2
 70
0
 10
203.551430
 20
286.985604
 30
0.0
 10
202.051430
 20
286.985604
 30
0.0
  0
LWPOLYLINE
  5
196
100
AcDbEntity
  8
Decoupe_2
 62
6
100
AcDbPolyline
 90
2
 70
0
 10
203.551430
 20
289.985604
 30
0.0
 10
203.551430
 20
286.985604
 30
0.0
  0
LWPOLYLINE
  5
197
100
AcDbEntity
  8
Decoupe_2
 62
6
100
AcDbPolyline
 90
4
 70
0
 10
203.551430
 20
289.985604
 30
0.0
 10
205.051430
 20
289.985604
 30
0.0
 10
205.051430
 20
189.985604
 30
0.0
 10
202.051430
 20
189.985604
 30
0.0
  0
LWPOLYLINE
  5
198
100
AcDbEntity
  8
Decoupe_2
 62
5
100
AcDbPolyline
 90
4
 70
1
 10
227.641180
 20
196.224640
 30
0.0
 10
230.641180
 20
196.224640
 30
0.0
 10
230.641180
 20
191.224640
 30
0.0
 10
227.641180
 20
191.224640
 30
0.0
  0
SPLINE
  5
199
100
AcDbEntity
  8
Decoupe_2
 62
6
100
AcDbSpline
 70
8
 71
3
 72
8
 73
4
 74
0
 40
0
 40
0
 40
0
 40
0
 40
1
 40
1
 40
1
 40
1
 10
206.641580
 20
189.224640
 30
0.0
 10
206.641580
 20
178.179101
 30
0.0
 10
215.595641
 20
169.224861
 30
0.0
 10
226.641180
 20
169.224640
 30
0.0
  0
LWPOLYLINE
  5
19a
100
AcDbEntity
  8
Decoupe_2
 62
5
100
AcDbPolyline
 90
4
 70
1
 10
332.641180
 20
196.224640
 30
0.0
 10
335.641180
 20
196.224640
 30
0.0
 10
335.641180
 20
191.224640
 30
0.0
 10
332.641180
 20
191.224640
 30
0.0
  0
SPLINE
  5
19b
100
AcDbEntity
  8
Decoupe_2
 62
6
100
AcDbSpline
 70
8
 71
3
 72
8
 73
4
 74
0
 40
0
 40
0
 40
0
 40
0
 40
1
 40
1
 40
1
 40
1
 10
356.641180
 20
189.224640
 30
0.0
 10
356.641180
 20
183.920310
 30
0.0
 10
354.534043
 20
178.833232
 30
0.0
 10
350.783316
 20
175.082504
 30
0.0
  0
SPLINE
  5
19c
100
AcDbEntity
  8
Decoupe_2
 62
6
100
AcDbSpline
 70
8
 71
3
 72
8
 73
4
 74
0
 40
0
 40
0
 40
0
 40
0
 40
1
 40
1
 40
1
 40
1
 10
350.783316
 20
175.082504
 30
0.0
 10
347.032588
 20
171.331777
 30
0.0
 10
341.945510
 20
169.224640
 30
0.0
 10
336.641180
 20
169.224640
 30
0.0
  0
LWPOLYLINE
  5
19d
100
AcDbEntity
  8
Decoupe_2
 62
6
100
AcDbPolyline
 90
2
 70
0
 10
336.641180
 20
169.224640
 30
0.0
 10
226.641180
 20
169.224640
 30
0.0
  0
SPLINE
  5
19e
100
AcDbEntity
  8
Decoupe_2
 62
6
100
AcDbSpline
 70
8
 71
3
 72
8
 73
4
 74
0
 40
0
 40
0
 40
0
 40
0
 40
1
 40
1
 40
1
 40
1
 10
336.641180
 20
229.224640
 30
0.0
 10
347.686863
 20
229.224640
 30
0.0
 10
356.641163
 20
220.270353
 30
0.0
 10
356.641180
 20
209.224670
 30
0.0
  0
LWPOLYLINE
  5
19f
100
AcDbEntity
  8
Decoupe_2
 62
6
100
AcDbPolyline
 90
2
 70
0
 10
356.641180
 20
209.224670
 30
0.0
 10
356.641180
 20
189.224640
 30
0.0
  0
LWPOLYLINE
  5
1a0
100
AcDbEntity
  8
Decoupe_2
 62
6
100
AcDbPolyline
 90
2
 70
0
 10
310.641180
 20
229.224640
 30
0.0
 10
336.641180
 20
229.224640
 30
0.0
  0
LWPOLYLINE
  5
1a1
100
AcDbEntity
  8
Decoupe_2
 62
6
100
AcDbPolyline
 90
2
 70
0
 10
310.641180
 20
227.724640
 30
0.0
 10
310.641180
 20
229.224640
 30
0.0
  0
LWPOLYLINE
  5
1a2
100
AcDbEntity
  8
Decoupe_2
 62
6
100
AcDbPolyline
 90
2
 70
0
 10
307.641180
 20
227.724640
 30
0.0
 10
310.641180
 20
227.724640
 30
0.0
  0
LWPOLYLINE
  5
1a3
100
AcDbEntity
  8
Decoupe_2
 62
6
100
AcDbPolyline
 90
2
 70
0
 10
307.641180
 20
229.224640
 30
0.0
 10
307.641180
 20
227.724640
 30
0.0
  0
LWPOLYLINE
  5
1a4
100
AcDbEntity
  8
Decoupe_2
 62
6
100
AcDbPolyline
 90
2
 70
0
 10
239.641180
 20
229.224640
 30
0.0
 10
307.641180
 20
229.224640
 30
0.0
  0
LWPOLYLINE
  5
1a5
100
AcDbEntity
  8
Decoupe_2
 62
6
100
AcDbPolyline
 90
2
 70
0
 10
239.641180
 20
227.724640
 30
0.0
 10
239.641180
 20
229.224640
 30
0.0
  0
LWPOLYLINE
  5
1a6
100
AcDbEntity
  8
Decoupe_2
 62
6
100
AcDbPolyline
 90
2
 70
0
 10
236.641180
 20
227.724640
 30
0.0
 10
239.641180
 20
227.724640
 30
0.0
  0
LWPOLYLINE
  5
1a7
100
AcDbEntity
  8
Decoupe_2
 62
6
100
AcDbPolyline
 90
2
 70
0
 10
236.641180
 20
229.224640
 30
0.0
 10
236.641180
 20
227.724640
 30
0.0
  0
SPLINE
  5
1a8
100
AcDbEntity
  8
Decoupe_2
 62
6
100
AcDbSpline
 70
8
 71
3
 72
8
 73
4
 74
0
 40
0
 40
0
 40
0
 40
0
 40
1
 40
1
 40
1
 40
1
 10
226.641180
 20
229.224640
 30
0.0
 10
215.595653
 20
229.224419
 30
0.0
 10
206.641597
 20
220.270197
 30
0.0
 10
206.641580
 20
209.224670
 30
0.0
  0
LWPOLYLINE
  5
1a9
100
AcDbEntity
  8
Decoupe_2
 62
6
100
AcDbPolyline
 90
2
 70
0
 10
226.641180
 20
229.224640
 30
0.0
 10
236.641180
 20
229.224640
 30
0.0
  0
SPLINE
  5
1aa
100
AcDbEntity
  8
Decoupe_2
 62
6
100
AcDbSpline
 70
8
 71
3
 72
8
 73
4
 74
0
 40
0
 40
0
 40
0
 40
0
 40
1
 40
1
 40
1
 40
1
 10
396.675670
 20
210.799093
 30
0.0
 10
396.410454
 20
210.799093
 30
0.0
 10
396.156100
 20
210.904450
 30
0.0
 10
395.968563
 20
211.091986
 30
0.0
  0
SPLINE
  5
1ab
100
AcDbEntity
  8
Decoupe_2
 62
6
100
AcDbSpline
 70
8
 71
3
 72
8
 73
4
 74
0
 40
0
 40
0
 40
0
 40
0
 40
1
 40
1
 40
1
 40
1
 10
395.968563
 20
211.091986
 30
0.0
 10
395.781027
 20
211.279523
 30
0.0
 10
395.675670
 20
211.533877
 30
0.0
 10
395.675670
 20
211.799093
 30
0.0
  0
LWPOLYLINE
  5
1ac
100
AcDbEntity
  8
Decoupe_2
 62
6
100
AcDbPolyline
 90
2
 70
0
 10
206.641580
 20
189.224640
 30
0.0
 10
206.641580
 20
209.224670
 30
0.0
  0
LWPOLYLINE
  5
1ad
100
AcDbEntity
  8
Decoupe_2
 62
6
100
AcDbPolyline
 90
2
 70
0
 10
395.675670
 20
212.799093
 30
0.0
 10
395.675670
 20
211.799093
 30
0.0
  0
LWPOLYLINE
  5
1ae
100
AcDbEntity
  8
Decoupe_2
 62
6
100
AcDbPolyline
 90
4
 70
0
 10
395.675670
 20
212.799093
 30
0.0
 10
397.175670
 20
212.799093
 30
0.0
 10
397.175670
 20
215.799093
 30
0.0
 10
395.675670
 20
215.799093
 30
0.0
  0
LWPOLYLINE
  5
1af
100
AcDbEntity
  8
Decoupe_2
 62
6
100
AcDbPolyline
 90
2
 70
0
 10
395.675670
 20
249.299093
 30
0.0
 10
395.675670
 20
215.799093
 30
0.0
  0
LWPOLYLINE
  5
1b0
100
AcDbEntity
  8
Decoupe_2
 62
6
100
AcDbPolyline
 90
4
 70
0
 10
395.675670
 20
249.299093
 30
0.0
 10
397.175670
 20
249.299093
 30
0.0
 10
397.175670
 20
252.299093
 30
0.0
 10
395.675670
 20
252.299093
 30
0.0
  0
LWPOLYLINE
  5
1b1
100
AcDbEntity
  8
Decoupe_2
 62
6
100
AcDbPolyline
 90
2
 70
0
 10
395.675670
 20
285.799093
 30
0.0
 10
395.675670
 20
252.299093
 30
0.0
  0
LWPOLYLINE
  5
1b2
100
AcDbEntity
  8
Decoupe_2
 62
6
100
AcDbPolyline
 90
4
 70
0
 10
395.675670
 20
285.799093
 30
0.0
 10
397.175670
 20
285.799093
 30
0.0
 10
397.175670
 20
288.799092
 30
0.0
 10
395.675670
 20
288.799092
 30
0.0
  0
SPLINE
  5
1b3
100
AcDbEntity
  8
Decoupe_2
 62
6
100
AcDbSpline
 70
8
 71
3
 72
8
 73
4
 74
0
 40
0
 40
0
 40
0
 40
0
 40
1
 40
1
 40
1
 40
1
 10
396.675670
 20
290.799091
 30
0.0
 10
396.123385
 20
290.799091
 30
0.0
 10
395.675670
 20
290.351376
 30
0.0
 10
395.675670
 20
289.799091
 30
0.0
  0
LWPOLYLINE
  5
1b4
100
AcDbEntity
  8
Decoupe_2
 62
6
100
AcDbPolyline
 90
2
 70
0
 10
395.675670
 20
289.799091
 30
0.0
 10
395.675670
 20
288.799092
 30
0.0
  0
SPLINE
  5
1b5
100
AcDbEntity
  8
Decoupe_2
 62
6
100
AcDbSpline
 70
8
 71
3
 72
8
 73
4
 74
0
 40
0
 40
0
 40
0
 40
0
 40
1
 40
1
 40
1
 40
1
 10
407.675670
 20
289.799091
 30
0.0
 10
407.675670
 20
290.351376
 30
0.0
 10
407.227955
 20
290.799091
 30
0.0
 10
406.675670
 20
290.799091
 30
0.0
  0
LWPOLYLINE
  5
1b6
100
AcDbEntity
  8
Decoupe_2
 62
6
100
AcDbPolyline
 90
2
 70
0
 10
406.675670
 20
290.799091
 30
0.0
 10
396.675670
 20
290.799091
 30
0.0
  0
SPLINE
  5
1b7
100
AcDbEntity
  8
Decoupe_2
 62
6
100
AcDbSpline
 70
8
 71
3
 72
8
 73
4
 74
0
 40
0
 40
0
 40
0
 40
0
 40
1
 40
1
 40
1
 40
1
 10
407.675670
 20
211.799093
 30
0.0
 10
407.675670
 20
211.533877
 30
0.0
 10
407.570313
 20
211.279523
 30
0.0
 10
407.382777
 20
211.091986
 30
0.0
  0
SPLINE
  5
1b8
100
AcDbEntity
  8
Decoupe_2
 62
6
100
AcDbSpline
 70
8
 71
3
 72
8
 73
4
 74
0
 40
0
 40
0
 40
0
 40
0
 40
1
 40
1
 40
1
 40
1
 10
407.382777
 20
211.091986
 30
0.0
 10
407.195240
 20
210.904450
 30
0.0
 10
406.940886
 20
210.799093
 30
0.0
 10
406.675670
 20
210.799093
 30
0.0
  0
LWPOLYLINE
  5
1b9
100
AcDbEntity
  8
Decoupe_2
 62
6
100
AcDbPolyline
 90
2
 70
0
 10
407.675670
 20
211.799093
 30
0.0
 10
407.675670
 20
289.799091
 30
0.0
  0
LWPOLYLINE
  5
1ba
100
AcDbEntity
  8
Decoupe_2
 62
6
100
AcDbPolyline
 90
2
 70
0
 10
396.675670
 20
210.799093
 30
0.0
 10
406.675670
 20
210.799093
 30
0.0
  0
SPLINE
  5
1bb
100
AcDbEntity
  8
Decoupe_2
 62
5
100
AcDbSpline
 70
8
 71
3
 72
8
 73
4
 74
0
 40
0
 40
0
 40
0
 40
0
 40
1
 40
1
 40
1
 40
1
 10
375.581120
 20
268.979757
 30
0.0
 10
375.402487
 20
268.979757
 30
0.0
 10
375.237424
 20
268.884458
 30
0.0
 10
375.148107
 20
268.729757
 30
0.0
  0
SPLINE
  5
1bc
100
AcDbEntity
  8
Decoupe_2
 62
5
100
AcDbSpline
 70
8
 71
3
 72
8
 73
4
 74
0
 40
0
 40
0
 40
0
 40
0
 40
1
 40
1
 40
1
 40
1
 10
375.148107
 20
268.729757
 30
0.0
 10
375.058791
 20
268.575056
 30
0.0
 10
375.058791
 20
268.384458
 30
0.0
 10
375.148107
 20
268.229757
 30
0.0
  0
SPLINE
  5
1bd
100
AcDbEntity
  8
Decoupe_2
 62
5
100
AcDbSpline
 70
8
 71
3
 72
8
 73
4
 74
0
 40
0
 40
0
 40
0
 40
0
 40
1
 40
1
 40
1
 40
1
 10
375.148107
 20
268.229757
 30
0.0
 10
375.237424
 20
268.075056
 30
0.0
 10
375.402487
 20
267.979757
 30
0.0
 10
375.581120
 20
267.979757
 30
0.0
  0
LWPOLYLINE
  5
1be
100
AcDbEntity
  8
Decoupe_2
 62
5
100
AcDbPolyline
 90
2
 70
0
 10
375.581120
 20
267.979757
 30
0.0
 10
379.581120
 20
267.979757
 30
0.0
  0
SPLINE
  5
1bf
100
AcDbEntity
  8
Decoupe_2
 62
5
100
AcDbSpline
 70
8
 71
3
 72
8
 73
4
 74
0
 40
0
 40
0
 40
0
 40
0
 40
1
 40
1
 40
1
 40
1
 10
379.581120
 20
267.979757
 30
0.0
 10
379.759753
 20
267.979757
 30
0.0
 10
379.924816
 20
268.075056
 30
0.0
 10
380.014133
 20
268.229757
 30
0.0
  0
SPLINE
  5
1c0
100
AcDbEntity
  8
Decoupe_2
 62
5
100
AcDbSpline
 70
8
 71
3
 72
8
 73
4
 74
0
 40
0
 40
0
 40
0
 40
0
 40
1
 40
1
 40
1
 40
1
 10
380.014133
 20
268.229757
 30
0.0
 10
380.103449
 20
268.384458
 30
0.0
 10
380.103449
 20
268.575056
 30
0.0
 10
380.014133
 20
268.729757
 30
0.0
  0
SPLINE
  5
1c1
100
AcDbEntity
  8
Decoupe_2
 62
5
100
AcDbSpline
 70
8
 71
3
 72
8
 73
4
 74
0
 40
0
 40
0
 40
0
 40
0
 40
1
 40
1
 40
1
 40
1
 10
380.014133
 20
268.729757
 30
0.0
 10
379.924816
 20
268.884458
 30
0.0
 10
379.759753
 20
268.979757
 30
0.0
 10
379.581120
 20
268.979757
 30
0.0
  0
LWPOLYLINE
  5
1c2
100
AcDbEntity
  8
Decoupe_2
 62
5
100
AcDbPolyline
 90
2
 70
0
 10
375.581120
 20
268.979757
 30
0.0
 10
379.581120
 20
268.979757
 30
0.0
  0
SPLINE
  5
1c3
100
AcDbEntity
  8
Decoupe_2
 62
5
100
AcDbSpline
 70
8
 71
3
 72
8
 73
4
 74
0
 40
0
 40
0
 40
0
 40
0
 40
1
 40
1
 40
1
 40
1
 10
375.581170
 20
257.972551
 30
0.0
 10
375.759803
 20
257.972551
 30
0.0
 10
375.924866
 20
257.877252
 30
0.0
 10
376.014183
 20
257.722551
 30
0.0
  0
SPLINE
  5
1c4
100
AcDbEntity
  8
Decoupe_2
 62
5
100
AcDbSpline
 70
8
 71
3
 72
8
 73
4
 74
0
 40
0
 40
0
 40
0
 40
0
 40
1
 40
1
 40
1
 40
1
 10
376.014183
 20
257.722551
 30
0.0
 10
376.103499
 20
257.567850
 30
0.0
 10
376.103499
 20
257.377252
 30
0.0
 10
376.014183
 20
257.222551
 30
0.0
  0
SPLINE
  5
1c5
100
AcDbEntity
  8
Decoupe_2
 62
5
100
AcDbSpline
 70
8
 71
3
 72
8
 73
4
 74
0
 40
0
 40
0
 40
0
 40
0
 40
1
 40
1
 40
1
 40
1
 10
376.014183
 20
257.222551
 30
0.0
 10
375.924866
 20
257.067850
 30
0.0
 10
375.759803
 20
256.972551
 30
0.0
 10
375.581170
 20
256.972551
 30
0.0
  0
LWPOLYLINE
  5
1c6
100
AcDbEntity
  8
Decoupe_2
 62
5
100
AcDbPolyline
 90
2
 70
0
 10
375.581170
 20
256.972551
 30
0.0
 10
371.581170
 20
256.972551
 30
0.0
  0
SPLINE
  5
1c7
100
AcDbEntity
  8
Decoupe_2
 62
5
100
AcDbSpline
 70
8
 71
3
 72
8
 73
4
 74
0
 40
0
 40
0
 40
0
 40
0
 40
1
 40
1
 40
1
 40
1
 10
371.581170
 20
256.972551
 30
0.0
 10
371.402537
 20
256.972551
 30
0.0
 10
371.237474
 20
257.067850
 30
0.0
 10
371.148157
 20
257.222551
 30
0.0
  0
SPLINE
  5
1c8
100
AcDbEntity
  8
Decoupe_2
 62
5
100
AcDbSpline
 70
8
 71
3
 72
8
 73
4
 74
0
 40
0
 40
0
 40
0
 40
0
 40
1
 40
1
 40
1
 40
1
 10
371.148157
 20
257.222551
 30
0.0
 10
371.058841
 20
257.377252
 30
0.0
 10
371.058841
 20
257.567850
 30
0.0
 10
371.148157
 20
257.722551
 30
0.0
  0
SPLINE
  5
1c9
100
AcDbEntity
  8
Decoupe_2
 62
5
100
AcDbSpline
 70
8
 71
3
 72
8
 73
4
 74
0
 40
0
 40
0
 40
0
 40
0
 40
1
 40
1
 40
1
 40
1
 10
371.148157
 20
257.722551
 30
0.0
 10
371.237474
 20
257.877252
 30
0.0
 10
371.402537
 20
257.972551
 30
0.0
 10
371.581170
 20
257.972551
 30
0.0
  0
LWPOLYLINE
  5
1ca
100
AcDbEntity
  8
Decoupe_2
 62
5
100
AcDbPolyline
 90
2
 70
0
 10
375.581170
 20
257.972551
 30
0.0
 10
371.581170
 20
257.972551
 30
0.0
  0
SPLINE
  5
1cb
100
AcDbEntity
  8
Decoupe_2
 62
5
100
AcDbSpline
 70
8
 71
3
 72
8
 73
4
 74
0
 40
0
 40
0
 40
0
 40
0
 40
1
 40
1
 40
1
 40
1
 10
375.581120
 20
246.217941
 30
0.0
 10
375.402487
 20
246.217941
 30
0.0
 10
375.237424
 20
246.122642
 30
0.0
 10
375.148107
 20
245.967941
 30
0.0
  0
SPLINE
  5
1cc
100
AcDbEntity
  8
Decoupe_2
 62
5
100
AcDbSpline
 70
8
 71
3
 72
8
 73
4
 74
0
 40
0
 40
0
 40
0
 40
0
 40
1
 40
1
 40
1
 40
1
 10
375.148107
 20
245.967941
 30
0.0
 10
375.058791
 20
245.813240
 30
0.0
 10
375.058791
 20
245.622642
 30
0.0
 10
375.148107
 20
245.467941
 30
0.0
  0
SPLINE
  5
1cd
100
AcDbEntity
  8
Decoupe_2
 62
5
100
AcDbSpline
 70
8
 71
3
 72
8
 73
4
 74
0
 40
0
 40
0
 40
0
 40
0
 40
1
 40
1
 40
1
 40
1
 10
375.148107
 20
245.467941
 30
0.0
 10
375.237424
 20
245.313240
 30
0.0
 10
375.402487
 20
245.217941
 30
0.0
 10
375.581120
 20
245.217941
 30
0.0
  0
LWPOLYLINE
  5
1ce
100
AcDbEntity
  8
Decoupe_2
 62
5
100
AcDbPolyline
 90
2
 70
0
 10
375.581120
 20
245.217941
 30
0.0
 10
379.581120
 20
245.217941
 30
0.0
  0
SPLINE
  5
1cf
100
AcDbEntity
  8
Decoupe_2
 62
5
100
AcDbSpline
 70
8
 71
3
 72
8
 73
4
 74
0
 40
0
 40
0
 40
0
 40
0
 40
1
 40
1
 40
1
 40
1
 10
379.581120
 20
245.217941
 30
0.0
 10
379.759753
 20
245.217941
 30
0.0
 10
379.924816
 20
245.313240
 30
0.0
 10
380.014133
 20
245.467941
 30
0.0
  0
SPLINE
  5
1d0
100
AcDbEntity
  8
Decoupe_2
 62
5
100
AcDbSpline
 70
8
 71
3
 72
8
 73
4
 74
0
 40
0
 40
0
 40
0
 40
0
 40
1
 40
1
 40
1
 40
1
 10
380.014133
 20
245.467941
 30
0.0
 10
380.103449
 20
245.622642
 30
0.0
 10
380.103449
 20
245.813240
 30
0.0
 10
380.014133
 20
245.967941
 30
0.0
  0
SPLINE
  5
1d1
100
AcDbEntity
  8
Decoupe_2
 62
5
100
AcDbSpline
 70
8
 71
3
 72
8
 73
4
 74
0
 40
0
 40
0
 40
0
 40
0
 40
1
 40
1
 40
1
 40
1
 10
380.014133
 20
245.967941
 30
0.0
 10
379.924816
 20
246.122642
 30
0.0
 10
379.759753
 20
246.217941
 30
0.0
 10
379.581120
 20
246.217941
 30
0.0
  0
LWPOLYLINE
  5
1d2
100
AcDbEntity
  8
Decoupe_2
 62
5
100
AcDbPolyline
 90
2
 70
0
 10
375.581120
 20
246.217941
 30
0.0
 10
379.581120
 20
246.217941
 30
0.0
  0
LWPOLYLINE
  5
1d3
100
AcDbEntity
  8
Decoupe_2
 62
6
100
AcDbPolyline
 90
3
 70
0
 10
369.168620
 20
272.479717
 30
0.0
 10
370.168620
 20
273.479717
 30
0.0
 10
375.668620
 20
273.479717
 30
0.0
  0
SPLINE
  5
1d4
100
AcDbEntity
  8
Decoupe_2
 62
6
100
AcDbSpline
 70
8
 71
3
 72
8
 73
4
 74
0
 40
0
 40
0
 40
0
 40
0
 40
1
 40
1
 40
1
 40
1
 10
376.668620
 20
272.479717
 30
0.0
 10
376.668620
 20
272.744933
 30
0.0
 10
376.563263
 20
272.999287
 30
0.0
 10
376.375727
 20
273.186824
 30
0.0
  0
SPLINE
  5
1d5
100
AcDbEntity
  8
Decoupe_2
 62
6
100
AcDbSpline
 70
8
 71
3
 72
8
 73
4
 74
0
 40
0
 40
0
 40
0
 40
0
 40
1
 40
1
 40
1
 40
1
 10
376.375727
 20
273.186824
 30
0.0
 10
376.188190
 20
273.374360
 30
0.0
 10
375.933836
 20
273.479717
 30
0.0
 10
375.668620
 20
273.479717
 30
0.0
  0
SPLINE
  5
1d6
100
AcDbEntity
  8
Decoupe_2
 62
6
100
AcDbSpline
 70
8
 71
3
 72
8
 73
4
 74
0
 40
0
 40
0
 40
0
 40
0
 40
1
 40
1
 40
1
 40
1
 10
369.168620
 20
264.979757
 30
0.0
 10
369.168620
 20
264.581932
 30
0.0
 10
369.326655
 20
264.200401
 30
0.0
 10
369.607960
 20
263.919097
 30
0.0
  0
SPLINE
  5
1d7
100
AcDbEntity
  8
Decoupe_2
 62
6
100
AcDbSpline
 70
8
 71
3
 72
8
 73
4
 74
0
 40
0
 40
0
 40
0
 40
0
 40
1
 40
1
 40
1
 40
1
 10
369.607960
 20
263.919097
 30
0.0
 10
369.889264
 20
263.637792
 30
0.0
 10
370.270795
 20
263.479757
 30
0.0
 10
370.668620
 20
263.479757
 30
0.0
  0
LWPOLYLINE
  5
1d8
100
AcDbEntity
  8
Decoupe_2
 62
6
100
AcDbPolyline
 90
2
 70
0
 10
369.168620
 20
264.979757
 30
0.0
 10
369.168620
 20
272.479717
 30
0.0
  0
LWPOLYLINE
  5
1d9
100
AcDbEntity
  8
Decoupe_2
 62
6
100
AcDbPolyline
 90
2
 70
0
 10
376.668620
 20
271.979717
 30
0.0
 10
376.668620
 20
272.479717
 30
0.0
  0
SPLINE
  5
1da
100
AcDbEntity
  8
Decoupe_2
 62
6
100
AcDbSpline
 70
8
 71
3
 72
8
 73
4
 74
0
 40
0
 40
0
 40
0
 40
0
 40
1
 40
1
 40
1
 40
1
 10
376.668620
 20
271.979717
 30
0.0
 10
376.668620
 20
271.714501
 30
0.0
 10
376.773977
 20
271.460147
 30
0.0
 10
376.961513
 20
271.272610
 30
0.0
  0
SPLINE
  5
1db
100
AcDbEntity
  8
Decoupe_2
 62
6
100
AcDbSpline
 70
8
 71
3
 72
8
 73
4
 74
0
 40
0
 40
0
 40
0
 40
0
 40
1
 40
1
 40
1
 40
1
 10
376.961513
 20
271.272610
 30
0.0
 10
377.149050
 20
271.085074
 30
0.0
 10
377.403404
 20
270.979717
 30
0.0
 10
377.668620
 20
270.979717
 30
0.0
  0
LWPOLYLINE
  5
1dc
100
AcDbEntity
  8
Decoupe_2
 62
6
100
AcDbPolyline
 90
3
 70
0
 10
370.668620
 20
263.479757
 30
0.0
 10
371.168620
 20
263.479757
 30
0.0
 10
371.168620
 20
271.479717
 30
0.0
  0
LWPOLYLINE
  5
1dd
100
AcDbEntity
  8
Decoupe_2
 62
6
100
AcDbPolyline
 90
2
 70
0
 10
385.168630
 20
270.979717
 30
0.0
 10
377.668620
 20
270.979717
 30
0.0
  0
LWPOLYLINE
  5
1de
100
AcDbEntity
  8
Decoupe_2
 62
6
100
AcDbPolyline
 90
2
 70
0
 10
371.168620
 20
271.479717
 30
0.0
 10
374.168620
 20
271.479717
 30
0.0
  0
LWPOLYLINE
  5
1df
100
AcDbEntity
  8
Decoupe_2
 62
6
100
AcDbPolyline
 90
2
 70
0
 10
385.168630
 20
270.979717
 30
0.0
 10
385.168630
 20
265.979757
 30
0.0
  0
LWPOLYLINE
  5
1e0
100
AcDbEntity
  8
Decoupe_2
 62
6
100
AcDbPolyline
 90
2
 70
0
 10
374.168620
 20
271.479717
 30
0.0
 10
374.168620
 20
263.479757
 30
0.0
  0
LWPOLYLINE
  5
1e1
100
AcDbEntity
  8
Decoupe_2
 62
6
100
AcDbPolyline
 90
2
 70
0
 10
378.168620
 20
265.979757
 30
0.0
 10
385.168630
 20
265.979757
 30
0.0
  0
SPLINE
  5
1e2
100
AcDbEntity
  8
Decoupe_2
 62
6
100
AcDbSpline
 70
8
 71
3
 72
8
 73
4
 74
0
 40
0
 40
0
 40
0
 40
0
 40
1
 40
1
 40
1
 40
1
 10
378.168620
 20
265.979757
 30
0.0
 10
377.770795
 20
265.979757
 30
0.0
 10
377.389264
 20
265.821722
 30
0.0
 10
377.107960
 20
265.540417
 30
0.0
  0
SPLINE
  5
1e3
100
AcDbEntity
  8
Decoupe_2
 62
6
100
AcDbSpline
 70
8
 71
3
 72
8
 73
4
 74
0
 40
0
 40
0
 40
0
 40
0
 40
1
 40
1
 40
1
 40
1
 10
377.107960
 20
265.540417
 30
0.0
 10
376.826655
 20
265.259113
 30
0.0
 10
376.668620
 20
264.877582
 30
0.0
 10
376.668620
 20
264.479757
 30
0.0
  0
LWPOLYLINE
  5
1e4
100
AcDbEntity
  8
Decoupe_2
 62
6
100
AcDbPolyline
 90
2
 70
0
 10
374.168620
 20
263.479757
 30
0.0
 10
375.818620
 20
263.479757
 30
0.0
  0
LWPOLYLINE
  5
1e5
100
AcDbEntity
  8
Decoupe_2
 62
6
100
AcDbPolyline
 90
2
 70
0
 10
376.668620
 20
264.329757
 30
0.0
 10
375.818620
 20
263.479757
 30
0.0
  0
LWPOLYLINE
  5
1e6
100
AcDbEntity
  8
Decoupe_2
 62
6
100
AcDbPolyline
 90
2
 70
0
 10
376.668620
 20
264.329757
 30
0.0
 10
376.668620
 20
264.479757
 30
0.0
  0
LWPOLYLINE
  5
1e7
100
AcDbEntity
  8
Decoupe_2
 62
6
100
AcDbPolyline
 90
3
 70
0
 10
385.168670
 20
261.472511
 30
0.0
 10
384.168670
 20
262.472511
 30
0.0
 10
378.668670
 20
262.472511
 30
0.0
  0
SPLINE
  5
1e8
100
AcDbEntity
  8
Decoupe_2
 62
6
100
AcDbSpline
 70
8
 71
3
 72
8
 73
4
 74
0
 40
0
 40
0
 40
0
 40
0
 40
1
 40
1
 40
1
 40
1
 10
377.668670
 20
261.472511
 30
0.0
 10
377.668670
 20
261.737727
 30
0.0
 10
377.774027
 20
261.992081
 30
0.0
 10
377.961563
 20
262.179618
 30
0.0
  0
SPLINE
  5
1e9
100
AcDbEntity
  8
Decoupe_2
 62
6
100
AcDbSpline
 70
8
 71
3
 72
8
 73
4
 74
0
 40
0
 40
0
 40
0
 40
0
 40
1
 40
1
 40
1
 40
1
 10
377.961563
 20
262.179618
 30
0.0
 10
378.149100
 20
262.367154
 30
0.0
 10
378.403454
 20
262.472511
 30
0.0
 10
378.668670
 20
262.472511
 30
0.0
  0
SPLINE
  5
1ea
100
AcDbEntity
  8
Decoupe_2
 62
6
100
AcDbSpline
 70
8
 71
3
 72
8
 73
4
 74
0
 40
0
 40
0
 40
0
 40
0
 40
1
 40
1
 40
1
 40
1
 10
385.168670
 20
253.972551
 30
0.0
 10
385.168670
 20
253.574726
 30
0.0
 10
385.010635
 20
253.193195
 30
0.0
 10
384.729330
 20
252.911891
 30
0.0
  0
SPLINE
  5
1eb
100
AcDbEntity
  8
Decoupe_2
 62
6
100
AcDbSpline
 70
8
 71
3
 72
8
 73
4
 74
0
 40
0
 40
0
 40
0
 40
0
 40
1
 40
1
 40
1
 40
1
 10
384.729330
 20
252.911891
 30
0.0
 10
384.448026
 20
252.630586
 30
0.0
 10
384.066495
 20
252.472551
 30
0.0
 10
383.668670
 20
252.472551
 30
0.0
  0
LWPOLYLINE
  5
1ec
100
AcDbEntity
  8
Decoupe_2
 62
6
100
AcDbPolyline
 90
2
 70
0
 10
385.168670
 20
253.972551
 30
0.0
 10
385.168670
 20
261.472511
 30
0.0
  0
LWPOLYLINE
  5
1ed
100
AcDbEntity
  8
Decoupe_2
 62
6
100
AcDbPolyline
 90
2
 70
0
 10
377.668670
 20
260.972511
 30
0.0
 10
377.668670
 20
261.472511
 30
0.0
  0
SPLINE
  5
1ee
100
AcDbEntity
  8
Decoupe_2
 62
6
100
AcDbSpline
 70
8
 71
3
 72
8
 73
4
 74
0
 40
0
 40
0
 40
0
 40
0
 40
1
 40
1
 40
1
 40
1
 10
377.668670
 20
260.972511
 30
0.0
 10
377.668670
 20
260.707295
 30
0.0
 10
377.563313
 20
260.452941
 30
0.0
 10
377.375777
 20
260.265404
 30
0.0
  0
SPLINE
  5
1ef
100
AcDbEntity
  8
Decoupe_2
 62
6
100
AcDbSpline
 70
8
 71
3
 72
8
 73
4
 74
0
 40
0
 40
0
 40
0
 40
0
 40
1
 40
1
 40
1
 40
1
 10
377.375777
 20
260.265404
 30
0.0
 10
377.188240
 20
260.077868
 30
0.0
 10
376.933886
 20
259.972511
 30
0.0
 10
376.668670
 20
259.972511
 30
0.0
  0
LWPOLYLINE
  5
1f0
100
AcDbEntity
  8
Decoupe_2
 62
6
100
AcDbPolyline
 90
3
 70
0
 10
383.668670
 20
252.472551
 30
0.0
 10
383.168670
 20
252.472551
 30
0.0
 10
383.168670
 20
260.472511
 30
0.0
  0
LWPOLYLINE
  5
1f1
100
AcDbEntity
  8
Decoupe_2
 62
6
100
AcDbPolyline
 90
2
 70
0
 10
369.168660
 20
259.972511
 30
0.0
 10
376.668670
 20
259.972511
 30
0.0
  0
LWPOLYLINE
  5
1f2
100
AcDbEntity
  8
Decoupe_2
 62
6
100
AcDbPolyline
 90
2
 70
0
 10
383.168670
 20
260.472511
 30
0.0
 10
380.168670
 20
260.472511
 30
0.0
  0
LWPOLYLINE
  5
1f3
100
AcDbEntity
  8
Decoupe_2
 62
6
100
AcDbPolyline
 90
2
 70
0
 10
369.168660
 20
259.972511
 30
0.0
 10
369.168660
 20
254.972551
 30
0.0
  0
LWPOLYLINE
  5
1f4
100
AcDbEntity
  8
Decoupe_2
 62
6
100
AcDbPolyline
 90
2
 70
0
 10
380.168670
 20
260.472511
 30
0.0
 10
380.168670
 20
252.472551
 30
0.0
  0
LWPOLYLINE
  5
1f5
100
AcDbEntity
  8
Decoupe_2
 62
6
100
AcDbPolyline
 90
2
 70
0
 10
376.168670
 20
254.972551
 30
0.0
 10
369.168660
 20
254.972551
 30
0.0
  0
SPLINE
  5
1f6
100
AcDbEntity
  8
Decoupe_2
 62
6
100
AcDbSpline
 70
8
 71
3
 72
8
 73
4
 74
0
 40
0
 40
0
 40
0
 40
0
 40
1
 40
1
 40
1
 40
1
 10
376.168670
 20
254.972551
 30
0.0
 10
376.566495
 20
254.972551
 30
0.0
 10
376.948026
 20
254.814516
 30
0.0
 10
377.229330
 20
254.533211
 30
0.0
  0
SPLINE
  5
1f7
100
AcDbEntity
  8
Decoupe_2
 62
6
100
AcDbSpline
 70
8
 71
3
 72
8
 73
4
 74
0
 40
0
 40
0
 40
0
 40
0
 40
1
 40
1
 40
1
 40
1
 10
377.229330
 20
254.533211
 30
0.0
 10
377.510635
 20
254.251907
 30
0.0
 10
377.668670
 20
253.870376
 30
0.0
 10
377.668670
 20
253.472551
 30
0.0
  0
LWPOLYLINE
  5
1f8
100
AcDbEntity
  8
Decoupe_2
 62
6
100
AcDbPolyline
 90
2
 70
0
 10
380.168670
 20
252.472551
 30
0.0
 10
378.518670
 20
252.472551
 30
0.0
  0
LWPOLYLINE
  5
1f9
100
AcDbEntity
  8
Decoupe_2
 62
6
100
AcDbPolyline
 90
2
 70
0
 10
377.668670
 20
253.322551
 30
0.0
 10
378.518670
 20
252.472551
 30
0.0
  0
LWPOLYLINE
  5
1fa
100
AcDbEntity
  8
Decoupe_2
 62
6
100
AcDbPolyline
 90
2
 70
0
 10
377.668670
 20
253.322551
 30
0.0
 10
377.668670
 20
253.472551
 30
0.0
  0
LWPOLYLINE
  5
1fb
100
AcDbEntity
  8
Decoupe_2
 62
6
100
AcDbPolyline
 90
3
 70
0
 10
369.168620
 20
249.717901
 30
0.0
 10
370.168620
 20
250.717901
 30
0.0
 10
375.668620
 20
250.717901
 30
0.0
  0
SPLINE
  5
1fc
100
AcDbEntity
  8
Decoupe_2
 62
6
100
AcDbSpline
 70
8
 71
3
 72
8
 73
4
 74
0
 40
0
 40
0
 40
0
 40
0
 40
1
 40
1
 40
1
 40
1
 10
376.668620
 20
249.717901
 30
0.0
 10
376.668620
 20
249.983117
 30
0.0
 10
376.563263
 20
250.237471
 30
0.0
 10
376.375727
 20
250.425008
 30
0.0
  0
SPLINE
  5
1fd
100
AcDbEntity
  8
Decoupe_2
 62
6
100
AcDbSpline
 70
8
 71
3
 72
8
 73
4
 74
0
 40
0
 40
0
 40
0
 40
0
 40
1
 40
1
 40
1
 40
1
 10
376.375727
 20
250.425008
 30
0.0
 10
376.188190
 20
250.612544
 30
0.0
 10
375.933836
 20
250.717901
 30
0.0
 10
375.668620
 20
250.717901
 30
0.0
  0
SPLINE
  5
1fe
100
AcDbEntity
  8
Decoupe_2
 62
6
100
AcDbSpline
 70
8
 71
3
 72
8
 73
4
 74
0
 40
0
 40
0
 40
0
 40
0
 40
1
 40
1
 40
1
 40
1
 10
369.168620
 20
242.217941
 30
0.0
 10
369.168620
 20
241.820116
 30
0.0
 10
369.326655
 20
241.438585
 30
0.0
 10
369.607960
 20
241.157281
 30
0.0
  0
SPLINE
  5
1ff
100
AcDbEntity
  8
Decoupe_2
 62
6
100
AcDbSpline
 70
8
 71
3
 72
8
 73
4
 74
0
 40
0
 40
0
 40
0
 40
0
 40
1
 40
1
 40
1
 40
1
 10
369.607960
 20
241.157281
 30
0.0
 10
369.889264
 20
240.875976
 30
0.0
 10
370.270795
 20
240.717941
 30
0.0
 10
370.668620
 20
240.717941
 30
0.0
  0
LWPOLYLINE
  5
200
100
AcDbEntity
  8
Decoupe_2
 62
6
100
AcDbPolyline
 90
2
 70
0
 10
369.168620
 20
242.217941
 30
0.0
 10
369.168620
 20
249.717901
 30
0.0
  0
LWPOLYLINE
  5
201
100
AcDbEntity
  8
Decoupe_2
 62
6
100
AcDbPolyline
 90
2
 70
0
 10
376.668620
 20
249.217901
 30
0.0
 10
376.668620
 20
249.717901
 30
0.0
  0
SPLINE
  5
202
100
AcDbEntity
  8
Decoupe_2
 62
6
100
AcDbSpline
 70
8
 71
3
 72
8
 73
4
 74
0
 40
0
 40
0
 40
0
 40
0
 40
1
 40
1
 40
1
 40
1
 10
376.668620
 20
249.217901
 30
0.0
 10
376.668620
 20
248.952685
 30
0.0
 10
376.773977
 20
248.698331
 30
0.0
 10
376.961513
 20
248.510794
 30
0.0
  0
SPLINE
  5
203
100
AcDbEntity
  8
Decoupe_2
 62
6
100
AcDbSpline
 70
8
 71
3
 72
8
 73
4
 74
0
 40
0
 40
0
 40
0
 40
0
 40
1
 40
1
 40
1
 40
1
 10
376.961513
 20
248.510794
 30
0.0
 10
377.149050
 20
248.323258
 30
0.0
 10
377.403404
 20
248.217901
 30
0.0
 10
377.668620
 20
248.217901
 30
0.0
  0
LWPOLYLINE
  5
204
100
AcDbEntity
  8
Decoupe_2
 62
6
100
AcDbPolyline
 90
3
 70
0
 10
370.668620
 20
240.717941
 30
0.0
 10
371.168620
 20
240.717941
 30
0.0
 10
371.168620
 20
248.717901
 30
0.0
  0
LWPOLYLINE
  5
205
100
AcDbEntity
  8
Decoupe_2
 62
6
100
AcDbPolyline
 90
2
 70
0
 10
385.168630
 20
248.217901
 30
0.0
 10
377.668620
 20
248.217901
 30
0.0
  0
LWPOLYLINE
  5
206
100
AcDbEntity
  8
Decoupe_2
 62
6
100
AcDbPolyline
 90
2
 70
0
 10
371.168620
 20
248.717901
 30
0.0
 10
374.168620
 20
248.717901
 30
0.0
  0
LWPOLYLINE
  5
207
100
AcDbEntity
  8
Decoupe_2
 62
6
100
AcDbPolyline
 90
2
 70
0
 10
385.168630
 20
248.217901
 30
0.0
 10
385.168630
 20
243.217941
 30
0.0
  0
LWPOLYLINE
  5
208
100
AcDbEntity
  8
Decoupe_2
 62
6
100
AcDbPolyline
 90
2
 70
0
 10
374.168620
 20
248.717901
 30
0.0
 10
374.168620
 20
240.717941
 30
0.0
  0
LWPOLYLINE
  5
209
100
AcDbEntity
  8
Decoupe_2
 62
6
100
AcDbPolyline
 90
2
 70
0
 10
378.168620
 20
243.217941
 30
0.0
 10
385.168630
 20
243.217941
 30
0.0
  0
SPLINE
  5
20a
100
AcDbEntity
  8
Decoupe_2
 62
6
100
AcDbSpline
 70
8
 71
3
 72
8
 73
4
 74
0
 40
0
 40
0
 40
0
 40
0
 40
1
 40
1
 40
1
 40
1
 10
378.168620
 20
243.217941
 30
0.0
 10
377.770795
 20
243.217941
 30
0.0
 10
377.389264
 20
243.059906
 30
0.0
 10
377.107960
 20
242.778601
 30
0.0
  0
SPLINE
  5
20b
100
AcDbEntity
  8
Decoupe_2
 62
6
100
AcDbSpline
 70
8
 71
3
 72
8
 73
4
 74
0
 40
0
 40
0
 40
0
 40
0
 40
1
 40
1
 40
1
 40
1
 10
377.107960
 20
242.778601
 30
0.0
 10
376.826655
 20
242.497297
 30
0.0
 10
376.668620
 20
242.115766
 30
0.0
 10
376.668620
 20
241.717941
 30
0.0
  0
LWPOLYLINE
  5
20c
100
AcDbEntity
  8
Decoupe_2
 62
6
100
AcDbPolyline
 90
2
 70
0
 10
374.168620
 20
240.717941
 30
0.0
 10
375.818620
 20
240.717941
 30
0.0
  0
LWPOLYLINE
  5
20d
100
AcDbEntity
  8
Decoupe_2
 62
6
100
AcDbPolyline
 90
2
 70
0
 10
376.668620
 20
241.567941
 30
0.0
 10
375.818620
 20
240.717941
 30
0.0
  0
LWPOLYLINE
  5
20e
100
AcDbEntity
  8
Decoupe_2
 62
6
100
AcDbPolyline
 90
2
 70
0
 10
376.668620
 20
241.567941
 30
0.0
 10
376.668620
 20
241.717941
 30
0.0
  0
LWPOLYLINE
  5
20f
100
AcDbEntity
  8
Decoupe_2
 62
6
100
AcDbPolyline
 90
3
 70
0
 10
376.237626
 20
232.784160
 30
0.0
 10
376.237626
 20
236.284160
 30
0.0
 10
375.237626
 20
237.284160
 30
0.0
  0
LWPOLYLINE
  5
210
100
AcDbEntity
  8
Decoupe_2
 62
6
100
AcDbPolyline
 90
2
 70
0
 10
376.237626
 20
232.784160
 30
0.0
 10
369.837626
 20
232.784160
 30
0.0
  0
LWPOLYLINE
  5
211
100
AcDbEntity
  8
Decoupe_2
 62
6
100
AcDbPolyline
 90
2
 70
0
 10
374.537626
 20
237.284160
 30
0.0
 10
375.237626
 20
237.284160
 30
0.0
  0
LWPOLYLINE
  5
212
100
AcDbEntity
  8
Decoupe_2
 62
6
100
AcDbPolyline
 90
2
 70
0
 10
369.837626
 20
236.284160
 30
0.0
 10
369.837626
 20
232.784160
 30
0.0
  0
LWPOLYLINE
  5
213
100
AcDbEntity
  8
Decoupe_2
 62
6
100
AcDbPolyline
 90
2
 70
0
 10
374.537626
 20
237.284160
 30
0.0
 10
374.537626
 20
234.284160
 30
0.0
  0
LWPOLYLINE
  5
214
100
AcDbEntity
  8
Decoupe_2
 62
6
100
AcDbPolyline
 90
2
 70
0
 10
370.837626
 20
237.284160
 30
0.0
 10
369.837626
 20
236.284160
 30
0.0
  0
LWPOLYLINE
  5
215
100
AcDbEntity
  8
Decoupe_2
 62
6
100
AcDbPolyline
 90
2
 70
0
 10
374.537626
 20
234.284160
 30
0.0
 10
371.537626
 20
234.284160
 30
0.0
  0
LWPOLYLINE
  5
216
100
AcDbEntity
  8
Decoupe_2
 62
6
100
AcDbPolyline
 90
2
 70
0
 10
370.837626
 20
237.284160
 30
0.0
 10
371.537626
 20
237.284160
 30
0.0
  0
LWPOLYLINE
  5
217
100
AcDbEntity
  8
Decoupe_2
 62
6
100
AcDbPolyline
 90
2
 70
0
 10
371.537626
 20
234.284160
 30
0.0
 10
371.537626
 20
237.284160
 30
0.0
  0
LWPOLYLINE
  5
218
100
AcDbEntity
  8
Decoupe_2
 62
6
100
AcDbPolyline
 90
3
 70
0
 10
385.032546
 20
232.784160
 30
0.0
 10
385.032546
 20
236.284160
 30
0.0
 10
384.032546
 20
237.284160
 30
0.0
  0
LWPOLYLINE
  5
219
100
AcDbEntity
  8
Decoupe_2
 62
6
100
AcDbPolyline
 90
2
 70
0
 10
385.032546
 20
232.784160
 30
0.0
 10
378.632546
 20
232.784160
 30
0.0
  0
LWPOLYLINE
  5
21a
100
AcDbEntity
  8
Decoupe_2
 62
6
100
AcDbPolyline
 90
2
 70
0
 10
383.332546
 20
237.284160
 30
0.0
 10
384.032546
 20
237.284160
 30
0.0
  0
LWPOLYLINE
  5
21b
100
AcDbEntity
  8
Decoupe_2
 62
6
100
AcDbPolyline
 90
2
 70
0
 10
378.632546
 20
236.284160
 30
0.0
 10
378.632546
 20
232.784160
 30
0.0
  0
LWPOLYLINE
  5
21c
100
AcDbEntity
  8
Decoupe_2
 62
6
100
AcDbPolyline
 90
2
 70
0
 10
383.332546
 20
237.284160
 30
0.0
 10
383.332546
 20
234.284160
 30
0.0
  0
LWPOLYLINE
  5
21d
100
AcDbEntity
  8
Decoupe_2
 62
6
100
AcDbPolyline
 90
2
 70
0
 10
379.632546
 20
237.284160
 30
0.0
 10
378.632546
 20
236.284160
 30
0.0
  0
LWPOLYLINE
  5
21e
100
AcDbEntity
  8
Decoupe_2
 62
6
100
AcDbPolyline
 90
2
 70
0
 10
383.332546
 20
234.284160
 30
0.0
 10
380.332546
 20
234.284160
 30
0.0
  0
LWPOLYLINE
  5
21f
100
AcDbEntity
  8
Decoupe_2
 62
6
100
AcDbPolyline
 90
2
 70
0
 10
379.632546
 20
237.284160
 30
0.0
 10
380.332546
 20
237.284160
 30
0.0
  0
LWPOLYLINE
  5
220
100
AcDbEntity
  8
Decoupe_2
 62
6
100
AcDbPolyline
 90
2
 70
0
 10
380.332546
 20
234.284160
 30
0.0
 10
380.332546
 20
237.284160
 30
0.0
  0
LWPOLYLINE
  5
221
100
AcDbEntity
  8
Decoupe_2
 62
6
100
AcDbPolyline
 90
3
 70
0
 10
376.237626
 20
226.134322
 30
0.0
 10
376.237626
 20
229.634322
 30
0.0
 10
375.237626
 20
230.634322
 30
0.0
  0
LWPOLYLINE
  5
222
100
AcDbEntity
  8
Decoupe_2
 62
6
100
AcDbPolyline
 90
2
 70
0
 10
376.237626
 20
226.134322
 30
0.0
 10
369.837626
 20
226.134322
 30
0.0
  0
LWPOLYLINE
  5
223
100
AcDbEntity
  8
Decoupe_2
 62
6
100
AcDbPolyline
 90
2
 70
0
 10
374.537626
 20
230.634322
 30
0.0
 10
375.237626
 20
230.634322
 30
0.0
  0
LWPOLYLINE
  5
224
100
AcDbEntity
  8
Decoupe_2
 62
6
100
AcDbPolyline
 90
2
 70
0
 10
369.837626
 20
229.634322
 30
0.0
 10
369.837626
 20
226.134322
 30
0.0
  0
LWPOLYLINE
  5
225
100
AcDbEntity
  8
Decoupe_2
 62
6
100
AcDbPolyline
 90
2
 70
0
 10
374.537626
 20
230.634322
 30
0.0
 10
374.537626
 20
227.634322
 30
0.0
  0
LWPOLYLINE
  5
226
100
AcDbEntity
  8
Decoupe_2
 62
6
100
AcDbPolyline
 90
2
 70
0
 10
370.837626
 20
230.634322
 30
0.0
 10
369.837626
 20
229.634322
 30
0.0
  0
LWPOLYLINE
  5
227
100
AcDbEntity
  8
Decoupe_2
 62
6
100
AcDbPolyline
 90
2
 70
0
 10
374.537626
 20
227.634322
 30
0.0
 10
371.537626
 20
227.634322
 30
0.0
  0
LWPOLYLINE
  5
228
100
AcDbEntity
  8
Decoupe_2
 62
6
100
AcDbPolyline
 90
2
 70
0
 10
370.837626
 20
230.634322
 30
0.0
 10
371.537626
 20
230.634322
 30
0.0
  0
LWPOLYLINE
  5
229
100
AcDbEntity
  8
Decoupe_2
 62
6
100
AcDbPolyline
 90
2
 70
0
 10
371.537626
 20
227.634322
 30
0.0
 10
371.537626
 20
230.634322
 30
0.0
  0
LWPOLYLINE
  5
22a
100
AcDbEntity
  8
Decoupe_2
 62
6
100
AcDbPolyline
 90
3
 70
0
 10
385.032546
 20
226.134322
 30
0.0
 10
385.032546
 20
229.634322
 30
0.0
 10
384.032546
 20
230.634322
 30
0.0
  0
LWPOLYLINE
  5
22b
100
AcDbEntity
  8
Decoupe_2
 62
6
100
AcDbPolyline
 90
2
 70
0
 10
385.032546
 20
226.134322
 30
0.0
 10
378.632546
 20
226.134322
 30
0.0
  0
LWPOLYLINE
  5
22c
100
AcDbEntity
  8
Decoupe_2
 62
6
100
AcDbPolyline
 90
2
 70
0
 10
383.332546
 20
230.634322
 30
0.0
 10
384.032546
 20
230.634322
 30
0.0
  0
LWPOLYLINE
  5
22d
100
AcDbEntity
  8
Decoupe_2
 62
6
100
AcDbPolyline
 90
2
 70
0
 10
378.632546
 20
229.634322
 30
0.0
 10
378.632546
 20
226.134322
 30
0.0
  0
LWPOLYLINE
  5
22e
100
AcDbEntity
  8
Decoupe_2
 62
6
100
AcDbPolyline
 90
2
 70
0
 10
383.332546
 20
230.634322
 30
0.0
 10
383.332546
 20
227.634322
 30
0.0
  0
LWPOLYLINE
  5
22f
100
AcDbEntity
  8
Decoupe_2
 62
6
100
AcDbPolyline
 90
2
 70
0
 10
379.632546
 20
230.634322
 30
0.0
 10
378.632546
 20
229.634322
 30
0.0
  0
LWPOLYLINE
  5
230
100
AcDbEntity
  8
Decoupe_2
 62
6
100
AcDbPolyline
 90
2
 70
0
 10
383.332546
 20
227.634322
 30
0.0
 10
380.332546
 20
227.634322
 30
0.0
  0
LWPOLYLINE
  5
231
100
AcDbEntity
  8
Decoupe_2
 62
6
100
AcDbPolyline
 90
2
 70
0
 10
379.632546
 20
230.634322
 30
0.0
 10
380.332546
 20
230.634322
 30
0.0
  0
SPLINE
  5
232
100
AcDbEntity
  8
Decoupe_2
 62
5
100
AcDbSpline
 70
8
 71
3
 72
8
 73
4
 74
0
 40
0
 40
0
 40
0
 40
0
 40
1
 40
1
 40
1
 40
1
 10
173.108630
 20
218.598785
 30
0.0
 10
173.108630
 20
223.107465
 30
0.0
 10
174.899696
 20
227.431482
 30
0.0
 10
178.087815
 20
230.619600
 30
0.0
  0
SPLINE
  5
233
100
AcDbEntity
  8
Decoupe_2
 62
5
100
AcDbSpline
 70
8
 71
3
 72
8
 73
4
 74
0
 40
0
 40
0
 40
0
 40
0
 40
1
 40
1
 40
1
 40
1
 10
178.087815
 20
230.619600
 30
0.0
 10
181.275933
 20
233.807719
 30
0.0
 10
185.599950
 20
235.598785
 30
0.0
 10
190.108630
 20
235.598785
 30
0.0
  0
LWPOLYLINE
  5
234
100
AcDbEntity
  8
Decoupe_2
 62
6
100
AcDbPolyline
 90
2
 70
0
 10
380.332546
 20
227.634322
 30
0.0
 10
380.332546
 20
230.634322
 30
0.0
  0
LWPOLYLINE
  5
235
100
AcDbEntity
  8
Decoupe_2
 62
5
100
AcDbPolyline
 90
2
 70
0
 10
195.108630
 20
235.598785
 30
0.0
 10
190.108630
 20
235.598785
 30
0.0
  0
LWPOLYLINE
  5
236
100
AcDbEntity
  8
Decoupe_2
 62
5
100
AcDbPolyline
 90
2
 70
0
 10
173.108630
 20
218.598785
 30
0.0
 10
173.108630
 20
213.598785
 30
0.0
  0
LWPOLYLINE
  5
237
100
AcDbEntity
  8
Decoupe_2
 62
5
100
AcDbPolyline
 90
2
 70
0
 10
195.108630
 20
236.598785
 30
0.0
 10
195.108630
 20
235.598785
 30
0.0
  0
LWPOLYLINE
  5
238
100
AcDbEntity
  8
Decoupe_2
 62
5
100
AcDbPolyline
 90
2
 70
0
 10
173.108630
 20
208.598785
 30
0.0
 10
173.108630
 20
213.598785
 30
0.0
  0
SPLINE
  5
239
100
AcDbEntity
  8
Decoupe_2
 62
5
100
AcDbSpline
 70
8
 71
3
 72
8
 73
4
 74
0
 40
0
 40
0
 40
0
 40
0
 40
1
 40
1
 40
1
 40
1
 10
190.108630
 20
191.598785
 30
0.0
 10
185.599950
 20
191.598785
 30
0.0
 10
181.275933
 20
193.389851
 30
0.0
 10
178.087815
 20
196.577970
 30
0.0
  0
SPLINE
  5
23a
100
AcDbEntity
  8
Decoupe_2
 62
5
100
AcDbSpline
 70
8
 71
3
 72
8
 73
4
 74
0
 40
0
 40
0
 40
0
 40
0
 40
1
 40
1
 40
1
 40
1
 10
178.087815
 20
196.577970
 30
0.0
 10
174.899696
 20
199.766088
 30
0.0
 10
173.108630
 20
204.090105
 30
0.0
 10
173.108630
 20
208.598785
 30
0.0
  0
SPLINE
  5
23b
100
AcDbEntity
  8
Decoupe_2
 62
5
100
AcDbSpline
 70
8
 71
3
 72
8
 73
4
 74
0
 40
0
 40
0
 40
0
 40
0
 40
1
 40
1
 40
1
 40
1
 10
172.108630
 20
218.598785
 30
0.0
 10
172.108630
 20
223.372682
 30
0.0
 10
174.005053
 20
227.951052
 30
0.0
 10
177.380708
 20
231.326707
 30
0.0
  0
SPLINE
  5
23c
100
AcDbEntity
  8
Decoupe_2
 62
5
100
AcDbSpline
 70
8
 71
3
 72
8
 73
4
 74
0
 40
0
 40
0
 40
0
 40
0
 40
1
 40
1
 40
1
 40
1
 10
177.380708
 20
231.326707
 30
0.0
 10
180.756363
 20
234.702362
 30
0.0
 10
185.334733
 20
236.598785
 30
0.0
 10
190.108630
 20
236.598785
 30
0.0
  0
LWPOLYLINE
  5
23d
100
AcDbEntity
  8
Decoupe_2
 62
5
100
AcDbPolyline
 90
2
 70
0
 10
190.108630
 20
236.598785
 30
0.0
 10
195.108630
 20
236.598785
 30
0.0
  0
LWPOLYLINE
  5
23e
100
AcDbEntity
  8
Decoupe_2
 62
5
100
AcDbPolyline
 90
2
 70
0
 10
195.108630
 20
191.598785
 30
0.0
 10
190.108630
 20
191.598785
 30
0.0
  0
LWPOLYLINE
  5
23f
100
AcDbEntity
  8
Decoupe_2
 62
5
100
AcDbPolyline
 90
2
 70
0
 10
172.108630
 20
213.598785
 30
0.0
 10
172.108630
 20
218.598785
 30
0.0
  0
LWPOLYLINE
  5
240
100
AcDbEntity
  8
Decoupe_2
 62
5
100
AcDbPolyline
 90
2
 70
0
 10
195.108630
 20
190.598785
 30
0.0
 10
195.108630
 20
191.598785
 30
0.0
  0
LWPOLYLINE
  5
241
100
AcDbEntity
  8
Decoupe_2
 62
5
100
AcDbPolyline
 90
2
 70
0
 10
172.108630
 20
213.598785
 30
0.0
 10
172.108630
 20
208.598785
 30
0.0
  0
SPLINE
  5
242
100
AcDbEntity
  8
Decoupe_2
 62
5
100
AcDbSpline
 70
8
 71
3
 72
8
 73
4
 74
0
 40
0
 40
0
 40
0
 40
0
 40
1
 40
1
 40
1
 40
1
 10
190.108630
 20
190.598785
 30
0.0
 10
185.334733
 20
190.598785
 30
0.0
 10
180.756363
 20
192.495208
 30
0.0
 10
177.380708
 20
195.870863
 30
0.0
  0
SPLINE
  5
243
100
AcDbEntity
  8
Decoupe_2
 62
5
100
AcDbSpline
 70
8
 71
3
 72
8
 73
4
 74
0
 40
0
 40
0
 40
0
 40
0
 40
1
 40
1
 40
1
 40
1
 10
177.380708
 20
195.870863
 30
0.0
 10
174.005053
 20
199.246518
 30
0.0
 10
172.108630
 20
203.824888
 30
0.0
 10
172.108630
 20
208.598785
 30
0.0
  0
LWPOLYLINE
  5
244
100
AcDbEntity
  8
Decoupe_2
 62
5
100
AcDbPolyline
 90
2
 70
0
 10
190.108630
 20
190.598785
 30
0.0
 10
195.108630
 20
190.598785
 30
0.0
  0
LWPOLYLINE
  5
245
100
AcDbEntity
  8
Decoupe_2
 62
5
100
AcDbPolyline
 90
2
 70
0
 10
195.108630
 20
193.598785
 30
0.0
 10
198.058630
 20
193.598785
 30
0.0
  0
LWPOLYLINE
  5
246
100
AcDbEntity
  8
Decoupe_2
 62
5
100
AcDbPolyline
 90
2
 70
0
 10
195.108630
 20
198.598785
 30
0.0
 10
195.108630
 20
193.598785
 30
0.0
  0
LWPOLYLINE
  5
247
100
AcDbEntity
  8
Decoupe_2
 62
5
100
AcDbPolyline
 90
3
 70
0
 10
198.058630
 20
193.598785
 30
0.0
 10
198.058630
 20
198.598785
 30
0.0
 10
195.108630
 20
198.598785
 30
0.0
  0
LWPOLYLINE
  5
248
100
AcDbEntity
  8
Decoupe_2
 62
5
100
AcDbPolyline
 90
2
 70
0
 10
198.058630
 20
228.598785
 30
0.0
 10
195.108630
 20
228.598785
 30
0.0
  0
LWPOLYLINE
  5
249
100
AcDbEntity
  8
Decoupe_2
 62
5
100
AcDbPolyline
 90
2
 70
0
 10
198.058630
 20
233.598785
 30
0.0
 10
198.058630
 20
228.598785
 30
0.0
  0
LWPOLYLINE
  5
24a
100
AcDbEntity
  8
Decoupe_2
 62
5
100
AcDbPolyline
 90
3
 70
0
 10
195.108630
 20
228.598785
 30
0.0
 10
195.108630
 20
233.598785
 30
0.0
 10
198.058630
 20
233.598785
 30
0.0
  0
LWPOLYLINE
  5
24b
100
AcDbEntity
  8
Decoupe_2
 62
6
100
AcDbPolyline
 90
3
 70
0
 10
200.108630
 20
188.598785
 30
0.0
 10
200.108630
 20
238.598785
 30
0.0
 10
190.108630
 20
238.598785
 30
0.0
  0
SPLINE
  5
24c
100
AcDbEntity
  8
Decoupe_2
 62
6
100
AcDbSpline
 70
8
 71
3
 72
8
 73
4
 74
0
 40
0
 40
0
 40
0
 40
0
 40
1
 40
1
 40
1
 40
1
 10
190.108630
 20
238.598785
 30
0.0
 10
184.804300
 20
238.598785
 30
0.0
 10
179.717222
 20
236.491648
 30
0.0
 10
175.966494
 20
232.740921
 30
0.0
  0
SPLINE
  5
24d
100
AcDbEntity
  8
Decoupe_2
 62
6
100
AcDbSpline
 70
8
 71
3
 72
8
 73
4
 74
0
 40
0
 40
0
 40
0
 40
0
 40
1
 40
1
 40
1
 40
1
 10
175.966494
 20
232.740921
 30
0.0
 10
172.215767
 20
228.990193
 30
0.0
 10
170.108630
 20
223.903115
 30
0.0
 10
170.108630
 20
218.598785
 30
0.0
  0
SPLINE
  5
24e
100
AcDbEntity
  8
Decoupe_2
 62
6
100
AcDbSpline
 70
8
 71
3
 72
8
 73
4
 74
0
 40
0
 40
0
 40
0
 40
0
 40
1
 40
1
 40
1
 40
1
 10
170.108630
 20
208.598785
 30
0.0
 10
170.108630
 20
203.294455
 30
0.0
 10
172.215767
 20
198.207377
 30
0.0
 10
175.966494
 20
194.456649
 30
0.0
  0
SPLINE
  5
24f
100
AcDbEntity
  8
Decoupe_2
 62
6
100
AcDbSpline
 70
8
 71
3
 72
8
 73
4
 74
0
 40
0
 40
0
 40
0
 40
0
 40
1
 40
1
 40
1
 40
1
 10
175.966494
 20
194.456649
 30
0.0
 10
179.717222
 20
190.705922
 30
0.0
 10
184.804300
 20
188.598785
 30
0.0
 10
190.108630
 20
188.598785
 30
0.0
  0
LWPOLYLINE
  5
250
100
AcDbEntity
  8
Decoupe_2
 62
6
100
AcDbPolyline
 90
2
 70
0
 10
190.108630
 20
188.598785
 30
0.0
 10
200.108630
 20
188.598785
 30
0.0
  0
LWPOLYLINE
  5
251
100
AcDbEntity
  8
Decoupe_2
 62
6
100
AcDbPolyline
 90
2
 70
0
 10
170.108630
 20
218.598785
 30
0.0
 10
170.108630
 20
208.598785
 30
0.0
  0
LWPOLYLINE
  5
252
100
AcDbEntity
  8
Decoupe_2
 62
5
100
AcDbPolyline
 90
4
 70
1
 10
200.108630
 20
202.657122
 30
0.0
 10
195.108630
 20
202.657122
 30
0.0
 10
195.108630
 20
199.657122
 30
0.0
 10
200.108630
 20
199.657122
 30
0.0
  0
LWPOLYLINE
  5
253
100
AcDbEntity
  8
Decoupe_2
 62
6
100
AcDbPolyline
 90
3
 70
0
 10
377.020385
 20
212.110537
 30
0.0
 10
377.020385
 20
215.610537
 30
0.0
 10
376.020385
 20
216.610537
 30
0.0
  0
LWPOLYLINE
  5
254
100
AcDbEntity
  8
Decoupe_2
 62
6
100
AcDbPolyline
 90
2
 70
0
 10
377.020385
 20
212.110537
 30
0.0
 10
370.620385
 20
212.110537
 30
0.0
  0
LWPOLYLINE
  5
255
100
AcDbEntity
  8
Decoupe_2
 62
6
100
AcDbPolyline
 90
2
 70
0
 10
375.320385
 20
216.610537
 30
0.0
 10
376.020385
 20
216.610537
 30
0.0
  0
LWPOLYLINE
  5
256
100
AcDbEntity
  8
Decoupe_2
 62
6
100
AcDbPolyline
 90
2
 70
0
 10
370.620385
 20
215.610537
 30
0.0
 10
370.620385
 20
212.110537
 30
0.0
  0
LWPOLYLINE
  5
257
100
AcDbEntity
  8
Decoupe_2
 62
6
100
AcDbPolyline
 90
2
 70
0
 10
375.320385
 20
216.610537
 30
0.0
 10
375.320385
 20
213.610537
 30
0.0
  0
LWPOLYLINE
  5
258
100
AcDbEntity
  8
Decoupe_2
 62
6
100
AcDbPolyline
 90
2
 70
0
 10
371.620385
 20
216.610537
 30
0.0
 10
370.620385
 20
215.610537
 30
0.0
  0
LWPOLYLINE
  5
259
100
AcDbEntity
  8
Decoupe_2
 62
6
100
AcDbPolyline
 90
2
 70
0
 10
375.320385
 20
213.610537
 30
0.0
 10
372.320385
 20
213.610537
 30
0.0
  0
LWPOLYLINE
  5
25a
100
AcDbEntity
  8
Decoupe_2
 62
6
100
AcDbPolyline
 90
2
 70
0
 10
371.620385
 20
216.610537
 30
0.0
 10
372.320385
 20
216.610537
 30
0.0
  0
LWPOLYLINE
  5
25b
100
AcDbEntity
  8
Decoupe_2
 62
6
100
AcDbPolyline
 90
2
 70
0
 10
372.320385
 20
213.610537
 30
0.0
 10
372.320385
 20
216.610537
 30
0.0
  0
LWPOLYLINE
  5
25c
100
AcDbEntity
  8
Decoupe_2
 62
6
100
AcDbPolyline
 90
3
 70
0
 10
385.815305
 20
212.110537
 30
0.0
 10
385.815305
 20
215.610537
 30
0.0
 10
384.815305
 20
216.610537
 30
0.0
  0
LWPOLYLINE
  5
25d
100
AcDbEntity
  8
Decoupe_2
 62
6
100
AcDbPolyline
 90
2
 70
0
 10
385.815305
 20
212.110537
 30
0.0
 10
379.415305
 20
212.110537
 30
0.0
  0
LWPOLYLINE
  5
25e
100
AcDbEntity
  8
Decoupe_2
 62
6
100
AcDbPolyline
 90
2
 70
0
 10
384.115305
 20
216.610537
 30
0.0
 10
384.815305
 20
216.610537
 30
0.0
  0
LWPOLYLINE
  5
25f
100
AcDbEntity
  8
Decoupe_2
 62
6
100
AcDbPolyline
 90
2
 70
0
 10
379.415305
 20
215.610537
 30
0.0
 10
379.415305
 20
212.110537
 30
0.0
  0
LWPOLYLINE
  5
260
100
AcDbEntity
  8
Decoupe_2
 62
6
100
AcDbPolyline
 90
2
 70
0
 10
384.115305
 20
216.610537
 30
0.0
 10
384.115305
 20
213.610537
 30
0.0
  0
LWPOLYLINE
  5
261
100
AcDbEntity
  8
Decoupe_2
 62
6
100
AcDbPolyline
 90
2
 70
0
 10
380.415305
 20
216.610537
 30
0.0
 10
379.415305
 20
215.610537
 30
0.0
  0
LWPOLYLINE
  5
262
100
AcDbEntity
  8
Decoupe_2
 62
6
100
AcDbPolyline
 90
2
 70
0
 10
384.115305
 20
213.610537
 30
0.0
 10
381.115305
 20
213.610537
 30
0.0
  0
LWPOLYLINE
  5
263
100
AcDbEntity
  8
Decoupe_2
 62
6
100
AcDbPolyline
 90
2
 70
0
 10
380.415305
 20
216.610537
 30
0.0
 10
381.115305
 20
216.610537
 30
0.0
  0
LWPOLYLINE
  5
264
100
AcDbEntity
  8
Decoupe_2
 62
6
100
AcDbPolyline
 90
2
 70
0
 10
381.115305
 20
213.610537
 30
0.0
 10
381.115305
 20
216.610537
 30
0.0
  0
LWPOLYLINE
  5
265
100
AcDbEntity
  8
Decoupe_2
 62
6
100
AcDbPolyline
 90
3
 70
0
 10
377.020385
 20
205.460701
 30
0.0
 10
377.020385
 20
208.960701
 30
0.0
 10
376.020385
 20
209.960701
 30
0.0
  0
LWPOLYLINE
  5
266
100
AcDbEntity
  8
Decoupe_2
 62
6
100
AcDbPolyline
 90
2
 70
0
 10
377.020385
 20
205.460701
 30
0.0
 10
370.620385
 20
205.460701
 30
0.0
  0
LWPOLYLINE
  5
267
100
AcDbEntity
  8
Decoupe_2
 62
6
100
AcDbPolyline
 90
2
 70
0
 10
375.320385
 20
209.960701
 30
0.0
 10
376.020385
 20
209.960701
 30
0.0
  0
LWPOLYLINE
  5
268
100
AcDbEntity
  8
Decoupe_2
 62
6
100
AcDbPolyline
 90
2
 70
0
 10
370.620385
 20
208.960701
 30
0.0
 10
370.620385
 20
205.460701
 30
0.0
  0
LWPOLYLINE
  5
269
100
AcDbEntity
  8
Decoupe_2
 62
6
100
AcDbPolyline
 90
2
 70
0
 10
375.320385
 20
209.960701
 30
0.0
 10
375.320385
 20
206.960701
 30
0.0
  0
LWPOLYLINE
  5
26a
100
AcDbEntity
  8
Decoupe_2
 62
6
100
AcDbPolyline
 90
2
 70
0
 10
371.620385
 20
209.960701
 30
0.0
 10
370.620385
 20
208.960701
 30
0.0
  0
LWPOLYLINE
  5
26b
100
AcDbEntity
  8
Decoupe_2
 62
6
100
AcDbPolyline
 90
2
 70
0
 10
375.320385
 20
206.960701
 30
0.0
 10
372.320385
 20
206.960701
 30
0.0
  0
LWPOLYLINE
  5
26c
100
AcDbEntity
  8
Decoupe_2
 62
6
100
AcDbPolyline
 90
2
 70
0
 10
371.620385
 20
209.960701
 30
0.0
 10
372.320385
 20
209.960701
 30
0.0
  0
LWPOLYLINE
  5
26d
100
AcDbEntity
  8
Decoupe_2
 62
6
100
AcDbPolyline
 90
2
 70
0
 10
372.320385
 20
206.960701
 30
0.0
 10
372.320385
 20
209.960701
 30
0.0
  0
LWPOLYLINE
  5
26e
100
AcDbEntity
  8
Decoupe_2
 62
6
100
AcDbPolyline
 90
3
 70
0
 10
385.815305
 20
205.460701
 30
0.0
 10
385.815305
 20
208.960701
 30
0.0
 10
384.815305
 20
209.960701
 30
0.0
  0
LWPOLYLINE
  5
26f
100
AcDbEntity
  8
Decoupe_2
 62
6
100
AcDbPolyline
 90
2
 70
0
 10
385.815305
 20
205.460701
 30
0.0
 10
379.415305
 20
205.460701
 30
0.0
  0
LWPOLYLINE
  5
270
100
AcDbEntity
  8
Decoupe_2
 62
6
100
AcDbPolyline
 90
2
 70
0
 10
384.115305
 20
209.960701
 30
0.0
 10
384.815305
 20
209.960701
 30
0.0
  0
LWPOLYLINE
  5
271
100
AcDbEntity
  8
Decoupe_2
 62
6
100
AcDbPolyline
 90
2
 70
0
 10
379.415305
 20
208.960701
 30
0.0
 10
379.415305
 20
205.460701
 30
0.0
  0
LWPOLYLINE
  5
272
100
AcDbEntity
  8
Decoupe_2
 62
6
100
AcDbPolyline
 90
2
 70
0
 10
384.115305
 20
209.960701
 30
0.0
 10
384.115305
 20
206.960701
 30
0.0
  0
LWPOLYLINE
  5
273
100
AcDbEntity
  8
Decoupe_2
 62
6
100
AcDbPolyline
 90
2
 70
0
 10
380.415305
 20
209.960701
 30
0.0
 10
379.415305
 20
208.960701
 30
0.0
  0
LWPOLYLINE
  5
274
100
AcDbEntity
  8
Decoupe_2
 62
6
100
AcDbPolyline
 90
2
 70
0
 10
384.115305
 20
206.960701
 30
0.0
 10
381.115305
 20
206.960701
 30
0.0
  0
LWPOLYLINE
  5
275
100
AcDbEntity
  8
Decoupe_2
 62
6
100
AcDbPolyline
 90
2
 70
0
 10
380.415305
 20
209.960701
 30
0.0
 10
381.115305
 20
209.960701
 30
0.0
  0
LWPOLYLINE
  5
276
100
AcDbEntity
  8
Decoupe_2
 62
6
100
AcDbPolyline
 90
2
 70
0
 10
381.115305
 20
206.960701
 30
0.0
 10
381.115305
 20
209.960701
 30
0.0
  0
LWPOLYLINE
  5
277
100
AcDbEntity
  8
Decoupe_2
 62
5
100
AcDbPolyline
 90
4
 70
1
 10
399.485500
 20
247.813709
 30
0.0
 10
400.322000
 20
247.813709
 30
0.0
 10
400.322000
 20
217.877208
 30
0.0
 10
399.485500
 20
217.877208
 30
0.0
  0
LWPOLYLINE
  5
278
100
AcDbEntity
  8
Decoupe_2
 62
5
100
AcDbPolyline
 90
4
 70
1
 10
404.057340
 20
247.813709
 30
0.0
 10
404.893840
 20
247.813709
 30
0.0
 10
404.893840
 20
217.877208
 30
0.0
 10
404.057340
 20
217.877208
 30
0.0
  0
LWPOLYLINE
  5
279
100
AcDbEntity
  8
Decoupe_2
 62
5
100
AcDbPolyline
 90
4
 70
1
 10
404.057340
 20
283.710774
 30
0.0
 10
404.893840
 20
283.710774
 30
0.0
 10
404.893840
 20
253.774273
 30
0.0
 10
404.057340
 20
253.774273
 30
0.0
  0
SPLINE
  5
27a
100
AcDbEntity
  8
Decoupe_2
 62
7
100
AcDbSpline
 70
8
 71
3
 72
8
 73
4
 74
0
 40
0
 40
0
 40
0
 40
0
 40
1
 40
1
 40
1
 40
1
 10
244.849390
 20
215.079455
 30
0.0
 10
244.849230
 20
215.101685
 30
0.0
 10
244.848460
 20
215.123785
 30
0.0
 10
244.844390
 20
215.146005
 30
0.0
  0
SPLINE
  5
27b
100
AcDbEntity
  8
Decoupe_2
 62
7
100
AcDbSpline
 70
8
 71
3
 72
8
 73
4
 74
0
 40
0
 40
0
 40
0
 40
0
 40
1
 40
1
 40
1
 40
1
 10
244.844390
 20
215.146005
 30
0.0
 10
244.844220
 20
215.147505
 30
0.0
 10
244.843710
 20
215.148805
 30
0.0
 10
244.843710
 20
215.150305
 30
0.0
  0
SPLINE
  5
27c
100
AcDbEntity
  8
Decoupe_2
 62
7
100
AcDbSpline
 70
8
 71
3
 72
8
 73
4
 74
0
 40
0
 40
0
 40
0
 40
0
 40
1
 40
1
 40
1
 40
1
 10
244.843710
 20
215.150305
 30
0.0
 10
244.841710
 20
215.170135
 30
0.0
 10
244.836710
 20
215.189955
 30
0.0
 10
244.831710
 20
215.209635
 30
0.0
  0
SPLINE
  5
27d
100
AcDbEntity
  8
Decoupe_2
 62
7
100
AcDbSpline
 70
8
 71
3
 72
8
 73
4
 74
0
 40
0
 40
0
 40
0
 40
0
 40
1
 40
1
 40
1
 40
1
 10
244.831710
 20
215.209635
 30
0.0
 10
244.830790
 20
215.215235
 30
0.0
 10
244.829710
 20
215.220965
 30
0.0
 10
244.826710
 20
215.225785
 30
0.0
  0
SPLINE
  5
27e
100
AcDbEntity
  8
Decoupe_2
 62
7
100
AcDbSpline
 70
8
 71
3
 72
8
 73
4
 74
0
 40
0
 40
0
 40
0
 40
0
 40
1
 40
1
 40
1
 40
1
 10
244.826710
 20
215.225785
 30
0.0
 10
244.821710
 20
215.241785
 30
0.0
 10
244.817710
 20
215.257645
 30
0.0
 10
244.810510
 20
215.273215
 30
0.0
  0
SPLINE
  5
27f
100
AcDbEntity
  8
Decoupe_2
 62
7
100
AcDbSpline
 70
8
 71
3
 72
8
 73
4
 74
0
 40
0
 40
0
 40
0
 40
0
 40
1
 40
1
 40
1
 40
1
 10
244.810510
 20
215.273215
 30
0.0
 10
244.808510
 20
215.278815
 30
0.0
 10
244.805510
 20
215.284545
 30
0.0
 10
244.803510
 20
215.289065
 30
0.0
  0
SPLINE
  5
280
100
AcDbEntity
  8
Decoupe_2
 62
7
100
AcDbSpline
 70
8
 71
3
 72
8
 73
4
 74
0
 40
0
 40
0
 40
0
 40
0
 40
1
 40
1
 40
1
 40
1
 10
244.803510
 20
215.289065
 30
0.0
 10
244.795510
 20
215.308745
 30
0.0
 10
244.785910
 20
215.328295
 30
0.0
 10
244.774710
 20
215.347405
 30
0.0
  0
SPLINE
  5
281
100
AcDbEntity
  8
Decoupe_2
 62
7
100
AcDbSpline
 70
8
 71
3
 72
8
 73
4
 74
0
 40
0
 40
0
 40
0
 40
0
 40
1
 40
1
 40
1
 40
1
 10
244.774710
 20
215.347405
 30
0.0
 10
244.762710
 20
215.366375
 30
0.0
 10
244.751410
 20
215.384365
 30
0.0
 10
244.738510
 20
215.401355
 30
0.0
  0
SPLINE
  5
282
100
AcDbEntity
  8
Decoupe_2
 62
7
100
AcDbSpline
 70
8
 71
3
 72
8
 73
4
 74
0
 40
0
 40
0
 40
0
 40
0
 40
1
 40
1
 40
1
 40
1
 10
244.738510
 20
215.401355
 30
0.0
 10
244.733510
 20
215.405655
 30
0.0
 10
244.731510
 20
215.409855
 30
0.0
 10
244.726510
 20
215.414095
 30
0.0
  0
SPLINE
  5
283
100
AcDbEntity
  8
Decoupe_2
 62
7
100
AcDbSpline
 70
8
 71
3
 72
8
 73
4
 74
0
 40
0
 40
0
 40
0
 40
0
 40
1
 40
1
 40
1
 40
1
 10
244.726510
 20
215.414095
 30
0.0
 10
244.717510
 20
215.426845
 30
0.0
 10
244.705310
 20
215.439725
 30
0.0
 10
244.693910
 20
215.451475
 30
0.0
  0
SPLINE
  5
284
100
AcDbEntity
  8
Decoupe_2
 62
7
100
AcDbSpline
 70
8
 71
3
 72
8
 73
4
 74
0
 40
0
 40
0
 40
0
 40
0
 40
1
 40
1
 40
1
 40
1
 10
244.693910
 20
215.451475
 30
0.0
 10
244.688910
 20
215.455775
 30
0.0
 10
244.685910
 20
215.459975
 30
0.0
 10
244.681110
 20
215.464215
 30
0.0
  0
SPLINE
  5
285
100
AcDbEntity
  8
Decoupe_2
 62
7
100
AcDbSpline
 70
8
 71
3
 72
8
 73
4
 74
0
 40
0
 40
0
 40
0
 40
0
 40
1
 40
1
 40
1
 40
1
 10
244.681110
 20
215.464215
 30
0.0
 10
244.666910
 20
215.478375
 30
0.0
 10
244.652210
 20
215.491115
 30
0.0
 10
244.636810
 20
215.503295
 30
0.0
  0
SPLINE
  5
286
100
AcDbEntity
  8
Decoupe_2
 62
7
100
AcDbSpline
 70
8
 71
3
 72
8
 73
4
 74
0
 40
0
 40
0
 40
0
 40
0
 40
1
 40
1
 40
1
 40
1
 10
244.636810
 20
215.503295
 30
0.0
 10
244.634810
 20
215.504495
 30
0.0
 10
244.634810
 20
215.506095
 30
0.0
 10
244.631810
 20
215.507595
 30
0.0
  0
SPLINE
  5
287
100
AcDbEntity
  8
Decoupe_2
 62
7
100
AcDbSpline
 70
8
 71
3
 72
8
 73
4
 74
0
 40
0
 40
0
 40
0
 40
0
 40
1
 40
1
 40
1
 40
1
 10
244.631810
 20
215.507595
 30
0.0
 10
244.614210
 20
215.521755
 30
0.0
 10
244.596010
 20
215.533225
 30
0.0
 10
244.577110
 20
215.544275
 30
0.0
  0
SPLINE
  5
288
100
AcDbEntity
  8
Decoupe_2
 62
7
100
AcDbSpline
 70
8
 71
3
 72
8
 73
4
 74
0
 40
0
 40
0
 40
0
 40
0
 40
1
 40
1
 40
1
 40
1
 10
244.577110
 20
215.544275
 30
0.0
 10
244.575110
 20
215.545182
 30
0.0
 10
244.575110
 20
215.547075
 30
0.0
 10
244.572110
 20
215.547075
 30
0.0
  0
LWPOLYLINE
  5
289
100
AcDbEntity
  8
Decoupe_2
 62
5
100
AcDbPolyline
 90
4
 70
1
 10
399.485500
 20
283.710774
 30
0.0
 10
400.322000
 20
283.710774
 30
0.0
 10
400.322000
 20
253.774273
 30
0.0
 10
399.485500
 20
253.774273
 30
0.0
  0
SPLINE
  5
28a
100
AcDbEntity
  8
Decoupe_2
 62
7
100
AcDbSpline
 70
8
 71
3
 72
8
 73
4
 74
0
 40
0
 40
0
 40
0
 40
0
 40
1
 40
1
 40
1
 40
1
 10
233.794760
 20
221.770121
 30
0.0
 10
233.793810
 20
221.770944
 30
0.0
 10
233.792760
 20
221.771321
 30
0.0
 10
233.789760
 20
221.772221
 30
0.0
  0
SPLINE
  5
28b
100
AcDbEntity
  8
Decoupe_2
 62
7
100
AcDbSpline
 70
8
 71
3
 72
8
 73
4
 74
0
 40
0
 40
0
 40
0
 40
0
 40
1
 40
1
 40
1
 40
1
 10
233.789760
 20
221.772221
 30
0.0
 10
233.770360
 20
221.783071
 30
0.0
 10
233.750560
 20
221.793061
 30
0.0
 10
233.730060
 20
221.801611
 30
0.0
  0
SPLINE
  5
28c
100
AcDbEntity
  8
Decoupe_2
 62
7
100
AcDbSpline
 70
8
 71
3
 72
8
 73
4
 74
0
 40
0
 40
0
 40
0
 40
0
 40
1
 40
1
 40
1
 40
1
 10
233.730060
 20
221.801611
 30
0.0
 10
233.729130
 20
221.802162
 30
0.0
 10
233.728060
 20
221.802563
 30
0.0
 10
233.725060
 20
221.803111
 30
0.0
  0
SPLINE
  5
28d
100
AcDbEntity
  8
Decoupe_2
 62
7
100
AcDbSpline
 70
8
 71
3
 72
8
 73
4
 74
0
 40
0
 40
0
 40
0
 40
0
 40
1
 40
1
 40
1
 40
1
 10
233.725060
 20
221.803111
 30
0.0
 10
233.706460
 20
221.810711
 30
0.0
 10
233.687260
 20
221.816981
 30
0.0
 10
233.667660
 20
221.822491
 30
0.0
  0
SPLINE
  5
28e
100
AcDbEntity
  8
Decoupe_2
 62
7
100
AcDbSpline
 70
8
 71
3
 72
8
 73
4
 74
0
 40
0
 40
0
 40
0
 40
0
 40
1
 40
1
 40
1
 40
1
 10
233.667660
 20
221.822491
 30
0.0
 10
233.661660
 20
221.823891
 30
0.0
 10
233.658660
 20
221.825391
 30
0.0
 10
233.651660
 20
221.826591
 30
0.0
  0
SPLINE
  5
28f
100
AcDbEntity
  8
Decoupe_2
 62
7
100
AcDbSpline
 70
8
 71
3
 72
8
 73
4
 74
0
 40
0
 40
0
 40
0
 40
0
 40
1
 40
1
 40
1
 40
1
 10
233.651660
 20
221.826591
 30
0.0
 10
233.635360
 20
221.830591
 30
0.0
 10
233.618660
 20
221.833791
 30
0.0
 10
233.601960
 20
221.836491
 30
0.0
  0
SPLINE
  5
290
100
AcDbEntity
  8
Decoupe_2
 62
7
100
AcDbSpline
 70
8
 71
3
 72
8
 73
4
 74
0
 40
0
 40
0
 40
0
 40
0
 40
1
 40
1
 40
1
 40
1
 10
233.601960
 20
221.836491
 30
0.0
 10
233.595960
 20
221.837316
 30
0.0
 10
233.589960
 20
221.838291
 30
0.0
 10
233.585760
 20
221.838991
 30
0.0
  0
SPLINE
  5
291
100
AcDbEntity
  8
Decoupe_2
 62
7
100
AcDbSpline
 70
8
 71
3
 72
8
 73
4
 74
0
 40
0
 40
0
 40
0
 40
0
 40
1
 40
1
 40
1
 40
1
 10
233.585760
 20
221.838991
 30
0.0
 10
233.564360
 20
221.841491
 30
0.0
 10
233.542760
 20
221.843291
 30
0.0
 10
233.520660
 20
221.843291
 30
0.0
  0
SPLINE
  5
292
100
AcDbEntity
  8
Decoupe_2
 62
7
100
AcDbSpline
 70
8
 71
3
 72
8
 73
4
 74
0
 40
0
 40
0
 40
0
 40
0
 40
1
 40
1
 40
1
 40
1
 10
233.520660
 20
221.843291
 30
0.0
 10
233.498660
 20
221.843291
 30
0.0
 10
233.476960
 20
221.841591
 30
0.0
 10
233.455560
 20
221.838991
 30
0.0
  0
SPLINE
  5
293
100
AcDbEntity
  8
Decoupe_2
 62
7
100
AcDbSpline
 70
8
 71
3
 72
8
 73
4
 74
0
 40
0
 40
0
 40
0
 40
0
 40
1
 40
1
 40
1
 40
1
 10
233.455560
 20
221.838991
 30
0.0
 10
233.449560
 20
221.838335
 30
0.0
 10
233.445360
 20
221.837391
 30
0.0
 10
233.439560
 20
221.836491
 30
0.0
  0
SPLINE
  5
294
100
AcDbEntity
  8
Decoupe_2
 62
7
100
AcDbSpline
 70
8
 71
3
 72
8
 73
4
 74
0
 40
0
 40
0
 40
0
 40
0
 40
1
 40
1
 40
1
 40
1
 10
233.439560
 20
221.836491
 30
0.0
 10
233.422860
 20
221.833991
 30
0.0
 10
233.405960
 20
221.830791
 30
0.0
 10
233.389860
 20
221.826591
 30
0.0
  0
SPLINE
  5
295
100
AcDbEntity
  8
Decoupe_2
 62
7
100
AcDbSpline
 70
8
 71
3
 72
8
 73
4
 74
0
 40
0
 40
0
 40
0
 40
0
 40
1
 40
1
 40
1
 40
1
 10
233.389860
 20
221.826591
 30
0.0
 10
233.383860
 20
221.825391
 30
0.0
 10
233.380860
 20
221.823891
 30
0.0
 10
233.373860
 20
221.822491
 30
0.0
  0
SPLINE
  5
296
100
AcDbEntity
  8
Decoupe_2
 62
7
100
AcDbSpline
 70
8
 71
3
 72
8
 73
4
 74
0
 40
0
 40
0
 40
0
 40
0
 40
1
 40
1
 40
1
 40
1
 10
233.373860
 20
221.822491
 30
0.0
 10
233.354360
 20
221.817091
 30
0.0
 10
233.335060
 20
221.810681
 30
0.0
 10
233.316460
 20
221.803111
 30
0.0
  0
SPLINE
  5
297
100
AcDbEntity
  8
Decoupe_2
 62
7
100
AcDbSpline
 70
8
 71
3
 72
8
 73
4
 74
0
 40
0
 40
0
 40
0
 40
0
 40
1
 40
1
 40
1
 40
1
 10
233.316460
 20
221.803111
 30
0.0
 10
233.315530
 20
221.802562
 30
0.0
 10
233.314460
 20
221.802159
 30
0.0
 10
233.311460
 20
221.801611
 30
0.0
  0
SPLINE
  5
298
100
AcDbEntity
  8
Decoupe_2
 62
7
100
AcDbSpline
 70
8
 71
3
 72
8
 73
4
 74
0
 40
0
 40
0
 40
0
 40
0
 40
1
 40
1
 40
1
 40
1
 10
233.311460
 20
221.801611
 30
0.0
 10
233.290760
 20
221.793011
 30
0.0
 10
233.271160
 20
221.783151
 30
0.0
 10
233.251660
 20
221.772221
 30
0.0
  0
SPLINE
  5
299
100
AcDbEntity
  8
Decoupe_2
 62
7
100
AcDbSpline
 70
8
 71
3
 72
8
 73
4
 74
0
 40
0
 40
0
 40
0
 40
0
 40
1
 40
1
 40
1
 40
1
 10
233.251660
 20
221.772221
 30
0.0
 10
233.250720
 20
221.771398
 30
0.0
 10
233.249660
 20
221.771021
 30
0.0
 10
233.246660
 20
221.770121
 30
0.0
  0
LWPOLYLINE
  5
29a
100
AcDbEntity
  8
Decoupe_2
 62
7
100
AcDbPolyline
 90
2
 70
0
 10
244.572110
 20
215.547075
 30
0.0
 10
233.794760
 20
221.770121
 30
0.0
  0
SPLINE
  5
29b
100
AcDbEntity
  8
Decoupe_2
 62
7
100
AcDbSpline
 70
8
 71
3
 72
8
 73
4
 74
0
 40
0
 40
0
 40
0
 40
0
 40
1
 40
1
 40
1
 40
1
 10
222.467810
 20
215.546976
 30
0.0
 10
222.465810
 20
215.546069
 30
0.0
 10
222.465810
 20
215.544176
 30
0.0
 10
222.462810
 20
215.544176
 30
0.0
  0
SPLINE
  5
29c
100
AcDbEntity
  8
Decoupe_2
 62
7
100
AcDbSpline
 70
8
 71
3
 72
8
 73
4
 74
0
 40
0
 40
0
 40
0
 40
0
 40
1
 40
1
 40
1
 40
1
 10
222.462810
 20
215.544176
 30
0.0
 10
222.443810
 20
215.532846
 30
0.0
 10
222.425310
 20
215.520826
 30
0.0
 10
222.407710
 20
215.507216
 30
0.0
  0
SPLINE
  5
29d
100
AcDbEntity
  8
Decoupe_2
 62
7
100
AcDbSpline
 70
8
 71
3
 72
8
 73
4
 74
0
 40
0
 40
0
 40
0
 40
0
 40
1
 40
1
 40
1
 40
1
 10
222.407710
 20
215.507216
 30
0.0
 10
222.407030
 20
215.506649
 30
0.0
 10
222.406760
 20
215.506016
 30
0.0
 10
222.405710
 20
215.505716
 30
0.0
  0
SPLINE
  5
29e
100
AcDbEntity
  8
Decoupe_2
 62
7
100
AcDbSpline
 70
8
 71
3
 72
8
 73
4
 74
0
 40
0
 40
0
 40
0
 40
0
 40
1
 40
1
 40
1
 40
1
 10
222.405710
 20
215.505716
 30
0.0
 10
222.389310
 20
215.492976
 30
0.0
 10
222.373910
 20
215.479236
 30
0.0
 10
222.359010
 20
215.464656
 30
0.0
  0
SPLINE
  5
29f
100
AcDbEntity
  8
Decoupe_2
 62
7
100
AcDbSpline
 70
8
 71
3
 72
8
 73
4
 74
0
 40
0
 40
0
 40
0
 40
0
 40
1
 40
1
 40
1
 40
1
 10
222.359010
 20
215.464656
 30
0.0
 10
222.354010
 20
215.460356
 30
0.0
 10
222.351010
 20
215.456156
 30
0.0
 10
222.347010
 20
215.453326
 30
0.0
  0
SPLINE
  5
2a0
100
AcDbEntity
  8
Decoupe_2
 62
7
100
AcDbSpline
 70
8
 71
3
 72
8
 73
4
 74
0
 40
0
 40
0
 40
0
 40
0
 40
1
 40
1
 40
1
 40
1
 10
222.347010
 20
215.453326
 30
0.0
 10
222.335710
 20
215.441996
 30
0.0
 10
222.324910
 20
215.428976
 30
0.0
 10
222.314310
 20
215.415806
 30
0.0
  0
SPLINE
  5
2a1
100
AcDbEntity
  8
Decoupe_2
 62
7
100
AcDbSpline
 70
8
 71
3
 72
8
 73
4
 74
0
 40
0
 40
0
 40
0
 40
0
 40
1
 40
1
 40
1
 40
1
 10
222.314310
 20
215.415806
 30
0.0
 10
222.309310
 20
215.411506
 30
0.0
 10
222.306310
 20
215.407306
 30
0.0
 10
222.302310
 20
215.401646
 30
0.0
  0
SPLINE
  5
2a2
100
AcDbEntity
  8
Decoupe_2
 62
7
100
AcDbSpline
 70
8
 71
3
 72
8
 73
4
 74
0
 40
0
 40
0
 40
0
 40
0
 40
1
 40
1
 40
1
 40
1
 10
222.302310
 20
215.401646
 30
0.0
 10
222.289510
 20
215.385216
 30
0.0
 10
222.278610
 20
215.368236
 30
0.0
 10
222.268110
 20
215.350246
 30
0.0
  0
SPLINE
  5
2a3
100
AcDbEntity
  8
Decoupe_2
 62
7
100
AcDbSpline
 70
8
 71
3
 72
8
 73
4
 74
0
 40
0
 40
0
 40
0
 40
0
 40
1
 40
1
 40
1
 40
1
 10
222.268110
 20
215.350246
 30
0.0
 10
222.267430
 20
215.349340
 30
0.0
 10
222.267140
 20
215.348746
 30
0.0
 10
222.266110
 20
215.347446
 30
0.0
  0
SPLINE
  5
2a4
100
AcDbEntity
  8
Decoupe_2
 62
7
100
AcDbSpline
 70
8
 71
3
 72
8
 73
4
 74
0
 40
0
 40
0
 40
0
 40
0
 40
1
 40
1
 40
1
 40
1
 10
222.266110
 20
215.347446
 30
0.0
 10
222.265930
 20
215.347163
 30
0.0
 10
222.265770
 20
215.346880
 30
0.0
 10
222.265430
 20
215.346611
 30
0.0
  0
SPLINE
  5
2a5
100
AcDbEntity
  8
Decoupe_2
 62
7
100
AcDbSpline
 70
8
 71
3
 72
8
 73
4
 74
0
 40
0
 40
0
 40
0
 40
0
 40
1
 40
1
 40
1
 40
1
 10
222.265430
 20
215.346611
 30
0.0
 10
222.254130
 20
215.327641
 30
0.0
 10
222.245230
 20
215.308371
 30
0.0
 10
222.236930
 20
215.288841
 30
0.0
  0
SPLINE
  5
2a6
100
AcDbEntity
  8
Decoupe_2
 62
7
100
AcDbSpline
 70
8
 71
3
 72
8
 73
4
 74
0
 40
0
 40
0
 40
0
 40
0
 40
1
 40
1
 40
1
 40
1
 10
222.236930
 20
215.288841
 30
0.0
 10
222.234930
 20
215.284541
 30
0.0
 10
222.231930
 20
215.278941
 30
0.0
 10
222.230930
 20
215.274541
 30
0.0
  0
SPLINE
  5
2a7
100
AcDbEntity
  8
Decoupe_2
 62
7
100
AcDbSpline
 70
8
 71
3
 72
8
 73
4
 74
0
 40
0
 40
0
 40
0
 40
0
 40
1
 40
1
 40
1
 40
1
 10
222.230930
 20
215.274541
 30
0.0
 10
222.223930
 20
215.258391
 30
0.0
 10
222.219630
 20
215.242111
 30
0.0
 10
222.214330
 20
215.225831
 30
0.0
  0
SPLINE
  5
2a8
100
AcDbEntity
  8
Decoupe_2
 62
7
100
AcDbSpline
 70
8
 71
3
 72
8
 73
4
 74
0
 40
0
 40
0
 40
0
 40
0
 40
1
 40
1
 40
1
 40
1
 10
222.214330
 20
215.225831
 30
0.0
 10
222.213390
 20
215.220131
 30
0.0
 10
222.212330
 20
215.215931
 30
0.0
 10
222.209330
 20
215.210251
 30
0.0
  0
SPLINE
  5
2a9
100
AcDbEntity
  8
Decoupe_2
 62
7
100
AcDbSpline
 70
8
 71
3
 72
8
 73
4
 74
0
 40
0
 40
0
 40
0
 40
0
 40
1
 40
1
 40
1
 40
1
 10
222.209330
 20
215.210251
 30
0.0
 10
222.204330
 20
215.190851
 30
0.0
 10
222.201330
 20
215.171311
 30
0.0
 10
222.198030
 20
215.151631
 30
0.0
  0
SPLINE
  5
2aa
100
AcDbEntity
  8
Decoupe_2
 62
7
100
AcDbSpline
 70
8
 71
3
 72
8
 73
4
 74
0
 40
0
 40
0
 40
0
 40
0
 40
1
 40
1
 40
1
 40
1
 10
222.198030
 20
215.151631
 30
0.0
 10
222.197770
 20
215.150131
 30
0.0
 10
222.197340
 20
215.147331
 30
0.0
 10
222.197070
 20
215.146031
 30
0.0
  0
SPLINE
  5
2ab
100
AcDbEntity
  8
Decoupe_2
 62
7
100
AcDbSpline
 70
8
 71
3
 72
8
 73
4
 74
0
 40
0
 40
0
 40
0
 40
0
 40
1
 40
1
 40
1
 40
1
 10
222.197070
 20
215.146031
 30
0.0
 10
222.195070
 20
215.123801
 30
0.0
 10
222.192070
 20
215.101421
 30
0.0
 10
222.192070
 20
215.079051
 30
0.0
  0
SPLINE
  5
2ac
100
AcDbEntity
  8
Decoupe_2
 62
7
100
AcDbSpline
 70
8
 71
3
 72
8
 73
4
 74
0
 40
0
 40
0
 40
0
 40
0
 40
1
 40
1
 40
1
 40
1
 10
222.192070
 20
215.079051
 30
0.0
 10
222.192070
 20
215.077851
 30
0.0
 10
222.191790
 20
215.076251
 30
0.0
 10
222.191790
 20
215.074751
 30
0.0
  0
LWPOLYLINE
  5
2ad
100
AcDbEntity
  8
Decoupe_2
 62
7
100
AcDbPolyline
 90
2
 70
0
 10
233.246660
 20
221.770121
 30
0.0
 10
222.467810
 20
215.546976
 30
0.0
  0
SPLINE
  5
2ae
100
AcDbEntity
  8
Decoupe_2
 62
7
100
AcDbSpline
 70
8
 71
3
 72
8
 73
4
 74
0
 40
0
 40
0
 40
0
 40
0
 40
1
 40
1
 40
1
 40
1
 10
222.191790
 20
202.628378
 30
0.0
 10
222.191790
 20
202.626878
 30
0.0
 10
222.192070
 20
202.625578
 30
0.0
 10
222.192130
 20
202.624078
 30
0.0
  0
SPLINE
  5
2af
100
AcDbEntity
  8
Decoupe_2
 62
7
100
AcDbSpline
 70
8
 71
3
 72
8
 73
4
 74
0
 40
0
 40
0
 40
0
 40
0
 40
1
 40
1
 40
1
 40
1
 10
222.192130
 20
202.624078
 30
0.0
 10
222.192310
 20
202.601848
 30
0.0
 10
222.193080
 20
202.579748
 30
0.0
 10
222.197130
 20
202.557528
 30
0.0
  0
SPLINE
  5
2b0
100
AcDbEntity
  8
Decoupe_2
 62
7
100
AcDbSpline
 70
8
 71
3
 72
8
 73
4
 74
0
 40
0
 40
0
 40
0
 40
0
 40
1
 40
1
 40
1
 40
1
 10
222.197130
 20
202.557528
 30
0.0
 10
222.197300
 20
202.556028
 30
0.0
 10
222.197820
 20
202.554728
 30
0.0
 10
222.197820
 20
202.553228
 30
0.0
  0
SPLINE
  5
2b1
100
AcDbEntity
  8
Decoupe_2
 62
7
100
AcDbSpline
 70
8
 71
3
 72
8
 73
4
 74
0
 40
0
 40
0
 40
0
 40
0
 40
1
 40
1
 40
1
 40
1
 10
222.197820
 20
202.553228
 30
0.0
 10
222.199820
 20
202.533398
 30
0.0
 10
222.204820
 20
202.513578
 30
0.0
 10
222.209820
 20
202.493898
 30
0.0
  0
SPLINE
  5
2b2
100
AcDbEntity
  8
Decoupe_2
 62
7
100
AcDbSpline
 70
8
 71
3
 72
8
 73
4
 74
0
 40
0
 40
0
 40
0
 40
0
 40
1
 40
1
 40
1
 40
1
 10
222.209820
 20
202.493898
 30
0.0
 10
222.210770
 20
202.488298
 30
0.0
 10
222.211820
 20
202.482568
 30
0.0
 10
222.214820
 20
202.477748
 30
0.0
  0
SPLINE
  5
2b3
100
AcDbEntity
  8
Decoupe_2
 62
7
100
AcDbSpline
 70
8
 71
3
 72
8
 73
4
 74
0
 40
0
 40
0
 40
0
 40
0
 40
1
 40
1
 40
1
 40
1
 10
222.214820
 20
202.477748
 30
0.0
 10
222.219820
 20
202.461748
 30
0.0
 10
222.222820
 20
202.445888
 30
0.0
 10
222.231020
 20
202.430318
 30
0.0
  0
SPLINE
  5
2b4
100
AcDbEntity
  8
Decoupe_2
 62
7
100
AcDbSpline
 70
8
 71
3
 72
8
 73
4
 74
0
 40
0
 40
0
 40
0
 40
0
 40
1
 40
1
 40
1
 40
1
 10
222.231020
 20
202.430318
 30
0.0
 10
222.233020
 20
202.424718
 30
0.0
 10
222.236020
 20
202.420418
 30
0.0
 10
222.238020
 20
202.414468
 30
0.0
  0
SPLINE
  5
2b5
100
AcDbEntity
  8
Decoupe_2
 62
7
100
AcDbSpline
 70
8
 71
3
 72
8
 73
4
 74
0
 40
0
 40
0
 40
0
 40
0
 40
1
 40
1
 40
1
 40
1
 10
222.238020
 20
202.414468
 30
0.0
 10
222.246020
 20
202.394788
 30
0.0
 10
222.255920
 20
202.375238
 30
0.0
 10
222.266820
 20
202.356128
 30
0.0
  0
SPLINE
  5
2b6
100
AcDbEntity
  8
Decoupe_2
 62
7
100
AcDbSpline
 70
8
 71
3
 72
8
 73
4
 74
0
 40
0
 40
0
 40
0
 40
0
 40
1
 40
1
 40
1
 40
1
 10
222.266820
 20
202.356128
 30
0.0
 10
222.267160
 20
202.355489
 30
0.0
 10
222.267510
 20
202.355028
 30
0.0
 10
222.267760
 20
202.354628
 30
0.0
  0
SPLINE
  5
2b7
100
AcDbEntity
  8
Decoupe_2
 62
7
100
AcDbSpline
 70
8
 71
3
 72
8
 73
4
 74
0
 40
0
 40
0
 40
0
 40
0
 40
1
 40
1
 40
1
 40
1
 10
222.267760
 20
202.354628
 30
0.0
 10
222.279760
 20
202.334528
 30
0.0
 10
222.292360
 20
202.314978
 30
0.0
 10
222.306860
 20
202.296428
 30
0.0
  0
SPLINE
  5
2b8
100
AcDbEntity
  8
Decoupe_2
 62
7
100
AcDbSpline
 70
8
 71
3
 72
8
 73
4
 74
0
 40
0
 40
0
 40
0
 40
0
 40
1
 40
1
 40
1
 40
1
 10
222.306860
 20
202.296428
 30
0.0
 10
222.314860
 20
202.285098
 30
0.0
 10
222.324160
 20
202.276478
 30
0.0
 10
222.333060
 20
202.266558
 30
0.0
  0
SPLINE
  5
2b9
100
AcDbEntity
  8
Decoupe_2
 62
7
100
AcDbSpline
 70
8
 71
3
 72
8
 73
4
 74
0
 40
0
 40
0
 40
0
 40
0
 40
1
 40
1
 40
1
 40
1
 10
222.333060
 20
202.266558
 30
0.0
 10
222.340060
 20
202.258058
 30
0.0
 10
222.347260
 20
202.250408
 30
0.0
 10
222.354160
 20
202.242908
 30
0.0
  0
SPLINE
  5
2ba
100
AcDbEntity
  8
Decoupe_2
 62
7
100
AcDbSpline
 70
8
 71
3
 72
8
 73
4
 74
0
 40
0
 40
0
 40
0
 40
0
 40
1
 40
1
 40
1
 40
1
 10
222.354160
 20
202.242908
 30
0.0
 10
222.366160
 20
202.231578
 30
0.0
 10
222.377660
 20
202.221668
 30
0.0
 10
222.389960
 20
202.211608
 30
0.0
  0
SPLINE
  5
2bb
100
AcDbEntity
  8
Decoupe_2
 62
7
100
AcDbSpline
 70
8
 71
3
 72
8
 73
4
 74
0
 40
0
 40
0
 40
0
 40
0
 40
1
 40
1
 40
1
 40
1
 10
222.389960
 20
202.211608
 30
0.0
 10
222.395960
 20
202.206008
 30
0.0
 10
222.401960
 20
202.200278
 30
0.0
 10
222.408160
 20
202.196028
 30
0.0
  0
SPLINE
  5
2bc
100
AcDbEntity
  8
Decoupe_2
 62
7
100
AcDbSpline
 70
8
 71
3
 72
8
 73
4
 74
0
 40
0
 40
0
 40
0
 40
0
 40
1
 40
1
 40
1
 40
1
 10
222.408160
 20
202.196028
 30
0.0
 10
222.422360
 20
202.184698
 30
0.0
 10
222.436360
 20
202.176348
 30
0.0
 10
222.451160
 20
202.167288
 30
0.0
  0
SPLINE
  5
2bd
100
AcDbEntity
  8
Decoupe_2
 62
7
100
AcDbSpline
 70
8
 71
3
 72
8
 73
4
 74
0
 40
0
 40
0
 40
0
 40
0
 40
1
 40
1
 40
1
 40
1
 10
222.451160
 20
202.167288
 30
0.0
 10
222.457160
 20
202.164488
 30
0.0
 10
222.460160
 20
202.160288
 30
0.0
 10
222.466760
 20
202.157388
 30
0.0
  0
LWPOLYLINE
  5
2be
100
AcDbEntity
  8
Decoupe_2
 62
7
100
AcDbPolyline
 90
2
 70
0
 10
222.191790
 20
215.074751
 30
0.0
 10
222.191790
 20
202.628378
 30
0.0
  0
SPLINE
  5
2bf
100
AcDbEntity
  8
Decoupe_2
 62
7
100
AcDbSpline
 70
8
 71
3
 72
8
 73
4
 74
0
 40
0
 40
0
 40
0
 40
0
 40
1
 40
1
 40
1
 40
1
 10
222.468760
 20
202.155888
 30
0.0
 10
222.469460
 20
202.155619
 30
0.0
 10
222.469720
 20
202.155251
 30
0.0
 10
222.470760
 20
202.154997
 30
0.0
  0
LWPOLYLINE
  5
2c0
100
AcDbEntity
  8
Decoupe_2
 62
7
100
AcDbPolyline
 90
2
 70
0
 10
222.466760
 20
202.157388
 30
0.0
 10
222.468760
 20
202.155888
 30
0.0
  0
SPLINE
  5
2c1
100
AcDbEntity
  8
Decoupe_2
 62
7
100
AcDbSpline
 70
8
 71
3
 72
8
 73
4
 74
0
 40
0
 40
0
 40
0
 40
0
 40
1
 40
1
 40
1
 40
1
 10
230.062330
 20
197.771932
 30
0.0
 10
230.323600
 20
197.621172
 30
0.0
 10
230.657040
 20
197.710772
 30
0.0
 10
230.807620
 20
197.971610
 30
0.0
  0
SPLINE
  5
2c2
100
AcDbEntity
  8
Decoupe_2
 62
7
100
AcDbSpline
 70
8
 71
3
 72
8
 73
4
 74
0
 40
0
 40
0
 40
0
 40
0
 40
1
 40
1
 40
1
 40
1
 10
230.807620
 20
197.971610
 30
0.0
 10
230.958210
 20
198.232492
 30
0.0
 10
230.869020
 20
198.566213
 30
0.0
 10
230.607950
 20
198.716884
 30
0.0
  0
LWPOLYLINE
  5
2c3
100
AcDbEntity
  8
Decoupe_2
 62
7
100
AcDbPolyline
 90
2
 70
0
 10
222.470760
 20
202.154997
 30
0.0
 10
230.062330
 20
197.771932
 30
0.0
  0
SPLINE
  5
2c4
100
AcDbEntity
  8
Decoupe_2
 62
7
100
AcDbSpline
 70
8
 71
3
 72
8
 73
4
 74
0
 40
0
 40
0
 40
0
 40
0
 40
1
 40
1
 40
1
 40
1
 10
232.972080
 20
196.406970
 30
0.0
 10
232.972080
 20
196.405970
 30
0.0
 10
232.972340
 20
196.402970
 30
0.0
 10
232.972340
 20
196.400970
 30
0.0
  0
SPLINE
  5
2c5
100
AcDbEntity
  8
Decoupe_2
 62
7
100
AcDbSpline
 70
8
 71
3
 72
8
 73
4
 74
0
 40
0
 40
0
 40
0
 40
0
 40
1
 40
1
 40
1
 40
1
 10
232.972340
 20
196.400970
 30
0.0
 10
232.972440
 20
196.389670
 30
0.0
 10
232.973280
 20
196.377470
 30
0.0
 10
232.974340
 20
196.365670
 30
0.0
  0
SPLINE
  5
2c6
100
AcDbEntity
  8
Decoupe_2
 62
7
100
AcDbSpline
 70
8
 71
3
 72
8
 73
4
 74
0
 40
0
 40
0
 40
0
 40
0
 40
1
 40
1
 40
1
 40
1
 10
232.974340
 20
196.365670
 30
0.0
 10
232.974690
 20
196.358670
 30
0.0
 10
232.975050
 20
196.352970
 30
0.0
 10
232.975280
 20
196.346270
 30
0.0
  0
SPLINE
  5
2c7
100
AcDbEntity
  8
Decoupe_2
 62
7
100
AcDbSpline
 70
8
 71
3
 72
8
 73
4
 74
0
 40
0
 40
0
 40
0
 40
0
 40
1
 40
1
 40
1
 40
1
 10
232.975280
 20
196.346270
 30
0.0
 10
232.976250
 20
196.334970
 30
0.0
 10
232.977280
 20
196.324870
 30
0.0
 10
232.980280
 20
196.314170
 30
0.0
  0
SPLINE
  5
2c8
100
AcDbEntity
  8
Decoupe_2
 62
7
100
AcDbSpline
 70
8
 71
3
 72
8
 73
4
 74
0
 40
0
 40
0
 40
0
 40
0
 40
1
 40
1
 40
1
 40
1
 10
232.980280
 20
196.314170
 30
0.0
 10
232.981260
 20
196.307170
 30
0.0
 10
232.982280
 20
196.299270
 30
0.0
 10
232.985280
 20
196.291970
 30
0.0
  0
SPLINE
  5
2c9
100
AcDbEntity
  8
Decoupe_2
 62
7
100
AcDbSpline
 70
8
 71
3
 72
8
 73
4
 74
0
 40
0
 40
0
 40
0
 40
0
 40
1
 40
1
 40
1
 40
1
 10
232.985280
 20
196.291970
 30
0.0
 10
232.987280
 20
196.283970
 30
0.0
 10
232.990280
 20
196.274270
 30
0.0
 10
232.992280
 20
196.265470
 30
0.0
  0
SPLINE
  5
2ca
100
AcDbEntity
  8
Decoupe_2
 62
7
100
AcDbSpline
 70
8
 71
3
 72
8
 73
4
 74
0
 40
0
 40
0
 40
0
 40
0
 40
1
 40
1
 40
1
 40
1
 10
232.992280
 20
196.265470
 30
0.0
 10
232.994280
 20
196.257470
 30
0.0
 10
232.997280
 20
196.247770
 30
0.0
 10
233.000280
 20
196.239170
 30
0.0
  0
SPLINE
  5
2cb
100
AcDbEntity
  8
Decoupe_2
 62
7
100
AcDbSpline
 70
8
 71
3
 72
8
 73
4
 74
0
 40
0
 40
0
 40
0
 40
0
 40
1
 40
1
 40
1
 40
1
 10
233.000280
 20
196.239170
 30
0.0
 10
233.002280
 20
196.232170
 30
0.0
 10
233.005280
 20
196.224970
 30
0.0
 10
233.008280
 20
196.218070
 30
0.0
  0
SPLINE
  5
2cc
100
AcDbEntity
  8
Decoupe_2
 62
7
100
AcDbSpline
 70
8
 71
3
 72
8
 73
4
 74
0
 40
0
 40
0
 40
0
 40
0
 40
1
 40
1
 40
1
 40
1
 10
233.008280
 20
196.218070
 30
0.0
 10
233.013280
 20
196.208070
 30
0.0
 10
233.016280
 20
196.197870
 30
0.0
 10
233.018480
 20
196.187870
 30
0.0
  0
SPLINE
  5
2cd
100
AcDbEntity
  8
Decoupe_2
 62
7
100
AcDbSpline
 70
8
 71
3
 72
8
 73
4
 74
0
 40
0
 40
0
 40
0
 40
0
 40
1
 40
1
 40
1
 40
1
 10
233.018480
 20
196.187870
 30
0.0
 10
233.020480
 20
196.181870
 30
0.0
 10
233.024480
 20
196.176570
 30
0.0
 10
233.026480
 20
196.170070
 30
0.0
  0
SPLINE
  5
2ce
100
AcDbEntity
  8
Decoupe_2
 62
7
100
AcDbSpline
 70
8
 71
3
 72
8
 73
4
 74
0
 40
0
 40
0
 40
0
 40
0
 40
1
 40
1
 40
1
 40
1
 10
233.026480
 20
196.170070
 30
0.0
 10
233.031480
 20
196.160070
 30
0.0
 10
233.035480
 20
196.149270
 30
0.0
 10
233.042280
 20
196.139170
 30
0.0
  0
SPLINE
  5
2cf
100
AcDbEntity
  8
Decoupe_2
 62
7
100
AcDbSpline
 70
8
 71
3
 72
8
 73
4
 74
0
 40
0
 40
0
 40
0
 40
0
 40
1
 40
1
 40
1
 40
1
 10
233.042280
 20
196.139170
 30
0.0
 10
233.043210
 20
196.138170
 30
0.0
 10
233.044280
 20
196.135170
 30
0.0
 10
233.044280
 20
196.133170
 30
0.0
  0
SPLINE
  5
2d0
100
AcDbEntity
  8
Decoupe_2
 62
7
100
AcDbSpline
 70
8
 71
3
 72
8
 73
4
 74
0
 40
0
 40
0
 40
0
 40
0
 40
1
 40
1
 40
1
 40
1
 10
233.044280
 20
196.133170
 30
0.0
 10
233.046280
 20
196.130170
 30
0.0
 10
233.049280
 20
196.127170
 30
0.0
 10
233.050280
 20
196.125170
 30
0.0
  0
SPLINE
  5
2d1
100
AcDbEntity
  8
Decoupe_2
 62
7
100
AcDbSpline
 70
8
 71
3
 72
8
 73
4
 74
0
 40
0
 40
0
 40
0
 40
0
 40
1
 40
1
 40
1
 40
1
 10
233.050280
 20
196.125170
 30
0.0
 10
233.058280
 20
196.109870
 30
0.0
 10
233.069380
 20
196.095170
 30
0.0
 10
233.079880
 20
196.080870
 30
0.0
  0
SPLINE
  5
2d2
100
AcDbEntity
  8
Decoupe_2
 62
7
100
AcDbSpline
 70
8
 71
3
 72
8
 73
4
 74
0
 40
0
 40
0
 40
0
 40
0
 40
1
 40
1
 40
1
 40
1
 10
233.079880
 20
196.080870
 30
0.0
 10
233.084880
 20
196.074870
 30
0.0
 10
233.087880
 20
196.070870
 30
0.0
 10
233.091180
 20
196.065970
 30
0.0
  0
SPLINE
  5
2d3
100
AcDbEntity
  8
Decoupe_2
 62
7
100
AcDbSpline
 70
8
 71
3
 72
8
 73
4
 74
0
 40
0
 40
0
 40
0
 40
0
 40
1
 40
1
 40
1
 40
1
 10
233.091180
 20
196.065970
 30
0.0
 10
233.103980
 20
196.049670
 30
0.0
 10
233.117980
 20
196.033970
 30
0.0
 10
233.132780
 20
196.019270
 30
0.0
  0
SPLINE
  5
2d4
100
AcDbEntity
  8
Decoupe_2
 62
7
100
AcDbSpline
 70
8
 71
3
 72
8
 73
4
 74
0
 40
0
 40
0
 40
0
 40
0
 40
1
 40
1
 40
1
 40
1
 10
233.132780
 20
196.019270
 30
0.0
 10
233.137780
 20
196.015270
 30
0.0
 10
233.140780
 20
196.012270
 30
0.0
 10
233.145580
 20
196.007970
 30
0.0
  0
SPLINE
  5
2d5
100
AcDbEntity
  8
Decoupe_2
 62
7
100
AcDbSpline
 70
8
 71
3
 72
8
 73
4
 74
0
 40
0
 40
0
 40
0
 40
0
 40
1
 40
1
 40
1
 40
1
 10
233.145580
 20
196.007970
 30
0.0
 10
233.156880
 20
195.996670
 30
0.0
 10
233.169080
 20
195.986970
 30
0.0
 10
233.181380
 20
195.977270
 30
0.0
  0
SPLINE
  5
2d6
100
AcDbEntity
  8
Decoupe_2
 62
7
100
AcDbSpline
 70
8
 71
3
 72
8
 73
4
 74
0
 40
0
 40
0
 40
0
 40
0
 40
1
 40
1
 40
1
 40
1
 10
233.181380
 20
195.977270
 30
0.0
 10
233.187380
 20
195.973270
 30
0.0
 10
233.194180
 20
195.967270
 30
0.0
 10
233.199780
 20
195.963070
 30
0.0
  0
SPLINE
  5
2d7
100
AcDbEntity
  8
Decoupe_2
 62
7
100
AcDbSpline
 70
8
 71
3
 72
8
 73
4
 74
0
 40
0
 40
0
 40
0
 40
0
 40
1
 40
1
 40
1
 40
1
 10
233.199780
 20
195.963070
 30
0.0
 10
233.212580
 20
195.955070
 30
0.0
 10
233.225580
 20
195.945370
 30
0.0
 10
233.238980
 20
195.937270
 30
0.0
  0
SPLINE
  5
2d8
100
AcDbEntity
  8
Decoupe_2
 62
7
100
AcDbSpline
 70
8
 71
3
 72
8
 73
4
 74
0
 40
0
 40
0
 40
0
 40
0
 40
1
 40
1
 40
1
 40
1
 10
233.238980
 20
195.937270
 30
0.0
 10
233.243980
 20
195.934270
 30
0.0
 10
233.246980
 20
195.931270
 30
0.0
 10
233.253180
 20
195.929270
 30
0.0
  0
SPLINE
  5
2d9
100
AcDbEntity
  8
Decoupe_2
 62
7
100
AcDbSpline
 70
8
 71
3
 72
8
 73
4
 74
0
 40
0
 40
0
 40
0
 40
0
 40
1
 40
1
 40
1
 40
1
 10
233.253180
 20
195.929270
 30
0.0
 10
233.271680
 20
195.919270
 30
0.0
 10
233.291180
 20
195.909570
 30
0.0
 10
233.311080
 20
195.901370
 30
0.0
  0
SPLINE
  5
2da
100
AcDbEntity
  8
Decoupe_2
 62
7
100
AcDbSpline
 70
8
 71
3
 72
8
 73
4
 74
0
 40
0
 40
0
 40
0
 40
0
 40
1
 40
1
 40
1
 40
1
 10
233.311080
 20
195.901370
 30
0.0
 10
233.313080
 20
195.900370
 30
0.0
 10
233.317080
 20
195.900370
 30
0.0
 10
233.319080
 20
195.898370
 30
0.0
  0
SPLINE
  5
2db
100
AcDbEntity
  8
Decoupe_2
 62
7
100
AcDbSpline
 70
8
 71
3
 72
8
 73
4
 74
0
 40
0
 40
0
 40
0
 40
0
 40
1
 40
1
 40
1
 40
1
 10
233.319080
 20
195.898370
 30
0.0
 10
233.336380
 20
195.891370
 30
0.0
 10
233.353880
 20
195.885670
 30
0.0
 10
233.371980
 20
195.880770
 30
0.0
  0
SPLINE
  5
2dc
100
AcDbEntity
  8
Decoupe_2
 62
7
100
AcDbSpline
 70
8
 71
3
 72
8
 73
4
 74
0
 40
0
 40
0
 40
0
 40
0
 40
1
 40
1
 40
1
 40
1
 10
233.371980
 20
195.880770
 30
0.0
 10
233.377980
 20
195.879770
 30
0.0
 10
233.383280
 20
195.877770
 30
0.0
 10
233.388180
 20
195.876770
 30
0.0
  0
SPLINE
  5
2dd
100
AcDbEntity
  8
Decoupe_2
 62
7
100
AcDbSpline
 70
8
 71
3
 72
8
 73
4
 74
0
 40
0
 40
0
 40
0
 40
0
 40
1
 40
1
 40
1
 40
1
 10
233.388180
 20
195.876770
 30
0.0
 10
233.403980
 20
195.872770
 30
0.0
 10
233.420180
 20
195.869770
 30
0.0
 10
233.436580
 20
195.866770
 30
0.0
  0
SPLINE
  5
2de
100
AcDbEntity
  8
Decoupe_2
 62
7
100
AcDbSpline
 70
8
 71
3
 72
8
 73
4
 74
0
 40
0
 40
0
 40
0
 40
0
 40
1
 40
1
 40
1
 40
1
 10
233.436580
 20
195.866770
 30
0.0
 10
233.442580
 20
195.865870
 30
0.0
 10
233.448580
 20
195.865770
 30
0.0
 10
233.453880
 20
195.863770
 30
0.0
  0
SPLINE
  5
2df
100
AcDbEntity
  8
Decoupe_2
 62
7
100
AcDbSpline
 70
8
 71
3
 72
8
 73
4
 74
0
 40
0
 40
0
 40
0
 40
0
 40
1
 40
1
 40
1
 40
1
 10
233.453880
 20
195.863770
 30
0.0
 10
233.473680
 20
195.860770
 30
0.0
 10
233.493880
 20
195.859770
 30
0.0
 10
233.513980
 20
195.859770
 30
0.0
  0
SPLINE
  5
2e0
100
AcDbEntity
  8
Decoupe_2
 62
7
100
AcDbSpline
 70
8
 71
3
 72
8
 73
4
 74
0
 40
0
 40
0
 40
0
 40
0
 40
1
 40
1
 40
1
 40
1
 10
233.513980
 20
195.859770
 30
0.0
 10
233.514920
 20
195.859770
 30
0.0
 10
233.515980
 20
195.859480
 30
0.0
 10
233.518980
 20
195.859480
 30
0.0
  0
SPLINE
  5
2e1
100
AcDbEntity
  8
Decoupe_2
 62
7
100
AcDbSpline
 70
8
 71
3
 72
8
 73
4
 74
0
 40
0
 40
0
 40
0
 40
0
 40
1
 40
1
 40
1
 40
1
 10
233.518980
 20
195.859480
 30
0.0
 10
233.520980
 20
195.859480
 30
0.0
 10
233.524980
 20
195.859930
 30
0.0
 10
233.526980
 20
195.860050
 30
0.0
  0
SPLINE
  5
2e2
100
AcDbEntity
  8
Decoupe_2
 62
7
100
AcDbSpline
 70
8
 71
3
 72
8
 73
4
 74
0
 40
0
 40
0
 40
0
 40
0
 40
1
 40
1
 40
1
 40
1
 10
233.526980
 20
195.860050
 30
0.0
 10
233.545280
 20
195.860320
 30
0.0
 10
233.563080
 20
195.861050
 30
0.0
 10
233.580880
 20
195.863050
 30
0.0
  0
SPLINE
  5
2e3
100
AcDbEntity
  8
Decoupe_2
 62
7
100
AcDbSpline
 70
8
 71
3
 72
8
 73
4
 74
0
 40
0
 40
0
 40
0
 40
0
 40
1
 40
1
 40
1
 40
1
 10
233.580880
 20
195.863050
 30
0.0
 10
233.588880
 20
195.863870
 30
0.0
 10
233.595380
 20
195.864050
 30
0.0
 10
233.602380
 20
195.866050
 30
0.0
  0
SPLINE
  5
2e4
100
AcDbEntity
  8
Decoupe_2
 62
7
100
AcDbSpline
 70
8
 71
3
 72
8
 73
4
 74
0
 40
0
 40
0
 40
0
 40
0
 40
1
 40
1
 40
1
 40
1
 10
233.602380
 20
195.866050
 30
0.0
 10
233.616980
 20
195.869050
 30
0.0
 10
233.631680
 20
195.870050
 30
0.0
 10
233.645680
 20
195.874050
 30
0.0
  0
SPLINE
  5
2e5
100
AcDbEntity
  8
Decoupe_2
 62
7
100
AcDbSpline
 70
8
 71
3
 72
8
 73
4
 74
0
 40
0
 40
0
 40
0
 40
0
 40
1
 40
1
 40
1
 40
1
 10
233.645680
 20
195.874050
 30
0.0
 10
233.652680
 20
195.875050
 30
0.0
 10
233.659880
 20
195.877050
 30
0.0
 10
233.665880
 20
195.880050
 30
0.0
  0
SPLINE
  5
2e6
100
AcDbEntity
  8
Decoupe_2
 62
7
100
AcDbSpline
 70
8
 71
3
 72
8
 73
4
 74
0
 40
0
 40
0
 40
0
 40
0
 40
1
 40
1
 40
1
 40
1
 10
233.665880
 20
195.880050
 30
0.0
 10
233.683480
 20
195.886050
 30
0.0
 10
233.701080
 20
195.891350
 30
0.0
 10
233.717980
 20
195.897650
 30
0.0
  0
SPLINE
  5
2e7
100
AcDbEntity
  8
Decoupe_2
 62
7
100
AcDbSpline
 70
8
 71
3
 72
8
 73
4
 74
0
 40
0
 40
0
 40
0
 40
0
 40
1
 40
1
 40
1
 40
1
 10
233.717980
 20
195.897650
 30
0.0
 10
233.719980
 20
195.898650
 30
0.0
 10
233.723980
 20
195.898650
 30
0.0
 10
233.725980
 20
195.900650
 30
0.0
  0
SPLINE
  5
2e8
100
AcDbEntity
  8
Decoupe_2
 62
7
100
AcDbSpline
 70
8
 71
3
 72
8
 73
4
 74
0
 40
0
 40
0
 40
0
 40
0
 40
1
 40
1
 40
1
 40
1
 10
233.725980
 20
195.900650
 30
0.0
 10
233.746680
 20
195.908650
 30
0.0
 10
233.766280
 20
195.919050
 30
0.0
 10
233.785680
 20
195.930150
 30
0.0
  0
SPLINE
  5
2e9
100
AcDbEntity
  8
Decoupe_2
 62
7
100
AcDbSpline
 70
8
 71
3
 72
8
 73
4
 74
0
 40
0
 40
0
 40
0
 40
0
 40
1
 40
1
 40
1
 40
1
 10
233.785680
 20
195.930150
 30
0.0
 10
233.786640
 20
195.930970
 30
0.0
 10
233.787680
 20
195.931150
 30
0.0
 10
233.790680
 20
195.931150
 30
0.0
  0
LWPOLYLINE
  5
2ea
100
AcDbEntity
  8
Decoupe_2
 62
7
100
AcDbPolyline
 90
5
 70
0
 10
230.607950
 20
198.716884
 30
0.0
 10
223.829990
 20
202.630113
 30
0.0
 10
226.019900
 20
203.894412
 30
0.0
 10
232.972080
 20
199.880624
 30
0.0
 10
232.972080
 20
196.406970
 30
0.0
  0
SPLINE
  5
2eb
100
AcDbEntity
  8
Decoupe_2
 62
7
100
AcDbSpline
 70
8
 71
3
 72
8
 73
4
 74
0
 40
0
 40
0
 40
0
 40
0
 40
1
 40
1
 40
1
 40
1
 10
244.570010
 20
202.154324
 30
0.0
 10
244.738770
 20
202.251744
 30
0.0
 10
244.842790
 20
202.431939
 30
0.0
 10
244.842790
 20
202.626807
 30
0.0
  0
LWPOLYLINE
  5
2ec
100
AcDbEntity
  8
Decoupe_2
 62
7
100
AcDbPolyline
 90
2
 70
0
 10
233.790680
 20
195.931150
 30
0.0
 10
244.570010
 20
202.154324
 30
0.0
  0
SPLINE
  5
2ed
100
AcDbEntity
  8
Decoupe_2
 62
7
100
AcDbSpline
 70
8
 71
3
 72
8
 73
4
 74
0
 40
0
 40
0
 40
0
 40
0
 40
1
 40
1
 40
1
 40
1
 10
244.842790
 20
215.073740
 30
0.0
 10
244.843050
 20
215.075240
 30
0.0
 10
244.842790
 20
215.076540
 30
0.0
 10
244.842700
 20
215.078040
 30
0.0
  0
LWPOLYLINE
  5
2ee
100
AcDbEntity
  8
Decoupe_2
 62
7
100
AcDbPolyline
 90
2
 70
0
 10
244.842790
 20
202.626807
 30
0.0
 10
244.842790
 20
215.073740
 30
0.0
  0
LWPOLYLINE
  5
2ef
100
AcDbEntity
  8
Decoupe_2
 62
7
100
AcDbPolyline
 90
2
 70
0
 10
244.842700
 20
215.078040
 30
0.0
 10
244.849390
 20
215.079455
 30
0.0
  0
LWPOLYLINE
  5
2f0
100
AcDbEntity
  8
Decoupe_2
 62
7
100
AcDbPolyline
 90
4
 70
1
 10
226.573140
 20
205.467674
 30
0.0
 10
226.573140
 20
212.249132
 30
0.0
 10
228.765870
 20
210.990554
 30
0.0
 10
228.765870
 20
206.733706
 30
0.0
  0
LWPOLYLINE
  5
2f1
100
AcDbEntity
  8
Decoupe_2
 62
7
100
AcDbPolyline
 90
4
 70
1
 10
223.292060
 20
214.132318
 30
0.0
 10
225.481960
 20
212.875377
 30
0.0
 10
225.481960
 20
204.837607
 30
0.0
 10
223.292060
 20
203.573307
 30
0.0
  0
LWPOLYLINE
  5
2f2
100
AcDbEntity
  8
Decoupe_2
 62
7
100
AcDbPolyline
 90
3
 70
1
 10
232.979740
 20
209.829919
 30
0.0
 10
230.424190
 20
211.296718
 30
0.0
 10
232.979740
 20
212.772085
 30
0.0
  0
LWPOLYLINE
  5
2f3
100
AcDbEntity
  8
Decoupe_2
 62
7
100
AcDbPolyline
 90
3
 70
1
 10
234.070900
 20
212.772170
 30
0.0
 10
236.648010
 20
211.284272
 30
0.0
 10
234.070900
 20
209.796443
 30
0.0
  0
LWPOLYLINE
  5
2f4
100
AcDbEntity
  8
Decoupe_2
 62
7
100
AcDbPolyline
 90
4
 70
1
 10
237.739180
 20
211.914325
 30
0.0
 10
234.070900
 20
214.032207
 30
0.0
 10
234.070900
 20
216.564082
 30
0.0
 10
239.931910
 20
213.180268
 30
0.0
  0
SPLINE
  5
2f5
100
AcDbEntity
  8
Decoupe_2
 62
7
100
AcDbSpline
 70
8
 71
3
 72
8
 73
4
 74
0
 40
0
 40
0
 40
0
 40
0
 40
1
 40
1
 40
1
 40
1
 10
228.887810
 20
215.461639
 30
0.0
 10
228.626830
 20
215.310964
 30
0.0
 10
228.537440
 20
214.977248
 30
0.0
 10
228.688130
 20
214.716367
 30
0.0
  0
SPLINE
  5
2f6
100
AcDbEntity
  8
Decoupe_2
 62
7
100
AcDbSpline
 70
8
 71
3
 72
8
 73
4
 74
0
 40
0
 40
0
 40
0
 40
0
 40
1
 40
1
 40
1
 40
1
 10
228.688130
 20
214.716367
 30
0.0
 10
228.838800
 20
214.455484
 30
0.0
 10
229.172520
 20
214.365909
 30
0.0
 10
229.433390
 20
214.516684
 30
0.0
  0
LWPOLYLINE
  5
2f7
100
AcDbEntity
  8
Decoupe_2
 62
7
100
AcDbPolyline
 90
2
 70
0
 10
232.979740
 20
217.824120
 30
0.0
 10
228.887810
 20
215.461639
 30
0.0
  0
LWPOLYLINE
  5
2f8
100
AcDbEntity
  8
Decoupe_2
 62
7
100
AcDbPolyline
 90
7
 70
0
 10
229.433390
 20
214.516684
 30
0.0
 10
232.979740
 20
216.564181
 30
0.0
 10
232.979740
 20
214.032207
 30
0.0
 10
229.329840
 20
211.924960
 30
0.0
 10
223.840020
 20
215.075999
 30
0.0
 10
232.979740
 20
220.352821
 30
0.0
 10
232.979740
 20
217.824120
 30
0.0
  0
LWPOLYLINE
  5
2f9
100
AcDbEntity
  8
Decoupe_2
 62
7
100
AcDbPolyline
 90
3
 70
1
 10
229.857070
 20
210.364139
 30
0.0
 10
232.463220
 20
208.868226
 30
0.0
 10
229.857070
 20
207.363591
 30
0.0
  0
LWPOLYLINE
  5
2fa
100
AcDbEntity
  8
Decoupe_2
 62
7
100
AcDbPolyline
 90
3
 70
1
 10
232.979740
 20
207.906448
 30
0.0
 10
232.979740
 20
204.930722
 30
0.0
 10
230.402650
 20
206.418536
 30
0.0
  0
LWPOLYLINE
  5
2fb
100
AcDbEntity
  8
Decoupe_2
 62
7
100
AcDbPolyline
 90
3
 70
1
 10
234.070900
 20
207.945528
 30
0.0
 10
236.689380
 20
206.442521
 30
0.0
 10
234.070900
 20
204.930791
 30
0.0
  0
LWPOLYLINE
  5
2fc
100
AcDbEntity
  8
Decoupe_2
 62
7
100
AcDbPolyline
 90
4
 70
1
 10
234.070900
 20
203.670853
 30
0.0
 10
237.783750
 20
205.814463
 30
0.0
 10
239.982930
 20
204.552160
 30
0.0
 10
234.070900
 20
201.138881
 30
0.0
  0
SPLINE
  5
2fd
100
AcDbEntity
  8
Decoupe_2
 62
7
100
AcDbSpline
 70
8
 71
3
 72
8
 73
4
 74
0
 40
0
 40
0
 40
0
 40
0
 40
1
 40
1
 40
1
 40
1
 10
238.284770
 20
209.033344
 30
0.0
 10
238.284770
 20
209.334591
 30
0.0
 10
238.040440
 20
209.578932
 30
0.0
 10
237.739180
 20
209.578932
 30
0.0
  0
SPLINE
  5
2fe
100
AcDbEntity
  8
Decoupe_2
 62
7
100
AcDbSpline
 70
8
 71
3
 72
8
 73
4
 74
0
 40
0
 40
0
 40
0
 40
0
 40
1
 40
1
 40
1
 40
1
 10
237.739180
 20
209.578932
 30
0.0
 10
237.437920
 20
209.578932
 30
0.0
 10
237.193600
 20
209.334591
 30
0.0
 10
237.193600
 20
209.033344
 30
0.0
  0
LWPOLYLINE
  5
2ff
100
AcDbEntity
  8
Decoupe_2
 62
7
100
AcDbPolyline
 90
2
 70
0
 10
238.284770
 20
206.785064
 30
0.0
 10
238.284770
 20
209.033344
 30
0.0
  0
LWPOLYLINE
  5
300
100
AcDbEntity
  8
Decoupe_2
 62
7
100
AcDbPolyline
 90
6
 70
0
 10
237.193600
 20
209.033344
 30
0.0
 10
237.193600
 20
207.411308
 30
0.0
 10
234.650420
 20
208.871028
 30
0.0
 10
240.477500
 20
212.235297
 30
0.0
 10
240.477500
 20
205.526395
 30
0.0
 10
238.284770
 20
206.785064
 30
0.0
  0
LWPOLYLINE
  5
301
100
AcDbEntity
  8
Decoupe_2
 62
7
100
AcDbPolyline
 90
4
 70
1
 10
241.023090
 20
213.810307
 30
0.0
 10
234.070900
 20
217.824105
 30
0.0
 10
234.070900
 20
220.352894
 30
0.0
 10
243.212980
 20
215.074712
 30
0.0
  0
LWPOLYLINE
  5
302
100
AcDbEntity
  8
Decoupe_2
 62
7
100
AcDbPolyline
 90
4
 70
1
 10
227.118740
 20
204.522694
 30
0.0
 10
229.311470
 20
205.788650
 30
0.0
 10
232.979740
 20
203.670768
 30
0.0
 10
232.979740
 20
201.138796
 30
0.0
  0
SPLINE
  5
303
100
AcDbEntity
  8
Decoupe_2
 62
7
100
AcDbSpline
 70
8
 71
3
 72
8
 73
4
 74
0
 40
0
 40
0
 40
0
 40
0
 40
1
 40
1
 40
1
 40
1
 10
242.346880
 20
203.195277
 30
0.0
 10
242.432480
 20
203.146147
 30
0.0
 10
242.525930
 20
203.122777
 30
0.0
 10
242.617930
 20
203.122777
 30
0.0
  0
SPLINE
  5
304
100
AcDbEntity
  8
Decoupe_2
 62
7
100
AcDbSpline
 70
8
 71
3
 72
8
 73
4
 74
0
 40
0
 40
0
 40
0
 40
0
 40
1
 40
1
 40
1
 40
1
 10
242.617930
 20
203.122777
 30
0.0
 10
242.806990
 20
203.122777
 30
0.0
 10
242.990850
 20
203.221187
 30
0.0
 10
243.091680
 20
203.396856
 30
0.0
  0
SPLINE
  5
305
100
AcDbEntity
  8
Decoupe_2
 62
7
100
AcDbSpline
 70
8
 71
3
 72
8
 73
4
 74
0
 40
0
 40
0
 40
0
 40
0
 40
1
 40
1
 40
1
 40
1
 10
243.091680
 20
203.396856
 30
0.0
 10
243.241640
 20
203.658192
 30
0.0
 10
243.151380
 20
203.991638
 30
0.0
 10
242.890110
 20
204.141577
 30
0.0
  0
LWPOLYLINE
  5
306
100
AcDbEntity
  8
Decoupe_2
 62
7
100
AcDbPolyline
 90
4
 70
0
 10
234.070900
 20
197.350237
 30
0.0
 10
234.070900
 20
199.878939
 30
0.0
 10
241.077280
 20
203.923997
 30
0.0
 10
242.346880
 20
203.195277
 30
0.0
  0
LWPOLYLINE
  5
307
100
AcDbEntity
  8
Decoupe_2
 62
7
100
AcDbPolyline
 90
6
 70
0
 10
242.890110
 20
204.141577
 30
0.0
 10
241.568670
 20
204.900033
 30
0.0
 10
241.568670
 20
212.865325
 30
0.0
 10
243.758590
 20
214.129642
 30
0.0
 10
243.758590
 20
202.943297
 30
0.0
 10
234.070900
 20
197.350237
 30
0.0
  0
ENDSEC
  0
SECTION
  2
OBJECTS
  0
DICTIONARY
  5
C
330
0
100
AcDbDictionary
  3
ACAD_GROUP
350
D
  3
ACAD_MLINESTYLE
350
17
  0
DICTIONARY
  5
D
330
C
100
AcDbDictionary
  0
DICTIONARY
  5
1A
330
C
100
AcDbDictionary
  0
DICTIONARY
  5
17
330
C
100
AcDbDictionary
  3
STANDARD
350
18
  0
DICTIONARY
  5
19
330
C
100
AcDbDictionary
  0
ENDSEC
  0
EOF
