<?xml version="1.0" encoding="UTF-8"?>

<svg xmlns="http://www.w3.org/2000/svg" version="1.1"
	width="297mm"
	height="210mm"
	viewBox="0 0 297 210">
	<!-- Working space 0 0 297 210 -->
	<defs>
		<radialGradient
			id="radialGradient3661"
			gradientUnits="userSpaceOnUse"
			cy="29.149"
			cx="282.65"
			gradientTransform="matrix(.14777 .23089 -.24680 .15795 -26.318 -62.617)"
			r="19.571">
				<stop stop-color="#71b2f8" offset="0"/>
				<stop stop-color="#002795" offset="1"/>
		</radialGradient>
		<radialGradient
			id="radialGradient3817"
			gradientUnits="userSpaceOnUse"
			cy="33.9"
			cx="270.58"
			gradientTransform="matrix(.26631 .065024 -.17931 .73438 -60.668 -36.938)"
			r="19.571">
				<stop stop-color="#ff6d0f" offset="0"/>
				<stop stop-color="#ff1000" offset="1"/>
		</radialGradient>
	</defs>
	<!-- Set display:none to hide FreeCAD Logo -->
	<g
		style="display:inline"
		id="freecad-logo"
		transform="translate(271, 185) scale(1)"
		fill-rule="evenodd"
		stroke-width=".45621">
		<path d="m0.22811 0.22835v13.256h2.9558v-5.1876h2.09v-2.0452h-2.09v-2.2075h5.1486v-3.8087l-8.1044-0.0075z"
			stroke="#370700"
			fill="url(#radialGradient3817)"/>
		<path d="m13.386 4.1792-1.7193 0.98645-0.75925-0.26348-0.72439-1.8513-1.1395 0.05988-0.51976 1.9144-0.72743 0.34835-1.8143-0.79367-0.76632 0.85156 0.98645 1.7193-0.26957 0.75702-1.8513 0.72439 0.065967 1.1417 1.9144 0.51976 0.34835 0.72743-0.79976 1.8121 0.85156 0.76632 1.7193-0.98645 0.76311 0.27179 0.7183 1.8491 1.1478-0.06375 0.51367-1.9166 0.72743-0.34835 1.8182 0.80198 0.76632-0.85156-0.98645-1.7193 0.2657-0.76533 1.8491-0.7183-0.05766-1.1456-1.9166-0.51367-0.34835-0.72743 0.7959-1.8204-0.85156-0.76632zm-2.5751 2.8195 0.35295 0.20478 0.30579 0.27725 0.24481 0.33087 0.17611 0.36787 0.10354 0.39656 0.01715 0.4064-0.0587 0.4063-0.13396 0.38571-0.2131 0.35681-0.26894 0.30192-0.33087 0.24481-0.36787 0.17611-0.39656 0.10354-0.40863 0.02325-0.4063-0.0587-0.38571-0.13396-0.35681-0.2131-0.2997-0.27503-0.24703-0.32478-0.17611-0.36787-0.10132-0.40264-0.02324-0.40863 0.05869-0.4063 0.13396-0.38571 0.21087-0.35072 0.27116-0.30801 0.33087-0.24481 0.36787-0.17611 0.40264-0.10132 0.40641-0.01715 0.4063 0.05869 0.38571 0.13396z" 
		stroke="#000137"
		fill="url(#radialGradient3661)"/>
	</g>
<g id="Ortho_0_0"
   transform="rotate(-90,188,103) translate(188,103) scale(1,1)"
  >
<g   stroke="rgb(0, 0, 0)"
   stroke-width="0.35"
   stroke-linecap="butt"
   stroke-linejoin="miter"
   fill="none"
   transform="scale(1,-1)"
  >
<path id= "1" d=" M 96 -72 L 96 -102 " />
<path id= "2" d=" M 56.5 -27 L 96 -72 " />
<path id= "3" d=" M 96 -102 L 91 -102 " />
<path id= "4" d=" M 91 -99.05 L 91 -102 " />
<path id= "5" d=" M 85 -99.05 L 91 -99.05 " />
<path id= "6" d=" M 85 -102 L 85 -99.05 " />
<path id= "7" d=" M 85 -102 L 77 -102 " />
<path id= "8" d=" M 77 -99.05 L 77 -102 " />
<path id= "9" d=" M 71 -99.05 L 77 -99.05 " />
<path id= "10" d=" M 71 -102 L 71 -99.05 " />
<path id= "11" d=" M 71 -102 L 66 -102 " />
<path id= "12" d=" M 66 -102 L 66 -75.1899 " />
<path id= "13" d=" M 66 -75.1899 L 0 0 " />
<path id= "14" d=" M 4.996e-016 -2.77334e-032 L 4.996e-016 18 " />
<path id= "15" d=" M 4.996e-016 18 L 15 18 " />
<path id= "16" d=" M 15 18 L 54.5 -27 " />
<path id= "17" d=" M 54.5 -27 L 56.5 -27 " />
<path id= "18" d=" M 61.95 -62.6676 L 59 -62.6676 " />
<path id= "19" d=" M 61.95 -54.6676 L 61.95 -62.6676 " />
<path id= "20" d=" M 59 -62.6676 L 59 -54.6676 " />
<path id= "21" d=" M 59 -54.6676 L 61.95 -54.6676 " />
<path id= "22" d=" M 51.95 -51.2752 L 49 -51.2752 " />
<path id= "23" d=" M 51.95 -43.2752 L 51.95 -51.2752 " />
<path id= "24" d=" M 49 -51.2752 L 49 -43.2752 " />
<path id= "25" d=" M 49 -43.2752 L 51.95 -43.2752 " />
<path id= "26" d=" M 41.95 -39.8828 L 39 -39.8828 " />
<path id= "27" d=" M 41.95 -31.8828 L 41.95 -39.8828 " />
<path id= "28" d=" M 39 -39.8828 L 39 -31.8828 " />
<path id= "29" d=" M 39 -31.8828 L 41.95 -31.8828 " />
<path id= "30" d=" M 11.95 -5.70555 L 9 -5.70555 " />
<path id= "31" d=" M 11.95 2.29445 L 11.95 -5.70555 " />
<path id= "32" d=" M 9 -5.70555 L 9 2.29445 " />
<path id= "33" d=" M 9 2.29445 L 11.95 2.29445 " />
<path id= "34" d=" M 31.95 -20.4904 L 31.95 -28.4904 " />
<path id= "35" d=" M 29 -20.4904 L 31.95 -20.4904 " />
<path id= "36" d=" M 31.95 -28.4904 L 29 -28.4904 " />
<path id= "37" d=" M 29 -28.4904 L 29 -20.4904 " />
<path id= "38" d=" M 21.95 -9.09795 L 21.95 -17.098 " />
<path id= "39" d=" M 19 -9.09795 L 21.95 -9.09795 " />
<path id= "40" d=" M 21.95 -17.098 L 19 -17.098 " />
<path id= "41" d=" M 19 -17.098 L 19 -9.09795 " />
<path id= "42" d=" M 69 -73 L 69 -65 " />
<path id= "43" d=" M 71.95 -73 L 69 -73 " />
<path id= "44" d=" M 69 -65 L 71.95 -65 " />
<path id= "45" d=" M 71.95 -65 L 71.95 -73 " />
<path id= "46" d=" M 69 -96 L 69 -88 " />
<path id= "47" d=" M 71.95 -96 L 69 -96 " />
<path id= "48" d=" M 69 -88 L 71.95 -88 " />
<path id= "49" d=" M 71.95 -88 L 71.95 -96 " />
</g>
</g>



<g id="Ortho_0_001"
   transform="rotate(-90,118,103) translate(118,103) scale(1,1)"
  >
<g   stroke="rgb(0, 0, 0)"
   stroke-width="0.35"
   stroke-linecap="butt"
   stroke-linejoin="miter"
   fill="none"
   transform="scale(1,-1)"
  >
<path id= "1" d=" M 96 -72 L 96 -75 " />
<path id= "2" d=" M 71.95 -75 L 96 -75 " />
<path id= "3" d=" M 71.95 -75 L 71.95 -88 " />
<path id= "4" d=" M 69 -88 L 71.95 -88 " />
<path id= "5" d=" M 69 -96 L 69 -88 " />
<path id= "6" d=" M 71.95 -96 L 69 -96 " />
<path id= "7" d=" M 71.95 -96 L 71.95 -102 " />
<path id= "8" d=" M 71.95 -102 L 66 -102 " />
<path id= "9" d=" M 66 -102 L 66 -75.1899 " />
<path id= "10" d=" M 66 -75.1899 L 0 -1.42109e-014 " />
<path id= "11" d=" M -3.74022e-015 -1.36678e-014 L -3.74022e-015 18 " />
<path id= "12" d=" M -3.74022e-015 18 L 15 18 " />
<path id= "13" d=" M 15 18 L 54.5 -27 " />
<path id= "14" d=" M 54.5 -27 L 56.5 -27 " />
<path id= "15" d=" M 56.5 -27 L 96 -72 " />
<path id= "16" d=" M 9 -5.70555 L 9 2.29445 " />
<path id= "17" d=" M 11.95 -5.70555 L 9 -5.70555 " />
<path id= "18" d=" M 9 2.29445 L 11.95 2.29445 " />
<path id= "19" d=" M 11.95 2.29445 L 11.95 -5.70555 " />
<path id= "20" d=" M 29 -28.4904 L 29 -20.4904 " />
<path id= "21" d=" M 31.95 -28.4904 L 29 -28.4904 " />
<path id= "22" d=" M 29 -20.4904 L 31.95 -20.4904 " />
<path id= "23" d=" M 31.95 -20.4904 L 31.95 -28.4904 " />
<path id= "24" d=" M 21.95 -9.09795 L 21.95 -17.098 " />
<path id= "25" d=" M 19 -9.09795 L 21.95 -9.09795 " />
<path id= "26" d=" M 21.95 -17.098 L 19 -17.098 " />
<path id= "27" d=" M 19 -17.098 L 19 -9.09795 " />
<path id= "28" d=" M 39 -39.8828 L 39 -31.8828 " />
<path id= "29" d=" M 41.95 -39.8828 L 39 -39.8828 " />
<path id= "30" d=" M 39 -31.8828 L 41.95 -31.8828 " />
<path id= "31" d=" M 41.95 -31.8828 L 41.95 -39.8828 " />
<path id= "32" d=" M 51.95 -43.2752 L 51.95 -51.2752 " />
<path id= "33" d=" M 49 -43.2752 L 51.95 -43.2752 " />
<path id= "34" d=" M 51.95 -51.2752 L 49 -51.2752 " />
<path id= "35" d=" M 49 -51.2752 L 49 -43.2752 " />
<path id= "36" d=" M 71.95 -73 L 69 -73 " />
<path id= "37" d=" M 71.95 -65 L 71.95 -73 " />
<path id= "38" d=" M 69 -73 L 69 -65 " />
<path id= "39" d=" M 69 -65 L 71.95 -65 " />
<path id= "40" d=" M 61.95 -54.6676 L 61.95 -62.6676 " />
<path id= "41" d=" M 59 -54.6676 L 61.95 -54.6676 " />
<path id= "42" d=" M 61.95 -62.6676 L 59 -62.6676 " />
<path id= "43" d=" M 59 -62.6676 L 59 -54.6676 " />
</g>
</g>



<g id="Ortho_0_002"
   transform="rotate(0,284.05,147.5) translate(284.05,147.5) scale(1,1)"
  >
<g   stroke="rgb(0, 0, 0)"
   stroke-width="0.35"
   stroke-linecap="butt"
   stroke-linejoin="miter"
   fill="none"
   transform="scale(1,-1)"
  >
<path id= "1" d=" M -24.05 102 L -4.05 102 " />
<path id= "2" d=" M -24.05 102 L -24.05 99.05 " />
<path id= "3" d=" M -4.05 99.05 L -4.05 102 " />
<path id= "4" d=" M 7.10543e-015 99.05 L -4.05 99.05 " />
<path id= "5" d=" M 7.10543e-015 99.05 L 7.10543e-015 95.9 " />
<path id= "6" d=" M 7.10543e-015 95.9 L 2.95 95.9 " />
<path id= "7" d=" M 2.95 95.9 L 2.95 87.95 " />
<path id= "8" d=" M 2.95 87.95 L 6.21725e-015 87.95 " />
<path id= "9" d=" M 7.10543e-015 87.95 L 7.10543e-015 72.95 " />
<path id= "10" d=" M 7.10543e-015 72.95 L 2.95 72.95 " />
<path id= "11" d=" M 2.95 72.95 L 2.95 65 " />
<path id= "12" d=" M 2.95 65 L 6.21725e-015 65 " />
<path id= "13" d=" M 7.10543e-015 65 L 7.10543e-015 57 " />
<path id= "14" d=" M -4 53 L 7.10543e-015 57 " />
<path id= "15" d=" M -4 53 L -24.1 53 " />
<path id= "16" d=" M -24.1 53 L -28.1 57 " />
<path id= "17" d=" M -28.1 65 L -28.1 57 " />
<path id= "18" d=" M -31.05 65 L -28.1 65 " />
<path id= "19" d=" M -31.05 65 L -31.05 72.95 " />
<path id= "20" d=" M -28.1 72.95 L -31.05 72.95 " />
<path id= "21" d=" M -28.1 87.95 L -28.1 72.95 " />
<path id= "22" d=" M -31.05 87.95 L -28.1 87.95 " />
<path id= "23" d=" M -31.05 87.95 L -31.05 95.9 " />
<path id= "24" d=" M -28.1 95.9 L -31.05 95.9 " />
<path id= "25" d=" M -28.1 99.05 L -28.1 95.9 " />
<path id= "26" d=" M -24.05 99.05 L -28.1 99.05 " />
<path id= "27" d=" M -23.2716 55 L -26.1 57.8284 " />
<path id= "28" d=" M -4.82843 55 L -23.2716 55 " />
<path id= "29" d=" M -26.1 57.8284 L -26.1 97 " />
<path id= "30" d=" M -2 57.8284 L -4.82843 55 " />
<path id= "31" d=" M -26.1 97 L -2 97 " />
<path id= "32" d=" M -2 97 L -2 57.8284 " />
<path id= "33" d=" M -18.6 71.5 L -18.6 55 " />
<path id= "34" d=" M -20.1 55 L -20.1 71.5 " />
<path id= "35" d=" M -20.1 71.5 L -18.6 71.5 " />
<path id= "36" d=" M -17.1 55 L -17.1 71.5 " />
<path id= "37" d=" M -17.1 71.5 L -15.6 71.5 " />
<path id= "38" d=" M -15.6 71.5 L -15.6 55 " />
<path id= "39" d=" M -8 71.5 L -9.5 71.5 " />
<path id= "40" d=" M -9.5 71.5 L -9.5 55 " />
<path id= "41" d=" M -8 55 L -8 71.5 " />
<path id= "42" d=" M -12.5 71.5 L -12.5 55 " />
<path id= "43" d=" M -11 55 L -11 71.5 " />
<path id= "44" d=" M -11 71.5 L -12.5 71.5 " />
<path id= "45" d=" M -6.5 71.5 L -6.5 55 " />
<path id= "46" d=" M -5 55 L -5 71.5 " />
<path id= "47" d=" M -5 71.5 L -6.5 71.5 " />
<path id= "48" d=" M -21.6 71.5 L -21.6 55 " />
<path id= "49" d=" M -23.1 71.5 L -21.6 71.5 " />
<path id= "50" d=" M -23.1 55 L -23.1 71.5 " />
<path id= "51" d=" M -2 71.5 L -3.5 71.5 " />
<path id= "52" d=" M -3.5 71.5 L -3.5 56.3284 " />
<path id= "53" d=" M -26.1 71.5 L -24.6 71.5 " />
<path id= "54" d=" M -24.6 71.5 L -24.6 56.3284 " />
<path id= "55" d=" M -23.2716 55 L -24.6 56.3284 " />
</g>
</g>



<g id="Ortho_0_003"
   transform="rotate(180,144.05,-11.3828) translate(144.05,-11.3828) scale(1,1)"
  >
<g   stroke="rgb(0, 0, 0)"
   stroke-width="0.35"
   stroke-linecap="butt"
   stroke-linejoin="miter"
   fill="none"
   transform="scale(1,-1)"
  >
<path id= "1" d=" M 31.05 31.8828 L 31.05 39.8828 " />
<path id= "2" d=" M 31.05 31.8828 L 28.1 31.8828 " />
<path id= "3" d=" M 28.1 39.8828 L 31.05 39.8828 " />
<path id= "4" d=" M 28.1 31.8828 L 28.1 22.8828 " />
<path id= "5" d=" M 28.1 43.8828 L 28.1 39.8828 " />
<path id= "6" d=" M 28.1 22.8828 L 24.1 18.8828 " />
<path id= "7" d=" M 28.1 43.8828 L 24.1 43.8828 " />
<path id= "8" d=" M 4 18.8828 L 24.1 18.8828 " />
<path id= "9" d=" M 24.1 43.8828 L 21.15 40.9328 " />
<path id= "10" d=" M 3.55271e-014 22.8828 L 4 18.8828 " />
<path id= "11" d=" M 21.15 40.9328 L 6.95 40.9328 " />
<path id= "12" d=" M 7.99361e-015 22.8828 L 5.9952e-015 31.8828 " />
<path id= "13" d=" M 6.95 40.9328 L 4 43.8828 " />
<path id= "14" d=" M 3.55271e-015 31.8828 L -2.95 31.8828 " />
<path id= "15" d=" M 4 43.8828 L -3.55271e-015 43.8828 " />
<path id= "16" d=" M -2.95 39.8828 L -2.95 31.8828 " />
<path id= "17" d=" M 2.9976e-015 39.8828 L 2.10942e-015 43.8828 " />
<path id= "18" d=" M -2.95 39.8828 L 1.77636e-015 39.8828 " />
<path id= "19" d=" M 6.5 20.8828 L 6.5 36.3828 " />
<path id= "20" d=" M 5 20.8828 L 6.5 20.8828 " />
<path id= "21" d=" M 5 36.3828 L 5 20.8828 " />
<path id= "22" d=" M 6.5 36.3828 L 5 36.3828 " />
<path id= "23" d=" M 9.5 20.8828 L 9.5 36.3828 " />
<path id= "24" d=" M 8 20.8828 L 9.5 20.8828 " />
<path id= "25" d=" M 8 36.3828 L 8 20.8828 " />
<path id= "26" d=" M 9.5 36.3828 L 8 36.3828 " />
<path id= "27" d=" M 11 20.8828 L 12.5 20.8828 " />
<path id= "28" d=" M 11 36.3828 L 11 20.8828 " />
<path id= "29" d=" M 12.5 36.3828 L 11 36.3828 " />
<path id= "30" d=" M 12.5 20.8828 L 12.5 36.3828 " />
<path id= "31" d=" M 18.6 20.8828 L 20.1 20.8828 " />
<path id= "32" d=" M 18.6 36.3828 L 18.6 20.8828 " />
<path id= "33" d=" M 20.1 36.3828 L 18.6 36.3828 " />
<path id= "34" d=" M 20.1 20.8828 L 20.1 36.3828 " />
<path id= "35" d=" M 17.1 20.8828 L 17.1 36.3828 " />
<path id= "36" d=" M 15.6 20.8828 L 17.1 20.8828 " />
<path id= "37" d=" M 15.6 36.3828 L 15.6 20.8828 " />
<path id= "38" d=" M 17.1 36.3828 L 15.6 36.3828 " />
<path id= "39" d=" M 3.5 22.2112 L 2 23.7112 " />
<path id= "40" d=" M 2 36.3828 L 2 23.7112 " />
<path id= "41" d=" M 3.5 36.3828 L 2 36.3828 " />
<path id= "42" d=" M 3.5 22.2112 L 3.5 36.3828 " />
<path id= "43" d=" M 26.1 23.7112 L 26.1 36.3828 " />
<path id= "44" d=" M 24.6 22.2112 L 26.1 23.7112 " />
<path id= "45" d=" M 24.6 36.3828 L 24.6 22.2112 " />
<path id= "46" d=" M 26.1 36.3828 L 24.6 36.3828 " />
<path id= "47" d=" M 21.6 36.3828 L 21.6 20.8828 " />
<path id= "48" d=" M 23.1 36.3828 L 21.6 36.3828 " />
<path id= "49" d=" M 23.1 20.8828 L 23.1 36.3828 " />
<path id= "50" d=" M 21.6 20.8828 L 23.1 20.8828 " />
</g>
</g>



<g id="Ortho_0_004"
   transform="rotate(90,114,136) translate(114,136) scale(1,1)"
  >
<g   stroke="rgb(0, 0, 0)"
   stroke-width="0.35"
   stroke-linecap="butt"
   stroke-linejoin="miter"
   fill="none"
   transform="scale(1,-1)"
  >
<path id= "1" d=" M -66 0.05 L -66 -28.05 " />
<path id= "2" d=" M -66 0.05 L -71 0.05 " />
<path id= "3" d=" M -72 -28.05 L -66 -28.05 " />
<path id= "4" d=" M -72 -31 L -72 -28.05 " />
<path id= "5" d=" M -72 -31 L -96 -31 " />
<path id= "6" d=" M -96 -31 L -96 0.05 " />
<path id= "7" d=" M -91 0.05 L -96 0.05 " />
<path id= "8" d=" M -91 3 L -91 0.05 " />
<path id= "9" d=" M -91 3 L -85 3 " />
<path id= "10" d=" M -85 0.05 L -85 3 " />
<path id= "11" d=" M -77 0.05 L -85 0.05 " />
<path id= "12" d=" M -77 3 L -77 0.05 " />
<path id= "13" d=" M -77 3 L -71 3 " />
<path id= "14" d=" M -71 0.05 L -71 3 " />
<path id= "15" d=" M -69 -4 L -69 -24 " />
<path id= "16" d=" M -71.95 -4 L -69 -4 " />
<path id= "17" d=" M -69 -24 L -71.95 -24 " />
<path id= "18" d=" M -71.95 -24 L -71.95 -4 " />
</g>
</g>



</svg>

