  0
SECTION
  2
HEADER
  9
$ACADVER
  1
AC1014
  9
$HANDSEED
  5
FFFF
  9
$MEASUREMENT
 70
     1
  0
ENDSEC
  0
SECTION
  2
TABLES
  0
TABLE
  2
VPORT
  5
8
330
0
100
AcDbSymbolTable
 70
     4
  0
VPORT
  5
2E
330
8
100
AcDbSymbolTableRecord
100
AcDbViewportTableRecord
  2
*ACTIVE
 70
     0
 10
0.0
 20
0.0
 11
1.0
 21
1.0
 12
210.0
 22
148.5
 13
0.0
 23
0.0
 14
10.0
 24
10.0
 15
10.0
 25
10.0
 16
0.0
 26
0.0
 36
1.0
 17
0.0
 27
0.0
 37
0.0
 40
341.0
 41
1.24
 42
50.0
 43
0.0
 44
0.0
 50
0.0
 51
0.0
 71
     0
 72
   100
 73
     1
 74
     3
 75
     0
 76
     0
 77
     0
 78
     0
  0
ENDTAB
  0
TABLE
  2
LTYPE
  5
5
330
0
100
AcDbSymbolTable
 70
     1
  0
LTYPE
  5
14
330
5
100
AcDbSymbolTableRecord
100
AcDbLinetypeTableRecord
  2
BYBLOCK
 70
     0
  3

 72
    65
 73
     0
 40
0.0
  0
LTYPE
  5
15
330
5
100
AcDbSymbolTableRecord
100
AcDbLinetypeTableRecord
  2
BYLAYER
 70
     0
  3

 72
    65
 73
     0
 40
0.0
  0
LTYPE
  5
16
330
5
100
AcDbSymbolTableRecord
100
AcDbLinetypeTableRecord
  2
CONTINUOUS
 70
     0
  3
Solid line
 72
    65
 73
     0
 40
0.0
  0
ENDTAB
  0
TABLE
  2
LAYER
  5
2
100
AcDbSymbolTable
 70
2
  0
LAYER
  5
50
100
AcDbSymbolTableRecord
100
AcDbLayerTableRecord
  2
0
 70
0
  6
CONTINUOUS
  0
LAYER
  5
51
100
AcDbSymbolTableRecord
100
AcDbLayerTableRecord
  2
Calque_1
 70
0
  6
CONTINUOUS
  0
ENDTAB
  0
TABLE
  2
STYLE
  5
3
330
0
100
AcDbSymbolTable
 70
     1
  0
STYLE
  5
11
330
3
100
AcDbSymbolTableRecord
100
AcDbTextStyleTableRecord
  2
STANDARD
 70
     0
 40
0.0
 41
1.0
 50
0.0
 71
     0
 42
2.5
  3
txt
  4

  0
ENDTAB
  0
TABLE
  2
VIEW
  5
6
330
0
100
AcDbSymbolTable
 70
     0
  0
ENDTAB
  0
TABLE
  2
UCS
  5
7
330
0
100
AcDbSymbolTable
 70
     0
  0
ENDTAB
  0
TABLE
  2
APPID
  5
9
330
0
100
AcDbSymbolTable
 70
     2
  0
APPID
  5
12
330
9
100
AcDbSymbolTableRecord
100
AcDbRegAppTableRecord
  2
ACAD
 70
     0
  0
ENDTAB
  0
TABLE
  2
DIMSTYLE
  5
A
330
0
100
AcDbSymbolTable
 70
     1
  0
DIMSTYLE
105
27
330
A
100
AcDbSymbolTableRecord
100
AcDbDimStyleTableRecord
  2
ISO-25
 70
     0
  3

  4

  5

  6

  7

 40
1.0
 41
2.5
 42
0.625
 43
3.75
 44
1.25
 45
0.0
 46
0.0
 47
0.0
 48
0.0
140
2.5
141
2.5
142
0.0
143
0.03937007874016
144
1.0
145
0.0
146
1.0
147
0.625
 71
     0
 72
     0
 73
     0
 74
     0
 75
     0
 76
     0
 77
     1
 78
     8
170
     0
171
     3
172
     1
173
     0
174
     0
175
     0
176
     0
177
     0
178
     0
270
     2
271
     2
272
     2
273
     2
274
     3
340
11
275
     0
280
     0
281
     0
282
     0
283
     0
284
     8
285
     0
286
     0
287
     3
288
     0
  0
ENDTAB
  0
TABLE
  2
BLOCK_RECORD
  5
1
330
0
100
AcDbSymbolTable
 70
     1
  0
BLOCK_RECORD
  5
1F
330
1
100
AcDbSymbolTableRecord
100
AcDbBlockTableRecord
  2
*MODEL_SPACE
  0
BLOCK_RECORD
  5
1B
330
1
100
AcDbSymbolTableRecord
100
AcDbBlockTableRecord
  2
*PAPER_SPACE
  0
ENDTAB
  0
ENDSEC
  0
SECTION
  2
BLOCKS
  0
BLOCK
  5
20
330
1F
100
AcDbEntity
  8
0
100
AcDbBlockBegin
  2
*MODEL_SPACE
 70
     0
 10
0.0
 20
0.0
 30
0.0
  3
*MODEL_SPACE
  1

  0
ENDBLK
  5
21
330
1F
100
AcDbEntity
  8
0
100
AcDbBlockEnd
  0
BLOCK
  5
1C
330
1B
100
AcDbEntity
 67
     1
  8
0
100
AcDbBlockBegin
  2
*PAPER_SPACE
  1

  0
ENDBLK
  5
1D
330
1B
100
AcDbEntity
 67
     1
  8
0
100
AcDbBlockEnd
  0
ENDSEC
  0
SECTION
  2
ENTITIES
  0
LWPOLYLINE
  5
100
100
AcDbEntity
  8
Calque_1
 62
7
100
AcDbPolyline
 90
2
 70
0
 10
359.840490
 20
3.836510
 30
0.0
 10
321.440490
 20
3.836510
 30
0.0
  0
LWPOLYLINE
  5
101
100
AcDbEntity
  8
Calque_1
 62
7
100
AcDbPolyline
 90
2
 70
0
 10
321.440490
 20
6.836510
 30
0.0
 10
321.440490
 20
3.836510
 30
0.0
  0
LWPOLYLINE
  5
102
100
AcDbEntity
  8
Calque_1
 62
7
100
AcDbPolyline
 90
2
 70
0
 10
359.840490
 20
30.236510
 30
0.0
 10
359.840490
 20
3.836510
 30
0.0
  0
LWPOLYLINE
  5
103
100
AcDbEntity
  8
Calque_1
 62
7
100
AcDbPolyline
 90
2
 70
0
 10
359.840490
 20
30.236510
 30
0.0
 10
356.840490
 20
30.236510
 30
0.0
  0
LWPOLYLINE
  5
104
100
AcDbEntity
  8
Calque_1
 62
7
100
AcDbPolyline
 90
2
 70
0
 10
281.440490
 20
6.836510
 30
0.0
 10
321.440490
 20
6.836510
 30
0.0
  0
LWPOLYLINE
  5
105
100
AcDbEntity
  8
Calque_1
 62
7
100
AcDbPolyline
 90
2
 70
0
 10
356.840490
 20
30.236510
 30
0.0
 10
356.840490
 20
55.236510
 30
0.0
  0
LWPOLYLINE
  5
106
100
AcDbEntity
  8
Calque_1
 62
7
100
AcDbPolyline
 90
2
 70
0
 10
281.440490
 20
3.836510
 30
0.0
 10
281.440490
 20
6.836510
 30
0.0
  0
LWPOLYLINE
  5
107
100
AcDbEntity
  8
Calque_1
 62
7
100
AcDbPolyline
 90
2
 70
0
 10
356.840490
 20
55.236510
 30
0.0
 10
359.840490
 20
55.236510
 30
0.0
  0
LWPOLYLINE
  5
108
100
AcDbEntity
  8
Calque_1
 62
7
100
AcDbPolyline
 90
2
 70
0
 10
281.440490
 20
3.836510
 30
0.0
 10
243.040490
 20
3.836510
 30
0.0
  0
LWPOLYLINE
  5
109
100
AcDbEntity
  8
Calque_1
 62
7
100
AcDbPolyline
 90
2
 70
0
 10
359.840490
 20
81.636510
 30
0.0
 10
359.840490
 20
55.236510
 30
0.0
  0
LWPOLYLINE
  5
10a
100
AcDbEntity
  8
Calque_1
 62
7
100
AcDbPolyline
 90
2
 70
0
 10
243.040490
 20
6.836510
 30
0.0
 10
243.040490
 20
3.836510
 30
0.0
  0
LWPOLYLINE
  5
10b
100
AcDbEntity
  8
Calque_1
 62
7
100
AcDbPolyline
 90
2
 70
0
 10
359.840490
 20
81.636510
 30
0.0
 10
356.840490
 20
81.636510
 30
0.0
  0
LWPOLYLINE
  5
10c
100
AcDbEntity
  8
Calque_1
 62
7
100
AcDbPolyline
 90
2
 70
0
 10
203.040490
 20
6.836510
 30
0.0
 10
243.040490
 20
6.836510
 30
0.0
  0
LWPOLYLINE
  5
10d
100
AcDbEntity
  8
Calque_1
 62
7
100
AcDbPolyline
 90
2
 70
0
 10
356.840490
 20
81.636510
 30
0.0
 10
356.840490
 20
106.636510
 30
0.0
  0
LWPOLYLINE
  5
10e
100
AcDbEntity
  8
Calque_1
 62
7
100
AcDbPolyline
 90
2
 70
0
 10
203.040490
 20
3.836510
 30
0.0
 10
203.040490
 20
6.836510
 30
0.0
  0
LWPOLYLINE
  5
10f
100
AcDbEntity
  8
Calque_1
 62
7
100
AcDbPolyline
 90
2
 70
0
 10
356.840490
 20
106.636510
 30
0.0
 10
359.840490
 20
106.636510
 30
0.0
  0
LWPOLYLINE
  5
110
100
AcDbEntity
  8
Calque_1
 62
7
100
AcDbPolyline
 90
2
 70
0
 10
203.040490
 20
3.836510
 30
0.0
 10
164.640490
 20
3.836510
 30
0.0
  0
LWPOLYLINE
  5
111
100
AcDbEntity
  8
Calque_1
 62
7
100
AcDbPolyline
 90
2
 70
0
 10
359.840490
 20
133.036510
 30
0.0
 10
359.840490
 20
106.636510
 30
0.0
  0
LWPOLYLINE
  5
112
100
AcDbEntity
  8
Calque_1
 62
7
100
AcDbPolyline
 90
2
 70
0
 10
164.640490
 20
6.836510
 30
0.0
 10
164.640490
 20
3.836510
 30
0.0
  0
LWPOLYLINE
  5
113
100
AcDbEntity
  8
Calque_1
 62
7
100
AcDbPolyline
 90
2
 70
0
 10
356.840490
 20
133.036510
 30
0.0
 10
359.840490
 20
133.036510
 30
0.0
  0
LWPOLYLINE
  5
114
100
AcDbEntity
  8
Calque_1
 62
7
100
AcDbPolyline
 90
2
 70
0
 10
124.640490
 20
6.836510
 30
0.0
 10
164.640490
 20
6.836510
 30
0.0
  0
LWPOLYLINE
  5
115
100
AcDbEntity
  8
Calque_1
 62
7
100
AcDbPolyline
 90
2
 70
0
 10
356.840490
 20
158.036510
 30
0.0
 10
356.840490
 20
133.036510
 30
0.0
  0
LWPOLYLINE
  5
116
100
AcDbEntity
  8
Calque_1
 62
7
100
AcDbPolyline
 90
2
 70
0
 10
124.640490
 20
3.836510
 30
0.0
 10
124.640490
 20
6.836510
 30
0.0
  0
LWPOLYLINE
  5
117
100
AcDbEntity
  8
Calque_1
 62
7
100
AcDbPolyline
 90
2
 70
0
 10
359.840490
 20
158.036510
 30
0.0
 10
356.840490
 20
158.036510
 30
0.0
  0
LWPOLYLINE
  5
118
100
AcDbEntity
  8
Calque_1
 62
7
100
AcDbPolyline
 90
2
 70
0
 10
124.640490
 20
3.836510
 30
0.0
 10
86.240490
 20
3.836510
 30
0.0
  0
LWPOLYLINE
  5
119
100
AcDbEntity
  8
Calque_1
 62
7
100
AcDbPolyline
 90
2
 70
0
 10
359.840490
 20
184.436510
 30
0.0
 10
359.840490
 20
158.036510
 30
0.0
  0
LWPOLYLINE
  5
11a
100
AcDbEntity
  8
Calque_1
 62
7
100
AcDbPolyline
 90
2
 70
0
 10
86.240490
 20
6.836510
 30
0.0
 10
86.240490
 20
3.836510
 30
0.0
  0
LWPOLYLINE
  5
11b
100
AcDbEntity
  8
Calque_1
 62
7
100
AcDbPolyline
 90
2
 70
0
 10
356.840490
 20
184.436510
 30
0.0
 10
359.840490
 20
184.436510
 30
0.0
  0
LWPOLYLINE
  5
11c
100
AcDbEntity
  8
Calque_1
 62
7
100
AcDbPolyline
 90
2
 70
0
 10
46.240490
 20
6.836510
 30
0.0
 10
86.240490
 20
6.836510
 30
0.0
  0
LWPOLYLINE
  5
11d
100
AcDbEntity
  8
Calque_1
 62
7
100
AcDbPolyline
 90
2
 70
0
 10
356.840490
 20
209.436510
 30
0.0
 10
356.840490
 20
184.436510
 30
0.0
  0
LWPOLYLINE
  5
11e
100
AcDbEntity
  8
Calque_1
 62
7
100
AcDbPolyline
 90
2
 70
0
 10
46.240490
 20
3.836510
 30
0.0
 10
46.240490
 20
6.836510
 30
0.0
  0
LWPOLYLINE
  5
11f
100
AcDbEntity
  8
Calque_1
 62
7
100
AcDbPolyline
 90
2
 70
0
 10
359.840490
 20
209.436510
 30
0.0
 10
356.840490
 20
209.436510
 30
0.0
  0
LWPOLYLINE
  5
120
100
AcDbEntity
  8
Calque_1
 62
7
100
AcDbPolyline
 90
2
 70
0
 10
46.240490
 20
3.836510
 30
0.0
 10
7.840490
 20
3.836510
 30
0.0
  0
LWPOLYLINE
  5
121
100
AcDbEntity
  8
Calque_1
 62
7
100
AcDbPolyline
 90
2
 70
0
 10
359.840490
 20
235.836510
 30
0.0
 10
359.840490
 20
209.436510
 30
0.0
  0
LWPOLYLINE
  5
122
100
AcDbEntity
  8
Calque_1
 62
7
100
AcDbPolyline
 90
2
 70
0
 10
7.840490
 20
3.836510
 30
0.0
 10
7.840490
 20
30.236510
 30
0.0
  0
LWPOLYLINE
  5
123
100
AcDbEntity
  8
Calque_1
 62
7
100
AcDbPolyline
 90
2
 70
0
 10
321.440490
 20
235.836510
 30
0.0
 10
359.840490
 20
235.836510
 30
0.0
  0
LWPOLYLINE
  5
124
100
AcDbEntity
  8
Calque_1
 62
7
100
AcDbPolyline
 90
2
 70
0
 10
10.840490
 20
30.236510
 30
0.0
 10
7.840490
 20
30.236510
 30
0.0
  0
LWPOLYLINE
  5
125
100
AcDbEntity
  8
Calque_1
 62
7
100
AcDbPolyline
 90
2
 70
0
 10
321.440490
 20
232.836510
 30
0.0
 10
321.440490
 20
235.836510
 30
0.0
  0
LWPOLYLINE
  5
126
100
AcDbEntity
  8
Calque_1
 62
7
100
AcDbPolyline
 90
2
 70
0
 10
10.840490
 20
55.236510
 30
0.0
 10
10.840490
 20
30.236510
 30
0.0
  0
LWPOLYLINE
  5
127
100
AcDbEntity
  8
Calque_1
 62
7
100
AcDbPolyline
 90
2
 70
0
 10
281.440490
 20
232.836510
 30
0.0
 10
321.440490
 20
232.836510
 30
0.0
  0
LWPOLYLINE
  5
128
100
AcDbEntity
  8
Calque_1
 62
7
100
AcDbPolyline
 90
2
 70
0
 10
7.840490
 20
55.236510
 30
0.0
 10
10.840490
 20
55.236510
 30
0.0
  0
LWPOLYLINE
  5
129
100
AcDbEntity
  8
Calque_1
 62
7
100
AcDbPolyline
 90
2
 70
0
 10
281.440490
 20
235.836510
 30
0.0
 10
281.440490
 20
232.836510
 30
0.0
  0
LWPOLYLINE
  5
12a
100
AcDbEntity
  8
Calque_1
 62
7
100
AcDbPolyline
 90
2
 70
0
 10
7.840490
 20
55.236510
 30
0.0
 10
7.840490
 20
81.636510
 30
0.0
  0
LWPOLYLINE
  5
12b
100
AcDbEntity
  8
Calque_1
 62
7
100
AcDbPolyline
 90
2
 70
0
 10
243.040490
 20
235.836510
 30
0.0
 10
281.440490
 20
235.836510
 30
0.0
  0
LWPOLYLINE
  5
12c
100
AcDbEntity
  8
Calque_1
 62
7
100
AcDbPolyline
 90
2
 70
0
 10
10.840490
 20
81.636510
 30
0.0
 10
7.840490
 20
81.636510
 30
0.0
  0
LWPOLYLINE
  5
12d
100
AcDbEntity
  8
Calque_1
 62
7
100
AcDbPolyline
 90
2
 70
0
 10
243.040490
 20
232.836510
 30
0.0
 10
243.040490
 20
235.836510
 30
0.0
  0
LWPOLYLINE
  5
12e
100
AcDbEntity
  8
Calque_1
 62
7
100
AcDbPolyline
 90
2
 70
0
 10
10.840490
 20
106.636510
 30
0.0
 10
10.840490
 20
81.636510
 30
0.0
  0
LWPOLYLINE
  5
12f
100
AcDbEntity
  8
Calque_1
 62
7
100
AcDbPolyline
 90
2
 70
0
 10
203.040490
 20
232.836510
 30
0.0
 10
243.040490
 20
232.836510
 30
0.0
  0
LWPOLYLINE
  5
130
100
AcDbEntity
  8
Calque_1
 62
7
100
AcDbPolyline
 90
2
 70
0
 10
7.840490
 20
106.636510
 30
0.0
 10
10.840490
 20
106.636510
 30
0.0
  0
LWPOLYLINE
  5
131
100
AcDbEntity
  8
Calque_1
 62
7
100
AcDbPolyline
 90
2
 70
0
 10
203.040490
 20
235.836510
 30
0.0
 10
203.040490
 20
232.836510
 30
0.0
  0
LWPOLYLINE
  5
132
100
AcDbEntity
  8
Calque_1
 62
7
100
AcDbPolyline
 90
2
 70
0
 10
7.840490
 20
106.636510
 30
0.0
 10
7.840490
 20
133.036510
 30
0.0
  0
LWPOLYLINE
  5
133
100
AcDbEntity
  8
Calque_1
 62
7
100
AcDbPolyline
 90
2
 70
0
 10
164.640490
 20
235.836510
 30
0.0
 10
203.040490
 20
235.836510
 30
0.0
  0
LWPOLYLINE
  5
134
100
AcDbEntity
  8
Calque_1
 62
7
100
AcDbPolyline
 90
2
 70
0
 10
7.840490
 20
133.036510
 30
0.0
 10
10.840490
 20
133.036510
 30
0.0
  0
LWPOLYLINE
  5
135
100
AcDbEntity
  8
Calque_1
 62
7
100
AcDbPolyline
 90
2
 70
0
 10
164.640490
 20
232.836510
 30
0.0
 10
164.640490
 20
235.836510
 30
0.0
  0
LWPOLYLINE
  5
136
100
AcDbEntity
  8
Calque_1
 62
7
100
AcDbPolyline
 90
2
 70
0
 10
10.840490
 20
133.036510
 30
0.0
 10
10.840490
 20
158.036510
 30
0.0
  0
LWPOLYLINE
  5
137
100
AcDbEntity
  8
Calque_1
 62
7
100
AcDbPolyline
 90
2
 70
0
 10
124.640490
 20
232.836510
 30
0.0
 10
164.640490
 20
232.836510
 30
0.0
  0
LWPOLYLINE
  5
138
100
AcDbEntity
  8
Calque_1
 62
7
100
AcDbPolyline
 90
2
 70
0
 10
10.840490
 20
158.036510
 30
0.0
 10
7.840490
 20
158.036510
 30
0.0
  0
LWPOLYLINE
  5
139
100
AcDbEntity
  8
Calque_1
 62
7
100
AcDbPolyline
 90
2
 70
0
 10
124.640490
 20
235.836510
 30
0.0
 10
124.640490
 20
232.836510
 30
0.0
  0
LWPOLYLINE
  5
13a
100
AcDbEntity
  8
Calque_1
 62
7
100
AcDbPolyline
 90
2
 70
0
 10
7.840490
 20
158.036510
 30
0.0
 10
7.840490
 20
184.436510
 30
0.0
  0
LWPOLYLINE
  5
13b
100
AcDbEntity
  8
Calque_1
 62
7
100
AcDbPolyline
 90
2
 70
0
 10
86.240490
 20
235.836510
 30
0.0
 10
124.640490
 20
235.836510
 30
0.0
  0
LWPOLYLINE
  5
13c
100
AcDbEntity
  8
Calque_1
 62
7
100
AcDbPolyline
 90
2
 70
0
 10
7.840490
 20
184.436510
 30
0.0
 10
10.840490
 20
184.436510
 30
0.0
  0
LWPOLYLINE
  5
13d
100
AcDbEntity
  8
Calque_1
 62
7
100
AcDbPolyline
 90
2
 70
0
 10
86.240490
 20
232.836510
 30
0.0
 10
86.240490
 20
235.836510
 30
0.0
  0
LWPOLYLINE
  5
13e
100
AcDbEntity
  8
Calque_1
 62
7
100
AcDbPolyline
 90
2
 70
0
 10
10.840490
 20
184.436510
 30
0.0
 10
10.840490
 20
209.436510
 30
0.0
  0
LWPOLYLINE
  5
13f
100
AcDbEntity
  8
Calque_1
 62
7
100
AcDbPolyline
 90
2
 70
0
 10
46.240490
 20
232.836510
 30
0.0
 10
86.240490
 20
232.836510
 30
0.0
  0
LWPOLYLINE
  5
140
100
AcDbEntity
  8
Calque_1
 62
7
100
AcDbPolyline
 90
2
 70
0
 10
10.840490
 20
209.436510
 30
0.0
 10
7.840490
 20
209.436510
 30
0.0
  0
LWPOLYLINE
  5
141
100
AcDbEntity
  8
Calque_1
 62
7
100
AcDbPolyline
 90
2
 70
0
 10
46.240490
 20
235.836510
 30
0.0
 10
46.240490
 20
232.836510
 30
0.0
  0
LWPOLYLINE
  5
142
100
AcDbEntity
  8
Calque_1
 62
7
100
AcDbPolyline
 90
3
 70
0
 10
7.840490
 20
209.436510
 30
0.0
 10
7.840490
 20
235.836510
 30
0.0
 10
46.240490
 20
235.836510
 30
0.0
  0
LWPOLYLINE
  5
143
100
AcDbEntity
  8
Calque_1
 62
5
100
AcDbPolyline
 90
2
 70
0
 10
353.840490
 20
22.036510
 30
0.0
 10
356.840490
 20
22.036510
 30
0.0
  0
LWPOLYLINE
  5
144
100
AcDbEntity
  8
Calque_1
 62
5
100
AcDbPolyline
 90
2
 70
0
 10
353.840490
 20
12.036510
 30
0.0
 10
353.840490
 20
22.036510
 30
0.0
  0
LWPOLYLINE
  5
145
100
AcDbEntity
  8
Calque_1
 62
5
100
AcDbPolyline
 90
3
 70
0
 10
356.840490
 20
22.036510
 30
0.0
 10
356.840490
 20
12.036510
 30
0.0
 10
353.840490
 20
12.036510
 30
0.0
  0
LWPOLYLINE
  5
146
100
AcDbEntity
  8
Calque_1
 62
5
100
AcDbPolyline
 90
2
 70
0
 10
316.840490
 20
14.836510
 30
0.0
 10
313.840490
 20
14.836510
 30
0.0
  0
LWPOLYLINE
  5
147
100
AcDbEntity
  8
Calque_1
 62
5
100
AcDbPolyline
 90
2
 70
0
 10
316.840490
 20
44.836510
 30
0.0
 10
316.840490
 20
14.836510
 30
0.0
  0
LWPOLYLINE
  5
148
100
AcDbEntity
  8
Calque_1
 62
5
100
AcDbPolyline
 90
3
 70
0
 10
313.840490
 20
14.836510
 30
0.0
 10
313.840490
 20
44.836510
 30
0.0
 10
316.840490
 20
44.836510
 30
0.0
  0
LWPOLYLINE
  5
149
100
AcDbEntity
  8
Calque_1
 62
5
100
AcDbPolyline
 90
2
 70
0
 10
345.640490
 20
6.836510
 30
0.0
 10
335.640490
 20
6.836510
 30
0.0
  0
LWPOLYLINE
  5
14a
100
AcDbEntity
  8
Calque_1
 62
5
100
AcDbPolyline
 90
2
 70
0
 10
345.640490
 20
9.836510
 30
0.0
 10
345.640490
 20
6.836510
 30
0.0
  0
LWPOLYLINE
  5
14b
100
AcDbEntity
  8
Calque_1
 62
5
100
AcDbPolyline
 90
3
 70
0
 10
335.640490
 20
6.836510
 30
0.0
 10
335.640490
 20
9.836510
 30
0.0
 10
345.640490
 20
9.836510
 30
0.0
  0
LWPOLYLINE
  5
14c
100
AcDbEntity
  8
Calque_1
 62
5
100
AcDbPolyline
 90
2
 70
0
 10
178.840490
 20
9.836510
 30
0.0
 10
188.840490
 20
9.836510
 30
0.0
  0
LWPOLYLINE
  5
14d
100
AcDbEntity
  8
Calque_1
 62
5
100
AcDbPolyline
 90
2
 70
0
 10
178.840490
 20
6.836510
 30
0.0
 10
178.840490
 20
9.836510
 30
0.0
  0
LWPOLYLINE
  5
14e
100
AcDbEntity
  8
Calque_1
 62
5
100
AcDbPolyline
 90
3
 70
0
 10
188.840490
 20
9.836510
 30
0.0
 10
188.840490
 20
6.836510
 30
0.0
 10
178.840490
 20
6.836510
 30
0.0
  0
LWPOLYLINE
  5
14f
100
AcDbEntity
  8
Calque_1
 62
5
100
AcDbPolyline
 90
2
 70
0
 10
267.240490
 20
9.836510
 30
0.0
 10
267.240490
 20
6.836510
 30
0.0
  0
LWPOLYLINE
  5
150
100
AcDbEntity
  8
Calque_1
 62
5
100
AcDbPolyline
 90
2
 70
0
 10
257.240490
 20
9.836510
 30
0.0
 10
267.240490
 20
9.836510
 30
0.0
  0
LWPOLYLINE
  5
151
100
AcDbEntity
  8
Calque_1
 62
5
100
AcDbPolyline
 90
3
 70
0
 10
267.240490
 20
6.836510
 30
0.0
 10
257.240490
 20
6.836510
 30
0.0
 10
257.240490
 20
9.836510
 30
0.0
  0
LWPOLYLINE
  5
152
100
AcDbEntity
  8
Calque_1
 62
5
100
AcDbPolyline
 90
2
 70
0
 10
353.840490
 20
63.436510
 30
0.0
 10
353.840490
 20
73.436510
 30
0.0
  0
LWPOLYLINE
  5
153
100
AcDbEntity
  8
Calque_1
 62
5
100
AcDbPolyline
 90
2
 70
0
 10
356.840490
 20
63.436510
 30
0.0
 10
353.840490
 20
63.436510
 30
0.0
  0
LWPOLYLINE
  5
154
100
AcDbEntity
  8
Calque_1
 62
5
100
AcDbPolyline
 90
3
 70
0
 10
353.840490
 20
73.436510
 30
0.0
 10
356.840490
 20
73.436510
 30
0.0
 10
356.840490
 20
63.436510
 30
0.0
  0
LWPOLYLINE
  5
155
100
AcDbEntity
  8
Calque_1
 62
5
100
AcDbPolyline
 90
2
 70
0
 10
13.840490
 20
63.436510
 30
0.0
 10
10.840490
 20
63.436510
 30
0.0
  0
LWPOLYLINE
  5
156
100
AcDbEntity
  8
Calque_1
 62
5
100
AcDbPolyline
 90
2
 70
0
 10
13.840490
 20
73.436510
 30
0.0
 10
13.840490
 20
63.436510
 30
0.0
  0
LWPOLYLINE
  5
157
100
AcDbEntity
  8
Calque_1
 62
5
100
AcDbPolyline
 90
3
 70
0
 10
10.840490
 20
63.436510
 30
0.0
 10
10.840490
 20
73.436510
 30
0.0
 10
13.840490
 20
73.436510
 30
0.0
  0
LWPOLYLINE
  5
158
100
AcDbEntity
  8
Calque_1
 62
5
100
AcDbPolyline
 90
2
 70
0
 10
32.040490
 20
6.836510
 30
0.0
 10
22.040490
 20
6.836510
 30
0.0
  0
LWPOLYLINE
  5
159
100
AcDbEntity
  8
Calque_1
 62
5
100
AcDbPolyline
 90
2
 70
0
 10
32.040490
 20
9.836510
 30
0.0
 10
32.040490
 20
6.836510
 30
0.0
  0
LWPOLYLINE
  5
15a
100
AcDbEntity
  8
Calque_1
 62
5
100
AcDbPolyline
 90
3
 70
0
 10
22.040490
 20
6.836510
 30
0.0
 10
22.040490
 20
9.836510
 30
0.0
 10
32.040490
 20
9.836510
 30
0.0
  0
LWPOLYLINE
  5
15b
100
AcDbEntity
  8
Calque_1
 62
5
100
AcDbPolyline
 90
2
 70
0
 10
10.840490
 20
12.036510
 30
0.0
 10
10.840490
 20
22.036510
 30
0.0
  0
LWPOLYLINE
  5
15c
100
AcDbEntity
  8
Calque_1
 62
5
100
AcDbPolyline
 90
2
 70
0
 10
13.840490
 20
12.036510
 30
0.0
 10
10.840490
 20
12.036510
 30
0.0
  0
LWPOLYLINE
  5
15d
100
AcDbEntity
  8
Calque_1
 62
5
100
AcDbPolyline
 90
3
 70
0
 10
10.840490
 20
22.036510
 30
0.0
 10
13.840490
 20
22.036510
 30
0.0
 10
13.840490
 20
12.036510
 30
0.0
  0
LWPOLYLINE
  5
15e
100
AcDbEntity
  8
Calque_1
 62
5
100
AcDbPolyline
 90
2
 70
0
 10
100.440490
 20
9.836510
 30
0.0
 10
110.440490
 20
9.836510
 30
0.0
  0
LWPOLYLINE
  5
15f
100
AcDbEntity
  8
Calque_1
 62
5
100
AcDbPolyline
 90
2
 70
0
 10
100.440490
 20
6.836510
 30
0.0
 10
100.440490
 20
9.836510
 30
0.0
  0
LWPOLYLINE
  5
160
100
AcDbEntity
  8
Calque_1
 62
5
100
AcDbPolyline
 90
3
 70
0
 10
110.440490
 20
9.836510
 30
0.0
 10
110.440490
 20
6.836510
 30
0.0
 10
100.440490
 20
6.836510
 30
0.0
  0
LWPOLYLINE
  5
161
100
AcDbEntity
  8
Calque_1
 62
5
100
AcDbPolyline
 90
2
 70
0
 10
313.840490
 20
74.836510
 30
0.0
 10
313.840490
 20
104.836510
 30
0.0
  0
LWPOLYLINE
  5
162
100
AcDbEntity
  8
Calque_1
 62
5
100
AcDbPolyline
 90
2
 70
0
 10
316.840490
 20
74.836510
 30
0.0
 10
313.840490
 20
74.836510
 30
0.0
  0
LWPOLYLINE
  5
163
100
AcDbEntity
  8
Calque_1
 62
5
100
AcDbPolyline
 90
3
 70
0
 10
313.840490
 20
104.836510
 30
0.0
 10
316.840490
 20
104.836510
 30
0.0
 10
316.840490
 20
74.836510
 30
0.0
  0
LWPOLYLINE
  5
164
100
AcDbEntity
  8
Calque_1
 62
5
100
AcDbPolyline
 90
2
 70
0
 10
340.340490
 20
92.836510
 30
0.0
 10
340.340490
 20
89.836510
 30
0.0
  0
LWPOLYLINE
  5
165
100
AcDbEntity
  8
Calque_1
 62
5
100
AcDbPolyline
 90
2
 70
0
 10
330.340490
 20
92.836510
 30
0.0
 10
340.340490
 20
92.836510
 30
0.0
  0
LWPOLYLINE
  5
166
100
AcDbEntity
  8
Calque_1
 62
5
100
AcDbPolyline
 90
2
 70
0
 10
330.340490
 20
89.836510
 30
0.0
 10
330.340490
 20
92.836510
 30
0.0
  0
LWPOLYLINE
  5
167
100
AcDbEntity
  8
Calque_1
 62
5
100
AcDbPolyline
 90
2
 70
0
 10
340.340490
 20
89.836510
 30
0.0
 10
330.340490
 20
89.836510
 30
0.0
  0
LWPOLYLINE
  5
168
100
AcDbEntity
  8
Calque_1
 62
5
100
AcDbPolyline
 90
2
 70
0
 10
316.840490
 20
134.836510
 30
0.0
 10
313.840490
 20
134.836510
 30
0.0
  0
LWPOLYLINE
  5
169
100
AcDbEntity
  8
Calque_1
 62
5
100
AcDbPolyline
 90
2
 70
0
 10
316.840490
 20
164.836510
 30
0.0
 10
316.840490
 20
134.836510
 30
0.0
  0
LWPOLYLINE
  5
16a
100
AcDbEntity
  8
Calque_1
 62
5
100
AcDbPolyline
 90
3
 70
0
 10
313.840490
 20
134.836510
 30
0.0
 10
313.840490
 20
164.836510
 30
0.0
 10
316.840490
 20
164.836510
 30
0.0
  0
LWPOLYLINE
  5
16b
100
AcDbEntity
  8
Calque_1
 62
5
100
AcDbPolyline
 90
2
 70
0
 10
13.840490
 20
114.836510
 30
0.0
 10
10.840490
 20
114.836510
 30
0.0
  0
LWPOLYLINE
  5
16c
100
AcDbEntity
  8
Calque_1
 62
5
100
AcDbPolyline
 90
2
 70
0
 10
13.840490
 20
119.836510
 30
0.0
 10
13.840490
 20
114.836510
 30
0.0
  0
LWPOLYLINE
  5
16d
100
AcDbEntity
  8
Calque_1
 62
5
100
AcDbPolyline
 90
2
 70
0
 10
10.840490
 20
114.836510
 30
0.0
 10
10.840490
 20
119.836510
 30
0.0
  0
LWPOLYLINE
  5
16e
100
AcDbEntity
  8
Calque_1
 62
5
100
AcDbPolyline
 90
2
 70
0
 10
13.840490
 20
119.836510
 30
0.0
 10
13.840490
 20
124.836510
 30
0.0
  0
LWPOLYLINE
  5
16f
100
AcDbEntity
  8
Calque_1
 62
5
100
AcDbPolyline
 90
2
 70
0
 10
10.840490
 20
124.836510
 30
0.0
 10
10.840490
 20
119.836510
 30
0.0
  0
LWPOLYLINE
  5
170
100
AcDbEntity
  8
Calque_1
 62
5
100
AcDbPolyline
 90
2
 70
0
 10
13.840490
 20
124.836510
 30
0.0
 10
10.840490
 20
124.836510
 30
0.0
  0
LWPOLYLINE
  5
171
100
AcDbEntity
  8
Calque_1
 62
5
100
AcDbPolyline
 90
2
 70
0
 10
356.840490
 20
114.836510
 30
0.0
 10
353.840490
 20
114.836510
 30
0.0
  0
LWPOLYLINE
  5
172
100
AcDbEntity
  8
Calque_1
 62
5
100
AcDbPolyline
 90
2
 70
0
 10
356.840490
 20
119.836510
 30
0.0
 10
356.840490
 20
114.836510
 30
0.0
  0
LWPOLYLINE
  5
173
100
AcDbEntity
  8
Calque_1
 62
5
100
AcDbPolyline
 90
2
 70
0
 10
353.840490
 20
114.836510
 30
0.0
 10
353.840490
 20
119.836510
 30
0.0
  0
LWPOLYLINE
  5
174
100
AcDbEntity
  8
Calque_1
 62
5
100
AcDbPolyline
 90
2
 70
0
 10
356.840490
 20
119.836510
 30
0.0
 10
356.840490
 20
124.836510
 30
0.0
  0
LWPOLYLINE
  5
175
100
AcDbEntity
  8
Calque_1
 62
5
100
AcDbPolyline
 90
2
 70
0
 10
353.840490
 20
124.836510
 30
0.0
 10
353.840490
 20
119.836510
 30
0.0
  0
LWPOLYLINE
  5
176
100
AcDbEntity
  8
Calque_1
 62
5
100
AcDbPolyline
 90
2
 70
0
 10
356.840490
 20
124.836510
 30
0.0
 10
353.840490
 20
124.836510
 30
0.0
  0
LWPOLYLINE
  5
177
100
AcDbEntity
  8
Calque_1
 62
5
100
AcDbPolyline
 90
2
 70
0
 10
13.840490
 20
217.636510
 30
0.0
 10
13.840490
 20
227.636510
 30
0.0
  0
LWPOLYLINE
  5
178
100
AcDbEntity
  8
Calque_1
 62
5
100
AcDbPolyline
 90
2
 70
0
 10
10.840490
 20
217.636510
 30
0.0
 10
13.840490
 20
217.636510
 30
0.0
  0
LWPOLYLINE
  5
179
100
AcDbEntity
  8
Calque_1
 62
5
100
AcDbPolyline
 90
3
 70
0
 10
13.840490
 20
227.636510
 30
0.0
 10
10.840490
 20
227.636510
 30
0.0
 10
10.840490
 20
217.636510
 30
0.0
  0
LWPOLYLINE
  5
17a
100
AcDbEntity
  8
Calque_1
 62
5
100
AcDbPolyline
 90
2
 70
0
 10
10.840490
 20
166.236510
 30
0.0
 10
13.840490
 20
166.236510
 30
0.0
  0
LWPOLYLINE
  5
17b
100
AcDbEntity
  8
Calque_1
 62
5
100
AcDbPolyline
 90
2
 70
0
 10
10.840490
 20
176.236510
 30
0.0
 10
10.840490
 20
166.236510
 30
0.0
  0
LWPOLYLINE
  5
17c
100
AcDbEntity
  8
Calque_1
 62
5
100
AcDbPolyline
 90
3
 70
0
 10
13.840490
 20
166.236510
 30
0.0
 10
13.840490
 20
176.236510
 30
0.0
 10
10.840490
 20
176.236510
 30
0.0
  0
LWPOLYLINE
  5
17d
100
AcDbEntity
  8
Calque_1
 62
5
100
AcDbPolyline
 90
2
 70
0
 10
353.840490
 20
176.236510
 30
0.0
 10
353.840490
 20
166.236510
 30
0.0
  0
LWPOLYLINE
  5
17e
100
AcDbEntity
  8
Calque_1
 62
5
100
AcDbPolyline
 90
2
 70
0
 10
356.840490
 20
176.236510
 30
0.0
 10
353.840490
 20
176.236510
 30
0.0
  0
LWPOLYLINE
  5
17f
100
AcDbEntity
  8
Calque_1
 62
5
100
AcDbPolyline
 90
3
 70
0
 10
353.840490
 20
166.236510
 30
0.0
 10
356.840490
 20
166.236510
 30
0.0
 10
356.840490
 20
176.236510
 30
0.0
  0
LWPOLYLINE
  5
180
100
AcDbEntity
  8
Calque_1
 62
5
100
AcDbPolyline
 90
2
 70
0
 10
313.840490
 20
224.836510
 30
0.0
 10
316.840490
 20
224.836510
 30
0.0
  0
LWPOLYLINE
  5
181
100
AcDbEntity
  8
Calque_1
 62
5
100
AcDbPolyline
 90
2
 70
0
 10
313.840490
 20
194.836510
 30
0.0
 10
313.840490
 20
224.836510
 30
0.0
  0
LWPOLYLINE
  5
182
100
AcDbEntity
  8
Calque_1
 62
5
100
AcDbPolyline
 90
3
 70
0
 10
316.840490
 20
224.836510
 30
0.0
 10
316.840490
 20
194.836510
 30
0.0
 10
313.840490
 20
194.836510
 30
0.0
  0
LWPOLYLINE
  5
183
100
AcDbEntity
  8
Calque_1
 62
5
100
AcDbPolyline
 90
2
 70
0
 10
356.840490
 20
227.636510
 30
0.0
 10
353.840490
 20
227.636510
 30
0.0
  0
LWPOLYLINE
  5
184
100
AcDbEntity
  8
Calque_1
 62
5
100
AcDbPolyline
 90
2
 70
0
 10
356.840490
 20
217.636510
 30
0.0
 10
356.840490
 20
227.636510
 30
0.0
  0
LWPOLYLINE
  5
185
100
AcDbEntity
  8
Calque_1
 62
5
100
AcDbPolyline
 90
3
 70
0
 10
353.840490
 20
227.636510
 30
0.0
 10
353.840490
 20
217.636510
 30
0.0
 10
356.840490
 20
217.636510
 30
0.0
  0
LWPOLYLINE
  5
186
100
AcDbEntity
  8
Calque_1
 62
5
100
AcDbPolyline
 90
2
 70
0
 10
110.440490
 20
229.836510
 30
0.0
 10
110.440490
 20
232.836510
 30
0.0
  0
LWPOLYLINE
  5
187
100
AcDbEntity
  8
Calque_1
 62
5
100
AcDbPolyline
 90
2
 70
0
 10
100.440490
 20
229.836510
 30
0.0
 10
110.440490
 20
229.836510
 30
0.0
  0
LWPOLYLINE
  5
188
100
AcDbEntity
  8
Calque_1
 62
5
100
AcDbPolyline
 90
3
 70
0
 10
110.440490
 20
232.836510
 30
0.0
 10
100.440490
 20
232.836510
 30
0.0
 10
100.440490
 20
229.836510
 30
0.0
  0
LWPOLYLINE
  5
189
100
AcDbEntity
  8
Calque_1
 62
5
100
AcDbPolyline
 90
2
 70
0
 10
188.840490
 20
232.836510
 30
0.0
 10
178.840490
 20
232.836510
 30
0.0
  0
LWPOLYLINE
  5
18a
100
AcDbEntity
  8
Calque_1
 62
5
100
AcDbPolyline
 90
2
 70
0
 10
188.840490
 20
229.836510
 30
0.0
 10
188.840490
 20
232.836510
 30
0.0
  0
LWPOLYLINE
  5
18b
100
AcDbEntity
  8
Calque_1
 62
5
100
AcDbPolyline
 90
3
 70
0
 10
178.840490
 20
232.836510
 30
0.0
 10
178.840490
 20
229.836510
 30
0.0
 10
188.840490
 20
229.836510
 30
0.0
  0
LWPOLYLINE
  5
18c
100
AcDbEntity
  8
Calque_1
 62
5
100
AcDbPolyline
 90
2
 70
0
 10
335.640490
 20
232.836510
 30
0.0
 10
335.640490
 20
229.836510
 30
0.0
  0
LWPOLYLINE
  5
18d
100
AcDbEntity
  8
Calque_1
 62
5
100
AcDbPolyline
 90
2
 70
0
 10
345.640490
 20
232.836510
 30
0.0
 10
335.640490
 20
232.836510
 30
0.0
  0
LWPOLYLINE
  5
18e
100
AcDbEntity
  8
Calque_1
 62
5
100
AcDbPolyline
 90
3
 70
0
 10
335.640490
 20
229.836510
 30
0.0
 10
345.640490
 20
229.836510
 30
0.0
 10
345.640490
 20
232.836510
 30
0.0
  0
LWPOLYLINE
  5
18f
100
AcDbEntity
  8
Calque_1
 62
5
100
AcDbPolyline
 90
2
 70
0
 10
257.240490
 20
229.836510
 30
0.0
 10
267.240490
 20
229.836510
 30
0.0
  0
LWPOLYLINE
  5
190
100
AcDbEntity
  8
Calque_1
 62
5
100
AcDbPolyline
 90
2
 70
0
 10
257.240490
 20
232.836510
 30
0.0
 10
257.240490
 20
229.836510
 30
0.0
  0
LWPOLYLINE
  5
191
100
AcDbEntity
  8
Calque_1
 62
5
100
AcDbPolyline
 90
3
 70
0
 10
267.240490
 20
229.836510
 30
0.0
 10
267.240490
 20
232.836510
 30
0.0
 10
257.240490
 20
232.836510
 30
0.0
  0
LWPOLYLINE
  5
192
100
AcDbEntity
  8
Calque_1
 62
5
100
AcDbPolyline
 90
2
 70
0
 10
32.040490
 20
232.836510
 30
0.0
 10
22.040490
 20
232.836510
 30
0.0
  0
LWPOLYLINE
  5
193
100
AcDbEntity
  8
Calque_1
 62
5
100
AcDbPolyline
 90
2
 70
0
 10
32.040490
 20
229.836510
 30
0.0
 10
32.040490
 20
232.836510
 30
0.0
  0
LWPOLYLINE
  5
194
100
AcDbEntity
  8
Calque_1
 62
5
100
AcDbPolyline
 90
3
 70
0
 10
22.040490
 20
232.836510
 30
0.0
 10
22.040490
 20
229.836510
 30
0.0
 10
32.040490
 20
229.836510
 30
0.0
  0
LWPOLYLINE
  5
195
100
AcDbEntity
  8
Calque_1
 62
7
100
AcDbPolyline
 90
2
 70
0
 10
593.861930
 20
369.483532
 30
0.0
 10
593.861930
 20
394.483532
 30
0.0
  0
LWPOLYLINE
  5
196
100
AcDbEntity
  8
Calque_1
 62
7
100
AcDbPolyline
 90
2
 70
0
 10
596.861930
 20
369.483532
 30
0.0
 10
593.861930
 20
369.483532
 30
0.0
  0
LWPOLYLINE
  5
197
100
AcDbEntity
  8
Calque_1
 62
7
100
AcDbPolyline
 90
2
 70
0
 10
596.861930
 20
369.483532
 30
0.0
 10
596.861930
 20
344.483532
 30
0.0
  0
LWPOLYLINE
  5
198
100
AcDbEntity
  8
Calque_1
 62
7
100
AcDbPolyline
 90
2
 70
0
 10
588.861930
 20
344.483532
 30
0.0
 10
596.861930
 20
344.483532
 30
0.0
  0
LWPOLYLINE
  5
199
100
AcDbEntity
  8
Calque_1
 62
7
100
AcDbPolyline
 90
2
 70
0
 10
588.861930
 20
341.483532
 30
0.0
 10
588.861930
 20
344.483532
 30
0.0
  0
LWPOLYLINE
  5
19a
100
AcDbEntity
  8
Calque_1
 62
7
100
AcDbPolyline
 90
2
 70
0
 10
588.861930
 20
341.483532
 30
0.0
 10
558.861930
 20
341.483532
 30
0.0
  0
LWPOLYLINE
  5
19b
100
AcDbEntity
  8
Calque_1
 62
7
100
AcDbPolyline
 90
2
 70
0
 10
558.861930
 20
344.483532
 30
0.0
 10
558.861930
 20
341.483532
 30
0.0
  0
LWPOLYLINE
  5
19c
100
AcDbEntity
  8
Calque_1
 62
7
100
AcDbPolyline
 90
2
 70
0
 10
528.861930
 20
344.483532
 30
0.0
 10
558.861930
 20
344.483532
 30
0.0
  0
LWPOLYLINE
  5
19d
100
AcDbEntity
  8
Calque_1
 62
7
100
AcDbPolyline
 90
2
 70
0
 10
528.861930
 20
341.483532
 30
0.0
 10
528.861930
 20
344.483532
 30
0.0
  0
LWPOLYLINE
  5
19e
100
AcDbEntity
  8
Calque_1
 62
7
100
AcDbPolyline
 90
2
 70
0
 10
528.861930
 20
341.483532
 30
0.0
 10
498.861930
 20
341.483532
 30
0.0
  0
LWPOLYLINE
  5
19f
100
AcDbEntity
  8
Calque_1
 62
7
100
AcDbPolyline
 90
2
 70
0
 10
498.861930
 20
344.483532
 30
0.0
 10
498.861930
 20
341.483532
 30
0.0
  0
LWPOLYLINE
  5
1a0
100
AcDbEntity
  8
Calque_1
 62
7
100
AcDbPolyline
 90
2
 70
0
 10
468.861930
 20
344.483532
 30
0.0
 10
498.861930
 20
344.483532
 30
0.0
  0
LWPOLYLINE
  5
1a1
100
AcDbEntity
  8
Calque_1
 62
7
100
AcDbPolyline
 90
2
 70
0
 10
468.861930
 20
341.483532
 30
0.0
 10
468.861930
 20
344.483532
 30
0.0
  0
LWPOLYLINE
  5
1a2
100
AcDbEntity
  8
Calque_1
 62
7
100
AcDbPolyline
 90
2
 70
0
 10
468.861930
 20
341.483532
 30
0.0
 10
438.861930
 20
341.483532
 30
0.0
  0
LWPOLYLINE
  5
1a3
100
AcDbEntity
  8
Calque_1
 62
7
100
AcDbPolyline
 90
2
 70
0
 10
438.861930
 20
344.483532
 30
0.0
 10
438.861930
 20
341.483532
 30
0.0
  0
LWPOLYLINE
  5
1a4
100
AcDbEntity
  8
Calque_1
 62
7
100
AcDbPolyline
 90
2
 70
0
 10
408.861930
 20
344.483532
 30
0.0
 10
438.861930
 20
344.483532
 30
0.0
  0
LWPOLYLINE
  5
1a5
100
AcDbEntity
  8
Calque_1
 62
7
100
AcDbPolyline
 90
2
 70
0
 10
408.861930
 20
341.483532
 30
0.0
 10
408.861930
 20
344.483532
 30
0.0
  0
LWPOLYLINE
  5
1a6
100
AcDbEntity
  8
Calque_1
 62
7
100
AcDbPolyline
 90
2
 70
0
 10
408.861930
 20
341.483532
 30
0.0
 10
378.861930
 20
341.483532
 30
0.0
  0
LWPOLYLINE
  5
1a7
100
AcDbEntity
  8
Calque_1
 62
7
100
AcDbPolyline
 90
2
 70
0
 10
378.861930
 20
344.483532
 30
0.0
 10
378.861930
 20
341.483532
 30
0.0
  0
LWPOLYLINE
  5
1a8
100
AcDbEntity
  8
Calque_1
 62
7
100
AcDbPolyline
 90
2
 70
0
 10
370.861930
 20
344.483532
 30
0.0
 10
378.861930
 20
344.483532
 30
0.0
  0
LWPOLYLINE
  5
1a9
100
AcDbEntity
  8
Calque_1
 62
7
100
AcDbPolyline
 90
2
 70
0
 10
370.861930
 20
344.483532
 30
0.0
 10
370.861930
 20
369.483532
 30
0.0
  0
LWPOLYLINE
  5
1aa
100
AcDbEntity
  8
Calque_1
 62
7
100
AcDbPolyline
 90
2
 70
0
 10
373.861930
 20
369.483532
 30
0.0
 10
370.861930
 20
369.483532
 30
0.0
  0
LWPOLYLINE
  5
1ab
100
AcDbEntity
  8
Calque_1
 62
7
100
AcDbPolyline
 90
2
 70
0
 10
373.861930
 20
394.483532
 30
0.0
 10
373.861930
 20
369.483532
 30
0.0
  0
LWPOLYLINE
  5
1ac
100
AcDbEntity
  8
Calque_1
 62
7
100
AcDbPolyline
 90
2
 70
0
 10
510.911930
 20
394.483532
 30
0.0
 10
373.861930
 20
394.483532
 30
0.0
  0
LWPOLYLINE
  5
1ad
100
AcDbEntity
  8
Calque_1
 62
7
100
AcDbPolyline
 90
4
 70
0
 10
510.911930
 20
394.483532
 30
0.0
 10
510.911930
 20
369.483532
 30
0.0
 10
513.861930
 20
369.483532
 30
0.0
 10
513.861930
 20
394.483532
 30
0.0
  0
LWPOLYLINE
  5
1ae
100
AcDbEntity
  8
Calque_1
 62
7
100
AcDbPolyline
 90
2
 70
0
 10
593.861930
 20
394.483532
 30
0.0
 10
513.861930
 20
394.483532
 30
0.0
  0
LWPOLYLINE
  5
1af
100
AcDbEntity
  8
Calque_1
 62
7
100
AcDbPolyline
 90
2
 70
0
 10
5.876194
 20
395.954586
 30
0.0
 10
351.876194
 20
395.954586
 30
0.0
  0
LWPOLYLINE
  5
1b0
100
AcDbEntity
  8
Calque_1
 62
7
100
AcDbPolyline
 90
2
 70
0
 10
5.876194
 20
395.954586
 30
0.0
 10
5.876194
 20
367.954586
 30
0.0
  0
LWPOLYLINE
  5
1b1
100
AcDbEntity
  8
Calque_1
 62
7
100
AcDbPolyline
 90
2
 70
0
 10
351.876194
 20
367.954586
 30
0.0
 10
351.876194
 20
395.954586
 30
0.0
  0
LWPOLYLINE
  5
1b2
100
AcDbEntity
  8
Calque_1
 62
7
100
AcDbPolyline
 90
2
 70
0
 10
348.876194
 20
367.954586
 30
0.0
 10
351.876194
 20
367.954586
 30
0.0
  0
LWPOLYLINE
  5
1b3
100
AcDbEntity
  8
Calque_1
 62
7
100
AcDbPolyline
 90
2
 70
0
 10
348.876194
 20
342.954586
 30
0.0
 10
348.876194
 20
367.954586
 30
0.0
  0
LWPOLYLINE
  5
1b4
100
AcDbEntity
  8
Calque_1
 62
7
100
AcDbPolyline
 90
2
 70
0
 10
340.676194
 20
342.954586
 30
0.0
 10
348.876194
 20
342.954586
 30
0.0
  0
LWPOLYLINE
  5
1b5
100
AcDbEntity
  8
Calque_1
 62
7
100
AcDbPolyline
 90
2
 70
0
 10
340.676194
 20
339.954586
 30
0.0
 10
340.676194
 20
342.954586
 30
0.0
  0
LWPOLYLINE
  5
1b6
100
AcDbEntity
  8
Calque_1
 62
7
100
AcDbPolyline
 90
2
 70
0
 10
340.676194
 20
339.954586
 30
0.0
 10
330.676194
 20
339.954586
 30
0.0
  0
LWPOLYLINE
  5
1b7
100
AcDbEntity
  8
Calque_1
 62
7
100
AcDbPolyline
 90
2
 70
0
 10
330.676194
 20
342.954586
 30
0.0
 10
330.676194
 20
339.954586
 30
0.0
  0
LWPOLYLINE
  5
1b8
100
AcDbEntity
  8
Calque_1
 62
7
100
AcDbPolyline
 90
2
 70
0
 10
262.276194
 20
342.954586
 30
0.0
 10
330.676194
 20
342.954586
 30
0.0
  0
LWPOLYLINE
  5
1b9
100
AcDbEntity
  8
Calque_1
 62
7
100
AcDbPolyline
 90
2
 70
0
 10
262.276194
 20
339.954586
 30
0.0
 10
262.276194
 20
342.954586
 30
0.0
  0
LWPOLYLINE
  5
1ba
100
AcDbEntity
  8
Calque_1
 62
7
100
AcDbPolyline
 90
2
 70
0
 10
262.276194
 20
339.954586
 30
0.0
 10
252.276194
 20
339.954586
 30
0.0
  0
LWPOLYLINE
  5
1bb
100
AcDbEntity
  8
Calque_1
 62
7
100
AcDbPolyline
 90
2
 70
0
 10
252.276194
 20
342.954586
 30
0.0
 10
252.276194
 20
339.954586
 30
0.0
  0
LWPOLYLINE
  5
1bc
100
AcDbEntity
  8
Calque_1
 62
7
100
AcDbPolyline
 90
2
 70
0
 10
183.876194
 20
342.954586
 30
0.0
 10
252.276194
 20
342.954586
 30
0.0
  0
LWPOLYLINE
  5
1bd
100
AcDbEntity
  8
Calque_1
 62
7
100
AcDbPolyline
 90
2
 70
0
 10
183.876194
 20
339.954586
 30
0.0
 10
183.876194
 20
342.954586
 30
0.0
  0
LWPOLYLINE
  5
1be
100
AcDbEntity
  8
Calque_1
 62
7
100
AcDbPolyline
 90
2
 70
0
 10
183.876194
 20
339.954586
 30
0.0
 10
173.876194
 20
339.954586
 30
0.0
  0
LWPOLYLINE
  5
1bf
100
AcDbEntity
  8
Calque_1
 62
7
100
AcDbPolyline
 90
2
 70
0
 10
173.876194
 20
342.954586
 30
0.0
 10
173.876194
 20
339.954586
 30
0.0
  0
LWPOLYLINE
  5
1c0
100
AcDbEntity
  8
Calque_1
 62
7
100
AcDbPolyline
 90
2
 70
0
 10
105.476194
 20
342.954586
 30
0.0
 10
173.876194
 20
342.954586
 30
0.0
  0
LWPOLYLINE
  5
1c1
100
AcDbEntity
  8
Calque_1
 62
7
100
AcDbPolyline
 90
2
 70
0
 10
105.476194
 20
339.954586
 30
0.0
 10
105.476194
 20
342.954586
 30
0.0
  0
LWPOLYLINE
  5
1c2
100
AcDbEntity
  8
Calque_1
 62
7
100
AcDbPolyline
 90
2
 70
0
 10
105.476194
 20
339.954586
 30
0.0
 10
95.476194
 20
339.954586
 30
0.0
  0
LWPOLYLINE
  5
1c3
100
AcDbEntity
  8
Calque_1
 62
7
100
AcDbPolyline
 90
2
 70
0
 10
95.476194
 20
342.954586
 30
0.0
 10
95.476194
 20
339.954586
 30
0.0
  0
LWPOLYLINE
  5
1c4
100
AcDbEntity
  8
Calque_1
 62
7
100
AcDbPolyline
 90
2
 70
0
 10
48.876194
 20
342.954586
 30
0.0
 10
95.476194
 20
342.954586
 30
0.0
  0
LWPOLYLINE
  5
1c5
100
AcDbEntity
  8
Calque_1
 62
7
100
AcDbPolyline
 90
4
 70
0
 10
48.876194
 20
342.954586
 30
0.0
 10
48.876194
 20
367.954586
 30
0.0
 10
45.876194
 20
367.954586
 30
0.0
 10
45.876194
 20
342.954586
 30
0.0
  0
LWPOLYLINE
  5
1c6
100
AcDbEntity
  8
Calque_1
 62
7
100
AcDbPolyline
 90
2
 70
0
 10
27.076194
 20
342.954586
 30
0.0
 10
45.876194
 20
342.954586
 30
0.0
  0
LWPOLYLINE
  5
1c7
100
AcDbEntity
  8
Calque_1
 62
7
100
AcDbPolyline
 90
2
 70
0
 10
27.076194
 20
339.954586
 30
0.0
 10
27.076194
 20
342.954586
 30
0.0
  0
LWPOLYLINE
  5
1c8
100
AcDbEntity
  8
Calque_1
 62
7
100
AcDbPolyline
 90
2
 70
0
 10
27.076194
 20
339.954586
 30
0.0
 10
17.076194
 20
339.954586
 30
0.0
  0
LWPOLYLINE
  5
1c9
100
AcDbEntity
  8
Calque_1
 62
7
100
AcDbPolyline
 90
2
 70
0
 10
17.076194
 20
342.954586
 30
0.0
 10
17.076194
 20
339.954586
 30
0.0
  0
LWPOLYLINE
  5
1ca
100
AcDbEntity
  8
Calque_1
 62
7
100
AcDbPolyline
 90
2
 70
0
 10
8.876194
 20
342.954586
 30
0.0
 10
17.076194
 20
342.954586
 30
0.0
  0
LWPOLYLINE
  5
1cb
100
AcDbEntity
  8
Calque_1
 62
7
100
AcDbPolyline
 90
2
 70
0
 10
8.876194
 20
367.954586
 30
0.0
 10
8.876194
 20
342.954586
 30
0.0
  0
LWPOLYLINE
  5
1cc
100
AcDbEntity
  8
Calque_1
 62
7
100
AcDbPolyline
 90
2
 70
0
 10
5.876194
 20
367.954586
 30
0.0
 10
8.876194
 20
367.954586
 30
0.0
  0
LWPOLYLINE
  5
1cd
100
AcDbEntity
  8
Calque_1
 62
7
100
AcDbPolyline
 90
2
 70
0
 10
371.717670
 20
172.266260
 30
0.0
 10
591.717670
 20
172.266260
 30
0.0
  0
LWPOLYLINE
  5
1ce
100
AcDbEntity
  8
Calque_1
 62
7
100
AcDbPolyline
 90
2
 70
0
 10
371.717670
 20
172.266260
 30
0.0
 10
371.717670
 20
144.266260
 30
0.0
  0
LWPOLYLINE
  5
1cf
100
AcDbEntity
  8
Calque_1
 62
7
100
AcDbPolyline
 90
2
 70
0
 10
591.717670
 20
144.266260
 30
0.0
 10
591.717670
 20
172.266260
 30
0.0
  0
LWPOLYLINE
  5
1d0
100
AcDbEntity
  8
Calque_1
 62
7
100
AcDbPolyline
 90
2
 70
0
 10
594.717670
 20
144.266260
 30
0.0
 10
591.717670
 20
144.266260
 30
0.0
  0
LWPOLYLINE
  5
1d1
100
AcDbEntity
  8
Calque_1
 62
7
100
AcDbPolyline
 90
2
 70
0
 10
594.717670
 20
119.266260
 30
0.0
 10
594.717670
 20
144.266260
 30
0.0
  0
LWPOLYLINE
  5
1d2
100
AcDbEntity
  8
Calque_1
 62
7
100
AcDbPolyline
 90
2
 70
0
 10
589.517670
 20
119.266260
 30
0.0
 10
594.717670
 20
119.266260
 30
0.0
  0
LWPOLYLINE
  5
1d3
100
AcDbEntity
  8
Calque_1
 62
7
100
AcDbPolyline
 90
2
 70
0
 10
589.517670
 20
116.266260
 30
0.0
 10
589.517670
 20
119.266260
 30
0.0
  0
LWPOLYLINE
  5
1d4
100
AcDbEntity
  8
Calque_1
 62
7
100
AcDbPolyline
 90
2
 70
0
 10
589.517670
 20
116.266260
 30
0.0
 10
579.517670
 20
116.266260
 30
0.0
  0
LWPOLYLINE
  5
1d5
100
AcDbEntity
  8
Calque_1
 62
7
100
AcDbPolyline
 90
2
 70
0
 10
579.517670
 20
119.266260
 30
0.0
 10
579.517670
 20
116.266260
 30
0.0
  0
LWPOLYLINE
  5
1d6
100
AcDbEntity
  8
Calque_1
 62
7
100
AcDbPolyline
 90
2
 70
0
 10
538.117670
 20
119.266260
 30
0.0
 10
579.517670
 20
119.266260
 30
0.0
  0
LWPOLYLINE
  5
1d7
100
AcDbEntity
  8
Calque_1
 62
7
100
AcDbPolyline
 90
2
 70
0
 10
538.117670
 20
116.266260
 30
0.0
 10
538.117670
 20
119.266260
 30
0.0
  0
LWPOLYLINE
  5
1d8
100
AcDbEntity
  8
Calque_1
 62
7
100
AcDbPolyline
 90
2
 70
0
 10
538.117670
 20
116.266260
 30
0.0
 10
528.117670
 20
116.266260
 30
0.0
  0
LWPOLYLINE
  5
1d9
100
AcDbEntity
  8
Calque_1
 62
7
100
AcDbPolyline
 90
2
 70
0
 10
528.117670
 20
119.266260
 30
0.0
 10
528.117670
 20
116.266260
 30
0.0
  0
LWPOLYLINE
  5
1da
100
AcDbEntity
  8
Calque_1
 62
7
100
AcDbPolyline
 90
2
 70
0
 10
486.717670
 20
119.266260
 30
0.0
 10
528.117670
 20
119.266260
 30
0.0
  0
LWPOLYLINE
  5
1db
100
AcDbEntity
  8
Calque_1
 62
7
100
AcDbPolyline
 90
2
 70
0
 10
486.717670
 20
116.266260
 30
0.0
 10
486.717670
 20
119.266260
 30
0.0
  0
LWPOLYLINE
  5
1dc
100
AcDbEntity
  8
Calque_1
 62
7
100
AcDbPolyline
 90
2
 70
0
 10
486.717670
 20
116.266260
 30
0.0
 10
476.717670
 20
116.266260
 30
0.0
  0
LWPOLYLINE
  5
1dd
100
AcDbEntity
  8
Calque_1
 62
7
100
AcDbPolyline
 90
2
 70
0
 10
476.717670
 20
119.266260
 30
0.0
 10
476.717670
 20
116.266260
 30
0.0
  0
LWPOLYLINE
  5
1de
100
AcDbEntity
  8
Calque_1
 62
7
100
AcDbPolyline
 90
2
 70
0
 10
435.317670
 20
119.266260
 30
0.0
 10
476.717670
 20
119.266260
 30
0.0
  0
LWPOLYLINE
  5
1df
100
AcDbEntity
  8
Calque_1
 62
7
100
AcDbPolyline
 90
2
 70
0
 10
435.317670
 20
116.266260
 30
0.0
 10
435.317670
 20
119.266260
 30
0.0
  0
LWPOLYLINE
  5
1e0
100
AcDbEntity
  8
Calque_1
 62
7
100
AcDbPolyline
 90
2
 70
0
 10
435.317670
 20
116.266260
 30
0.0
 10
425.317670
 20
116.266260
 30
0.0
  0
LWPOLYLINE
  5
1e1
100
AcDbEntity
  8
Calque_1
 62
7
100
AcDbPolyline
 90
2
 70
0
 10
425.317670
 20
119.266260
 30
0.0
 10
425.317670
 20
116.266260
 30
0.0
  0
LWPOLYLINE
  5
1e2
100
AcDbEntity
  8
Calque_1
 62
7
100
AcDbPolyline
 90
2
 70
0
 10
383.917670
 20
119.266260
 30
0.0
 10
425.317670
 20
119.266260
 30
0.0
  0
LWPOLYLINE
  5
1e3
100
AcDbEntity
  8
Calque_1
 62
7
100
AcDbPolyline
 90
2
 70
0
 10
383.917670
 20
116.266260
 30
0.0
 10
383.917670
 20
119.266260
 30
0.0
  0
LWPOLYLINE
  5
1e4
100
AcDbEntity
  8
Calque_1
 62
7
100
AcDbPolyline
 90
2
 70
0
 10
383.917670
 20
116.266260
 30
0.0
 10
373.917670
 20
116.266260
 30
0.0
  0
LWPOLYLINE
  5
1e5
100
AcDbEntity
  8
Calque_1
 62
7
100
AcDbPolyline
 90
2
 70
0
 10
373.917670
 20
119.266260
 30
0.0
 10
373.917670
 20
116.266260
 30
0.0
  0
LWPOLYLINE
  5
1e6
100
AcDbEntity
  8
Calque_1
 62
7
100
AcDbPolyline
 90
2
 70
0
 10
368.717670
 20
119.266260
 30
0.0
 10
373.917670
 20
119.266260
 30
0.0
  0
LWPOLYLINE
  5
1e7
100
AcDbEntity
  8
Calque_1
 62
7
100
AcDbPolyline
 90
2
 70
0
 10
368.717670
 20
144.266260
 30
0.0
 10
368.717670
 20
119.266260
 30
0.0
  0
LWPOLYLINE
  5
1e8
100
AcDbEntity
  8
Calque_1
 62
7
100
AcDbPolyline
 90
2
 70
0
 10
371.717670
 20
144.266260
 30
0.0
 10
368.717670
 20
144.266260
 30
0.0
  0
LWPOLYLINE
  5
1e9
100
AcDbEntity
  8
Calque_1
 62
7
100
AcDbPolyline
 90
2
 70
0
 10
359.476194
 20
290.308786
 30
0.0
 10
7.476194
 20
290.308786
 30
0.0
  0
LWPOLYLINE
  5
1ea
100
AcDbEntity
  8
Calque_1
 62
7
100
AcDbPolyline
 90
2
 70
0
 10
359.476194
 20
307.808786
 30
0.0
 10
359.476194
 20
290.308786
 30
0.0
  0
LWPOLYLINE
  5
1eb
100
AcDbEntity
  8
Calque_1
 62
7
100
AcDbPolyline
 90
2
 70
0
 10
7.476194
 20
290.308786
 30
0.0
 10
7.476194
 20
307.808786
 30
0.0
  0
LWPOLYLINE
  5
1ec
100
AcDbEntity
  8
Calque_1
 62
7
100
AcDbPolyline
 90
2
 70
0
 10
10.476194
 20
307.808786
 30
0.0
 10
7.476194
 20
307.808786
 30
0.0
  0
LWPOLYLINE
  5
1ed
100
AcDbEntity
  8
Calque_1
 62
7
100
AcDbPolyline
 90
2
 70
0
 10
10.476194
 20
322.808786
 30
0.0
 10
10.476194
 20
307.808786
 30
0.0
  0
LWPOLYLINE
  5
1ee
100
AcDbEntity
  8
Calque_1
 62
7
100
AcDbPolyline
 90
2
 70
0
 10
7.476194
 20
322.808786
 30
0.0
 10
10.476194
 20
322.808786
 30
0.0
  0
LWPOLYLINE
  5
1ef
100
AcDbEntity
  8
Calque_1
 62
7
100
AcDbPolyline
 90
2
 70
0
 10
7.476194
 20
322.808786
 30
0.0
 10
7.476194
 20
337.308786
 30
0.0
  0
LWPOLYLINE
  5
1f0
100
AcDbEntity
  8
Calque_1
 62
7
100
AcDbPolyline
 90
2
 70
0
 10
45.876194
 20
337.308786
 30
0.0
 10
7.476194
 20
337.308786
 30
0.0
  0
LWPOLYLINE
  5
1f1
100
AcDbEntity
  8
Calque_1
 62
7
100
AcDbPolyline
 90
2
 70
0
 10
45.876194
 20
340.308786
 30
0.0
 10
45.876194
 20
337.308786
 30
0.0
  0
LWPOLYLINE
  5
1f2
100
AcDbEntity
  8
Calque_1
 62
7
100
AcDbPolyline
 90
2
 70
0
 10
45.876194
 20
340.308786
 30
0.0
 10
85.876194
 20
340.308786
 30
0.0
  0
LWPOLYLINE
  5
1f3
100
AcDbEntity
  8
Calque_1
 62
7
100
AcDbPolyline
 90
2
 70
0
 10
85.876194
 20
337.308786
 30
0.0
 10
85.876194
 20
340.308786
 30
0.0
  0
LWPOLYLINE
  5
1f4
100
AcDbEntity
  8
Calque_1
 62
7
100
AcDbPolyline
 90
2
 70
0
 10
124.276194
 20
337.308786
 30
0.0
 10
85.876194
 20
337.308786
 30
0.0
  0
LWPOLYLINE
  5
1f5
100
AcDbEntity
  8
Calque_1
 62
7
100
AcDbPolyline
 90
2
 70
0
 10
124.276194
 20
340.308786
 30
0.0
 10
124.276194
 20
337.308786
 30
0.0
  0
LWPOLYLINE
  5
1f6
100
AcDbEntity
  8
Calque_1
 62
7
100
AcDbPolyline
 90
2
 70
0
 10
124.276194
 20
340.308786
 30
0.0
 10
164.276194
 20
340.308786
 30
0.0
  0
LWPOLYLINE
  5
1f7
100
AcDbEntity
  8
Calque_1
 62
7
100
AcDbPolyline
 90
2
 70
0
 10
164.276194
 20
337.308786
 30
0.0
 10
164.276194
 20
340.308786
 30
0.0
  0
LWPOLYLINE
  5
1f8
100
AcDbEntity
  8
Calque_1
 62
7
100
AcDbPolyline
 90
2
 70
0
 10
202.676194
 20
337.308786
 30
0.0
 10
164.276194
 20
337.308786
 30
0.0
  0
LWPOLYLINE
  5
1f9
100
AcDbEntity
  8
Calque_1
 62
7
100
AcDbPolyline
 90
2
 70
0
 10
202.676194
 20
340.308786
 30
0.0
 10
202.676194
 20
337.308786
 30
0.0
  0
LWPOLYLINE
  5
1fa
100
AcDbEntity
  8
Calque_1
 62
7
100
AcDbPolyline
 90
2
 70
0
 10
202.676194
 20
340.308786
 30
0.0
 10
242.676194
 20
340.308786
 30
0.0
  0
LWPOLYLINE
  5
1fb
100
AcDbEntity
  8
Calque_1
 62
7
100
AcDbPolyline
 90
2
 70
0
 10
242.676194
 20
337.308786
 30
0.0
 10
242.676194
 20
340.308786
 30
0.0
  0
LWPOLYLINE
  5
1fc
100
AcDbEntity
  8
Calque_1
 62
7
100
AcDbPolyline
 90
2
 70
0
 10
281.076194
 20
337.308786
 30
0.0
 10
242.676194
 20
337.308786
 30
0.0
  0
LWPOLYLINE
  5
1fd
100
AcDbEntity
  8
Calque_1
 62
7
100
AcDbPolyline
 90
2
 70
0
 10
281.076194
 20
340.308786
 30
0.0
 10
281.076194
 20
337.308786
 30
0.0
  0
LWPOLYLINE
  5
1fe
100
AcDbEntity
  8
Calque_1
 62
7
100
AcDbPolyline
 90
2
 70
0
 10
281.076194
 20
340.308786
 30
0.0
 10
321.076194
 20
340.308786
 30
0.0
  0
LWPOLYLINE
  5
1ff
100
AcDbEntity
  8
Calque_1
 62
7
100
AcDbPolyline
 90
2
 70
0
 10
321.076194
 20
337.308786
 30
0.0
 10
321.076194
 20
340.308786
 30
0.0
  0
LWPOLYLINE
  5
200
100
AcDbEntity
  8
Calque_1
 62
7
100
AcDbPolyline
 90
2
 70
0
 10
359.476194
 20
337.308786
 30
0.0
 10
321.076194
 20
337.308786
 30
0.0
  0
LWPOLYLINE
  5
201
100
AcDbEntity
  8
Calque_1
 62
7
100
AcDbPolyline
 90
2
 70
0
 10
359.476194
 20
337.308786
 30
0.0
 10
359.476194
 20
322.808786
 30
0.0
  0
LWPOLYLINE
  5
202
100
AcDbEntity
  8
Calque_1
 62
7
100
AcDbPolyline
 90
2
 70
0
 10
356.476194
 20
322.808786
 30
0.0
 10
359.476194
 20
322.808786
 30
0.0
  0
LWPOLYLINE
  5
203
100
AcDbEntity
  8
Calque_1
 62
7
100
AcDbPolyline
 90
2
 70
0
 10
356.476194
 20
307.808786
 30
0.0
 10
356.476194
 20
322.808786
 30
0.0
  0
LWPOLYLINE
  5
204
100
AcDbEntity
  8
Calque_1
 62
7
100
AcDbPolyline
 90
2
 70
0
 10
359.476194
 20
307.808786
 30
0.0
 10
356.476194
 20
307.808786
 30
0.0
  0
LWPOLYLINE
  5
205
100
AcDbEntity
  8
Calque_1
 62
7
100
AcDbPolyline
 90
2
 70
0
 10
359.840490
 20
287.424011
 30
0.0
 10
7.840490
 20
287.424011
 30
0.0
  0
LWPOLYLINE
  5
206
100
AcDbEntity
  8
Calque_1
 62
7
100
AcDbPolyline
 90
2
 70
0
 10
359.840490
 20
269.924011
 30
0.0
 10
359.840490
 20
287.424011
 30
0.0
  0
LWPOLYLINE
  5
207
100
AcDbEntity
  8
Calque_1
 62
7
100
AcDbPolyline
 90
2
 70
0
 10
7.840490
 20
287.424011
 30
0.0
 10
7.840490
 20
269.924011
 30
0.0
  0
LWPOLYLINE
  5
208
100
AcDbEntity
  8
Calque_1
 62
7
100
AcDbPolyline
 90
2
 70
0
 10
10.840490
 20
269.924011
 30
0.0
 10
7.840490
 20
269.924011
 30
0.0
  0
LWPOLYLINE
  5
209
100
AcDbEntity
  8
Calque_1
 62
7
100
AcDbPolyline
 90
2
 70
0
 10
10.840490
 20
254.924011
 30
0.0
 10
10.840490
 20
269.924011
 30
0.0
  0
LWPOLYLINE
  5
20a
100
AcDbEntity
  8
Calque_1
 62
7
100
AcDbPolyline
 90
2
 70
0
 10
7.840490
 20
254.924011
 30
0.0
 10
10.840490
 20
254.924011
 30
0.0
  0
LWPOLYLINE
  5
20b
100
AcDbEntity
  8
Calque_1
 62
7
100
AcDbPolyline
 90
2
 70
0
 10
7.840490
 20
254.924011
 30
0.0
 10
7.840490
 20
240.424011
 30
0.0
  0
LWPOLYLINE
  5
20c
100
AcDbEntity
  8
Calque_1
 62
7
100
AcDbPolyline
 90
2
 70
0
 10
46.240490
 20
240.424011
 30
0.0
 10
7.840490
 20
240.424011
 30
0.0
  0
LWPOLYLINE
  5
20d
100
AcDbEntity
  8
Calque_1
 62
7
100
AcDbPolyline
 90
2
 70
0
 10
46.240490
 20
237.424011
 30
0.0
 10
46.240490
 20
240.424011
 30
0.0
  0
LWPOLYLINE
  5
20e
100
AcDbEntity
  8
Calque_1
 62
7
100
AcDbPolyline
 90
2
 70
0
 10
46.240490
 20
237.424011
 30
0.0
 10
86.240490
 20
237.424011
 30
0.0
  0
LWPOLYLINE
  5
20f
100
AcDbEntity
  8
Calque_1
 62
7
100
AcDbPolyline
 90
2
 70
0
 10
86.240490
 20
240.424011
 30
0.0
 10
86.240490
 20
237.424011
 30
0.0
  0
LWPOLYLINE
  5
210
100
AcDbEntity
  8
Calque_1
 62
7
100
AcDbPolyline
 90
2
 70
0
 10
124.640490
 20
240.424011
 30
0.0
 10
86.240490
 20
240.424011
 30
0.0
  0
LWPOLYLINE
  5
211
100
AcDbEntity
  8
Calque_1
 62
7
100
AcDbPolyline
 90
2
 70
0
 10
124.640490
 20
237.424011
 30
0.0
 10
124.640490
 20
240.424011
 30
0.0
  0
LWPOLYLINE
  5
212
100
AcDbEntity
  8
Calque_1
 62
7
100
AcDbPolyline
 90
2
 70
0
 10
124.640490
 20
237.424011
 30
0.0
 10
164.640490
 20
237.424011
 30
0.0
  0
LWPOLYLINE
  5
213
100
AcDbEntity
  8
Calque_1
 62
7
100
AcDbPolyline
 90
2
 70
0
 10
164.640490
 20
240.424011
 30
0.0
 10
164.640490
 20
237.424011
 30
0.0
  0
LWPOLYLINE
  5
214
100
AcDbEntity
  8
Calque_1
 62
7
100
AcDbPolyline
 90
2
 70
0
 10
203.040490
 20
240.424011
 30
0.0
 10
164.640490
 20
240.424011
 30
0.0
  0
LWPOLYLINE
  5
215
100
AcDbEntity
  8
Calque_1
 62
7
100
AcDbPolyline
 90
2
 70
0
 10
203.040490
 20
237.424011
 30
0.0
 10
203.040490
 20
240.424011
 30
0.0
  0
LWPOLYLINE
  5
216
100
AcDbEntity
  8
Calque_1
 62
7
100
AcDbPolyline
 90
2
 70
0
 10
203.040490
 20
237.424011
 30
0.0
 10
243.040490
 20
237.424011
 30
0.0
  0
LWPOLYLINE
  5
217
100
AcDbEntity
  8
Calque_1
 62
7
100
AcDbPolyline
 90
2
 70
0
 10
243.040490
 20
240.424011
 30
0.0
 10
243.040490
 20
237.424011
 30
0.0
  0
LWPOLYLINE
  5
218
100
AcDbEntity
  8
Calque_1
 62
7
100
AcDbPolyline
 90
2
 70
0
 10
281.440490
 20
240.424011
 30
0.0
 10
243.040490
 20
240.424011
 30
0.0
  0
LWPOLYLINE
  5
219
100
AcDbEntity
  8
Calque_1
 62
7
100
AcDbPolyline
 90
2
 70
0
 10
281.440490
 20
237.424011
 30
0.0
 10
281.440490
 20
240.424011
 30
0.0
  0
LWPOLYLINE
  5
21a
100
AcDbEntity
  8
Calque_1
 62
7
100
AcDbPolyline
 90
2
 70
0
 10
281.440490
 20
237.424011
 30
0.0
 10
321.440490
 20
237.424011
 30
0.0
  0
LWPOLYLINE
  5
21b
100
AcDbEntity
  8
Calque_1
 62
7
100
AcDbPolyline
 90
2
 70
0
 10
321.440490
 20
240.424011
 30
0.0
 10
321.440490
 20
237.424011
 30
0.0
  0
LWPOLYLINE
  5
21c
100
AcDbEntity
  8
Calque_1
 62
7
100
AcDbPolyline
 90
2
 70
0
 10
359.840490
 20
240.424011
 30
0.0
 10
321.440490
 20
240.424011
 30
0.0
  0
LWPOLYLINE
  5
21d
100
AcDbEntity
  8
Calque_1
 62
7
100
AcDbPolyline
 90
2
 70
0
 10
359.840490
 20
240.424011
 30
0.0
 10
359.840490
 20
254.924011
 30
0.0
  0
LWPOLYLINE
  5
21e
100
AcDbEntity
  8
Calque_1
 62
7
100
AcDbPolyline
 90
2
 70
0
 10
356.840490
 20
254.924011
 30
0.0
 10
359.840490
 20
254.924011
 30
0.0
  0
LWPOLYLINE
  5
21f
100
AcDbEntity
  8
Calque_1
 62
7
100
AcDbPolyline
 90
2
 70
0
 10
356.840490
 20
269.924011
 30
0.0
 10
356.840490
 20
254.924011
 30
0.0
  0
LWPOLYLINE
  5
220
100
AcDbEntity
  8
Calque_1
 62
7
100
AcDbPolyline
 90
2
 70
0
 10
359.840490
 20
269.924011
 30
0.0
 10
356.840490
 20
269.924011
 30
0.0
  0
LWPOLYLINE
  5
221
100
AcDbEntity
  8
Calque_1
 62
7
100
AcDbPolyline
 90
2
 70
0
 10
369.416010
 20
276.864506
 30
0.0
 10
595.416010
 20
276.864506
 30
0.0
  0
LWPOLYLINE
  5
222
100
AcDbEntity
  8
Calque_1
 62
7
100
AcDbPolyline
 90
2
 70
0
 10
369.416010
 20
276.864506
 30
0.0
 10
369.416010
 20
259.364506
 30
0.0
  0
LWPOLYLINE
  5
223
100
AcDbEntity
  8
Calque_1
 62
7
100
AcDbPolyline
 90
6
 70
0
 10
595.416010
 20
276.864506
 30
0.0
 10
595.416010
 20
259.364506
 30
0.0
 10
598.416010
 20
259.364506
 30
0.0
 10
598.416010
 20
244.364506
 30
0.0
 10
595.416010
 20
244.364506
 30
0.0
 10
595.416010
 20
229.864506
 30
0.0
  0
LWPOLYLINE
  5
224
100
AcDbEntity
  8
Calque_1
 62
7
100
AcDbPolyline
 90
2
 70
0
 10
572.016010
 20
229.864506
 30
0.0
 10
595.416010
 20
229.864506
 30
0.0
  0
LWPOLYLINE
  5
225
100
AcDbEntity
  8
Calque_1
 62
7
100
AcDbPolyline
 90
2
 70
0
 10
572.016010
 20
226.864506
 30
0.0
 10
572.016010
 20
229.864506
 30
0.0
  0
LWPOLYLINE
  5
226
100
AcDbEntity
  8
Calque_1
 62
7
100
AcDbPolyline
 90
2
 70
0
 10
572.016010
 20
226.864506
 30
0.0
 10
547.016010
 20
226.864506
 30
0.0
  0
LWPOLYLINE
  5
227
100
AcDbEntity
  8
Calque_1
 62
7
100
AcDbPolyline
 90
2
 70
0
 10
547.016010
 20
229.864506
 30
0.0
 10
547.016010
 20
226.864506
 30
0.0
  0
LWPOLYLINE
  5
228
100
AcDbEntity
  8
Calque_1
 62
7
100
AcDbPolyline
 90
2
 70
0
 10
520.616010
 20
229.864506
 30
0.0
 10
547.016010
 20
229.864506
 30
0.0
  0
LWPOLYLINE
  5
229
100
AcDbEntity
  8
Calque_1
 62
7
100
AcDbPolyline
 90
2
 70
0
 10
520.616010
 20
226.864506
 30
0.0
 10
520.616010
 20
229.864506
 30
0.0
  0
LWPOLYLINE
  5
22a
100
AcDbEntity
  8
Calque_1
 62
7
100
AcDbPolyline
 90
2
 70
0
 10
520.616010
 20
226.864506
 30
0.0
 10
495.616010
 20
226.864506
 30
0.0
  0
LWPOLYLINE
  5
22b
100
AcDbEntity
  8
Calque_1
 62
7
100
AcDbPolyline
 90
2
 70
0
 10
495.616010
 20
229.864506
 30
0.0
 10
495.616010
 20
226.864506
 30
0.0
  0
LWPOLYLINE
  5
22c
100
AcDbEntity
  8
Calque_1
 62
7
100
AcDbPolyline
 90
2
 70
0
 10
469.216010
 20
229.864506
 30
0.0
 10
495.616010
 20
229.864506
 30
0.0
  0
LWPOLYLINE
  5
22d
100
AcDbEntity
  8
Calque_1
 62
7
100
AcDbPolyline
 90
2
 70
0
 10
469.216010
 20
226.864506
 30
0.0
 10
469.216010
 20
229.864506
 30
0.0
  0
LWPOLYLINE
  5
22e
100
AcDbEntity
  8
Calque_1
 62
7
100
AcDbPolyline
 90
2
 70
0
 10
469.216010
 20
226.864506
 30
0.0
 10
444.216010
 20
226.864506
 30
0.0
  0
LWPOLYLINE
  5
22f
100
AcDbEntity
  8
Calque_1
 62
7
100
AcDbPolyline
 90
2
 70
0
 10
444.216010
 20
229.864506
 30
0.0
 10
444.216010
 20
226.864506
 30
0.0
  0
LWPOLYLINE
  5
230
100
AcDbEntity
  8
Calque_1
 62
7
100
AcDbPolyline
 90
2
 70
0
 10
417.816010
 20
229.864506
 30
0.0
 10
444.216010
 20
229.864506
 30
0.0
  0
LWPOLYLINE
  5
231
100
AcDbEntity
  8
Calque_1
 62
7
100
AcDbPolyline
 90
2
 70
0
 10
417.816010
 20
226.864506
 30
0.0
 10
417.816010
 20
229.864506
 30
0.0
  0
LWPOLYLINE
  5
232
100
AcDbEntity
  8
Calque_1
 62
7
100
AcDbPolyline
 90
2
 70
0
 10
417.816010
 20
226.864506
 30
0.0
 10
392.816010
 20
226.864506
 30
0.0
  0
LWPOLYLINE
  5
233
100
AcDbEntity
  8
Calque_1
 62
7
100
AcDbPolyline
 90
2
 70
0
 10
392.816010
 20
229.864506
 30
0.0
 10
392.816010
 20
226.864506
 30
0.0
  0
LWPOLYLINE
  5
234
100
AcDbEntity
  8
Calque_1
 62
7
100
AcDbPolyline
 90
2
 70
0
 10
369.416010
 20
229.864506
 30
0.0
 10
392.816010
 20
229.864506
 30
0.0
  0
LWPOLYLINE
  5
235
100
AcDbEntity
  8
Calque_1
 62
7
100
AcDbPolyline
 90
2
 70
0
 10
369.416010
 20
244.364506
 30
0.0
 10
369.416010
 20
229.864506
 30
0.0
  0
LWPOLYLINE
  5
236
100
AcDbEntity
  8
Calque_1
 62
7
100
AcDbPolyline
 90
2
 70
0
 10
366.416010
 20
244.364506
 30
0.0
 10
369.416010
 20
244.364506
 30
0.0
  0
LWPOLYLINE
  5
237
100
AcDbEntity
  8
Calque_1
 62
7
100
AcDbPolyline
 90
2
 70
0
 10
366.416010
 20
244.364506
 30
0.0
 10
366.416010
 20
259.364506
 30
0.0
  0
LWPOLYLINE
  5
238
100
AcDbEntity
  8
Calque_1
 62
7
100
AcDbPolyline
 90
2
 70
0
 10
369.416010
 20
259.364506
 30
0.0
 10
366.416010
 20
259.364506
 30
0.0
  0
LWPOLYLINE
  5
239
100
AcDbEntity
  8
Calque_1
 62
7
100
AcDbPolyline
 90
2
 70
0
 10
369.330360
 20
224.550380
 30
0.0
 10
595.330360
 20
224.550380
 30
0.0
  0
LWPOLYLINE
  5
23a
100
AcDbEntity
  8
Calque_1
 62
7
100
AcDbPolyline
 90
2
 70
0
 10
369.330360
 20
224.550380
 30
0.0
 10
369.330360
 20
207.050380
 30
0.0
  0
LWPOLYLINE
  5
23b
100
AcDbEntity
  8
Calque_1
 62
7
100
AcDbPolyline
 90
6
 70
0
 10
595.330360
 20
224.550380
 30
0.0
 10
595.330360
 20
207.050380
 30
0.0
 10
598.330360
 20
207.050380
 30
0.0
 10
598.330360
 20
192.050380
 30
0.0
 10
595.330360
 20
192.050380
 30
0.0
 10
595.330360
 20
177.550380
 30
0.0
  0
LWPOLYLINE
  5
23c
100
AcDbEntity
  8
Calque_1
 62
7
100
AcDbPolyline
 90
2
 70
0
 10
571.930360
 20
177.550380
 30
0.0
 10
595.330360
 20
177.550380
 30
0.0
  0
LWPOLYLINE
  5
23d
100
AcDbEntity
  8
Calque_1
 62
7
100
AcDbPolyline
 90
2
 70
0
 10
571.930360
 20
174.550380
 30
0.0
 10
571.930360
 20
177.550380
 30
0.0
  0
LWPOLYLINE
  5
23e
100
AcDbEntity
  8
Calque_1
 62
7
100
AcDbPolyline
 90
2
 70
0
 10
571.930360
 20
174.550380
 30
0.0
 10
546.930360
 20
174.550380
 30
0.0
  0
LWPOLYLINE
  5
23f
100
AcDbEntity
  8
Calque_1
 62
7
100
AcDbPolyline
 90
2
 70
0
 10
546.930360
 20
177.550380
 30
0.0
 10
546.930360
 20
174.550380
 30
0.0
  0
LWPOLYLINE
  5
240
100
AcDbEntity
  8
Calque_1
 62
7
100
AcDbPolyline
 90
2
 70
0
 10
520.530360
 20
177.550380
 30
0.0
 10
546.930360
 20
177.550380
 30
0.0
  0
LWPOLYLINE
  5
241
100
AcDbEntity
  8
Calque_1
 62
7
100
AcDbPolyline
 90
2
 70
0
 10
520.530360
 20
174.550380
 30
0.0
 10
520.530360
 20
177.550380
 30
0.0
  0
LWPOLYLINE
  5
242
100
AcDbEntity
  8
Calque_1
 62
7
100
AcDbPolyline
 90
2
 70
0
 10
520.530360
 20
174.550380
 30
0.0
 10
495.530360
 20
174.550380
 30
0.0
  0
LWPOLYLINE
  5
243
100
AcDbEntity
  8
Calque_1
 62
7
100
AcDbPolyline
 90
2
 70
0
 10
495.530360
 20
177.550380
 30
0.0
 10
495.530360
 20
174.550380
 30
0.0
  0
LWPOLYLINE
  5
244
100
AcDbEntity
  8
Calque_1
 62
7
100
AcDbPolyline
 90
2
 70
0
 10
469.130360
 20
177.550380
 30
0.0
 10
495.530360
 20
177.550380
 30
0.0
  0
LWPOLYLINE
  5
245
100
AcDbEntity
  8
Calque_1
 62
7
100
AcDbPolyline
 90
2
 70
0
 10
469.130360
 20
174.550380
 30
0.0
 10
469.130360
 20
177.550380
 30
0.0
  0
LWPOLYLINE
  5
246
100
AcDbEntity
  8
Calque_1
 62
7
100
AcDbPolyline
 90
2
 70
0
 10
469.130360
 20
174.550380
 30
0.0
 10
444.130360
 20
174.550380
 30
0.0
  0
LWPOLYLINE
  5
247
100
AcDbEntity
  8
Calque_1
 62
7
100
AcDbPolyline
 90
2
 70
0
 10
444.130360
 20
177.550380
 30
0.0
 10
444.130360
 20
174.550380
 30
0.0
  0
LWPOLYLINE
  5
248
100
AcDbEntity
  8
Calque_1
 62
7
100
AcDbPolyline
 90
2
 70
0
 10
417.730360
 20
177.550380
 30
0.0
 10
444.130360
 20
177.550380
 30
0.0
  0
LWPOLYLINE
  5
249
100
AcDbEntity
  8
Calque_1
 62
7
100
AcDbPolyline
 90
2
 70
0
 10
417.730360
 20
174.550380
 30
0.0
 10
417.730360
 20
177.550380
 30
0.0
  0
LWPOLYLINE
  5
24a
100
AcDbEntity
  8
Calque_1
 62
7
100
AcDbPolyline
 90
2
 70
0
 10
417.730360
 20
174.550380
 30
0.0
 10
392.730360
 20
174.550380
 30
0.0
  0
LWPOLYLINE
  5
24b
100
AcDbEntity
  8
Calque_1
 62
7
100
AcDbPolyline
 90
2
 70
0
 10
392.730360
 20
177.550380
 30
0.0
 10
392.730360
 20
174.550380
 30
0.0
  0
LWPOLYLINE
  5
24c
100
AcDbEntity
  8
Calque_1
 62
7
100
AcDbPolyline
 90
2
 70
0
 10
369.330360
 20
177.550380
 30
0.0
 10
392.730360
 20
177.550380
 30
0.0
  0
LWPOLYLINE
  5
24d
100
AcDbEntity
  8
Calque_1
 62
7
100
AcDbPolyline
 90
2
 70
0
 10
369.330360
 20
192.050380
 30
0.0
 10
369.330360
 20
177.550380
 30
0.0
  0
LWPOLYLINE
  5
24e
100
AcDbEntity
  8
Calque_1
 62
7
100
AcDbPolyline
 90
2
 70
0
 10
366.330360
 20
192.050380
 30
0.0
 10
369.330360
 20
192.050380
 30
0.0
  0
LWPOLYLINE
  5
24f
100
AcDbEntity
  8
Calque_1
 62
7
100
AcDbPolyline
 90
2
 70
0
 10
366.330360
 20
192.050380
 30
0.0
 10
366.330360
 20
207.050380
 30
0.0
  0
LWPOLYLINE
  5
250
100
AcDbEntity
  8
Calque_1
 62
7
100
AcDbPolyline
 90
2
 70
0
 10
369.330360
 20
207.050380
 30
0.0
 10
366.330360
 20
207.050380
 30
0.0
  0
LWPOLYLINE
  5
251
100
AcDbEntity
  8
Calque_1
 62
7
100
AcDbPolyline
 90
2
 70
0
 10
363.866090
 20
116.003130
 30
0.0
 10
366.816090
 20
116.003130
 30
0.0
  0
LWPOLYLINE
  5
252
100
AcDbEntity
  8
Calque_1
 62
7
100
AcDbPolyline
 90
2
 70
0
 10
366.816090
 20
113.053130
 30
0.0
 10
366.816090
 20
116.003130
 30
0.0
  0
LWPOLYLINE
  5
253
100
AcDbEntity
  8
Calque_1
 62
7
100
AcDbPolyline
 90
2
 70
0
 10
406.866090
 20
113.053130
 30
0.0
 10
366.816090
 20
113.053130
 30
0.0
  0
LWPOLYLINE
  5
254
100
AcDbEntity
  8
Calque_1
 62
7
100
AcDbPolyline
 90
2
 70
0
 10
406.866090
 20
113.053130
 30
0.0
 10
406.866090
 20
88.003130
 30
0.0
  0
LWPOLYLINE
  5
255
100
AcDbEntity
  8
Calque_1
 62
7
100
AcDbPolyline
 90
2
 70
0
 10
403.916090
 20
88.003130
 30
0.0
 10
406.866090
 20
88.003130
 30
0.0
  0
LWPOLYLINE
  5
256
100
AcDbEntity
  8
Calque_1
 62
7
100
AcDbPolyline
 90
2
 70
0
 10
403.916090
 20
62.953130
 30
0.0
 10
403.916090
 20
88.003130
 30
0.0
  0
LWPOLYLINE
  5
257
100
AcDbEntity
  8
Calque_1
 62
7
100
AcDbPolyline
 90
2
 70
0
 10
390.366090
 20
62.953130
 30
0.0
 10
403.916090
 20
62.953130
 30
0.0
  0
LWPOLYLINE
  5
258
100
AcDbEntity
  8
Calque_1
 62
7
100
AcDbPolyline
 90
2
 70
0
 10
390.366090
 20
60.003130
 30
0.0
 10
390.366090
 20
62.953130
 30
0.0
  0
LWPOLYLINE
  5
259
100
AcDbEntity
  8
Calque_1
 62
7
100
AcDbPolyline
 90
2
 70
0
 10
390.366090
 20
60.003130
 30
0.0
 10
380.366090
 20
60.003130
 30
0.0
  0
LWPOLYLINE
  5
25a
100
AcDbEntity
  8
Calque_1
 62
7
100
AcDbPolyline
 90
2
 70
0
 10
380.366090
 20
62.953130
 30
0.0
 10
380.366090
 20
60.003130
 30
0.0
  0
LWPOLYLINE
  5
25b
100
AcDbEntity
  8
Calque_1
 62
7
100
AcDbPolyline
 90
2
 70
0
 10
366.816090
 20
62.953130
 30
0.0
 10
380.366090
 20
62.953130
 30
0.0
  0
LWPOLYLINE
  5
25c
100
AcDbEntity
  8
Calque_1
 62
7
100
AcDbPolyline
 90
2
 70
0
 10
366.816090
 20
88.003130
 30
0.0
 10
366.816090
 20
62.953130
 30
0.0
  0
LWPOLYLINE
  5
25d
100
AcDbEntity
  8
Calque_1
 62
7
100
AcDbPolyline
 90
2
 70
0
 10
363.866090
 20
88.003130
 30
0.0
 10
366.816090
 20
88.003130
 30
0.0
  0
LWPOLYLINE
  5
25e
100
AcDbEntity
  8
Calque_1
 62
7
100
AcDbPolyline
 90
2
 70
0
 10
363.866090
 20
88.003130
 30
0.0
 10
363.866090
 20
116.003130
 30
0.0
  0
LWPOLYLINE
  5
25f
100
AcDbEntity
  8
Calque_1
 62
7
100
AcDbPolyline
 90
2
 70
0
 10
371.507760
 20
334.755557
 30
0.0
 10
508.557760
 20
334.755557
 30
0.0
  0
LWPOLYLINE
  5
260
100
AcDbEntity
  8
Calque_1
 62
7
100
AcDbPolyline
 90
2
 70
0
 10
371.507760
 20
334.755557
 30
0.0
 10
371.507760
 20
306.755557
 30
0.0
  0
LWPOLYLINE
  5
261
100
AcDbEntity
  8
Calque_1
 62
7
100
AcDbPolyline
 90
2
 70
0
 10
508.557760
 20
306.755557
 30
0.0
 10
508.557760
 20
334.755557
 30
0.0
  0
LWPOLYLINE
  5
262
100
AcDbEntity
  8
Calque_1
 62
7
100
AcDbPolyline
 90
2
 70
0
 10
511.507760
 20
306.755557
 30
0.0
 10
508.557760
 20
306.755557
 30
0.0
  0
LWPOLYLINE
  5
263
100
AcDbEntity
  8
Calque_1
 62
7
100
AcDbPolyline
 90
2
 70
0
 10
511.507760
 20
334.755557
 30
0.0
 10
511.507760
 20
306.755557
 30
0.0
  0
LWPOLYLINE
  5
264
100
AcDbEntity
  8
Calque_1
 62
7
100
AcDbPolyline
 90
2
 70
0
 10
511.507760
 20
334.755557
 30
0.0
 10
591.507760
 20
334.755557
 30
0.0
  0
LWPOLYLINE
  5
265
100
AcDbEntity
  8
Calque_1
 62
7
100
AcDbPolyline
 90
2
 70
0
 10
591.507760
 20
306.755557
 30
0.0
 10
591.507760
 20
334.755557
 30
0.0
  0
LWPOLYLINE
  5
266
100
AcDbEntity
  8
Calque_1
 62
7
100
AcDbPolyline
 90
2
 70
0
 10
594.507760
 20
306.755557
 30
0.0
 10
591.507760
 20
306.755557
 30
0.0
  0
LWPOLYLINE
  5
267
100
AcDbEntity
  8
Calque_1
 62
7
100
AcDbPolyline
 90
2
 70
0
 10
594.507760
 20
281.755557
 30
0.0
 10
594.507760
 20
306.755557
 30
0.0
  0
LWPOLYLINE
  5
268
100
AcDbEntity
  8
Calque_1
 62
7
100
AcDbPolyline
 90
2
 70
0
 10
589.307760
 20
281.755557
 30
0.0
 10
594.507760
 20
281.755557
 30
0.0
  0
LWPOLYLINE
  5
269
100
AcDbEntity
  8
Calque_1
 62
7
100
AcDbPolyline
 90
2
 70
0
 10
589.307760
 20
278.755557
 30
0.0
 10
589.307760
 20
281.755557
 30
0.0
  0
LWPOLYLINE
  5
26a
100
AcDbEntity
  8
Calque_1
 62
7
100
AcDbPolyline
 90
2
 70
0
 10
589.307760
 20
278.755557
 30
0.0
 10
579.307760
 20
278.755557
 30
0.0
  0
LWPOLYLINE
  5
26b
100
AcDbEntity
  8
Calque_1
 62
7
100
AcDbPolyline
 90
2
 70
0
 10
579.307760
 20
281.755557
 30
0.0
 10
579.307760
 20
278.755557
 30
0.0
  0
LWPOLYLINE
  5
26c
100
AcDbEntity
  8
Calque_1
 62
7
100
AcDbPolyline
 90
2
 70
0
 10
537.907760
 20
281.755557
 30
0.0
 10
579.307760
 20
281.755557
 30
0.0
  0
LWPOLYLINE
  5
26d
100
AcDbEntity
  8
Calque_1
 62
7
100
AcDbPolyline
 90
2
 70
0
 10
537.907760
 20
278.755557
 30
0.0
 10
537.907760
 20
281.755557
 30
0.0
  0
LWPOLYLINE
  5
26e
100
AcDbEntity
  8
Calque_1
 62
7
100
AcDbPolyline
 90
2
 70
0
 10
537.907760
 20
278.755557
 30
0.0
 10
527.907760
 20
278.755557
 30
0.0
  0
LWPOLYLINE
  5
26f
100
AcDbEntity
  8
Calque_1
 62
7
100
AcDbPolyline
 90
2
 70
0
 10
527.907760
 20
281.755557
 30
0.0
 10
527.907760
 20
278.755557
 30
0.0
  0
LWPOLYLINE
  5
270
100
AcDbEntity
  8
Calque_1
 62
7
100
AcDbPolyline
 90
2
 70
0
 10
486.507760
 20
281.755557
 30
0.0
 10
527.907760
 20
281.755557
 30
0.0
  0
LWPOLYLINE
  5
271
100
AcDbEntity
  8
Calque_1
 62
7
100
AcDbPolyline
 90
2
 70
0
 10
486.507760
 20
278.755557
 30
0.0
 10
486.507760
 20
281.755557
 30
0.0
  0
LWPOLYLINE
  5
272
100
AcDbEntity
  8
Calque_1
 62
7
100
AcDbPolyline
 90
2
 70
0
 10
486.507760
 20
278.755557
 30
0.0
 10
476.507760
 20
278.755557
 30
0.0
  0
LWPOLYLINE
  5
273
100
AcDbEntity
  8
Calque_1
 62
7
100
AcDbPolyline
 90
2
 70
0
 10
476.507760
 20
281.755557
 30
0.0
 10
476.507760
 20
278.755557
 30
0.0
  0
LWPOLYLINE
  5
274
100
AcDbEntity
  8
Calque_1
 62
7
100
AcDbPolyline
 90
2
 70
0
 10
435.107760
 20
281.755557
 30
0.0
 10
476.507760
 20
281.755557
 30
0.0
  0
LWPOLYLINE
  5
275
100
AcDbEntity
  8
Calque_1
 62
7
100
AcDbPolyline
 90
2
 70
0
 10
435.107760
 20
278.755557
 30
0.0
 10
435.107760
 20
281.755557
 30
0.0
  0
LWPOLYLINE
  5
276
100
AcDbEntity
  8
Calque_1
 62
7
100
AcDbPolyline
 90
2
 70
0
 10
435.107760
 20
278.755557
 30
0.0
 10
425.107760
 20
278.755557
 30
0.0
  0
LWPOLYLINE
  5
277
100
AcDbEntity
  8
Calque_1
 62
7
100
AcDbPolyline
 90
2
 70
0
 10
425.107760
 20
281.755557
 30
0.0
 10
425.107760
 20
278.755557
 30
0.0
  0
LWPOLYLINE
  5
278
100
AcDbEntity
  8
Calque_1
 62
7
100
AcDbPolyline
 90
2
 70
0
 10
383.707760
 20
281.755557
 30
0.0
 10
425.107760
 20
281.755557
 30
0.0
  0
LWPOLYLINE
  5
279
100
AcDbEntity
  8
Calque_1
 62
7
100
AcDbPolyline
 90
2
 70
0
 10
383.707760
 20
278.755557
 30
0.0
 10
383.707760
 20
281.755557
 30
0.0
  0
LWPOLYLINE
  5
27a
100
AcDbEntity
  8
Calque_1
 62
7
100
AcDbPolyline
 90
2
 70
0
 10
383.707760
 20
278.755557
 30
0.0
 10
373.707760
 20
278.755557
 30
0.0
  0
LWPOLYLINE
  5
27b
100
AcDbEntity
  8
Calque_1
 62
7
100
AcDbPolyline
 90
2
 70
0
 10
373.707760
 20
281.755557
 30
0.0
 10
373.707760
 20
278.755557
 30
0.0
  0
LWPOLYLINE
  5
27c
100
AcDbEntity
  8
Calque_1
 62
7
100
AcDbPolyline
 90
2
 70
0
 10
368.507760
 20
281.755557
 30
0.0
 10
373.707760
 20
281.755557
 30
0.0
  0
LWPOLYLINE
  5
27d
100
AcDbEntity
  8
Calque_1
 62
7
100
AcDbPolyline
 90
2
 70
0
 10
368.507760
 20
306.755557
 30
0.0
 10
368.507760
 20
281.755557
 30
0.0
  0
LWPOLYLINE
  5
27e
100
AcDbEntity
  8
Calque_1
 62
7
100
AcDbPolyline
 90
2
 70
0
 10
371.507760
 20
306.755557
 30
0.0
 10
368.507760
 20
306.755557
 30
0.0
  0
ENDSEC
  0
SECTION
  2
OBJECTS
  0
DICTIONARY
  5
C
330
0
100
AcDbDictionary
  3
ACAD_GROUP
350
D
  3
ACAD_MLINESTYLE
350
17
  0
DICTIONARY
  5
D
330
C
100
AcDbDictionary
  0
DICTIONARY
  5
1A
330
C
100
AcDbDictionary
  0
DICTIONARY
  5
17
330
C
100
AcDbDictionary
  3
STANDARD
350
18
  0
DICTIONARY
  5
19
330
C
100
AcDbDictionary
  0
ENDSEC
  0
EOF
