  0
SECTION
  2
HEADER
  9
$ACADVER
  1
AC1014
  9
$HANDSEED
  5
FFFF
  9
$MEASUREMENT
 70
     1
  0
ENDSEC
  0
SECTION
  2
TABLES
  0
TABLE
  2
VPORT
  5
8
330
0
100
AcDbSymbolTable
 70
     4
  0
VPORT
  5
2E
330
8
100
AcDbSymbolTableRecord
100
AcDbViewportTableRecord
  2
*ACTIVE
 70
     0
 10
0.0
 20
0.0
 11
1.0
 21
1.0
 12
210.0
 22
148.5
 13
0.0
 23
0.0
 14
10.0
 24
10.0
 15
10.0
 25
10.0
 16
0.0
 26
0.0
 36
1.0
 17
0.0
 27
0.0
 37
0.0
 40
341.0
 41
1.24
 42
50.0
 43
0.0
 44
0.0
 50
0.0
 51
0.0
 71
     0
 72
   100
 73
     1
 74
     3
 75
     0
 76
     0
 77
     0
 78
     0
  0
ENDTAB
  0
TABLE
  2
LTYPE
  5
5
330
0
100
AcDbSymbolTable
 70
     1
  0
LTYPE
  5
14
330
5
100
AcDbSymbolTableRecord
100
AcDbLinetypeTableRecord
  2
BYBLOCK
 70
     0
  3

 72
    65
 73
     0
 40
0.0
  0
LTYPE
  5
15
330
5
100
AcDbSymbolTableRecord
100
AcDbLinetypeTableRecord
  2
BYLAYER
 70
     0
  3

 72
    65
 73
     0
 40
0.0
  0
LTYPE
  5
16
330
5
100
AcDbSymbolTableRecord
100
AcDbLinetypeTableRecord
  2
CONTINUOUS
 70
     0
  3
Solid line
 72
    65
 73
     0
 40
0.0
  0
ENDTAB
  0
TABLE
  2
LAYER
  5
2
100
AcDbSymbolTable
 70
2
  0
LAYER
  5
50
100
AcDbSymbolTableRecord
100
AcDbLayerTableRecord
  2
0
 70
0
  6
CONTINUOUS
  0
LAYER
  5
51
100
AcDbSymbolTableRecord
100
AcDbLayerTableRecord
  2
Calque_1
 70
0
  6
CONTINUOUS
  0
ENDTAB
  0
TABLE
  2
STYLE
  5
3
330
0
100
AcDbSymbolTable
 70
     1
  0
STYLE
  5
11
330
3
100
AcDbSymbolTableRecord
100
AcDbTextStyleTableRecord
  2
STANDARD
 70
     0
 40
0.0
 41
1.0
 50
0.0
 71
     0
 42
2.5
  3
txt
  4

  0
ENDTAB
  0
TABLE
  2
VIEW
  5
6
330
0
100
AcDbSymbolTable
 70
     0
  0
ENDTAB
  0
TABLE
  2
UCS
  5
7
330
0
100
AcDbSymbolTable
 70
     0
  0
ENDTAB
  0
TABLE
  2
APPID
  5
9
330
0
100
AcDbSymbolTable
 70
     2
  0
APPID
  5
12
330
9
100
AcDbSymbolTableRecord
100
AcDbRegAppTableRecord
  2
ACAD
 70
     0
  0
ENDTAB
  0
TABLE
  2
DIMSTYLE
  5
A
330
0
100
AcDbSymbolTable
 70
     1
  0
DIMSTYLE
105
27
330
A
100
AcDbSymbolTableRecord
100
AcDbDimStyleTableRecord
  2
ISO-25
 70
     0
  3

  4

  5

  6

  7

 40
1.0
 41
2.5
 42
0.625
 43
3.75
 44
1.25
 45
0.0
 46
0.0
 47
0.0
 48
0.0
140
2.5
141
2.5
142
0.0
143
0.03937007874016
144
1.0
145
0.0
146
1.0
147
0.625
 71
     0
 72
     0
 73
     0
 74
     0
 75
     0
 76
     0
 77
     1
 78
     8
170
     0
171
     3
172
     1
173
     0
174
     0
175
     0
176
     0
177
     0
178
     0
270
     2
271
     2
272
     2
273
     2
274
     3
340
11
275
     0
280
     0
281
     0
282
     0
283
     0
284
     8
285
     0
286
     0
287
     3
288
     0
  0
ENDTAB
  0
TABLE
  2
BLOCK_RECORD
  5
1
330
0
100
AcDbSymbolTable
 70
     1
  0
BLOCK_RECORD
  5
1F
330
1
100
AcDbSymbolTableRecord
100
AcDbBlockTableRecord
  2
*MODEL_SPACE
  0
BLOCK_RECORD
  5
1B
330
1
100
AcDbSymbolTableRecord
100
AcDbBlockTableRecord
  2
*PAPER_SPACE
  0
ENDTAB
  0
ENDSEC
  0
SECTION
  2
BLOCKS
  0
BLOCK
  5
20
330
1F
100
AcDbEntity
  8
0
100
AcDbBlockBegin
  2
*MODEL_SPACE
 70
     0
 10
0.0
 20
0.0
 30
0.0
  3
*MODEL_SPACE
  1

  0
ENDBLK
  5
21
330
1F
100
AcDbEntity
  8
0
100
AcDbBlockEnd
  0
BLOCK
  5
1C
330
1B
100
AcDbEntity
 67
     1
  8
0
100
AcDbBlockBegin
  2
*PAPER_SPACE
  1

  0
ENDBLK
  5
1D
330
1B
100
AcDbEntity
 67
     1
  8
0
100
AcDbBlockEnd
  0
ENDSEC
  0
SECTION
  2
ENTITIES
  0
LWPOLYLINE
  5
100
100
AcDbEntity
  8
Calque_1
 62
7
100
AcDbPolyline
 90
2
 70
0
 10
245.115370
 20
393.880950
 30
0.0
 10
591.115370
 20
393.880950
 30
0.0
  0
LWPOLYLINE
  5
101
100
AcDbEntity
  8
Calque_1
 62
7
100
AcDbPolyline
 90
2
 70
0
 10
245.115370
 20
393.880950
 30
0.0
 10
245.115370
 20
365.880950
 30
0.0
  0
LWPOLYLINE
  5
102
100
AcDbEntity
  8
Calque_1
 62
7
100
AcDbPolyline
 90
2
 70
0
 10
591.115370
 20
365.880950
 30
0.0
 10
591.115370
 20
393.880950
 30
0.0
  0
LWPOLYLINE
  5
103
100
AcDbEntity
  8
Calque_1
 62
7
100
AcDbPolyline
 90
2
 70
0
 10
588.115370
 20
365.880950
 30
0.0
 10
591.115370
 20
365.880950
 30
0.0
  0
LWPOLYLINE
  5
104
100
AcDbEntity
  8
Calque_1
 62
7
100
AcDbPolyline
 90
2
 70
0
 10
588.115370
 20
340.880950
 30
0.0
 10
588.115370
 20
365.880950
 30
0.0
  0
LWPOLYLINE
  5
105
100
AcDbEntity
  8
Calque_1
 62
7
100
AcDbPolyline
 90
2
 70
0
 10
579.915370
 20
340.880950
 30
0.0
 10
588.115370
 20
340.880950
 30
0.0
  0
LWPOLYLINE
  5
106
100
AcDbEntity
  8
Calque_1
 62
7
100
AcDbPolyline
 90
2
 70
0
 10
579.915370
 20
337.880950
 30
0.0
 10
579.915370
 20
340.880950
 30
0.0
  0
LWPOLYLINE
  5
107
100
AcDbEntity
  8
Calque_1
 62
7
100
AcDbPolyline
 90
2
 70
0
 10
579.915370
 20
337.880950
 30
0.0
 10
569.915370
 20
337.880950
 30
0.0
  0
LWPOLYLINE
  5
108
100
AcDbEntity
  8
Calque_1
 62
7
100
AcDbPolyline
 90
2
 70
0
 10
569.915370
 20
340.880950
 30
0.0
 10
569.915370
 20
337.880950
 30
0.0
  0
LWPOLYLINE
  5
109
100
AcDbEntity
  8
Calque_1
 62
7
100
AcDbPolyline
 90
2
 70
0
 10
501.515370
 20
340.880950
 30
0.0
 10
569.915370
 20
340.880950
 30
0.0
  0
LWPOLYLINE
  5
10a
100
AcDbEntity
  8
Calque_1
 62
7
100
AcDbPolyline
 90
2
 70
0
 10
501.515370
 20
337.880950
 30
0.0
 10
501.515370
 20
340.880950
 30
0.0
  0
LWPOLYLINE
  5
10b
100
AcDbEntity
  8
Calque_1
 62
7
100
AcDbPolyline
 90
2
 70
0
 10
501.515370
 20
337.880950
 30
0.0
 10
491.515370
 20
337.880950
 30
0.0
  0
LWPOLYLINE
  5
10c
100
AcDbEntity
  8
Calque_1
 62
7
100
AcDbPolyline
 90
2
 70
0
 10
491.515370
 20
340.880950
 30
0.0
 10
491.515370
 20
337.880950
 30
0.0
  0
LWPOLYLINE
  5
10d
100
AcDbEntity
  8
Calque_1
 62
7
100
AcDbPolyline
 90
2
 70
0
 10
423.115370
 20
340.880950
 30
0.0
 10
491.515370
 20
340.880950
 30
0.0
  0
LWPOLYLINE
  5
10e
100
AcDbEntity
  8
Calque_1
 62
7
100
AcDbPolyline
 90
2
 70
0
 10
423.115370
 20
337.880950
 30
0.0
 10
423.115370
 20
340.880950
 30
0.0
  0
LWPOLYLINE
  5
10f
100
AcDbEntity
  8
Calque_1
 62
7
100
AcDbPolyline
 90
2
 70
0
 10
423.115370
 20
337.880950
 30
0.0
 10
413.115370
 20
337.880950
 30
0.0
  0
LWPOLYLINE
  5
110
100
AcDbEntity
  8
Calque_1
 62
7
100
AcDbPolyline
 90
2
 70
0
 10
413.115370
 20
340.880950
 30
0.0
 10
413.115370
 20
337.880950
 30
0.0
  0
LWPOLYLINE
  5
111
100
AcDbEntity
  8
Calque_1
 62
7
100
AcDbPolyline
 90
2
 70
0
 10
344.715370
 20
340.880950
 30
0.0
 10
413.115370
 20
340.880950
 30
0.0
  0
LWPOLYLINE
  5
112
100
AcDbEntity
  8
Calque_1
 62
7
100
AcDbPolyline
 90
2
 70
0
 10
344.715370
 20
337.880950
 30
0.0
 10
344.715370
 20
340.880950
 30
0.0
  0
LWPOLYLINE
  5
113
100
AcDbEntity
  8
Calque_1
 62
7
100
AcDbPolyline
 90
2
 70
0
 10
344.715370
 20
337.880950
 30
0.0
 10
334.715370
 20
337.880950
 30
0.0
  0
LWPOLYLINE
  5
114
100
AcDbEntity
  8
Calque_1
 62
7
100
AcDbPolyline
 90
2
 70
0
 10
334.715370
 20
340.880950
 30
0.0
 10
334.715370
 20
337.880950
 30
0.0
  0
LWPOLYLINE
  5
115
100
AcDbEntity
  8
Calque_1
 62
7
100
AcDbPolyline
 90
2
 70
0
 10
288.115370
 20
340.880950
 30
0.0
 10
334.715370
 20
340.880950
 30
0.0
  0
LWPOLYLINE
  5
116
100
AcDbEntity
  8
Calque_1
 62
7
100
AcDbPolyline
 90
4
 70
0
 10
288.115370
 20
340.880950
 30
0.0
 10
288.115370
 20
365.880950
 30
0.0
 10
285.115370
 20
365.880950
 30
0.0
 10
285.115370
 20
340.880950
 30
0.0
  0
LWPOLYLINE
  5
117
100
AcDbEntity
  8
Calque_1
 62
7
100
AcDbPolyline
 90
2
 70
0
 10
266.315370
 20
340.880950
 30
0.0
 10
285.115370
 20
340.880950
 30
0.0
  0
LWPOLYLINE
  5
118
100
AcDbEntity
  8
Calque_1
 62
7
100
AcDbPolyline
 90
2
 70
0
 10
266.315370
 20
337.880950
 30
0.0
 10
266.315370
 20
340.880950
 30
0.0
  0
LWPOLYLINE
  5
119
100
AcDbEntity
  8
Calque_1
 62
7
100
AcDbPolyline
 90
2
 70
0
 10
266.315370
 20
337.880950
 30
0.0
 10
256.315370
 20
337.880950
 30
0.0
  0
LWPOLYLINE
  5
11a
100
AcDbEntity
  8
Calque_1
 62
7
100
AcDbPolyline
 90
2
 70
0
 10
256.315370
 20
340.880950
 30
0.0
 10
256.315370
 20
337.880950
 30
0.0
  0
LWPOLYLINE
  5
11b
100
AcDbEntity
  8
Calque_1
 62
7
100
AcDbPolyline
 90
2
 70
0
 10
248.115370
 20
340.880950
 30
0.0
 10
256.315370
 20
340.880950
 30
0.0
  0
LWPOLYLINE
  5
11c
100
AcDbEntity
  8
Calque_1
 62
7
100
AcDbPolyline
 90
2
 70
0
 10
248.115370
 20
365.880950
 30
0.0
 10
248.115370
 20
340.880950
 30
0.0
  0
LWPOLYLINE
  5
11d
100
AcDbEntity
  8
Calque_1
 62
7
100
AcDbPolyline
 90
2
 70
0
 10
245.115370
 20
365.880950
 30
0.0
 10
248.115370
 20
365.880950
 30
0.0
  0
LWPOLYLINE
  5
11e
100
AcDbEntity
  8
Calque_1
 62
1
100
AcDbPolyline
 90
11
 70
1
 10
601.981655
 20
-110.965725
 30
0.0
 10
601.981655
 20
-144.105725
 30
0.0
 10
609.371155
 20
-144.105725
 30
0.0
 10
609.371155
 20
-131.136725
 30
0.0
 10
614.596155
 20
-131.136725
 30
0.0
 10
614.596155
 20
-126.023725
 30
0.0
 10
609.371155
 20
-126.023725
 30
0.0
 10
609.371155
 20
-120.504975
 30
0.0
 10
622.242655
 20
-120.504975
 30
0.0
 10
622.242655
 20
-110.983225
 30
0.0
 10
601.981655
 20
-110.964475
 30
0.0
  0
LWPOLYLINE
  5
11f
100
AcDbEntity
  8
Calque_1
 62
5
100
AcDbPolyline
 90
33
 70
1
 10
634.876380
 20
-120.842850
 30
0.0
 10
630.578130
 20
-123.308975
 30
0.0
 10
628.680005
 20
-122.650275
 30
0.0
 10
626.869030
 20
-118.022025
 30
0.0
 10
624.020280
 20
-118.171725
 30
0.0
 10
622.720880
 20
-122.957725
 30
0.0
 10
620.902305
 20
-123.828600
 30
0.0
 10
616.366555
 20
-121.844425
 30
0.0
 10
614.450755
 20
-123.973325
 30
0.0
 10
616.916880
 20
-128.271575
 30
0.0
 10
616.242955
 20
-130.164125
 30
0.0
 10
611.614705
 20
-131.975100
 30
0.0
 10
611.779622
 20
-134.829350
 30
0.0
 10
616.565623
 20
-136.128750
 30
0.0
 10
617.436497
 20
-137.947325
 30
0.0
 10
615.437098
 20
-142.477575
 30
0.0
 10
617.565997
 20
-144.393375
 30
0.0
 10
621.864248
 20
-141.927250
 30
0.0
 10
623.772023
 20
-142.606725
 30
0.0
 10
625.567773
 20
-147.229475
 30
0.0
 10
628.437273
 20
-147.070100
 30
0.0
 10
629.721447
 20
-142.278600
 30
0.0
 10
631.540022
 20
-141.407725
 30
0.0
 10
636.085523
 20
-143.412675
 30
0.0
 10
638.001323
 20
-141.283775
 30
0.0
 10
635.535197
 20
-136.985525
 30
0.0
 10
636.199448
 20
-135.072200
 30
0.0
 10
640.822198
 20
-133.276450
 30
0.0
 10
640.678048
 20
-130.412450
 30
0.0
 10
635.886548
 20
-129.128275
 30
0.0
 10
635.015673
 20
-127.309700
 30
0.0
 10
637.005423
 20
-122.758700
 30
0.0
 10
634.876522
 20
-120.842900
 30
0.0
  0
LWPOLYLINE
  5
120
100
AcDbEntity
  8
Calque_1
 62
5
100
AcDbPolyline
 90
33
 70
1
 10
628.438630
 20
-127.891600
 30
0.0
 10
629.321005
 20
-128.403550
 30
0.0
 10
630.085480
 20
-129.096675
 30
0.0
 10
630.697505
 20
-129.923850
 30
0.0
 10
631.137780
 20
-130.843525
 30
0.0
 10
631.396630
 20
-131.834925
 30
0.0
 10
631.439505
 20
-132.850925
 30
0.0
 10
631.292755
 20
-133.866675
 30
0.0
 10
630.957855
 20
-134.830950
 30
0.0
 10
630.425105
 20
-135.722975
 30
0.0
 10
629.752755
 20
-136.477775
 30
0.0
 10
628.925580
 20
-137.089800
 30
0.0
 10
628.005905
 20
-137.530075
 30
0.0
 10
627.014505
 20
-137.788925
 30
0.0
 10
625.992930
 20
-137.847050
 30
0.0
 10
624.977180
 20
-137.700300
 30
0.0
 10
624.012905
 20
-137.365400
 30
0.0
 10
623.120880
 20
-136.832650
 30
0.0
 10
622.371630
 20
-136.145075
 30
0.0
 10
621.754055
 20
-135.333125
 30
0.0
 10
621.313780
 20
-134.413450
 30
0.0
 10
621.060480
 20
-133.406850
 30
0.0
 10
621.002380
 20
-132.385275
 30
0.0
 10
621.149105
 20
-131.369525
 30
0.0
 10
621.484005
 20
-130.405250
 30
0.0
 10
622.011180
 20
-129.528450
 30
0.0
 10
622.689080
 20
-128.758425
 30
0.0
 10
623.516255
 20
-128.146400
 30
0.0
 10
624.435930
 20
-127.706125
 30
0.0
 10
625.442530
 20
-127.452825
 30
0.0
 10
626.458555
 20
-127.409950
 30
0.0
 10
627.474305
 20
-127.556675
 30
0.0
 10
628.438580
 20
-127.891575
 30
0.0
  0
LWPOLYLINE
  5
121
100
AcDbEntity
  8
Calque_1
 62
7
100
AcDbPolyline
 90
2
 70
0
 10
5.177960
 20
42.172020
 30
0.0
 10
5.177960
 20
80.572020
 30
0.0
  0
LWPOLYLINE
  5
122
100
AcDbEntity
  8
Calque_1
 62
7
100
AcDbPolyline
 90
2
 70
0
 10
8.177960
 20
80.572020
 30
0.0
 10
5.177960
 20
80.572020
 30
0.0
  0
LWPOLYLINE
  5
123
100
AcDbEntity
  8
Calque_1
 62
7
100
AcDbPolyline
 90
2
 70
0
 10
8.177960
 20
120.572020
 30
0.0
 10
8.177960
 20
80.572020
 30
0.0
  0
LWPOLYLINE
  5
124
100
AcDbEntity
  8
Calque_1
 62
7
100
AcDbPolyline
 90
2
 70
0
 10
5.177960
 20
120.572020
 30
0.0
 10
8.177960
 20
120.572020
 30
0.0
  0
LWPOLYLINE
  5
125
100
AcDbEntity
  8
Calque_1
 62
7
100
AcDbPolyline
 90
2
 70
0
 10
5.177960
 20
120.572020
 30
0.0
 10
5.177960
 20
158.972020
 30
0.0
  0
LWPOLYLINE
  5
126
100
AcDbEntity
  8
Calque_1
 62
7
100
AcDbPolyline
 90
2
 70
0
 10
8.177960
 20
158.972020
 30
0.0
 10
5.177960
 20
158.972020
 30
0.0
  0
LWPOLYLINE
  5
127
100
AcDbEntity
  8
Calque_1
 62
7
100
AcDbPolyline
 90
2
 70
0
 10
8.177960
 20
198.972020
 30
0.0
 10
8.177960
 20
158.972020
 30
0.0
  0
LWPOLYLINE
  5
128
100
AcDbEntity
  8
Calque_1
 62
7
100
AcDbPolyline
 90
2
 70
0
 10
5.177960
 20
198.972020
 30
0.0
 10
8.177960
 20
198.972020
 30
0.0
  0
LWPOLYLINE
  5
129
100
AcDbEntity
  8
Calque_1
 62
7
100
AcDbPolyline
 90
2
 70
0
 10
5.177960
 20
198.972020
 30
0.0
 10
5.177960
 20
237.372020
 30
0.0
  0
LWPOLYLINE
  5
12a
100
AcDbEntity
  8
Calque_1
 62
7
100
AcDbPolyline
 90
2
 70
0
 10
8.177960
 20
237.372020
 30
0.0
 10
5.177960
 20
237.372020
 30
0.0
  0
LWPOLYLINE
  5
12b
100
AcDbEntity
  8
Calque_1
 62
7
100
AcDbPolyline
 90
2
 70
0
 10
8.177960
 20
277.372020
 30
0.0
 10
8.177960
 20
237.372020
 30
0.0
  0
LWPOLYLINE
  5
12c
100
AcDbEntity
  8
Calque_1
 62
7
100
AcDbPolyline
 90
2
 70
0
 10
5.177960
 20
277.372020
 30
0.0
 10
8.177960
 20
277.372020
 30
0.0
  0
LWPOLYLINE
  5
12d
100
AcDbEntity
  8
Calque_1
 62
7
100
AcDbPolyline
 90
2
 70
0
 10
5.177960
 20
277.372020
 30
0.0
 10
5.177960
 20
315.772020
 30
0.0
  0
LWPOLYLINE
  5
12e
100
AcDbEntity
  8
Calque_1
 62
7
100
AcDbPolyline
 90
2
 70
0
 10
8.177960
 20
315.772020
 30
0.0
 10
5.177960
 20
315.772020
 30
0.0
  0
LWPOLYLINE
  5
12f
100
AcDbEntity
  8
Calque_1
 62
7
100
AcDbPolyline
 90
2
 70
0
 10
8.177960
 20
355.772020
 30
0.0
 10
8.177960
 20
315.772020
 30
0.0
  0
LWPOLYLINE
  5
130
100
AcDbEntity
  8
Calque_1
 62
7
100
AcDbPolyline
 90
2
 70
0
 10
5.177960
 20
355.772020
 30
0.0
 10
8.177960
 20
355.772020
 30
0.0
  0
LWPOLYLINE
  5
131
100
AcDbEntity
  8
Calque_1
 62
7
100
AcDbPolyline
 90
3
 70
0
 10
5.177960
 20
355.772020
 30
0.0
 10
5.177960
 20
394.172020
 30
0.0
 10
31.577960
 20
394.172020
 30
0.0
  0
LWPOLYLINE
  5
132
100
AcDbEntity
  8
Calque_1
 62
7
100
AcDbPolyline
 90
2
 70
0
 10
31.577960
 20
391.172020
 30
0.0
 10
31.577960
 20
394.172020
 30
0.0
  0
LWPOLYLINE
  5
133
100
AcDbEntity
  8
Calque_1
 62
7
100
AcDbPolyline
 90
2
 70
0
 10
56.577960
 20
391.172020
 30
0.0
 10
31.577960
 20
391.172020
 30
0.0
  0
LWPOLYLINE
  5
134
100
AcDbEntity
  8
Calque_1
 62
7
100
AcDbPolyline
 90
2
 70
0
 10
56.577960
 20
394.172020
 30
0.0
 10
56.577960
 20
391.172020
 30
0.0
  0
LWPOLYLINE
  5
135
100
AcDbEntity
  8
Calque_1
 62
7
100
AcDbPolyline
 90
2
 70
0
 10
56.577960
 20
394.172020
 30
0.0
 10
82.977960
 20
394.172020
 30
0.0
  0
LWPOLYLINE
  5
136
100
AcDbEntity
  8
Calque_1
 62
7
100
AcDbPolyline
 90
2
 70
0
 10
82.977960
 20
391.172020
 30
0.0
 10
82.977960
 20
394.172020
 30
0.0
  0
LWPOLYLINE
  5
137
100
AcDbEntity
  8
Calque_1
 62
7
100
AcDbPolyline
 90
2
 70
0
 10
107.977960
 20
391.172020
 30
0.0
 10
82.977960
 20
391.172020
 30
0.0
  0
LWPOLYLINE
  5
138
100
AcDbEntity
  8
Calque_1
 62
7
100
AcDbPolyline
 90
2
 70
0
 10
107.977960
 20
394.172020
 30
0.0
 10
107.977960
 20
391.172020
 30
0.0
  0
LWPOLYLINE
  5
139
100
AcDbEntity
  8
Calque_1
 62
7
100
AcDbPolyline
 90
36
 70
0
 10
107.977960
 20
394.172020
 30
0.0
 10
134.377960
 20
394.172020
 30
0.0
 10
134.377960
 20
391.172020
 30
0.0
 10
159.377960
 20
391.172020
 30
0.0
 10
159.377960
 20
394.172020
 30
0.0
 10
185.777960
 20
394.172020
 30
0.0
 10
185.777960
 20
391.172020
 30
0.0
 10
210.777960
 20
391.172020
 30
0.0
 10
210.777960
 20
394.172020
 30
0.0
 10
237.177960
 20
394.172020
 30
0.0
 10
237.177960
 20
355.772020
 30
0.0
 10
234.177960
 20
355.772020
 30
0.0
 10
234.177960
 20
315.772020
 30
0.0
 10
237.177960
 20
315.772020
 30
0.0
 10
237.177960
 20
277.372020
 30
0.0
 10
234.177960
 20
277.372020
 30
0.0
 10
234.177960
 20
237.372020
 30
0.0
 10
237.177960
 20
237.372020
 30
0.0
 10
237.177960
 20
198.972020
 30
0.0
 10
234.177960
 20
198.972020
 30
0.0
 10
234.177960
 20
158.972020
 30
0.0
 10
237.177960
 20
158.972020
 30
0.0
 10
237.177960
 20
120.572020
 30
0.0
 10
234.177960
 20
120.572020
 30
0.0
 10
234.177960
 20
80.572020
 30
0.0
 10
237.177960
 20
80.572020
 30
0.0
 10
237.177960
 20
42.172020
 30
0.0
 10
210.777960
 20
42.172020
 30
0.0
 10
210.777960
 20
45.172020
 30
0.0
 10
185.777960
 20
45.172020
 30
0.0
 10
185.777960
 20
42.172020
 30
0.0
 10
159.377960
 20
42.172020
 30
0.0
 10
159.377960
 20
45.172020
 30
0.0
 10
134.377960
 20
45.172020
 30
0.0
 10
134.377960
 20
42.172020
 30
0.0
 10
107.977960
 20
42.172020
 30
0.0
  0
LWPOLYLINE
  5
13a
100
AcDbEntity
  8
Calque_1
 62
7
100
AcDbPolyline
 90
2
 70
0
 10
107.977960
 20
45.172020
 30
0.0
 10
107.977960
 20
42.172020
 30
0.0
  0
LWPOLYLINE
  5
13b
100
AcDbEntity
  8
Calque_1
 62
7
100
AcDbPolyline
 90
2
 70
0
 10
82.977960
 20
45.172020
 30
0.0
 10
107.977960
 20
45.172020
 30
0.0
  0
LWPOLYLINE
  5
13c
100
AcDbEntity
  8
Calque_1
 62
7
100
AcDbPolyline
 90
2
 70
0
 10
82.977960
 20
42.172020
 30
0.0
 10
82.977960
 20
45.172020
 30
0.0
  0
LWPOLYLINE
  5
13d
100
AcDbEntity
  8
Calque_1
 62
7
100
AcDbPolyline
 90
2
 70
0
 10
82.977960
 20
42.172020
 30
0.0
 10
56.577960
 20
42.172020
 30
0.0
  0
LWPOLYLINE
  5
13e
100
AcDbEntity
  8
Calque_1
 62
7
100
AcDbPolyline
 90
2
 70
0
 10
56.577960
 20
45.172020
 30
0.0
 10
56.577960
 20
42.172020
 30
0.0
  0
LWPOLYLINE
  5
13f
100
AcDbEntity
  8
Calque_1
 62
7
100
AcDbPolyline
 90
2
 70
0
 10
31.577960
 20
45.172020
 30
0.0
 10
56.577960
 20
45.172020
 30
0.0
  0
LWPOLYLINE
  5
140
100
AcDbEntity
  8
Calque_1
 62
7
100
AcDbPolyline
 90
2
 70
0
 10
31.577960
 20
42.172020
 30
0.0
 10
31.577960
 20
45.172020
 30
0.0
  0
LWPOLYLINE
  5
141
100
AcDbEntity
  8
Calque_1
 62
7
100
AcDbPolyline
 90
2
 70
0
 10
31.577960
 20
42.172020
 30
0.0
 10
5.177960
 20
42.172020
 30
0.0
  0
LWPOLYLINE
  5
142
100
AcDbEntity
  8
Calque_1
 62
5
100
AcDbPolyline
 90
2
 70
0
 10
8.177960
 20
56.372020
 30
0.0
 10
8.177960
 20
66.372020
 30
0.0
  0
LWPOLYLINE
  5
143
100
AcDbEntity
  8
Calque_1
 62
5
100
AcDbPolyline
 90
2
 70
0
 10
11.177960
 20
56.372020
 30
0.0
 10
8.177960
 20
56.372020
 30
0.0
  0
LWPOLYLINE
  5
144
100
AcDbEntity
  8
Calque_1
 62
5
100
AcDbPolyline
 90
3
 70
0
 10
8.177960
 20
66.372020
 30
0.0
 10
11.177960
 20
66.372020
 30
0.0
 10
11.177960
 20
56.372020
 30
0.0
  0
LWPOLYLINE
  5
145
100
AcDbEntity
  8
Calque_1
 62
5
100
AcDbPolyline
 90
2
 70
0
 10
11.177960
 20
134.772020
 30
0.0
 10
8.177960
 20
134.772020
 30
0.0
  0
LWPOLYLINE
  5
146
100
AcDbEntity
  8
Calque_1
 62
5
100
AcDbPolyline
 90
2
 70
0
 10
11.177960
 20
144.772020
 30
0.0
 10
11.177960
 20
134.772020
 30
0.0
  0
LWPOLYLINE
  5
147
100
AcDbEntity
  8
Calque_1
 62
5
100
AcDbPolyline
 90
3
 70
0
 10
8.177960
 20
134.772020
 30
0.0
 10
8.177960
 20
144.772020
 30
0.0
 10
11.177960
 20
144.772020
 30
0.0
  0
LWPOLYLINE
  5
148
100
AcDbEntity
  8
Calque_1
 62
5
100
AcDbPolyline
 90
4
 70
1
 10
231.177960
 20
144.772020
 30
0.0
 10
231.177960
 20
134.772020
 30
0.0
 10
234.177960
 20
134.772020
 30
0.0
 10
234.177960
 20
144.772020
 30
0.0
  0
LWPOLYLINE
  5
149
100
AcDbEntity
  8
Calque_1
 62
5
100
AcDbPolyline
 90
4
 70
1
 10
234.177960
 20
66.372020
 30
0.0
 10
231.177960
 20
66.372020
 30
0.0
 10
231.177960
 20
56.372020
 30
0.0
 10
234.177960
 20
56.372020
 30
0.0
  0
LWPOLYLINE
  5
14a
100
AcDbEntity
  8
Calque_1
 62
5
100
AcDbPolyline
 90
4
 70
1
 10
231.177960
 20
291.572020
 30
0.0
 10
234.177960
 20
291.572020
 30
0.0
 10
234.177960
 20
301.572020
 30
0.0
 10
231.177960
 20
301.572020
 30
0.0
  0
LWPOLYLINE
  5
14b
100
AcDbEntity
  8
Calque_1
 62
5
100
AcDbPolyline
 90
2
 70
0
 10
11.177960
 20
301.572020
 30
0.0
 10
11.177960
 20
291.572020
 30
0.0
  0
LWPOLYLINE
  5
14c
100
AcDbEntity
  8
Calque_1
 62
5
100
AcDbPolyline
 90
2
 70
0
 10
8.177960
 20
301.572020
 30
0.0
 10
11.177960
 20
301.572020
 30
0.0
  0
LWPOLYLINE
  5
14d
100
AcDbEntity
  8
Calque_1
 62
5
100
AcDbPolyline
 90
3
 70
0
 10
11.177960
 20
291.572020
 30
0.0
 10
8.177960
 20
291.572020
 30
0.0
 10
8.177960
 20
301.572020
 30
0.0
  0
LWPOLYLINE
  5
14e
100
AcDbEntity
  8
Calque_1
 62
5
100
AcDbPolyline
 90
2
 70
0
 10
11.177960
 20
223.172020
 30
0.0
 10
11.177960
 20
213.172020
 30
0.0
  0
LWPOLYLINE
  5
14f
100
AcDbEntity
  8
Calque_1
 62
5
100
AcDbPolyline
 90
2
 70
0
 10
8.177960
 20
223.172020
 30
0.0
 10
11.177960
 20
223.172020
 30
0.0
  0
LWPOLYLINE
  5
150
100
AcDbEntity
  8
Calque_1
 62
5
100
AcDbPolyline
 90
3
 70
0
 10
11.177960
 20
213.172020
 30
0.0
 10
8.177960
 20
213.172020
 30
0.0
 10
8.177960
 20
223.172020
 30
0.0
  0
LWPOLYLINE
  5
151
100
AcDbEntity
  8
Calque_1
 62
5
100
AcDbPolyline
 90
4
 70
1
 10
234.177960
 20
213.172020
 30
0.0
 10
234.177960
 20
223.172020
 30
0.0
 10
231.177960
 20
223.172020
 30
0.0
 10
231.177960
 20
213.172020
 30
0.0
  0
LWPOLYLINE
  5
152
100
AcDbEntity
  8
Calque_1
 62
5
100
AcDbPolyline
 90
4
 70
1
 10
177.577960
 20
48.172020
 30
0.0
 10
167.577960
 20
48.172020
 30
0.0
 10
167.577960
 20
45.172020
 30
0.0
 10
177.577960
 20
45.172020
 30
0.0
  0
LWPOLYLINE
  5
153
100
AcDbEntity
  8
Calque_1
 62
5
100
AcDbPolyline
 90
4
 70
1
 10
228.977960
 20
45.172020
 30
0.0
 10
228.977960
 20
48.172020
 30
0.0
 10
218.977960
 20
48.172020
 30
0.0
 10
218.977960
 20
45.172020
 30
0.0
  0
LWPOLYLINE
  5
154
100
AcDbEntity
  8
Calque_1
 62
5
100
AcDbPolyline
 90
2
 70
0
 10
116.177960
 20
45.172020
 30
0.0
 10
116.177960
 20
48.172020
 30
0.0
  0
LWPOLYLINE
  5
155
100
AcDbEntity
  8
Calque_1
 62
5
100
AcDbPolyline
 90
2
 70
0
 10
121.177960
 20
45.172020
 30
0.0
 10
116.177960
 20
45.172020
 30
0.0
  0
LWPOLYLINE
  5
156
100
AcDbEntity
  8
Calque_1
 62
5
100
AcDbPolyline
 90
4
 70
0
 10
121.177960
 20
45.172020
 30
0.0
 10
126.177960
 20
45.172020
 30
0.0
 10
126.177960
 20
48.172020
 30
0.0
 10
121.177960
 20
48.172020
 30
0.0
  0
LWPOLYLINE
  5
157
100
AcDbEntity
  8
Calque_1
 62
5
100
AcDbPolyline
 90
2
 70
0
 10
116.177960
 20
48.172020
 30
0.0
 10
121.177960
 20
48.172020
 30
0.0
  0
LWPOLYLINE
  5
158
100
AcDbEntity
  8
Calque_1
 62
5
100
AcDbPolyline
 90
2
 70
0
 10
23.377960
 20
48.172020
 30
0.0
 10
23.377960
 20
45.172020
 30
0.0
  0
LWPOLYLINE
  5
159
100
AcDbEntity
  8
Calque_1
 62
5
100
AcDbPolyline
 90
2
 70
0
 10
13.377960
 20
48.172020
 30
0.0
 10
23.377960
 20
48.172020
 30
0.0
  0
LWPOLYLINE
  5
15a
100
AcDbEntity
  8
Calque_1
 62
5
100
AcDbPolyline
 90
3
 70
0
 10
23.377960
 20
45.172020
 30
0.0
 10
13.377960
 20
45.172020
 30
0.0
 10
13.377960
 20
48.172020
 30
0.0
  0
LWPOLYLINE
  5
15b
100
AcDbEntity
  8
Calque_1
 62
5
100
AcDbPolyline
 90
2
 70
0
 10
64.777960
 20
48.172020
 30
0.0
 10
74.777960
 20
48.172020
 30
0.0
  0
LWPOLYLINE
  5
15c
100
AcDbEntity
  8
Calque_1
 62
5
100
AcDbPolyline
 90
2
 70
0
 10
64.777960
 20
45.172020
 30
0.0
 10
64.777960
 20
48.172020
 30
0.0
  0
LWPOLYLINE
  5
15d
100
AcDbEntity
  8
Calque_1
 62
5
100
AcDbPolyline
 90
3
 70
0
 10
74.777960
 20
48.172020
 30
0.0
 10
74.777960
 20
45.172020
 30
0.0
 10
64.777960
 20
45.172020
 30
0.0
  0
LWPOLYLINE
  5
15e
100
AcDbEntity
  8
Calque_1
 62
5
100
AcDbPolyline
 90
4
 70
1
 10
167.577960
 20
391.172020
 30
0.0
 10
167.577960
 20
388.172020
 30
0.0
 10
177.577960
 20
388.172020
 30
0.0
 10
177.577960
 20
391.172020
 30
0.0
  0
LWPOLYLINE
  5
15f
100
AcDbEntity
  8
Calque_1
 62
5
100
AcDbPolyline
 90
2
 70
0
 10
116.177960
 20
388.172020
 30
0.0
 10
116.177960
 20
391.172020
 30
0.0
  0
LWPOLYLINE
  5
160
100
AcDbEntity
  8
Calque_1
 62
5
100
AcDbPolyline
 90
2
 70
0
 10
121.177960
 20
388.172020
 30
0.0
 10
116.177960
 20
388.172020
 30
0.0
  0
LWPOLYLINE
  5
161
100
AcDbEntity
  8
Calque_1
 62
5
100
AcDbPolyline
 90
4
 70
0
 10
121.177960
 20
388.172020
 30
0.0
 10
126.177960
 20
388.172020
 30
0.0
 10
126.177960
 20
391.172020
 30
0.0
 10
121.177960
 20
391.172020
 30
0.0
  0
LWPOLYLINE
  5
162
100
AcDbEntity
  8
Calque_1
 62
5
100
AcDbPolyline
 90
2
 70
0
 10
116.177960
 20
391.172020
 30
0.0
 10
121.177960
 20
391.172020
 30
0.0
  0
LWPOLYLINE
  5
163
100
AcDbEntity
  8
Calque_1
 62
5
100
AcDbPolyline
 90
2
 70
0
 10
64.777960
 20
388.172020
 30
0.0
 10
64.777960
 20
391.172020
 30
0.0
  0
LWPOLYLINE
  5
164
100
AcDbEntity
  8
Calque_1
 62
5
100
AcDbPolyline
 90
2
 70
0
 10
74.777960
 20
388.172020
 30
0.0
 10
64.777960
 20
388.172020
 30
0.0
  0
LWPOLYLINE
  5
165
100
AcDbEntity
  8
Calque_1
 62
5
100
AcDbPolyline
 90
3
 70
0
 10
64.777960
 20
391.172020
 30
0.0
 10
74.777960
 20
391.172020
 30
0.0
 10
74.777960
 20
388.172020
 30
0.0
  0
LWPOLYLINE
  5
166
100
AcDbEntity
  8
Calque_1
 62
5
100
AcDbPolyline
 90
4
 70
1
 10
234.177960
 20
369.972020
 30
0.0
 10
234.177960
 20
379.972020
 30
0.0
 10
231.177960
 20
379.972020
 30
0.0
 10
231.177960
 20
369.972020
 30
0.0
  0
LWPOLYLINE
  5
167
100
AcDbEntity
  8
Calque_1
 62
5
100
AcDbPolyline
 90
4
 70
1
 10
218.977960
 20
388.172020
 30
0.0
 10
228.977960
 20
388.172020
 30
0.0
 10
228.977960
 20
391.172020
 30
0.0
 10
218.977960
 20
391.172020
 30
0.0
  0
LWPOLYLINE
  5
168
100
AcDbEntity
  8
Calque_1
 62
5
100
AcDbPolyline
 90
2
 70
0
 10
13.377960
 20
391.172020
 30
0.0
 10
23.377960
 20
391.172020
 30
0.0
  0
LWPOLYLINE
  5
169
100
AcDbEntity
  8
Calque_1
 62
5
100
AcDbPolyline
 90
2
 70
0
 10
13.377960
 20
388.172020
 30
0.0
 10
13.377960
 20
391.172020
 30
0.0
  0
LWPOLYLINE
  5
16a
100
AcDbEntity
  8
Calque_1
 62
5
100
AcDbPolyline
 90
3
 70
0
 10
23.377960
 20
391.172020
 30
0.0
 10
23.377960
 20
388.172020
 30
0.0
 10
13.377960
 20
388.172020
 30
0.0
  0
LWPOLYLINE
  5
16b
100
AcDbEntity
  8
Calque_1
 62
5
100
AcDbPolyline
 90
2
 70
0
 10
8.177960
 20
369.972020
 30
0.0
 10
8.177960
 20
379.972020
 30
0.0
  0
LWPOLYLINE
  5
16c
100
AcDbEntity
  8
Calque_1
 62
5
100
AcDbPolyline
 90
2
 70
0
 10
11.177960
 20
369.972020
 30
0.0
 10
8.177960
 20
369.972020
 30
0.0
  0
LWPOLYLINE
  5
16d
100
AcDbEntity
  8
Calque_1
 62
5
100
AcDbPolyline
 90
3
 70
0
 10
8.177960
 20
379.972020
 30
0.0
 10
11.177960
 20
379.972020
 30
0.0
 10
11.177960
 20
369.972020
 30
0.0
  0
LWPOLYLINE
  5
16e
100
AcDbEntity
  8
Calque_1
 62
7
100
AcDbPolyline
 90
2
 70
0
 10
245.115360
 20
309.530180
 30
0.0
 10
597.115360
 20
309.530180
 30
0.0
  0
LWPOLYLINE
  5
16f
100
AcDbEntity
  8
Calque_1
 62
7
100
AcDbPolyline
 90
2
 70
0
 10
245.115360
 20
314.530180
 30
0.0
 10
245.115360
 20
309.530180
 30
0.0
  0
LWPOLYLINE
  5
170
100
AcDbEntity
  8
Calque_1
 62
7
100
AcDbPolyline
 90
2
 70
0
 10
597.115360
 20
309.530180
 30
0.0
 10
597.115360
 20
314.530180
 30
0.0
  0
LWPOLYLINE
  5
171
100
AcDbEntity
  8
Calque_1
 62
7
100
AcDbPolyline
 90
2
 70
0
 10
594.115360
 20
314.530180
 30
0.0
 10
597.115360
 20
314.530180
 30
0.0
  0
LWPOLYLINE
  5
172
100
AcDbEntity
  8
Calque_1
 62
7
100
AcDbPolyline
 90
2
 70
0
 10
594.115360
 20
329.530180
 30
0.0
 10
594.115360
 20
314.530180
 30
0.0
  0
LWPOLYLINE
  5
173
100
AcDbEntity
  8
Calque_1
 62
7
100
AcDbPolyline
 90
2
 70
0
 10
597.115360
 20
329.530180
 30
0.0
 10
594.115360
 20
329.530180
 30
0.0
  0
LWPOLYLINE
  5
174
100
AcDbEntity
  8
Calque_1
 62
7
100
AcDbPolyline
 90
2
 70
0
 10
597.115360
 20
329.530180
 30
0.0
 10
597.115360
 20
331.530180
 30
0.0
  0
LWPOLYLINE
  5
175
100
AcDbEntity
  8
Calque_1
 62
7
100
AcDbPolyline
 90
2
 70
0
 10
558.715360
 20
331.530180
 30
0.0
 10
597.115360
 20
331.530180
 30
0.0
  0
LWPOLYLINE
  5
176
100
AcDbEntity
  8
Calque_1
 62
7
100
AcDbPolyline
 90
2
 70
0
 10
558.715360
 20
334.530180
 30
0.0
 10
558.715360
 20
331.530180
 30
0.0
  0
LWPOLYLINE
  5
177
100
AcDbEntity
  8
Calque_1
 62
7
100
AcDbPolyline
 90
2
 70
0
 10
558.715360
 20
334.530180
 30
0.0
 10
518.715360
 20
334.530180
 30
0.0
  0
LWPOLYLINE
  5
178
100
AcDbEntity
  8
Calque_1
 62
7
100
AcDbPolyline
 90
2
 70
0
 10
518.715360
 20
331.530180
 30
0.0
 10
518.715360
 20
334.530180
 30
0.0
  0
LWPOLYLINE
  5
179
100
AcDbEntity
  8
Calque_1
 62
7
100
AcDbPolyline
 90
2
 70
0
 10
480.315360
 20
331.530180
 30
0.0
 10
518.715360
 20
331.530180
 30
0.0
  0
LWPOLYLINE
  5
17a
100
AcDbEntity
  8
Calque_1
 62
7
100
AcDbPolyline
 90
2
 70
0
 10
480.315360
 20
334.530180
 30
0.0
 10
480.315360
 20
331.530180
 30
0.0
  0
LWPOLYLINE
  5
17b
100
AcDbEntity
  8
Calque_1
 62
7
100
AcDbPolyline
 90
2
 70
0
 10
480.315360
 20
334.530180
 30
0.0
 10
440.315360
 20
334.530180
 30
0.0
  0
LWPOLYLINE
  5
17c
100
AcDbEntity
  8
Calque_1
 62
7
100
AcDbPolyline
 90
2
 70
0
 10
440.315360
 20
331.530180
 30
0.0
 10
440.315360
 20
334.530180
 30
0.0
  0
LWPOLYLINE
  5
17d
100
AcDbEntity
  8
Calque_1
 62
7
100
AcDbPolyline
 90
2
 70
0
 10
401.915360
 20
331.530180
 30
0.0
 10
440.315360
 20
331.530180
 30
0.0
  0
LWPOLYLINE
  5
17e
100
AcDbEntity
  8
Calque_1
 62
7
100
AcDbPolyline
 90
2
 70
0
 10
401.915360
 20
334.530180
 30
0.0
 10
401.915360
 20
331.530180
 30
0.0
  0
LWPOLYLINE
  5
17f
100
AcDbEntity
  8
Calque_1
 62
7
100
AcDbPolyline
 90
2
 70
0
 10
401.915360
 20
334.530180
 30
0.0
 10
361.915360
 20
334.530180
 30
0.0
  0
LWPOLYLINE
  5
180
100
AcDbEntity
  8
Calque_1
 62
7
100
AcDbPolyline
 90
2
 70
0
 10
361.915360
 20
331.530180
 30
0.0
 10
361.915360
 20
334.530180
 30
0.0
  0
LWPOLYLINE
  5
181
100
AcDbEntity
  8
Calque_1
 62
7
100
AcDbPolyline
 90
2
 70
0
 10
323.515360
 20
331.530180
 30
0.0
 10
361.915360
 20
331.530180
 30
0.0
  0
LWPOLYLINE
  5
182
100
AcDbEntity
  8
Calque_1
 62
7
100
AcDbPolyline
 90
2
 70
0
 10
323.515360
 20
334.530180
 30
0.0
 10
323.515360
 20
331.530180
 30
0.0
  0
LWPOLYLINE
  5
183
100
AcDbEntity
  8
Calque_1
 62
7
100
AcDbPolyline
 90
2
 70
0
 10
323.515360
 20
334.530180
 30
0.0
 10
283.515360
 20
334.530180
 30
0.0
  0
LWPOLYLINE
  5
184
100
AcDbEntity
  8
Calque_1
 62
7
100
AcDbPolyline
 90
2
 70
0
 10
283.515360
 20
331.530180
 30
0.0
 10
283.515360
 20
334.530180
 30
0.0
  0
LWPOLYLINE
  5
185
100
AcDbEntity
  8
Calque_1
 62
7
100
AcDbPolyline
 90
2
 70
0
 10
245.115360
 20
331.530180
 30
0.0
 10
283.515360
 20
331.530180
 30
0.0
  0
LWPOLYLINE
  5
186
100
AcDbEntity
  8
Calque_1
 62
7
100
AcDbPolyline
 90
2
 70
0
 10
245.115360
 20
331.530180
 30
0.0
 10
245.115360
 20
329.530180
 30
0.0
  0
LWPOLYLINE
  5
187
100
AcDbEntity
  8
Calque_1
 62
7
100
AcDbPolyline
 90
2
 70
0
 10
248.115360
 20
329.530180
 30
0.0
 10
245.115360
 20
329.530180
 30
0.0
  0
LWPOLYLINE
  5
188
100
AcDbEntity
  8
Calque_1
 62
7
100
AcDbPolyline
 90
2
 70
0
 10
248.115360
 20
314.530180
 30
0.0
 10
248.115360
 20
329.530180
 30
0.0
  0
LWPOLYLINE
  5
189
100
AcDbEntity
  8
Calque_1
 62
7
100
AcDbPolyline
 90
2
 70
0
 10
245.115360
 20
314.530180
 30
0.0
 10
248.115360
 20
314.530180
 30
0.0
  0
LWPOLYLINE
  5
18a
100
AcDbEntity
  8
Calque_1
 62
7
100
AcDbPolyline
 90
2
 70
0
 10
245.115360
 20
305.959000
 30
0.0
 10
597.115360
 20
305.959000
 30
0.0
  0
LWPOLYLINE
  5
18b
100
AcDbEntity
  8
Calque_1
 62
7
100
AcDbPolyline
 90
2
 70
0
 10
245.115360
 20
300.959000
 30
0.0
 10
245.115360
 20
305.959000
 30
0.0
  0
LWPOLYLINE
  5
18c
100
AcDbEntity
  8
Calque_1
 62
7
100
AcDbPolyline
 90
2
 70
0
 10
597.115360
 20
305.959000
 30
0.0
 10
597.115360
 20
300.959000
 30
0.0
  0
LWPOLYLINE
  5
18d
100
AcDbEntity
  8
Calque_1
 62
7
100
AcDbPolyline
 90
2
 70
0
 10
594.115360
 20
300.959000
 30
0.0
 10
597.115360
 20
300.959000
 30
0.0
  0
LWPOLYLINE
  5
18e
100
AcDbEntity
  8
Calque_1
 62
7
100
AcDbPolyline
 90
2
 70
0
 10
594.115360
 20
285.959000
 30
0.0
 10
594.115360
 20
300.959000
 30
0.0
  0
LWPOLYLINE
  5
18f
100
AcDbEntity
  8
Calque_1
 62
7
100
AcDbPolyline
 90
2
 70
0
 10
597.115360
 20
285.959000
 30
0.0
 10
594.115360
 20
285.959000
 30
0.0
  0
LWPOLYLINE
  5
190
100
AcDbEntity
  8
Calque_1
 62
7
100
AcDbPolyline
 90
2
 70
0
 10
597.115360
 20
285.959000
 30
0.0
 10
597.115360
 20
283.959000
 30
0.0
  0
LWPOLYLINE
  5
191
100
AcDbEntity
  8
Calque_1
 62
7
100
AcDbPolyline
 90
2
 70
0
 10
558.715360
 20
283.959000
 30
0.0
 10
597.115360
 20
283.959000
 30
0.0
  0
LWPOLYLINE
  5
192
100
AcDbEntity
  8
Calque_1
 62
7
100
AcDbPolyline
 90
2
 70
0
 10
558.715360
 20
280.959000
 30
0.0
 10
558.715360
 20
283.959000
 30
0.0
  0
LWPOLYLINE
  5
193
100
AcDbEntity
  8
Calque_1
 62
7
100
AcDbPolyline
 90
2
 70
0
 10
558.715360
 20
280.959000
 30
0.0
 10
518.715360
 20
280.959000
 30
0.0
  0
LWPOLYLINE
  5
194
100
AcDbEntity
  8
Calque_1
 62
7
100
AcDbPolyline
 90
2
 70
0
 10
518.715360
 20
283.959000
 30
0.0
 10
518.715360
 20
280.959000
 30
0.0
  0
LWPOLYLINE
  5
195
100
AcDbEntity
  8
Calque_1
 62
7
100
AcDbPolyline
 90
2
 70
0
 10
480.315360
 20
283.959000
 30
0.0
 10
518.715360
 20
283.959000
 30
0.0
  0
LWPOLYLINE
  5
196
100
AcDbEntity
  8
Calque_1
 62
7
100
AcDbPolyline
 90
2
 70
0
 10
480.315360
 20
280.959000
 30
0.0
 10
480.315360
 20
283.959000
 30
0.0
  0
LWPOLYLINE
  5
197
100
AcDbEntity
  8
Calque_1
 62
7
100
AcDbPolyline
 90
2
 70
0
 10
480.315360
 20
280.959000
 30
0.0
 10
440.315360
 20
280.959000
 30
0.0
  0
LWPOLYLINE
  5
198
100
AcDbEntity
  8
Calque_1
 62
7
100
AcDbPolyline
 90
2
 70
0
 10
440.315360
 20
283.959000
 30
0.0
 10
440.315360
 20
280.959000
 30
0.0
  0
LWPOLYLINE
  5
199
100
AcDbEntity
  8
Calque_1
 62
7
100
AcDbPolyline
 90
2
 70
0
 10
401.915360
 20
283.959000
 30
0.0
 10
440.315360
 20
283.959000
 30
0.0
  0
LWPOLYLINE
  5
19a
100
AcDbEntity
  8
Calque_1
 62
7
100
AcDbPolyline
 90
2
 70
0
 10
401.915360
 20
280.959000
 30
0.0
 10
401.915360
 20
283.959000
 30
0.0
  0
LWPOLYLINE
  5
19b
100
AcDbEntity
  8
Calque_1
 62
7
100
AcDbPolyline
 90
2
 70
0
 10
401.915360
 20
280.959000
 30
0.0
 10
361.915360
 20
280.959000
 30
0.0
  0
LWPOLYLINE
  5
19c
100
AcDbEntity
  8
Calque_1
 62
7
100
AcDbPolyline
 90
2
 70
0
 10
361.915360
 20
283.959000
 30
0.0
 10
361.915360
 20
280.959000
 30
0.0
  0
LWPOLYLINE
  5
19d
100
AcDbEntity
  8
Calque_1
 62
7
100
AcDbPolyline
 90
2
 70
0
 10
323.515360
 20
283.959000
 30
0.0
 10
361.915360
 20
283.959000
 30
0.0
  0
LWPOLYLINE
  5
19e
100
AcDbEntity
  8
Calque_1
 62
7
100
AcDbPolyline
 90
2
 70
0
 10
323.515360
 20
280.959000
 30
0.0
 10
323.515360
 20
283.959000
 30
0.0
  0
LWPOLYLINE
  5
19f
100
AcDbEntity
  8
Calque_1
 62
7
100
AcDbPolyline
 90
2
 70
0
 10
323.515360
 20
280.959000
 30
0.0
 10
283.515360
 20
280.959000
 30
0.0
  0
LWPOLYLINE
  5
1a0
100
AcDbEntity
  8
Calque_1
 62
7
100
AcDbPolyline
 90
2
 70
0
 10
283.515360
 20
283.959000
 30
0.0
 10
283.515360
 20
280.959000
 30
0.0
  0
LWPOLYLINE
  5
1a1
100
AcDbEntity
  8
Calque_1
 62
7
100
AcDbPolyline
 90
2
 70
0
 10
245.115360
 20
283.959000
 30
0.0
 10
283.515360
 20
283.959000
 30
0.0
  0
LWPOLYLINE
  5
1a2
100
AcDbEntity
  8
Calque_1
 62
7
100
AcDbPolyline
 90
2
 70
0
 10
245.115360
 20
283.959000
 30
0.0
 10
245.115360
 20
285.959000
 30
0.0
  0
LWPOLYLINE
  5
1a3
100
AcDbEntity
  8
Calque_1
 62
7
100
AcDbPolyline
 90
2
 70
0
 10
248.115360
 20
285.959000
 30
0.0
 10
245.115360
 20
285.959000
 30
0.0
  0
LWPOLYLINE
  5
1a4
100
AcDbEntity
  8
Calque_1
 62
7
100
AcDbPolyline
 90
2
 70
0
 10
248.115360
 20
300.959000
 30
0.0
 10
248.115360
 20
285.959000
 30
0.0
  0
LWPOLYLINE
  5
1a5
100
AcDbEntity
  8
Calque_1
 62
7
100
AcDbPolyline
 90
2
 70
0
 10
245.115360
 20
300.959000
 30
0.0
 10
248.115360
 20
300.959000
 30
0.0
  0
LWPOLYLINE
  5
1a6
100
AcDbEntity
  8
Calque_1
 62
7
100
AcDbPolyline
 90
2
 70
0
 10
248.115370
 20
227.777230
 30
0.0
 10
474.115370
 20
227.777230
 30
0.0
  0
LWPOLYLINE
  5
1a7
100
AcDbEntity
  8
Calque_1
 62
7
100
AcDbPolyline
 90
2
 70
0
 10
248.115370
 20
227.777230
 30
0.0
 10
248.115370
 20
222.777230
 30
0.0
  0
LWPOLYLINE
  5
1a8
100
AcDbEntity
  8
Calque_1
 62
7
100
AcDbPolyline
 90
6
 70
0
 10
474.115370
 20
227.777230
 30
0.0
 10
474.115370
 20
222.777230
 30
0.0
 10
477.115370
 20
222.777230
 30
0.0
 10
477.115370
 20
207.777230
 30
0.0
 10
474.115370
 20
207.777230
 30
0.0
 10
474.115370
 20
205.777230
 30
0.0
  0
LWPOLYLINE
  5
1a9
100
AcDbEntity
  8
Calque_1
 62
7
100
AcDbPolyline
 90
2
 70
0
 10
450.715370
 20
205.777230
 30
0.0
 10
474.115370
 20
205.777230
 30
0.0
  0
LWPOLYLINE
  5
1aa
100
AcDbEntity
  8
Calque_1
 62
7
100
AcDbPolyline
 90
2
 70
0
 10
450.715370
 20
202.777230
 30
0.0
 10
450.715370
 20
205.777230
 30
0.0
  0
LWPOLYLINE
  5
1ab
100
AcDbEntity
  8
Calque_1
 62
7
100
AcDbPolyline
 90
2
 70
0
 10
450.715370
 20
202.777230
 30
0.0
 10
425.715370
 20
202.777230
 30
0.0
  0
LWPOLYLINE
  5
1ac
100
AcDbEntity
  8
Calque_1
 62
7
100
AcDbPolyline
 90
2
 70
0
 10
425.715370
 20
205.777230
 30
0.0
 10
425.715370
 20
202.777230
 30
0.0
  0
LWPOLYLINE
  5
1ad
100
AcDbEntity
  8
Calque_1
 62
7
100
AcDbPolyline
 90
2
 70
0
 10
399.315370
 20
205.777230
 30
0.0
 10
425.715370
 20
205.777230
 30
0.0
  0
LWPOLYLINE
  5
1ae
100
AcDbEntity
  8
Calque_1
 62
7
100
AcDbPolyline
 90
2
 70
0
 10
399.315370
 20
202.777230
 30
0.0
 10
399.315370
 20
205.777230
 30
0.0
  0
LWPOLYLINE
  5
1af
100
AcDbEntity
  8
Calque_1
 62
7
100
AcDbPolyline
 90
2
 70
0
 10
399.315370
 20
202.777230
 30
0.0
 10
374.315370
 20
202.777230
 30
0.0
  0
LWPOLYLINE
  5
1b0
100
AcDbEntity
  8
Calque_1
 62
7
100
AcDbPolyline
 90
2
 70
0
 10
374.315370
 20
205.777230
 30
0.0
 10
374.315370
 20
202.777230
 30
0.0
  0
LWPOLYLINE
  5
1b1
100
AcDbEntity
  8
Calque_1
 62
7
100
AcDbPolyline
 90
2
 70
0
 10
347.915370
 20
205.777230
 30
0.0
 10
374.315370
 20
205.777230
 30
0.0
  0
LWPOLYLINE
  5
1b2
100
AcDbEntity
  8
Calque_1
 62
7
100
AcDbPolyline
 90
2
 70
0
 10
347.915370
 20
202.777230
 30
0.0
 10
347.915370
 20
205.777230
 30
0.0
  0
LWPOLYLINE
  5
1b3
100
AcDbEntity
  8
Calque_1
 62
7
100
AcDbPolyline
 90
2
 70
0
 10
347.915370
 20
202.777230
 30
0.0
 10
322.915370
 20
202.777230
 30
0.0
  0
LWPOLYLINE
  5
1b4
100
AcDbEntity
  8
Calque_1
 62
7
100
AcDbPolyline
 90
2
 70
0
 10
322.915370
 20
205.777230
 30
0.0
 10
322.915370
 20
202.777230
 30
0.0
  0
LWPOLYLINE
  5
1b5
100
AcDbEntity
  8
Calque_1
 62
7
100
AcDbPolyline
 90
2
 70
0
 10
296.515370
 20
205.777230
 30
0.0
 10
322.915370
 20
205.777230
 30
0.0
  0
LWPOLYLINE
  5
1b6
100
AcDbEntity
  8
Calque_1
 62
7
100
AcDbPolyline
 90
2
 70
0
 10
296.515370
 20
202.777230
 30
0.0
 10
296.515370
 20
205.777230
 30
0.0
  0
LWPOLYLINE
  5
1b7
100
AcDbEntity
  8
Calque_1
 62
7
100
AcDbPolyline
 90
2
 70
0
 10
296.515370
 20
202.777230
 30
0.0
 10
271.515370
 20
202.777230
 30
0.0
  0
LWPOLYLINE
  5
1b8
100
AcDbEntity
  8
Calque_1
 62
7
100
AcDbPolyline
 90
2
 70
0
 10
271.515370
 20
205.777230
 30
0.0
 10
271.515370
 20
202.777230
 30
0.0
  0
LWPOLYLINE
  5
1b9
100
AcDbEntity
  8
Calque_1
 62
7
100
AcDbPolyline
 90
2
 70
0
 10
248.115370
 20
205.777230
 30
0.0
 10
271.515370
 20
205.777230
 30
0.0
  0
LWPOLYLINE
  5
1ba
100
AcDbEntity
  8
Calque_1
 62
7
100
AcDbPolyline
 90
2
 70
0
 10
248.115370
 20
207.777230
 30
0.0
 10
248.115370
 20
205.777230
 30
0.0
  0
LWPOLYLINE
  5
1bb
100
AcDbEntity
  8
Calque_1
 62
7
100
AcDbPolyline
 90
2
 70
0
 10
245.115370
 20
207.777230
 30
0.0
 10
248.115370
 20
207.777230
 30
0.0
  0
LWPOLYLINE
  5
1bc
100
AcDbEntity
  8
Calque_1
 62
7
100
AcDbPolyline
 90
2
 70
0
 10
245.115370
 20
207.777230
 30
0.0
 10
245.115370
 20
222.777230
 30
0.0
  0
LWPOLYLINE
  5
1bd
100
AcDbEntity
  8
Calque_1
 62
7
100
AcDbPolyline
 90
2
 70
0
 10
248.115370
 20
222.777230
 30
0.0
 10
245.115370
 20
222.777230
 30
0.0
  0
LWPOLYLINE
  5
1be
100
AcDbEntity
  8
Calque_1
 62
7
100
AcDbPolyline
 90
2
 70
0
 10
248.115530
 20
198.360570
 30
0.0
 10
474.115530
 20
198.360570
 30
0.0
  0
LWPOLYLINE
  5
1bf
100
AcDbEntity
  8
Calque_1
 62
7
100
AcDbPolyline
 90
2
 70
0
 10
248.115530
 20
198.360570
 30
0.0
 10
248.115530
 20
193.360570
 30
0.0
  0
LWPOLYLINE
  5
1c0
100
AcDbEntity
  8
Calque_1
 62
7
100
AcDbPolyline
 90
6
 70
0
 10
474.115530
 20
198.360570
 30
0.0
 10
474.115530
 20
193.360570
 30
0.0
 10
477.115530
 20
193.360570
 30
0.0
 10
477.115530
 20
178.360570
 30
0.0
 10
474.115530
 20
178.360570
 30
0.0
 10
474.115530
 20
176.360570
 30
0.0
  0
LWPOLYLINE
  5
1c1
100
AcDbEntity
  8
Calque_1
 62
7
100
AcDbPolyline
 90
2
 70
0
 10
450.715530
 20
176.360570
 30
0.0
 10
474.115530
 20
176.360570
 30
0.0
  0
LWPOLYLINE
  5
1c2
100
AcDbEntity
  8
Calque_1
 62
7
100
AcDbPolyline
 90
2
 70
0
 10
450.715530
 20
173.360570
 30
0.0
 10
450.715530
 20
176.360570
 30
0.0
  0
LWPOLYLINE
  5
1c3
100
AcDbEntity
  8
Calque_1
 62
7
100
AcDbPolyline
 90
2
 70
0
 10
450.715530
 20
173.360570
 30
0.0
 10
425.715530
 20
173.360570
 30
0.0
  0
LWPOLYLINE
  5
1c4
100
AcDbEntity
  8
Calque_1
 62
7
100
AcDbPolyline
 90
2
 70
0
 10
425.715530
 20
176.360570
 30
0.0
 10
425.715530
 20
173.360570
 30
0.0
  0
LWPOLYLINE
  5
1c5
100
AcDbEntity
  8
Calque_1
 62
7
100
AcDbPolyline
 90
2
 70
0
 10
399.315530
 20
176.360570
 30
0.0
 10
425.715530
 20
176.360570
 30
0.0
  0
LWPOLYLINE
  5
1c6
100
AcDbEntity
  8
Calque_1
 62
7
100
AcDbPolyline
 90
2
 70
0
 10
399.315530
 20
173.360570
 30
0.0
 10
399.315530
 20
176.360570
 30
0.0
  0
LWPOLYLINE
  5
1c7
100
AcDbEntity
  8
Calque_1
 62
7
100
AcDbPolyline
 90
2
 70
0
 10
399.315530
 20
173.360570
 30
0.0
 10
374.315530
 20
173.360570
 30
0.0
  0
LWPOLYLINE
  5
1c8
100
AcDbEntity
  8
Calque_1
 62
7
100
AcDbPolyline
 90
2
 70
0
 10
374.315530
 20
176.360570
 30
0.0
 10
374.315530
 20
173.360570
 30
0.0
  0
LWPOLYLINE
  5
1c9
100
AcDbEntity
  8
Calque_1
 62
7
100
AcDbPolyline
 90
2
 70
0
 10
347.915530
 20
176.360570
 30
0.0
 10
374.315530
 20
176.360570
 30
0.0
  0
LWPOLYLINE
  5
1ca
100
AcDbEntity
  8
Calque_1
 62
7
100
AcDbPolyline
 90
2
 70
0
 10
347.915530
 20
173.360570
 30
0.0
 10
347.915530
 20
176.360570
 30
0.0
  0
LWPOLYLINE
  5
1cb
100
AcDbEntity
  8
Calque_1
 62
7
100
AcDbPolyline
 90
2
 70
0
 10
347.915530
 20
173.360570
 30
0.0
 10
322.915530
 20
173.360570
 30
0.0
  0
LWPOLYLINE
  5
1cc
100
AcDbEntity
  8
Calque_1
 62
7
100
AcDbPolyline
 90
2
 70
0
 10
322.915530
 20
176.360570
 30
0.0
 10
322.915530
 20
173.360570
 30
0.0
  0
LWPOLYLINE
  5
1cd
100
AcDbEntity
  8
Calque_1
 62
7
100
AcDbPolyline
 90
2
 70
0
 10
296.515530
 20
176.360570
 30
0.0
 10
322.915530
 20
176.360570
 30
0.0
  0
LWPOLYLINE
  5
1ce
100
AcDbEntity
  8
Calque_1
 62
7
100
AcDbPolyline
 90
2
 70
0
 10
296.515530
 20
173.360570
 30
0.0
 10
296.515530
 20
176.360570
 30
0.0
  0
LWPOLYLINE
  5
1cf
100
AcDbEntity
  8
Calque_1
 62
7
100
AcDbPolyline
 90
2
 70
0
 10
296.515530
 20
173.360570
 30
0.0
 10
271.515530
 20
173.360570
 30
0.0
  0
LWPOLYLINE
  5
1d0
100
AcDbEntity
  8
Calque_1
 62
7
100
AcDbPolyline
 90
2
 70
0
 10
271.515530
 20
176.360570
 30
0.0
 10
271.515530
 20
173.360570
 30
0.0
  0
LWPOLYLINE
  5
1d1
100
AcDbEntity
  8
Calque_1
 62
7
100
AcDbPolyline
 90
2
 70
0
 10
248.115530
 20
176.360570
 30
0.0
 10
271.515530
 20
176.360570
 30
0.0
  0
LWPOLYLINE
  5
1d2
100
AcDbEntity
  8
Calque_1
 62
7
100
AcDbPolyline
 90
2
 70
0
 10
248.115530
 20
178.360570
 30
0.0
 10
248.115530
 20
176.360570
 30
0.0
  0
LWPOLYLINE
  5
1d3
100
AcDbEntity
  8
Calque_1
 62
7
100
AcDbPolyline
 90
2
 70
0
 10
245.115530
 20
178.360570
 30
0.0
 10
248.115530
 20
178.360570
 30
0.0
  0
LWPOLYLINE
  5
1d4
100
AcDbEntity
  8
Calque_1
 62
7
100
AcDbPolyline
 90
2
 70
0
 10
245.115530
 20
178.360570
 30
0.0
 10
245.115530
 20
193.360570
 30
0.0
  0
LWPOLYLINE
  5
1d5
100
AcDbEntity
  8
Calque_1
 62
7
100
AcDbPolyline
 90
2
 70
0
 10
248.115530
 20
193.360570
 30
0.0
 10
245.115530
 20
193.360570
 30
0.0
  0
LWPOLYLINE
  5
1d6
100
AcDbEntity
  8
Calque_1
 62
7
100
AcDbPolyline
 90
2
 70
0
 10
245.115360
 20
256.907140
 30
0.0
 10
591.115360
 20
256.907140
 30
0.0
  0
LWPOLYLINE
  5
1d7
100
AcDbEntity
  8
Calque_1
 62
7
100
AcDbPolyline
 90
2
 70
0
 10
245.115360
 20
256.907140
 30
0.0
 10
245.115360
 20
266.407140
 30
0.0
  0
LWPOLYLINE
  5
1d8
100
AcDbEntity
  8
Calque_1
 62
7
100
AcDbPolyline
 90
2
 70
0
 10
591.115360
 20
266.407140
 30
0.0
 10
591.115360
 20
256.907140
 30
0.0
  0
LWPOLYLINE
  5
1d9
100
AcDbEntity
  8
Calque_1
 62
7
100
AcDbPolyline
 90
2
 70
0
 10
588.115360
 20
266.407140
 30
0.0
 10
591.115360
 20
266.407140
 30
0.0
  0
LWPOLYLINE
  5
1da
100
AcDbEntity
  8
Calque_1
 62
7
100
AcDbPolyline
 90
2
 70
0
 10
588.115360
 20
272.907140
 30
0.0
 10
588.115360
 20
266.407140
 30
0.0
  0
LWPOLYLINE
  5
1db
100
AcDbEntity
  8
Calque_1
 62
7
100
AcDbPolyline
 90
2
 70
0
 10
579.915360
 20
272.907140
 30
0.0
 10
588.115360
 20
272.907140
 30
0.0
  0
LWPOLYLINE
  5
1dc
100
AcDbEntity
  8
Calque_1
 62
7
100
AcDbPolyline
 90
2
 70
0
 10
579.915360
 20
275.907140
 30
0.0
 10
579.915360
 20
272.907140
 30
0.0
  0
LWPOLYLINE
  5
1dd
100
AcDbEntity
  8
Calque_1
 62
7
100
AcDbPolyline
 90
2
 70
0
 10
579.915360
 20
275.907140
 30
0.0
 10
569.915360
 20
275.907140
 30
0.0
  0
LWPOLYLINE
  5
1de
100
AcDbEntity
  8
Calque_1
 62
7
100
AcDbPolyline
 90
2
 70
0
 10
569.915360
 20
272.907140
 30
0.0
 10
569.915360
 20
275.907140
 30
0.0
  0
LWPOLYLINE
  5
1df
100
AcDbEntity
  8
Calque_1
 62
7
100
AcDbPolyline
 90
2
 70
0
 10
501.515360
 20
272.907140
 30
0.0
 10
569.915360
 20
272.907140
 30
0.0
  0
LWPOLYLINE
  5
1e0
100
AcDbEntity
  8
Calque_1
 62
7
100
AcDbPolyline
 90
2
 70
0
 10
501.515360
 20
275.907140
 30
0.0
 10
501.515360
 20
272.907140
 30
0.0
  0
LWPOLYLINE
  5
1e1
100
AcDbEntity
  8
Calque_1
 62
7
100
AcDbPolyline
 90
2
 70
0
 10
501.515360
 20
275.907140
 30
0.0
 10
491.515360
 20
275.907140
 30
0.0
  0
LWPOLYLINE
  5
1e2
100
AcDbEntity
  8
Calque_1
 62
7
100
AcDbPolyline
 90
2
 70
0
 10
491.515360
 20
272.907140
 30
0.0
 10
491.515360
 20
275.907140
 30
0.0
  0
LWPOLYLINE
  5
1e3
100
AcDbEntity
  8
Calque_1
 62
7
100
AcDbPolyline
 90
2
 70
0
 10
423.115360
 20
272.907140
 30
0.0
 10
491.515360
 20
272.907140
 30
0.0
  0
LWPOLYLINE
  5
1e4
100
AcDbEntity
  8
Calque_1
 62
7
100
AcDbPolyline
 90
2
 70
0
 10
423.115360
 20
275.907140
 30
0.0
 10
423.115360
 20
272.907140
 30
0.0
  0
LWPOLYLINE
  5
1e5
100
AcDbEntity
  8
Calque_1
 62
7
100
AcDbPolyline
 90
2
 70
0
 10
423.115360
 20
275.907140
 30
0.0
 10
413.115360
 20
275.907140
 30
0.0
  0
LWPOLYLINE
  5
1e6
100
AcDbEntity
  8
Calque_1
 62
7
100
AcDbPolyline
 90
2
 70
0
 10
413.115360
 20
272.907140
 30
0.0
 10
413.115360
 20
275.907140
 30
0.0
  0
LWPOLYLINE
  5
1e7
100
AcDbEntity
  8
Calque_1
 62
7
100
AcDbPolyline
 90
2
 70
0
 10
344.715360
 20
272.907140
 30
0.0
 10
413.115360
 20
272.907140
 30
0.0
  0
LWPOLYLINE
  5
1e8
100
AcDbEntity
  8
Calque_1
 62
7
100
AcDbPolyline
 90
2
 70
0
 10
344.715360
 20
275.907140
 30
0.0
 10
344.715360
 20
272.907140
 30
0.0
  0
LWPOLYLINE
  5
1e9
100
AcDbEntity
  8
Calque_1
 62
7
100
AcDbPolyline
 90
2
 70
0
 10
344.715360
 20
275.907140
 30
0.0
 10
334.715360
 20
275.907140
 30
0.0
  0
LWPOLYLINE
  5
1ea
100
AcDbEntity
  8
Calque_1
 62
7
100
AcDbPolyline
 90
2
 70
0
 10
334.715360
 20
272.907140
 30
0.0
 10
334.715360
 20
275.907140
 30
0.0
  0
LWPOLYLINE
  5
1eb
100
AcDbEntity
  8
Calque_1
 62
7
100
AcDbPolyline
 90
2
 70
0
 10
266.315360
 20
272.907140
 30
0.0
 10
334.715360
 20
272.907140
 30
0.0
  0
LWPOLYLINE
  5
1ec
100
AcDbEntity
  8
Calque_1
 62
7
100
AcDbPolyline
 90
2
 70
0
 10
266.315360
 20
275.907140
 30
0.0
 10
266.315360
 20
272.907140
 30
0.0
  0
LWPOLYLINE
  5
1ed
100
AcDbEntity
  8
Calque_1
 62
7
100
AcDbPolyline
 90
2
 70
0
 10
266.315360
 20
275.907140
 30
0.0
 10
256.315360
 20
275.907140
 30
0.0
  0
LWPOLYLINE
  5
1ee
100
AcDbEntity
  8
Calque_1
 62
7
100
AcDbPolyline
 90
2
 70
0
 10
256.315360
 20
272.907140
 30
0.0
 10
256.315360
 20
275.907140
 30
0.0
  0
LWPOLYLINE
  5
1ef
100
AcDbEntity
  8
Calque_1
 62
7
100
AcDbPolyline
 90
2
 70
0
 10
248.115360
 20
272.907140
 30
0.0
 10
256.315360
 20
272.907140
 30
0.0
  0
LWPOLYLINE
  5
1f0
100
AcDbEntity
  8
Calque_1
 62
7
100
AcDbPolyline
 90
2
 70
0
 10
248.115360
 20
266.407140
 30
0.0
 10
248.115360
 20
272.907140
 30
0.0
  0
LWPOLYLINE
  5
1f1
100
AcDbEntity
  8
Calque_1
 62
7
100
AcDbPolyline
 90
2
 70
0
 10
245.115360
 20
266.407140
 30
0.0
 10
248.115360
 20
266.407140
 30
0.0
  0
LWPOLYLINE
  5
1f2
100
AcDbEntity
  8
Calque_1
 62
7
100
AcDbPolyline
 90
2
 70
0
 10
245.115370
 20
233.786230
 30
0.0
 10
591.115370
 20
233.786230
 30
0.0
  0
LWPOLYLINE
  5
1f3
100
AcDbEntity
  8
Calque_1
 62
7
100
AcDbPolyline
 90
2
 70
0
 10
245.115370
 20
233.786230
 30
0.0
 10
245.115370
 20
243.286230
 30
0.0
  0
LWPOLYLINE
  5
1f4
100
AcDbEntity
  8
Calque_1
 62
7
100
AcDbPolyline
 90
2
 70
0
 10
591.115370
 20
243.286230
 30
0.0
 10
591.115370
 20
233.786230
 30
0.0
  0
LWPOLYLINE
  5
1f5
100
AcDbEntity
  8
Calque_1
 62
7
100
AcDbPolyline
 90
2
 70
0
 10
588.115370
 20
243.286230
 30
0.0
 10
591.115370
 20
243.286230
 30
0.0
  0
LWPOLYLINE
  5
1f6
100
AcDbEntity
  8
Calque_1
 62
7
100
AcDbPolyline
 90
2
 70
0
 10
588.115370
 20
249.786230
 30
0.0
 10
588.115370
 20
243.286230
 30
0.0
  0
LWPOLYLINE
  5
1f7
100
AcDbEntity
  8
Calque_1
 62
7
100
AcDbPolyline
 90
2
 70
0
 10
579.915370
 20
249.786230
 30
0.0
 10
588.115370
 20
249.786230
 30
0.0
  0
LWPOLYLINE
  5
1f8
100
AcDbEntity
  8
Calque_1
 62
7
100
AcDbPolyline
 90
2
 70
0
 10
579.915370
 20
252.786230
 30
0.0
 10
579.915370
 20
249.786230
 30
0.0
  0
LWPOLYLINE
  5
1f9
100
AcDbEntity
  8
Calque_1
 62
7
100
AcDbPolyline
 90
2
 70
0
 10
579.915370
 20
252.786230
 30
0.0
 10
569.915370
 20
252.786230
 30
0.0
  0
LWPOLYLINE
  5
1fa
100
AcDbEntity
  8
Calque_1
 62
7
100
AcDbPolyline
 90
2
 70
0
 10
569.915370
 20
249.786230
 30
0.0
 10
569.915370
 20
252.786230
 30
0.0
  0
LWPOLYLINE
  5
1fb
100
AcDbEntity
  8
Calque_1
 62
7
100
AcDbPolyline
 90
2
 70
0
 10
501.515370
 20
249.786230
 30
0.0
 10
569.915370
 20
249.786230
 30
0.0
  0
LWPOLYLINE
  5
1fc
100
AcDbEntity
  8
Calque_1
 62
7
100
AcDbPolyline
 90
2
 70
0
 10
501.515370
 20
252.786230
 30
0.0
 10
501.515370
 20
249.786230
 30
0.0
  0
LWPOLYLINE
  5
1fd
100
AcDbEntity
  8
Calque_1
 62
7
100
AcDbPolyline
 90
2
 70
0
 10
501.515370
 20
252.786230
 30
0.0
 10
491.515370
 20
252.786230
 30
0.0
  0
LWPOLYLINE
  5
1fe
100
AcDbEntity
  8
Calque_1
 62
7
100
AcDbPolyline
 90
2
 70
0
 10
491.515370
 20
249.786230
 30
0.0
 10
491.515370
 20
252.786230
 30
0.0
  0
LWPOLYLINE
  5
1ff
100
AcDbEntity
  8
Calque_1
 62
7
100
AcDbPolyline
 90
2
 70
0
 10
423.115370
 20
249.786230
 30
0.0
 10
491.515370
 20
249.786230
 30
0.0
  0
LWPOLYLINE
  5
200
100
AcDbEntity
  8
Calque_1
 62
7
100
AcDbPolyline
 90
2
 70
0
 10
423.115370
 20
252.786230
 30
0.0
 10
423.115370
 20
249.786230
 30
0.0
  0
LWPOLYLINE
  5
201
100
AcDbEntity
  8
Calque_1
 62
7
100
AcDbPolyline
 90
2
 70
0
 10
423.115370
 20
252.786230
 30
0.0
 10
413.115370
 20
252.786230
 30
0.0
  0
LWPOLYLINE
  5
202
100
AcDbEntity
  8
Calque_1
 62
7
100
AcDbPolyline
 90
2
 70
0
 10
413.115370
 20
249.786230
 30
0.0
 10
413.115370
 20
252.786230
 30
0.0
  0
LWPOLYLINE
  5
203
100
AcDbEntity
  8
Calque_1
 62
7
100
AcDbPolyline
 90
2
 70
0
 10
344.715370
 20
249.786230
 30
0.0
 10
413.115370
 20
249.786230
 30
0.0
  0
LWPOLYLINE
  5
204
100
AcDbEntity
  8
Calque_1
 62
7
100
AcDbPolyline
 90
2
 70
0
 10
344.715370
 20
252.786230
 30
0.0
 10
344.715370
 20
249.786230
 30
0.0
  0
LWPOLYLINE
  5
205
100
AcDbEntity
  8
Calque_1
 62
7
100
AcDbPolyline
 90
2
 70
0
 10
344.715370
 20
252.786230
 30
0.0
 10
334.715370
 20
252.786230
 30
0.0
  0
LWPOLYLINE
  5
206
100
AcDbEntity
  8
Calque_1
 62
7
100
AcDbPolyline
 90
2
 70
0
 10
334.715370
 20
249.786230
 30
0.0
 10
334.715370
 20
252.786230
 30
0.0
  0
LWPOLYLINE
  5
207
100
AcDbEntity
  8
Calque_1
 62
7
100
AcDbPolyline
 90
2
 70
0
 10
266.315370
 20
249.786230
 30
0.0
 10
334.715370
 20
249.786230
 30
0.0
  0
LWPOLYLINE
  5
208
100
AcDbEntity
  8
Calque_1
 62
7
100
AcDbPolyline
 90
2
 70
0
 10
266.315370
 20
252.786230
 30
0.0
 10
266.315370
 20
249.786230
 30
0.0
  0
LWPOLYLINE
  5
209
100
AcDbEntity
  8
Calque_1
 62
7
100
AcDbPolyline
 90
2
 70
0
 10
266.315370
 20
252.786230
 30
0.0
 10
256.315370
 20
252.786230
 30
0.0
  0
LWPOLYLINE
  5
20a
100
AcDbEntity
  8
Calque_1
 62
7
100
AcDbPolyline
 90
2
 70
0
 10
256.315370
 20
249.786230
 30
0.0
 10
256.315370
 20
252.786230
 30
0.0
  0
LWPOLYLINE
  5
20b
100
AcDbEntity
  8
Calque_1
 62
7
100
AcDbPolyline
 90
2
 70
0
 10
248.115370
 20
249.786230
 30
0.0
 10
256.315370
 20
249.786230
 30
0.0
  0
LWPOLYLINE
  5
20c
100
AcDbEntity
  8
Calque_1
 62
7
100
AcDbPolyline
 90
2
 70
0
 10
248.115370
 20
243.286230
 30
0.0
 10
248.115370
 20
249.786230
 30
0.0
  0
LWPOLYLINE
  5
20d
100
AcDbEntity
  8
Calque_1
 62
7
100
AcDbPolyline
 90
2
 70
0
 10
245.115370
 20
243.286230
 30
0.0
 10
248.115370
 20
243.286230
 30
0.0
  0
LWPOLYLINE
  5
20e
100
AcDbEntity
  8
Calque_1
 62
7
100
AcDbPolyline
 90
2
 70
0
 10
248.115750
 20
168.589730
 30
0.0
 10
468.115750
 20
168.589730
 30
0.0
  0
LWPOLYLINE
  5
20f
100
AcDbEntity
  8
Calque_1
 62
7
100
AcDbPolyline
 90
2
 70
0
 10
248.115750
 20
168.589730
 30
0.0
 10
248.115750
 20
159.089730
 30
0.0
  0
LWPOLYLINE
  5
210
100
AcDbEntity
  8
Calque_1
 62
7
100
AcDbPolyline
 90
2
 70
0
 10
468.115750
 20
159.089730
 30
0.0
 10
468.115750
 20
168.589730
 30
0.0
  0
LWPOLYLINE
  5
211
100
AcDbEntity
  8
Calque_1
 62
7
100
AcDbPolyline
 90
2
 70
0
 10
471.115750
 20
159.089730
 30
0.0
 10
468.115750
 20
159.089730
 30
0.0
  0
LWPOLYLINE
  5
212
100
AcDbEntity
  8
Calque_1
 62
7
100
AcDbPolyline
 90
2
 70
0
 10
471.115750
 20
152.589730
 30
0.0
 10
471.115750
 20
159.089730
 30
0.0
  0
LWPOLYLINE
  5
213
100
AcDbEntity
  8
Calque_1
 62
7
100
AcDbPolyline
 90
2
 70
0
 10
465.915750
 20
152.589730
 30
0.0
 10
471.115750
 20
152.589730
 30
0.0
  0
LWPOLYLINE
  5
214
100
AcDbEntity
  8
Calque_1
 62
7
100
AcDbPolyline
 90
2
 70
0
 10
465.915750
 20
149.589730
 30
0.0
 10
465.915750
 20
152.589730
 30
0.0
  0
LWPOLYLINE
  5
215
100
AcDbEntity
  8
Calque_1
 62
7
100
AcDbPolyline
 90
2
 70
0
 10
465.915750
 20
149.589730
 30
0.0
 10
455.915750
 20
149.589730
 30
0.0
  0
LWPOLYLINE
  5
216
100
AcDbEntity
  8
Calque_1
 62
7
100
AcDbPolyline
 90
2
 70
0
 10
455.915750
 20
152.589730
 30
0.0
 10
455.915750
 20
149.589730
 30
0.0
  0
LWPOLYLINE
  5
217
100
AcDbEntity
  8
Calque_1
 62
7
100
AcDbPolyline
 90
2
 70
0
 10
414.515750
 20
152.589730
 30
0.0
 10
455.915750
 20
152.589730
 30
0.0
  0
LWPOLYLINE
  5
218
100
AcDbEntity
  8
Calque_1
 62
7
100
AcDbPolyline
 90
2
 70
0
 10
414.515750
 20
149.589730
 30
0.0
 10
414.515750
 20
152.589730
 30
0.0
  0
LWPOLYLINE
  5
219
100
AcDbEntity
  8
Calque_1
 62
7
100
AcDbPolyline
 90
2
 70
0
 10
414.515750
 20
149.589730
 30
0.0
 10
404.515750
 20
149.589730
 30
0.0
  0
LWPOLYLINE
  5
21a
100
AcDbEntity
  8
Calque_1
 62
7
100
AcDbPolyline
 90
2
 70
0
 10
404.515750
 20
152.589730
 30
0.0
 10
404.515750
 20
149.589730
 30
0.0
  0
LWPOLYLINE
  5
21b
100
AcDbEntity
  8
Calque_1
 62
7
100
AcDbPolyline
 90
2
 70
0
 10
363.115750
 20
152.589730
 30
0.0
 10
404.515750
 20
152.589730
 30
0.0
  0
LWPOLYLINE
  5
21c
100
AcDbEntity
  8
Calque_1
 62
7
100
AcDbPolyline
 90
2
 70
0
 10
363.115750
 20
149.589730
 30
0.0
 10
363.115750
 20
152.589730
 30
0.0
  0
LWPOLYLINE
  5
21d
100
AcDbEntity
  8
Calque_1
 62
7
100
AcDbPolyline
 90
2
 70
0
 10
363.115750
 20
149.589730
 30
0.0
 10
353.115750
 20
149.589730
 30
0.0
  0
LWPOLYLINE
  5
21e
100
AcDbEntity
  8
Calque_1
 62
7
100
AcDbPolyline
 90
2
 70
0
 10
353.115750
 20
152.589730
 30
0.0
 10
353.115750
 20
149.589730
 30
0.0
  0
LWPOLYLINE
  5
21f
100
AcDbEntity
  8
Calque_1
 62
7
100
AcDbPolyline
 90
2
 70
0
 10
311.715750
 20
152.589730
 30
0.0
 10
353.115750
 20
152.589730
 30
0.0
  0
LWPOLYLINE
  5
220
100
AcDbEntity
  8
Calque_1
 62
7
100
AcDbPolyline
 90
2
 70
0
 10
311.715750
 20
149.589730
 30
0.0
 10
311.715750
 20
152.589730
 30
0.0
  0
LWPOLYLINE
  5
221
100
AcDbEntity
  8
Calque_1
 62
7
100
AcDbPolyline
 90
2
 70
0
 10
311.715750
 20
149.589730
 30
0.0
 10
301.715750
 20
149.589730
 30
0.0
  0
LWPOLYLINE
  5
222
100
AcDbEntity
  8
Calque_1
 62
7
100
AcDbPolyline
 90
2
 70
0
 10
301.715750
 20
152.589730
 30
0.0
 10
301.715750
 20
149.589730
 30
0.0
  0
LWPOLYLINE
  5
223
100
AcDbEntity
  8
Calque_1
 62
7
100
AcDbPolyline
 90
2
 70
0
 10
260.315750
 20
152.589730
 30
0.0
 10
301.715750
 20
152.589730
 30
0.0
  0
LWPOLYLINE
  5
224
100
AcDbEntity
  8
Calque_1
 62
7
100
AcDbPolyline
 90
2
 70
0
 10
260.315750
 20
149.589730
 30
0.0
 10
260.315750
 20
152.589730
 30
0.0
  0
LWPOLYLINE
  5
225
100
AcDbEntity
  8
Calque_1
 62
7
100
AcDbPolyline
 90
2
 70
0
 10
260.315750
 20
149.589730
 30
0.0
 10
250.315750
 20
149.589730
 30
0.0
  0
LWPOLYLINE
  5
226
100
AcDbEntity
  8
Calque_1
 62
7
100
AcDbPolyline
 90
2
 70
0
 10
250.315750
 20
152.589730
 30
0.0
 10
250.315750
 20
149.589730
 30
0.0
  0
LWPOLYLINE
  5
227
100
AcDbEntity
  8
Calque_1
 62
7
100
AcDbPolyline
 90
2
 70
0
 10
245.115750
 20
152.589730
 30
0.0
 10
250.315750
 20
152.589730
 30
0.0
  0
LWPOLYLINE
  5
228
100
AcDbEntity
  8
Calque_1
 62
7
100
AcDbPolyline
 90
2
 70
0
 10
245.115750
 20
159.089730
 30
0.0
 10
245.115750
 20
152.589730
 30
0.0
  0
LWPOLYLINE
  5
229
100
AcDbEntity
  8
Calque_1
 62
7
100
AcDbPolyline
 90
2
 70
0
 10
248.115750
 20
159.089730
 30
0.0
 10
245.115750
 20
159.089730
 30
0.0
  0
LWPOLYLINE
  5
22a
100
AcDbEntity
  8
Calque_1
 62
7
100
AcDbPolyline
 90
2
 70
0
 10
248.115850
 20
145.468910
 30
0.0
 10
468.115850
 20
145.468910
 30
0.0
  0
LWPOLYLINE
  5
22b
100
AcDbEntity
  8
Calque_1
 62
7
100
AcDbPolyline
 90
2
 70
0
 10
248.115850
 20
145.468910
 30
0.0
 10
248.115850
 20
135.968910
 30
0.0
  0
LWPOLYLINE
  5
22c
100
AcDbEntity
  8
Calque_1
 62
7
100
AcDbPolyline
 90
2
 70
0
 10
468.115850
 20
135.968910
 30
0.0
 10
468.115850
 20
145.468910
 30
0.0
  0
LWPOLYLINE
  5
22d
100
AcDbEntity
  8
Calque_1
 62
7
100
AcDbPolyline
 90
2
 70
0
 10
471.115850
 20
135.968910
 30
0.0
 10
468.115850
 20
135.968910
 30
0.0
  0
LWPOLYLINE
  5
22e
100
AcDbEntity
  8
Calque_1
 62
7
100
AcDbPolyline
 90
2
 70
0
 10
471.115850
 20
129.468910
 30
0.0
 10
471.115850
 20
135.968910
 30
0.0
  0
LWPOLYLINE
  5
22f
100
AcDbEntity
  8
Calque_1
 62
7
100
AcDbPolyline
 90
2
 70
0
 10
465.915850
 20
129.468910
 30
0.0
 10
471.115850
 20
129.468910
 30
0.0
  0
LWPOLYLINE
  5
230
100
AcDbEntity
  8
Calque_1
 62
7
100
AcDbPolyline
 90
2
 70
0
 10
465.915850
 20
126.468910
 30
0.0
 10
465.915850
 20
129.468910
 30
0.0
  0
LWPOLYLINE
  5
231
100
AcDbEntity
  8
Calque_1
 62
7
100
AcDbPolyline
 90
2
 70
0
 10
465.915850
 20
126.468910
 30
0.0
 10
455.915850
 20
126.468910
 30
0.0
  0
LWPOLYLINE
  5
232
100
AcDbEntity
  8
Calque_1
 62
7
100
AcDbPolyline
 90
2
 70
0
 10
455.915850
 20
129.468910
 30
0.0
 10
455.915850
 20
126.468910
 30
0.0
  0
LWPOLYLINE
  5
233
100
AcDbEntity
  8
Calque_1
 62
7
100
AcDbPolyline
 90
2
 70
0
 10
414.515850
 20
129.468910
 30
0.0
 10
455.915850
 20
129.468910
 30
0.0
  0
LWPOLYLINE
  5
234
100
AcDbEntity
  8
Calque_1
 62
7
100
AcDbPolyline
 90
2
 70
0
 10
414.515850
 20
126.468910
 30
0.0
 10
414.515850
 20
129.468910
 30
0.0
  0
LWPOLYLINE
  5
235
100
AcDbEntity
  8
Calque_1
 62
7
100
AcDbPolyline
 90
2
 70
0
 10
414.515850
 20
126.468910
 30
0.0
 10
404.515850
 20
126.468910
 30
0.0
  0
LWPOLYLINE
  5
236
100
AcDbEntity
  8
Calque_1
 62
7
100
AcDbPolyline
 90
2
 70
0
 10
404.515850
 20
129.468910
 30
0.0
 10
404.515850
 20
126.468910
 30
0.0
  0
LWPOLYLINE
  5
237
100
AcDbEntity
  8
Calque_1
 62
7
100
AcDbPolyline
 90
2
 70
0
 10
363.115850
 20
129.468910
 30
0.0
 10
404.515850
 20
129.468910
 30
0.0
  0
LWPOLYLINE
  5
238
100
AcDbEntity
  8
Calque_1
 62
7
100
AcDbPolyline
 90
2
 70
0
 10
363.115850
 20
126.468910
 30
0.0
 10
363.115850
 20
129.468910
 30
0.0
  0
LWPOLYLINE
  5
239
100
AcDbEntity
  8
Calque_1
 62
7
100
AcDbPolyline
 90
2
 70
0
 10
363.115850
 20
126.468910
 30
0.0
 10
353.115850
 20
126.468910
 30
0.0
  0
LWPOLYLINE
  5
23a
100
AcDbEntity
  8
Calque_1
 62
7
100
AcDbPolyline
 90
2
 70
0
 10
353.115850
 20
129.468910
 30
0.0
 10
353.115850
 20
126.468910
 30
0.0
  0
LWPOLYLINE
  5
23b
100
AcDbEntity
  8
Calque_1
 62
7
100
AcDbPolyline
 90
2
 70
0
 10
311.715850
 20
129.468910
 30
0.0
 10
353.115850
 20
129.468910
 30
0.0
  0
LWPOLYLINE
  5
23c
100
AcDbEntity
  8
Calque_1
 62
7
100
AcDbPolyline
 90
2
 70
0
 10
311.715850
 20
126.468910
 30
0.0
 10
311.715850
 20
129.468910
 30
0.0
  0
LWPOLYLINE
  5
23d
100
AcDbEntity
  8
Calque_1
 62
7
100
AcDbPolyline
 90
2
 70
0
 10
311.715850
 20
126.468910
 30
0.0
 10
301.715850
 20
126.468910
 30
0.0
  0
LWPOLYLINE
  5
23e
100
AcDbEntity
  8
Calque_1
 62
7
100
AcDbPolyline
 90
2
 70
0
 10
301.715850
 20
129.468910
 30
0.0
 10
301.715850
 20
126.468910
 30
0.0
  0
LWPOLYLINE
  5
23f
100
AcDbEntity
  8
Calque_1
 62
7
100
AcDbPolyline
 90
2
 70
0
 10
260.315850
 20
129.468910
 30
0.0
 10
301.715850
 20
129.468910
 30
0.0
  0
LWPOLYLINE
  5
240
100
AcDbEntity
  8
Calque_1
 62
7
100
AcDbPolyline
 90
2
 70
0
 10
260.315850
 20
126.468910
 30
0.0
 10
260.315850
 20
129.468910
 30
0.0
  0
LWPOLYLINE
  5
241
100
AcDbEntity
  8
Calque_1
 62
7
100
AcDbPolyline
 90
2
 70
0
 10
260.315850
 20
126.468910
 30
0.0
 10
250.315850
 20
126.468910
 30
0.0
  0
LWPOLYLINE
  5
242
100
AcDbEntity
  8
Calque_1
 62
7
100
AcDbPolyline
 90
2
 70
0
 10
250.315850
 20
129.468910
 30
0.0
 10
250.315850
 20
126.468910
 30
0.0
  0
LWPOLYLINE
  5
243
100
AcDbEntity
  8
Calque_1
 62
7
100
AcDbPolyline
 90
2
 70
0
 10
245.115850
 20
129.468910
 30
0.0
 10
250.315850
 20
129.468910
 30
0.0
  0
LWPOLYLINE
  5
244
100
AcDbEntity
  8
Calque_1
 62
7
100
AcDbPolyline
 90
2
 70
0
 10
245.115850
 20
135.968910
 30
0.0
 10
245.115850
 20
129.468910
 30
0.0
  0
LWPOLYLINE
  5
245
100
AcDbEntity
  8
Calque_1
 62
7
100
AcDbPolyline
 90
2
 70
0
 10
248.115850
 20
135.968910
 30
0.0
 10
245.115850
 20
135.968910
 30
0.0
  0
ENDSEC
  0
SECTION
  2
OBJECTS
  0
DICTIONARY
  5
C
330
0
100
AcDbDictionary
  3
ACAD_GROUP
350
D
  3
ACAD_MLINESTYLE
350
17
  0
DICTIONARY
  5
D
330
C
100
AcDbDictionary
  0
DICTIONARY
  5
1A
330
C
100
AcDbDictionary
  0
DICTIONARY
  5
17
330
C
100
AcDbDictionary
  3
STANDARD
350
18
  0
DICTIONARY
  5
19
330
C
100
AcDbDictionary
  0
ENDSEC
  0
EOF
