<?xml version="1.0" encoding="UTF-8"?>

<svg xmlns="http://www.w3.org/2000/svg" version="1.1"
	width="594mm"
	height="420mm"
	viewBox="0 0 594 420">
	<!-- Working space 0 0 594 420 -->
	<defs>
		<radialGradient
			id="radialGradient3661"
			gradientUnits="userSpaceOnUse"
			cy="29.149"
			cx="282.65"
			gradientTransform="matrix(.14777 .23089 -.24680 .15795 -26.318 -62.617)"
			r="19.571">
				<stop stop-color="#71b2f8" offset="0"/>
				<stop stop-color="#002795" offset="1"/>
		</radialGradient>
		<radialGradient
			id="radialGradient3817"
			gradientUnits="userSpaceOnUse"
			cy="33.9"
			cx="270.58"
			gradientTransform="matrix(.26631 .065024 -.17931 .73438 -60.668 -36.938)"
			r="19.571">
				<stop stop-color="#ff6d0f" offset="0"/>
				<stop stop-color="#ff1000" offset="1"/>
		</radialGradient>
	</defs>
	<!-- Set display:none to hide FreeCAD Logo -->
	<g
		style="display:inline"
		id="freecad-logo"
		transform="translate(552, 380) scale(2)"
		fill-rule="evenodd"
		stroke-width=".45621">
		<path d="m0.22811 0.22835v13.256h2.9558v-5.1876h2.09v-2.0452h-2.09v-2.2075h5.1486v-3.8087l-8.1044-0.0075z"
			stroke="#370700"
			fill="url(#radialGradient3817)"/>
		<path d="m13.386 4.1792-1.7193 0.98645-0.75925-0.26348-0.72439-1.8513-1.1395 0.05988-0.51976 1.9144-0.72743 0.34835-1.8143-0.79367-0.76632 0.85156 0.98645 1.7193-0.26957 0.75702-1.8513 0.72439 0.065967 1.1417 1.9144 0.51976 0.34835 0.72743-0.79976 1.8121 0.85156 0.76632 1.7193-0.98645 0.76311 0.27179 0.7183 1.8491 1.1478-0.06375 0.51367-1.9166 0.72743-0.34835 1.8182 0.80198 0.76632-0.85156-0.98645-1.7193 0.2657-0.76533 1.8491-0.7183-0.05766-1.1456-1.9166-0.51367-0.34835-0.72743 0.7959-1.8204-0.85156-0.76632zm-2.5751 2.8195 0.35295 0.20478 0.30579 0.27725 0.24481 0.33087 0.17611 0.36787 0.10354 0.39656 0.01715 0.4064-0.0587 0.4063-0.13396 0.38571-0.2131 0.35681-0.26894 0.30192-0.33087 0.24481-0.36787 0.17611-0.39656 0.10354-0.40863 0.02325-0.4063-0.0587-0.38571-0.13396-0.35681-0.2131-0.2997-0.27503-0.24703-0.32478-0.17611-0.36787-0.10132-0.40264-0.02324-0.40863 0.05869-0.4063 0.13396-0.38571 0.21087-0.35072 0.27116-0.30801 0.33087-0.24481 0.36787-0.17611 0.40264-0.10132 0.40641-0.01715 0.4063 0.05869 0.38571 0.13396z" 
		stroke="#000137"
		fill="url(#radialGradient3661)"/>
	</g>
<g id="Ortho_0_0"
   transform="rotate(0,190,300) translate(190,300) scale(1,1)"
  >
<g   stroke="rgb(0, 0, 0)"
   stroke-width="0.35"
   stroke-linecap="butt"
   stroke-linejoin="miter"
   fill="none"
   transform="scale(1,-1)"
  >
<path id= "1" d=" M -176 116 L -137.6 116 " />
<path id= "2" d=" M -137.6 113 L -137.6 116 " />
<path id= "3" d=" M -176 89.6 L -176 116 " />
<path id= "4" d=" M -176 89.6 L -173 89.6 " />
<path id= "5" d=" M -97.6 113 L -137.6 113 " />
<path id= "6" d=" M -173 89.6 L -173 64.6 " />
<path id= "7" d=" M -97.6 116 L -97.6 113 " />
<path id= "8" d=" M -173 64.6 L -176 64.6 " />
<path id= "9" d=" M -97.6 116 L -59.2 116 " />
<path id= "10" d=" M -176 38.2 L -176 64.6 " />
<path id= "11" d=" M -59.2 113 L -59.2 116 " />
<path id= "12" d=" M -176 38.2 L -173 38.2 " />
<path id= "13" d=" M -19.2 113 L -59.2 113 " />
<path id= "14" d=" M -173 38.2 L -173 13.2 " />
<path id= "15" d=" M -19.2 116 L -19.2 113 " />
<path id= "16" d=" M -173 13.2 L -176 13.2 " />
<path id= "17" d=" M -19.2 116 L 19.2 116 " />
<path id= "18" d=" M -176 -13.2 L -176 13.2 " />
<path id= "19" d=" M 19.2 113 L 19.2 116 " />
<path id= "20" d=" M -173 -13.2 L -176 -13.2 " />
<path id= "21" d=" M 59.2 113 L 19.2 113 " />
<path id= "22" d=" M -173 -38.2 L -173 -13.2 " />
<path id= "23" d=" M 59.2 116 L 59.2 113 " />
<path id= "24" d=" M -176 -38.2 L -173 -38.2 " />
<path id= "25" d=" M 59.2 116 L 97.6 116 " />
<path id= "26" d=" M -176 -64.6 L -176 -38.2 " />
<path id= "27" d=" M 97.6 113 L 97.6 116 " />
<path id= "28" d=" M -173 -64.6 L -176 -64.6 " />
<path id= "29" d=" M 137.6 113 L 97.6 113 " />
<path id= "30" d=" M -173 -89.6 L -173 -64.6 " />
<path id= "31" d=" M 137.6 116 L 137.6 113 " />
<path id= "32" d=" M -176 -89.6 L -173 -89.6 " />
<path id= "33" d=" M 137.6 116 L 176 116 " />
<path id= "34" d=" M -176 -116 L -176 -89.6 " />
<path id= "35" d=" M 176 116 L 176 89.6 " />
<path id= "36" d=" M -137.6 -116 L -176 -116 " />
<path id= "37" d=" M 173 89.6 L 176 89.6 " />
<path id= "38" d=" M -137.6 -113 L -137.6 -116 " />
<path id= "39" d=" M 173 64.6 L 173 89.6 " />
<path id= "40" d=" M -97.6 -113 L -137.6 -113 " />
<path id= "41" d=" M 176 64.6 L 173 64.6 " />
<path id= "42" d=" M -97.6 -116 L -97.6 -113 " />
<path id= "43" d=" M 176 64.6 L 176 38.2 " />
<path id= "44" d=" M -59.2 -116 L -97.6 -116 " />
<path id= "45" d=" M 173 38.2 L 176 38.2 " />
<path id= "46" d=" M -59.2 -113 L -59.2 -116 " />
<path id= "47" d=" M 173 13.2 L 173 38.2 " />
<path id= "48" d=" M -19.2 -113 L -59.2 -113 " />
<path id= "49" d=" M 176 13.2 L 173 13.2 " />
<path id= "50" d=" M -19.2 -116 L -19.2 -113 " />
<path id= "51" d=" M 176 13.2 L 176 -13.2 " />
<path id= "52" d=" M 19.2 -116 L -19.2 -116 " />
<path id= "53" d=" M 176 -13.2 L 173 -13.2 " />
<path id= "54" d=" M 19.2 -113 L 19.2 -116 " />
<path id= "55" d=" M 173 -13.2 L 173 -38.2 " />
<path id= "56" d=" M 59.2 -113 L 19.2 -113 " />
<path id= "57" d=" M 173 -38.2 L 176 -38.2 " />
<path id= "58" d=" M 59.2 -116 L 59.2 -113 " />
<path id= "59" d=" M 176 -38.2 L 176 -64.6 " />
<path id= "60" d=" M 97.6 -116 L 59.2 -116 " />
<path id= "61" d=" M 176 -64.6 L 173 -64.6 " />
<path id= "62" d=" M 97.6 -113 L 97.6 -116 " />
<path id= "63" d=" M 173 -64.6 L 173 -89.6 " />
<path id= "64" d=" M 137.6 -113 L 97.6 -113 " />
<path id= "65" d=" M 173 -89.6 L 176 -89.6 " />
<path id= "66" d=" M 137.6 -116 L 137.6 -113 " />
<path id= "67" d=" M 176 -89.6 L 176 -116 " />
<path id= "68" d=" M 176 -116 L 137.6 -116 " />
<path id= "69" d=" M -170 97.8 L -173 97.8 " />
<path id= "70" d=" M -170 107.8 L -170 97.8 " />
<path id= "71" d=" M -173 97.8 L -173 107.8 " />
<path id= "72" d=" M -173 107.8 L -170 107.8 " />
<path id= "73" d=" M -133 105 L -130 105 " />
<path id= "74" d=" M -133 75 L -133 105 " />
<path id= "75" d=" M -130 105 L -130 75 " />
<path id= "76" d=" M -130 75 L -133 75 " />
<path id= "77" d=" M -161.8 113 L -151.8 113 " />
<path id= "78" d=" M -161.8 110 L -161.8 113 " />
<path id= "79" d=" M -151.8 113 L -151.8 110 " />
<path id= "80" d=" M -151.8 110 L -161.8 110 " />
<path id= "81" d=" M 5 110 L -5 110 " />
<path id= "82" d=" M 5 113 L 5 110 " />
<path id= "83" d=" M -5 110 L -5 113 " />
<path id= "84" d=" M -5 113 L 5 113 " />
<path id= "85" d=" M -83.4 110 L -83.4 113 " />
<path id= "86" d=" M -73.4 110 L -83.4 110 " />
<path id= "87" d=" M -83.4 113 L -73.4 113 " />
<path id= "88" d=" M -73.4 113 L -73.4 110 " />
<path id= "89" d=" M -170 56.4 L -170 46.4 " />
<path id= "90" d=" M -173 56.4 L -170 56.4 " />
<path id= "91" d=" M -170 46.4 L -173 46.4 " />
<path id= "92" d=" M -173 46.4 L -173 56.4 " />
<path id= "93" d=" M 170 56.4 L 173 56.4 " />
<path id= "94" d=" M 170 46.4 L 170 56.4 " />
<path id= "95" d=" M 173 56.4 L 173 46.4 " />
<path id= "96" d=" M 173 46.4 L 170 46.4 " />
<path id= "97" d=" M 151.8 113 L 161.8 113 " />
<path id= "98" d=" M 151.8 110 L 151.8 113 " />
<path id= "99" d=" M 161.8 113 L 161.8 110 " />
<path id= "100" d=" M 161.8 110 L 151.8 110 " />
<path id= "101" d=" M 173 107.8 L 173 97.8 " />
<path id= "102" d=" M 170 107.8 L 173 107.8 " />
<path id= "103" d=" M 173 97.8 L 170 97.8 " />
<path id= "104" d=" M 170 97.8 L 170 107.8 " />
<path id= "105" d=" M 83.4 110 L 73.4 110 " />
<path id= "106" d=" M 83.4 113 L 83.4 110 " />
<path id= "107" d=" M 73.4 110 L 73.4 113 " />
<path id= "108" d=" M 73.4 113 L 83.4 113 " />
<path id= "109" d=" M -130 45 L -130 15 " />
<path id= "110" d=" M -133 45 L -130 45 " />
<path id= "111" d=" M -130 15 L -133 15 " />
<path id= "112" d=" M -133 15 L -133 45 " />
<path id= "113" d=" M -156.5 27 L -156.5 30 " />
<path id= "114" d=" M -146.5 27 L -156.5 27 " />
<path id= "115" d=" M -146.5 30 L -146.5 27 " />
<path id= "116" d=" M -156.5 30 L -146.5 30 " />
<path id= "117" d=" M -133 -15 L -130 -15 " />
<path id= "118" d=" M -133 -45 L -133 -15 " />
<path id= "119" d=" M -130 -15 L -130 -45 " />
<path id= "120" d=" M -130 -45 L -133 -45 " />
<path id= "121" d=" M 170 5 L 173 5 " />
<path id= "122" d=" M 170 0 L 170 5 " />
<path id= "123" d=" M 173 5 L 173 -4.44089e-015 " />
<path id= "124" d=" M 170 0 L 170 -5 " />
<path id= "125" d=" M 173 -5 L 173 4.44089e-015 " />
<path id= "126" d=" M 170 -5 L 173 -5 " />
<path id= "127" d=" M -173 5 L -170 5 " />
<path id= "128" d=" M -173 0 L -173 5 " />
<path id= "129" d=" M -170 5 L -170 -4.44089e-015 " />
<path id= "130" d=" M -173 0 L -173 -5 " />
<path id= "131" d=" M -170 -5 L -170 4.44089e-015 " />
<path id= "132" d=" M -173 -5 L -170 -5 " />
<path id= "133" d=" M 170 -97.8 L 170 -107.8 " />
<path id= "134" d=" M 173 -97.8 L 170 -97.8 " />
<path id= "135" d=" M 170 -107.8 L 173 -107.8 " />
<path id= "136" d=" M 173 -107.8 L 173 -97.8 " />
<path id= "137" d=" M 173 -46.4 L 170 -46.4 " />
<path id= "138" d=" M 173 -56.4 L 173 -46.4 " />
<path id= "139" d=" M 170 -46.4 L 170 -56.4 " />
<path id= "140" d=" M 170 -56.4 L 173 -56.4 " />
<path id= "141" d=" M -170 -56.4 L -170 -46.4 " />
<path id= "142" d=" M -173 -56.4 L -170 -56.4 " />
<path id= "143" d=" M -170 -46.4 L -173 -46.4 " />
<path id= "144" d=" M -173 -46.4 L -173 -56.4 " />
<path id= "145" d=" M -130 -105 L -133 -105 " />
<path id= "146" d=" M -130 -75 L -130 -105 " />
<path id= "147" d=" M -133 -105 L -133 -75 " />
<path id= "148" d=" M -133 -75 L -130 -75 " />
<path id= "149" d=" M -173 -107.8 L -170 -107.8 " />
<path id= "150" d=" M -173 -97.8 L -173 -107.8 " />
<path id= "151" d=" M -170 -107.8 L -170 -97.8 " />
<path id= "152" d=" M -170 -97.8 L -173 -97.8 " />
<path id= "153" d=" M 73.4 -110 L 73.4 -113 " />
<path id= "154" d=" M 83.4 -110 L 73.4 -110 " />
<path id= "155" d=" M 73.4 -113 L 83.4 -113 " />
<path id= "156" d=" M 83.4 -113 L 83.4 -110 " />
<path id= "157" d=" M -5 -113 L 5 -113 " />
<path id= "158" d=" M -5 -110 L -5 -113 " />
<path id= "159" d=" M 5 -113 L 5 -110 " />
<path id= "160" d=" M 5 -110 L -5 -110 " />
<path id= "161" d=" M -151.8 -113 L -151.8 -110 " />
<path id= "162" d=" M -161.8 -113 L -151.8 -113 " />
<path id= "163" d=" M -151.8 -110 L -161.8 -110 " />
<path id= "164" d=" M -161.8 -110 L -161.8 -113 " />
<path id= "165" d=" M -73.4 -110 L -83.4 -110 " />
<path id= "166" d=" M -73.4 -113 L -73.4 -110 " />
<path id= "167" d=" M -83.4 -110 L -83.4 -113 " />
<path id= "168" d=" M -83.4 -113 L -73.4 -113 " />
<path id= "169" d=" M 151.8 -113 L 161.8 -113 " />
<path id= "170" d=" M 151.8 -110 L 151.8 -113 " />
<path id= "171" d=" M 161.8 -113 L 161.8 -110 " />
<path id= "172" d=" M 161.8 -110 L 151.8 -110 " />
</g>
</g>



<g id="Ortho_0_001"
   transform="rotate(-90,130,176.5) translate(130,176.5) scale(1,1)"
  >
<g   stroke="rgb(0, 0, 0)"
   stroke-width="0.35"
   stroke-linecap="butt"
   stroke-linejoin="miter"
   fill="none"
   transform="scale(1,-1)"
  >
<path id= "1" d=" M 28 -110 L 53 -110 " />
<path id= "2" d=" M 28 -113 L 28 -110 " />
<path id= "3" d=" M 28 -113 L 3 -113 " />
<path id= "4" d=" M 3 -105 L 3 -113 " />
<path id= "5" d=" M -2.4869e-014 -105 L 3 -105 " />
<path id= "6" d=" M -2.9754e-014 -105 L -2.14273e-014 -75 " />
<path id= "7" d=" M 3 -75 L -1.77636e-014 -75 " />
<path id= "8" d=" M 3 -45 L 3 -75 " />
<path id= "9" d=" M -1.06581e-014 -45 L 3 -45 " />
<path id= "10" d=" M -1.31006e-014 -45 L -4.77396e-015 -15 " />
<path id= "11" d=" M 3 -15 L -3.55271e-015 -15 " />
<path id= "12" d=" M 3 15 L 3 -15 " />
<path id= "13" d=" M 3.55271e-015 15 L 3 15 " />
<path id= "14" d=" M 3.55271e-015 15 L 1.18794e-014 45 " />
<path id= "15" d=" M 3 45 L 1.06581e-014 45 " />
<path id= "16" d=" M 3 75 L 3 45 " />
<path id= "17" d=" M 1.77636e-014 75 L 3 75 " />
<path id= "18" d=" M 2.02061e-014 75 L 2.85327e-014 105 " />
<path id= "19" d=" M 3 105 L 2.4869e-014 105 " />
<path id= "20" d=" M 3 113 L 3 105 " />
<path id= "21" d=" M 3 113 L 28 113 " />
<path id= "22" d=" M 28 110 L 28 113 " />
<path id= "23" d=" M 53 110 L 28 110 " />
<path id= "24" d=" M 53 -27.05 L 53 110 " />
<path id= "25" d=" M 53 -27.05 L 28 -27.05 " />
<path id= "26" d=" M 28 -27.05 L 28 -30 " />
<path id= "27" d=" M 28 -30 L 53 -30 " />
<path id= "28" d=" M 53 -110 L 53 -30 " />
</g>
</g>



<g id="Ortho_0_002"
   transform="rotate(90,190,62) translate(190,62) scale(1,1)"
  >
<g   stroke="rgb(0, 0, 0)"
   stroke-width="0.35"
   stroke-linecap="butt"
   stroke-linejoin="miter"
   fill="none"
   transform="scale(1,-1)"
  >
<path id= "1" d=" M 56 -173 L 56 173 " />
<path id= "2" d=" M 56 -173 L 28 -173 " />
<path id= "3" d=" M 28 173 L 56 173 " />
<path id= "4" d=" M 28 170 L 28 173 " />
<path id= "5" d=" M 3 170 L 28 170 " />
<path id= "6" d=" M 3 161.8 L 3 170 " />
<path id= "7" d=" M -1.98952e-013 161.8 L 3 161.8 " />
<path id= "8" d=" M -1.98952e-013 161.8 L -1.98952e-013 151.8 " />
<path id= "9" d=" M 3 151.8 L -1.98952e-013 151.8 " />
<path id= "10" d=" M 3 83.4 L 3 151.8 " />
<path id= "11" d=" M -1.98952e-013 83.4 L 3 83.4 " />
<path id= "12" d=" M -1.98952e-013 83.4 L -1.98952e-013 73.4 " />
<path id= "13" d=" M 3 73.4 L -1.98952e-013 73.4 " />
<path id= "14" d=" M 3 5 L 3 73.4 " />
<path id= "15" d=" M -1.98952e-013 5 L 3 5 " />
<path id= "16" d=" M -1.98952e-013 5 L -1.98952e-013 -5 " />
<path id= "17" d=" M 3 -5 L -1.98952e-013 -5 " />
<path id= "18" d=" M 3 -73.4 L 3 -5 " />
<path id= "19" d=" M -1.98952e-013 -73.4 L 3 -73.4 " />
<path id= "20" d=" M -1.98952e-013 -73.4 L -1.98952e-013 -83.4 " />
<path id= "21" d=" M 3 -83.4 L -1.98952e-013 -83.4 " />
<path id= "22" d=" M 3 -130 L 3 -83.4 " />
<path id= "23" d=" M 3 -130 L 28 -130 " />
<path id= "24" d=" M 28 -130 L 28 -133 " />
<path id= "25" d=" M 28 -133 L 3 -133 " />
<path id= "26" d=" M 3 -151.8 L 3 -133 " />
<path id= "27" d=" M -1.98952e-013 -151.8 L 3 -151.8 " />
<path id= "28" d=" M -1.98952e-013 -151.8 L -1.98952e-013 -161.8 " />
<path id= "29" d=" M 3 -161.8 L -1.98952e-013 -161.8 " />
<path id= "30" d=" M 3 -170 L 3 -161.8 " />
<path id= "31" d=" M 28 -170 L 3 -170 " />
<path id= "32" d=" M 28 -173 L 28 -170 " />
</g>
</g>



<g id="Ortho_0_003"
   transform="rotate(90,190,2) translate(190,2) scale(1,1)"
  >
<g   stroke="rgb(0, 0, 0)"
   stroke-width="0.35"
   stroke-linecap="butt"
   stroke-linejoin="miter"
   fill="none"
   transform="scale(1,-1)"
  >
<path id= "1" d=" M 56 -173 L 56 173 " />
<path id= "2" d=" M 56 -173 L 28 -173 " />
<path id= "3" d=" M 28 173 L 56 173 " />
<path id= "4" d=" M 28 170 L 28 173 " />
<path id= "5" d=" M 3 170 L 28 170 " />
<path id= "6" d=" M 3 161.8 L 3 170 " />
<path id= "7" d=" M -1.98952e-013 161.8 L 3 161.8 " />
<path id= "8" d=" M -1.98952e-013 161.8 L -1.98952e-013 151.8 " />
<path id= "9" d=" M 3 151.8 L -1.98952e-013 151.8 " />
<path id= "10" d=" M 3 83.4 L 3 151.8 " />
<path id= "11" d=" M -1.98952e-013 83.4 L 3 83.4 " />
<path id= "12" d=" M -1.98952e-013 83.4 L -1.98952e-013 73.4 " />
<path id= "13" d=" M 3 73.4 L -1.98952e-013 73.4 " />
<path id= "14" d=" M 3 5 L 3 73.4 " />
<path id= "15" d=" M -1.98952e-013 5 L 3 5 " />
<path id= "16" d=" M -1.98952e-013 5 L -1.98952e-013 -5 " />
<path id= "17" d=" M 3 -5 L -1.98952e-013 -5 " />
<path id= "18" d=" M 3 -73.4 L 3 -5 " />
<path id= "19" d=" M -1.98952e-013 -73.4 L 3 -73.4 " />
<path id= "20" d=" M -1.98952e-013 -73.4 L -1.98952e-013 -83.4 " />
<path id= "21" d=" M 3 -83.4 L -1.98952e-013 -83.4 " />
<path id= "22" d=" M 3 -130 L 3 -83.4 " />
<path id= "23" d=" M 3 -130 L 28 -130 " />
<path id= "24" d=" M 28 -130 L 28 -133 " />
<path id= "25" d=" M 28 -133 L 3 -133 " />
<path id= "26" d=" M 3 -151.8 L 3 -133 " />
<path id= "27" d=" M -1.98952e-013 -151.8 L 3 -151.8 " />
<path id= "28" d=" M -1.98952e-013 -151.8 L -1.98952e-013 -161.8 " />
<path id= "29" d=" M 3 -161.8 L -1.98952e-013 -161.8 " />
<path id= "30" d=" M 3 -170 L 3 -161.8 " />
<path id= "31" d=" M 28 -170 L 3 -170 " />
<path id= "32" d=" M 28 -173 L 28 -170 " />
</g>
</g>



<g id="Ortho_0_004"
   transform="rotate(-90,477,58) translate(477,58) scale(1,1)"
  >
<g   stroke="rgb(0, 0, 0)"
   stroke-width="0.35"
   stroke-linecap="butt"
   stroke-linejoin="miter"
   fill="none"
   transform="scale(1,-1)"
  >
<path id= "1" d=" M 56 110 L 56 -110 " />
<path id= "2" d=" M 56 110 L 28 110 " />
<path id= "3" d=" M 28 -110 L 56 -110 " />
<path id= "4" d=" M 28 -113 L 28 -110 " />
<path id= "5" d=" M 3 -113 L 28 -113 " />
<path id= "6" d=" M 3 -107.8 L 3 -113 " />
<path id= "7" d=" M -1.88294e-013 -107.8 L 3 -107.8 " />
<path id= "8" d=" M -1.91491e-013 -107.8 L -1.73728e-013 -97.8 " />
<path id= "9" d=" M 3 -97.8 L -1.7053e-013 -97.8 " />
<path id= "10" d=" M 3 -56.4 L 3 -97.8 " />
<path id= "11" d=" M -9.59233e-014 -56.4 L 3 -56.4 " />
<path id= "12" d=" M -1.00187e-013 -56.4 L -8.2423e-014 -46.4 " />
<path id= "13" d=" M 3 -46.4 L -7.81597e-014 -46.4 " />
<path id= "14" d=" M 3 -5 L 3 -46.4 " />
<path id= "15" d=" M -3.55271e-015 -5 L 3 -5 " />
<path id= "16" d=" M -8.88178e-015 -5 L 8.88178e-015 5 " />
<path id= "17" d=" M 3 5 L 1.42109e-014 5 " />
<path id= "18" d=" M 3 46.4 L 3 5 " />
<path id= "19" d=" M 8.52651e-014 46.4 L 3 46.4 " />
<path id= "20" d=" M 8.2423e-014 46.4 L 1.00187e-013 56.4 " />
<path id= "21" d=" M 3 56.4 L 1.03029e-013 56.4 " />
<path id= "22" d=" M 3 97.8 L 3 56.4 " />
<path id= "23" d=" M 1.77636e-013 97.8 L 3 97.8 " />
<path id= "24" d=" M 1.73728e-013 97.8 L 1.91491e-013 107.8 " />
<path id= "25" d=" M 3 107.8 L 1.95399e-013 107.8 " />
<path id= "26" d=" M 3 113 L 3 107.8 " />
<path id= "27" d=" M 28 113 L 3 113 " />
<path id= "28" d=" M 28 110 L 28 113 " />
</g>
</g>



<g id="Ortho_0_005"
   transform="rotate(90,410,125) translate(410,125) scale(1,1)"
  >
<g   stroke="rgb(0, 0, 0)"
   stroke-width="0.35"
   stroke-linecap="butt"
   stroke-linejoin="miter"
   fill="none"
   transform="scale(1,-1)"
  >
<path id= "1" d=" M 50 -176 L 50 176 " />
<path id= "2" d=" M 32.5 -176 L 50 -176 " />
<path id= "3" d=" M 50 176 L 32.5 176 " />
<path id= "4" d=" M 32.5 173 L 32.5 176 " />
<path id= "5" d=" M 17.5 173 L 32.5 173 " />
<path id= "6" d=" M 17.5 176 L 17.5 173 " />
<path id= "7" d=" M 17.5 176 L 3 176 " />
<path id= "8" d=" M 3 137.6 L 3 176 " />
<path id= "9" d=" M 0 137.6 L 3 137.6 " />
<path id= "10" d=" M 0 137.6 L 0 97.6 " />
<path id= "11" d=" M 3 97.6 L 0 97.6 " />
<path id= "12" d=" M 3 59.2 L 3 97.6 " />
<path id= "13" d=" M -3.55271e-015 59.2 L 3 59.2 " />
<path id= "14" d=" M 0 59.2 L 0 19.2 " />
<path id= "15" d=" M 3 19.2 L 0 19.2 " />
<path id= "16" d=" M 3 -19.2 L 3 19.2 " />
<path id= "17" d=" M -3.55271e-015 -19.2 L 3 -19.2 " />
<path id= "18" d=" M 0 -19.2 L 0 -59.2 " />
<path id= "19" d=" M 3 -59.2 L 0 -59.2 " />
<path id= "20" d=" M 3 -97.6 L 3 -59.2 " />
<path id= "21" d=" M -3.55271e-015 -97.6 L 3 -97.6 " />
<path id= "22" d=" M 0 -97.6 L 0 -137.6 " />
<path id= "23" d=" M 3 -137.6 L 0 -137.6 " />
<path id= "24" d=" M 3 -176 L 3 -137.6 " />
<path id= "25" d=" M 3 -176 L 17.5 -176 " />
<path id= "26" d=" M 17.5 -173 L 17.5 -176 " />
<path id= "27" d=" M 32.5 -173 L 17.5 -173 " />
<path id= "28" d=" M 32.5 -176 L 32.5 -173 " />
</g>
</g>



<g id="Ortho_0_006"
   transform="rotate(90,410,185) translate(410,185) scale(1,1)"
  >
<g   stroke="rgb(0, 0, 0)"
   stroke-width="0.35"
   stroke-linecap="butt"
   stroke-linejoin="miter"
   fill="none"
   transform="scale(1,-1)"
  >
<path id= "1" d=" M 50 -176 L 50 176 " />
<path id= "2" d=" M 32.5 -176 L 50 -176 " />
<path id= "3" d=" M 50 176 L 32.5 176 " />
<path id= "4" d=" M 32.5 173 L 32.5 176 " />
<path id= "5" d=" M 17.5 173 L 32.5 173 " />
<path id= "6" d=" M 17.5 176 L 17.5 173 " />
<path id= "7" d=" M 17.5 176 L 3 176 " />
<path id= "8" d=" M 3 137.6 L 3 176 " />
<path id= "9" d=" M 2.98428e-013 137.6 L 3 137.6 " />
<path id= "10" d=" M 2.98428e-013 137.6 L 2.98428e-013 97.6 " />
<path id= "11" d=" M 3 97.6 L 2.98428e-013 97.6 " />
<path id= "12" d=" M 3 59.2 L 3 97.6 " />
<path id= "13" d=" M 2.94875e-013 59.2 L 3 59.2 " />
<path id= "14" d=" M 2.98428e-013 59.2 L 2.98428e-013 19.2 " />
<path id= "15" d=" M 3 19.2 L 2.98428e-013 19.2 " />
<path id= "16" d=" M 3 -19.2 L 3 19.2 " />
<path id= "17" d=" M 2.94875e-013 -19.2 L 3 -19.2 " />
<path id= "18" d=" M 2.98428e-013 -19.2 L 2.98428e-013 -59.2 " />
<path id= "19" d=" M 3 -59.2 L 2.98428e-013 -59.2 " />
<path id= "20" d=" M 3 -97.6 L 3 -59.2 " />
<path id= "21" d=" M 2.94875e-013 -97.6 L 3 -97.6 " />
<path id= "22" d=" M 2.98428e-013 -97.6 L 2.98428e-013 -137.6 " />
<path id= "23" d=" M 3 -137.6 L 2.98428e-013 -137.6 " />
<path id= "24" d=" M 3 -176 L 3 -137.6 " />
<path id= "25" d=" M 3 -176 L 17.5 -176 " />
<path id= "26" d=" M 17.5 -173 L 17.5 -176 " />
<path id= "27" d=" M 32.5 -173 L 17.5 -173 " />
<path id= "28" d=" M 32.5 -176 L 32.5 -173 " />
</g>
</g>



<g id="Ortho_0_007"
   transform="rotate(-90,475,115) translate(475,115) scale(1,1)"
  >
<g   stroke="rgb(0, 0, 0)"
   stroke-width="0.35"
   stroke-linecap="butt"
   stroke-linejoin="miter"
   fill="none"
   transform="scale(1,-1)"
  >
<path id= "1" d=" M 50 113 L 50 -113 " />
<path id= "2" d=" M 50 113 L 32.5 113 " />
<path id= "3" d=" M 50 -113 L 32.5 -113 " />
<path id= "4" d=" M 32.5 -113 L 32.5 -116 " />
<path id= "5" d=" M 32.5 -116 L 17.5 -116 " />
<path id= "6" d=" M 17.5 -116 L 17.5 -113 " />
<path id= "7" d=" M 17.5 -113 L 3 -113 " />
<path id= "8" d=" M 3 -89.6 L 3 -113 " />
<path id= "9" d=" M 2.8777e-013 -89.6 L 3 -89.6 " />
<path id= "10" d=" M 2.85061e-013 -89.6 L 2.89224e-013 -64.6 " />
<path id= "11" d=" M 3 -64.6 L 2.91323e-013 -64.6 " />
<path id= "12" d=" M 3 -38.2 L 3 -64.6 " />
<path id= "13" d=" M 2.94875e-013 -38.2 L 3 -38.2 " />
<path id= "14" d=" M 2.93621e-013 -38.2 L 2.97784e-013 -13.2 " />
<path id= "15" d=" M 3 -13.2 L 2.98428e-013 -13.2 " />
<path id= "16" d=" M 3 13.2 L 3 -13.2 " />
<path id= "17" d=" M 2.98428e-013 13.2 L 3 13.2 " />
<path id= "18" d=" M 3.02181e-013 13.2 L 3.06344e-013 38.2 " />
<path id= "19" d=" M 3 38.2 L 3.01981e-013 38.2 " />
<path id= "20" d=" M 3 64.6 L 3 38.2 " />
<path id= "21" d=" M 3.05533e-013 64.6 L 3 64.6 " />
<path id= "22" d=" M 3.1074e-013 64.6 L 3.14904e-013 89.6 " />
<path id= "23" d=" M 3 89.6 L 3.09086e-013 89.6 " />
<path id= "24" d=" M 3 113 L 3 89.6 " />
<path id= "25" d=" M 17.5 113 L 3 113 " />
<path id= "26" d=" M 17.5 116 L 17.5 113 " />
<path id= "27" d=" M 17.5 116 L 32.5 116 " />
<path id= "28" d=" M 32.5 113 L 32.5 116 " />
</g>
</g>



<g id="Ortho_0_008"
   transform="rotate(-90,475,295) translate(475,295) scale(1,1)"
  >
<g   stroke="rgb(0, 0, 0)"
   stroke-width="0.35"
   stroke-linecap="butt"
   stroke-linejoin="miter"
   fill="none"
   transform="scale(1,-1)"
  >
<path id= "1" d=" M 50 113 L 50 -113 " />
<path id= "2" d=" M 50 113 L 32.5 113 " />
<path id= "3" d=" M 50 -113 L 32.5 -113 " />
<path id= "4" d=" M 32.5 -113 L 32.5 -116 " />
<path id= "5" d=" M 32.5 -116 L 17.5 -116 " />
<path id= "6" d=" M 17.5 -116 L 17.5 -113 " />
<path id= "7" d=" M 17.5 -113 L 3 -113 " />
<path id= "8" d=" M 3 -89.6 L 3 -113 " />
<path id= "9" d=" M -2.4869e-014 -89.6 L 3 -89.6 " />
<path id= "10" d=" M -2.75779e-014 -89.6 L -2.34146e-014 -64.6 " />
<path id= "11" d=" M 3 -64.6 L -2.13163e-014 -64.6 " />
<path id= "12" d=" M 3 -38.2 L 3 -64.6 " />
<path id= "13" d=" M -1.77636e-014 -38.2 L 3 -38.2 " />
<path id= "14" d=" M -1.90181e-014 -38.2 L -1.48548e-014 -13.2 " />
<path id= "15" d=" M 3 -13.2 L -1.42109e-014 -13.2 " />
<path id= "16" d=" M 3 13.2 L 3 -13.2 " />
<path id= "17" d=" M -1.42109e-014 13.2 L 3 13.2 " />
<path id= "18" d=" M -1.04583e-014 13.2 L -6.29496e-015 38.2 " />
<path id= "19" d=" M 3 38.2 L -1.06581e-014 38.2 " />
<path id= "20" d=" M 3 64.6 L 3 38.2 " />
<path id= "21" d=" M -7.10543e-015 64.6 L 3 64.6 " />
<path id= "22" d=" M -1.89848e-015 64.6 L 2.26485e-015 89.6 " />
<path id= "23" d=" M 3 89.6 L -3.55271e-015 89.6 " />
<path id= "24" d=" M 3 113 L 3 89.6 " />
<path id= "25" d=" M 17.5 113 L 3 113 " />
<path id= "26" d=" M 17.5 116 L 17.5 113 " />
<path id= "27" d=" M 17.5 116 L 32.5 116 " />
<path id= "28" d=" M 32.5 113 L 32.5 116 " />
</g>
</g>



<g id="Ortho_0_009"
   transform="rotate(90,601.5,361.95) translate(601.5,361.95) scale(1,1)"
  >
<g   stroke="rgb(0, 0, 0)"
   stroke-width="0.35"
   stroke-linecap="butt"
   stroke-linejoin="miter"
   fill="none"
   transform="scale(1,-1)"
  >
<path id= "1" d=" M 56.05 -173 L 56.05 -170.05 " />
<path id= "2" d=" M 53.1 -170.05 L 56.05 -170.05 " />
<path id= "3" d=" M 53.1 -130 L 53.1 -170.05 " />
<path id= "4" d=" M 53.1 -130 L 28.05 -130 " />
<path id= "5" d=" M 28.05 -132.95 L 28.05 -130 " />
<path id= "6" d=" M 3 -132.95 L 28.05 -132.95 " />
<path id= "7" d=" M 3 -146.5 L 3 -132.95 " />
<path id= "8" d=" M 0.05 -146.5 L 3 -146.5 " />
<path id= "9" d=" M 0.05 -146.5 L 0.05 -156.5 " />
<path id= "10" d=" M 3 -156.5 L 0.05 -156.5 " />
<path id= "11" d=" M 3 -170.05 L 3 -156.5 " />
<path id= "12" d=" M 28.05 -170.05 L 3 -170.05 " />
<path id= "13" d=" M 28.05 -173 L 28.05 -170.05 " />
<path id= "14" d=" M 28.05 -173 L 56.05 -173 " />
</g>
</g>



<g id="Ortho_0_010"
   transform="rotate(-90,476,378) translate(476,378) scale(1,1)"
  >
<g   stroke="rgb(0, 0, 0)"
   stroke-width="0.35"
   stroke-linecap="butt"
   stroke-linejoin="miter"
   fill="none"
   transform="scale(1,-1)"
  >
<path id= "1" d=" M 56 110 L 56 -27.05 " />
<path id= "2" d=" M 56 110 L 28 110 " />
<path id= "3" d=" M 28 -27.05 L 56 -27.05 " />
<path id= "4" d=" M 28 -30 L 28 -27.05 " />
<path id= "5" d=" M 56 -30 L 28 -30 " />
<path id= "6" d=" M 56 -30 L 56 -110 " />
<path id= "7" d=" M 28 -110 L 56 -110 " />
<path id= "8" d=" M 28 -113 L 28 -110 " />
<path id= "9" d=" M 3 -113 L 28 -113 " />
<path id= "10" d=" M 3 -107.8 L 3 -113 " />
<path id= "11" d=" M -2.55795e-013 -107.8 L 3 -107.8 " />
<path id= "12" d=" M -2.61091e-013 -107.8 L -2.37221e-013 -97.8 " />
<path id= "13" d=" M 3 -97.8 L -2.34479e-013 -97.8 " />
<path id= "14" d=" M 3 -56.4 L 3 -97.8 " />
<path id= "15" d=" M -1.35003e-013 -56.4 L 3 -56.4 " />
<path id= "16" d=" M -1.384e-013 -56.4 L -1.14531e-013 -46.4 " />
<path id= "17" d=" M 3 -46.4 L -1.10134e-013 -46.4 " />
<path id= "18" d=" M 3 -5 L 3 -46.4 " />
<path id= "19" d=" M -1.06581e-014 -5 L 3 -5 " />
<path id= "20" d=" M -1.57097e-014 -5 L 8.16014e-015 5 " />
<path id= "21" d=" M 3 5 L 1.06581e-014 5 " />
<path id= "22" d=" M 3 46.4 L 3 5 " />
<path id= "23" d=" M 1.10134e-013 46.4 L 3 46.4 " />
<path id= "24" d=" M 1.06981e-013 46.4 L 1.30851e-013 56.4 " />
<path id= "25" d=" M 3 56.4 L 1.35003e-013 56.4 " />
<path id= "26" d=" M 3 97.8 L 3 56.4 " />
<path id= "27" d=" M 2.34479e-013 97.8 L 3 97.8 " />
<path id= "28" d=" M 2.29672e-013 97.8 L 2.53542e-013 107.8 " />
<path id= "29" d=" M 3 107.8 L 2.55795e-013 107.8 " />
<path id= "30" d=" M 3 113 L 3 107.8 " />
<path id= "31" d=" M 28 113 L 3 113 " />
<path id= "32" d=" M 28 110 L 28 113 " />
</g>
</g>



</svg>

