  0
SECTION
  2
HEADER
  9
$ACADVER
  1
AC1014
  9
$HANDSEED
  5
FFFF
  9
$MEASUREMENT
 70
     1
  0
ENDSEC
  0
SECTION
  2
TABLES
  0
TABLE
  2
VPORT
  5
8
330
0
100
AcDbSymbolTable
 70
     4
  0
VPORT
  5
2E
330
8
100
AcDbSymbolTableRecord
100
AcDbViewportTableRecord
  2
*ACTIVE
 70
     0
 10
0.0
 20
0.0
 11
1.0
 21
1.0
 12
210.0
 22
148.5
 13
0.0
 23
0.0
 14
10.0
 24
10.0
 15
10.0
 25
10.0
 16
0.0
 26
0.0
 36
1.0
 17
0.0
 27
0.0
 37
0.0
 40
341.0
 41
1.24
 42
50.0
 43
0.0
 44
0.0
 50
0.0
 51
0.0
 71
     0
 72
   100
 73
     1
 74
     3
 75
     0
 76
     0
 77
     0
 78
     0
  0
ENDTAB
  0
TABLE
  2
LTYPE
  5
5
330
0
100
AcDbSymbolTable
 70
     1
  0
LTYPE
  5
14
330
5
100
AcDbSymbolTableRecord
100
AcDbLinetypeTableRecord
  2
BYBLOCK
 70
     0
  3

 72
    65
 73
     0
 40
0.0
  0
LTYPE
  5
15
330
5
100
AcDbSymbolTableRecord
100
AcDbLinetypeTableRecord
  2
BYLAYER
 70
     0
  3

 72
    65
 73
     0
 40
0.0
  0
LTYPE
  5
16
330
5
100
AcDbSymbolTableRecord
100
AcDbLinetypeTableRecord
  2
CONTINUOUS
 70
     0
  3
Solid line
 72
    65
 73
     0
 40
0.0
  0
ENDTAB
  0
TABLE
  2
LAYER
  5
2
100
AcDbSymbolTable
 70
4
  0
LAYER
  5
50
100
AcDbSymbolTableRecord
100
AcDbLayerTableRecord
  2
0
 70
0
  6
CONTINUOUS
  0
LAYER
  5
51
100
AcDbSymbolTableRecord
100
AcDbLayerTableRecord
  2
Gravure
 70
0
  6
CONTINUOUS
  0
LAYER
  5
52
100
AcDbSymbolTableRecord
100
AcDbLayerTableRecord
  2
Decoupe_1
 70
0
  6
CONTINUOUS
  0
LAYER
  5
53
100
AcDbSymbolTableRecord
100
AcDbLayerTableRecord
  2
Decoupe_2
 70
0
  6
CONTINUOUS
  0
ENDTAB
  0
TABLE
  2
STYLE
  5
3
330
0
100
AcDbSymbolTable
 70
     1
  0
STYLE
  5
11
330
3
100
AcDbSymbolTableRecord
100
AcDbTextStyleTableRecord
  2
STANDARD
 70
     0
 40
0.0
 41
1.0
 50
0.0
 71
     0
 42
2.5
  3
txt
  4

  0
ENDTAB
  0
TABLE
  2
VIEW
  5
6
330
0
100
AcDbSymbolTable
 70
     0
  0
ENDTAB
  0
TABLE
  2
UCS
  5
7
330
0
100
AcDbSymbolTable
 70
     0
  0
ENDTAB
  0
TABLE
  2
APPID
  5
9
330
0
100
AcDbSymbolTable
 70
     2
  0
APPID
  5
12
330
9
100
AcDbSymbolTableRecord
100
AcDbRegAppTableRecord
  2
ACAD
 70
     0
  0
ENDTAB
  0
TABLE
  2
DIMSTYLE
  5
A
330
0
100
AcDbSymbolTable
 70
     1
  0
DIMSTYLE
105
27
330
A
100
AcDbSymbolTableRecord
100
AcDbDimStyleTableRecord
  2
ISO-25
 70
     0
  3

  4

  5

  6

  7

 40
1.0
 41
2.5
 42
0.625
 43
3.75
 44
1.25
 45
0.0
 46
0.0
 47
0.0
 48
0.0
140
2.5
141
2.5
142
0.0
143
0.03937007874016
144
1.0
145
0.0
146
1.0
147
0.625
 71
     0
 72
     0
 73
     0
 74
     0
 75
     0
 76
     0
 77
     1
 78
     8
170
     0
171
     3
172
     1
173
     0
174
     0
175
     0
176
     0
177
     0
178
     0
270
     2
271
     2
272
     2
273
     2
274
     3
340
11
275
     0
280
     0
281
     0
282
     0
283
     0
284
     8
285
     0
286
     0
287
     3
288
     0
  0
ENDTAB
  0
TABLE
  2
BLOCK_RECORD
  5
1
330
0
100
AcDbSymbolTable
 70
     1
  0
BLOCK_RECORD
  5
1F
330
1
100
AcDbSymbolTableRecord
100
AcDbBlockTableRecord
  2
*MODEL_SPACE
  0
BLOCK_RECORD
  5
1B
330
1
100
AcDbSymbolTableRecord
100
AcDbBlockTableRecord
  2
*PAPER_SPACE
  0
ENDTAB
  0
ENDSEC
  0
SECTION
  2
BLOCKS
  0
BLOCK
  5
20
330
1F
100
AcDbEntity
  8
0
100
AcDbBlockBegin
  2
*MODEL_SPACE
 70
     0
 10
0.0
 20
0.0
 30
0.0
  3
*MODEL_SPACE
  1

  0
ENDBLK
  5
21
330
1F
100
AcDbEntity
  8
0
100
AcDbBlockEnd
  0
BLOCK
  5
1C
330
1B
100
AcDbEntity
 67
     1
  8
0
100
AcDbBlockBegin
  2
*PAPER_SPACE
  1

  0
ENDBLK
  5
1D
330
1B
100
AcDbEntity
 67
     1
  8
0
100
AcDbBlockEnd
  0
ENDSEC
  0
SECTION
  2
ENTITIES
  0
SPLINE
  5
100
100
AcDbEntity
  8
Decoupe_1
 62
5
100
AcDbSpline
 70
8
 71
3
 72
8
 73
4
 74
0
 40
0
 40
0
 40
0
 40
0
 40
1
 40
1
 40
1
 40
1
 10
221.353490
 20
185.500000
 30
0.0
 10
224.140987
 20
183.499990
 30
0.0
 10
227.893393
 20
183.499990
 30
0.0
 10
230.680890
 20
185.500000
 30
0.0
  0
SPLINE
  5
101
100
AcDbEntity
  8
Decoupe_1
 62
5
100
AcDbSpline
 70
8
 71
3
 72
8
 73
4
 74
0
 40
0
 40
0
 40
0
 40
0
 40
1
 40
1
 40
1
 40
1
 10
231.826690
 20
186.500000
 30
0.0
 10
232.387331
 20
187.092219
 30
0.0
 10
232.854124
 20
187.766679
 30
0.0
 10
233.210890
 20
188.500000
 30
0.0
  0
LWPOLYLINE
  5
102
100
AcDbEntity
  8
Decoupe_1
 62
5
100
AcDbPolyline
 90
2
 70
0
 10
221.353490
 20
185.500000
 30
0.0
 10
230.680890
 20
185.500000
 30
0.0
  0
LWPOLYLINE
  5
103
100
AcDbEntity
  8
Decoupe_1
 62
5
100
AcDbPolyline
 90
2
 70
0
 10
231.826690
 20
186.500000
 30
0.0
 10
220.207690
 20
186.500000
 30
0.0
  0
SPLINE
  5
104
100
AcDbEntity
  8
Decoupe_1
 62
5
100
AcDbSpline
 70
8
 71
3
 72
8
 73
4
 74
0
 40
0
 40
0
 40
0
 40
0
 40
1
 40
1
 40
1
 40
1
 10
218.823490
 20
188.500000
 30
0.0
 10
219.180256
 20
187.766679
 30
0.0
 10
219.647049
 20
187.092219
 30
0.0
 10
220.207690
 20
186.500000
 30
0.0
  0
SPLINE
  5
105
100
AcDbEntity
  8
Decoupe_1
 62
5
100
AcDbSpline
 70
8
 71
3
 72
8
 73
4
 74
0
 40
0
 40
0
 40
0
 40
0
 40
1
 40
1
 40
1
 40
1
 10
218.032790
 20
191.500000
 30
0.0
 10
218.075422
 20
190.819649
 30
0.0
 10
218.204837
 20
190.147537
 30
0.0
 10
218.417890
 20
189.500000
 30
0.0
  0
LWPOLYLINE
  5
106
100
AcDbEntity
  8
Decoupe_1
 62
5
100
AcDbPolyline
 90
2
 70
0
 10
218.823490
 20
188.500000
 30
0.0
 10
233.210890
 20
188.500000
 30
0.0
  0
LWPOLYLINE
  5
107
100
AcDbEntity
  8
Decoupe_1
 62
5
100
AcDbPolyline
 90
2
 70
0
 10
218.032790
 20
191.500000
 30
0.0
 10
234.001590
 20
191.500000
 30
0.0
  0
SPLINE
  5
108
100
AcDbEntity
  8
Decoupe_1
 62
5
100
AcDbSpline
 70
8
 71
3
 72
8
 73
4
 74
0
 40
0
 40
0
 40
0
 40
0
 40
1
 40
1
 40
1
 40
1
 10
233.616490
 20
189.500000
 30
0.0
 10
233.829543
 20
190.147537
 30
0.0
 10
233.958958
 20
190.819649
 30
0.0
 10
234.001590
 20
191.500000
 30
0.0
  0
SPLINE
  5
109
100
AcDbEntity
  8
Decoupe_1
 62
5
100
AcDbSpline
 70
8
 71
3
 72
8
 73
4
 74
0
 40
0
 40
0
 40
0
 40
0
 40
1
 40
1
 40
1
 40
1
 10
242.032830
 20
191.500000
 30
0.0
 10
242.075436
 20
190.819652
 30
0.0
 10
242.204824
 20
190.147540
 30
0.0
 10
242.417850
 20
189.500000
 30
0.0
  0
LWPOLYLINE
  5
10a
100
AcDbEntity
  8
Decoupe_1
 62
5
100
AcDbPolyline
 90
2
 70
0
 10
233.616490
 20
189.500000
 30
0.0
 10
218.417890
 20
189.500000
 30
0.0
  0
SPLINE
  5
10b
100
AcDbEntity
  8
Decoupe_1
 62
5
100
AcDbSpline
 70
8
 71
3
 72
8
 73
4
 74
0
 40
0
 40
0
 40
0
 40
0
 40
1
 40
1
 40
1
 40
1
 10
257.616530
 20
189.500000
 30
0.0
 10
257.829556
 20
190.147540
 30
0.0
 10
257.958944
 20
190.819652
 30
0.0
 10
258.001550
 20
191.500000
 30
0.0
  0
LWPOLYLINE
  5
10c
100
AcDbEntity
  8
Decoupe_1
 62
5
100
AcDbPolyline
 90
2
 70
0
 10
257.616530
 20
189.500000
 30
0.0
 10
242.417850
 20
189.500000
 30
0.0
  0
SPLINE
  5
10d
100
AcDbEntity
  8
Decoupe_1
 62
5
100
AcDbSpline
 70
8
 71
3
 72
8
 73
4
 74
0
 40
0
 40
0
 40
0
 40
0
 40
1
 40
1
 40
1
 40
1
 10
242.823440
 20
188.500000
 30
0.0
 10
243.180227
 20
187.766674
 30
0.0
 10
243.647045
 20
187.092214
 30
0.0
 10
244.207710
 20
186.500000
 30
0.0
  0
LWPOLYLINE
  5
10e
100
AcDbEntity
  8
Decoupe_1
 62
5
100
AcDbPolyline
 90
2
 70
0
 10
242.032830
 20
191.500000
 30
0.0
 10
258.001550
 20
191.500000
 30
0.0
  0
SPLINE
  5
10f
100
AcDbEntity
  8
Decoupe_1
 62
5
100
AcDbSpline
 70
8
 71
3
 72
8
 73
4
 74
0
 40
0
 40
0
 40
0
 40
0
 40
1
 40
1
 40
1
 40
1
 10
255.826670
 20
186.500000
 30
0.0
 10
256.387335
 20
187.092214
 30
0.0
 10
256.854153
 20
187.766674
 30
0.0
 10
257.210940
 20
188.500000
 30
0.0
  0
LWPOLYLINE
  5
110
100
AcDbEntity
  8
Decoupe_1
 62
5
100
AcDbPolyline
 90
2
 70
0
 10
255.826670
 20
186.500000
 30
0.0
 10
244.207710
 20
186.500000
 30
0.0
  0
SPLINE
  5
111
100
AcDbEntity
  8
Decoupe_1
 62
5
100
AcDbSpline
 70
8
 71
3
 72
8
 73
4
 74
0
 40
0
 40
0
 40
0
 40
0
 40
1
 40
1
 40
1
 40
1
 10
245.353500
 20
185.500000
 30
0.0
 10
248.140993
 20
183.500000
 30
0.0
 10
251.893387
 20
183.500000
 30
0.0
 10
254.680880
 20
185.500000
 30
0.0
  0
LWPOLYLINE
  5
112
100
AcDbEntity
  8
Decoupe_1
 62
5
100
AcDbPolyline
 90
2
 70
0
 10
242.823440
 20
188.500000
 30
0.0
 10
257.210940
 20
188.500000
 30
0.0
  0
SPLINE
  5
113
100
AcDbEntity
  8
Decoupe_1
 62
5
100
AcDbSpline
 70
8
 71
3
 72
8
 73
4
 74
0
 40
0
 40
0
 40
0
 40
0
 40
1
 40
1
 40
1
 40
1
 10
254.680880
 20
161.500000
 30
0.0
 10
251.893387
 20
159.500000
 30
0.0
 10
248.140993
 20
159.500000
 30
0.0
 10
245.353500
 20
161.500000
 30
0.0
  0
LWPOLYLINE
  5
114
100
AcDbEntity
  8
Decoupe_1
 62
5
100
AcDbPolyline
 90
2
 70
0
 10
245.353500
 20
185.500000
 30
0.0
 10
254.680880
 20
185.500000
 30
0.0
  0
SPLINE
  5
115
100
AcDbEntity
  8
Decoupe_1
 62
5
100
AcDbSpline
 70
8
 71
3
 72
8
 73
4
 74
0
 40
0
 40
0
 40
0
 40
0
 40
1
 40
1
 40
1
 40
1
 10
244.207710
 20
162.500000
 30
0.0
 10
243.647045
 20
163.092214
 30
0.0
 10
243.180227
 20
163.766674
 30
0.0
 10
242.823440
 20
164.500000
 30
0.0
  0
LWPOLYLINE
  5
116
100
AcDbEntity
  8
Decoupe_1
 62
5
100
AcDbPolyline
 90
2
 70
0
 10
245.353500
 20
161.500000
 30
0.0
 10
254.680880
 20
161.500000
 30
0.0
  0
SPLINE
  5
117
100
AcDbEntity
  8
Decoupe_1
 62
5
100
AcDbSpline
 70
8
 71
3
 72
8
 73
4
 74
0
 40
0
 40
0
 40
0
 40
0
 40
1
 40
1
 40
1
 40
1
 10
257.210940
 20
164.500000
 30
0.0
 10
256.854153
 20
163.766674
 30
0.0
 10
256.387335
 20
163.092214
 30
0.0
 10
255.826670
 20
162.500000
 30
0.0
  0
LWPOLYLINE
  5
118
100
AcDbEntity
  8
Decoupe_1
 62
5
100
AcDbPolyline
 90
2
 70
0
 10
255.826670
 20
162.500000
 30
0.0
 10
244.207710
 20
162.500000
 30
0.0
  0
LWPOLYLINE
  5
119
100
AcDbEntity
  8
Decoupe_1
 62
5
100
AcDbPolyline
 90
2
 70
0
 10
242.823440
 20
164.500000
 30
0.0
 10
257.210940
 20
164.500000
 30
0.0
  0
SPLINE
  5
11a
100
AcDbEntity
  8
Decoupe_1
 62
5
100
AcDbSpline
 70
8
 71
3
 72
8
 73
4
 74
0
 40
0
 40
0
 40
0
 40
0
 40
1
 40
1
 40
1
 40
1
 10
258.001550
 20
167.500000
 30
0.0
 10
257.958944
 20
166.819652
 30
0.0
 10
257.829556
 20
166.147540
 30
0.0
 10
257.616530
 20
165.500000
 30
0.0
  0
LWPOLYLINE
  5
11b
100
AcDbEntity
  8
Decoupe_1
 62
5
100
AcDbPolyline
 90
2
 70
0
 10
242.417850
 20
165.500000
 30
0.0
 10
257.616530
 20
165.500000
 30
0.0
  0
SPLINE
  5
11c
100
AcDbEntity
  8
Decoupe_1
 62
5
100
AcDbSpline
 70
8
 71
3
 72
8
 73
4
 74
0
 40
0
 40
0
 40
0
 40
0
 40
1
 40
1
 40
1
 40
1
 10
242.417850
 20
165.500000
 30
0.0
 10
242.204824
 20
166.147540
 30
0.0
 10
242.075436
 20
166.819652
 30
0.0
 10
242.032830
 20
167.500000
 30
0.0
  0
LWPOLYLINE
  5
11d
100
AcDbEntity
  8
Decoupe_1
 62
5
100
AcDbPolyline
 90
2
 70
0
 10
258.001550
 20
167.500000
 30
0.0
 10
242.032830
 20
167.500000
 30
0.0
  0
SPLINE
  5
11e
100
AcDbEntity
  8
Decoupe_1
 62
5
100
AcDbSpline
 70
8
 71
3
 72
8
 73
4
 74
0
 40
0
 40
0
 40
0
 40
0
 40
1
 40
1
 40
1
 40
1
 10
257.616530
 20
170.500000
 30
0.0
 10
257.829556
 20
169.852460
 30
0.0
 10
257.958944
 20
169.180348
 30
0.0
 10
258.001550
 20
168.500000
 30
0.0
  0
LWPOLYLINE
  5
11f
100
AcDbEntity
  8
Decoupe_1
 62
5
100
AcDbPolyline
 90
2
 70
0
 10
242.032830
 20
168.500000
 30
0.0
 10
258.001550
 20
168.500000
 30
0.0
  0
SPLINE
  5
120
100
AcDbEntity
  8
Decoupe_1
 62
5
100
AcDbSpline
 70
8
 71
3
 72
8
 73
4
 74
0
 40
0
 40
0
 40
0
 40
0
 40
1
 40
1
 40
1
 40
1
 10
242.032830
 20
168.500000
 30
0.0
 10
242.075436
 20
169.180348
 30
0.0
 10
242.204824
 20
169.852460
 30
0.0
 10
242.417850
 20
170.500000
 30
0.0
  0
LWPOLYLINE
  5
121
100
AcDbEntity
  8
Decoupe_1
 62
5
100
AcDbPolyline
 90
2
 70
0
 10
257.616530
 20
170.500000
 30
0.0
 10
242.417850
 20
170.500000
 30
0.0
  0
SPLINE
  5
122
100
AcDbEntity
  8
Decoupe_1
 62
5
100
AcDbSpline
 70
8
 71
3
 72
8
 73
4
 74
0
 40
0
 40
0
 40
0
 40
0
 40
1
 40
1
 40
1
 40
1
 10
245.353500
 20
174.500000
 30
0.0
 10
248.140993
 20
176.500000
 30
0.0
 10
251.893387
 20
176.500000
 30
0.0
 10
254.680880
 20
174.500000
 30
0.0
  0
LWPOLYLINE
  5
123
100
AcDbEntity
  8
Decoupe_1
 62
5
100
AcDbPolyline
 90
2
 70
0
 10
245.353500
 20
174.500000
 30
0.0
 10
254.680880
 20
174.500000
 30
0.0
  0
SPLINE
  5
124
100
AcDbEntity
  8
Decoupe_1
 62
5
100
AcDbSpline
 70
8
 71
3
 72
8
 73
4
 74
0
 40
0
 40
0
 40
0
 40
0
 40
1
 40
1
 40
1
 40
1
 10
255.826670
 20
173.500000
 30
0.0
 10
256.387335
 20
172.907786
 30
0.0
 10
256.854153
 20
172.233326
 30
0.0
 10
257.210940
 20
171.500000
 30
0.0
  0
LWPOLYLINE
  5
125
100
AcDbEntity
  8
Decoupe_1
 62
5
100
AcDbPolyline
 90
2
 70
0
 10
242.823440
 20
171.500000
 30
0.0
 10
257.210940
 20
171.500000
 30
0.0
  0
SPLINE
  5
126
100
AcDbEntity
  8
Decoupe_1
 62
5
100
AcDbSpline
 70
8
 71
3
 72
8
 73
4
 74
0
 40
0
 40
0
 40
0
 40
0
 40
1
 40
1
 40
1
 40
1
 10
242.823440
 20
171.500000
 30
0.0
 10
243.180227
 20
172.233326
 30
0.0
 10
243.647045
 20
172.907786
 30
0.0
 10
244.207710
 20
173.500000
 30
0.0
  0
LWPOLYLINE
  5
127
100
AcDbEntity
  8
Decoupe_1
 62
5
100
AcDbPolyline
 90
2
 70
0
 10
255.826670
 20
173.500000
 30
0.0
 10
244.207710
 20
173.500000
 30
0.0
  0
SPLINE
  5
128
100
AcDbEntity
  8
Decoupe_1
 62
5
100
AcDbSpline
 70
8
 71
3
 72
8
 73
4
 74
0
 40
0
 40
0
 40
0
 40
0
 40
1
 40
1
 40
1
 40
1
 10
221.353490
 20
174.500000
 30
0.0
 10
224.140987
 20
176.500010
 30
0.0
 10
227.893393
 20
176.500010
 30
0.0
 10
230.680890
 20
174.500000
 30
0.0
  0
LWPOLYLINE
  5
129
100
AcDbEntity
  8
Decoupe_1
 62
5
100
AcDbPolyline
 90
2
 70
0
 10
221.353490
 20
174.500000
 30
0.0
 10
230.680890
 20
174.500000
 30
0.0
  0
SPLINE
  5
12a
100
AcDbEntity
  8
Decoupe_1
 62
5
100
AcDbSpline
 70
8
 71
3
 72
8
 73
4
 74
0
 40
0
 40
0
 40
0
 40
0
 40
1
 40
1
 40
1
 40
1
 10
218.823490
 20
171.500000
 30
0.0
 10
219.180256
 20
172.233321
 30
0.0
 10
219.647049
 20
172.907781
 30
0.0
 10
220.207690
 20
173.500000
 30
0.0
  0
LWPOLYLINE
  5
12b
100
AcDbEntity
  8
Decoupe_1
 62
5
100
AcDbPolyline
 90
2
 70
0
 10
231.826690
 20
173.500000
 30
0.0
 10
220.207690
 20
173.500000
 30
0.0
  0
SPLINE
  5
12c
100
AcDbEntity
  8
Decoupe_1
 62
5
100
AcDbSpline
 70
8
 71
3
 72
8
 73
4
 74
0
 40
0
 40
0
 40
0
 40
0
 40
1
 40
1
 40
1
 40
1
 10
231.826690
 20
173.500000
 30
0.0
 10
232.387331
 20
172.907781
 30
0.0
 10
232.854124
 20
172.233321
 30
0.0
 10
233.210890
 20
171.500000
 30
0.0
  0
LWPOLYLINE
  5
12d
100
AcDbEntity
  8
Decoupe_1
 62
5
100
AcDbPolyline
 90
2
 70
0
 10
218.823490
 20
171.500000
 30
0.0
 10
233.210890
 20
171.500000
 30
0.0
  0
SPLINE
  5
12e
100
AcDbEntity
  8
Decoupe_1
 62
5
100
AcDbSpline
 70
8
 71
3
 72
8
 73
4
 74
0
 40
0
 40
0
 40
0
 40
0
 40
1
 40
1
 40
1
 40
1
 10
234.001590
 20
167.500000
 30
0.0
 10
233.958958
 20
166.819649
 30
0.0
 10
233.829543
 20
166.147537
 30
0.0
 10
233.616490
 20
165.500000
 30
0.0
  0
LWPOLYLINE
  5
12f
100
AcDbEntity
  8
Decoupe_1
 62
5
100
AcDbPolyline
 90
2
 70
0
 10
218.417890
 20
165.500000
 30
0.0
 10
233.616490
 20
165.500000
 30
0.0
  0
SPLINE
  5
130
100
AcDbEntity
  8
Decoupe_1
 62
5
100
AcDbSpline
 70
8
 71
3
 72
8
 73
4
 74
0
 40
0
 40
0
 40
0
 40
0
 40
1
 40
1
 40
1
 40
1
 10
218.417890
 20
165.500000
 30
0.0
 10
218.204837
 20
166.147537
 30
0.0
 10
218.075422
 20
166.819649
 30
0.0
 10
218.032790
 20
167.500000
 30
0.0
  0
LWPOLYLINE
  5
131
100
AcDbEntity
  8
Decoupe_1
 62
5
100
AcDbPolyline
 90
2
 70
0
 10
234.001590
 20
167.500000
 30
0.0
 10
218.032790
 20
167.500000
 30
0.0
  0
SPLINE
  5
132
100
AcDbEntity
  8
Decoupe_1
 62
5
100
AcDbSpline
 70
8
 71
3
 72
8
 73
4
 74
0
 40
0
 40
0
 40
0
 40
0
 40
1
 40
1
 40
1
 40
1
 10
233.616490
 20
170.500000
 30
0.0
 10
233.829543
 20
169.852463
 30
0.0
 10
233.958958
 20
169.180351
 30
0.0
 10
234.001590
 20
168.500000
 30
0.0
  0
LWPOLYLINE
  5
133
100
AcDbEntity
  8
Decoupe_1
 62
5
100
AcDbPolyline
 90
2
 70
0
 10
218.032790
 20
168.500000
 30
0.0
 10
234.001590
 20
168.500000
 30
0.0
  0
SPLINE
  5
134
100
AcDbEntity
  8
Decoupe_1
 62
5
100
AcDbSpline
 70
8
 71
3
 72
8
 73
4
 74
0
 40
0
 40
0
 40
0
 40
0
 40
1
 40
1
 40
1
 40
1
 10
218.032790
 20
168.500000
 30
0.0
 10
218.075422
 20
169.180351
 30
0.0
 10
218.204837
 20
169.852463
 30
0.0
 10
218.417890
 20
170.500000
 30
0.0
  0
LWPOLYLINE
  5
135
100
AcDbEntity
  8
Decoupe_1
 62
5
100
AcDbPolyline
 90
2
 70
0
 10
233.616490
 20
170.500000
 30
0.0
 10
218.417890
 20
170.500000
 30
0.0
  0
SPLINE
  5
136
100
AcDbEntity
  8
Decoupe_1
 62
5
100
AcDbSpline
 70
8
 71
3
 72
8
 73
4
 74
0
 40
0
 40
0
 40
0
 40
0
 40
1
 40
1
 40
1
 40
1
 10
230.680890
 20
161.500000
 30
0.0
 10
227.893393
 20
159.499990
 30
0.0
 10
224.140987
 20
159.499990
 30
0.0
 10
221.353490
 20
161.500000
 30
0.0
  0
LWPOLYLINE
  5
137
100
AcDbEntity
  8
Decoupe_1
 62
5
100
AcDbPolyline
 90
2
 70
0
 10
221.353490
 20
161.500000
 30
0.0
 10
230.680890
 20
161.500000
 30
0.0
  0
SPLINE
  5
138
100
AcDbEntity
  8
Decoupe_1
 62
5
100
AcDbSpline
 70
8
 71
3
 72
8
 73
4
 74
0
 40
0
 40
0
 40
0
 40
0
 40
1
 40
1
 40
1
 40
1
 10
220.207690
 20
162.500000
 30
0.0
 10
219.647049
 20
163.092219
 30
0.0
 10
219.180256
 20
163.766679
 30
0.0
 10
218.823490
 20
164.500000
 30
0.0
  0
LWPOLYLINE
  5
139
100
AcDbEntity
  8
Decoupe_1
 62
5
100
AcDbPolyline
 90
2
 70
0
 10
218.823490
 20
164.500000
 30
0.0
 10
233.210890
 20
164.500000
 30
0.0
  0
SPLINE
  5
13a
100
AcDbEntity
  8
Decoupe_1
 62
5
100
AcDbSpline
 70
8
 71
3
 72
8
 73
4
 74
0
 40
0
 40
0
 40
0
 40
0
 40
1
 40
1
 40
1
 40
1
 10
233.210890
 20
164.500000
 30
0.0
 10
232.854124
 20
163.766679
 30
0.0
 10
232.387331
 20
163.092219
 30
0.0
 10
231.826690
 20
162.500000
 30
0.0
  0
SPLINE
  5
13b
100
AcDbEntity
  8
Decoupe_1
 62
5
100
AcDbSpline
 70
8
 71
3
 72
8
 73
4
 74
0
 40
0
 40
0
 40
0
 40
0
 40
1
 40
1
 40
1
 40
1
 10
233.210890
 20
195.500000
 30
0.0
 10
232.854124
 20
196.233321
 30
0.0
 10
232.387331
 20
196.907781
 30
0.0
 10
231.826690
 20
197.500000
 30
0.0
  0
LWPOLYLINE
  5
13c
100
AcDbEntity
  8
Decoupe_1
 62
5
100
AcDbPolyline
 90
2
 70
0
 10
231.826690
 20
162.500000
 30
0.0
 10
220.207690
 20
162.500000
 30
0.0
  0
LWPOLYLINE
  5
13d
100
AcDbEntity
  8
Decoupe_1
 62
5
100
AcDbPolyline
 90
2
 70
0
 10
218.823490
 20
195.500000
 30
0.0
 10
233.210890
 20
195.500000
 30
0.0
  0
SPLINE
  5
13e
100
AcDbEntity
  8
Decoupe_1
 62
5
100
AcDbSpline
 70
8
 71
3
 72
8
 73
4
 74
0
 40
0
 40
0
 40
0
 40
0
 40
1
 40
1
 40
1
 40
1
 10
220.207690
 20
197.500000
 30
0.0
 10
219.647049
 20
196.907781
 30
0.0
 10
219.180256
 20
196.233321
 30
0.0
 10
218.823490
 20
195.500000
 30
0.0
  0
SPLINE
  5
13f
100
AcDbEntity
  8
Decoupe_1
 62
5
100
AcDbSpline
 70
8
 71
3
 72
8
 73
4
 74
0
 40
0
 40
0
 40
0
 40
0
 40
1
 40
1
 40
1
 40
1
 10
218.417890
 20
194.500000
 30
0.0
 10
218.204837
 20
193.852463
 30
0.0
 10
218.075422
 20
193.180351
 30
0.0
 10
218.032790
 20
192.500000
 30
0.0
  0
LWPOLYLINE
  5
140
100
AcDbEntity
  8
Decoupe_1
 62
5
100
AcDbPolyline
 90
2
 70
0
 10
231.826690
 20
197.500000
 30
0.0
 10
220.207690
 20
197.500000
 30
0.0
  0
LWPOLYLINE
  5
141
100
AcDbEntity
  8
Decoupe_1
 62
5
100
AcDbPolyline
 90
2
 70
0
 10
218.417890
 20
194.500000
 30
0.0
 10
233.616490
 20
194.500000
 30
0.0
  0
SPLINE
  5
142
100
AcDbEntity
  8
Decoupe_1
 62
5
100
AcDbSpline
 70
8
 71
3
 72
8
 73
4
 74
0
 40
0
 40
0
 40
0
 40
0
 40
1
 40
1
 40
1
 40
1
 10
234.001590
 20
192.500000
 30
0.0
 10
233.958958
 20
193.180351
 30
0.0
 10
233.829543
 20
193.852463
 30
0.0
 10
233.616490
 20
194.500000
 30
0.0
  0
LWPOLYLINE
  5
143
100
AcDbEntity
  8
Decoupe_1
 62
5
100
AcDbPolyline
 90
2
 70
0
 10
234.001590
 20
192.500000
 30
0.0
 10
218.032790
 20
192.500000
 30
0.0
  0
SPLINE
  5
144
100
AcDbEntity
  8
Decoupe_1
 62
5
100
AcDbSpline
 70
8
 71
3
 72
8
 73
4
 74
0
 40
0
 40
0
 40
0
 40
0
 40
1
 40
1
 40
1
 40
1
 10
257.210940
 20
195.500000
 30
0.0
 10
256.854153
 20
196.233326
 30
0.0
 10
256.387335
 20
196.907786
 30
0.0
 10
255.826670
 20
197.500000
 30
0.0
  0
LWPOLYLINE
  5
145
100
AcDbEntity
  8
Decoupe_1
 62
5
100
AcDbPolyline
 90
2
 70
0
 10
242.823440
 20
195.500000
 30
0.0
 10
257.210940
 20
195.500000
 30
0.0
  0
SPLINE
  5
146
100
AcDbEntity
  8
Decoupe_1
 62
5
100
AcDbSpline
 70
8
 71
3
 72
8
 73
4
 74
0
 40
0
 40
0
 40
0
 40
0
 40
1
 40
1
 40
1
 40
1
 10
244.207710
 20
197.500000
 30
0.0
 10
243.647045
 20
196.907786
 30
0.0
 10
243.180227
 20
196.233326
 30
0.0
 10
242.823440
 20
195.500000
 30
0.0
  0
SPLINE
  5
147
100
AcDbEntity
  8
Decoupe_1
 62
5
100
AcDbSpline
 70
8
 71
3
 72
8
 73
4
 74
0
 40
0
 40
0
 40
0
 40
0
 40
1
 40
1
 40
1
 40
1
 10
242.417850
 20
194.500000
 30
0.0
 10
242.204824
 20
193.852460
 30
0.0
 10
242.075436
 20
193.180348
 30
0.0
 10
242.032830
 20
192.500000
 30
0.0
  0
LWPOLYLINE
  5
148
100
AcDbEntity
  8
Decoupe_1
 62
5
100
AcDbPolyline
 90
2
 70
0
 10
255.826670
 20
197.500000
 30
0.0
 10
244.207710
 20
197.500000
 30
0.0
  0
SPLINE
  5
149
100
AcDbEntity
  8
Decoupe_1
 62
5
100
AcDbSpline
 70
8
 71
3
 72
8
 73
4
 74
0
 40
0
 40
0
 40
0
 40
0
 40
1
 40
1
 40
1
 40
1
 10
258.001550
 20
192.500000
 30
0.0
 10
257.958944
 20
193.180348
 30
0.0
 10
257.829556
 20
193.852460
 30
0.0
 10
257.616530
 20
194.500000
 30
0.0
  0
LWPOLYLINE
  5
14a
100
AcDbEntity
  8
Decoupe_1
 62
5
100
AcDbPolyline
 90
2
 70
0
 10
258.001550
 20
192.500000
 30
0.0
 10
242.032830
 20
192.500000
 30
0.0
  0
LWPOLYLINE
  5
14b
100
AcDbEntity
  8
Decoupe_1
 62
5
100
AcDbPolyline
 90
2
 70
0
 10
242.417850
 20
194.500000
 30
0.0
 10
257.616530
 20
194.500000
 30
0.0
  0
SPLINE
  5
14c
100
AcDbEntity
  8
Decoupe_1
 62
5
100
AcDbSpline
 70
8
 71
3
 72
8
 73
4
 74
0
 40
0
 40
0
 40
0
 40
0
 40
1
 40
1
 40
1
 40
1
 10
266.032790
 20
168.500000
 30
0.0
 10
266.075422
 20
169.180351
 30
0.0
 10
266.204837
 20
169.852463
 30
0.0
 10
266.417890
 20
170.500000
 30
0.0
  0
LWPOLYLINE
  5
14d
100
AcDbEntity
  8
Decoupe_1
 62
5
100
AcDbPolyline
 90
2
 70
0
 10
281.616490
 20
170.500000
 30
0.0
 10
266.417890
 20
170.500000
 30
0.0
  0
SPLINE
  5
14e
100
AcDbEntity
  8
Decoupe_1
 62
5
100
AcDbSpline
 70
8
 71
3
 72
8
 73
4
 74
0
 40
0
 40
0
 40
0
 40
0
 40
1
 40
1
 40
1
 40
1
 10
281.616490
 20
170.500000
 30
0.0
 10
281.829543
 20
169.852463
 30
0.0
 10
281.958958
 20
169.180351
 30
0.0
 10
282.001590
 20
168.500000
 30
0.0
  0
LWPOLYLINE
  5
14f
100
AcDbEntity
  8
Decoupe_1
 62
5
100
AcDbPolyline
 90
2
 70
0
 10
266.032790
 20
168.500000
 30
0.0
 10
282.001590
 20
168.500000
 30
0.0
  0
SPLINE
  5
150
100
AcDbEntity
  8
Decoupe_1
 62
5
100
AcDbSpline
 70
8
 71
3
 72
8
 73
4
 74
0
 40
0
 40
0
 40
0
 40
0
 40
1
 40
1
 40
1
 40
1
 10
266.823490
 20
171.500000
 30
0.0
 10
267.180256
 20
172.233321
 30
0.0
 10
267.647049
 20
172.907781
 30
0.0
 10
268.207690
 20
173.500000
 30
0.0
  0
LWPOLYLINE
  5
151
100
AcDbEntity
  8
Decoupe_1
 62
5
100
AcDbPolyline
 90
2
 70
0
 10
279.826690
 20
173.500000
 30
0.0
 10
268.207690
 20
173.500000
 30
0.0
  0
SPLINE
  5
152
100
AcDbEntity
  8
Decoupe_1
 62
5
100
AcDbSpline
 70
8
 71
3
 72
8
 73
4
 74
0
 40
0
 40
0
 40
0
 40
0
 40
1
 40
1
 40
1
 40
1
 10
279.826690
 20
173.500000
 30
0.0
 10
280.387331
 20
172.907781
 30
0.0
 10
280.854124
 20
172.233321
 30
0.0
 10
281.210890
 20
171.500000
 30
0.0
  0
SPLINE
  5
153
100
AcDbEntity
  8
Decoupe_1
 62
5
100
AcDbSpline
 70
8
 71
3
 72
8
 73
4
 74
0
 40
0
 40
0
 40
0
 40
0
 40
1
 40
1
 40
1
 40
1
 10
269.353490
 20
185.500000
 30
0.0
 10
272.140987
 20
183.499990
 30
0.0
 10
275.893393
 20
183.499990
 30
0.0
 10
278.680890
 20
185.500000
 30
0.0
  0
LWPOLYLINE
  5
154
100
AcDbEntity
  8
Decoupe_1
 62
5
100
AcDbPolyline
 90
2
 70
0
 10
266.823490
 20
171.500000
 30
0.0
 10
281.210890
 20
171.500000
 30
0.0
  0
LWPOLYLINE
  5
155
100
AcDbEntity
  8
Decoupe_1
 62
5
100
AcDbPolyline
 90
2
 70
0
 10
269.353490
 20
185.500000
 30
0.0
 10
278.680890
 20
185.500000
 30
0.0
  0
SPLINE
  5
156
100
AcDbEntity
  8
Decoupe_1
 62
5
100
AcDbSpline
 70
8
 71
3
 72
8
 73
4
 74
0
 40
0
 40
0
 40
0
 40
0
 40
1
 40
1
 40
1
 40
1
 10
269.353490
 20
174.500000
 30
0.0
 10
272.140987
 20
176.500010
 30
0.0
 10
275.893393
 20
176.500010
 30
0.0
 10
278.680890
 20
174.500000
 30
0.0
  0
LWPOLYLINE
  5
157
100
AcDbEntity
  8
Decoupe_1
 62
5
100
AcDbPolyline
 90
2
 70
0
 10
269.353490
 20
174.500000
 30
0.0
 10
278.680890
 20
174.500000
 30
0.0
  0
SPLINE
  5
158
100
AcDbEntity
  8
Decoupe_1
 62
5
100
AcDbSpline
 70
8
 71
3
 72
8
 73
4
 74
0
 40
0
 40
0
 40
0
 40
0
 40
1
 40
1
 40
1
 40
1
 10
268.207690
 20
197.500000
 30
0.0
 10
267.647049
 20
196.907781
 30
0.0
 10
267.180256
 20
196.233321
 30
0.0
 10
266.823490
 20
195.500000
 30
0.0
  0
LWPOLYLINE
  5
159
100
AcDbEntity
  8
Decoupe_1
 62
5
100
AcDbPolyline
 90
2
 70
0
 10
279.826690
 20
197.500000
 30
0.0
 10
268.207690
 20
197.500000
 30
0.0
  0
SPLINE
  5
15a
100
AcDbEntity
  8
Decoupe_1
 62
5
100
AcDbSpline
 70
8
 71
3
 72
8
 73
4
 74
0
 40
0
 40
0
 40
0
 40
0
 40
1
 40
1
 40
1
 40
1
 10
281.210890
 20
195.500000
 30
0.0
 10
280.854124
 20
196.233321
 30
0.0
 10
280.387331
 20
196.907781
 30
0.0
 10
279.826690
 20
197.500000
 30
0.0
  0
SPLINE
  5
15b
100
AcDbEntity
  8
Decoupe_1
 62
5
100
AcDbSpline
 70
8
 71
3
 72
8
 73
4
 74
0
 40
0
 40
0
 40
0
 40
0
 40
1
 40
1
 40
1
 40
1
 10
282.001590
 20
192.500000
 30
0.0
 10
281.958958
 20
193.180351
 30
0.0
 10
281.829543
 20
193.852463
 30
0.0
 10
281.616490
 20
194.500000
 30
0.0
  0
LWPOLYLINE
  5
15c
100
AcDbEntity
  8
Decoupe_1
 62
5
100
AcDbPolyline
 90
2
 70
0
 10
266.823490
 20
195.500000
 30
0.0
 10
281.210890
 20
195.500000
 30
0.0
  0
SPLINE
  5
15d
100
AcDbEntity
  8
Decoupe_1
 62
5
100
AcDbSpline
 70
8
 71
3
 72
8
 73
4
 74
0
 40
0
 40
0
 40
0
 40
0
 40
1
 40
1
 40
1
 40
1
 10
266.417890
 20
194.500000
 30
0.0
 10
266.204837
 20
193.852463
 30
0.0
 10
266.075422
 20
193.180351
 30
0.0
 10
266.032790
 20
192.500000
 30
0.0
  0
LWPOLYLINE
  5
15e
100
AcDbEntity
  8
Decoupe_1
 62
5
100
AcDbPolyline
 90
2
 70
0
 10
266.417890
 20
194.500000
 30
0.0
 10
281.616490
 20
194.500000
 30
0.0
  0
SPLINE
  5
15f
100
AcDbEntity
  8
Decoupe_1
 62
5
100
AcDbSpline
 70
8
 71
3
 72
8
 73
4
 74
0
 40
0
 40
0
 40
0
 40
0
 40
1
 40
1
 40
1
 40
1
 10
281.616490
 20
189.500000
 30
0.0
 10
281.829543
 20
190.147537
 30
0.0
 10
281.958958
 20
190.819649
 30
0.0
 10
282.001590
 20
191.500000
 30
0.0
  0
LWPOLYLINE
  5
160
100
AcDbEntity
  8
Decoupe_1
 62
5
100
AcDbPolyline
 90
2
 70
0
 10
282.001590
 20
192.500000
 30
0.0
 10
266.032790
 20
192.500000
 30
0.0
  0
SPLINE
  5
161
100
AcDbEntity
  8
Decoupe_1
 62
5
100
AcDbSpline
 70
8
 71
3
 72
8
 73
4
 74
0
 40
0
 40
0
 40
0
 40
0
 40
1
 40
1
 40
1
 40
1
 10
266.032790
 20
191.500000
 30
0.0
 10
266.075422
 20
190.819649
 30
0.0
 10
266.204837
 20
190.147537
 30
0.0
 10
266.417890
 20
189.500000
 30
0.0
  0
LWPOLYLINE
  5
162
100
AcDbEntity
  8
Decoupe_1
 62
5
100
AcDbPolyline
 90
2
 70
0
 10
266.032790
 20
191.500000
 30
0.0
 10
282.001590
 20
191.500000
 30
0.0
  0
SPLINE
  5
163
100
AcDbEntity
  8
Decoupe_1
 62
5
100
AcDbSpline
 70
8
 71
3
 72
8
 73
4
 74
0
 40
0
 40
0
 40
0
 40
0
 40
1
 40
1
 40
1
 40
1
 10
279.826690
 20
186.500000
 30
0.0
 10
280.387331
 20
187.092219
 30
0.0
 10
280.854124
 20
187.766679
 30
0.0
 10
281.210890
 20
188.500000
 30
0.0
  0
LWPOLYLINE
  5
164
100
AcDbEntity
  8
Decoupe_1
 62
5
100
AcDbPolyline
 90
2
 70
0
 10
281.616490
 20
189.500000
 30
0.0
 10
266.417890
 20
189.500000
 30
0.0
  0
SPLINE
  5
165
100
AcDbEntity
  8
Decoupe_1
 62
5
100
AcDbSpline
 70
8
 71
3
 72
8
 73
4
 74
0
 40
0
 40
0
 40
0
 40
0
 40
1
 40
1
 40
1
 40
1
 10
266.823490
 20
188.500000
 30
0.0
 10
267.180256
 20
187.766679
 30
0.0
 10
267.647049
 20
187.092219
 30
0.0
 10
268.207690
 20
186.500000
 30
0.0
  0
LWPOLYLINE
  5
166
100
AcDbEntity
  8
Decoupe_1
 62
5
100
AcDbPolyline
 90
2
 70
0
 10
266.823490
 20
188.500000
 30
0.0
 10
281.210890
 20
188.500000
 30
0.0
  0
LWPOLYLINE
  5
167
100
AcDbEntity
  8
Decoupe_1
 62
5
100
AcDbPolyline
 90
2
 70
0
 10
279.826690
 20
186.500000
 30
0.0
 10
268.207690
 20
186.500000
 30
0.0
  0
SPLINE
  5
168
100
AcDbEntity
  8
Decoupe_1
 62
5
100
AcDbSpline
 70
8
 71
3
 72
8
 73
4
 74
0
 40
0
 40
0
 40
0
 40
0
 40
1
 40
1
 40
1
 40
1
 10
278.680890
 20
161.500000
 30
0.0
 10
275.893393
 20
159.499990
 30
0.0
 10
272.140987
 20
159.499990
 30
0.0
 10
269.353490
 20
161.500000
 30
0.0
  0
LWPOLYLINE
  5
169
100
AcDbEntity
  8
Decoupe_1
 62
5
100
AcDbPolyline
 90
2
 70
0
 10
269.353490
 20
161.500000
 30
0.0
 10
278.680890
 20
161.500000
 30
0.0
  0
SPLINE
  5
16a
100
AcDbEntity
  8
Decoupe_1
 62
5
100
AcDbSpline
 70
8
 71
3
 72
8
 73
4
 74
0
 40
0
 40
0
 40
0
 40
0
 40
1
 40
1
 40
1
 40
1
 10
268.207690
 20
162.500000
 30
0.0
 10
267.647049
 20
163.092219
 30
0.0
 10
267.180256
 20
163.766679
 30
0.0
 10
266.823490
 20
164.500000
 30
0.0
  0
LWPOLYLINE
  5
16b
100
AcDbEntity
  8
Decoupe_1
 62
5
100
AcDbPolyline
 90
2
 70
0
 10
266.823490
 20
164.500000
 30
0.0
 10
281.210890
 20
164.500000
 30
0.0
  0
SPLINE
  5
16c
100
AcDbEntity
  8
Decoupe_1
 62
5
100
AcDbSpline
 70
8
 71
3
 72
8
 73
4
 74
0
 40
0
 40
0
 40
0
 40
0
 40
1
 40
1
 40
1
 40
1
 10
281.210890
 20
164.500000
 30
0.0
 10
280.854124
 20
163.766679
 30
0.0
 10
280.387331
 20
163.092219
 30
0.0
 10
279.826690
 20
162.500000
 30
0.0
  0
LWPOLYLINE
  5
16d
100
AcDbEntity
  8
Decoupe_1
 62
5
100
AcDbPolyline
 90
2
 70
0
 10
279.826690
 20
162.500000
 30
0.0
 10
268.207690
 20
162.500000
 30
0.0
  0
SPLINE
  5
16e
100
AcDbEntity
  8
Decoupe_1
 62
5
100
AcDbSpline
 70
8
 71
3
 72
8
 73
4
 74
0
 40
0
 40
0
 40
0
 40
0
 40
1
 40
1
 40
1
 40
1
 10
266.417890
 20
165.500000
 30
0.0
 10
266.204837
 20
166.147537
 30
0.0
 10
266.075422
 20
166.819649
 30
0.0
 10
266.032790
 20
167.500000
 30
0.0
  0
LWPOLYLINE
  5
16f
100
AcDbEntity
  8
Decoupe_1
 62
5
100
AcDbPolyline
 90
2
 70
0
 10
282.001590
 20
167.500000
 30
0.0
 10
266.032790
 20
167.500000
 30
0.0
  0
SPLINE
  5
170
100
AcDbEntity
  8
Decoupe_1
 62
5
100
AcDbSpline
 70
8
 71
3
 72
8
 73
4
 74
0
 40
0
 40
0
 40
0
 40
0
 40
1
 40
1
 40
1
 40
1
 10
282.001590
 20
167.500000
 30
0.0
 10
281.958958
 20
166.819649
 30
0.0
 10
281.829543
 20
166.147537
 30
0.0
 10
281.616490
 20
165.500000
 30
0.0
  0
LWPOLYLINE
  5
171
100
AcDbEntity
  8
Decoupe_1
 62
5
100
AcDbPolyline
 90
2
 70
0
 10
266.417890
 20
165.500000
 30
0.0
 10
281.616490
 20
165.500000
 30
0.0
  0
SPLINE
  5
172
100
AcDbEntity
  8
Decoupe_1
 62
5
100
AcDbSpline
 70
8
 71
3
 72
8
 73
4
 74
0
 40
0
 40
0
 40
0
 40
0
 40
1
 40
1
 40
1
 40
1
 10
254.680880
 20
198.500000
 30
0.0
 10
251.893387
 20
200.500000
 30
0.0
 10
248.140993
 20
200.500000
 30
0.0
 10
245.353500
 20
198.500000
 30
0.0
  0
SPLINE
  5
173
100
AcDbEntity
  8
Decoupe_1
 62
5
100
AcDbSpline
 70
8
 71
3
 72
8
 73
4
 74
0
 40
0
 40
0
 40
0
 40
0
 40
1
 40
1
 40
1
 40
1
 10
278.680890
 20
198.500000
 30
0.0
 10
275.893393
 20
200.500010
 30
0.0
 10
272.140987
 20
200.500010
 30
0.0
 10
269.353490
 20
198.500000
 30
0.0
  0
LWPOLYLINE
  5
174
100
AcDbEntity
  8
Decoupe_1
 62
5
100
AcDbPolyline
 90
2
 70
0
 10
245.353500
 20
198.500000
 30
0.0
 10
254.680880
 20
198.500000
 30
0.0
  0
LWPOLYLINE
  5
175
100
AcDbEntity
  8
Decoupe_1
 62
5
100
AcDbPolyline
 90
2
 70
0
 10
269.353490
 20
198.500000
 30
0.0
 10
278.680890
 20
198.500000
 30
0.0
  0
SPLINE
  5
176
100
AcDbEntity
  8
Decoupe_1
 62
5
100
AcDbSpline
 70
8
 71
3
 72
8
 73
4
 74
0
 40
0
 40
0
 40
0
 40
0
 40
1
 40
1
 40
1
 40
1
 10
230.680890
 20
198.500000
 30
0.0
 10
227.893393
 20
200.500010
 30
0.0
 10
224.140987
 20
200.500010
 30
0.0
 10
221.353490
 20
198.500000
 30
0.0
  0
SPLINE
  5
177
100
AcDbEntity
  8
Decoupe_1
 62
5
100
AcDbSpline
 70
8
 71
3
 72
8
 73
4
 74
0
 40
0
 40
0
 40
0
 40
0
 40
1
 40
1
 40
1
 40
1
 10
250.766400
 20
147.151171
 30
0.0
 10
250.528325
 20
147.247348
 30
0.0
 10
250.273958
 20
147.296781
 30
0.0
 10
250.017190
 20
147.296771
 30
0.0
  0
LWPOLYLINE
  5
178
100
AcDbEntity
  8
Decoupe_1
 62
5
100
AcDbPolyline
 90
2
 70
0
 10
221.353490
 20
198.500000
 30
0.0
 10
230.680890
 20
198.500000
 30
0.0
  0
SPLINE
  5
179
100
AcDbEntity
  8
Decoupe_1
 62
5
100
AcDbSpline
 70
8
 71
3
 72
8
 73
4
 74
0
 40
0
 40
0
 40
0
 40
0
 40
1
 40
1
 40
1
 40
1
 10
251.858200
 20
146.078271
 30
0.0
 10
251.757865
 20
146.314612
 30
0.0
 10
251.612960
 20
146.529422
 30
0.0
 10
251.431400
 20
146.710971
 30
0.0
  0
SPLINE
  5
17a
100
AcDbEntity
  8
Decoupe_1
 62
5
100
AcDbSpline
 70
8
 71
3
 72
8
 73
4
 74
0
 40
0
 40
0
 40
0
 40
0
 40
1
 40
1
 40
1
 40
1
 10
257.381230
 20
148.422571
 30
0.0
 10
256.979926
 20
149.368040
 30
0.0
 10
256.400309
 20
150.227386
 30
0.0
 10
255.674040
 20
150.953671
 30
0.0
  0
LWPOLYLINE
  5
17b
100
AcDbEntity
  8
Decoupe_1
 62
5
100
AcDbPolyline
 90
2
 70
0
 10
251.858200
 20
146.078271
 30
0.0
 10
257.381230
 20
148.422571
 30
0.0
  0
LWPOLYLINE
  5
17c
100
AcDbEntity
  8
Decoupe_1
 62
5
100
AcDbPolyline
 90
2
 70
0
 10
251.431400
 20
146.710971
 30
0.0
 10
255.674040
 20
150.953671
 30
0.0
  0
SPLINE
  5
17d
100
AcDbEntity
  8
Decoupe_1
 62
5
100
AcDbSpline
 70
8
 71
3
 72
8
 73
4
 74
0
 40
0
 40
0
 40
0
 40
0
 40
1
 40
1
 40
1
 40
1
 10
249.235730
 20
147.137771
 30
0.0
 10
248.999371
 20
147.037441
 30
0.0
 10
248.784544
 20
146.892537
 30
0.0
 10
248.602980
 20
146.710971
 30
0.0
  0
LWPOLYLINE
  5
17e
100
AcDbEntity
  8
Decoupe_1
 62
5
100
AcDbPolyline
 90
2
 70
0
 10
248.602980
 20
146.710971
 30
0.0
 10
244.360340
 20
150.953671
 30
0.0
  0
SPLINE
  5
17f
100
AcDbEntity
  8
Decoupe_1
 62
5
100
AcDbSpline
 70
8
 71
3
 72
8
 73
4
 74
0
 40
0
 40
0
 40
0
 40
0
 40
1
 40
1
 40
1
 40
1
 10
248.162820
 20
146.045971
 30
0.0
 10
248.066634
 20
145.807901
 30
0.0
 10
248.017191
 20
145.553537
 30
0.0
 10
248.017190
 20
145.296771
 30
0.0
  0
SPLINE
  5
180
100
AcDbEntity
  8
Decoupe_1
 62
5
100
AcDbSpline
 70
8
 71
3
 72
8
 73
4
 74
0
 40
0
 40
0
 40
0
 40
0
 40
1
 40
1
 40
1
 40
1
 10
242.599720
 20
148.293671
 30
0.0
 10
242.214962
 20
147.341361
 30
0.0
 10
242.017184
 20
146.323870
 30
0.0
 10
242.017190
 20
145.296771
 30
0.0
  0
LWPOLYLINE
  5
181
100
AcDbEntity
  8
Decoupe_1
 62
5
100
AcDbPolyline
 90
2
 70
0
 10
248.162820
 20
146.045971
 30
0.0
 10
242.599720
 20
148.293671
 30
0.0
  0
SPLINE
  5
182
100
AcDbEntity
  8
Decoupe_1
 62
5
100
AcDbSpline
 70
8
 71
3
 72
8
 73
4
 74
0
 40
0
 40
0
 40
0
 40
0
 40
1
 40
1
 40
1
 40
1
 10
218.599690
 20
148.293671
 30
0.0
 10
218.214942
 20
147.341359
 30
0.0
 10
218.017175
 20
146.323868
 30
0.0
 10
218.017190
 20
145.296771
 30
0.0
  0
LWPOLYLINE
  5
183
100
AcDbEntity
  8
Decoupe_1
 62
5
100
AcDbPolyline
 90
2
 70
0
 10
248.017190
 20
145.296771
 30
0.0
 10
242.017190
 20
145.296771
 30
0.0
  0
LWPOLYLINE
  5
184
100
AcDbEntity
  8
Decoupe_1
 62
5
100
AcDbPolyline
 90
2
 70
0
 10
224.162790
 20
146.045971
 30
0.0
 10
218.599690
 20
148.293671
 30
0.0
  0
SPLINE
  5
185
100
AcDbEntity
  8
Decoupe_1
 62
5
100
AcDbSpline
 70
8
 71
3
 72
8
 73
4
 74
0
 40
0
 40
0
 40
0
 40
0
 40
1
 40
1
 40
1
 40
1
 10
224.162790
 20
146.045971
 30
0.0
 10
224.066615
 20
145.807899
 30
0.0
 10
224.017181
 20
145.553535
 30
0.0
 10
224.017190
 20
145.296771
 30
0.0
  0
SPLINE
  5
186
100
AcDbEntity
  8
Decoupe_1
 62
5
100
AcDbSpline
 70
8
 71
3
 72
8
 73
4
 74
0
 40
0
 40
0
 40
0
 40
0
 40
1
 40
1
 40
1
 40
1
 10
225.235690
 20
147.137771
 30
0.0
 10
224.999349
 20
147.037436
 30
0.0
 10
224.784539
 20
146.892531
 30
0.0
 10
224.602990
 20
146.710971
 30
0.0
  0
LWPOLYLINE
  5
187
100
AcDbEntity
  8
Decoupe_1
 62
5
100
AcDbPolyline
 90
2
 70
0
 10
224.017190
 20
145.296771
 30
0.0
 10
218.017190
 20
145.296771
 30
0.0
  0
SPLINE
  5
188
100
AcDbEntity
  8
Decoupe_1
 62
5
100
AcDbSpline
 70
8
 71
3
 72
8
 73
4
 74
0
 40
0
 40
0
 40
0
 40
0
 40
1
 40
1
 40
1
 40
1
 10
226.766390
 20
147.151171
 30
0.0
 10
226.528318
 20
147.247346
 30
0.0
 10
226.273954
 20
147.296780
 30
0.0
 10
226.017190
 20
147.296771
 30
0.0
  0
SPLINE
  5
189
100
AcDbEntity
  8
Decoupe_1
 62
5
100
AcDbSpline
 70
8
 71
3
 72
8
 73
4
 74
0
 40
0
 40
0
 40
0
 40
0
 40
1
 40
1
 40
1
 40
1
 10
227.858190
 20
146.078271
 30
0.0
 10
227.757855
 20
146.314612
 30
0.0
 10
227.612950
 20
146.529422
 30
0.0
 10
227.431390
 20
146.710971
 30
0.0
  0
LWPOLYLINE
  5
18a
100
AcDbEntity
  8
Decoupe_1
 62
5
100
AcDbPolyline
 90
2
 70
0
 10
224.602990
 20
146.710971
 30
0.0
 10
220.360290
 20
150.953671
 30
0.0
  0
LWPOLYLINE
  5
18b
100
AcDbEntity
  8
Decoupe_1
 62
5
100
AcDbPolyline
 90
2
 70
0
 10
227.858190
 20
146.078271
 30
0.0
 10
233.381190
 20
148.422571
 30
0.0
  0
SPLINE
  5
18c
100
AcDbEntity
  8
Decoupe_1
 62
5
100
AcDbSpline
 70
8
 71
3
 72
8
 73
4
 74
0
 40
0
 40
0
 40
0
 40
0
 40
1
 40
1
 40
1
 40
1
 10
233.381190
 20
148.422571
 30
0.0
 10
232.979912
 20
149.368033
 30
0.0
 10
232.400327
 20
150.227378
 30
0.0
 10
231.674090
 20
150.953671
 30
0.0
  0
LWPOLYLINE
  5
18d
100
AcDbEntity
  8
Decoupe_1
 62
5
100
AcDbPolyline
 90
2
 70
0
 10
227.431390
 20
146.710971
 30
0.0
 10
231.674090
 20
150.953671
 30
0.0
  0
SPLINE
  5
18e
100
AcDbEntity
  8
Decoupe_1
 62
5
100
AcDbSpline
 70
8
 71
3
 72
8
 73
4
 74
0
 40
0
 40
0
 40
0
 40
0
 40
1
 40
1
 40
1
 40
1
 10
226.798690
 20
123.137771
 30
0.0
 10
227.035031
 20
123.037436
 30
0.0
 10
227.249841
 20
122.892531
 30
0.0
 10
227.431390
 20
122.710971
 30
0.0
  0
SPLINE
  5
18f
100
AcDbEntity
  8
Decoupe_1
 62
5
100
AcDbSpline
 70
8
 71
3
 72
8
 73
4
 74
0
 40
0
 40
0
 40
0
 40
0
 40
1
 40
1
 40
1
 40
1
 10
229.142990
 20
128.660811
 30
0.0
 10
230.088459
 20
128.259507
 30
0.0
 10
230.947805
 20
127.679890
 30
0.0
 10
231.674090
 20
126.953621
 30
0.0
  0
LWPOLYLINE
  5
190
100
AcDbEntity
  8
Decoupe_1
 62
5
100
AcDbPolyline
 90
2
 70
0
 10
227.431390
 20
122.710971
 30
0.0
 10
231.674090
 20
126.953621
 30
0.0
  0
SPLINE
  5
191
100
AcDbEntity
  8
Decoupe_1
 62
5
100
AcDbSpline
 70
8
 71
3
 72
8
 73
4
 74
0
 40
0
 40
0
 40
0
 40
0
 40
1
 40
1
 40
1
 40
1
 10
227.871590
 20
122.045971
 30
0.0
 10
227.967765
 20
121.807899
 30
0.0
 10
228.017199
 20
121.553535
 30
0.0
 10
228.017190
 20
121.296771
 30
0.0
  0
LWPOLYLINE
  5
192
100
AcDbEntity
  8
Decoupe_1
 62
5
100
AcDbPolyline
 90
2
 70
0
 10
226.798690
 20
123.137771
 30
0.0
 10
229.142990
 20
128.660811
 30
0.0
  0
LWPOLYLINE
  5
193
100
AcDbEntity
  8
Decoupe_1
 62
5
100
AcDbPolyline
 90
2
 70
0
 10
227.871590
 20
122.045971
 30
0.0
 10
233.434690
 20
124.293621
 30
0.0
  0
SPLINE
  5
194
100
AcDbEntity
  8
Decoupe_1
 62
5
100
AcDbSpline
 70
8
 71
3
 72
8
 73
4
 74
0
 40
0
 40
0
 40
0
 40
0
 40
1
 40
1
 40
1
 40
1
 10
233.434690
 20
124.293621
 30
0.0
 10
233.819432
 20
123.341325
 30
0.0
 10
234.017199
 20
122.323851
 30
0.0
 10
234.017190
 20
121.296771
 30
0.0
  0
SPLINE
  5
195
100
AcDbEntity
  8
Decoupe_1
 62
5
100
AcDbSpline
 70
8
 71
3
 72
8
 73
4
 74
0
 40
0
 40
0
 40
0
 40
0
 40
1
 40
1
 40
1
 40
1
 10
225.267990
 20
123.151171
 30
0.0
 10
225.506062
 20
123.247346
 30
0.0
 10
225.760426
 20
123.296780
 30
0.0
 10
226.017190
 20
123.296771
 30
0.0
  0
LWPOLYLINE
  5
196
100
AcDbEntity
  8
Decoupe_1
 62
5
100
AcDbPolyline
 90
2
 70
0
 10
228.017190
 20
121.296771
 30
0.0
 10
234.017190
 20
121.296771
 30
0.0
  0
LWPOLYLINE
  5
197
100
AcDbEntity
  8
Decoupe_1
 62
5
100
AcDbPolyline
 90
2
 70
0
 10
225.267990
 20
123.151171
 30
0.0
 10
223.020290
 20
128.714241
 30
0.0
  0
SPLINE
  5
198
100
AcDbEntity
  8
Decoupe_1
 62
5
100
AcDbSpline
 70
8
 71
3
 72
8
 73
4
 74
0
 40
0
 40
0
 40
0
 40
0
 40
1
 40
1
 40
1
 40
1
 10
223.020290
 20
128.714241
 30
0.0
 10
223.972600
 20
129.098999
 30
0.0
 10
224.990091
 20
129.296777
 30
0.0
 10
226.017190
 20
129.296771
 30
0.0
  0
LWPOLYLINE
  5
199
100
AcDbEntity
  8
Decoupe_1
 62
5
100
AcDbPolyline
 90
2
 70
0
 10
226.017190
 20
123.296771
 30
0.0
 10
226.017190
 20
129.296771
 30
0.0
  0
SPLINE
  5
19a
100
AcDbEntity
  8
Decoupe_1
 62
5
100
AcDbSpline
 70
8
 71
3
 72
8
 73
4
 74
0
 40
0
 40
0
 40
0
 40
0
 40
1
 40
1
 40
1
 40
1
 10
224.176190
 20
122.078271
 30
0.0
 10
224.276525
 20
122.314612
 30
0.0
 10
224.421430
 20
122.529422
 30
0.0
 10
224.602990
 20
122.710971
 30
0.0
  0
SPLINE
  5
19b
100
AcDbEntity
  8
Decoupe_1
 62
5
100
AcDbSpline
 70
8
 71
3
 72
8
 73
4
 74
0
 40
0
 40
0
 40
0
 40
0
 40
1
 40
1
 40
1
 40
1
 10
218.653190
 20
124.422621
 30
0.0
 10
219.054479
 20
125.368047
 30
0.0
 10
219.634063
 20
126.227358
 30
0.0
 10
220.360290
 20
126.953621
 30
0.0
  0
LWPOLYLINE
  5
19c
100
AcDbEntity
  8
Decoupe_1
 62
5
100
AcDbPolyline
 90
2
 70
0
 10
224.176190
 20
122.078271
 30
0.0
 10
218.653190
 20
124.422621
 30
0.0
  0
LWPOLYLINE
  5
19d
100
AcDbEntity
  8
Decoupe_1
 62
5
100
AcDbPolyline
 90
2
 70
0
 10
224.602990
 20
122.710971
 30
0.0
 10
220.360290
 20
126.953621
 30
0.0
  0
SPLINE
  5
19e
100
AcDbEntity
  8
Decoupe_1
 62
5
100
AcDbSpline
 70
8
 71
3
 72
8
 73
4
 74
0
 40
0
 40
0
 40
0
 40
0
 40
1
 40
1
 40
1
 40
1
 10
251.871560
 20
122.045971
 30
0.0
 10
251.967746
 20
121.807901
 30
0.0
 10
252.017189
 20
121.553537
 30
0.0
 10
252.017190
 20
121.296771
 30
0.0
  0
SPLINE
  5
19f
100
AcDbEntity
  8
Decoupe_1
 62
5
100
AcDbSpline
 70
8
 71
3
 72
8
 73
4
 74
0
 40
0
 40
0
 40
0
 40
0
 40
1
 40
1
 40
1
 40
1
 10
257.434660
 20
124.293621
 30
0.0
 10
257.819412
 20
123.341327
 30
0.0
 10
258.017189
 20
122.323853
 30
0.0
 10
258.017190
 20
121.296771
 30
0.0
  0
LWPOLYLINE
  5
1a0
100
AcDbEntity
  8
Decoupe_1
 62
5
100
AcDbPolyline
 90
2
 70
0
 10
252.017190
 20
121.296771
 30
0.0
 10
258.017190
 20
121.296771
 30
0.0
  0
SPLINE
  5
1a1
100
AcDbEntity
  8
Decoupe_1
 62
5
100
AcDbSpline
 70
8
 71
3
 72
8
 73
4
 74
0
 40
0
 40
0
 40
0
 40
0
 40
1
 40
1
 40
1
 40
1
 10
250.798650
 20
123.137771
 30
0.0
 10
251.035009
 20
123.037441
 30
0.0
 10
251.249836
 20
122.892537
 30
0.0
 10
251.431400
 20
122.710971
 30
0.0
  0
LWPOLYLINE
  5
1a2
100
AcDbEntity
  8
Decoupe_1
 62
5
100
AcDbPolyline
 90
2
 70
0
 10
251.871560
 20
122.045971
 30
0.0
 10
257.434660
 20
124.293621
 30
0.0
  0
LWPOLYLINE
  5
1a3
100
AcDbEntity
  8
Decoupe_1
 62
5
100
AcDbPolyline
 90
2
 70
0
 10
250.798650
 20
123.137771
 30
0.0
 10
253.143040
 20
128.660811
 30
0.0
  0
SPLINE
  5
1a4
100
AcDbEntity
  8
Decoupe_1
 62
5
100
AcDbSpline
 70
8
 71
3
 72
8
 73
4
 74
0
 40
0
 40
0
 40
0
 40
0
 40
1
 40
1
 40
1
 40
1
 10
253.143040
 20
128.660811
 30
0.0
 10
254.088474
 20
128.259495
 30
0.0
 10
254.947785
 20
127.679880
 30
0.0
 10
255.674040
 20
126.953621
 30
0.0
  0
SPLINE
  5
1a5
100
AcDbEntity
  8
Decoupe_1
 62
5
100
AcDbSpline
 70
8
 71
3
 72
8
 73
4
 74
0
 40
0
 40
0
 40
0
 40
0
 40
1
 40
1
 40
1
 40
1
 10
249.267980
 20
123.151171
 30
0.0
 10
249.506055
 20
123.247348
 30
0.0
 10
249.760422
 20
123.296781
 30
0.0
 10
250.017190
 20
123.296771
 30
0.0
  0
LWPOLYLINE
  5
1a6
100
AcDbEntity
  8
Decoupe_1
 62
5
100
AcDbPolyline
 90
2
 70
0
 10
251.431400
 20
122.710971
 30
0.0
 10
255.674040
 20
126.953621
 30
0.0
  0
LWPOLYLINE
  5
1a7
100
AcDbEntity
  8
Decoupe_1
 62
5
100
AcDbPolyline
 90
2
 70
0
 10
249.267980
 20
123.151171
 30
0.0
 10
247.020340
 20
128.714241
 30
0.0
  0
SPLINE
  5
1a8
100
AcDbEntity
  8
Decoupe_1
 62
5
100
AcDbSpline
 70
8
 71
3
 72
8
 73
4
 74
0
 40
0
 40
0
 40
0
 40
0
 40
1
 40
1
 40
1
 40
1
 10
247.020340
 20
128.714241
 30
0.0
 10
247.972634
 20
129.098993
 30
0.0
 10
248.990108
 20
129.296770
 30
0.0
 10
250.017190
 20
129.296771
 30
0.0
  0
LWPOLYLINE
  5
1a9
100
AcDbEntity
  8
Decoupe_1
 62
5
100
AcDbPolyline
 90
2
 70
0
 10
250.017190
 20
123.296771
 30
0.0
 10
250.017190
 20
129.296771
 30
0.0
  0
SPLINE
  5
1aa
100
AcDbEntity
  8
Decoupe_1
 62
5
100
AcDbSpline
 70
8
 71
3
 72
8
 73
4
 74
0
 40
0
 40
0
 40
0
 40
0
 40
1
 40
1
 40
1
 40
1
 10
248.176180
 20
122.078271
 30
0.0
 10
248.276515
 20
122.314612
 30
0.0
 10
248.421420
 20
122.529422
 30
0.0
 10
248.602980
 20
122.710971
 30
0.0
  0
SPLINE
  5
1ab
100
AcDbEntity
  8
Decoupe_1
 62
5
100
AcDbSpline
 70
8
 71
3
 72
8
 73
4
 74
0
 40
0
 40
0
 40
0
 40
0
 40
1
 40
1
 40
1
 40
1
 10
242.653150
 20
124.422621
 30
0.0
 10
243.054466
 20
125.368055
 30
0.0
 10
243.634081
 20
126.227366
 30
0.0
 10
244.360340
 20
126.953621
 30
0.0
  0
LWPOLYLINE
  5
1ac
100
AcDbEntity
  8
Decoupe_1
 62
5
100
AcDbPolyline
 90
2
 70
0
 10
248.176180
 20
122.078271
 30
0.0
 10
242.653150
 20
124.422621
 30
0.0
  0
LWPOLYLINE
  5
1ad
100
AcDbEntity
  8
Decoupe_1
 62
5
100
AcDbPolyline
 90
2
 70
0
 10
248.602980
 20
122.710971
 30
0.0
 10
244.360340
 20
126.953621
 30
0.0
  0
SPLINE
  5
1ae
100
AcDbEntity
  8
Decoupe_1
 62
5
100
AcDbSpline
 70
8
 71
3
 72
8
 73
4
 74
0
 40
0
 40
0
 40
0
 40
0
 40
1
 40
1
 40
1
 40
1
 10
225.267990
 20
143.442371
 30
0.0
 10
225.506062
 20
143.346196
 30
0.0
 10
225.760426
 20
143.296762
 30
0.0
 10
226.017190
 20
143.296771
 30
0.0
  0
SPLINE
  5
1af
100
AcDbEntity
  8
Decoupe_1
 62
5
100
AcDbSpline
 70
8
 71
3
 72
8
 73
4
 74
0
 40
0
 40
0
 40
0
 40
0
 40
1
 40
1
 40
1
 40
1
 10
223.020290
 20
137.879301
 30
0.0
 10
223.972600
 20
137.494543
 30
0.0
 10
224.990091
 20
137.296765
 30
0.0
 10
226.017190
 20
137.296771
 30
0.0
  0
LWPOLYLINE
  5
1b0
100
AcDbEntity
  8
Decoupe_1
 62
5
100
AcDbPolyline
 90
2
 70
0
 10
225.267990
 20
143.442371
 30
0.0
 10
223.020290
 20
137.879301
 30
0.0
  0
SPLINE
  5
1b1
100
AcDbEntity
  8
Decoupe_1
 62
5
100
AcDbSpline
 70
8
 71
3
 72
8
 73
4
 74
0
 40
0
 40
0
 40
0
 40
0
 40
1
 40
1
 40
1
 40
1
 10
218.653190
 20
142.170921
 30
0.0
 10
219.054479
 20
141.225495
 30
0.0
 10
219.634063
 20
140.366184
 30
0.0
 10
220.360290
 20
139.639921
 30
0.0
  0
LWPOLYLINE
  5
1b2
100
AcDbEntity
  8
Decoupe_1
 62
5
100
AcDbPolyline
 90
2
 70
0
 10
226.017190
 20
143.296771
 30
0.0
 10
226.017190
 20
137.296771
 30
0.0
  0
LWPOLYLINE
  5
1b3
100
AcDbEntity
  8
Decoupe_1
 62
5
100
AcDbPolyline
 90
2
 70
0
 10
224.176190
 20
144.515271
 30
0.0
 10
218.653190
 20
142.170921
 30
0.0
  0
SPLINE
  5
1b4
100
AcDbEntity
  8
Decoupe_1
 62
5
100
AcDbSpline
 70
8
 71
3
 72
8
 73
4
 74
0
 40
0
 40
0
 40
0
 40
0
 40
1
 40
1
 40
1
 40
1
 10
224.176190
 20
144.515271
 30
0.0
 10
224.276525
 20
144.278930
 30
0.0
 10
224.421430
 20
144.064120
 30
0.0
 10
224.602990
 20
143.882571
 30
0.0
  0
LWPOLYLINE
  5
1b5
100
AcDbEntity
  8
Decoupe_1
 62
5
100
AcDbPolyline
 90
2
 70
0
 10
224.602990
 20
143.882571
 30
0.0
 10
220.360290
 20
139.639921
 30
0.0
  0
SPLINE
  5
1b6
100
AcDbEntity
  8
Decoupe_1
 62
5
100
AcDbSpline
 70
8
 71
3
 72
8
 73
4
 74
0
 40
0
 40
0
 40
0
 40
0
 40
1
 40
1
 40
1
 40
1
 10
226.798690
 20
143.455771
 30
0.0
 10
227.035031
 20
143.556106
 30
0.0
 10
227.249841
 20
143.701011
 30
0.0
 10
227.431390
 20
143.882571
 30
0.0
  0
SPLINE
  5
1b7
100
AcDbEntity
  8
Decoupe_1
 62
5
100
AcDbSpline
 70
8
 71
3
 72
8
 73
4
 74
0
 40
0
 40
0
 40
0
 40
0
 40
1
 40
1
 40
1
 40
1
 10
229.142990
 20
137.932731
 30
0.0
 10
230.088459
 20
138.334035
 30
0.0
 10
230.947805
 20
138.913652
 30
0.0
 10
231.674090
 20
139.639921
 30
0.0
  0
LWPOLYLINE
  5
1b8
100
AcDbEntity
  8
Decoupe_1
 62
5
100
AcDbPolyline
 90
2
 70
0
 10
226.798690
 20
143.455771
 30
0.0
 10
229.142990
 20
137.932731
 30
0.0
  0
LWPOLYLINE
  5
1b9
100
AcDbEntity
  8
Decoupe_1
 62
5
100
AcDbPolyline
 90
2
 70
0
 10
227.431390
 20
143.882571
 30
0.0
 10
231.674090
 20
139.639921
 30
0.0
  0
SPLINE
  5
1ba
100
AcDbEntity
  8
Decoupe_1
 62
5
100
AcDbSpline
 70
8
 71
3
 72
8
 73
4
 74
0
 40
0
 40
0
 40
0
 40
0
 40
1
 40
1
 40
1
 40
1
 10
227.871590
 20
144.547571
 30
0.0
 10
227.967765
 20
144.785643
 30
0.0
 10
228.017199
 20
145.040007
 30
0.0
 10
228.017190
 20
145.296771
 30
0.0
  0
SPLINE
  5
1bb
100
AcDbEntity
  8
Decoupe_1
 62
5
100
AcDbSpline
 70
8
 71
3
 72
8
 73
4
 74
0
 40
0
 40
0
 40
0
 40
0
 40
1
 40
1
 40
1
 40
1
 10
233.434690
 20
142.299921
 30
0.0
 10
233.819432
 20
143.252217
 30
0.0
 10
234.017199
 20
144.269691
 30
0.0
 10
234.017190
 20
145.296771
 30
0.0
  0
LWPOLYLINE
  5
1bc
100
AcDbEntity
  8
Decoupe_1
 62
5
100
AcDbPolyline
 90
2
 70
0
 10
227.871590
 20
144.547571
 30
0.0
 10
233.434690
 20
142.299921
 30
0.0
  0
LWPOLYLINE
  5
1bd
100
AcDbEntity
  8
Decoupe_1
 62
5
100
AcDbPolyline
 90
2
 70
0
 10
228.017190
 20
145.296771
 30
0.0
 10
234.017190
 20
145.296771
 30
0.0
  0
SPLINE
  5
1be
100
AcDbEntity
  8
Decoupe_1
 62
5
100
AcDbSpline
 70
8
 71
3
 72
8
 73
4
 74
0
 40
0
 40
0
 40
0
 40
0
 40
1
 40
1
 40
1
 40
1
 10
249.267980
 20
143.442371
 30
0.0
 10
249.506055
 20
143.346194
 30
0.0
 10
249.760422
 20
143.296761
 30
0.0
 10
250.017190
 20
143.296771
 30
0.0
  0
SPLINE
  5
1bf
100
AcDbEntity
  8
Decoupe_1
 62
5
100
AcDbSpline
 70
8
 71
3
 72
8
 73
4
 74
0
 40
0
 40
0
 40
0
 40
0
 40
1
 40
1
 40
1
 40
1
 10
247.020340
 20
137.879301
 30
0.0
 10
247.972634
 20
137.494549
 30
0.0
 10
248.990108
 20
137.296772
 30
0.0
 10
250.017190
 20
137.296771
 30
0.0
  0
LWPOLYLINE
  5
1c0
100
AcDbEntity
  8
Decoupe_1
 62
5
100
AcDbPolyline
 90
2
 70
0
 10
249.267980
 20
143.442371
 30
0.0
 10
247.020340
 20
137.879301
 30
0.0
  0
SPLINE
  5
1c1
100
AcDbEntity
  8
Decoupe_1
 62
5
100
AcDbSpline
 70
8
 71
3
 72
8
 73
4
 74
0
 40
0
 40
0
 40
0
 40
0
 40
1
 40
1
 40
1
 40
1
 10
248.176180
 20
144.515271
 30
0.0
 10
248.276515
 20
144.278930
 30
0.0
 10
248.421420
 20
144.064120
 30
0.0
 10
248.602980
 20
143.882571
 30
0.0
  0
LWPOLYLINE
  5
1c2
100
AcDbEntity
  8
Decoupe_1
 62
5
100
AcDbPolyline
 90
2
 70
0
 10
250.017190
 20
143.296771
 30
0.0
 10
250.017190
 20
137.296771
 30
0.0
  0
LWPOLYLINE
  5
1c3
100
AcDbEntity
  8
Decoupe_1
 62
5
100
AcDbPolyline
 90
2
 70
0
 10
248.176180
 20
144.515271
 30
0.0
 10
242.653150
 20
142.170921
 30
0.0
  0
SPLINE
  5
1c4
100
AcDbEntity
  8
Decoupe_1
 62
5
100
AcDbSpline
 70
8
 71
3
 72
8
 73
4
 74
0
 40
0
 40
0
 40
0
 40
0
 40
1
 40
1
 40
1
 40
1
 10
242.653150
 20
142.170921
 30
0.0
 10
243.054466
 20
141.225487
 30
0.0
 10
243.634081
 20
140.366176
 30
0.0
 10
244.360340
 20
139.639921
 30
0.0
  0
LWPOLYLINE
  5
1c5
100
AcDbEntity
  8
Decoupe_1
 62
5
100
AcDbPolyline
 90
2
 70
0
 10
248.602980
 20
143.882571
 30
0.0
 10
244.360340
 20
139.639921
 30
0.0
  0
SPLINE
  5
1c6
100
AcDbEntity
  8
Decoupe_1
 62
5
100
AcDbSpline
 70
8
 71
3
 72
8
 73
4
 74
0
 40
0
 40
0
 40
0
 40
0
 40
1
 40
1
 40
1
 40
1
 10
250.798650
 20
143.455771
 30
0.0
 10
251.035009
 20
143.556101
 30
0.0
 10
251.249836
 20
143.701005
 30
0.0
 10
251.431400
 20
143.882571
 30
0.0
  0
SPLINE
  5
1c7
100
AcDbEntity
  8
Decoupe_1
 62
5
100
AcDbSpline
 70
8
 71
3
 72
8
 73
4
 74
0
 40
0
 40
0
 40
0
 40
0
 40
1
 40
1
 40
1
 40
1
 10
253.143040
 20
137.932731
 30
0.0
 10
254.088474
 20
138.334047
 30
0.0
 10
254.947785
 20
138.913662
 30
0.0
 10
255.674040
 20
139.639921
 30
0.0
  0
LWPOLYLINE
  5
1c8
100
AcDbEntity
  8
Decoupe_1
 62
5
100
AcDbPolyline
 90
2
 70
0
 10
250.798650
 20
143.455771
 30
0.0
 10
253.143040
 20
137.932731
 30
0.0
  0
LWPOLYLINE
  5
1c9
100
AcDbEntity
  8
Decoupe_1
 62
5
100
AcDbPolyline
 90
2
 70
0
 10
251.431400
 20
143.882571
 30
0.0
 10
255.674040
 20
139.639921
 30
0.0
  0
SPLINE
  5
1ca
100
AcDbEntity
  8
Decoupe_1
 62
5
100
AcDbSpline
 70
8
 71
3
 72
8
 73
4
 74
0
 40
0
 40
0
 40
0
 40
0
 40
1
 40
1
 40
1
 40
1
 10
251.871560
 20
144.547571
 30
0.0
 10
251.967746
 20
144.785641
 30
0.0
 10
252.017189
 20
145.040005
 30
0.0
 10
252.017190
 20
145.296771
 30
0.0
  0
SPLINE
  5
1cb
100
AcDbEntity
  8
Decoupe_1
 62
5
100
AcDbSpline
 70
8
 71
3
 72
8
 73
4
 74
0
 40
0
 40
0
 40
0
 40
0
 40
1
 40
1
 40
1
 40
1
 10
257.434660
 20
142.299921
 30
0.0
 10
257.819412
 20
143.252215
 30
0.0
 10
258.017189
 20
144.269689
 30
0.0
 10
258.017190
 20
145.296771
 30
0.0
  0
LWPOLYLINE
  5
1cc
100
AcDbEntity
  8
Decoupe_1
 62
5
100
AcDbPolyline
 90
2
 70
0
 10
251.871560
 20
144.547571
 30
0.0
 10
257.434660
 20
142.299921
 30
0.0
  0
SPLINE
  5
1cd
100
AcDbEntity
  8
Decoupe_1
 62
5
100
AcDbSpline
 70
8
 71
3
 72
8
 73
4
 74
0
 40
0
 40
0
 40
0
 40
0
 40
1
 40
1
 40
1
 40
1
 10
250.766400
 20
119.442371
 30
0.0
 10
250.528325
 20
119.346194
 30
0.0
 10
250.273958
 20
119.296761
 30
0.0
 10
250.017190
 20
119.296771
 30
0.0
  0
LWPOLYLINE
  5
1ce
100
AcDbEntity
  8
Decoupe_1
 62
5
100
AcDbPolyline
 90
2
 70
0
 10
252.017190
 20
145.296771
 30
0.0
 10
258.017190
 20
145.296771
 30
0.0
  0
LWPOLYLINE
  5
1cf
100
AcDbEntity
  8
Decoupe_1
 62
5
100
AcDbPolyline
 90
2
 70
0
 10
253.014040
 20
113.879271
 30
0.0
 10
250.766400
 20
119.442371
 30
0.0
  0
SPLINE
  5
1d0
100
AcDbEntity
  8
Decoupe_1
 62
5
100
AcDbSpline
 70
8
 71
3
 72
8
 73
4
 74
0
 40
0
 40
0
 40
0
 40
0
 40
1
 40
1
 40
1
 40
1
 10
253.014040
 20
113.879271
 30
0.0
 10
252.061744
 20
113.494529
 30
0.0
 10
251.044270
 20
113.296762
 30
0.0
 10
250.017190
 20
113.296771
 30
0.0
  0
SPLINE
  5
1d1
100
AcDbEntity
  8
Decoupe_1
 62
5
100
AcDbSpline
 70
8
 71
3
 72
8
 73
4
 74
0
 40
0
 40
0
 40
0
 40
0
 40
1
 40
1
 40
1
 40
1
 10
251.858200
 20
120.515271
 30
0.0
 10
251.757865
 20
120.278930
 30
0.0
 10
251.612960
 20
120.064120
 30
0.0
 10
251.431400
 20
119.882571
 30
0.0
  0
LWPOLYLINE
  5
1d2
100
AcDbEntity
  8
Decoupe_1
 62
5
100
AcDbPolyline
 90
2
 70
0
 10
250.017190
 20
113.296771
 30
0.0
 10
250.017190
 20
119.296771
 30
0.0
  0
LWPOLYLINE
  5
1d3
100
AcDbEntity
  8
Decoupe_1
 62
5
100
AcDbPolyline
 90
2
 70
0
 10
251.858200
 20
120.515271
 30
0.0
 10
257.381230
 20
118.170971
 30
0.0
  0
SPLINE
  5
1d4
100
AcDbEntity
  8
Decoupe_1
 62
5
100
AcDbSpline
 70
8
 71
3
 72
8
 73
4
 74
0
 40
0
 40
0
 40
0
 40
0
 40
1
 40
1
 40
1
 40
1
 10
257.381230
 20
118.170971
 30
0.0
 10
256.979926
 20
117.225502
 30
0.0
 10
256.400309
 20
116.366156
 30
0.0
 10
255.674040
 20
115.639871
 30
0.0
  0
LWPOLYLINE
  5
1d5
100
AcDbEntity
  8
Decoupe_1
 62
5
100
AcDbPolyline
 90
2
 70
0
 10
251.431400
 20
119.882571
 30
0.0
 10
255.674040
 20
115.639871
 30
0.0
  0
SPLINE
  5
1d6
100
AcDbEntity
  8
Decoupe_1
 62
5
100
AcDbSpline
 70
8
 71
3
 72
8
 73
4
 74
0
 40
0
 40
0
 40
0
 40
0
 40
1
 40
1
 40
1
 40
1
 10
248.162820
 20
120.547571
 30
0.0
 10
248.066634
 20
120.785641
 30
0.0
 10
248.017191
 20
121.040005
 30
0.0
 10
248.017190
 20
121.296771
 30
0.0
  0
SPLINE
  5
1d7
100
AcDbEntity
  8
Decoupe_1
 62
5
100
AcDbSpline
 70
8
 71
3
 72
8
 73
4
 74
0
 40
0
 40
0
 40
0
 40
0
 40
1
 40
1
 40
1
 40
1
 10
242.599720
 20
118.299871
 30
0.0
 10
242.214962
 20
119.252181
 30
0.0
 10
242.017184
 20
120.269672
 30
0.0
 10
242.017190
 20
121.296771
 30
0.0
  0
LWPOLYLINE
  5
1d8
100
AcDbEntity
  8
Decoupe_1
 62
5
100
AcDbPolyline
 90
2
 70
0
 10
248.017190
 20
121.296771
 30
0.0
 10
242.017190
 20
121.296771
 30
0.0
  0
LWPOLYLINE
  5
1d9
100
AcDbEntity
  8
Decoupe_1
 62
5
100
AcDbPolyline
 90
2
 70
0
 10
248.162820
 20
120.547571
 30
0.0
 10
242.599720
 20
118.299871
 30
0.0
  0
SPLINE
  5
1da
100
AcDbEntity
  8
Decoupe_1
 62
5
100
AcDbSpline
 70
8
 71
3
 72
8
 73
4
 74
0
 40
0
 40
0
 40
0
 40
0
 40
1
 40
1
 40
1
 40
1
 10
249.235730
 20
119.455771
 30
0.0
 10
248.999371
 20
119.556101
 30
0.0
 10
248.784544
 20
119.701005
 30
0.0
 10
248.602980
 20
119.882571
 30
0.0
  0
SPLINE
  5
1db
100
AcDbEntity
  8
Decoupe_1
 62
5
100
AcDbSpline
 70
8
 71
3
 72
8
 73
4
 74
0
 40
0
 40
0
 40
0
 40
0
 40
1
 40
1
 40
1
 40
1
 10
246.891340
 20
113.932771
 30
0.0
 10
245.945914
 20
114.334060
 30
0.0
 10
245.086603
 20
114.913644
 30
0.0
 10
244.360340
 20
115.639871
 30
0.0
  0
LWPOLYLINE
  5
1dc
100
AcDbEntity
  8
Decoupe_1
 62
5
100
AcDbPolyline
 90
2
 70
0
 10
248.602980
 20
119.882571
 30
0.0
 10
244.360340
 20
115.639871
 30
0.0
  0
LWPOLYLINE
  5
1dd
100
AcDbEntity
  8
Decoupe_1
 62
5
100
AcDbPolyline
 90
2
 70
0
 10
249.235730
 20
119.455771
 30
0.0
 10
246.891340
 20
113.932771
 30
0.0
  0
SPLINE
  5
1de
100
AcDbEntity
  8
Decoupe_1
 62
5
100
AcDbSpline
 70
8
 71
3
 72
8
 73
4
 74
0
 40
0
 40
0
 40
0
 40
0
 40
1
 40
1
 40
1
 40
1
 10
225.235690
 20
119.455771
 30
0.0
 10
224.999349
 20
119.556106
 30
0.0
 10
224.784539
 20
119.701011
 30
0.0
 10
224.602990
 20
119.882571
 30
0.0
  0
SPLINE
  5
1df
100
AcDbEntity
  8
Decoupe_1
 62
5
100
AcDbSpline
 70
8
 71
3
 72
8
 73
4
 74
0
 40
0
 40
0
 40
0
 40
0
 40
1
 40
1
 40
1
 40
1
 10
222.891390
 20
113.932771
 30
0.0
 10
221.945928
 20
114.334049
 30
0.0
 10
221.086583
 20
114.913634
 30
0.0
 10
220.360290
 20
115.639871
 30
0.0
  0
LWPOLYLINE
  5
1e0
100
AcDbEntity
  8
Decoupe_1
 62
5
100
AcDbPolyline
 90
2
 70
0
 10
224.602990
 20
119.882571
 30
0.0
 10
220.360290
 20
115.639871
 30
0.0
  0
SPLINE
  5
1e1
100
AcDbEntity
  8
Decoupe_1
 62
5
100
AcDbSpline
 70
8
 71
3
 72
8
 73
4
 74
0
 40
0
 40
0
 40
0
 40
0
 40
1
 40
1
 40
1
 40
1
 10
224.162790
 20
120.547571
 30
0.0
 10
224.066615
 20
120.785643
 30
0.0
 10
224.017181
 20
121.040007
 30
0.0
 10
224.017190
 20
121.296771
 30
0.0
  0
LWPOLYLINE
  5
1e2
100
AcDbEntity
  8
Decoupe_1
 62
5
100
AcDbPolyline
 90
2
 70
0
 10
225.235690
 20
119.455771
 30
0.0
 10
222.891390
 20
113.932771
 30
0.0
  0
LWPOLYLINE
  5
1e3
100
AcDbEntity
  8
Decoupe_1
 62
5
100
AcDbPolyline
 90
2
 70
0
 10
224.162790
 20
120.547571
 30
0.0
 10
218.599690
 20
118.299871
 30
0.0
  0
SPLINE
  5
1e4
100
AcDbEntity
  8
Decoupe_1
 62
5
100
AcDbSpline
 70
8
 71
3
 72
8
 73
4
 74
0
 40
0
 40
0
 40
0
 40
0
 40
1
 40
1
 40
1
 40
1
 10
218.599690
 20
118.299871
 30
0.0
 10
218.214942
 20
119.252183
 30
0.0
 10
218.017175
 20
120.269674
 30
0.0
 10
218.017190
 20
121.296771
 30
0.0
  0
LWPOLYLINE
  5
1e5
100
AcDbEntity
  8
Decoupe_1
 62
5
100
AcDbPolyline
 90
2
 70
0
 10
224.017190
 20
121.296771
 30
0.0
 10
218.017190
 20
121.296771
 30
0.0
  0
SPLINE
  5
1e6
100
AcDbEntity
  8
Decoupe_1
 62
5
100
AcDbSpline
 70
8
 71
3
 72
8
 73
4
 74
0
 40
0
 40
0
 40
0
 40
0
 40
1
 40
1
 40
1
 40
1
 10
229.014090
 20
113.879271
 30
0.0
 10
228.061778
 20
113.494523
 30
0.0
 10
227.044287
 20
113.296756
 30
0.0
 10
226.017190
 20
113.296771
 30
0.0
  0
SPLINE
  5
1e7
100
AcDbEntity
  8
Decoupe_1
 62
5
100
AcDbSpline
 70
8
 71
3
 72
8
 73
4
 74
0
 40
0
 40
0
 40
0
 40
0
 40
1
 40
1
 40
1
 40
1
 10
226.766390
 20
119.442371
 30
0.0
 10
226.528318
 20
119.346196
 30
0.0
 10
226.273954
 20
119.296762
 30
0.0
 10
226.017190
 20
119.296771
 30
0.0
  0
LWPOLYLINE
  5
1e8
100
AcDbEntity
  8
Decoupe_1
 62
5
100
AcDbPolyline
 90
2
 70
0
 10
229.014090
 20
113.879271
 30
0.0
 10
226.766390
 20
119.442371
 30
0.0
  0
LWPOLYLINE
  5
1e9
100
AcDbEntity
  8
Decoupe_1
 62
5
100
AcDbPolyline
 90
2
 70
0
 10
226.017190
 20
113.296771
 30
0.0
 10
226.017190
 20
119.296771
 30
0.0
  0
SPLINE
  5
1ea
100
AcDbEntity
  8
Decoupe_1
 62
5
100
AcDbSpline
 70
8
 71
3
 72
8
 73
4
 74
0
 40
0
 40
0
 40
0
 40
0
 40
1
 40
1
 40
1
 40
1
 10
227.858190
 20
120.515271
 30
0.0
 10
227.757855
 20
120.278930
 30
0.0
 10
227.612950
 20
120.064120
 30
0.0
 10
227.431390
 20
119.882571
 30
0.0
  0
SPLINE
  5
1eb
100
AcDbEntity
  8
Decoupe_1
 62
5
100
AcDbSpline
 70
8
 71
3
 72
8
 73
4
 74
0
 40
0
 40
0
 40
0
 40
0
 40
1
 40
1
 40
1
 40
1
 10
233.381190
 20
118.170971
 30
0.0
 10
232.979912
 20
117.225509
 30
0.0
 10
232.400327
 20
116.366164
 30
0.0
 10
231.674090
 20
115.639871
 30
0.0
  0
LWPOLYLINE
  5
1ec
100
AcDbEntity
  8
Decoupe_1
 62
5
100
AcDbPolyline
 90
2
 70
0
 10
227.858190
 20
120.515271
 30
0.0
 10
233.381190
 20
118.170971
 30
0.0
  0
LWPOLYLINE
  5
1ed
100
AcDbEntity
  8
Decoupe_1
 62
5
100
AcDbPolyline
 90
2
 70
0
 10
227.431390
 20
119.882571
 30
0.0
 10
231.674090
 20
115.639871
 30
0.0
  0
SPLINE
  5
1ee
100
AcDbEntity
  8
Decoupe_1
 62
5
100
AcDbSpline
 70
8
 71
3
 72
8
 73
4
 74
0
 40
0
 40
0
 40
0
 40
0
 40
1
 40
1
 40
1
 40
1
 10
274.798690
 20
123.137771
 30
0.0
 10
275.035031
 20
123.037436
 30
0.0
 10
275.249841
 20
122.892531
 30
0.0
 10
275.431390
 20
122.710971
 30
0.0
  0
SPLINE
  5
1ef
100
AcDbEntity
  8
Decoupe_1
 62
5
100
AcDbSpline
 70
8
 71
3
 72
8
 73
4
 74
0
 40
0
 40
0
 40
0
 40
0
 40
1
 40
1
 40
1
 40
1
 10
277.142990
 20
128.660811
 30
0.0
 10
278.088459
 20
128.259507
 30
0.0
 10
278.947805
 20
127.679890
 30
0.0
 10
279.674090
 20
126.953621
 30
0.0
  0
LWPOLYLINE
  5
1f0
100
AcDbEntity
  8
Decoupe_1
 62
5
100
AcDbPolyline
 90
2
 70
0
 10
274.798690
 20
123.137771
 30
0.0
 10
277.142990
 20
128.660811
 30
0.0
  0
LWPOLYLINE
  5
1f1
100
AcDbEntity
  8
Decoupe_1
 62
5
100
AcDbPolyline
 90
2
 70
0
 10
275.431390
 20
122.710971
 30
0.0
 10
279.674090
 20
126.953621
 30
0.0
  0
SPLINE
  5
1f2
100
AcDbEntity
  8
Decoupe_1
 62
5
100
AcDbSpline
 70
8
 71
3
 72
8
 73
4
 74
0
 40
0
 40
0
 40
0
 40
0
 40
1
 40
1
 40
1
 40
1
 10
275.871590
 20
122.045971
 30
0.0
 10
275.967765
 20
121.807899
 30
0.0
 10
276.017199
 20
121.553535
 30
0.0
 10
276.017190
 20
121.296771
 30
0.0
  0
SPLINE
  5
1f3
100
AcDbEntity
  8
Decoupe_1
 62
5
100
AcDbSpline
 70
8
 71
3
 72
8
 73
4
 74
0
 40
0
 40
0
 40
0
 40
0
 40
1
 40
1
 40
1
 40
1
 10
281.434690
 20
124.293621
 30
0.0
 10
281.819432
 20
123.341325
 30
0.0
 10
282.017199
 20
122.323851
 30
0.0
 10
282.017190
 20
121.296771
 30
0.0
  0
LWPOLYLINE
  5
1f4
100
AcDbEntity
  8
Decoupe_1
 62
5
100
AcDbPolyline
 90
2
 70
0
 10
275.871590
 20
122.045971
 30
0.0
 10
281.434690
 20
124.293621
 30
0.0
  0
SPLINE
  5
1f5
100
AcDbEntity
  8
Decoupe_1
 62
5
100
AcDbSpline
 70
8
 71
3
 72
8
 73
4
 74
0
 40
0
 40
0
 40
0
 40
0
 40
1
 40
1
 40
1
 40
1
 10
272.176190
 20
122.078271
 30
0.0
 10
272.276525
 20
122.314612
 30
0.0
 10
272.421430
 20
122.529422
 30
0.0
 10
272.602990
 20
122.710971
 30
0.0
  0
LWPOLYLINE
  5
1f6
100
AcDbEntity
  8
Decoupe_1
 62
5
100
AcDbPolyline
 90
2
 70
0
 10
276.017190
 20
121.296771
 30
0.0
 10
282.017190
 20
121.296771
 30
0.0
  0
LWPOLYLINE
  5
1f7
100
AcDbEntity
  8
Decoupe_1
 62
5
100
AcDbPolyline
 90
2
 70
0
 10
272.176190
 20
122.078271
 30
0.0
 10
266.653190
 20
124.422621
 30
0.0
  0
SPLINE
  5
1f8
100
AcDbEntity
  8
Decoupe_1
 62
5
100
AcDbSpline
 70
8
 71
3
 72
8
 73
4
 74
0
 40
0
 40
0
 40
0
 40
0
 40
1
 40
1
 40
1
 40
1
 10
266.653190
 20
124.422621
 30
0.0
 10
267.054479
 20
125.368047
 30
0.0
 10
267.634063
 20
126.227358
 30
0.0
 10
268.360290
 20
126.953621
 30
0.0
  0
SPLINE
  5
1f9
100
AcDbEntity
  8
Decoupe_1
 62
5
100
AcDbSpline
 70
8
 71
3
 72
8
 73
4
 74
0
 40
0
 40
0
 40
0
 40
0
 40
1
 40
1
 40
1
 40
1
 10
273.267990
 20
123.151171
 30
0.0
 10
273.506062
 20
123.247346
 30
0.0
 10
273.760426
 20
123.296780
 30
0.0
 10
274.017190
 20
123.296771
 30
0.0
  0
LWPOLYLINE
  5
1fa
100
AcDbEntity
  8
Decoupe_1
 62
5
100
AcDbPolyline
 90
2
 70
0
 10
272.602990
 20
122.710971
 30
0.0
 10
268.360290
 20
126.953621
 30
0.0
  0
LWPOLYLINE
  5
1fb
100
AcDbEntity
  8
Decoupe_1
 62
5
100
AcDbPolyline
 90
2
 70
0
 10
273.267990
 20
123.151171
 30
0.0
 10
271.020290
 20
128.714241
 30
0.0
  0
SPLINE
  5
1fc
100
AcDbEntity
  8
Decoupe_1
 62
5
100
AcDbSpline
 70
8
 71
3
 72
8
 73
4
 74
0
 40
0
 40
0
 40
0
 40
0
 40
1
 40
1
 40
1
 40
1
 10
271.020290
 20
128.714241
 30
0.0
 10
271.972600
 20
129.098999
 30
0.0
 10
272.990091
 20
129.296777
 30
0.0
 10
274.017190
 20
129.296771
 30
0.0
  0
SPLINE
  5
1fd
100
AcDbEntity
  8
Decoupe_1
 62
5
100
AcDbSpline
 70
8
 71
3
 72
8
 73
4
 74
0
 40
0
 40
0
 40
0
 40
0
 40
1
 40
1
 40
1
 40
1
 10
274.766390
 20
147.151171
 30
0.0
 10
274.528318
 20
147.247346
 30
0.0
 10
274.273954
 20
147.296780
 30
0.0
 10
274.017190
 20
147.296771
 30
0.0
  0
LWPOLYLINE
  5
1fe
100
AcDbEntity
  8
Decoupe_1
 62
5
100
AcDbPolyline
 90
2
 70
0
 10
274.017190
 20
123.296771
 30
0.0
 10
274.017190
 20
129.296771
 30
0.0
  0
SPLINE
  5
1ff
100
AcDbEntity
  8
Decoupe_1
 62
5
100
AcDbSpline
 70
8
 71
3
 72
8
 73
4
 74
0
 40
0
 40
0
 40
0
 40
0
 40
1
 40
1
 40
1
 40
1
 10
275.858190
 20
146.078271
 30
0.0
 10
275.757855
 20
146.314612
 30
0.0
 10
275.612950
 20
146.529422
 30
0.0
 10
275.431390
 20
146.710971
 30
0.0
  0
SPLINE
  5
200
100
AcDbEntity
  8
Decoupe_1
 62
5
100
AcDbSpline
 70
8
 71
3
 72
8
 73
4
 74
0
 40
0
 40
0
 40
0
 40
0
 40
1
 40
1
 40
1
 40
1
 10
281.381190
 20
148.422571
 30
0.0
 10
280.979912
 20
149.368033
 30
0.0
 10
280.400327
 20
150.227378
 30
0.0
 10
279.674090
 20
150.953671
 30
0.0
  0
LWPOLYLINE
  5
201
100
AcDbEntity
  8
Decoupe_1
 62
5
100
AcDbPolyline
 90
2
 70
0
 10
275.858190
 20
146.078271
 30
0.0
 10
281.381190
 20
148.422571
 30
0.0
  0
LWPOLYLINE
  5
202
100
AcDbEntity
  8
Decoupe_1
 62
5
100
AcDbPolyline
 90
2
 70
0
 10
275.431390
 20
146.710971
 30
0.0
 10
279.674090
 20
150.953671
 30
0.0
  0
SPLINE
  5
203
100
AcDbEntity
  8
Decoupe_1
 62
5
100
AcDbSpline
 70
8
 71
3
 72
8
 73
4
 74
0
 40
0
 40
0
 40
0
 40
0
 40
1
 40
1
 40
1
 40
1
 10
275.871590
 20
144.547571
 30
0.0
 10
275.967765
 20
144.785643
 30
0.0
 10
276.017199
 20
145.040007
 30
0.0
 10
276.017190
 20
145.296771
 30
0.0
  0
SPLINE
  5
204
100
AcDbEntity
  8
Decoupe_1
 62
5
100
AcDbSpline
 70
8
 71
3
 72
8
 73
4
 74
0
 40
0
 40
0
 40
0
 40
0
 40
1
 40
1
 40
1
 40
1
 10
281.434690
 20
142.299921
 30
0.0
 10
281.819432
 20
143.252217
 30
0.0
 10
282.017199
 20
144.269691
 30
0.0
 10
282.017190
 20
145.296771
 30
0.0
  0
LWPOLYLINE
  5
205
100
AcDbEntity
  8
Decoupe_1
 62
5
100
AcDbPolyline
 90
2
 70
0
 10
275.871590
 20
144.547571
 30
0.0
 10
281.434690
 20
142.299921
 30
0.0
  0
SPLINE
  5
206
100
AcDbEntity
  8
Decoupe_1
 62
5
100
AcDbSpline
 70
8
 71
3
 72
8
 73
4
 74
0
 40
0
 40
0
 40
0
 40
0
 40
1
 40
1
 40
1
 40
1
 10
274.798690
 20
143.455771
 30
0.0
 10
275.035031
 20
143.556106
 30
0.0
 10
275.249841
 20
143.701011
 30
0.0
 10
275.431390
 20
143.882571
 30
0.0
  0
LWPOLYLINE
  5
207
100
AcDbEntity
  8
Decoupe_1
 62
5
100
AcDbPolyline
 90
2
 70
0
 10
276.017190
 20
145.296771
 30
0.0
 10
282.017190
 20
145.296771
 30
0.0
  0
LWPOLYLINE
  5
208
100
AcDbEntity
  8
Decoupe_1
 62
5
100
AcDbPolyline
 90
2
 70
0
 10
274.798690
 20
143.455771
 30
0.0
 10
277.142990
 20
137.932731
 30
0.0
  0
SPLINE
  5
209
100
AcDbEntity
  8
Decoupe_1
 62
5
100
AcDbSpline
 70
8
 71
3
 72
8
 73
4
 74
0
 40
0
 40
0
 40
0
 40
0
 40
1
 40
1
 40
1
 40
1
 10
277.142990
 20
137.932731
 30
0.0
 10
278.088459
 20
138.334035
 30
0.0
 10
278.947805
 20
138.913652
 30
0.0
 10
279.674090
 20
139.639921
 30
0.0
  0
LWPOLYLINE
  5
20a
100
AcDbEntity
  8
Decoupe_1
 62
5
100
AcDbPolyline
 90
2
 70
0
 10
275.431390
 20
143.882571
 30
0.0
 10
279.674090
 20
139.639921
 30
0.0
  0
SPLINE
  5
20b
100
AcDbEntity
  8
Decoupe_1
 62
5
100
AcDbSpline
 70
8
 71
3
 72
8
 73
4
 74
0
 40
0
 40
0
 40
0
 40
0
 40
1
 40
1
 40
1
 40
1
 10
272.176190
 20
144.515271
 30
0.0
 10
272.276525
 20
144.278930
 30
0.0
 10
272.421430
 20
144.064120
 30
0.0
 10
272.602990
 20
143.882571
 30
0.0
  0
SPLINE
  5
20c
100
AcDbEntity
  8
Decoupe_1
 62
5
100
AcDbSpline
 70
8
 71
3
 72
8
 73
4
 74
0
 40
0
 40
0
 40
0
 40
0
 40
1
 40
1
 40
1
 40
1
 10
266.653190
 20
142.170921
 30
0.0
 10
267.054479
 20
141.225495
 30
0.0
 10
267.634063
 20
140.366184
 30
0.0
 10
268.360290
 20
139.639921
 30
0.0
  0
LWPOLYLINE
  5
20d
100
AcDbEntity
  8
Decoupe_1
 62
5
100
AcDbPolyline
 90
2
 70
0
 10
272.176190
 20
144.515271
 30
0.0
 10
266.653190
 20
142.170921
 30
0.0
  0
LWPOLYLINE
  5
20e
100
AcDbEntity
  8
Decoupe_1
 62
5
100
AcDbPolyline
 90
2
 70
0
 10
272.602990
 20
143.882571
 30
0.0
 10
268.360290
 20
139.639921
 30
0.0
  0
SPLINE
  5
20f
100
AcDbEntity
  8
Decoupe_1
 62
5
100
AcDbSpline
 70
8
 71
3
 72
8
 73
4
 74
0
 40
0
 40
0
 40
0
 40
0
 40
1
 40
1
 40
1
 40
1
 10
273.267990
 20
143.442371
 30
0.0
 10
273.506062
 20
143.346196
 30
0.0
 10
273.760426
 20
143.296762
 30
0.0
 10
274.017190
 20
143.296771
 30
0.0
  0
SPLINE
  5
210
100
AcDbEntity
  8
Decoupe_1
 62
5
100
AcDbSpline
 70
8
 71
3
 72
8
 73
4
 74
0
 40
0
 40
0
 40
0
 40
0
 40
1
 40
1
 40
1
 40
1
 10
271.020290
 20
137.879301
 30
0.0
 10
271.972600
 20
137.494543
 30
0.0
 10
272.990091
 20
137.296765
 30
0.0
 10
274.017190
 20
137.296771
 30
0.0
  0
LWPOLYLINE
  5
211
100
AcDbEntity
  8
Decoupe_1
 62
5
100
AcDbPolyline
 90
2
 70
0
 10
273.267990
 20
143.442371
 30
0.0
 10
271.020290
 20
137.879301
 30
0.0
  0
SPLINE
  5
212
100
AcDbEntity
  8
Decoupe_1
 62
5
100
AcDbSpline
 70
8
 71
3
 72
8
 73
4
 74
0
 40
0
 40
0
 40
0
 40
0
 40
1
 40
1
 40
1
 40
1
 10
266.599690
 20
148.293671
 30
0.0
 10
266.214942
 20
147.341359
 30
0.0
 10
266.017175
 20
146.323868
 30
0.0
 10
266.017190
 20
145.296771
 30
0.0
  0
LWPOLYLINE
  5
213
100
AcDbEntity
  8
Decoupe_1
 62
5
100
AcDbPolyline
 90
2
 70
0
 10
274.017190
 20
143.296771
 30
0.0
 10
274.017190
 20
137.296771
 30
0.0
  0
LWPOLYLINE
  5
214
100
AcDbEntity
  8
Decoupe_1
 62
5
100
AcDbPolyline
 90
2
 70
0
 10
272.162790
 20
146.045971
 30
0.0
 10
266.599690
 20
148.293671
 30
0.0
  0
SPLINE
  5
215
100
AcDbEntity
  8
Decoupe_1
 62
5
100
AcDbSpline
 70
8
 71
3
 72
8
 73
4
 74
0
 40
0
 40
0
 40
0
 40
0
 40
1
 40
1
 40
1
 40
1
 10
272.162790
 20
146.045971
 30
0.0
 10
272.066615
 20
145.807899
 30
0.0
 10
272.017181
 20
145.553535
 30
0.0
 10
272.017190
 20
145.296771
 30
0.0
  0
LWPOLYLINE
  5
216
100
AcDbEntity
  8
Decoupe_1
 62
5
100
AcDbPolyline
 90
2
 70
0
 10
272.017190
 20
145.296771
 30
0.0
 10
266.017190
 20
145.296771
 30
0.0
  0
SPLINE
  5
217
100
AcDbEntity
  8
Decoupe_1
 62
5
100
AcDbSpline
 70
8
 71
3
 72
8
 73
4
 74
0
 40
0
 40
0
 40
0
 40
0
 40
1
 40
1
 40
1
 40
1
 10
273.235690
 20
147.137771
 30
0.0
 10
272.999349
 20
147.037436
 30
0.0
 10
272.784539
 20
146.892531
 30
0.0
 10
272.602990
 20
146.710971
 30
0.0
  0
LWPOLYLINE
  5
218
100
AcDbEntity
  8
Decoupe_1
 62
5
100
AcDbPolyline
 90
2
 70
0
 10
272.602990
 20
146.710971
 30
0.0
 10
268.360290
 20
150.953671
 30
0.0
  0
SPLINE
  5
219
100
AcDbEntity
  8
Decoupe_1
 62
5
100
AcDbSpline
 70
8
 71
3
 72
8
 73
4
 74
0
 40
0
 40
0
 40
0
 40
0
 40
1
 40
1
 40
1
 40
1
 10
272.162790
 20
120.547571
 30
0.0
 10
272.066615
 20
120.785643
 30
0.0
 10
272.017181
 20
121.040007
 30
0.0
 10
272.017190
 20
121.296771
 30
0.0
  0
SPLINE
  5
21a
100
AcDbEntity
  8
Decoupe_1
 62
5
100
AcDbSpline
 70
8
 71
3
 72
8
 73
4
 74
0
 40
0
 40
0
 40
0
 40
0
 40
1
 40
1
 40
1
 40
1
 10
266.599690
 20
118.299871
 30
0.0
 10
266.214942
 20
119.252183
 30
0.0
 10
266.017175
 20
120.269674
 30
0.0
 10
266.017190
 20
121.296771
 30
0.0
  0
LWPOLYLINE
  5
21b
100
AcDbEntity
  8
Decoupe_1
 62
5
100
AcDbPolyline
 90
2
 70
0
 10
272.162790
 20
120.547571
 30
0.0
 10
266.599690
 20
118.299871
 30
0.0
  0
SPLINE
  5
21c
100
AcDbEntity
  8
Decoupe_1
 62
5
100
AcDbSpline
 70
8
 71
3
 72
8
 73
4
 74
0
 40
0
 40
0
 40
0
 40
0
 40
1
 40
1
 40
1
 40
1
 10
273.235690
 20
119.455771
 30
0.0
 10
272.999349
 20
119.556106
 30
0.0
 10
272.784539
 20
119.701011
 30
0.0
 10
272.602990
 20
119.882571
 30
0.0
  0
LWPOLYLINE
  5
21d
100
AcDbEntity
  8
Decoupe_1
 62
5
100
AcDbPolyline
 90
2
 70
0
 10
272.017190
 20
121.296771
 30
0.0
 10
266.017190
 20
121.296771
 30
0.0
  0
LWPOLYLINE
  5
21e
100
AcDbEntity
  8
Decoupe_1
 62
5
100
AcDbPolyline
 90
2
 70
0
 10
273.235690
 20
119.455771
 30
0.0
 10
270.891390
 20
113.932771
 30
0.0
  0
SPLINE
  5
21f
100
AcDbEntity
  8
Decoupe_1
 62
5
100
AcDbSpline
 70
8
 71
3
 72
8
 73
4
 74
0
 40
0
 40
0
 40
0
 40
0
 40
1
 40
1
 40
1
 40
1
 10
270.891390
 20
113.932771
 30
0.0
 10
269.945928
 20
114.334049
 30
0.0
 10
269.086583
 20
114.913634
 30
0.0
 10
268.360290
 20
115.639871
 30
0.0
  0
LWPOLYLINE
  5
220
100
AcDbEntity
  8
Decoupe_1
 62
5
100
AcDbPolyline
 90
2
 70
0
 10
272.602990
 20
119.882571
 30
0.0
 10
268.360290
 20
115.639871
 30
0.0
  0
SPLINE
  5
221
100
AcDbEntity
  8
Decoupe_1
 62
5
100
AcDbSpline
 70
8
 71
3
 72
8
 73
4
 74
0
 40
0
 40
0
 40
0
 40
0
 40
1
 40
1
 40
1
 40
1
 10
275.858190
 20
120.515271
 30
0.0
 10
275.757855
 20
120.278930
 30
0.0
 10
275.612950
 20
120.064120
 30
0.0
 10
275.431390
 20
119.882571
 30
0.0
  0
SPLINE
  5
222
100
AcDbEntity
  8
Decoupe_1
 62
5
100
AcDbSpline
 70
8
 71
3
 72
8
 73
4
 74
0
 40
0
 40
0
 40
0
 40
0
 40
1
 40
1
 40
1
 40
1
 10
281.381190
 20
118.170971
 30
0.0
 10
280.979912
 20
117.225509
 30
0.0
 10
280.400327
 20
116.366164
 30
0.0
 10
279.674090
 20
115.639871
 30
0.0
  0
LWPOLYLINE
  5
223
100
AcDbEntity
  8
Decoupe_1
 62
5
100
AcDbPolyline
 90
2
 70
0
 10
275.431390
 20
119.882571
 30
0.0
 10
279.674090
 20
115.639871
 30
0.0
  0
SPLINE
  5
224
100
AcDbEntity
  8
Decoupe_1
 62
5
100
AcDbSpline
 70
8
 71
3
 72
8
 73
4
 74
0
 40
0
 40
0
 40
0
 40
0
 40
1
 40
1
 40
1
 40
1
 10
277.014090
 20
113.879271
 30
0.0
 10
276.061778
 20
113.494523
 30
0.0
 10
275.044287
 20
113.296756
 30
0.0
 10
274.017190
 20
113.296771
 30
0.0
  0
LWPOLYLINE
  5
225
100
AcDbEntity
  8
Decoupe_1
 62
5
100
AcDbPolyline
 90
2
 70
0
 10
275.858190
 20
120.515271
 30
0.0
 10
281.381190
 20
118.170971
 30
0.0
  0
LWPOLYLINE
  5
226
100
AcDbEntity
  8
Decoupe_1
 62
5
100
AcDbPolyline
 90
2
 70
0
 10
277.014090
 20
113.879271
 30
0.0
 10
274.766390
 20
119.442371
 30
0.0
  0
SPLINE
  5
227
100
AcDbEntity
  8
Decoupe_1
 62
5
100
AcDbSpline
 70
8
 71
3
 72
8
 73
4
 74
0
 40
0
 40
0
 40
0
 40
0
 40
1
 40
1
 40
1
 40
1
 10
274.766390
 20
119.442371
 30
0.0
 10
274.528318
 20
119.346196
 30
0.0
 10
274.273954
 20
119.296762
 30
0.0
 10
274.017190
 20
119.296771
 30
0.0
  0
SPLINE
  5
228
100
AcDbEntity
  8
Decoupe_1
 62
5
100
AcDbSpline
 70
8
 71
3
 72
8
 73
4
 74
0
 40
0
 40
0
 40
0
 40
0
 40
1
 40
1
 40
1
 40
1
 10
253.014040
 20
152.714271
 30
0.0
 10
252.061744
 20
153.099013
 30
0.0
 10
251.044270
 20
153.296780
 30
0.0
 10
250.017190
 20
153.296771
 30
0.0
  0
LWPOLYLINE
  5
229
100
AcDbEntity
  8
Decoupe_1
 62
5
100
AcDbPolyline
 90
2
 70
0
 10
274.017190
 20
113.296771
 30
0.0
 10
274.017190
 20
119.296771
 30
0.0
  0
LWPOLYLINE
  5
22a
100
AcDbEntity
  8
Decoupe_1
 62
5
100
AcDbPolyline
 90
2
 70
0
 10
253.014040
 20
152.714271
 30
0.0
 10
250.766400
 20
147.151171
 30
0.0
  0
SPLINE
  5
22b
100
AcDbEntity
  8
Decoupe_1
 62
5
100
AcDbSpline
 70
8
 71
3
 72
8
 73
4
 74
0
 40
0
 40
0
 40
0
 40
0
 40
1
 40
1
 40
1
 40
1
 10
246.891340
 20
152.660771
 30
0.0
 10
245.945914
 20
152.259482
 30
0.0
 10
245.086603
 20
151.679898
 30
0.0
 10
244.360340
 20
150.953671
 30
0.0
  0
LWPOLYLINE
  5
22c
100
AcDbEntity
  8
Decoupe_1
 62
5
100
AcDbPolyline
 90
2
 70
0
 10
250.017190
 20
153.296771
 30
0.0
 10
250.017190
 20
147.296771
 30
0.0
  0
LWPOLYLINE
  5
22d
100
AcDbEntity
  8
Decoupe_1
 62
5
100
AcDbPolyline
 90
2
 70
0
 10
249.235730
 20
147.137771
 30
0.0
 10
246.891340
 20
152.660771
 30
0.0
  0
SPLINE
  5
22e
100
AcDbEntity
  8
Decoupe_1
 62
5
100
AcDbSpline
 70
8
 71
3
 72
8
 73
4
 74
0
 40
0
 40
0
 40
0
 40
0
 40
1
 40
1
 40
1
 40
1
 10
222.891390
 20
152.660771
 30
0.0
 10
221.945928
 20
152.259493
 30
0.0
 10
221.086583
 20
151.679908
 30
0.0
 10
220.360290
 20
150.953671
 30
0.0
  0
LWPOLYLINE
  5
22f
100
AcDbEntity
  8
Decoupe_1
 62
5
100
AcDbPolyline
 90
2
 70
0
 10
225.235690
 20
147.137771
 30
0.0
 10
222.891390
 20
152.660771
 30
0.0
  0
SPLINE
  5
230
100
AcDbEntity
  8
Decoupe_1
 62
5
100
AcDbSpline
 70
8
 71
3
 72
8
 73
4
 74
0
 40
0
 40
0
 40
0
 40
0
 40
1
 40
1
 40
1
 40
1
 10
229.014090
 20
152.714271
 30
0.0
 10
228.061778
 20
153.099019
 30
0.0
 10
227.044287
 20
153.296786
 30
0.0
 10
226.017190
 20
153.296771
 30
0.0
  0
LWPOLYLINE
  5
231
100
AcDbEntity
  8
Decoupe_1
 62
5
100
AcDbPolyline
 90
2
 70
0
 10
226.017190
 20
153.296771
 30
0.0
 10
226.017190
 20
147.296771
 30
0.0
  0
SPLINE
  5
232
100
AcDbEntity
  8
Decoupe_1
 62
5
100
AcDbSpline
 70
8
 71
3
 72
8
 73
4
 74
0
 40
0
 40
0
 40
0
 40
0
 40
1
 40
1
 40
1
 40
1
 10
277.014090
 20
152.714271
 30
0.0
 10
276.061778
 20
153.099019
 30
0.0
 10
275.044287
 20
153.296786
 30
0.0
 10
274.017190
 20
153.296771
 30
0.0
  0
LWPOLYLINE
  5
233
100
AcDbEntity
  8
Decoupe_1
 62
5
100
AcDbPolyline
 90
2
 70
0
 10
229.014090
 20
152.714271
 30
0.0
 10
226.766390
 20
147.151171
 30
0.0
  0
LWPOLYLINE
  5
234
100
AcDbEntity
  8
Decoupe_1
 62
5
100
AcDbPolyline
 90
2
 70
0
 10
277.014090
 20
152.714271
 30
0.0
 10
274.766390
 20
147.151171
 30
0.0
  0
SPLINE
  5
235
100
AcDbEntity
  8
Decoupe_1
 62
5
100
AcDbSpline
 70
8
 71
3
 72
8
 73
4
 74
0
 40
0
 40
0
 40
0
 40
0
 40
1
 40
1
 40
1
 40
1
 10
270.891390
 20
152.660771
 30
0.0
 10
269.945928
 20
152.259493
 30
0.0
 10
269.086583
 20
151.679908
 30
0.0
 10
268.360290
 20
150.953671
 30
0.0
  0
LWPOLYLINE
  5
236
100
AcDbEntity
  8
Decoupe_1
 62
5
100
AcDbPolyline
 90
2
 70
0
 10
274.017190
 20
153.296771
 30
0.0
 10
274.017190
 20
147.296771
 30
0.0
  0
LWPOLYLINE
  5
237
100
AcDbEntity
  8
Decoupe_1
 62
5
100
AcDbPolyline
 90
2
 70
0
 10
273.235690
 20
147.137771
 30
0.0
 10
270.891390
 20
152.660771
 30
0.0
  0
LWPOLYLINE
  5
238
100
AcDbEntity
  8
Decoupe_2
 62
6
100
AcDbPolyline
 90
2
 70
0
 10
213.017190
 20
204.000000
 30
0.0
 10
287.017190
 20
204.000000
 30
0.0
  0
LWPOLYLINE
  5
239
100
AcDbEntity
  8
Decoupe_2
 62
6
100
AcDbPolyline
 90
2
 70
0
 10
213.017190
 20
204.000000
 30
0.0
 10
213.017190
 20
197.000000
 30
0.0
  0
LWPOLYLINE
  5
23a
100
AcDbEntity
  8
Decoupe_2
 62
6
100
AcDbPolyline
 90
2
 70
0
 10
287.017190
 20
197.000000
 30
0.0
 10
287.017190
 20
204.000000
 30
0.0
  0
LWPOLYLINE
  5
23b
100
AcDbEntity
  8
Decoupe_2
 62
6
100
AcDbPolyline
 90
2
 70
0
 10
213.017190
 20
197.000000
 30
0.0
 10
210.017190
 20
197.000000
 30
0.0
  0
LWPOLYLINE
  5
23c
100
AcDbEntity
  8
Decoupe_2
 62
6
100
AcDbPolyline
 90
2
 70
0
 10
290.017190
 20
197.000000
 30
0.0
 10
287.017190
 20
197.000000
 30
0.0
  0
LWPOLYLINE
  5
23d
100
AcDbEntity
  8
Decoupe_2
 62
6
100
AcDbPolyline
 90
2
 70
0
 10
210.017190
 20
188.000000
 30
0.0
 10
210.017190
 20
197.000000
 30
0.0
  0
LWPOLYLINE
  5
23e
100
AcDbEntity
  8
Decoupe_2
 62
6
100
AcDbPolyline
 90
2
 70
0
 10
290.017190
 20
197.000000
 30
0.0
 10
290.017190
 20
188.000000
 30
0.0
  0
LWPOLYLINE
  5
23f
100
AcDbEntity
  8
Decoupe_2
 62
6
100
AcDbPolyline
 90
2
 70
0
 10
210.017190
 20
188.000000
 30
0.0
 10
213.017190
 20
188.000000
 30
0.0
  0
LWPOLYLINE
  5
240
100
AcDbEntity
  8
Decoupe_2
 62
6
100
AcDbPolyline
 90
2
 70
0
 10
287.017190
 20
188.000000
 30
0.0
 10
290.017190
 20
188.000000
 30
0.0
  0
LWPOLYLINE
  5
241
100
AcDbEntity
  8
Decoupe_2
 62
6
100
AcDbPolyline
 90
2
 70
0
 10
213.017190
 20
188.000000
 30
0.0
 10
213.017190
 20
172.000000
 30
0.0
  0
LWPOLYLINE
  5
242
100
AcDbEntity
  8
Decoupe_2
 62
6
100
AcDbPolyline
 90
2
 70
0
 10
287.017190
 20
172.000000
 30
0.0
 10
287.017190
 20
188.000000
 30
0.0
  0
LWPOLYLINE
  5
243
100
AcDbEntity
  8
Decoupe_2
 62
6
100
AcDbPolyline
 90
2
 70
0
 10
213.017190
 20
172.000000
 30
0.0
 10
210.017190
 20
172.000000
 30
0.0
  0
LWPOLYLINE
  5
244
100
AcDbEntity
  8
Decoupe_2
 62
6
100
AcDbPolyline
 90
2
 70
0
 10
290.017190
 20
172.000000
 30
0.0
 10
287.017190
 20
172.000000
 30
0.0
  0
LWPOLYLINE
  5
245
100
AcDbEntity
  8
Decoupe_2
 62
6
100
AcDbPolyline
 90
2
 70
0
 10
210.017190
 20
163.000000
 30
0.0
 10
210.017190
 20
172.000000
 30
0.0
  0
LWPOLYLINE
  5
246
100
AcDbEntity
  8
Decoupe_2
 62
6
100
AcDbPolyline
 90
2
 70
0
 10
290.017190
 20
172.000000
 30
0.0
 10
290.017190
 20
163.000000
 30
0.0
  0
LWPOLYLINE
  5
247
100
AcDbEntity
  8
Decoupe_2
 62
6
100
AcDbPolyline
 90
2
 70
0
 10
210.017190
 20
163.000000
 30
0.0
 10
213.017190
 20
163.000000
 30
0.0
  0
LWPOLYLINE
  5
248
100
AcDbEntity
  8
Decoupe_2
 62
6
100
AcDbPolyline
 90
2
 70
0
 10
287.017190
 20
163.000000
 30
0.0
 10
290.017190
 20
163.000000
 30
0.0
  0
LWPOLYLINE
  5
249
100
AcDbEntity
  8
Decoupe_2
 62
6
100
AcDbPolyline
 90
2
 70
0
 10
213.017190
 20
163.000000
 30
0.0
 10
213.017190
 20
156.000000
 30
0.0
  0
LWPOLYLINE
  5
24a
100
AcDbEntity
  8
Decoupe_2
 62
6
100
AcDbPolyline
 90
2
 70
0
 10
287.017190
 20
156.000000
 30
0.0
 10
287.017190
 20
163.000000
 30
0.0
  0
LWPOLYLINE
  5
24b
100
AcDbEntity
  8
Decoupe_2
 62
6
100
AcDbPolyline
 90
2
 70
0
 10
287.017190
 20
156.000000
 30
0.0
 10
213.017190
 20
156.000000
 30
0.0
  0
LWPOLYLINE
  5
24c
100
AcDbEntity
  8
Decoupe_2
 62
6
100
AcDbPolyline
 90
2
 70
0
 10
210.017190
 20
121.296771
 30
0.0
 10
210.017190
 20
125.296771
 30
0.0
  0
LWPOLYLINE
  5
24d
100
AcDbEntity
  8
Decoupe_2
 62
6
100
AcDbPolyline
 90
2
 70
0
 10
210.017190
 20
121.296771
 30
0.0
 10
213.017190
 20
121.296771
 30
0.0
  0
LWPOLYLINE
  5
24e
100
AcDbEntity
  8
Decoupe_2
 62
6
100
AcDbPolyline
 90
2
 70
0
 10
213.017190
 20
125.296771
 30
0.0
 10
210.017190
 20
125.296771
 30
0.0
  0
LWPOLYLINE
  5
24f
100
AcDbEntity
  8
Decoupe_2
 62
6
100
AcDbPolyline
 90
2
 70
0
 10
287.017190
 20
145.296771
 30
0.0
 10
287.017190
 20
154.296771
 30
0.0
  0
LWPOLYLINE
  5
250
100
AcDbEntity
  8
Decoupe_2
 62
6
100
AcDbPolyline
 90
2
 70
0
 10
290.017190
 20
145.296771
 30
0.0
 10
287.017190
 20
145.296771
 30
0.0
  0
LWPOLYLINE
  5
251
100
AcDbEntity
  8
Decoupe_2
 62
6
100
AcDbPolyline
 90
2
 70
0
 10
290.017190
 20
145.296771
 30
0.0
 10
290.017190
 20
141.296771
 30
0.0
  0
LWPOLYLINE
  5
252
100
AcDbEntity
  8
Decoupe_2
 62
6
100
AcDbPolyline
 90
2
 70
0
 10
287.017190
 20
141.296771
 30
0.0
 10
290.017190
 20
141.296771
 30
0.0
  0
LWPOLYLINE
  5
253
100
AcDbEntity
  8
Decoupe_2
 62
6
100
AcDbPolyline
 90
2
 70
0
 10
287.017190
 20
125.296771
 30
0.0
 10
287.017190
 20
141.296771
 30
0.0
  0
LWPOLYLINE
  5
254
100
AcDbEntity
  8
Decoupe_2
 62
6
100
AcDbPolyline
 90
2
 70
0
 10
290.017190
 20
125.296771
 30
0.0
 10
287.017190
 20
125.296771
 30
0.0
  0
LWPOLYLINE
  5
255
100
AcDbEntity
  8
Decoupe_2
 62
6
100
AcDbPolyline
 90
2
 70
0
 10
290.017190
 20
125.296771
 30
0.0
 10
290.017190
 20
121.296771
 30
0.0
  0
LWPOLYLINE
  5
256
100
AcDbEntity
  8
Decoupe_2
 62
6
100
AcDbPolyline
 90
2
 70
0
 10
287.017190
 20
121.296771
 30
0.0
 10
290.017190
 20
121.296771
 30
0.0
  0
LWPOLYLINE
  5
257
100
AcDbEntity
  8
Decoupe_2
 62
6
100
AcDbPolyline
 90
2
 70
0
 10
287.017190
 20
112.296771
 30
0.0
 10
287.017190
 20
121.296771
 30
0.0
  0
LWPOLYLINE
  5
258
100
AcDbEntity
  8
Decoupe_2
 62
6
100
AcDbPolyline
 90
2
 70
0
 10
213.017190
 20
112.296771
 30
0.0
 10
287.017190
 20
112.296771
 30
0.0
  0
LWPOLYLINE
  5
259
100
AcDbEntity
  8
Decoupe_2
 62
6
100
AcDbPolyline
 90
2
 70
0
 10
213.017190
 20
121.296771
 30
0.0
 10
213.017190
 20
112.296771
 30
0.0
  0
LWPOLYLINE
  5
25a
100
AcDbEntity
  8
Decoupe_2
 62
6
100
AcDbPolyline
 90
2
 70
0
 10
213.017190
 20
141.296771
 30
0.0
 10
213.017190
 20
125.296771
 30
0.0
  0
LWPOLYLINE
  5
25b
100
AcDbEntity
  8
Decoupe_2
 62
6
100
AcDbPolyline
 90
2
 70
0
 10
210.017190
 20
141.296771
 30
0.0
 10
213.017190
 20
141.296771
 30
0.0
  0
LWPOLYLINE
  5
25c
100
AcDbEntity
  8
Decoupe_2
 62
6
100
AcDbPolyline
 90
2
 70
0
 10
210.017190
 20
141.296771
 30
0.0
 10
210.017190
 20
145.296771
 30
0.0
  0
LWPOLYLINE
  5
25d
100
AcDbEntity
  8
Decoupe_2
 62
6
100
AcDbPolyline
 90
2
 70
0
 10
213.017190
 20
145.296771
 30
0.0
 10
210.017190
 20
145.296771
 30
0.0
  0
LWPOLYLINE
  5
25e
100
AcDbEntity
  8
Decoupe_2
 62
6
100
AcDbPolyline
 90
2
 70
0
 10
213.017190
 20
154.296771
 30
0.0
 10
213.017190
 20
145.296771
 30
0.0
  0
LWPOLYLINE
  5
25f
100
AcDbEntity
  8
Decoupe_2
 62
6
100
AcDbPolyline
 90
2
 70
0
 10
287.017190
 20
154.296771
 30
0.0
 10
213.017190
 20
154.296771
 30
0.0
  0
LWPOLYLINE
  5
260
100
AcDbEntity
  8
Decoupe_2
 62
6
100
AcDbPolyline
 90
2
 70
0
 10
210.017210
 20
103.651850
 30
0.0
 10
210.017210
 20
110.151850
 30
0.0
  0
LWPOLYLINE
  5
261
100
AcDbEntity
  8
Decoupe_2
 62
6
100
AcDbPolyline
 90
4
 70
0
 10
210.017210
 20
103.651850
 30
0.0
 10
213.017210
 20
103.651850
 30
0.0
 10
213.017210
 20
93.651850
 30
0.0
 10
210.017210
 20
93.651850
 30
0.0
  0
LWPOLYLINE
  5
262
100
AcDbEntity
  8
Decoupe_2
 62
6
100
AcDbPolyline
 90
2
 70
0
 10
210.017210
 20
81.651850
 30
0.0
 10
210.017210
 20
93.651850
 30
0.0
  0
LWPOLYLINE
  5
263
100
AcDbEntity
  8
Decoupe_2
 62
6
100
AcDbPolyline
 90
4
 70
0
 10
210.017210
 20
81.651850
 30
0.0
 10
213.017210
 20
81.651850
 30
0.0
 10
213.017210
 20
71.651850
 30
0.0
 10
210.017210
 20
71.651850
 30
0.0
  0
LWPOLYLINE
  5
264
100
AcDbEntity
  8
Decoupe_2
 62
6
100
AcDbPolyline
 90
2
 70
0
 10
210.017210
 20
65.151850
 30
0.0
 10
210.017210
 20
71.651850
 30
0.0
  0
LWPOLYLINE
  5
265
100
AcDbEntity
  8
Decoupe_2
 62
6
100
AcDbPolyline
 90
2
 70
0
 10
290.017210
 20
65.151850
 30
0.0
 10
210.017210
 20
65.151850
 30
0.0
  0
LWPOLYLINE
  5
266
100
AcDbEntity
  8
Decoupe_2
 62
6
100
AcDbPolyline
 90
2
 70
0
 10
290.017210
 20
71.651850
 30
0.0
 10
290.017210
 20
65.151850
 30
0.0
  0
LWPOLYLINE
  5
267
100
AcDbEntity
  8
Decoupe_2
 62
6
100
AcDbPolyline
 90
2
 70
0
 10
290.017210
 20
71.651850
 30
0.0
 10
287.017210
 20
71.651850
 30
0.0
  0
LWPOLYLINE
  5
268
100
AcDbEntity
  8
Decoupe_2
 62
6
100
AcDbPolyline
 90
2
 70
1
 10
287.017110
 20
71.651730
 30
0.0
 10
287.017110
 20
81.651630
 30
0.0
  0
LWPOLYLINE
  5
269
100
AcDbEntity
  8
Decoupe_2
 62
6
100
AcDbPolyline
 90
2
 70
0
 10
287.017210
 20
81.651850
 30
0.0
 10
290.017210
 20
81.651850
 30
0.0
  0
LWPOLYLINE
  5
26a
100
AcDbEntity
  8
Decoupe_2
 62
6
100
AcDbPolyline
 90
2
 70
0
 10
290.017210
 20
93.651850
 30
0.0
 10
290.017210
 20
81.651850
 30
0.0
  0
LWPOLYLINE
  5
26b
100
AcDbEntity
  8
Decoupe_2
 62
6
100
AcDbPolyline
 90
4
 70
0
 10
290.017210
 20
93.651850
 30
0.0
 10
287.017210
 20
93.651850
 30
0.0
 10
287.017210
 20
103.651850
 30
0.0
 10
290.017210
 20
103.651850
 30
0.0
  0
LWPOLYLINE
  5
26c
100
AcDbEntity
  8
Decoupe_2
 62
6
100
AcDbPolyline
 90
2
 70
0
 10
290.017210
 20
110.151850
 30
0.0
 10
290.017210
 20
103.651850
 30
0.0
  0
LWPOLYLINE
  5
26d
100
AcDbEntity
  8
Decoupe_2
 62
6
100
AcDbPolyline
 90
2
 70
0
 10
287.017210
 20
110.151850
 30
0.0
 10
290.017210
 20
110.151850
 30
0.0
  0
LWPOLYLINE
  5
26e
100
AcDbEntity
  8
Decoupe_2
 62
6
100
AcDbPolyline
 90
4
 70
0
 10
287.017210
 20
110.151850
 30
0.0
 10
287.017210
 20
107.151850
 30
0.0
 10
213.017210
 20
107.151850
 30
0.0
 10
213.017210
 20
110.151850
 30
0.0
  0
LWPOLYLINE
  5
26f
100
AcDbEntity
  8
Decoupe_2
 62
6
100
AcDbPolyline
 90
2
 70
0
 10
210.017210
 20
110.151850
 30
0.0
 10
213.017210
 20
110.151850
 30
0.0
  0
LWPOLYLINE
  5
270
100
AcDbEntity
  8
Decoupe_2
 62
5
100
AcDbPolyline
 90
2
 70
0
 10
227.017020
 20
43.898610
 30
0.0
 10
273.017020
 20
43.898610
 30
0.0
  0
LWPOLYLINE
  5
271
100
AcDbEntity
  8
Decoupe_2
 62
5
100
AcDbPolyline
 90
2
 70
0
 10
227.017020
 20
40.948610
 30
0.0
 10
227.017020
 20
43.898610
 30
0.0
  0
LWPOLYLINE
  5
272
100
AcDbEntity
  8
Decoupe_2
 62
5
100
AcDbPolyline
 90
3
 70
0
 10
273.017020
 20
43.898610
 30
0.0
 10
273.017020
 20
40.948610
 30
0.0
 10
227.017020
 20
40.948610
 30
0.0
  0
LWPOLYLINE
  5
273
100
AcDbEntity
  8
Decoupe_2
 62
5
100
AcDbPolyline
 90
2
 70
0
 10
227.017020
 20
48.848610
 30
0.0
 10
273.017020
 20
48.848610
 30
0.0
  0
LWPOLYLINE
  5
274
100
AcDbEntity
  8
Decoupe_2
 62
5
100
AcDbPolyline
 90
2
 70
0
 10
227.017020
 20
45.898610
 30
0.0
 10
227.017020
 20
48.848610
 30
0.0
  0
LWPOLYLINE
  5
275
100
AcDbEntity
  8
Decoupe_2
 62
5
100
AcDbPolyline
 90
3
 70
0
 10
273.017020
 20
48.848610
 30
0.0
 10
273.017020
 20
45.898610
 30
0.0
 10
227.017020
 20
45.898610
 30
0.0
  0
LWPOLYLINE
  5
276
100
AcDbEntity
  8
Decoupe_2
 62
5
100
AcDbPolyline
 90
2
 70
0
 10
273.017020
 20
55.798610
 30
0.0
 10
227.017020
 20
55.798610
 30
0.0
  0
LWPOLYLINE
  5
277
100
AcDbEntity
  8
Decoupe_2
 62
5
100
AcDbPolyline
 90
2
 70
0
 10
273.017020
 20
58.748610
 30
0.0
 10
273.017020
 20
55.798610
 30
0.0
  0
LWPOLYLINE
  5
278
100
AcDbEntity
  8
Decoupe_2
 62
5
100
AcDbPolyline
 90
3
 70
0
 10
227.017020
 20
55.798610
 30
0.0
 10
227.017020
 20
58.748610
 30
0.0
 10
273.017020
 20
58.748610
 30
0.0
  0
LWPOLYLINE
  5
279
100
AcDbEntity
  8
Decoupe_2
 62
5
100
AcDbPolyline
 90
2
 70
0
 10
273.017020
 20
53.798610
 30
0.0
 10
273.017020
 20
50.848610
 30
0.0
  0
LWPOLYLINE
  5
27a
100
AcDbEntity
  8
Decoupe_2
 62
5
100
AcDbPolyline
 90
2
 70
0
 10
227.017020
 20
53.798610
 30
0.0
 10
273.017020
 20
53.798610
 30
0.0
  0
LWPOLYLINE
  5
27b
100
AcDbEntity
  8
Decoupe_2
 62
5
100
AcDbPolyline
 90
3
 70
0
 10
273.017020
 20
50.848610
 30
0.0
 10
227.017020
 20
50.848610
 30
0.0
 10
227.017020
 20
53.798610
 30
0.0
  0
LWPOLYLINE
  5
27c
100
AcDbEntity
  8
Decoupe_2
 62
5
100
AcDbPolyline
 90
2
 70
0
 10
227.017020
 20
35.998610
 30
0.0
 10
227.017020
 20
38.948610
 30
0.0
  0
LWPOLYLINE
  5
27d
100
AcDbEntity
  8
Decoupe_2
 62
5
100
AcDbPolyline
 90
2
 70
0
 10
273.017020
 20
35.998610
 30
0.0
 10
227.017020
 20
35.998610
 30
0.0
  0
LWPOLYLINE
  5
27e
100
AcDbEntity
  8
Decoupe_2
 62
5
100
AcDbPolyline
 90
3
 70
0
 10
227.017020
 20
38.948610
 30
0.0
 10
273.017020
 20
38.948610
 30
0.0
 10
273.017020
 20
35.998610
 30
0.0
  0
LWPOLYLINE
  5
27f
100
AcDbEntity
  8
Decoupe_2
 62
6
100
AcDbPolyline
 90
2
 70
0
 10
210.017020
 20
56.948610
 30
0.0
 10
210.017020
 20
63.448610
 30
0.0
  0
LWPOLYLINE
  5
280
100
AcDbEntity
  8
Decoupe_2
 62
6
100
AcDbPolyline
 90
4
 70
0
 10
210.017020
 20
56.948610
 30
0.0
 10
213.017020
 20
56.948610
 30
0.0
 10
213.017020
 20
46.948610
 30
0.0
 10
210.017020
 20
46.948610
 30
0.0
  0
LWPOLYLINE
  5
281
100
AcDbEntity
  8
Decoupe_2
 62
6
100
AcDbPolyline
 90
2
 70
0
 10
210.017020
 20
34.948610
 30
0.0
 10
210.017020
 20
46.948610
 30
0.0
  0
LWPOLYLINE
  5
282
100
AcDbEntity
  8
Decoupe_2
 62
6
100
AcDbPolyline
 90
4
 70
0
 10
210.017020
 20
34.948610
 30
0.0
 10
213.017020
 20
34.948610
 30
0.0
 10
213.017020
 20
24.948610
 30
0.0
 10
210.017020
 20
24.948610
 30
0.0
  0
LWPOLYLINE
  5
283
100
AcDbEntity
  8
Decoupe_2
 62
6
100
AcDbPolyline
 90
2
 70
0
 10
210.017020
 20
18.448610
 30
0.0
 10
210.017020
 20
24.948610
 30
0.0
  0
LWPOLYLINE
  5
284
100
AcDbEntity
  8
Decoupe_2
 62
6
100
AcDbPolyline
 90
2
 70
0
 10
290.017020
 20
18.448610
 30
0.0
 10
210.017020
 20
18.448610
 30
0.0
  0
LWPOLYLINE
  5
285
100
AcDbEntity
  8
Decoupe_2
 62
6
100
AcDbPolyline
 90
2
 70
0
 10
290.017020
 20
24.948610
 30
0.0
 10
290.017020
 20
18.448610
 30
0.0
  0
LWPOLYLINE
  5
286
100
AcDbEntity
  8
Decoupe_2
 62
6
100
AcDbPolyline
 90
4
 70
0
 10
290.017020
 20
24.948610
 30
0.0
 10
287.017020
 20
24.948610
 30
0.0
 10
287.017020
 20
34.948610
 30
0.0
 10
290.017020
 20
34.948610
 30
0.0
  0
LWPOLYLINE
  5
287
100
AcDbEntity
  8
Decoupe_2
 62
6
100
AcDbPolyline
 90
2
 70
0
 10
290.017020
 20
46.948610
 30
0.0
 10
290.017020
 20
34.948610
 30
0.0
  0
LWPOLYLINE
  5
288
100
AcDbEntity
  8
Decoupe_2
 62
6
100
AcDbPolyline
 90
3
 70
0
 10
290.017020
 20
46.948610
 30
0.0
 10
287.017020
 20
46.948610
 30
0.0
 10
287.017020
 20
56.948610
 30
0.0
  0
LWPOLYLINE
  5
289
100
AcDbEntity
  8
Decoupe_2
 62
6
100
AcDbPolyline
 90
2
 70
0
 10
290.017020
 20
63.448610
 30
0.0
 10
290.017020
 20
56.948610
 30
0.0
  0
LWPOLYLINE
  5
28a
100
AcDbEntity
  8
Decoupe_2
 62
6
100
AcDbPolyline
 90
2
 70
0
 10
287.017020
 20
63.448610
 30
0.0
 10
290.017020
 20
63.448610
 30
0.0
  0
LWPOLYLINE
  5
28b
100
AcDbEntity
  8
Decoupe_2
 62
6
100
AcDbPolyline
 90
4
 70
0
 10
287.017020
 20
63.448610
 30
0.0
 10
287.017020
 20
60.448610
 30
0.0
 10
213.017020
 20
60.448610
 30
0.0
 10
213.017020
 20
63.448610
 30
0.0
  0
LWPOLYLINE
  5
28c
100
AcDbEntity
  8
Decoupe_2
 62
6
100
AcDbPolyline
 90
2
 70
0
 10
210.017020
 20
63.448610
 30
0.0
 10
213.017020
 20
63.448610
 30
0.0
  0
LWPOLYLINE
  5
28d
100
AcDbEntity
  8
Decoupe_2
 62
6
100
AcDbPolyline
 90
2
 70
0
 10
287.017020
 20
56.948610
 30
0.0
 10
290.017020
 20
56.948610
 30
0.0
  0
LWPOLYLINE
  5
28e
100
AcDbEntity
  8
Decoupe_2
 62
6
100
AcDbPolyline
 90
2
 70
0
 10
160.641790
 20
204.000000
 30
0.0
 10
164.641790
 20
204.000000
 30
0.0
  0
LWPOLYLINE
  5
28f
100
AcDbEntity
  8
Decoupe_2
 62
6
100
AcDbPolyline
 90
2
 70
0
 10
160.641790
 20
204.000000
 30
0.0
 10
160.641790
 20
197.500000
 30
0.0
  0
LWPOLYLINE
  5
290
100
AcDbEntity
  8
Decoupe_2
 62
6
100
AcDbPolyline
 90
2
 70
0
 10
164.641790
 20
201.000000
 30
0.0
 10
164.641790
 20
204.000000
 30
0.0
  0
LWPOLYLINE
  5
291
100
AcDbEntity
  8
Decoupe_2
 62
6
100
AcDbPolyline
 90
2
 70
0
 10
169.641790
 20
201.000000
 30
0.0
 10
164.641790
 20
201.000000
 30
0.0
  0
LWPOLYLINE
  5
292
100
AcDbEntity
  8
Decoupe_2
 62
6
100
AcDbPolyline
 90
2
 70
0
 10
169.641790
 20
198.000000
 30
0.0
 10
169.641790
 20
201.000000
 30
0.0
  0
LWPOLYLINE
  5
293
100
AcDbEntity
  8
Decoupe_2
 62
6
100
AcDbPolyline
 90
2
 70
0
 10
173.641790
 20
198.000000
 30
0.0
 10
169.641790
 20
198.000000
 30
0.0
  0
LWPOLYLINE
  5
294
100
AcDbEntity
  8
Decoupe_2
 62
6
100
AcDbPolyline
 90
2
 70
0
 10
173.641790
 20
204.000000
 30
0.0
 10
173.641790
 20
198.000000
 30
0.0
  0
LWPOLYLINE
  5
295
100
AcDbEntity
  8
Decoupe_2
 62
6
100
AcDbPolyline
 90
2
 70
0
 10
173.641790
 20
204.000000
 30
0.0
 10
189.641790
 20
204.000000
 30
0.0
  0
LWPOLYLINE
  5
296
100
AcDbEntity
  8
Decoupe_2
 62
6
100
AcDbPolyline
 90
2
 70
0
 10
189.641790
 20
198.000000
 30
0.0
 10
189.641790
 20
204.000000
 30
0.0
  0
LWPOLYLINE
  5
297
100
AcDbEntity
  8
Decoupe_2
 62
6
100
AcDbPolyline
 90
2
 70
0
 10
193.641790
 20
198.000000
 30
0.0
 10
189.641790
 20
198.000000
 30
0.0
  0
LWPOLYLINE
  5
298
100
AcDbEntity
  8
Decoupe_2
 62
6
100
AcDbPolyline
 90
2
 70
0
 10
193.641790
 20
201.000000
 30
0.0
 10
193.641790
 20
198.000000
 30
0.0
  0
LWPOLYLINE
  5
299
100
AcDbEntity
  8
Decoupe_2
 62
6
100
AcDbPolyline
 90
2
 70
0
 10
198.641790
 20
201.000000
 30
0.0
 10
193.641790
 20
201.000000
 30
0.0
  0
LWPOLYLINE
  5
29a
100
AcDbEntity
  8
Decoupe_2
 62
6
100
AcDbPolyline
 90
2
 70
0
 10
198.641790
 20
204.000000
 30
0.0
 10
198.641790
 20
201.000000
 30
0.0
  0
LWPOLYLINE
  5
29b
100
AcDbEntity
  8
Decoupe_2
 62
6
100
AcDbPolyline
 90
2
 70
0
 10
198.641790
 20
204.000000
 30
0.0
 10
202.641790
 20
204.000000
 30
0.0
  0
LWPOLYLINE
  5
29c
100
AcDbEntity
  8
Decoupe_2
 62
6
100
AcDbPolyline
 90
2
 70
0
 10
202.641790
 20
197.500000
 30
0.0
 10
202.641790
 20
204.000000
 30
0.0
  0
LWPOLYLINE
  5
29d
100
AcDbEntity
  8
Decoupe_2
 62
6
100
AcDbPolyline
 90
2
 70
0
 10
205.641790
 20
197.500000
 30
0.0
 10
202.641790
 20
197.500000
 30
0.0
  0
LWPOLYLINE
  5
29e
100
AcDbEntity
  8
Decoupe_2
 62
6
100
AcDbPolyline
 90
2
 70
0
 10
205.641790
 20
197.500000
 30
0.0
 10
205.641790
 20
187.500000
 30
0.0
  0
LWPOLYLINE
  5
29f
100
AcDbEntity
  8
Decoupe_2
 62
6
100
AcDbPolyline
 90
2
 70
0
 10
202.641790
 20
187.500000
 30
0.0
 10
205.641790
 20
187.500000
 30
0.0
  0
LWPOLYLINE
  5
2a0
100
AcDbEntity
  8
Decoupe_2
 62
6
100
AcDbPolyline
 90
2
 70
0
 10
202.641790
 20
175.500000
 30
0.0
 10
202.641790
 20
187.500000
 30
0.0
  0
LWPOLYLINE
  5
2a1
100
AcDbEntity
  8
Decoupe_2
 62
6
100
AcDbPolyline
 90
2
 70
0
 10
205.641790
 20
175.500000
 30
0.0
 10
202.641790
 20
175.500000
 30
0.0
  0
LWPOLYLINE
  5
2a2
100
AcDbEntity
  8
Decoupe_2
 62
6
100
AcDbPolyline
 90
2
 70
0
 10
205.641790
 20
175.500000
 30
0.0
 10
205.641790
 20
165.500000
 30
0.0
  0
LWPOLYLINE
  5
2a3
100
AcDbEntity
  8
Decoupe_2
 62
6
100
AcDbPolyline
 90
2
 70
0
 10
202.641790
 20
165.500000
 30
0.0
 10
205.641790
 20
165.500000
 30
0.0
  0
LWPOLYLINE
  5
2a4
100
AcDbEntity
  8
Decoupe_2
 62
6
100
AcDbPolyline
 90
2
 70
0
 10
202.641790
 20
159.000000
 30
0.0
 10
202.641790
 20
165.500000
 30
0.0
  0
LWPOLYLINE
  5
2a5
100
AcDbEntity
  8
Decoupe_2
 62
6
100
AcDbPolyline
 90
2
 70
0
 10
202.641790
 20
159.000000
 30
0.0
 10
160.641790
 20
159.000000
 30
0.0
  0
LWPOLYLINE
  5
2a6
100
AcDbEntity
  8
Decoupe_2
 62
6
100
AcDbPolyline
 90
2
 70
0
 10
160.641790
 20
165.500000
 30
0.0
 10
160.641790
 20
159.000000
 30
0.0
  0
LWPOLYLINE
  5
2a7
100
AcDbEntity
  8
Decoupe_2
 62
6
100
AcDbPolyline
 90
2
 70
0
 10
157.641790
 20
165.500000
 30
0.0
 10
160.641790
 20
165.500000
 30
0.0
  0
LWPOLYLINE
  5
2a8
100
AcDbEntity
  8
Decoupe_2
 62
6
100
AcDbPolyline
 90
2
 70
0
 10
157.641790
 20
165.500000
 30
0.0
 10
157.641790
 20
175.500000
 30
0.0
  0
LWPOLYLINE
  5
2a9
100
AcDbEntity
  8
Decoupe_2
 62
6
100
AcDbPolyline
 90
2
 70
0
 10
160.641790
 20
175.500000
 30
0.0
 10
157.641790
 20
175.500000
 30
0.0
  0
LWPOLYLINE
  5
2aa
100
AcDbEntity
  8
Decoupe_2
 62
6
100
AcDbPolyline
 90
2
 70
0
 10
160.641790
 20
187.500000
 30
0.0
 10
160.641790
 20
175.500000
 30
0.0
  0
LWPOLYLINE
  5
2ab
100
AcDbEntity
  8
Decoupe_2
 62
6
100
AcDbPolyline
 90
2
 70
0
 10
157.641790
 20
187.500000
 30
0.0
 10
160.641790
 20
187.500000
 30
0.0
  0
LWPOLYLINE
  5
2ac
100
AcDbEntity
  8
Decoupe_2
 62
6
100
AcDbPolyline
 90
2
 70
0
 10
157.641790
 20
187.500000
 30
0.0
 10
157.641790
 20
197.500000
 30
0.0
  0
LWPOLYLINE
  5
2ad
100
AcDbEntity
  8
Decoupe_2
 62
6
100
AcDbPolyline
 90
2
 70
0
 10
160.641790
 20
197.500000
 30
0.0
 10
157.641790
 20
197.500000
 30
0.0
  0
LWPOLYLINE
  5
2ae
100
AcDbEntity
  8
Decoupe_2
 62
6
100
AcDbPolyline
 90
2
 70
0
 10
160.641820
 20
156.733301
 30
0.0
 10
164.641820
 20
156.733301
 30
0.0
  0
LWPOLYLINE
  5
2af
100
AcDbEntity
  8
Decoupe_2
 62
6
100
AcDbPolyline
 90
2
 70
0
 10
160.641820
 20
156.733301
 30
0.0
 10
160.641820
 20
150.233301
 30
0.0
  0
LWPOLYLINE
  5
2b0
100
AcDbEntity
  8
Decoupe_2
 62
6
100
AcDbPolyline
 90
2
 70
0
 10
164.641820
 20
153.733301
 30
0.0
 10
164.641820
 20
156.733301
 30
0.0
  0
LWPOLYLINE
  5
2b1
100
AcDbEntity
  8
Decoupe_2
 62
6
100
AcDbPolyline
 90
2
 70
0
 10
169.641820
 20
153.733301
 30
0.0
 10
164.641820
 20
153.733301
 30
0.0
  0
LWPOLYLINE
  5
2b2
100
AcDbEntity
  8
Decoupe_2
 62
6
100
AcDbPolyline
 90
2
 70
0
 10
169.641820
 20
150.733301
 30
0.0
 10
169.641820
 20
153.733301
 30
0.0
  0
LWPOLYLINE
  5
2b3
100
AcDbEntity
  8
Decoupe_2
 62
6
100
AcDbPolyline
 90
2
 70
0
 10
173.641820
 20
150.733301
 30
0.0
 10
169.641820
 20
150.733301
 30
0.0
  0
LWPOLYLINE
  5
2b4
100
AcDbEntity
  8
Decoupe_2
 62
6
100
AcDbPolyline
 90
2
 70
0
 10
173.641820
 20
156.733301
 30
0.0
 10
173.641820
 20
150.733301
 30
0.0
  0
LWPOLYLINE
  5
2b5
100
AcDbEntity
  8
Decoupe_2
 62
6
100
AcDbPolyline
 90
2
 70
0
 10
173.641820
 20
156.733301
 30
0.0
 10
189.641820
 20
156.733301
 30
0.0
  0
LWPOLYLINE
  5
2b6
100
AcDbEntity
  8
Decoupe_2
 62
6
100
AcDbPolyline
 90
2
 70
0
 10
189.641820
 20
150.733301
 30
0.0
 10
189.641820
 20
156.733301
 30
0.0
  0
LWPOLYLINE
  5
2b7
100
AcDbEntity
  8
Decoupe_2
 62
6
100
AcDbPolyline
 90
2
 70
0
 10
193.641820
 20
150.733301
 30
0.0
 10
189.641820
 20
150.733301
 30
0.0
  0
LWPOLYLINE
  5
2b8
100
AcDbEntity
  8
Decoupe_2
 62
6
100
AcDbPolyline
 90
2
 70
0
 10
193.641820
 20
153.733301
 30
0.0
 10
193.641820
 20
150.733301
 30
0.0
  0
LWPOLYLINE
  5
2b9
100
AcDbEntity
  8
Decoupe_2
 62
6
100
AcDbPolyline
 90
2
 70
0
 10
198.641820
 20
153.733301
 30
0.0
 10
193.641820
 20
153.733301
 30
0.0
  0
LWPOLYLINE
  5
2ba
100
AcDbEntity
  8
Decoupe_2
 62
6
100
AcDbPolyline
 90
2
 70
0
 10
198.641820
 20
156.733301
 30
0.0
 10
198.641820
 20
153.733301
 30
0.0
  0
LWPOLYLINE
  5
2bb
100
AcDbEntity
  8
Decoupe_2
 62
6
100
AcDbPolyline
 90
2
 70
0
 10
198.641820
 20
156.733301
 30
0.0
 10
202.641820
 20
156.733301
 30
0.0
  0
LWPOLYLINE
  5
2bc
100
AcDbEntity
  8
Decoupe_2
 62
6
100
AcDbPolyline
 90
2
 70
0
 10
202.641820
 20
150.233301
 30
0.0
 10
202.641820
 20
156.733301
 30
0.0
  0
LWPOLYLINE
  5
2bd
100
AcDbEntity
  8
Decoupe_2
 62
6
100
AcDbPolyline
 90
2
 70
0
 10
205.641820
 20
150.233301
 30
0.0
 10
202.641820
 20
150.233301
 30
0.0
  0
LWPOLYLINE
  5
2be
100
AcDbEntity
  8
Decoupe_2
 62
6
100
AcDbPolyline
 90
2
 70
0
 10
205.641820
 20
150.233301
 30
0.0
 10
205.641820
 20
140.233301
 30
0.0
  0
LWPOLYLINE
  5
2bf
100
AcDbEntity
  8
Decoupe_2
 62
6
100
AcDbPolyline
 90
2
 70
0
 10
202.641820
 20
140.233301
 30
0.0
 10
205.641820
 20
140.233301
 30
0.0
  0
LWPOLYLINE
  5
2c0
100
AcDbEntity
  8
Decoupe_2
 62
6
100
AcDbPolyline
 90
2
 70
0
 10
202.641820
 20
128.233301
 30
0.0
 10
202.641820
 20
140.233301
 30
0.0
  0
LWPOLYLINE
  5
2c1
100
AcDbEntity
  8
Decoupe_2
 62
6
100
AcDbPolyline
 90
2
 70
0
 10
205.641820
 20
128.233301
 30
0.0
 10
202.641820
 20
128.233301
 30
0.0
  0
LWPOLYLINE
  5
2c2
100
AcDbEntity
  8
Decoupe_2
 62
6
100
AcDbPolyline
 90
2
 70
0
 10
205.641820
 20
128.233301
 30
0.0
 10
205.641820
 20
118.233301
 30
0.0
  0
LWPOLYLINE
  5
2c3
100
AcDbEntity
  8
Decoupe_2
 62
6
100
AcDbPolyline
 90
2
 70
0
 10
202.641820
 20
118.233301
 30
0.0
 10
205.641820
 20
118.233301
 30
0.0
  0
LWPOLYLINE
  5
2c4
100
AcDbEntity
  8
Decoupe_2
 62
6
100
AcDbPolyline
 90
2
 70
0
 10
202.641820
 20
111.733301
 30
0.0
 10
202.641820
 20
118.233301
 30
0.0
  0
LWPOLYLINE
  5
2c5
100
AcDbEntity
  8
Decoupe_2
 62
6
100
AcDbPolyline
 90
2
 70
0
 10
202.641820
 20
111.733301
 30
0.0
 10
160.641820
 20
111.733301
 30
0.0
  0
LWPOLYLINE
  5
2c6
100
AcDbEntity
  8
Decoupe_2
 62
6
100
AcDbPolyline
 90
2
 70
0
 10
160.641820
 20
118.233301
 30
0.0
 10
160.641820
 20
111.733301
 30
0.0
  0
LWPOLYLINE
  5
2c7
100
AcDbEntity
  8
Decoupe_2
 62
6
100
AcDbPolyline
 90
2
 70
0
 10
157.641820
 20
118.233301
 30
0.0
 10
160.641820
 20
118.233301
 30
0.0
  0
LWPOLYLINE
  5
2c8
100
AcDbEntity
  8
Decoupe_2
 62
6
100
AcDbPolyline
 90
2
 70
0
 10
157.641820
 20
118.233301
 30
0.0
 10
157.641820
 20
128.233301
 30
0.0
  0
LWPOLYLINE
  5
2c9
100
AcDbEntity
  8
Decoupe_2
 62
6
100
AcDbPolyline
 90
2
 70
0
 10
160.641820
 20
128.233301
 30
0.0
 10
157.641820
 20
128.233301
 30
0.0
  0
LWPOLYLINE
  5
2ca
100
AcDbEntity
  8
Decoupe_2
 62
6
100
AcDbPolyline
 90
2
 70
0
 10
160.641820
 20
140.233301
 30
0.0
 10
160.641820
 20
128.233301
 30
0.0
  0
LWPOLYLINE
  5
2cb
100
AcDbEntity
  8
Decoupe_2
 62
6
100
AcDbPolyline
 90
2
 70
0
 10
157.641820
 20
140.233301
 30
0.0
 10
160.641820
 20
140.233301
 30
0.0
  0
LWPOLYLINE
  5
2cc
100
AcDbEntity
  8
Decoupe_2
 62
6
100
AcDbPolyline
 90
2
 70
0
 10
157.641820
 20
140.233301
 30
0.0
 10
157.641820
 20
150.233301
 30
0.0
  0
LWPOLYLINE
  5
2cd
100
AcDbEntity
  8
Decoupe_2
 62
6
100
AcDbPolyline
 90
2
 70
0
 10
160.641820
 20
150.233301
 30
0.0
 10
157.641820
 20
150.233301
 30
0.0
  0
LWPOLYLINE
  5
2ce
100
AcDbEntity
  8
Decoupe_2
 62
6
100
AcDbPolyline
 90
10
 70
1
 10
137.785653
 20
139.318972
 30
0.0
 10
137.785653
 20
93.318972
 30
0.0
 10
134.785653
 20
93.318972
 30
0.0
 10
134.785653
 20
77.318969
 30
0.0
 10
132.785653
 20
77.318969
 30
0.0
 10
130.785653
 20
79.318969
 30
0.0
 10
130.785653
 20
153.318972
 30
0.0
 10
132.785653
 20
155.318972
 30
0.0
 10
134.785653
 20
155.318972
 30
0.0
 10
134.785653
 20
139.318972
 30
0.0
  0
LWPOLYLINE
  5
2cf
100
AcDbEntity
  8
Decoupe_2
 62
6
100
AcDbPolyline
 90
10
 70
1
 10
137.031890
 20
188.268314
 30
0.0
 10
137.031890
 20
142.268314
 30
0.0
 10
140.031890
 20
142.268314
 30
0.0
 10
140.031890
 20
126.268314
 30
0.0
 10
142.031890
 20
126.268314
 30
0.0
 10
144.031890
 20
128.268314
 30
0.0
 10
144.031890
 20
202.268315
 30
0.0
 10
142.031890
 20
204.268315
 30
0.0
 10
140.031890
 20
204.268315
 30
0.0
 10
140.031890
 20
188.268314
 30
0.0
  0
LWPOLYLINE
  5
2d0
100
AcDbEntity
  8
Decoupe_2
 62
6
100
AcDbPolyline
 90
10
 70
1
 10
153.563390
 20
188.268311
 30
0.0
 10
153.563390
 20
142.268311
 30
0.0
 10
150.563390
 20
142.268311
 30
0.0
 10
150.563390
 20
126.268311
 30
0.0
 10
148.563390
 20
126.268311
 30
0.0
 10
146.563390
 20
128.268311
 30
0.0
 10
146.563390
 20
202.268312
 30
0.0
 10
148.563390
 20
204.268312
 30
0.0
 10
150.563390
 20
204.268312
 30
0.0
 10
150.563390
 20
188.268311
 30
0.0
  0
LWPOLYLINE
  5
2d1
100
AcDbEntity
  8
Decoupe_2
 62
6
100
AcDbPolyline
 90
10
 70
1
 10
153.563380
 20
90.938987
 30
0.0
 10
153.563380
 20
44.938987
 30
0.0
 10
150.563380
 20
44.938987
 30
0.0
 10
150.563380
 20
28.938987
 30
0.0
 10
148.563380
 20
28.938987
 30
0.0
 10
146.563380
 20
30.938987
 30
0.0
 10
146.563380
 20
104.938987
 30
0.0
 10
148.563380
 20
106.938987
 30
0.0
 10
150.563380
 20
106.938987
 30
0.0
 10
150.563380
 20
90.938987
 30
0.0
  0
SPLINE
  5
2d2
100
AcDbEntity
  8
Decoupe_2
 62
5
100
AcDbSpline
 70
8
 71
3
 72
8
 73
4
 74
0
 40
0
 40
0
 40
0
 40
0
 40
1
 40
1
 40
1
 40
1
 10
165.977495
 20
75.113161
 30
0.0
 10
167.966619
 20
75.113161
 30
0.0
 10
169.874273
 20
75.903338
 30
0.0
 10
171.280796
 20
77.309861
 30
0.0
  0
SPLINE
  5
2d3
100
AcDbEntity
  8
Decoupe_2
 62
5
100
AcDbSpline
 70
8
 71
3
 72
8
 73
4
 74
0
 40
0
 40
0
 40
0
 40
0
 40
1
 40
1
 40
1
 40
1
 10
171.280796
 20
77.309861
 30
0.0
 10
172.687319
 20
78.716383
 30
0.0
 10
173.477495
 20
80.624038
 30
0.0
 10
173.477495
 20
82.613161
 30
0.0
  0
SPLINE
  5
2d4
100
AcDbEntity
  8
Decoupe_2
 62
5
100
AcDbSpline
 70
8
 71
3
 72
8
 73
4
 74
0
 40
0
 40
0
 40
0
 40
0
 40
1
 40
1
 40
1
 40
1
 10
173.477495
 20
82.613161
 30
0.0
 10
173.477495
 20
84.602285
 30
0.0
 10
172.687319
 20
86.509939
 30
0.0
 10
171.280796
 20
87.916462
 30
0.0
  0
SPLINE
  5
2d5
100
AcDbEntity
  8
Decoupe_2
 62
5
100
AcDbSpline
 70
8
 71
3
 72
8
 73
4
 74
0
 40
0
 40
0
 40
0
 40
0
 40
1
 40
1
 40
1
 40
1
 10
171.280796
 20
87.916462
 30
0.0
 10
169.874273
 20
89.322985
 30
0.0
 10
167.966619
 20
90.113161
 30
0.0
 10
165.977495
 20
90.113161
 30
0.0
  0
SPLINE
  5
2d6
100
AcDbEntity
  8
Decoupe_2
 62
5
100
AcDbSpline
 70
8
 71
3
 72
8
 73
4
 74
0
 40
0
 40
0
 40
0
 40
0
 40
1
 40
1
 40
1
 40
1
 10
165.977495
 20
90.113161
 30
0.0
 10
163.988371
 20
90.113161
 30
0.0
 10
162.080717
 20
89.322985
 30
0.0
 10
160.674194
 20
87.916462
 30
0.0
  0
SPLINE
  5
2d7
100
AcDbEntity
  8
Decoupe_2
 62
5
100
AcDbSpline
 70
8
 71
3
 72
8
 73
4
 74
0
 40
0
 40
0
 40
0
 40
0
 40
1
 40
1
 40
1
 40
1
 10
160.674194
 20
87.916462
 30
0.0
 10
159.267671
 20
86.509939
 30
0.0
 10
158.477495
 20
84.602285
 30
0.0
 10
158.477495
 20
82.613161
 30
0.0
  0
SPLINE
  5
2d8
100
AcDbEntity
  8
Decoupe_2
 62
5
100
AcDbSpline
 70
8
 71
3
 72
8
 73
4
 74
0
 40
0
 40
0
 40
0
 40
0
 40
1
 40
1
 40
1
 40
1
 10
158.477495
 20
82.613161
 30
0.0
 10
158.477495
 20
80.624038
 30
0.0
 10
159.267671
 20
78.716383
 30
0.0
 10
160.674194
 20
77.309861
 30
0.0
  0
SPLINE
  5
2d9
100
AcDbEntity
  8
Decoupe_2
 62
5
100
AcDbSpline
 70
8
 71
3
 72
8
 73
4
 74
0
 40
0
 40
0
 40
0
 40
0
 40
1
 40
1
 40
1
 40
1
 10
160.674194
 20
77.309861
 30
0.0
 10
162.080717
 20
75.903338
 30
0.0
 10
163.988371
 20
75.113161
 30
0.0
 10
165.977495
 20
75.113161
 30
0.0
  0
LWPOLYLINE
  5
2da
100
AcDbEntity
  8
Decoupe_2
 62
6
100
AcDbPolyline
 90
10
 70
1
 10
137.031860
 20
90.938997
 30
0.0
 10
137.031860
 20
44.938997
 30
0.0
 10
140.031860
 20
44.938997
 30
0.0
 10
140.031860
 20
28.938997
 30
0.0
 10
142.031860
 20
28.938997
 30
0.0
 10
144.031860
 20
30.938997
 30
0.0
 10
144.031860
 20
104.938997
 30
0.0
 10
142.031860
 20
106.938997
 30
0.0
 10
140.031860
 20
106.938997
 30
0.0
 10
140.031860
 20
90.938997
 30
0.0
  0
LWPOLYLINE
  5
2db
100
AcDbEntity
  8
Decoupe_2
 62
5
100
AcDbPolyline
 90
1
 70
1
 10
165.977495
 20
75.113161
 30
0.0
  0
SPLINE
  5
2dc
100
AcDbEntity
  8
Decoupe_2
 62
6
100
AcDbSpline
 70
8
 71
3
 72
8
 73
4
 74
0
 40
0
 40
0
 40
0
 40
0
 40
1
 40
1
 40
1
 40
1
 10
157.331687
 20
80.113150
 30
0.0
 10
158.189789
 20
77.145569
 30
0.0
 10
160.509914
 20
74.825447
 30
0.0
 10
163.477497
 20
73.967350
 30
0.0
  0
LWPOLYLINE
  5
2dd
100
AcDbEntity
  8
Decoupe_2
 62
6
100
AcDbPolyline
 90
4
 70
0
 10
168.477497
 20
73.967350
 30
0.0
 10
168.477497
 20
72.467350
 30
0.0
 10
163.477497
 20
72.467350
 30
0.0
 10
163.477497
 20
73.967350
 30
0.0
  0
SPLINE
  5
2de
100
AcDbEntity
  8
Decoupe_2
 62
6
100
AcDbSpline
 70
8
 71
3
 72
8
 73
4
 74
0
 40
0
 40
0
 40
0
 40
0
 40
1
 40
1
 40
1
 40
1
 10
163.477497
 20
91.258950
 30
0.0
 10
160.509914
 20
90.400853
 30
0.0
 10
158.189789
 20
88.080732
 30
0.0
 10
157.331687
 20
85.113150
 30
0.0
  0
LWPOLYLINE
  5
2df
100
AcDbEntity
  8
Decoupe_2
 62
6
100
AcDbPolyline
 90
4
 70
0
 10
157.331687
 20
80.113150
 30
0.0
 10
155.831687
 20
80.113150
 30
0.0
 10
155.831687
 20
85.113150
 30
0.0
 10
157.331687
 20
85.113150
 30
0.0
  0
SPLINE
  5
2e0
100
AcDbEntity
  8
Decoupe_2
 62
6
100
AcDbSpline
 70
8
 71
3
 72
8
 73
4
 74
0
 40
0
 40
0
 40
0
 40
0
 40
1
 40
1
 40
1
 40
1
 10
174.623297
 20
85.113150
 30
0.0
 10
173.765197
 20
88.080729
 30
0.0
 10
171.445076
 20
90.400850
 30
0.0
 10
168.477497
 20
91.258950
 30
0.0
  0
LWPOLYLINE
  5
2e1
100
AcDbEntity
  8
Decoupe_2
 62
6
100
AcDbPolyline
 90
4
 70
0
 10
163.477497
 20
91.258950
 30
0.0
 10
163.477497
 20
92.758950
 30
0.0
 10
168.477497
 20
92.758950
 30
0.0
 10
168.477497
 20
91.258950
 30
0.0
  0
SPLINE
  5
2e2
100
AcDbEntity
  8
Decoupe_2
 62
6
100
AcDbSpline
 70
8
 71
3
 72
8
 73
4
 74
0
 40
0
 40
0
 40
0
 40
0
 40
1
 40
1
 40
1
 40
1
 10
168.477497
 20
73.967350
 30
0.0
 10
171.445076
 20
74.825450
 30
0.0
 10
173.765197
 20
77.145571
 30
0.0
 10
174.623297
 20
80.113150
 30
0.0
  0
SPLINE
  5
2e3
100
AcDbEntity
  8
Decoupe_2
 62
5
100
AcDbSpline
 70
8
 71
3
 72
8
 73
4
 74
0
 40
0
 40
0
 40
0
 40
0
 40
1
 40
1
 40
1
 40
1
 10
188.000415
 20
75.113161
 30
0.0
 10
189.989538
 20
75.113161
 30
0.0
 10
191.897193
 20
75.903338
 30
0.0
 10
193.303716
 20
77.309861
 30
0.0
  0
SPLINE
  5
2e4
100
AcDbEntity
  8
Decoupe_2
 62
5
100
AcDbSpline
 70
8
 71
3
 72
8
 73
4
 74
0
 40
0
 40
0
 40
0
 40
0
 40
1
 40
1
 40
1
 40
1
 10
193.303716
 20
77.309861
 30
0.0
 10
194.710238
 20
78.716383
 30
0.0
 10
195.500415
 20
80.624038
 30
0.0
 10
195.500415
 20
82.613161
 30
0.0
  0
SPLINE
  5
2e5
100
AcDbEntity
  8
Decoupe_2
 62
5
100
AcDbSpline
 70
8
 71
3
 72
8
 73
4
 74
0
 40
0
 40
0
 40
0
 40
0
 40
1
 40
1
 40
1
 40
1
 10
195.500415
 20
82.613161
 30
0.0
 10
195.500415
 20
84.602285
 30
0.0
 10
194.710238
 20
86.509939
 30
0.0
 10
193.303716
 20
87.916462
 30
0.0
  0
SPLINE
  5
2e6
100
AcDbEntity
  8
Decoupe_2
 62
5
100
AcDbSpline
 70
8
 71
3
 72
8
 73
4
 74
0
 40
0
 40
0
 40
0
 40
0
 40
1
 40
1
 40
1
 40
1
 10
193.303716
 20
87.916462
 30
0.0
 10
191.897193
 20
89.322985
 30
0.0
 10
189.989538
 20
90.113161
 30
0.0
 10
188.000415
 20
90.113161
 30
0.0
  0
SPLINE
  5
2e7
100
AcDbEntity
  8
Decoupe_2
 62
5
100
AcDbSpline
 70
8
 71
3
 72
8
 73
4
 74
0
 40
0
 40
0
 40
0
 40
0
 40
1
 40
1
 40
1
 40
1
 10
188.000415
 20
90.113161
 30
0.0
 10
186.011291
 20
90.113161
 30
0.0
 10
184.103637
 20
89.322985
 30
0.0
 10
182.697114
 20
87.916462
 30
0.0
  0
SPLINE
  5
2e8
100
AcDbEntity
  8
Decoupe_2
 62
5
100
AcDbSpline
 70
8
 71
3
 72
8
 73
4
 74
0
 40
0
 40
0
 40
0
 40
0
 40
1
 40
1
 40
1
 40
1
 10
182.697114
 20
87.916462
 30
0.0
 10
181.290591
 20
86.509939
 30
0.0
 10
180.500415
 20
84.602285
 30
0.0
 10
180.500415
 20
82.613161
 30
0.0
  0
SPLINE
  5
2e9
100
AcDbEntity
  8
Decoupe_2
 62
5
100
AcDbSpline
 70
8
 71
3
 72
8
 73
4
 74
0
 40
0
 40
0
 40
0
 40
0
 40
1
 40
1
 40
1
 40
1
 10
180.500415
 20
82.613161
 30
0.0
 10
180.500415
 20
80.624038
 30
0.0
 10
181.290591
 20
78.716383
 30
0.0
 10
182.697114
 20
77.309861
 30
0.0
  0
SPLINE
  5
2ea
100
AcDbEntity
  8
Decoupe_2
 62
5
100
AcDbSpline
 70
8
 71
3
 72
8
 73
4
 74
0
 40
0
 40
0
 40
0
 40
0
 40
1
 40
1
 40
1
 40
1
 10
182.697114
 20
77.309861
 30
0.0
 10
184.103637
 20
75.903338
 30
0.0
 10
186.011291
 20
75.113161
 30
0.0
 10
188.000415
 20
75.113161
 30
0.0
  0
LWPOLYLINE
  5
2eb
100
AcDbEntity
  8
Decoupe_2
 62
6
100
AcDbPolyline
 90
4
 70
0
 10
174.623297
 20
85.113150
 30
0.0
 10
176.123297
 20
85.113150
 30
0.0
 10
176.123297
 20
80.113150
 30
0.0
 10
174.623297
 20
80.113150
 30
0.0
  0
LWPOLYLINE
  5
2ec
100
AcDbEntity
  8
Decoupe_2
 62
5
100
AcDbPolyline
 90
1
 70
1
 10
188.000415
 20
75.113161
 30
0.0
  0
SPLINE
  5
2ed
100
AcDbEntity
  8
Decoupe_2
 62
6
100
AcDbSpline
 70
8
 71
3
 72
8
 73
4
 74
0
 40
0
 40
0
 40
0
 40
0
 40
1
 40
1
 40
1
 40
1
 10
179.354607
 20
80.113150
 30
0.0
 10
180.212709
 20
77.145569
 30
0.0
 10
182.532834
 20
74.825447
 30
0.0
 10
185.500417
 20
73.967350
 30
0.0
  0
LWPOLYLINE
  5
2ee
100
AcDbEntity
  8
Decoupe_2
 62
6
100
AcDbPolyline
 90
4
 70
0
 10
190.500417
 20
73.967350
 30
0.0
 10
190.500417
 20
72.467350
 30
0.0
 10
185.500417
 20
72.467350
 30
0.0
 10
185.500417
 20
73.967350
 30
0.0
  0
SPLINE
  5
2ef
100
AcDbEntity
  8
Decoupe_2
 62
6
100
AcDbSpline
 70
8
 71
3
 72
8
 73
4
 74
0
 40
0
 40
0
 40
0
 40
0
 40
1
 40
1
 40
1
 40
1
 10
185.500417
 20
91.258950
 30
0.0
 10
182.532834
 20
90.400853
 30
0.0
 10
180.212709
 20
88.080732
 30
0.0
 10
179.354607
 20
85.113150
 30
0.0
  0
LWPOLYLINE
  5
2f0
100
AcDbEntity
  8
Decoupe_2
 62
6
100
AcDbPolyline
 90
4
 70
0
 10
179.354607
 20
80.113150
 30
0.0
 10
177.854607
 20
80.113150
 30
0.0
 10
177.854607
 20
85.113150
 30
0.0
 10
179.354607
 20
85.113150
 30
0.0
  0
SPLINE
  5
2f1
100
AcDbEntity
  8
Decoupe_2
 62
6
100
AcDbSpline
 70
8
 71
3
 72
8
 73
4
 74
0
 40
0
 40
0
 40
0
 40
0
 40
1
 40
1
 40
1
 40
1
 10
196.646217
 20
85.113150
 30
0.0
 10
195.788117
 20
88.080729
 30
0.0
 10
193.467996
 20
90.400850
 30
0.0
 10
190.500417
 20
91.258950
 30
0.0
  0
LWPOLYLINE
  5
2f2
100
AcDbEntity
  8
Decoupe_2
 62
6
100
AcDbPolyline
 90
4
 70
0
 10
185.500417
 20
91.258950
 30
0.0
 10
185.500417
 20
92.758950
 30
0.0
 10
190.500417
 20
92.758950
 30
0.0
 10
190.500417
 20
91.258950
 30
0.0
  0
SPLINE
  5
2f3
100
AcDbEntity
  8
Decoupe_2
 62
6
100
AcDbSpline
 70
8
 71
3
 72
8
 73
4
 74
0
 40
0
 40
0
 40
0
 40
0
 40
1
 40
1
 40
1
 40
1
 10
190.500417
 20
73.967350
 30
0.0
 10
193.467996
 20
74.825450
 30
0.0
 10
195.788117
 20
77.145571
 30
0.0
 10
196.646217
 20
80.113150
 30
0.0
  0
SPLINE
  5
2f4
100
AcDbEntity
  8
Decoupe_2
 62
5
100
AcDbSpline
 70
8
 71
3
 72
8
 73
4
 74
0
 40
0
 40
0
 40
0
 40
0
 40
1
 40
1
 40
1
 40
1
 10
176.704582
 20
91.938151
 30
0.0
 10
178.693705
 20
91.938151
 30
0.0
 10
180.601360
 20
92.728327
 30
0.0
 10
182.007882
 20
94.134850
 30
0.0
  0
SPLINE
  5
2f5
100
AcDbEntity
  8
Decoupe_2
 62
5
100
AcDbSpline
 70
8
 71
3
 72
8
 73
4
 74
0
 40
0
 40
0
 40
0
 40
0
 40
1
 40
1
 40
1
 40
1
 10
182.007882
 20
94.134850
 30
0.0
 10
183.414405
 20
95.541373
 30
0.0
 10
184.204582
 20
97.449027
 30
0.0
 10
184.204582
 20
99.438151
 30
0.0
  0
SPLINE
  5
2f6
100
AcDbEntity
  8
Decoupe_2
 62
5
100
AcDbSpline
 70
8
 71
3
 72
8
 73
4
 74
0
 40
0
 40
0
 40
0
 40
0
 40
1
 40
1
 40
1
 40
1
 10
184.204582
 20
99.438151
 30
0.0
 10
184.204582
 20
101.427275
 30
0.0
 10
183.414405
 20
103.334929
 30
0.0
 10
182.007882
 20
104.741452
 30
0.0
  0
SPLINE
  5
2f7
100
AcDbEntity
  8
Decoupe_2
 62
5
100
AcDbSpline
 70
8
 71
3
 72
8
 73
4
 74
0
 40
0
 40
0
 40
0
 40
0
 40
1
 40
1
 40
1
 40
1
 10
182.007882
 20
104.741452
 30
0.0
 10
180.601360
 20
106.147975
 30
0.0
 10
178.693705
 20
106.938151
 30
0.0
 10
176.704582
 20
106.938151
 30
0.0
  0
SPLINE
  5
2f8
100
AcDbEntity
  8
Decoupe_2
 62
5
100
AcDbSpline
 70
8
 71
3
 72
8
 73
4
 74
0
 40
0
 40
0
 40
0
 40
0
 40
1
 40
1
 40
1
 40
1
 10
176.704582
 20
106.938151
 30
0.0
 10
174.715458
 20
106.938151
 30
0.0
 10
172.807804
 20
106.147975
 30
0.0
 10
171.401281
 20
104.741452
 30
0.0
  0
SPLINE
  5
2f9
100
AcDbEntity
  8
Decoupe_2
 62
5
100
AcDbSpline
 70
8
 71
3
 72
8
 73
4
 74
0
 40
0
 40
0
 40
0
 40
0
 40
1
 40
1
 40
1
 40
1
 10
171.401281
 20
104.741452
 30
0.0
 10
169.994758
 20
103.334929
 30
0.0
 10
169.204582
 20
101.427275
 30
0.0
 10
169.204582
 20
99.438151
 30
0.0
  0
SPLINE
  5
2fa
100
AcDbEntity
  8
Decoupe_2
 62
5
100
AcDbSpline
 70
8
 71
3
 72
8
 73
4
 74
0
 40
0
 40
0
 40
0
 40
0
 40
1
 40
1
 40
1
 40
1
 10
169.204582
 20
99.438151
 30
0.0
 10
169.204582
 20
97.449027
 30
0.0
 10
169.994758
 20
95.541373
 30
0.0
 10
171.401281
 20
94.134850
 30
0.0
  0
SPLINE
  5
2fb
100
AcDbEntity
  8
Decoupe_2
 62
5
100
AcDbSpline
 70
8
 71
3
 72
8
 73
4
 74
0
 40
0
 40
0
 40
0
 40
0
 40
1
 40
1
 40
1
 40
1
 10
171.401281
 20
94.134850
 30
0.0
 10
172.807804
 20
92.728327
 30
0.0
 10
174.715458
 20
91.938151
 30
0.0
 10
176.704582
 20
91.938151
 30
0.0
  0
LWPOLYLINE
  5
2fc
100
AcDbEntity
  8
Decoupe_2
 62
6
100
AcDbPolyline
 90
4
 70
0
 10
196.646217
 20
85.113150
 30
0.0
 10
198.146217
 20
85.113150
 30
0.0
 10
198.146217
 20
80.113150
 30
0.0
 10
196.646217
 20
80.113150
 30
0.0
  0
LWPOLYLINE
  5
2fd
100
AcDbEntity
  8
Decoupe_2
 62
5
100
AcDbPolyline
 90
1
 70
1
 10
176.704582
 20
91.938151
 30
0.0
  0
SPLINE
  5
2fe
100
AcDbEntity
  8
Decoupe_2
 62
6
100
AcDbSpline
 70
8
 71
3
 72
8
 73
4
 74
0
 40
0
 40
0
 40
0
 40
0
 40
1
 40
1
 40
1
 40
1
 10
168.058773
 20
96.938150
 30
0.0
 10
168.916875
 20
93.970568
 30
0.0
 10
171.237000
 20
91.650447
 30
0.0
 10
174.204583
 20
90.792350
 30
0.0
  0
LWPOLYLINE
  5
2ff
100
AcDbEntity
  8
Decoupe_2
 62
6
100
AcDbPolyline
 90
4
 70
0
 10
179.204583
 20
90.792350
 30
0.0
 10
179.204583
 20
89.292350
 30
0.0
 10
174.204583
 20
89.292350
 30
0.0
 10
174.204583
 20
90.792350
 30
0.0
  0
SPLINE
  5
300
100
AcDbEntity
  8
Decoupe_2
 62
6
100
AcDbSpline
 70
8
 71
3
 72
8
 73
4
 74
0
 40
0
 40
0
 40
0
 40
0
 40
1
 40
1
 40
1
 40
1
 10
174.204583
 20
108.083950
 30
0.0
 10
171.237000
 20
107.225853
 30
0.0
 10
168.916875
 20
104.905732
 30
0.0
 10
168.058773
 20
101.938150
 30
0.0
  0
LWPOLYLINE
  5
301
100
AcDbEntity
  8
Decoupe_2
 62
6
100
AcDbPolyline
 90
4
 70
0
 10
168.058773
 20
96.938150
 30
0.0
 10
166.558773
 20
96.938150
 30
0.0
 10
166.558773
 20
101.938150
 30
0.0
 10
168.058773
 20
101.938150
 30
0.0
  0
SPLINE
  5
302
100
AcDbEntity
  8
Decoupe_2
 62
6
100
AcDbSpline
 70
8
 71
3
 72
8
 73
4
 74
0
 40
0
 40
0
 40
0
 40
0
 40
1
 40
1
 40
1
 40
1
 10
185.350383
 20
101.938150
 30
0.0
 10
184.492283
 20
104.905729
 30
0.0
 10
182.172162
 20
107.225850
 30
0.0
 10
179.204583
 20
108.083950
 30
0.0
  0
LWPOLYLINE
  5
303
100
AcDbEntity
  8
Decoupe_2
 62
6
100
AcDbPolyline
 90
4
 70
0
 10
174.204583
 20
108.083950
 30
0.0
 10
174.204583
 20
109.583950
 30
0.0
 10
179.204583
 20
109.583950
 30
0.0
 10
179.204583
 20
108.083950
 30
0.0
  0
SPLINE
  5
304
100
AcDbEntity
  8
Decoupe_2
 62
6
100
AcDbSpline
 70
8
 71
3
 72
8
 73
4
 74
0
 40
0
 40
0
 40
0
 40
0
 40
1
 40
1
 40
1
 40
1
 10
179.204583
 20
90.792350
 30
0.0
 10
182.172162
 20
91.650450
 30
0.0
 10
184.492283
 20
93.970571
 30
0.0
 10
185.350383
 20
96.938150
 30
0.0
  0
SPLINE
  5
305
100
AcDbEntity
  8
Decoupe_2
 62
5
100
AcDbSpline
 70
8
 71
3
 72
8
 73
4
 74
0
 40
0
 40
0
 40
0
 40
0
 40
1
 40
1
 40
1
 40
1
 10
198.263017
 20
59.098209
 30
0.0
 10
200.252141
 20
59.098209
 30
0.0
 10
202.159795
 20
59.888385
 30
0.0
 10
203.566318
 20
61.294908
 30
0.0
  0
SPLINE
  5
306
100
AcDbEntity
  8
Decoupe_2
 62
5
100
AcDbSpline
 70
8
 71
3
 72
8
 73
4
 74
0
 40
0
 40
0
 40
0
 40
0
 40
1
 40
1
 40
1
 40
1
 10
203.566318
 20
61.294908
 30
0.0
 10
204.972841
 20
62.701431
 30
0.0
 10
205.763017
 20
64.609085
 30
0.0
 10
205.763017
 20
66.598209
 30
0.0
  0
SPLINE
  5
307
100
AcDbEntity
  8
Decoupe_2
 62
5
100
AcDbSpline
 70
8
 71
3
 72
8
 73
4
 74
0
 40
0
 40
0
 40
0
 40
0
 40
1
 40
1
 40
1
 40
1
 10
205.763017
 20
66.598209
 30
0.0
 10
205.763017
 20
68.587333
 30
0.0
 10
204.972841
 20
70.494987
 30
0.0
 10
203.566318
 20
71.901510
 30
0.0
  0
SPLINE
  5
308
100
AcDbEntity
  8
Decoupe_2
 62
5
100
AcDbSpline
 70
8
 71
3
 72
8
 73
4
 74
0
 40
0
 40
0
 40
0
 40
0
 40
1
 40
1
 40
1
 40
1
 10
203.566318
 20
71.901510
 30
0.0
 10
202.159795
 20
73.308033
 30
0.0
 10
200.252141
 20
74.098209
 30
0.0
 10
198.263017
 20
74.098209
 30
0.0
  0
SPLINE
  5
309
100
AcDbEntity
  8
Decoupe_2
 62
5
100
AcDbSpline
 70
8
 71
3
 72
8
 73
4
 74
0
 40
0
 40
0
 40
0
 40
0
 40
1
 40
1
 40
1
 40
1
 10
198.263017
 20
74.098209
 30
0.0
 10
196.273893
 20
74.098209
 30
0.0
 10
194.366239
 20
73.308033
 30
0.0
 10
192.959716
 20
71.901510
 30
0.0
  0
SPLINE
  5
30a
100
AcDbEntity
  8
Decoupe_2
 62
5
100
AcDbSpline
 70
8
 71
3
 72
8
 73
4
 74
0
 40
0
 40
0
 40
0
 40
0
 40
1
 40
1
 40
1
 40
1
 10
192.959716
 20
71.901510
 30
0.0
 10
191.553193
 20
70.494987
 30
0.0
 10
190.763017
 20
68.587333
 30
0.0
 10
190.763017
 20
66.598209
 30
0.0
  0
SPLINE
  5
30b
100
AcDbEntity
  8
Decoupe_2
 62
5
100
AcDbSpline
 70
8
 71
3
 72
8
 73
4
 74
0
 40
0
 40
0
 40
0
 40
0
 40
1
 40
1
 40
1
 40
1
 10
190.763017
 20
66.598209
 30
0.0
 10
190.763017
 20
64.609085
 30
0.0
 10
191.553193
 20
62.701431
 30
0.0
 10
192.959716
 20
61.294908
 30
0.0
  0
SPLINE
  5
30c
100
AcDbEntity
  8
Decoupe_2
 62
5
100
AcDbSpline
 70
8
 71
3
 72
8
 73
4
 74
0
 40
0
 40
0
 40
0
 40
0
 40
1
 40
1
 40
1
 40
1
 10
192.959716
 20
61.294908
 30
0.0
 10
194.366239
 20
59.888385
 30
0.0
 10
196.273893
 20
59.098209
 30
0.0
 10
198.263017
 20
59.098209
 30
0.0
  0
LWPOLYLINE
  5
30d
100
AcDbEntity
  8
Decoupe_2
 62
6
100
AcDbPolyline
 90
4
 70
0
 10
185.350383
 20
101.938150
 30
0.0
 10
186.850383
 20
101.938150
 30
0.0
 10
186.850383
 20
96.938150
 30
0.0
 10
185.350383
 20
96.938150
 30
0.0
  0
LWPOLYLINE
  5
30e
100
AcDbEntity
  8
Decoupe_2
 62
5
100
AcDbPolyline
 90
1
 70
1
 10
198.263017
 20
59.098209
 30
0.0
  0
SPLINE
  5
30f
100
AcDbEntity
  8
Decoupe_2
 62
6
100
AcDbSpline
 70
8
 71
3
 72
8
 73
4
 74
0
 40
0
 40
0
 40
0
 40
0
 40
1
 40
1
 40
1
 40
1
 10
189.617207
 20
64.098199
 30
0.0
 10
190.475309
 20
61.130617
 30
0.0
 10
192.795434
 20
58.810496
 30
0.0
 10
195.763017
 20
57.952399
 30
0.0
  0
LWPOLYLINE
  5
310
100
AcDbEntity
  8
Decoupe_2
 62
6
100
AcDbPolyline
 90
4
 70
0
 10
200.763017
 20
57.952399
 30
0.0
 10
200.763017
 20
56.452399
 30
0.0
 10
195.763017
 20
56.452399
 30
0.0
 10
195.763017
 20
57.952399
 30
0.0
  0
SPLINE
  5
311
100
AcDbEntity
  8
Decoupe_2
 62
6
100
AcDbSpline
 70
8
 71
3
 72
8
 73
4
 74
0
 40
0
 40
0
 40
0
 40
0
 40
1
 40
1
 40
1
 40
1
 10
195.763017
 20
75.243999
 30
0.0
 10
192.795434
 20
74.385902
 30
0.0
 10
190.475309
 20
72.065781
 30
0.0
 10
189.617207
 20
69.098199
 30
0.0
  0
LWPOLYLINE
  5
312
100
AcDbEntity
  8
Decoupe_2
 62
6
100
AcDbPolyline
 90
4
 70
0
 10
189.617207
 20
64.098199
 30
0.0
 10
188.117207
 20
64.098199
 30
0.0
 10
188.117207
 20
69.098199
 30
0.0
 10
189.617207
 20
69.098199
 30
0.0
  0
SPLINE
  5
313
100
AcDbEntity
  8
Decoupe_2
 62
6
100
AcDbSpline
 70
8
 71
3
 72
8
 73
4
 74
0
 40
0
 40
0
 40
0
 40
0
 40
1
 40
1
 40
1
 40
1
 10
206.908817
 20
69.098199
 30
0.0
 10
206.050717
 20
72.065778
 30
0.0
 10
203.730596
 20
74.385899
 30
0.0
 10
200.763017
 20
75.243999
 30
0.0
  0
LWPOLYLINE
  5
314
100
AcDbEntity
  8
Decoupe_2
 62
6
100
AcDbPolyline
 90
4
 70
0
 10
195.763017
 20
75.243999
 30
0.0
 10
195.763017
 20
76.743999
 30
0.0
 10
200.763017
 20
76.743999
 30
0.0
 10
200.763017
 20
75.243999
 30
0.0
  0
SPLINE
  5
315
100
AcDbEntity
  8
Decoupe_2
 62
6
100
AcDbSpline
 70
8
 71
3
 72
8
 73
4
 74
0
 40
0
 40
0
 40
0
 40
0
 40
1
 40
1
 40
1
 40
1
 10
200.763017
 20
57.952399
 30
0.0
 10
203.730596
 20
58.810499
 30
0.0
 10
206.050717
 20
61.130620
 30
0.0
 10
206.908817
 20
64.098199
 30
0.0
  0
SPLINE
  5
316
100
AcDbEntity
  8
Decoupe_2
 62
5
100
AcDbSpline
 70
8
 71
3
 72
8
 73
4
 74
0
 40
0
 40
0
 40
0
 40
0
 40
1
 40
1
 40
1
 40
1
 10
176.441910
 20
59.098209
 30
0.0
 10
178.431034
 20
59.098209
 30
0.0
 10
180.338688
 20
59.888385
 30
0.0
 10
181.745211
 20
61.294908
 30
0.0
  0
SPLINE
  5
317
100
AcDbEntity
  8
Decoupe_2
 62
5
100
AcDbSpline
 70
8
 71
3
 72
8
 73
4
 74
0
 40
0
 40
0
 40
0
 40
0
 40
1
 40
1
 40
1
 40
1
 10
181.745211
 20
61.294908
 30
0.0
 10
183.151734
 20
62.701431
 30
0.0
 10
183.941910
 20
64.609085
 30
0.0
 10
183.941910
 20
66.598209
 30
0.0
  0
SPLINE
  5
318
100
AcDbEntity
  8
Decoupe_2
 62
5
100
AcDbSpline
 70
8
 71
3
 72
8
 73
4
 74
0
 40
0
 40
0
 40
0
 40
0
 40
1
 40
1
 40
1
 40
1
 10
183.941910
 20
66.598209
 30
0.0
 10
183.941910
 20
68.587333
 30
0.0
 10
183.151734
 20
70.494987
 30
0.0
 10
181.745211
 20
71.901510
 30
0.0
  0
SPLINE
  5
319
100
AcDbEntity
  8
Decoupe_2
 62
5
100
AcDbSpline
 70
8
 71
3
 72
8
 73
4
 74
0
 40
0
 40
0
 40
0
 40
0
 40
1
 40
1
 40
1
 40
1
 10
181.745211
 20
71.901510
 30
0.0
 10
180.338688
 20
73.308033
 30
0.0
 10
178.431034
 20
74.098209
 30
0.0
 10
176.441910
 20
74.098209
 30
0.0
  0
SPLINE
  5
31a
100
AcDbEntity
  8
Decoupe_2
 62
5
100
AcDbSpline
 70
8
 71
3
 72
8
 73
4
 74
0
 40
0
 40
0
 40
0
 40
0
 40
1
 40
1
 40
1
 40
1
 10
176.441910
 20
74.098209
 30
0.0
 10
174.452787
 20
74.098209
 30
0.0
 10
172.545132
 20
73.308033
 30
0.0
 10
171.138609
 20
71.901510
 30
0.0
  0
SPLINE
  5
31b
100
AcDbEntity
  8
Decoupe_2
 62
5
100
AcDbSpline
 70
8
 71
3
 72
8
 73
4
 74
0
 40
0
 40
0
 40
0
 40
0
 40
1
 40
1
 40
1
 40
1
 10
171.138609
 20
71.901510
 30
0.0
 10
169.732087
 20
70.494987
 30
0.0
 10
168.941910
 20
68.587333
 30
0.0
 10
168.941910
 20
66.598209
 30
0.0
  0
SPLINE
  5
31c
100
AcDbEntity
  8
Decoupe_2
 62
5
100
AcDbSpline
 70
8
 71
3
 72
8
 73
4
 74
0
 40
0
 40
0
 40
0
 40
0
 40
1
 40
1
 40
1
 40
1
 10
168.941910
 20
66.598209
 30
0.0
 10
168.941910
 20
64.609085
 30
0.0
 10
169.732087
 20
62.701431
 30
0.0
 10
171.138609
 20
61.294908
 30
0.0
  0
SPLINE
  5
31d
100
AcDbEntity
  8
Decoupe_2
 62
5
100
AcDbSpline
 70
8
 71
3
 72
8
 73
4
 74
0
 40
0
 40
0
 40
0
 40
0
 40
1
 40
1
 40
1
 40
1
 10
171.138609
 20
61.294908
 30
0.0
 10
172.545132
 20
59.888385
 30
0.0
 10
174.452787
 20
59.098209
 30
0.0
 10
176.441910
 20
59.098209
 30
0.0
  0
LWPOLYLINE
  5
31e
100
AcDbEntity
  8
Decoupe_2
 62
6
100
AcDbPolyline
 90
4
 70
0
 10
206.908817
 20
69.098199
 30
0.0
 10
208.408817
 20
69.098199
 30
0.0
 10
208.408817
 20
64.098199
 30
0.0
 10
206.908817
 20
64.098199
 30
0.0
  0
LWPOLYLINE
  5
31f
100
AcDbEntity
  8
Decoupe_2
 62
5
100
AcDbPolyline
 90
1
 70
1
 10
176.441910
 20
59.098209
 30
0.0
  0
SPLINE
  5
320
100
AcDbEntity
  8
Decoupe_2
 62
6
100
AcDbSpline
 70
8
 71
3
 72
8
 73
4
 74
0
 40
0
 40
0
 40
0
 40
0
 40
1
 40
1
 40
1
 40
1
 10
167.796100
 20
64.098199
 30
0.0
 10
168.654202
 20
61.130617
 30
0.0
 10
170.974327
 20
58.810496
 30
0.0
 10
173.941910
 20
57.952399
 30
0.0
  0
LWPOLYLINE
  5
321
100
AcDbEntity
  8
Decoupe_2
 62
6
100
AcDbPolyline
 90
4
 70
0
 10
178.941910
 20
57.952399
 30
0.0
 10
178.941910
 20
56.452399
 30
0.0
 10
173.941910
 20
56.452399
 30
0.0
 10
173.941910
 20
57.952399
 30
0.0
  0
SPLINE
  5
322
100
AcDbEntity
  8
Decoupe_2
 62
6
100
AcDbSpline
 70
8
 71
3
 72
8
 73
4
 74
0
 40
0
 40
0
 40
0
 40
0
 40
1
 40
1
 40
1
 40
1
 10
173.941910
 20
75.243999
 30
0.0
 10
170.974327
 20
74.385902
 30
0.0
 10
168.654202
 20
72.065781
 30
0.0
 10
167.796100
 20
69.098199
 30
0.0
  0
LWPOLYLINE
  5
323
100
AcDbEntity
  8
Decoupe_2
 62
6
100
AcDbPolyline
 90
4
 70
0
 10
167.796100
 20
64.098199
 30
0.0
 10
166.296100
 20
64.098199
 30
0.0
 10
166.296100
 20
69.098199
 30
0.0
 10
167.796100
 20
69.098199
 30
0.0
  0
SPLINE
  5
324
100
AcDbEntity
  8
Decoupe_2
 62
6
100
AcDbSpline
 70
8
 71
3
 72
8
 73
4
 74
0
 40
0
 40
0
 40
0
 40
0
 40
1
 40
1
 40
1
 40
1
 10
185.087710
 20
69.098199
 30
0.0
 10
184.229610
 20
72.065778
 30
0.0
 10
181.909489
 20
74.385899
 30
0.0
 10
178.941910
 20
75.243999
 30
0.0
  0
LWPOLYLINE
  5
325
100
AcDbEntity
  8
Decoupe_2
 62
6
100
AcDbPolyline
 90
4
 70
0
 10
173.941910
 20
75.243999
 30
0.0
 10
173.941910
 20
76.743999
 30
0.0
 10
178.941910
 20
76.743999
 30
0.0
 10
178.941910
 20
75.243999
 30
0.0
  0
SPLINE
  5
326
100
AcDbEntity
  8
Decoupe_2
 62
6
100
AcDbSpline
 70
8
 71
3
 72
8
 73
4
 74
0
 40
0
 40
0
 40
0
 40
0
 40
1
 40
1
 40
1
 40
1
 10
178.941910
 20
57.952399
 30
0.0
 10
181.909489
 20
58.810499
 30
0.0
 10
184.229610
 20
61.130620
 30
0.0
 10
185.087710
 20
64.098199
 30
0.0
  0
SPLINE
  5
327
100
AcDbEntity
  8
Decoupe_2
 62
5
100
AcDbSpline
 70
8
 71
3
 72
8
 73
4
 74
0
 40
0
 40
0
 40
0
 40
0
 40
1
 40
1
 40
1
 40
1
 10
198.773401
 20
91.870601
 30
0.0
 10
200.762525
 20
91.870601
 30
0.0
 10
202.670179
 20
92.660777
 30
0.0
 10
204.076702
 20
94.067300
 30
0.0
  0
SPLINE
  5
328
100
AcDbEntity
  8
Decoupe_2
 62
5
100
AcDbSpline
 70
8
 71
3
 72
8
 73
4
 74
0
 40
0
 40
0
 40
0
 40
0
 40
1
 40
1
 40
1
 40
1
 10
204.076702
 20
94.067300
 30
0.0
 10
205.483225
 20
95.473823
 30
0.0
 10
206.273401
 20
97.381477
 30
0.0
 10
206.273401
 20
99.370601
 30
0.0
  0
SPLINE
  5
329
100
AcDbEntity
  8
Decoupe_2
 62
5
100
AcDbSpline
 70
8
 71
3
 72
8
 73
4
 74
0
 40
0
 40
0
 40
0
 40
0
 40
1
 40
1
 40
1
 40
1
 10
206.273401
 20
99.370601
 30
0.0
 10
206.273401
 20
101.359725
 30
0.0
 10
205.483225
 20
103.267379
 30
0.0
 10
204.076702
 20
104.673902
 30
0.0
  0
SPLINE
  5
32a
100
AcDbEntity
  8
Decoupe_2
 62
5
100
AcDbSpline
 70
8
 71
3
 72
8
 73
4
 74
0
 40
0
 40
0
 40
0
 40
0
 40
1
 40
1
 40
1
 40
1
 10
204.076702
 20
104.673902
 30
0.0
 10
202.670179
 20
106.080425
 30
0.0
 10
200.762525
 20
106.870601
 30
0.0
 10
198.773401
 20
106.870601
 30
0.0
  0
SPLINE
  5
32b
100
AcDbEntity
  8
Decoupe_2
 62
5
100
AcDbSpline
 70
8
 71
3
 72
8
 73
4
 74
0
 40
0
 40
0
 40
0
 40
0
 40
1
 40
1
 40
1
 40
1
 10
198.773401
 20
106.870601
 30
0.0
 10
196.784278
 20
106.870601
 30
0.0
 10
194.876623
 20
106.080425
 30
0.0
 10
193.470100
 20
104.673902
 30
0.0
  0
SPLINE
  5
32c
100
AcDbEntity
  8
Decoupe_2
 62
5
100
AcDbSpline
 70
8
 71
3
 72
8
 73
4
 74
0
 40
0
 40
0
 40
0
 40
0
 40
1
 40
1
 40
1
 40
1
 10
193.470100
 20
104.673902
 30
0.0
 10
192.063578
 20
103.267379
 30
0.0
 10
191.273401
 20
101.359725
 30
0.0
 10
191.273401
 20
99.370601
 30
0.0
  0
SPLINE
  5
32d
100
AcDbEntity
  8
Decoupe_2
 62
5
100
AcDbSpline
 70
8
 71
3
 72
8
 73
4
 74
0
 40
0
 40
0
 40
0
 40
0
 40
1
 40
1
 40
1
 40
1
 10
191.273401
 20
99.370601
 30
0.0
 10
191.273401
 20
97.381477
 30
0.0
 10
192.063578
 20
95.473823
 30
0.0
 10
193.470100
 20
94.067300
 30
0.0
  0
SPLINE
  5
32e
100
AcDbEntity
  8
Decoupe_2
 62
5
100
AcDbSpline
 70
8
 71
3
 72
8
 73
4
 74
0
 40
0
 40
0
 40
0
 40
0
 40
1
 40
1
 40
1
 40
1
 10
193.470100
 20
94.067300
 30
0.0
 10
194.876623
 20
92.660777
 30
0.0
 10
196.784278
 20
91.870601
 30
0.0
 10
198.773401
 20
91.870601
 30
0.0
  0
LWPOLYLINE
  5
32f
100
AcDbEntity
  8
Decoupe_2
 62
6
100
AcDbPolyline
 90
4
 70
0
 10
185.087710
 20
69.098199
 30
0.0
 10
186.587710
 20
69.098199
 30
0.0
 10
186.587710
 20
64.098199
 30
0.0
 10
185.087710
 20
64.098199
 30
0.0
  0
LWPOLYLINE
  5
330
100
AcDbEntity
  8
Decoupe_2
 62
5
100
AcDbPolyline
 90
1
 70
1
 10
198.773401
 20
91.870601
 30
0.0
  0
SPLINE
  5
331
100
AcDbEntity
  8
Decoupe_2
 62
6
100
AcDbSpline
 70
8
 71
3
 72
8
 73
4
 74
0
 40
0
 40
0
 40
0
 40
0
 40
1
 40
1
 40
1
 40
1
 10
190.127593
 20
96.870600
 30
0.0
 10
190.985695
 20
93.903018
 30
0.0
 10
193.305820
 20
91.582897
 30
0.0
 10
196.273403
 20
90.724800
 30
0.0
  0
LWPOLYLINE
  5
332
100
AcDbEntity
  8
Decoupe_2
 62
6
100
AcDbPolyline
 90
4
 70
0
 10
201.273403
 20
90.724800
 30
0.0
 10
201.273403
 20
89.224800
 30
0.0
 10
196.273403
 20
89.224800
 30
0.0
 10
196.273403
 20
90.724800
 30
0.0
  0
SPLINE
  5
333
100
AcDbEntity
  8
Decoupe_2
 62
6
100
AcDbSpline
 70
8
 71
3
 72
8
 73
4
 74
0
 40
0
 40
0
 40
0
 40
0
 40
1
 40
1
 40
1
 40
1
 10
196.273403
 20
108.016400
 30
0.0
 10
193.305820
 20
107.158303
 30
0.0
 10
190.985695
 20
104.838181
 30
0.0
 10
190.127593
 20
101.870600
 30
0.0
  0
LWPOLYLINE
  5
334
100
AcDbEntity
  8
Decoupe_2
 62
6
100
AcDbPolyline
 90
4
 70
0
 10
190.127593
 20
96.870600
 30
0.0
 10
188.627593
 20
96.870600
 30
0.0
 10
188.627593
 20
101.870600
 30
0.0
 10
190.127593
 20
101.870600
 30
0.0
  0
SPLINE
  5
335
100
AcDbEntity
  8
Decoupe_2
 62
6
100
AcDbSpline
 70
8
 71
3
 72
8
 73
4
 74
0
 40
0
 40
0
 40
0
 40
0
 40
1
 40
1
 40
1
 40
1
 10
207.419203
 20
101.870600
 30
0.0
 10
206.561103
 20
104.838179
 30
0.0
 10
204.240982
 20
107.158300
 30
0.0
 10
201.273403
 20
108.016400
 30
0.0
  0
LWPOLYLINE
  5
336
100
AcDbEntity
  8
Decoupe_2
 62
6
100
AcDbPolyline
 90
4
 70
0
 10
196.273403
 20
108.016400
 30
0.0
 10
196.273403
 20
109.516400
 30
0.0
 10
201.273403
 20
109.516400
 30
0.0
 10
201.273403
 20
108.016400
 30
0.0
  0
SPLINE
  5
337
100
AcDbEntity
  8
Decoupe_2
 62
6
100
AcDbSpline
 70
8
 71
3
 72
8
 73
4
 74
0
 40
0
 40
0
 40
0
 40
0
 40
1
 40
1
 40
1
 40
1
 10
201.273403
 20
90.724800
 30
0.0
 10
204.240982
 20
91.582900
 30
0.0
 10
206.561103
 20
93.903021
 30
0.0
 10
207.419203
 20
96.870600
 30
0.0
  0
SPLINE
  5
338
100
AcDbEntity
  8
Decoupe_2
 62
3
100
AcDbSpline
 70
8
 71
3
 72
8
 73
4
 74
0
 40
0
 40
0
 40
0
 40
0
 40
1
 40
1
 40
1
 40
1
 10
251.879653
 20
85.729950
 30
0.0
 10
251.879653
 20
85.617089
 30
0.0
 10
251.819442
 20
85.512801
 30
0.0
 10
251.721701
 20
85.456370
 30
0.0
  0
SPLINE
  5
339
100
AcDbEntity
  8
Decoupe_2
 62
3
100
AcDbSpline
 70
8
 71
3
 72
8
 73
4
 74
0
 40
0
 40
0
 40
0
 40
0
 40
1
 40
1
 40
1
 40
1
 10
251.721701
 20
85.456370
 30
0.0
 10
251.623961
 20
85.399940
 30
0.0
 10
251.503539
 20
85.399940
 30
0.0
 10
251.405799
 20
85.456370
 30
0.0
  0
SPLINE
  5
33a
100
AcDbEntity
  8
Decoupe_2
 62
3
100
AcDbSpline
 70
8
 71
3
 72
8
 73
4
 74
0
 40
0
 40
0
 40
0
 40
0
 40
1
 40
1
 40
1
 40
1
 10
251.405799
 20
85.456370
 30
0.0
 10
251.308058
 20
85.512801
 30
0.0
 10
251.247847
 20
85.617089
 30
0.0
 10
251.247847
 20
85.729950
 30
0.0
  0
SPLINE
  5
33b
100
AcDbEntity
  8
Decoupe_2
 62
3
100
AcDbSpline
 70
8
 71
3
 72
8
 73
4
 74
0
 40
0
 40
0
 40
0
 40
0
 40
1
 40
1
 40
1
 40
1
 10
251.247847
 20
85.729950
 30
0.0
 10
251.247847
 20
85.904418
 30
0.0
 10
251.389282
 20
86.045852
 30
0.0
 10
251.563750
 20
86.045852
 30
0.0
  0
SPLINE
  5
33c
100
AcDbEntity
  8
Decoupe_2
 62
3
100
AcDbSpline
 70
8
 71
3
 72
8
 73
4
 74
0
 40
0
 40
0
 40
0
 40
0
 40
1
 40
1
 40
1
 40
1
 10
251.563750
 20
86.045852
 30
0.0
 10
251.738218
 20
86.045852
 30
0.0
 10
251.879653
 20
85.904418
 30
0.0
 10
251.879653
 20
85.729950
 30
0.0
  0
LWPOLYLINE
  5
33d
100
AcDbEntity
  8
Decoupe_2
 62
6
100
AcDbPolyline
 90
4
 70
0
 10
207.419203
 20
101.870600
 30
0.0
 10
208.919203
 20
101.870600
 30
0.0
 10
208.919203
 20
96.870600
 30
0.0
 10
207.419203
 20
96.870600
 30
0.0
  0
SPLINE
  5
33e
100
AcDbEntity
  8
Decoupe_2
 62
3
100
AcDbSpline
 70
8
 71
3
 72
8
 73
4
 74
0
 40
0
 40
0
 40
0
 40
0
 40
1
 40
1
 40
1
 40
1
 10
280.055163
 20
85.729950
 30
0.0
 10
280.055163
 20
85.617089
 30
0.0
 10
279.994952
 20
85.512801
 30
0.0
 10
279.897211
 20
85.456370
 30
0.0
  0
SPLINE
  5
33f
100
AcDbEntity
  8
Decoupe_2
 62
3
100
AcDbSpline
 70
8
 71
3
 72
8
 73
4
 74
0
 40
0
 40
0
 40
0
 40
0
 40
1
 40
1
 40
1
 40
1
 10
279.897211
 20
85.456370
 30
0.0
 10
279.799471
 20
85.399940
 30
0.0
 10
279.679049
 20
85.399940
 30
0.0
 10
279.581309
 20
85.456370
 30
0.0
  0
SPLINE
  5
340
100
AcDbEntity
  8
Decoupe_2
 62
3
100
AcDbSpline
 70
8
 71
3
 72
8
 73
4
 74
0
 40
0
 40
0
 40
0
 40
0
 40
1
 40
1
 40
1
 40
1
 10
279.581309
 20
85.456370
 30
0.0
 10
279.483568
 20
85.512801
 30
0.0
 10
279.423357
 20
85.617089
 30
0.0
 10
279.423357
 20
85.729950
 30
0.0
  0
SPLINE
  5
341
100
AcDbEntity
  8
Decoupe_2
 62
3
100
AcDbSpline
 70
8
 71
3
 72
8
 73
4
 74
0
 40
0
 40
0
 40
0
 40
0
 40
1
 40
1
 40
1
 40
1
 10
279.423357
 20
85.729950
 30
0.0
 10
279.423357
 20
85.904418
 30
0.0
 10
279.564792
 20
86.045852
 30
0.0
 10
279.739260
 20
86.045852
 30
0.0
  0
SPLINE
  5
342
100
AcDbEntity
  8
Decoupe_2
 62
3
100
AcDbSpline
 70
8
 71
3
 72
8
 73
4
 74
0
 40
0
 40
0
 40
0
 40
0
 40
1
 40
1
 40
1
 40
1
 10
279.739260
 20
86.045852
 30
0.0
 10
279.913728
 20
86.045852
 30
0.0
 10
280.055163
 20
85.904418
 30
0.0
 10
280.055163
 20
85.729950
 30
0.0
  0
LWPOLYLINE
  5
343
100
AcDbEntity
  8
Decoupe_2
 62
3
100
AcDbPolyline
 90
1
 70
1
 10
251.879653
 20
85.729950
 30
0.0
  0
SPLINE
  5
344
100
AcDbEntity
  8
Decoupe_2
 62
3
100
AcDbSpline
 70
8
 71
3
 72
8
 73
4
 74
0
 40
0
 40
0
 40
0
 40
0
 40
1
 40
1
 40
1
 40
1
 10
280.055163
 20
70.431230
 30
0.0
 10
280.055163
 20
70.318369
 30
0.0
 10
279.994952
 20
70.214081
 30
0.0
 10
279.897211
 20
70.157650
 30
0.0
  0
SPLINE
  5
345
100
AcDbEntity
  8
Decoupe_2
 62
3
100
AcDbSpline
 70
8
 71
3
 72
8
 73
4
 74
0
 40
0
 40
0
 40
0
 40
0
 40
1
 40
1
 40
1
 40
1
 10
279.897211
 20
70.157650
 30
0.0
 10
279.799471
 20
70.101220
 30
0.0
 10
279.679049
 20
70.101220
 30
0.0
 10
279.581309
 20
70.157650
 30
0.0
  0
SPLINE
  5
346
100
AcDbEntity
  8
Decoupe_2
 62
3
100
AcDbSpline
 70
8
 71
3
 72
8
 73
4
 74
0
 40
0
 40
0
 40
0
 40
0
 40
1
 40
1
 40
1
 40
1
 10
279.581309
 20
70.157650
 30
0.0
 10
279.483568
 20
70.214081
 30
0.0
 10
279.423357
 20
70.318369
 30
0.0
 10
279.423357
 20
70.431230
 30
0.0
  0
SPLINE
  5
347
100
AcDbEntity
  8
Decoupe_2
 62
3
100
AcDbSpline
 70
8
 71
3
 72
8
 73
4
 74
0
 40
0
 40
0
 40
0
 40
0
 40
1
 40
1
 40
1
 40
1
 10
279.423357
 20
70.431230
 30
0.0
 10
279.423357
 20
70.605698
 30
0.0
 10
279.564792
 20
70.747132
 30
0.0
 10
279.739260
 20
70.747132
 30
0.0
  0
SPLINE
  5
348
100
AcDbEntity
  8
Decoupe_2
 62
3
100
AcDbSpline
 70
8
 71
3
 72
8
 73
4
 74
0
 40
0
 40
0
 40
0
 40
0
 40
1
 40
1
 40
1
 40
1
 10
279.739260
 20
70.747132
 30
0.0
 10
279.913728
 20
70.747132
 30
0.0
 10
280.055163
 20
70.605698
 30
0.0
 10
280.055163
 20
70.431230
 30
0.0
  0
LWPOLYLINE
  5
349
100
AcDbEntity
  8
Decoupe_2
 62
3
100
AcDbPolyline
 90
1
 70
1
 10
280.055163
 20
85.729950
 30
0.0
  0
SPLINE
  5
34a
100
AcDbEntity
  8
Decoupe_2
 62
3
100
AcDbSpline
 70
8
 71
3
 72
8
 73
4
 74
0
 40
0
 40
0
 40
0
 40
0
 40
1
 40
1
 40
1
 40
1
 10
251.879653
 20
70.431230
 30
0.0
 10
251.879653
 20
70.318369
 30
0.0
 10
251.819442
 20
70.214081
 30
0.0
 10
251.721701
 20
70.157650
 30
0.0
  0
SPLINE
  5
34b
100
AcDbEntity
  8
Decoupe_2
 62
3
100
AcDbSpline
 70
8
 71
3
 72
8
 73
4
 74
0
 40
0
 40
0
 40
0
 40
0
 40
1
 40
1
 40
1
 40
1
 10
251.721701
 20
70.157650
 30
0.0
 10
251.623961
 20
70.101220
 30
0.0
 10
251.503539
 20
70.101220
 30
0.0
 10
251.405799
 20
70.157650
 30
0.0
  0
SPLINE
  5
34c
100
AcDbEntity
  8
Decoupe_2
 62
3
100
AcDbSpline
 70
8
 71
3
 72
8
 73
4
 74
0
 40
0
 40
0
 40
0
 40
0
 40
1
 40
1
 40
1
 40
1
 10
251.405799
 20
70.157650
 30
0.0
 10
251.308058
 20
70.214081
 30
0.0
 10
251.247847
 20
70.318369
 30
0.0
 10
251.247847
 20
70.431230
 30
0.0
  0
SPLINE
  5
34d
100
AcDbEntity
  8
Decoupe_2
 62
3
100
AcDbSpline
 70
8
 71
3
 72
8
 73
4
 74
0
 40
0
 40
0
 40
0
 40
0
 40
1
 40
1
 40
1
 40
1
 10
251.247847
 20
70.431230
 30
0.0
 10
251.247847
 20
70.605698
 30
0.0
 10
251.389282
 20
70.747132
 30
0.0
 10
251.563750
 20
70.747132
 30
0.0
  0
SPLINE
  5
34e
100
AcDbEntity
  8
Decoupe_2
 62
3
100
AcDbSpline
 70
8
 71
3
 72
8
 73
4
 74
0
 40
0
 40
0
 40
0
 40
0
 40
1
 40
1
 40
1
 40
1
 10
251.563750
 20
70.747132
 30
0.0
 10
251.738218
 20
70.747132
 30
0.0
 10
251.879653
 20
70.605698
 30
0.0
 10
251.879653
 20
70.431230
 30
0.0
  0
LWPOLYLINE
  5
34f
100
AcDbEntity
  8
Decoupe_2
 62
3
100
AcDbPolyline
 90
1
 70
1
 10
280.055163
 20
70.431230
 30
0.0
  0
LWPOLYLINE
  5
350
100
AcDbEntity
  8
Decoupe_2
 62
3
100
AcDbPolyline
 90
1
 70
1
 10
251.879653
 20
70.431230
 30
0.0
  0
LWPOLYLINE
  5
351
100
AcDbEntity
  8
Decoupe_2
 62
3
100
AcDbPolyline
 90
4
 70
1
 10
173.287120
 20
132.239105
 30
0.0
 10
198.688258
 20
132.239105
 30
0.0
 10
198.688258
 20
116.241073
 30
0.0
 10
173.287120
 20
116.241073
 30
0.0
  0
SPLINE
  5
352
100
AcDbEntity
  8
Decoupe_2
 62
3
100
AcDbSpline
 70
8
 71
3
 72
8
 73
4
 74
0
 40
0
 40
0
 40
0
 40
0
 40
1
 40
1
 40
1
 40
1
 10
174.839253
 20
130.909340
 30
0.0
 10
174.839253
 20
130.796479
 30
0.0
 10
174.779042
 20
130.692191
 30
0.0
 10
174.681301
 20
130.635760
 30
0.0
  0
SPLINE
  5
353
100
AcDbEntity
  8
Decoupe_2
 62
3
100
AcDbSpline
 70
8
 71
3
 72
8
 73
4
 74
0
 40
0
 40
0
 40
0
 40
0
 40
1
 40
1
 40
1
 40
1
 10
174.681301
 20
130.635760
 30
0.0
 10
174.583561
 20
130.579330
 30
0.0
 10
174.463139
 20
130.579330
 30
0.0
 10
174.365399
 20
130.635760
 30
0.0
  0
SPLINE
  5
354
100
AcDbEntity
  8
Decoupe_2
 62
3
100
AcDbSpline
 70
8
 71
3
 72
8
 73
4
 74
0
 40
0
 40
0
 40
0
 40
0
 40
1
 40
1
 40
1
 40
1
 10
174.365399
 20
130.635760
 30
0.0
 10
174.267658
 20
130.692191
 30
0.0
 10
174.207447
 20
130.796479
 30
0.0
 10
174.207447
 20
130.909340
 30
0.0
  0
SPLINE
  5
355
100
AcDbEntity
  8
Decoupe_2
 62
3
100
AcDbSpline
 70
8
 71
3
 72
8
 73
4
 74
0
 40
0
 40
0
 40
0
 40
0
 40
1
 40
1
 40
1
 40
1
 10
174.207447
 20
130.909340
 30
0.0
 10
174.207447
 20
131.022201
 30
0.0
 10
174.267658
 20
131.126489
 30
0.0
 10
174.365399
 20
131.182920
 30
0.0
  0
SPLINE
  5
356
100
AcDbEntity
  8
Decoupe_2
 62
3
100
AcDbSpline
 70
8
 71
3
 72
8
 73
4
 74
0
 40
0
 40
0
 40
0
 40
0
 40
1
 40
1
 40
1
 40
1
 10
174.365399
 20
131.182920
 30
0.0
 10
174.463139
 20
131.239350
 30
0.0
 10
174.583561
 20
131.239350
 30
0.0
 10
174.681301
 20
131.182920
 30
0.0
  0
SPLINE
  5
357
100
AcDbEntity
  8
Decoupe_2
 62
3
100
AcDbSpline
 70
8
 71
3
 72
8
 73
4
 74
0
 40
0
 40
0
 40
0
 40
0
 40
1
 40
1
 40
1
 40
1
 10
174.681301
 20
131.182920
 30
0.0
 10
174.779042
 20
131.126489
 30
0.0
 10
174.839253
 20
131.022201
 30
0.0
 10
174.839253
 20
130.909340
 30
0.0
  0
LWPOLYLINE
  5
358
100
AcDbEntity
  8
Decoupe_2
 62
3
100
AcDbPolyline
 90
4
 70
1
 10
249.841690
 20
87.095700
 30
0.0
 10
281.625025
 20
87.095700
 30
0.0
 10
281.625025
 20
69.097907
 30
0.0
 10
249.841690
 20
69.097907
 30
0.0
  0
SPLINE
  5
359
100
AcDbEntity
  8
Decoupe_2
 62
3
100
AcDbSpline
 70
8
 71
3
 72
8
 73
4
 74
0
 40
0
 40
0
 40
0
 40
0
 40
1
 40
1
 40
1
 40
1
 10
197.655033
 20
130.909340
 30
0.0
 10
197.655033
 20
130.796479
 30
0.0
 10
197.594822
 20
130.692191
 30
0.0
 10
197.497081
 20
130.635760
 30
0.0
  0
SPLINE
  5
35a
100
AcDbEntity
  8
Decoupe_2
 62
3
100
AcDbSpline
 70
8
 71
3
 72
8
 73
4
 74
0
 40
0
 40
0
 40
0
 40
0
 40
1
 40
1
 40
1
 40
1
 10
197.497081
 20
130.635760
 30
0.0
 10
197.399341
 20
130.579330
 30
0.0
 10
197.278919
 20
130.579330
 30
0.0
 10
197.181179
 20
130.635760
 30
0.0
  0
SPLINE
  5
35b
100
AcDbEntity
  8
Decoupe_2
 62
3
100
AcDbSpline
 70
8
 71
3
 72
8
 73
4
 74
0
 40
0
 40
0
 40
0
 40
0
 40
1
 40
1
 40
1
 40
1
 10
197.181179
 20
130.635760
 30
0.0
 10
197.083438
 20
130.692191
 30
0.0
 10
197.023227
 20
130.796479
 30
0.0
 10
197.023227
 20
130.909340
 30
0.0
  0
SPLINE
  5
35c
100
AcDbEntity
  8
Decoupe_2
 62
3
100
AcDbSpline
 70
8
 71
3
 72
8
 73
4
 74
0
 40
0
 40
0
 40
0
 40
0
 40
1
 40
1
 40
1
 40
1
 10
197.023227
 20
130.909340
 30
0.0
 10
197.023227
 20
131.022201
 30
0.0
 10
197.083438
 20
131.126489
 30
0.0
 10
197.181179
 20
131.182920
 30
0.0
  0
SPLINE
  5
35d
100
AcDbEntity
  8
Decoupe_2
 62
3
100
AcDbSpline
 70
8
 71
3
 72
8
 73
4
 74
0
 40
0
 40
0
 40
0
 40
0
 40
1
 40
1
 40
1
 40
1
 10
197.181179
 20
131.182920
 30
0.0
 10
197.278919
 20
131.239350
 30
0.0
 10
197.399341
 20
131.239350
 30
0.0
 10
197.497081
 20
131.182920
 30
0.0
  0
SPLINE
  5
35e
100
AcDbEntity
  8
Decoupe_2
 62
3
100
AcDbSpline
 70
8
 71
3
 72
8
 73
4
 74
0
 40
0
 40
0
 40
0
 40
0
 40
1
 40
1
 40
1
 40
1
 10
197.497081
 20
131.182920
 30
0.0
 10
197.594822
 20
131.126489
 30
0.0
 10
197.655033
 20
131.022201
 30
0.0
 10
197.655033
 20
130.909340
 30
0.0
  0
LWPOLYLINE
  5
35f
100
AcDbEntity
  8
Decoupe_2
 62
3
100
AcDbPolyline
 90
1
 70
1
 10
174.839253
 20
130.909340
 30
0.0
  0
SPLINE
  5
360
100
AcDbEntity
  8
Decoupe_2
 62
3
100
AcDbSpline
 70
8
 71
3
 72
8
 73
4
 74
0
 40
0
 40
0
 40
0
 40
0
 40
1
 40
1
 40
1
 40
1
 10
197.655033
 20
117.384766
 30
0.0
 10
197.655033
 20
117.271905
 30
0.0
 10
197.594822
 20
117.167617
 30
0.0
 10
197.497081
 20
117.111186
 30
0.0
  0
SPLINE
  5
361
100
AcDbEntity
  8
Decoupe_2
 62
3
100
AcDbSpline
 70
8
 71
3
 72
8
 73
4
 74
0
 40
0
 40
0
 40
0
 40
0
 40
1
 40
1
 40
1
 40
1
 10
197.497081
 20
117.111186
 30
0.0
 10
197.399341
 20
117.054756
 30
0.0
 10
197.278919
 20
117.054756
 30
0.0
 10
197.181179
 20
117.111186
 30
0.0
  0
SPLINE
  5
362
100
AcDbEntity
  8
Decoupe_2
 62
3
100
AcDbSpline
 70
8
 71
3
 72
8
 73
4
 74
0
 40
0
 40
0
 40
0
 40
0
 40
1
 40
1
 40
1
 40
1
 10
197.181179
 20
117.111186
 30
0.0
 10
197.083438
 20
117.167617
 30
0.0
 10
197.023227
 20
117.271905
 30
0.0
 10
197.023227
 20
117.384766
 30
0.0
  0
SPLINE
  5
363
100
AcDbEntity
  8
Decoupe_2
 62
3
100
AcDbSpline
 70
8
 71
3
 72
8
 73
4
 74
0
 40
0
 40
0
 40
0
 40
0
 40
1
 40
1
 40
1
 40
1
 10
197.023227
 20
117.384766
 30
0.0
 10
197.023227
 20
117.497627
 30
0.0
 10
197.083438
 20
117.601915
 30
0.0
 10
197.181179
 20
117.658346
 30
0.0
  0
SPLINE
  5
364
100
AcDbEntity
  8
Decoupe_2
 62
3
100
AcDbSpline
 70
8
 71
3
 72
8
 73
4
 74
0
 40
0
 40
0
 40
0
 40
0
 40
1
 40
1
 40
1
 40
1
 10
197.181179
 20
117.658346
 30
0.0
 10
197.278919
 20
117.714776
 30
0.0
 10
197.399341
 20
117.714776
 30
0.0
 10
197.497081
 20
117.658346
 30
0.0
  0
SPLINE
  5
365
100
AcDbEntity
  8
Decoupe_2
 62
3
100
AcDbSpline
 70
8
 71
3
 72
8
 73
4
 74
0
 40
0
 40
0
 40
0
 40
0
 40
1
 40
1
 40
1
 40
1
 10
197.497081
 20
117.658346
 30
0.0
 10
197.594822
 20
117.601915
 30
0.0
 10
197.655033
 20
117.497627
 30
0.0
 10
197.655033
 20
117.384766
 30
0.0
  0
LWPOLYLINE
  5
366
100
AcDbEntity
  8
Decoupe_2
 62
3
100
AcDbPolyline
 90
1
 70
1
 10
197.655033
 20
130.909340
 30
0.0
  0
SPLINE
  5
367
100
AcDbEntity
  8
Decoupe_2
 62
3
100
AcDbSpline
 70
8
 71
3
 72
8
 73
4
 74
0
 40
0
 40
0
 40
0
 40
0
 40
1
 40
1
 40
1
 40
1
 10
174.839253
 20
117.384766
 30
0.0
 10
174.839253
 20
117.271905
 30
0.0
 10
174.779042
 20
117.167617
 30
0.0
 10
174.681301
 20
117.111186
 30
0.0
  0
SPLINE
  5
368
100
AcDbEntity
  8
Decoupe_2
 62
3
100
AcDbSpline
 70
8
 71
3
 72
8
 73
4
 74
0
 40
0
 40
0
 40
0
 40
0
 40
1
 40
1
 40
1
 40
1
 10
174.681301
 20
117.111186
 30
0.0
 10
174.583561
 20
117.054756
 30
0.0
 10
174.463139
 20
117.054756
 30
0.0
 10
174.365399
 20
117.111186
 30
0.0
  0
SPLINE
  5
369
100
AcDbEntity
  8
Decoupe_2
 62
3
100
AcDbSpline
 70
8
 71
3
 72
8
 73
4
 74
0
 40
0
 40
0
 40
0
 40
0
 40
1
 40
1
 40
1
 40
1
 10
174.365399
 20
117.111186
 30
0.0
 10
174.267658
 20
117.167617
 30
0.0
 10
174.207447
 20
117.271905
 30
0.0
 10
174.207447
 20
117.384766
 30
0.0
  0
SPLINE
  5
36a
100
AcDbEntity
  8
Decoupe_2
 62
3
100
AcDbSpline
 70
8
 71
3
 72
8
 73
4
 74
0
 40
0
 40
0
 40
0
 40
0
 40
1
 40
1
 40
1
 40
1
 10
174.207447
 20
117.384766
 30
0.0
 10
174.207447
 20
117.497627
 30
0.0
 10
174.267658
 20
117.601915
 30
0.0
 10
174.365399
 20
117.658346
 30
0.0
  0
SPLINE
  5
36b
100
AcDbEntity
  8
Decoupe_2
 62
3
100
AcDbSpline
 70
8
 71
3
 72
8
 73
4
 74
0
 40
0
 40
0
 40
0
 40
0
 40
1
 40
1
 40
1
 40
1
 10
174.365399
 20
117.658346
 30
0.0
 10
174.463139
 20
117.714776
 30
0.0
 10
174.583561
 20
117.714776
 30
0.0
 10
174.681301
 20
117.658346
 30
0.0
  0
SPLINE
  5
36c
100
AcDbEntity
  8
Decoupe_2
 62
3
100
AcDbSpline
 70
8
 71
3
 72
8
 73
4
 74
0
 40
0
 40
0
 40
0
 40
0
 40
1
 40
1
 40
1
 40
1
 10
174.681301
 20
117.658346
 30
0.0
 10
174.779042
 20
117.601915
 30
0.0
 10
174.839253
 20
117.497627
 30
0.0
 10
174.839253
 20
117.384766
 30
0.0
  0
LWPOLYLINE
  5
36d
100
AcDbEntity
  8
Decoupe_2
 62
3
100
AcDbPolyline
 90
1
 70
1
 10
197.655033
 20
117.384766
 30
0.0
  0
LWPOLYLINE
  5
36e
100
AcDbEntity
  8
Decoupe_2
 62
3
100
AcDbPolyline
 90
1
 70
1
 10
174.839253
 20
117.384766
 30
0.0
  0
ENDSEC
  0
SECTION
  2
OBJECTS
  0
DICTIONARY
  5
C
330
0
100
AcDbDictionary
  3
ACAD_GROUP
350
D
  3
ACAD_MLINESTYLE
350
17
  0
DICTIONARY
  5
D
330
C
100
AcDbDictionary
  0
DICTIONARY
  5
1A
330
C
100
AcDbDictionary
  0
DICTIONARY
  5
17
330
C
100
AcDbDictionary
  3
STANDARD
350
18
  0
DICTIONARY
  5
19
330
C
100
AcDbDictionary
  0
ENDSEC
  0
EOF
