  0
SECTION
  2
HEADER
  9
$ACADVER
  1
AC1014
  9
$HANDSEED
  5
FFFF
  9
$MEASUREMENT
 70
     1
  0
ENDSEC
  0
SECTION
  2
TABLES
  0
TABLE
  2
VPORT
  5
8
330
0
100
AcDbSymbolTable
 70
     4
  0
VPORT
  5
2E
330
8
100
AcDbSymbolTableRecord
100
AcDbViewportTableRecord
  2
*ACTIVE
 70
     0
 10
0.0
 20
0.0
 11
1.0
 21
1.0
 12
210.0
 22
148.5
 13
0.0
 23
0.0
 14
10.0
 24
10.0
 15
10.0
 25
10.0
 16
0.0
 26
0.0
 36
1.0
 17
0.0
 27
0.0
 37
0.0
 40
341.0
 41
1.24
 42
50.0
 43
0.0
 44
0.0
 50
0.0
 51
0.0
 71
     0
 72
   100
 73
     1
 74
     3
 75
     0
 76
     0
 77
     0
 78
     0
  0
ENDTAB
  0
TABLE
  2
LTYPE
  5
5
330
0
100
AcDbSymbolTable
 70
     1
  0
LTYPE
  5
14
330
5
100
AcDbSymbolTableRecord
100
AcDbLinetypeTableRecord
  2
BYBLOCK
 70
     0
  3

 72
    65
 73
     0
 40
0.0
  0
LTYPE
  5
15
330
5
100
AcDbSymbolTableRecord
100
AcDbLinetypeTableRecord
  2
BYLAYER
 70
     0
  3

 72
    65
 73
     0
 40
0.0
  0
LTYPE
  5
16
330
5
100
AcDbSymbolTableRecord
100
AcDbLinetypeTableRecord
  2
CONTINUOUS
 70
     0
  3
Solid line
 72
    65
 73
     0
 40
0.0
  0
ENDTAB
  0
TABLE
  2
LAYER
  5
2
100
AcDbSymbolTable
 70
4
  0
LAYER
  5
50
100
AcDbSymbolTableRecord
100
AcDbLayerTableRecord
  2
0
 70
0
  6
CONTINUOUS
  0
LAYER
  5
51
100
AcDbSymbolTableRecord
100
AcDbLayerTableRecord
  2
Gravure
 70
0
  6
CONTINUOUS
  0
LAYER
  5
52
100
AcDbSymbolTableRecord
100
AcDbLayerTableRecord
  2
Découpe_1
 70
0
  6
CONTINUOUS
  0
LAYER
  5
53
100
AcDbSymbolTableRecord
100
AcDbLayerTableRecord
  2
Découpe_2
 70
0
  6
CONTINUOUS
  0
ENDTAB
  0
TABLE
  2
STYLE
  5
3
330
0
100
AcDbSymbolTable
 70
     1
  0
STYLE
  5
11
330
3
100
AcDbSymbolTableRecord
100
AcDbTextStyleTableRecord
  2
STANDARD
 70
     0
 40
0.0
 41
1.0
 50
0.0
 71
     0
 42
2.5
  3
txt
  4

  0
ENDTAB
  0
TABLE
  2
VIEW
  5
6
330
0
100
AcDbSymbolTable
 70
     0
  0
ENDTAB
  0
TABLE
  2
UCS
  5
7
330
0
100
AcDbSymbolTable
 70
     0
  0
ENDTAB
  0
TABLE
  2
APPID
  5
9
330
0
100
AcDbSymbolTable
 70
     2
  0
APPID
  5
12
330
9
100
AcDbSymbolTableRecord
100
AcDbRegAppTableRecord
  2
ACAD
 70
     0
  0
ENDTAB
  0
TABLE
  2
DIMSTYLE
  5
A
330
0
100
AcDbSymbolTable
 70
     1
  0
DIMSTYLE
105
27
330
A
100
AcDbSymbolTableRecord
100
AcDbDimStyleTableRecord
  2
ISO-25
 70
     0
  3

  4

  5

  6

  7

 40
1.0
 41
2.5
 42
0.625
 43
3.75
 44
1.25
 45
0.0
 46
0.0
 47
0.0
 48
0.0
140
2.5
141
2.5
142
0.0
143
0.03937007874016
144
1.0
145
0.0
146
1.0
147
0.625
 71
     0
 72
     0
 73
     0
 74
     0
 75
     0
 76
     0
 77
     1
 78
     8
170
     0
171
     3
172
     1
173
     0
174
     0
175
     0
176
     0
177
     0
178
     0
270
     2
271
     2
272
     2
273
     2
274
     3
340
11
275
     0
280
     0
281
     0
282
     0
283
     0
284
     8
285
     0
286
     0
287
     3
288
     0
  0
ENDTAB
  0
TABLE
  2
BLOCK_RECORD
  5
1
330
0
100
AcDbSymbolTable
 70
     1
  0
BLOCK_RECORD
  5
1F
330
1
100
AcDbSymbolTableRecord
100
AcDbBlockTableRecord
  2
*MODEL_SPACE
  0
BLOCK_RECORD
  5
1B
330
1
100
AcDbSymbolTableRecord
100
AcDbBlockTableRecord
  2
*PAPER_SPACE
  0
ENDTAB
  0
ENDSEC
  0
SECTION
  2
BLOCKS
  0
BLOCK
  5
20
330
1F
100
AcDbEntity
  8
0
100
AcDbBlockBegin
  2
*MODEL_SPACE
 70
     0
 10
0.0
 20
0.0
 30
0.0
  3
*MODEL_SPACE
  1

  0
ENDBLK
  5
21
330
1F
100
AcDbEntity
  8
0
100
AcDbBlockEnd
  0
BLOCK
  5
1C
330
1B
100
AcDbEntity
 67
     1
  8
0
100
AcDbBlockBegin
  2
*PAPER_SPACE
  1

  0
ENDBLK
  5
1D
330
1B
100
AcDbEntity
 67
     1
  8
0
100
AcDbBlockEnd
  0
ENDSEC
  0
SECTION
  2
ENTITIES
  0
LWPOLYLINE
  5
100
100
AcDbEntity
  8
Découpe_2
 62
3
100
AcDbPolyline
 90
6
 70
1
 10
11.444877
 20
207.185920
 30
0.0
 10
55.900662
 20
160.808279
 30
0.0
 10
55.900662
 20
170.808844
 30
0.0
 10
21.030452
 20
207.185920
 30
0.0
 10
11.444877
 20
207.185920
 30
0.0
 10
11.444877
 20
207.185920
 30
0.0
  0
LWPOLYLINE
  5
101
100
AcDbEntity
  8
Découpe_2
 62
3
100
AcDbPolyline
 90
6
 70
1
 10
30.616544
 20
207.185920
 30
0.0
 10
55.900662
 20
180.808791
 30
0.0
 10
55.900662
 20
190.809287
 30
0.0
 10
40.202642
 20
207.185920
 30
0.0
 10
30.616544
 20
207.185920
 30
0.0
 10
30.616544
 20
207.185920
 30
0.0
  0
LWPOLYLINE
  5
102
100
AcDbEntity
  8
Découpe_2
 62
3
100
AcDbPolyline
 90
5
 70
1
 10
49.788744
 20
207.185920
 30
0.0
 10
55.900662
 20
200.809784
 30
0.0
 10
55.900662
 20
207.185920
 30
0.0
 10
49.788744
 20
207.185920
 30
0.0
 10
49.788744
 20
207.185920
 30
0.0
  0
LWPOLYLINE
  5
103
100
AcDbEntity
  8
Découpe_2
 62
3
100
AcDbPolyline
 90
7
 70
1
 10
3.395341
 20
205.582928
 30
0.0
 10
3.395341
 20
195.582427
 30
0.0
 10
48.042931
 20
149.005162
 30
0.0
 10
55.900662
 20
149.005162
 30
0.0
 10
55.900662
 20
150.807717
 30
0.0
 10
3.395341
 20
205.582928
 30
0.0
 10
3.395341
 20
205.582928
 30
0.0
  0
LWPOLYLINE
  5
104
100
AcDbEntity
  8
Découpe_2
 62
3
100
AcDbPolyline
 90
6
 70
1
 10
3.395341
 20
185.582481
 30
0.0
 10
3.395341
 20
175.581985
 30
0.0
 10
28.870737
 20
149.005162
 30
0.0
 10
38.456839
 20
149.005162
 30
0.0
 10
3.395341
 20
185.582481
 30
0.0
 10
3.395341
 20
185.582481
 30
0.0
  0
LWPOLYLINE
  5
105
100
AcDbEntity
  8
Découpe_2
 62
3
100
AcDbPolyline
 90
6
 70
1
 10
3.395341
 20
165.581458
 30
0.0
 10
3.395341
 20
155.581436
 30
0.0
 10
9.699072
 20
149.005162
 30
0.0
 10
19.284639
 20
149.005162
 30
0.0
 10
3.395341
 20
165.581458
 30
0.0
 10
3.395341
 20
165.581458
 30
0.0
  0
LWPOLYLINE
  5
106
100
AcDbEntity
  8
Découpe_2
 62
3
100
AcDbPolyline
 90
6
 70
1
 10
114.414840
 20
206.040576
 30
0.0
 10
163.200700
 20
157.254644
 30
0.0
 10
163.200700
 20
167.254806
 30
0.0
 10
124.414980
 20
206.040576
 30
0.0
 10
114.414840
 20
206.040576
 30
0.0
 10
114.414840
 20
206.040576
 30
0.0
  0
LWPOLYLINE
  5
107
100
AcDbEntity
  8
Découpe_2
 62
3
100
AcDbPolyline
 90
6
 70
1
 10
134.414580
 20
206.040576
 30
0.0
 10
163.200700
 20
177.255013
 30
0.0
 10
163.200700
 20
187.254609
 30
0.0
 10
144.414730
 20
206.040576
 30
0.0
 10
134.414580
 20
206.040576
 30
0.0
 10
134.414580
 20
206.040576
 30
0.0
  0
LWPOLYLINE
  5
108
100
AcDbEntity
  8
Découpe_2
 62
3
100
AcDbPolyline
 90
5
 70
1
 10
154.414880
 20
206.040576
 30
0.0
 10
163.200700
 20
197.254755
 30
0.0
 10
163.200700
 20
206.040576
 30
0.0
 10
154.414880
 20
206.040576
 30
0.0
 10
154.414880
 20
206.040576
 30
0.0
  0
LWPOLYLINE
  5
109
100
AcDbEntity
  8
Découpe_2
 62
3
100
AcDbPolyline
 90
6
 70
1
 10
108.652980
 20
201.802281
 30
0.0
 10
108.652980
 20
191.802685
 30
0.0
 10
147.685640
 20
152.769954
 30
0.0
 10
157.685790
 20
152.769954
 30
0.0
 10
108.652980
 20
201.802281
 30
0.0
 10
108.652980
 20
201.802281
 30
0.0
  0
LWPOLYLINE
  5
10a
100
AcDbEntity
  8
Découpe_2
 62
3
100
AcDbPolyline
 90
6
 70
1
 10
108.652980
 20
181.802539
 30
0.0
 10
108.652980
 20
171.802358
 30
0.0
 10
127.685340
 20
152.769954
 30
0.0
 10
137.685490
 20
152.769954
 30
0.0
 10
108.652980
 20
181.802539
 30
0.0
 10
108.652980
 20
181.802539
 30
0.0
  0
LWPOLYLINE
  5
10b
100
AcDbEntity
  8
Découpe_2
 62
3
100
AcDbPolyline
 90
5
 70
1
 10
108.652980
 20
161.802724
 30
0.0
 10
108.652980
 20
152.769954
 30
0.0
 10
117.685750
 20
152.769954
 30
0.0
 10
108.652980
 20
161.802724
 30
0.0
 10
108.652980
 20
161.802724
 30
0.0
  0
LWPOLYLINE
  5
10c
100
AcDbEntity
  8
Découpe_2
 62
5
100
AcDbPolyline
 90
5
 70
1
 10
52.000000
 20
188.000000
 30
0.0
 10
52.000000
 20
198.000000
 30
0.0
 10
49.050000
 20
198.000000
 30
0.0
 10
49.050000
 20
188.000000
 30
0.0
 10
52.000000
 20
188.000000
 30
0.0
  0
LWPOLYLINE
  5
10d
100
AcDbEntity
  8
Découpe_2
 62
5
100
AcDbPolyline
 90
5
 70
1
 10
52.000000
 20
158.000000
 30
0.0
 10
52.000000
 20
168.000000
 30
0.0
 10
49.050000
 20
168.000000
 30
0.0
 10
49.050000
 20
158.000000
 30
0.0
 10
52.000000
 20
158.000000
 30
0.0
  0
LWPOLYLINE
  5
10e
100
AcDbEntity
  8
Découpe_2
 62
5
100
AcDbPolyline
 90
5
 70
1
 10
34.000000
 20
200.050000
 30
0.0
 10
34.000000
 20
203.000000
 30
0.0
 10
19.000000
 20
203.000000
 30
0.0
 10
19.000000
 20
200.050000
 30
0.0
 10
34.000000
 20
200.050000
 30
0.0
  0
LWPOLYLINE
  5
10f
100
AcDbEntity
  8
Découpe_2
 62
5
100
AcDbPolyline
 90
5
 70
1
 10
34.000000
 20
153.000000
 30
0.0
 10
34.000000
 20
155.950000
 30
0.0
 10
19.000000
 20
155.950000
 30
0.0
 10
19.000000
 20
153.000000
 30
0.0
 10
34.000000
 20
153.000000
 30
0.0
  0
LWPOLYLINE
  5
110
100
AcDbEntity
  8
Découpe_2
 62
5
100
AcDbPolyline
 90
5
 70
1
 10
117.355600
 20
158.871112
 30
0.0
 10
117.355600
 20
168.871112
 30
0.0
 10
114.405600
 20
168.871112
 30
0.0
 10
114.405600
 20
158.871112
 30
0.0
 10
117.355600
 20
158.871112
 30
0.0
  0
LWPOLYLINE
  5
111
100
AcDbEntity
  8
Découpe_2
 62
5
100
AcDbPolyline
 90
5
 70
1
 10
117.355600
 20
188.871112
 30
0.0
 10
117.355600
 20
198.871112
 30
0.0
 10
114.405600
 20
198.871112
 30
0.0
 10
114.405600
 20
188.871112
 30
0.0
 10
117.355600
 20
188.871112
 30
0.0
  0
LWPOLYLINE
  5
112
100
AcDbEntity
  8
Découpe_2
 62
6
100
AcDbPolyline
 90
5
 70
1
 10
5.000000
 20
206.000000
 30
0.0
 10
5.000000
 20
150.000000
 30
0.0
 10
55.000000
 20
150.000000
 30
0.0
 10
55.000000
 20
206.000000
 30
0.0
 10
5.000000
 20
206.000000
 30
0.0
  0
LWPOLYLINE
  5
113
100
AcDbEntity
  8
Découpe_2
 62
6
100
AcDbPolyline
 90
29
 70
1
 10
92.177780
 20
182.000000
 30
0.0
 10
102.177780
 20
182.000000
 30
0.0
 10
102.177780
 20
184.950000
 30
0.0
 10
107.177780
 20
184.950000
 30
0.0
 10
107.177780
 20
187.550000
 30
0.0
 10
104.227780
 20
187.550000
 30
0.0
 10
104.227780
 20
197.550000
 30
0.0
 10
107.177780
 20
197.550000
 30
0.0
 10
107.177780
 20
203.050000
 30
0.0
 10
102.177780
 20
203.050000
 30
0.0
 10
102.177780
 20
206.000000
 30
0.0
 10
92.177780
 20
206.000000
 30
0.0
 10
92.177780
 20
203.050000
 30
0.0
 10
72.177780
 20
203.050000
 30
0.0
 10
72.177780
 20
206.000000
 30
0.0
 10
62.177780
 20
206.000000
 30
0.0
 10
62.177780
 20
203.050000
 30
0.0
 10
57.177780
 20
203.050000
 30
0.0
 10
57.177780
 20
197.550000
 30
0.0
 10
60.127780
 20
197.550000
 30
0.0
 10
60.127780
 20
187.550000
 30
0.0
 10
57.177780
 20
187.550000
 30
0.0
 10
57.177780
 20
184.950000
 30
0.0
 10
62.177780
 20
184.950000
 30
0.0
 10
62.177780
 20
182.000000
 30
0.0
 10
72.177780
 20
182.000000
 30
0.0
 10
72.177780
 20
184.950000
 30
0.0
 10
92.177780
 20
184.950000
 30
0.0
 10
92.177780
 20
182.000000
 30
0.0
  0
LWPOLYLINE
  5
114
100
AcDbEntity
  8
Découpe_2
 62
6
100
AcDbPolyline
 90
5
 70
1
 10
119.355600
 20
153.871112
 30
0.0
 10
119.355600
 20
203.871112
 30
0.0
 10
109.355600
 20
203.871112
 30
0.0
 10
109.355600
 20
153.871112
 30
0.0
 10
119.355600
 20
153.871112
 30
0.0
  0
LWPOLYLINE
  5
115
100
AcDbEntity
  8
Découpe_2
 62
6
100
AcDbPolyline
 90
17
 70
1
 10
84.836442
 20
167.732696
 30
0.0
 10
83.505242
 20
165.100126
 30
0.0
 10
70.119242
 20
171.868876
 30
0.0
 10
65.069242
 20
171.868876
 30
0.0
 10
65.069242
 20
166.368876
 30
0.0
 10
62.119242
 20
166.368876
 30
0.0
 10
62.119242
 20
156.368876
 30
0.0
 10
65.069242
 20
156.368876
 30
0.0
 10
65.069242
 20
153.818876
 30
0.0
 10
80.069242
 20
153.818876
 30
0.0
 10
80.069242
 20
150.868876
 30
0.0
 10
95.069242
 20
150.868876
 30
0.0
 10
95.069242
 20
153.818876
 30
0.0
 10
105.815142
 20
153.818876
 30
0.0
 10
92.429142
 20
160.587626
 30
0.0
 10
93.760342
 20
163.220199
 30
0.0
 10
84.836442
 20
167.732696
 30
0.0
  0
LWPOLYLINE
  5
116
100
AcDbEntity
  8
Découpe_2
 62
6
100
AcDbPolyline
 90
13
 70
1
 10
146.533000
 20
154.999990
 30
0.0
 10
146.533000
 20
157.949990
 30
0.0
 10
136.533000
 20
157.949990
 30
0.0
 10
136.533000
 20
154.999990
 30
0.0
 10
121.533000
 20
154.999990
 30
0.0
 10
121.533000
 20
205.000000
 30
0.0
 10
136.533000
 20
205.000000
 30
0.0
 10
136.533000
 20
202.050004
 30
0.0
 10
146.533000
 20
202.050004
 30
0.0
 10
146.533000
 20
205.000000
 30
0.0
 10
161.532990
 20
205.000000
 30
0.0
 10
161.532990
 20
154.999990
 30
0.0
 10
146.533000
 20
154.999990
 30
0.0
  0
LWPOLYLINE
  5
117
100
AcDbEntity
  8
Découpe_2
 62
6
100
AcDbPolyline
 90
17
 70
1
 10
83.243000
 20
166.276453
 30
0.0
 10
84.574200
 20
168.909023
 30
0.0
 10
97.960200
 20
162.140273
 30
0.0
 10
103.010200
 20
162.140273
 30
0.0
 10
103.010200
 20
167.640273
 30
0.0
 10
105.960200
 20
167.640273
 30
0.0
 10
105.960200
 20
177.640273
 30
0.0
 10
103.010200
 20
177.640273
 30
0.0
 10
103.010200
 20
180.190273
 30
0.0
 10
88.010200
 20
180.190273
 30
0.0
 10
88.010200
 20
183.140273
 30
0.0
 10
73.010200
 20
183.140273
 30
0.0
 10
73.010200
 20
180.190273
 30
0.0
 10
62.264300
 20
180.190273
 30
0.0
 10
75.650300
 20
173.421523
 30
0.0
 10
74.319100
 20
170.788950
 30
0.0
 10
83.243000
 20
166.276453
 30
0.0
  0
LWPOLYLINE
  5
118
100
AcDbEntity
  8
Découpe_2
 62
3
100
AcDbPolyline
 90
6
 70
1
 10
11.444877
 20
148.537420
 30
0.0
 10
55.900662
 20
102.159779
 30
0.0
 10
55.900662
 20
112.160344
 30
0.0
 10
21.030452
 20
148.537420
 30
0.0
 10
11.444877
 20
148.537420
 30
0.0
 10
11.444877
 20
148.537420
 30
0.0
  0
LWPOLYLINE
  5
119
100
AcDbEntity
  8
Découpe_2
 62
3
100
AcDbPolyline
 90
6
 70
1
 10
30.616544
 20
148.537420
 30
0.0
 10
55.900662
 20
122.160291
 30
0.0
 10
55.900662
 20
132.160787
 30
0.0
 10
40.202642
 20
148.537420
 30
0.0
 10
30.616544
 20
148.537420
 30
0.0
 10
30.616544
 20
148.537420
 30
0.0
  0
LWPOLYLINE
  5
11a
100
AcDbEntity
  8
Découpe_2
 62
3
100
AcDbPolyline
 90
5
 70
1
 10
49.788744
 20
148.537420
 30
0.0
 10
55.900662
 20
142.161284
 30
0.0
 10
55.900662
 20
148.537420
 30
0.0
 10
49.788744
 20
148.537420
 30
0.0
 10
49.788744
 20
148.537420
 30
0.0
  0
LWPOLYLINE
  5
11b
100
AcDbEntity
  8
Découpe_2
 62
3
100
AcDbPolyline
 90
7
 70
1
 10
3.395341
 20
146.934428
 30
0.0
 10
3.395341
 20
136.933927
 30
0.0
 10
48.042931
 20
90.356662
 30
0.0
 10
55.900662
 20
90.356662
 30
0.0
 10
55.900662
 20
92.159217
 30
0.0
 10
3.395341
 20
146.934428
 30
0.0
 10
3.395341
 20
146.934428
 30
0.0
  0
LWPOLYLINE
  5
11c
100
AcDbEntity
  8
Découpe_2
 62
3
100
AcDbPolyline
 90
6
 70
1
 10
3.395341
 20
126.933981
 30
0.0
 10
3.395341
 20
116.933485
 30
0.0
 10
28.870737
 20
90.356662
 30
0.0
 10
38.456839
 20
90.356662
 30
0.0
 10
3.395341
 20
126.933981
 30
0.0
 10
3.395341
 20
126.933981
 30
0.0
  0
LWPOLYLINE
  5
11d
100
AcDbEntity
  8
Découpe_2
 62
3
100
AcDbPolyline
 90
6
 70
1
 10
3.395341
 20
106.932958
 30
0.0
 10
3.395341
 20
96.932936
 30
0.0
 10
9.699072
 20
90.356662
 30
0.0
 10
19.284639
 20
90.356662
 30
0.0
 10
3.395341
 20
106.932958
 30
0.0
 10
3.395341
 20
106.932958
 30
0.0
  0
LWPOLYLINE
  5
11e
100
AcDbEntity
  8
Découpe_2
 62
3
100
AcDbPolyline
 90
6
 70
1
 10
114.414840
 20
147.392076
 30
0.0
 10
163.200700
 20
98.606144
 30
0.0
 10
163.200700
 20
108.606306
 30
0.0
 10
124.414980
 20
147.392076
 30
0.0
 10
114.414840
 20
147.392076
 30
0.0
 10
114.414840
 20
147.392076
 30
0.0
  0
LWPOLYLINE
  5
11f
100
AcDbEntity
  8
Découpe_2
 62
3
100
AcDbPolyline
 90
6
 70
1
 10
134.414580
 20
147.392076
 30
0.0
 10
163.200700
 20
118.606513
 30
0.0
 10
163.200700
 20
128.606109
 30
0.0
 10
144.414730
 20
147.392076
 30
0.0
 10
134.414580
 20
147.392076
 30
0.0
 10
134.414580
 20
147.392076
 30
0.0
  0
LWPOLYLINE
  5
120
100
AcDbEntity
  8
Découpe_2
 62
3
100
AcDbPolyline
 90
5
 70
1
 10
154.414880
 20
147.392076
 30
0.0
 10
163.200700
 20
138.606255
 30
0.0
 10
163.200700
 20
147.392076
 30
0.0
 10
154.414880
 20
147.392076
 30
0.0
 10
154.414880
 20
147.392076
 30
0.0
  0
LWPOLYLINE
  5
121
100
AcDbEntity
  8
Découpe_2
 62
3
100
AcDbPolyline
 90
6
 70
1
 10
108.652980
 20
143.153781
 30
0.0
 10
108.652980
 20
133.154185
 30
0.0
 10
147.685640
 20
94.121454
 30
0.0
 10
157.685790
 20
94.121454
 30
0.0
 10
108.652980
 20
143.153781
 30
0.0
 10
108.652980
 20
143.153781
 30
0.0
  0
LWPOLYLINE
  5
122
100
AcDbEntity
  8
Découpe_2
 62
3
100
AcDbPolyline
 90
6
 70
1
 10
108.652980
 20
123.154039
 30
0.0
 10
108.652980
 20
113.153858
 30
0.0
 10
127.685340
 20
94.121454
 30
0.0
 10
137.685490
 20
94.121454
 30
0.0
 10
108.652980
 20
123.154039
 30
0.0
 10
108.652980
 20
123.154039
 30
0.0
  0
LWPOLYLINE
  5
123
100
AcDbEntity
  8
Découpe_2
 62
3
100
AcDbPolyline
 90
5
 70
1
 10
108.652980
 20
103.154224
 30
0.0
 10
108.652980
 20
94.121454
 30
0.0
 10
117.685750
 20
94.121454
 30
0.0
 10
108.652980
 20
103.154224
 30
0.0
 10
108.652980
 20
103.154224
 30
0.0
  0
LWPOLYLINE
  5
124
100
AcDbEntity
  8
Découpe_2
 62
5
100
AcDbPolyline
 90
5
 70
1
 10
52.000000
 20
129.351500
 30
0.0
 10
52.000000
 20
139.351500
 30
0.0
 10
49.050000
 20
139.351500
 30
0.0
 10
49.050000
 20
129.351500
 30
0.0
 10
52.000000
 20
129.351500
 30
0.0
  0
LWPOLYLINE
  5
125
100
AcDbEntity
  8
Découpe_2
 62
5
100
AcDbPolyline
 90
5
 70
1
 10
52.000000
 20
99.351500
 30
0.0
 10
52.000000
 20
109.351500
 30
0.0
 10
49.050000
 20
109.351500
 30
0.0
 10
49.050000
 20
99.351500
 30
0.0
 10
52.000000
 20
99.351500
 30
0.0
  0
LWPOLYLINE
  5
126
100
AcDbEntity
  8
Découpe_2
 62
5
100
AcDbPolyline
 90
5
 70
1
 10
34.000000
 20
141.401500
 30
0.0
 10
34.000000
 20
144.351500
 30
0.0
 10
19.000000
 20
144.351500
 30
0.0
 10
19.000000
 20
141.401500
 30
0.0
 10
34.000000
 20
141.401500
 30
0.0
  0
LWPOLYLINE
  5
127
100
AcDbEntity
  8
Découpe_2
 62
5
100
AcDbPolyline
 90
5
 70
1
 10
34.000000
 20
94.351500
 30
0.0
 10
34.000000
 20
97.301500
 30
0.0
 10
19.000000
 20
97.301500
 30
0.0
 10
19.000000
 20
94.351500
 30
0.0
 10
34.000000
 20
94.351500
 30
0.0
  0
LWPOLYLINE
  5
128
100
AcDbEntity
  8
Découpe_2
 62
5
100
AcDbPolyline
 90
5
 70
1
 10
117.355600
 20
100.222612
 30
0.0
 10
117.355600
 20
110.222612
 30
0.0
 10
114.405600
 20
110.222612
 30
0.0
 10
114.405600
 20
100.222612
 30
0.0
 10
117.355600
 20
100.222612
 30
0.0
  0
LWPOLYLINE
  5
129
100
AcDbEntity
  8
Découpe_2
 62
5
100
AcDbPolyline
 90
5
 70
1
 10
117.355600
 20
130.222612
 30
0.0
 10
117.355600
 20
140.222612
 30
0.0
 10
114.405600
 20
140.222612
 30
0.0
 10
114.405600
 20
130.222612
 30
0.0
 10
117.355600
 20
130.222612
 30
0.0
  0
LWPOLYLINE
  5
12a
100
AcDbEntity
  8
Découpe_2
 62
6
100
AcDbPolyline
 90
5
 70
1
 10
5.000000
 20
147.351500
 30
0.0
 10
5.000000
 20
91.351500
 30
0.0
 10
55.000000
 20
91.351500
 30
0.0
 10
55.000000
 20
147.351500
 30
0.0
 10
5.000000
 20
147.351500
 30
0.0
  0
LWPOLYLINE
  5
12b
100
AcDbEntity
  8
Découpe_2
 62
6
100
AcDbPolyline
 90
29
 70
1
 10
92.177780
 20
123.351500
 30
0.0
 10
102.177780
 20
123.351500
 30
0.0
 10
102.177780
 20
126.301500
 30
0.0
 10
107.177780
 20
126.301500
 30
0.0
 10
107.177780
 20
128.901500
 30
0.0
 10
104.227780
 20
128.901500
 30
0.0
 10
104.227780
 20
138.901500
 30
0.0
 10
107.177780
 20
138.901500
 30
0.0
 10
107.177780
 20
144.401500
 30
0.0
 10
102.177780
 20
144.401500
 30
0.0
 10
102.177780
 20
147.351500
 30
0.0
 10
92.177780
 20
147.351500
 30
0.0
 10
92.177780
 20
144.401500
 30
0.0
 10
72.177780
 20
144.401500
 30
0.0
 10
72.177780
 20
147.351500
 30
0.0
 10
62.177780
 20
147.351500
 30
0.0
 10
62.177780
 20
144.401500
 30
0.0
 10
57.177780
 20
144.401500
 30
0.0
 10
57.177780
 20
138.901500
 30
0.0
 10
60.127780
 20
138.901500
 30
0.0
 10
60.127780
 20
128.901500
 30
0.0
 10
57.177780
 20
128.901500
 30
0.0
 10
57.177780
 20
126.301500
 30
0.0
 10
62.177780
 20
126.301500
 30
0.0
 10
62.177780
 20
123.351500
 30
0.0
 10
72.177780
 20
123.351500
 30
0.0
 10
72.177780
 20
126.301500
 30
0.0
 10
92.177780
 20
126.301500
 30
0.0
 10
92.177780
 20
123.351500
 30
0.0
  0
LWPOLYLINE
  5
12c
100
AcDbEntity
  8
Découpe_2
 62
6
100
AcDbPolyline
 90
5
 70
1
 10
119.355600
 20
95.222612
 30
0.0
 10
119.355600
 20
145.222612
 30
0.0
 10
109.355600
 20
145.222612
 30
0.0
 10
109.355600
 20
95.222612
 30
0.0
 10
119.355600
 20
95.222612
 30
0.0
  0
LWPOLYLINE
  5
12d
100
AcDbEntity
  8
Découpe_2
 62
6
100
AcDbPolyline
 90
17
 70
1
 10
84.836442
 20
109.084196
 30
0.0
 10
83.505242
 20
106.451626
 30
0.0
 10
70.119242
 20
113.220376
 30
0.0
 10
65.069242
 20
113.220376
 30
0.0
 10
65.069242
 20
107.720376
 30
0.0
 10
62.119242
 20
107.720376
 30
0.0
 10
62.119242
 20
97.720376
 30
0.0
 10
65.069242
 20
97.720376
 30
0.0
 10
65.069242
 20
95.170376
 30
0.0
 10
80.069242
 20
95.170376
 30
0.0
 10
80.069242
 20
92.220376
 30
0.0
 10
95.069242
 20
92.220376
 30
0.0
 10
95.069242
 20
95.170376
 30
0.0
 10
105.815142
 20
95.170376
 30
0.0
 10
92.429142
 20
101.939126
 30
0.0
 10
93.760342
 20
104.571699
 30
0.0
 10
84.836442
 20
109.084196
 30
0.0
  0
LWPOLYLINE
  5
12e
100
AcDbEntity
  8
Découpe_2
 62
6
100
AcDbPolyline
 90
13
 70
1
 10
146.533000
 20
96.351490
 30
0.0
 10
146.533000
 20
99.301490
 30
0.0
 10
136.533000
 20
99.301490
 30
0.0
 10
136.533000
 20
96.351490
 30
0.0
 10
121.533000
 20
96.351490
 30
0.0
 10
121.533000
 20
146.351500
 30
0.0
 10
136.533000
 20
146.351500
 30
0.0
 10
136.533000
 20
143.401504
 30
0.0
 10
146.533000
 20
143.401504
 30
0.0
 10
146.533000
 20
146.351500
 30
0.0
 10
161.532990
 20
146.351500
 30
0.0
 10
161.532990
 20
96.351490
 30
0.0
 10
146.533000
 20
96.351490
 30
0.0
  0
LWPOLYLINE
  5
12f
100
AcDbEntity
  8
Découpe_2
 62
6
100
AcDbPolyline
 90
17
 70
1
 10
83.243000
 20
107.627953
 30
0.0
 10
84.574200
 20
110.260523
 30
0.0
 10
97.960200
 20
103.491773
 30
0.0
 10
103.010200
 20
103.491773
 30
0.0
 10
103.010200
 20
108.991773
 30
0.0
 10
105.960200
 20
108.991773
 30
0.0
 10
105.960200
 20
118.991773
 30
0.0
 10
103.010200
 20
118.991773
 30
0.0
 10
103.010200
 20
121.541773
 30
0.0
 10
88.010200
 20
121.541773
 30
0.0
 10
88.010200
 20
124.491773
 30
0.0
 10
73.010200
 20
124.491773
 30
0.0
 10
73.010200
 20
121.541773
 30
0.0
 10
62.264300
 20
121.541773
 30
0.0
 10
75.650300
 20
114.773023
 30
0.0
 10
74.319100
 20
112.140450
 30
0.0
 10
83.243000
 20
107.627953
 30
0.0
  0
LWPOLYLINE
  5
130
100
AcDbEntity
  8
Découpe_2
 62
3
100
AcDbPolyline
 90
6
 70
1
 10
11.444877
 20
89.888910
 30
0.0
 10
55.900662
 20
43.511269
 30
0.0
 10
55.900662
 20
53.511834
 30
0.0
 10
21.030452
 20
89.888910
 30
0.0
 10
11.444877
 20
89.888910
 30
0.0
 10
11.444877
 20
89.888910
 30
0.0
  0
LWPOLYLINE
  5
131
100
AcDbEntity
  8
Découpe_2
 62
3
100
AcDbPolyline
 90
6
 70
1
 10
30.616544
 20
89.888910
 30
0.0
 10
55.900662
 20
63.511781
 30
0.0
 10
55.900662
 20
73.512277
 30
0.0
 10
40.202642
 20
89.888910
 30
0.0
 10
30.616544
 20
89.888910
 30
0.0
 10
30.616544
 20
89.888910
 30
0.0
  0
LWPOLYLINE
  5
132
100
AcDbEntity
  8
Découpe_2
 62
3
100
AcDbPolyline
 90
5
 70
1
 10
49.788744
 20
89.888910
 30
0.0
 10
55.900662
 20
83.512774
 30
0.0
 10
55.900662
 20
89.888910
 30
0.0
 10
49.788744
 20
89.888910
 30
0.0
 10
49.788744
 20
89.888910
 30
0.0
  0
LWPOLYLINE
  5
133
100
AcDbEntity
  8
Découpe_2
 62
3
100
AcDbPolyline
 90
7
 70
1
 10
3.395341
 20
88.285918
 30
0.0
 10
3.395341
 20
78.285417
 30
0.0
 10
48.042931
 20
31.708152
 30
0.0
 10
55.900662
 20
31.708152
 30
0.0
 10
55.900662
 20
33.510707
 30
0.0
 10
3.395341
 20
88.285918
 30
0.0
 10
3.395341
 20
88.285918
 30
0.0
  0
LWPOLYLINE
  5
134
100
AcDbEntity
  8
Découpe_2
 62
3
100
AcDbPolyline
 90
6
 70
1
 10
3.395341
 20
68.285471
 30
0.0
 10
3.395341
 20
58.284975
 30
0.0
 10
28.870737
 20
31.708152
 30
0.0
 10
38.456839
 20
31.708152
 30
0.0
 10
3.395341
 20
68.285471
 30
0.0
 10
3.395341
 20
68.285471
 30
0.0
  0
LWPOLYLINE
  5
135
100
AcDbEntity
  8
Découpe_2
 62
3
100
AcDbPolyline
 90
6
 70
1
 10
3.395341
 20
48.284448
 30
0.0
 10
3.395341
 20
38.284426
 30
0.0
 10
9.699072
 20
31.708152
 30
0.0
 10
19.284639
 20
31.708152
 30
0.0
 10
3.395341
 20
48.284448
 30
0.0
 10
3.395341
 20
48.284448
 30
0.0
  0
LWPOLYLINE
  5
136
100
AcDbEntity
  8
Découpe_2
 62
3
100
AcDbPolyline
 90
6
 70
1
 10
114.414840
 20
88.743566
 30
0.0
 10
163.200700
 20
39.957634
 30
0.0
 10
163.200700
 20
49.957796
 30
0.0
 10
124.414980
 20
88.743566
 30
0.0
 10
114.414840
 20
88.743566
 30
0.0
 10
114.414840
 20
88.743566
 30
0.0
  0
LWPOLYLINE
  5
137
100
AcDbEntity
  8
Découpe_2
 62
3
100
AcDbPolyline
 90
6
 70
1
 10
134.414580
 20
88.743566
 30
0.0
 10
163.200700
 20
59.958003
 30
0.0
 10
163.200700
 20
69.957599
 30
0.0
 10
144.414730
 20
88.743566
 30
0.0
 10
134.414580
 20
88.743566
 30
0.0
 10
134.414580
 20
88.743566
 30
0.0
  0
LWPOLYLINE
  5
138
100
AcDbEntity
  8
Découpe_2
 62
3
100
AcDbPolyline
 90
5
 70
1
 10
154.414880
 20
88.743566
 30
0.0
 10
163.200700
 20
79.957745
 30
0.0
 10
163.200700
 20
88.743566
 30
0.0
 10
154.414880
 20
88.743566
 30
0.0
 10
154.414880
 20
88.743566
 30
0.0
  0
LWPOLYLINE
  5
139
100
AcDbEntity
  8
Découpe_2
 62
3
100
AcDbPolyline
 90
6
 70
1
 10
108.652980
 20
84.505271
 30
0.0
 10
108.652980
 20
74.505675
 30
0.0
 10
147.685640
 20
35.472944
 30
0.0
 10
157.685790
 20
35.472944
 30
0.0
 10
108.652980
 20
84.505271
 30
0.0
 10
108.652980
 20
84.505271
 30
0.0
  0
LWPOLYLINE
  5
13a
100
AcDbEntity
  8
Découpe_2
 62
3
100
AcDbPolyline
 90
6
 70
1
 10
108.652980
 20
64.505529
 30
0.0
 10
108.652980
 20
54.505348
 30
0.0
 10
127.685340
 20
35.472944
 30
0.0
 10
137.685490
 20
35.472944
 30
0.0
 10
108.652980
 20
64.505529
 30
0.0
 10
108.652980
 20
64.505529
 30
0.0
  0
LWPOLYLINE
  5
13b
100
AcDbEntity
  8
Découpe_2
 62
3
100
AcDbPolyline
 90
5
 70
1
 10
108.652980
 20
44.505714
 30
0.0
 10
108.652980
 20
35.472944
 30
0.0
 10
117.685750
 20
35.472944
 30
0.0
 10
108.652980
 20
44.505714
 30
0.0
 10
108.652980
 20
44.505714
 30
0.0
  0
LWPOLYLINE
  5
13c
100
AcDbEntity
  8
Découpe_2
 62
5
100
AcDbPolyline
 90
5
 70
1
 10
52.000000
 20
70.702990
 30
0.0
 10
52.000000
 20
80.702990
 30
0.0
 10
49.050000
 20
80.702990
 30
0.0
 10
49.050000
 20
70.702990
 30
0.0
 10
52.000000
 20
70.702990
 30
0.0
  0
LWPOLYLINE
  5
13d
100
AcDbEntity
  8
Découpe_2
 62
5
100
AcDbPolyline
 90
5
 70
1
 10
52.000000
 20
40.702990
 30
0.0
 10
52.000000
 20
50.702990
 30
0.0
 10
49.050000
 20
50.702990
 30
0.0
 10
49.050000
 20
40.702990
 30
0.0
 10
52.000000
 20
40.702990
 30
0.0
  0
LWPOLYLINE
  5
13e
100
AcDbEntity
  8
Découpe_2
 62
5
100
AcDbPolyline
 90
5
 70
1
 10
34.000000
 20
82.752990
 30
0.0
 10
34.000000
 20
85.702990
 30
0.0
 10
19.000000
 20
85.702990
 30
0.0
 10
19.000000
 20
82.752990
 30
0.0
 10
34.000000
 20
82.752990
 30
0.0
  0
LWPOLYLINE
  5
13f
100
AcDbEntity
  8
Découpe_2
 62
5
100
AcDbPolyline
 90
5
 70
1
 10
34.000000
 20
35.702990
 30
0.0
 10
34.000000
 20
38.652990
 30
0.0
 10
19.000000
 20
38.652990
 30
0.0
 10
19.000000
 20
35.702990
 30
0.0
 10
34.000000
 20
35.702990
 30
0.0
  0
LWPOLYLINE
  5
140
100
AcDbEntity
  8
Découpe_2
 62
5
100
AcDbPolyline
 90
5
 70
1
 10
117.355600
 20
41.574102
 30
0.0
 10
117.355600
 20
51.574102
 30
0.0
 10
114.405600
 20
51.574102
 30
0.0
 10
114.405600
 20
41.574102
 30
0.0
 10
117.355600
 20
41.574102
 30
0.0
  0
LWPOLYLINE
  5
141
100
AcDbEntity
  8
Découpe_2
 62
5
100
AcDbPolyline
 90
5
 70
1
 10
117.355600
 20
71.574102
 30
0.0
 10
117.355600
 20
81.574102
 30
0.0
 10
114.405600
 20
81.574102
 30
0.0
 10
114.405600
 20
71.574102
 30
0.0
 10
117.355600
 20
71.574102
 30
0.0
  0
LWPOLYLINE
  5
142
100
AcDbEntity
  8
Découpe_2
 62
6
100
AcDbPolyline
 90
5
 70
1
 10
5.000000
 20
88.702990
 30
0.0
 10
5.000000
 20
32.702990
 30
0.0
 10
55.000000
 20
32.702990
 30
0.0
 10
55.000000
 20
88.702990
 30
0.0
 10
5.000000
 20
88.702990
 30
0.0
  0
LWPOLYLINE
  5
143
100
AcDbEntity
  8
Découpe_2
 62
6
100
AcDbPolyline
 90
29
 70
1
 10
92.177780
 20
64.702990
 30
0.0
 10
102.177780
 20
64.702990
 30
0.0
 10
102.177780
 20
67.652990
 30
0.0
 10
107.177780
 20
67.652990
 30
0.0
 10
107.177780
 20
70.252990
 30
0.0
 10
104.227780
 20
70.252990
 30
0.0
 10
104.227780
 20
80.252990
 30
0.0
 10
107.177780
 20
80.252990
 30
0.0
 10
107.177780
 20
85.752990
 30
0.0
 10
102.177780
 20
85.752990
 30
0.0
 10
102.177780
 20
88.702990
 30
0.0
 10
92.177780
 20
88.702990
 30
0.0
 10
92.177780
 20
85.752990
 30
0.0
 10
72.177780
 20
85.752990
 30
0.0
 10
72.177780
 20
88.702990
 30
0.0
 10
62.177780
 20
88.702990
 30
0.0
 10
62.177780
 20
85.752990
 30
0.0
 10
57.177780
 20
85.752990
 30
0.0
 10
57.177780
 20
80.252990
 30
0.0
 10
60.127780
 20
80.252990
 30
0.0
 10
60.127780
 20
70.252990
 30
0.0
 10
57.177780
 20
70.252990
 30
0.0
 10
57.177780
 20
67.652990
 30
0.0
 10
62.177780
 20
67.652990
 30
0.0
 10
62.177780
 20
64.702990
 30
0.0
 10
72.177780
 20
64.702990
 30
0.0
 10
72.177780
 20
67.652990
 30
0.0
 10
92.177780
 20
67.652990
 30
0.0
 10
92.177780
 20
64.702990
 30
0.0
  0
LWPOLYLINE
  5
144
100
AcDbEntity
  8
Découpe_2
 62
6
100
AcDbPolyline
 90
5
 70
1
 10
119.355600
 20
36.574102
 30
0.0
 10
119.355600
 20
86.574102
 30
0.0
 10
109.355600
 20
86.574102
 30
0.0
 10
109.355600
 20
36.574102
 30
0.0
 10
119.355600
 20
36.574102
 30
0.0
  0
LWPOLYLINE
  5
145
100
AcDbEntity
  8
Découpe_2
 62
6
100
AcDbPolyline
 90
17
 70
1
 10
84.836442
 20
50.435686
 30
0.0
 10
83.505242
 20
47.803116
 30
0.0
 10
70.119242
 20
54.571866
 30
0.0
 10
65.069242
 20
54.571866
 30
0.0
 10
65.069242
 20
49.071866
 30
0.0
 10
62.119242
 20
49.071866
 30
0.0
 10
62.119242
 20
39.071866
 30
0.0
 10
65.069242
 20
39.071866
 30
0.0
 10
65.069242
 20
36.521866
 30
0.0
 10
80.069242
 20
36.521866
 30
0.0
 10
80.069242
 20
33.571866
 30
0.0
 10
95.069242
 20
33.571866
 30
0.0
 10
95.069242
 20
36.521866
 30
0.0
 10
105.815142
 20
36.521866
 30
0.0
 10
92.429142
 20
43.290616
 30
0.0
 10
93.760342
 20
45.923189
 30
0.0
 10
84.836442
 20
50.435686
 30
0.0
  0
LWPOLYLINE
  5
146
100
AcDbEntity
  8
Découpe_2
 62
6
100
AcDbPolyline
 90
13
 70
1
 10
146.533000
 20
37.702980
 30
0.0
 10
146.533000
 20
40.652980
 30
0.0
 10
136.533000
 20
40.652980
 30
0.0
 10
136.533000
 20
37.702980
 30
0.0
 10
121.533000
 20
37.702980
 30
0.0
 10
121.533000
 20
87.702990
 30
0.0
 10
136.533000
 20
87.702990
 30
0.0
 10
136.533000
 20
84.752994
 30
0.0
 10
146.533000
 20
84.752994
 30
0.0
 10
146.533000
 20
87.702990
 30
0.0
 10
161.532990
 20
87.702990
 30
0.0
 10
161.532990
 20
37.702980
 30
0.0
 10
146.533000
 20
37.702980
 30
0.0
  0
SPLINE
  5
147
100
AcDbEntity
  8
Découpe_2
 62
5
100
AcDbSpline
 70
8
 71
3
 72
8
 73
4
 74
0
 40
0
 40
0
 40
0
 40
0
 40
1
 40
1
 40
1
 40
1
 10
224.518240
 20
176.974991
 30
0.0
 10
224.518240
 20
169.047899
 30
0.0
 10
221.369215
 20
161.445479
 30
0.0
 10
215.763914
 20
155.840179
 30
0.0
  0
SPLINE
  5
148
100
AcDbEntity
  8
Découpe_2
 62
5
100
AcDbSpline
 70
8
 71
3
 72
8
 73
4
 74
0
 40
0
 40
0
 40
0
 40
0
 40
1
 40
1
 40
1
 40
1
 10
215.763914
 20
155.840179
 30
0.0
 10
210.158612
 20
150.234879
 30
0.0
 10
202.556192
 20
147.085855
 30
0.0
 10
194.629100
 20
147.085857
 30
0.0
  0
SPLINE
  5
149
100
AcDbEntity
  8
Découpe_2
 62
5
100
AcDbSpline
 70
8
 71
3
 72
8
 73
4
 74
0
 40
0
 40
0
 40
0
 40
0
 40
1
 40
1
 40
1
 40
1
 10
194.629100
 20
147.085857
 30
0.0
 10
178.121788
 20
147.085859
 30
0.0
 10
164.739969
 20
160.467679
 30
0.0
 10
164.739970
 20
176.974991
 30
0.0
  0
SPLINE
  5
14a
100
AcDbEntity
  8
Découpe_2
 62
5
100
AcDbSpline
 70
8
 71
3
 72
8
 73
4
 74
0
 40
0
 40
0
 40
0
 40
0
 40
1
 40
1
 40
1
 40
1
 10
164.739970
 20
176.974991
 30
0.0
 10
164.739970
 20
193.482302
 30
0.0
 10
178.121789
 20
206.864123
 30
0.0
 10
194.629100
 20
206.864124
 30
0.0
  0
SPLINE
  5
14b
100
AcDbEntity
  8
Découpe_2
 62
5
100
AcDbSpline
 70
8
 71
3
 72
8
 73
4
 74
0
 40
0
 40
0
 40
0
 40
0
 40
1
 40
1
 40
1
 40
1
 10
194.629100
 20
206.864124
 30
0.0
 10
202.556192
 20
206.864126
 30
0.0
 10
210.158612
 20
203.715102
 30
0.0
 10
215.763913
 20
198.109802
 30
0.0
  0
SPLINE
  5
14c
100
AcDbEntity
  8
Découpe_2
 62
5
100
AcDbSpline
 70
8
 71
3
 72
8
 73
4
 74
0
 40
0
 40
0
 40
0
 40
0
 40
1
 40
1
 40
1
 40
1
 10
215.763913
 20
198.109802
 30
0.0
 10
221.369214
 20
192.504502
 30
0.0
 10
224.518240
 20
184.902083
 30
0.0
 10
224.518240
 20
176.974991
 30
0.0
  0
LWPOLYLINE
  5
14d
100
AcDbEntity
  8
Découpe_2
 62
6
100
AcDbPolyline
 90
17
 70
1
 10
83.243000
 20
48.979443
 30
0.0
 10
84.574200
 20
51.612013
 30
0.0
 10
97.960200
 20
44.843263
 30
0.0
 10
103.010200
 20
44.843263
 30
0.0
 10
103.010200
 20
50.343263
 30
0.0
 10
105.960200
 20
50.343263
 30
0.0
 10
105.960200
 20
60.343263
 30
0.0
 10
103.010200
 20
60.343263
 30
0.0
 10
103.010200
 20
62.893263
 30
0.0
 10
88.010200
 20
62.893263
 30
0.0
 10
88.010200
 20
65.843263
 30
0.0
 10
73.010200
 20
65.843263
 30
0.0
 10
73.010200
 20
62.893263
 30
0.0
 10
62.264300
 20
62.893263
 30
0.0
 10
75.650300
 20
56.124513
 30
0.0
 10
74.319100
 20
53.491940
 30
0.0
 10
83.243000
 20
48.979443
 30
0.0
  0
SPLINE
  5
14e
100
AcDbEntity
  8
Découpe_2
 62
5
100
AcDbSpline
 70
8
 71
3
 72
8
 73
4
 74
0
 40
0
 40
0
 40
0
 40
0
 40
1
 40
1
 40
1
 40
1
 10
224.518240
 20
115.777542
 30
0.0
 10
224.518240
 20
107.850450
 30
0.0
 10
221.369214
 20
100.248031
 30
0.0
 10
215.763913
 20
94.642732
 30
0.0
  0
SPLINE
  5
14f
100
AcDbEntity
  8
Découpe_2
 62
5
100
AcDbSpline
 70
8
 71
3
 72
8
 73
4
 74
0
 40
0
 40
0
 40
0
 40
0
 40
1
 40
1
 40
1
 40
1
 10
215.763913
 20
94.642732
 30
0.0
 10
210.158612
 20
89.037432
 30
0.0
 10
202.556192
 20
85.888408
 30
0.0
 10
194.629100
 20
85.888410
 30
0.0
  0
SPLINE
  5
150
100
AcDbEntity
  8
Découpe_2
 62
5
100
AcDbSpline
 70
8
 71
3
 72
8
 73
4
 74
0
 40
0
 40
0
 40
0
 40
0
 40
1
 40
1
 40
1
 40
1
 10
194.629100
 20
85.888410
 30
0.0
 10
178.121789
 20
85.888412
 30
0.0
 10
164.739971
 20
99.270231
 30
0.0
 10
164.739970
 20
115.777542
 30
0.0
  0
SPLINE
  5
151
100
AcDbEntity
  8
Découpe_2
 62
5
100
AcDbSpline
 70
8
 71
3
 72
8
 73
4
 74
0
 40
0
 40
0
 40
0
 40
0
 40
1
 40
1
 40
1
 40
1
 10
164.739970
 20
115.777542
 30
0.0
 10
164.739969
 20
132.284854
 30
0.0
 10
178.121788
 20
145.666674
 30
0.0
 10
194.629100
 20
145.666676
 30
0.0
  0
SPLINE
  5
152
100
AcDbEntity
  8
Découpe_2
 62
5
100
AcDbSpline
 70
8
 71
3
 72
8
 73
4
 74
0
 40
0
 40
0
 40
0
 40
0
 40
1
 40
1
 40
1
 40
1
 10
194.629100
 20
145.666676
 30
0.0
 10
202.556192
 20
145.666678
 30
0.0
 10
210.158612
 20
142.517654
 30
0.0
 10
215.763914
 20
136.912354
 30
0.0
  0
SPLINE
  5
153
100
AcDbEntity
  8
Découpe_2
 62
5
100
AcDbSpline
 70
8
 71
3
 72
8
 73
4
 74
0
 40
0
 40
0
 40
0
 40
0
 40
1
 40
1
 40
1
 40
1
 10
215.763914
 20
136.912354
 30
0.0
 10
221.369215
 20
131.307054
 30
0.0
 10
224.518240
 20
123.704634
 30
0.0
 10
224.518240
 20
115.777542
 30
0.0
  0
LWPOLYLINE
  5
154
100
AcDbEntity
  8
Découpe_2
 62
5
100
AcDbPolyline
 90
2
 70
1
 10
224.518240
 20
176.974991
 30
0.0
 10
224.518240
 20
176.974991
 30
0.0
  0
LWPOLYLINE
  5
155
100
AcDbEntity
  8
Découpe_2
 62
5
100
AcDbPolyline
 90
2
 70
1
 10
224.518240
 20
115.777542
 30
0.0
 10
224.518240
 20
115.777542
 30
0.0
  0
ENDSEC
  0
SECTION
  2
OBJECTS
  0
DICTIONARY
  5
C
330
0
100
AcDbDictionary
  3
ACAD_GROUP
350
D
  3
ACAD_MLINESTYLE
350
17
  0
DICTIONARY
  5
D
330
C
100
AcDbDictionary
  0
DICTIONARY
  5
1A
330
C
100
AcDbDictionary
  0
DICTIONARY
  5
17
330
C
100
AcDbDictionary
  3
STANDARD
350
18
  0
DICTIONARY
  5
19
330
C
100
AcDbDictionary
  0
ENDSEC
  0
EOF
