<?xml version="1.0" encoding="UTF-8" standalone="no"?>
<!-- Created with Inkscape (http://www.inkscape.org/) -->

<svg
   xmlns:dc="http://purl.org/dc/elements/1.1/"
   xmlns:cc="http://creativecommons.org/ns#"
   xmlns:rdf="http://www.w3.org/1999/02/22-rdf-syntax-ns#"
   xmlns:svg="http://www.w3.org/2000/svg"
   xmlns="http://www.w3.org/2000/svg"
   xmlns:sodipodi="http://sodipodi.sourceforge.net/DTD/sodipodi-0.dtd"
   xmlns:inkscape="http://www.inkscape.org/namespaces/inkscape"
   width="210mm"
   height="297mm"
   viewBox="0 0 744.09448819 1052.3622047"
   id="svg5244"
   version="1.1"
   inkscape:version="0.91 r13725"
   sodipodi:docname="textures_hachures.svg">
  <defs
     id="defs5246" />
  <sodipodi:namedview
     id="base"
     pagecolor="#ffffff"
     bordercolor="#666666"
     borderopacity="1.0"
     inkscape:pageopacity="0.0"
     inkscape:pageshadow="2"
     inkscape:zoom="0.98994949"
     inkscape:cx="60.429192"
     inkscape:cy="377.22749"
     inkscape:document-units="px"
     inkscape:current-layer="layer1"
     showgrid="false"
     inkscape:window-width="1707"
     inkscape:window-height="907"
     inkscape:window-x="-8"
     inkscape:window-y="-8"
     inkscape:window-maximized="1" />
  <metadata
     id="metadata5249">
    <rdf:RDF>
      <cc:Work
         rdf:about="">
        <dc:format>image/svg+xml</dc:format>
        <dc:type
           rdf:resource="http://purl.org/dc/dcmitype/StillImage" />
        <dc:title></dc:title>
      </cc:Work>
    </rdf:RDF>
  </metadata>
  <g
     inkscape:label="Calque 1"
     inkscape:groupmode="layer"
     id="layer1">
    <path
       style="display:inline;fill:none;fill-rule:evenodd;stroke:#00ff00;stroke-width:0.35433072;stroke-linecap:butt;stroke-linejoin:miter;stroke-miterlimit:4;stroke-dasharray:none;stroke-opacity:1"
       d="m 246.29861,24.59197 -212.59722,212.59765 0,35.43359 212.59722,-212.5996 0,-35.43164 z m 0,70.86523 -212.59722,212.59961 0,35.43164 212.59722,-212.59766 0,-35.43359 z m 0,70.86719 -212.59722,212.59765 0,35.43361 212.59722,-212.59962 0,-35.43164 z m 0,70.86523 -212.59722,212.59959 0,35.43166 212.59722,-212.59766 0,-35.43359 z m 0,70.86719 -212.59722,212.59766 0,35.4336 212.59722,-212.59962 0,-35.43164 z m 0,70.86523 -212.59722,212.59765 0,35.4336 212.59722,-212.59764 0,-35.43361 z m 0,70.86717 -212.59722,212.59769 0,35.43356 212.59722,-212.59959 0,-35.43166 z m 0,70.86526 -212.59722,212.59765 0,35.4336 212.59722,-212.59765 0,-35.4336 z m 0,70.86522 -212.59722,212.59963 0,35.43357 212.59722,-212.5996 0,-35.4336 z m 0,70.86721 -212.59722,212.59764 0,35.43361 212.59722,-212.59769 0,-35.43356 z"
       id="path4993"
       inkscape:connector-curvature="0" />
  </g>
</svg>
