<?xml version="1.0" encoding="UTF-8"?>

<svg xmlns="http://www.w3.org/2000/svg" version="1.1"
	width="297mm"
	height="210mm"
	viewBox="0 0 297 210">
	<!-- Working space 0 0 297 210 -->
	<defs>
		<radialGradient
			id="radialGradient3661"
			gradientUnits="userSpaceOnUse"
			cy="29.149"
			cx="282.65"
			gradientTransform="matrix(.14777 .23089 -.24680 .15795 -26.318 -62.617)"
			r="19.571">
				<stop stop-color="#71b2f8" offset="0"/>
				<stop stop-color="#002795" offset="1"/>
		</radialGradient>
		<radialGradient
			id="radialGradient3817"
			gradientUnits="userSpaceOnUse"
			cy="33.9"
			cx="270.58"
			gradientTransform="matrix(.26631 .065024 -.17931 .73438 -60.668 -36.938)"
			r="19.571">
				<stop stop-color="#ff6d0f" offset="0"/>
				<stop stop-color="#ff1000" offset="1"/>
		</radialGradient>
	</defs>
	<!-- Set display:none to hide FreeCAD Logo -->
	<g
		style="display:inline"
		id="freecad-logo"
		transform="translate(271, 185) scale(1)"
		fill-rule="evenodd"
		stroke-width=".45621">
		<path d="m0.22811 0.22835v13.256h2.9558v-5.1876h2.09v-2.0452h-2.09v-2.2075h5.1486v-3.8087l-8.1044-0.0075z"
			stroke="#370700"
			fill="url(#radialGradient3817)"/>
		<path d="m13.386 4.1792-1.7193 0.98645-0.75925-0.26348-0.72439-1.8513-1.1395 0.05988-0.51976 1.9144-0.72743 0.34835-1.8143-0.79367-0.76632 0.85156 0.98645 1.7193-0.26957 0.75702-1.8513 0.72439 0.065967 1.1417 1.9144 0.51976 0.34835 0.72743-0.79976 1.8121 0.85156 0.76632 1.7193-0.98645 0.76311 0.27179 0.7183 1.8491 1.1478-0.06375 0.51367-1.9166 0.72743-0.34835 1.8182 0.80198 0.76632-0.85156-0.98645-1.7193 0.2657-0.76533 1.8491-0.7183-0.05766-1.1456-1.9166-0.51367-0.34835-0.72743 0.7959-1.8204-0.85156-0.76632zm-2.5751 2.8195 0.35295 0.20478 0.30579 0.27725 0.24481 0.33087 0.17611 0.36787 0.10354 0.39656 0.01715 0.4064-0.0587 0.4063-0.13396 0.38571-0.2131 0.35681-0.26894 0.30192-0.33087 0.24481-0.36787 0.17611-0.39656 0.10354-0.40863 0.02325-0.4063-0.0587-0.38571-0.13396-0.35681-0.2131-0.2997-0.27503-0.24703-0.32478-0.17611-0.36787-0.10132-0.40264-0.02324-0.40863 0.05869-0.4063 0.13396-0.38571 0.21087-0.35072 0.27116-0.30801 0.33087-0.24481 0.36787-0.17611 0.40264-0.10132 0.40641-0.01715 0.4063 0.05869 0.38571 0.13396z" 
		stroke="#000137"
		fill="url(#radialGradient3661)"/>
	</g>
<g id="Ortho_0_0"
   transform="rotate(90,292.344,31.212) translate(292.344,31.212) scale(1,1)"
  >
<g   stroke="rgb(0, 0, 0)"
   stroke-width="0.35"
   stroke-linecap="butt"
   stroke-linejoin="miter"
   fill="none"
   transform="scale(1,-1)"
  >
<path id= "1" d=" M 11.288 -26.344 L -1.21197 -18.344 " />
<path id= "2" d=" M -1.21197 -18.344 L -26.212 -14.844 " />
<path id= "3" d=" M -26.212 -14.844 L -26.212 -9.84401 " />
<path id= "4" d=" M -26.212 -9.84401 L -1.21197 -6.34401 " />
<path id= "5" d=" M -1.21197 -6.34401 L 11.288 1.65599 " />
<path id= "6" d=" M 11.288 1.65599 L 13.788 -0.844013 " />
<path id= "7" d=" M 13.788 -0.844013 L 13.788 -5.84401 " />
<path id= "8" d=" M 12.288 -7.34401 L 13.788 -5.84401 " />
<path id= "9" d=" M 12.288 -17.344 L 12.288 -7.34401 " />
<path id= "10" d=" M 13.788 -18.844 L 12.288 -17.344 " />
<path id= "11" d=" M 13.788 -18.844 L 13.788 -23.844 " />
<path id= "12" d=" M 11.288 -26.344 L 13.788 -23.844 " />
<path id= "13" d=" M -0.133864 -16.6595 L 1.45634 -14.1748 " />
<path id= "14" d=" M 1.45634 -14.1748 L 9.87906 -19.5653 " />
<path id= "15" d=" M 9.87906 -19.5653 L 8.28885 -22.05 " />
<path id= "16" d=" M 8.28885 -22.05 L -0.133864 -16.6595 " />
<path id= "17" d=" M -0.133864 -8.02856 L 8.28885 -2.63802 " />
<path id= "18" d=" M 8.28885 -2.63802 L 9.87906 -5.12272 " />
<path id= "19" d=" M 9.87906 -5.12272 L 1.45634 -10.5133 " />
<path id= "20" d=" M 1.45634 -10.5133 L -0.133864 -8.02856 " />
<path id= "21" d=" M -18.412 -13.819 L -18.412 -10.869 " />
<path id= "22" d=" M -18.412 -10.869 L -8.41197 -10.869 " />
<path id= "23" d=" M -8.41197 -10.869 L -8.41197 -13.819 " />
<path id= "24" d=" M -8.41197 -13.819 L -18.412 -13.819 " />
</g>
</g>



<g id="Ortho_0_001"
   transform="rotate(90,272.344,18.788) translate(272.344,18.788) scale(1,1)"
  >
<g   stroke="rgb(0, 0, 0)"
   stroke-width="0.35"
   stroke-linecap="butt"
   stroke-linejoin="miter"
   fill="none"
   transform="scale(1,-1)"
  >
<path id= "1" d=" M -11.288 -26.344 L 1.21197 -18.344 " />
<path id= "2" d=" M 1.21197 -18.344 L 26.212 -14.844 " />
<path id= "3" d=" M 26.212 -14.844 L 26.212 -9.84401 " />
<path id= "4" d=" M 26.212 -9.84401 L 1.21197 -6.34401 " />
<path id= "5" d=" M 1.21197 -6.34401 L -11.288 1.65599 " />
<path id= "6" d=" M -11.288 1.65599 L -13.788 -0.844013 " />
<path id= "7" d=" M -13.788 -0.844013 L -13.788 -5.84401 " />
<path id= "8" d=" M -12.288 -7.34401 L -13.788 -5.84401 " />
<path id= "9" d=" M -12.288 -17.344 L -12.288 -7.34401 " />
<path id= "10" d=" M -13.788 -18.844 L -12.288 -17.344 " />
<path id= "11" d=" M -13.788 -18.844 L -13.788 -23.844 " />
<path id= "12" d=" M -11.288 -26.344 L -13.788 -23.844 " />
<path id= "13" d=" M 0.133864 -16.6595 L -1.45634 -14.1748 " />
<path id= "14" d=" M -1.45634 -14.1748 L -9.87906 -19.5653 " />
<path id= "15" d=" M -9.87906 -19.5653 L -8.28885 -22.05 " />
<path id= "16" d=" M -8.28885 -22.05 L 0.133864 -16.6595 " />
<path id= "17" d=" M 0.133864 -8.02856 L -8.28885 -2.63802 " />
<path id= "18" d=" M -8.28885 -2.63802 L -9.87906 -5.12272 " />
<path id= "19" d=" M -9.87906 -5.12272 L -1.45634 -10.5133 " />
<path id= "20" d=" M -1.45634 -10.5133 L 0.133864 -8.02856 " />
<path id= "21" d=" M 18.412 -13.819 L 18.412 -10.869 " />
<path id= "22" d=" M 18.412 -10.869 L 8.41197 -10.869 " />
<path id= "23" d=" M 8.41197 -10.869 L 8.41197 -13.819 " />
<path id= "24" d=" M 8.41197 -13.819 L 18.412 -13.819 " />
</g>
</g>



<g id="Ortho_0_002"
   transform="rotate(-90,197.772,33.412) translate(197.772,33.412) scale(1,1)"
  >
<g   stroke="rgb(0, 0, 0)"
   stroke-width="0.35"
   stroke-linecap="butt"
   stroke-linejoin="miter"
   fill="none"
   transform="scale(1,-1)"
  >
<path id= "1" d=" M 25.912 32.772 L 25.912 -37.228 " />
<path id= "2" d=" M 25.912 32.772 L 18.412 32.772 " />
<path id= "3" d=" M 18.412 -37.228 L 25.912 -37.228 " />
<path id= "4" d=" M 18.412 -42.228 L 18.412 -37.228 " />
<path id= "5" d=" M 18.412 -42.228 L 8.41197 -42.228 " />
<path id= "6" d=" M 8.41197 -37.228 L 8.41197 -42.228 " />
<path id= "7" d=" M 0.911971 -37.228 L 8.41197 -37.228 " />
<path id= "8" d=" M 0.911971 -37.228 L 0.911971 32.772 " />
<path id= "9" d=" M 0.911971 32.772 L 8.41197 32.772 " />
<path id= "10" d=" M 8.41197 32.772 L 8.41197 37.772 " />
<path id= "11" d=" M 8.41197 37.772 L 18.412 37.772 " />
<path id= "12" d=" M 18.412 32.772 L 18.412 37.772 " />
</g>
</g>



<g id="Ortho_0_003"
   transform="rotate(-90,268.756,32.1983) translate(268.756,32.1983) scale(1,1)"
  >
<g   stroke="rgb(0, 0, 0)"
   stroke-width="0.35"
   stroke-linecap="butt"
   stroke-linejoin="miter"
   fill="none"
   transform="scale(1,-1)"
  >
<path id= "1" d=" M -20.8017 53.7558 L -20.8017 -16.2442 " />
<path id= "2" d=" M -20.8017 53.7558 L -22.8017 53.7558 " />
<path id= "3" d=" M -22.8017 -16.2442 L -20.8017 -16.2442 " />
<path id= "4" d=" M -22.8017 -21.2442 L -22.8017 -16.2442 " />
<path id= "5" d=" M -22.8017 -21.2442 L -32.8017 -21.2442 " />
<path id= "6" d=" M -32.8017 -16.2442 L -32.8017 -21.2442 " />
<path id= "7" d=" M -34.8017 -16.2442 L -32.8017 -16.2442 " />
<path id= "8" d=" M -34.8017 -16.2442 L -34.8017 53.7558 " />
<path id= "9" d=" M -34.8017 53.7558 L -32.8017 53.7558 " />
<path id= "10" d=" M -32.8017 53.7558 L -32.8017 58.7558 " />
<path id= "11" d=" M -32.8017 58.7558 L -22.8017 58.7558 " />
<path id= "12" d=" M -22.8017 53.7558 L -22.8017 58.7558 " />
</g>
</g>



<g id="Ortho_0_004"
   transform="rotate(-90,268.756,52.1983) translate(268.756,52.1983) scale(1,1)"
  >
<g   stroke="rgb(0, 0, 0)"
   stroke-width="0.35"
   stroke-linecap="butt"
   stroke-linejoin="miter"
   fill="none"
   transform="scale(1,-1)"
  >
<path id= "1" d=" M -20.8017 53.7558 L -20.8017 -16.2442 " />
<path id= "2" d=" M -20.8017 53.7558 L -22.8017 53.7558 " />
<path id= "3" d=" M -22.8017 -16.2442 L -20.8017 -16.2442 " />
<path id= "4" d=" M -22.8017 -21.2442 L -22.8017 -16.2442 " />
<path id= "5" d=" M -22.8017 -21.2442 L -32.8017 -21.2442 " />
<path id= "6" d=" M -32.8017 -16.2442 L -32.8017 -21.2442 " />
<path id= "7" d=" M -34.8017 -16.2442 L -32.8017 -16.2442 " />
<path id= "8" d=" M -34.8017 -16.2442 L -34.8017 53.7558 " />
<path id= "9" d=" M -34.8017 53.7558 L -32.8017 53.7558 " />
<path id= "10" d=" M -32.8017 53.7558 L -32.8017 58.7558 " />
<path id= "11" d=" M -32.8017 58.7558 L -22.8017 58.7558 " />
<path id= "12" d=" M -22.8017 53.7558 L -22.8017 58.7558 " />
</g>
</g>



</svg>

